<?xml version="1.0" encoding="utf-8" standalone="no"?>
<!DOCTYPE svg PUBLIC "-//W3C//DTD SVG 1.1//EN"
  "http://www.w3.org/Graphics/SVG/1.1/DTD/svg11.dtd">
<svg xmlns:xlink="http://www.w3.org/1999/xlink" width="1152pt" height="1152pt" viewBox="0 0 1152 1152" xmlns="http://www.w3.org/2000/svg" version="1.1">
 <metadata>
  <rdf:RDF xmlns:dc="http://purl.org/dc/elements/1.1/" xmlns:cc="http://creativecommons.org/ns#" xmlns:rdf="http://www.w3.org/1999/02/22-rdf-syntax-ns#">
   <cc:Work>
    <dc:type rdf:resource="http://purl.org/dc/dcmitype/StillImage"/>
    <dc:date>2022-11-17T01:45:51.528745</dc:date>
    <dc:format>image/svg+xml</dc:format>
    <dc:creator>
     <cc:Agent>
      <dc:title>Matplotlib v3.5.3, https://matplotlib.org/</dc:title>
     </cc:Agent>
    </dc:creator>
   </cc:Work>
  </rdf:RDF>
 </metadata>
 <defs>
  <style type="text/css">*{stroke-linejoin: round; stroke-linecap: butt}</style>
 </defs>
 <g id="figure_1">
  <g id="patch_1">
   <path d="M 0 1152 
L 1152 1152 
L 1152 0 
L 0 0 
z
" style="fill: #ffffff"/>
  </g>
  <g id="axes_1">
   <g id="patch_2">
    <path d="M 144 1025.28 
L 1036.8 1025.28 
L 1036.8 138.24 
L 144 138.24 
z
" style="fill: #ffffff"/>
   </g>
   <g id="text_1">
    <g id="patch_3">
     <path d="M 310.668635 515.975442 
L 345.26978 495.851787 
Q 347.344422 494.645197 346.137832 492.570554 
L 342.245323 485.877672 
Q 341.038734 483.803029 338.964091 485.009619 
L 304.362946 505.133275 
Q 302.288304 506.339864 303.494894 508.414507 
L 307.387403 515.10739 
Q 308.593992 517.182032 310.668635 515.975442 
L 310.668635 515.975442 
z
" clip-path="url(#p3436a32bdf)" style="fill: none"/>
    </g>
    <g clip-path="url(#p3436a32bdf)">
     <!-- ['latency'] -->
     <g transform="translate(308.625602 512.462597)rotate(-30.181825)scale(0.08 -0.08)">
      <defs>
       <path id="DejaVuSans-5b" d="M 550 4863 
L 1875 4863 
L 1875 4416 
L 1125 4416 
L 1125 -397 
L 1875 -397 
L 1875 -844 
L 550 -844 
L 550 4863 
z
" transform="scale(0.015625)"/>
       <path id="DejaVuSans-27" d="M 1147 4666 
L 1147 2931 
L 616 2931 
L 616 4666 
L 1147 4666 
z
" transform="scale(0.015625)"/>
       <path id="DejaVuSans-6c" d="M 603 4863 
L 1178 4863 
L 1178 0 
L 603 0 
L 603 4863 
z
" transform="scale(0.015625)"/>
       <path id="DejaVuSans-61" d="M 2194 1759 
Q 1497 1759 1228 1600 
Q 959 1441 959 1056 
Q 959 750 1161 570 
Q 1363 391 1709 391 
Q 2188 391 2477 730 
Q 2766 1069 2766 1631 
L 2766 1759 
L 2194 1759 
z
M 3341 1997 
L 3341 0 
L 2766 0 
L 2766 531 
Q 2569 213 2275 61 
Q 1981 -91 1556 -91 
Q 1019 -91 701 211 
Q 384 513 384 1019 
Q 384 1609 779 1909 
Q 1175 2209 1959 2209 
L 2766 2209 
L 2766 2266 
Q 2766 2663 2505 2880 
Q 2244 3097 1772 3097 
Q 1472 3097 1187 3025 
Q 903 2953 641 2809 
L 641 3341 
Q 956 3463 1253 3523 
Q 1550 3584 1831 3584 
Q 2591 3584 2966 3190 
Q 3341 2797 3341 1997 
z
" transform="scale(0.015625)"/>
       <path id="DejaVuSans-74" d="M 1172 4494 
L 1172 3500 
L 2356 3500 
L 2356 3053 
L 1172 3053 
L 1172 1153 
Q 1172 725 1289 603 
Q 1406 481 1766 481 
L 2356 481 
L 2356 0 
L 1766 0 
Q 1100 0 847 248 
Q 594 497 594 1153 
L 594 3053 
L 172 3053 
L 172 3500 
L 594 3500 
L 594 4494 
L 1172 4494 
z
" transform="scale(0.015625)"/>
       <path id="DejaVuSans-65" d="M 3597 1894 
L 3597 1613 
L 953 1613 
Q 991 1019 1311 708 
Q 1631 397 2203 397 
Q 2534 397 2845 478 
Q 3156 559 3463 722 
L 3463 178 
Q 3153 47 2828 -22 
Q 2503 -91 2169 -91 
Q 1331 -91 842 396 
Q 353 884 353 1716 
Q 353 2575 817 3079 
Q 1281 3584 2069 3584 
Q 2775 3584 3186 3129 
Q 3597 2675 3597 1894 
z
M 3022 2063 
Q 3016 2534 2758 2815 
Q 2500 3097 2075 3097 
Q 1594 3097 1305 2825 
Q 1016 2553 972 2059 
L 3022 2063 
z
" transform="scale(0.015625)"/>
       <path id="DejaVuSans-6e" d="M 3513 2113 
L 3513 0 
L 2938 0 
L 2938 2094 
Q 2938 2591 2744 2837 
Q 2550 3084 2163 3084 
Q 1697 3084 1428 2787 
Q 1159 2491 1159 1978 
L 1159 0 
L 581 0 
L 581 3500 
L 1159 3500 
L 1159 2956 
Q 1366 3272 1645 3428 
Q 1925 3584 2291 3584 
Q 2894 3584 3203 3211 
Q 3513 2838 3513 2113 
z
" transform="scale(0.015625)"/>
       <path id="DejaVuSans-63" d="M 3122 3366 
L 3122 2828 
Q 2878 2963 2633 3030 
Q 2388 3097 2138 3097 
Q 1578 3097 1268 2742 
Q 959 2388 959 1747 
Q 959 1106 1268 751 
Q 1578 397 2138 397 
Q 2388 397 2633 464 
Q 2878 531 3122 666 
L 3122 134 
Q 2881 22 2623 -34 
Q 2366 -91 2075 -91 
Q 1284 -91 818 406 
Q 353 903 353 1747 
Q 353 2603 823 3093 
Q 1294 3584 2113 3584 
Q 2378 3584 2631 3529 
Q 2884 3475 3122 3366 
z
" transform="scale(0.015625)"/>
       <path id="DejaVuSans-79" d="M 2059 -325 
Q 1816 -950 1584 -1140 
Q 1353 -1331 966 -1331 
L 506 -1331 
L 506 -850 
L 844 -850 
Q 1081 -850 1212 -737 
Q 1344 -625 1503 -206 
L 1606 56 
L 191 3500 
L 800 3500 
L 1894 763 
L 2988 3500 
L 3597 3500 
L 2059 -325 
z
" transform="scale(0.015625)"/>
       <path id="DejaVuSans-5d" d="M 1947 4863 
L 1947 -844 
L 622 -844 
L 622 -397 
L 1369 -397 
L 1369 4416 
L 622 4416 
L 622 4863 
L 1947 4863 
z
" transform="scale(0.015625)"/>
      </defs>
      <use xlink:href="#DejaVuSans-5b"/>
      <use xlink:href="#DejaVuSans-27" x="39.013672"/>
      <use xlink:href="#DejaVuSans-6c" x="66.503906"/>
      <use xlink:href="#DejaVuSans-61" x="94.287109"/>
      <use xlink:href="#DejaVuSans-74" x="155.566406"/>
      <use xlink:href="#DejaVuSans-65" x="194.775391"/>
      <use xlink:href="#DejaVuSans-6e" x="256.298828"/>
      <use xlink:href="#DejaVuSans-63" x="319.677734"/>
      <use xlink:href="#DejaVuSans-79" x="374.658203"/>
      <use xlink:href="#DejaVuSans-27" x="433.837891"/>
      <use xlink:href="#DejaVuSans-5d" x="461.328125"/>
     </g>
    </g>
   </g>
   <g id="text_2">
    <g id="patch_4">
     <path d="M 620.056246 314.025888 
L 713.193859 330.080839 
Q 715.558977 330.488536 715.966673 328.123418 
L 717.319715 320.274182 
Q 717.727411 317.909064 715.362293 317.501367 
L 622.224681 301.446416 
Q 619.859562 301.03872 619.451866 303.403838 
L 618.098824 311.253074 
Q 617.691128 313.618192 620.056246 314.025888 
L 620.056246 314.025888 
z
" clip-path="url(#p3436a32bdf)" style="fill: none"/>
    </g>
    <g clip-path="url(#p3436a32bdf)">
     <!-- ['latency', 'http_status'] -->
     <g transform="translate(620.784366 309.801935)rotate(-350.219539)scale(0.08 -0.08)">
      <defs>
       <path id="DejaVuSans-2c" d="M 750 794 
L 1409 794 
L 1409 256 
L 897 -744 
L 494 -744 
L 750 256 
L 750 794 
z
" transform="scale(0.015625)"/>
       <path id="DejaVuSans-20" transform="scale(0.015625)"/>
       <path id="DejaVuSans-68" d="M 3513 2113 
L 3513 0 
L 2938 0 
L 2938 2094 
Q 2938 2591 2744 2837 
Q 2550 3084 2163 3084 
Q 1697 3084 1428 2787 
Q 1159 2491 1159 1978 
L 1159 0 
L 581 0 
L 581 4863 
L 1159 4863 
L 1159 2956 
Q 1366 3272 1645 3428 
Q 1925 3584 2291 3584 
Q 2894 3584 3203 3211 
Q 3513 2838 3513 2113 
z
" transform="scale(0.015625)"/>
       <path id="DejaVuSans-70" d="M 1159 525 
L 1159 -1331 
L 581 -1331 
L 581 3500 
L 1159 3500 
L 1159 2969 
Q 1341 3281 1617 3432 
Q 1894 3584 2278 3584 
Q 2916 3584 3314 3078 
Q 3713 2572 3713 1747 
Q 3713 922 3314 415 
Q 2916 -91 2278 -91 
Q 1894 -91 1617 61 
Q 1341 213 1159 525 
z
M 3116 1747 
Q 3116 2381 2855 2742 
Q 2594 3103 2138 3103 
Q 1681 3103 1420 2742 
Q 1159 2381 1159 1747 
Q 1159 1113 1420 752 
Q 1681 391 2138 391 
Q 2594 391 2855 752 
Q 3116 1113 3116 1747 
z
" transform="scale(0.015625)"/>
       <path id="DejaVuSans-5f" d="M 3263 -1063 
L 3263 -1509 
L -63 -1509 
L -63 -1063 
L 3263 -1063 
z
" transform="scale(0.015625)"/>
       <path id="DejaVuSans-73" d="M 2834 3397 
L 2834 2853 
Q 2591 2978 2328 3040 
Q 2066 3103 1784 3103 
Q 1356 3103 1142 2972 
Q 928 2841 928 2578 
Q 928 2378 1081 2264 
Q 1234 2150 1697 2047 
L 1894 2003 
Q 2506 1872 2764 1633 
Q 3022 1394 3022 966 
Q 3022 478 2636 193 
Q 2250 -91 1575 -91 
Q 1294 -91 989 -36 
Q 684 19 347 128 
L 347 722 
Q 666 556 975 473 
Q 1284 391 1588 391 
Q 1994 391 2212 530 
Q 2431 669 2431 922 
Q 2431 1156 2273 1281 
Q 2116 1406 1581 1522 
L 1381 1569 
Q 847 1681 609 1914 
Q 372 2147 372 2553 
Q 372 3047 722 3315 
Q 1072 3584 1716 3584 
Q 2034 3584 2315 3537 
Q 2597 3491 2834 3397 
z
" transform="scale(0.015625)"/>
       <path id="DejaVuSans-75" d="M 544 1381 
L 544 3500 
L 1119 3500 
L 1119 1403 
Q 1119 906 1312 657 
Q 1506 409 1894 409 
Q 2359 409 2629 706 
Q 2900 1003 2900 1516 
L 2900 3500 
L 3475 3500 
L 3475 0 
L 2900 0 
L 2900 538 
Q 2691 219 2414 64 
Q 2138 -91 1772 -91 
Q 1169 -91 856 284 
Q 544 659 544 1381 
z
M 1991 3584 
L 1991 3584 
z
" transform="scale(0.015625)"/>
      </defs>
      <use xlink:href="#DejaVuSans-5b"/>
      <use xlink:href="#DejaVuSans-27" x="39.013672"/>
      <use xlink:href="#DejaVuSans-6c" x="66.503906"/>
      <use xlink:href="#DejaVuSans-61" x="94.287109"/>
      <use xlink:href="#DejaVuSans-74" x="155.566406"/>
      <use xlink:href="#DejaVuSans-65" x="194.775391"/>
      <use xlink:href="#DejaVuSans-6e" x="256.298828"/>
      <use xlink:href="#DejaVuSans-63" x="319.677734"/>
      <use xlink:href="#DejaVuSans-79" x="374.658203"/>
      <use xlink:href="#DejaVuSans-27" x="433.837891"/>
      <use xlink:href="#DejaVuSans-2c" x="461.328125"/>
      <use xlink:href="#DejaVuSans-20" x="493.115234"/>
      <use xlink:href="#DejaVuSans-27" x="524.902344"/>
      <use xlink:href="#DejaVuSans-68" x="552.392578"/>
      <use xlink:href="#DejaVuSans-74" x="615.771484"/>
      <use xlink:href="#DejaVuSans-74" x="654.980469"/>
      <use xlink:href="#DejaVuSans-70" x="694.189453"/>
      <use xlink:href="#DejaVuSans-5f" x="757.666016"/>
      <use xlink:href="#DejaVuSans-73" x="807.666016"/>
      <use xlink:href="#DejaVuSans-74" x="859.765625"/>
      <use xlink:href="#DejaVuSans-61" x="898.974609"/>
      <use xlink:href="#DejaVuSans-74" x="960.253906"/>
      <use xlink:href="#DejaVuSans-75" x="999.462891"/>
      <use xlink:href="#DejaVuSans-73" x="1062.841797"/>
      <use xlink:href="#DejaVuSans-27" x="1114.941406"/>
      <use xlink:href="#DejaVuSans-5d" x="1142.431641"/>
     </g>
    </g>
   </g>
   <g id="text_3">
    <g id="patch_5">
     <path d="M 553.058283 395.872873 
L 554.735451 435.86522 
Q 554.836012 438.263112 557.233904 438.162551 
L 564.969604 437.838138 
Q 567.367497 437.737577 567.266936 435.339684 
L 565.589768 395.347337 
Q 565.489207 392.949444 563.091314 393.050005 
L 555.355614 393.374419 
Q 552.957722 393.47498 553.058283 395.872873 
L 553.058283 395.872873 
z
" clip-path="url(#p3436a32bdf)" style="fill: none"/>
    </g>
    <g clip-path="url(#p3436a32bdf)">
     <!-- ['latency'] -->
     <g transform="translate(557.118464 395.7026)rotate(-272.401419)scale(0.08 -0.08)">
      <use xlink:href="#DejaVuSans-5b"/>
      <use xlink:href="#DejaVuSans-27" x="39.013672"/>
      <use xlink:href="#DejaVuSans-6c" x="66.503906"/>
      <use xlink:href="#DejaVuSans-61" x="94.287109"/>
      <use xlink:href="#DejaVuSans-74" x="155.566406"/>
      <use xlink:href="#DejaVuSans-65" x="194.775391"/>
      <use xlink:href="#DejaVuSans-6e" x="256.298828"/>
      <use xlink:href="#DejaVuSans-63" x="319.677734"/>
      <use xlink:href="#DejaVuSans-79" x="374.658203"/>
      <use xlink:href="#DejaVuSans-27" x="433.837891"/>
      <use xlink:href="#DejaVuSans-5d" x="461.328125"/>
     </g>
    </g>
   </g>
   <g id="patch_6">
    <path d="M 901.092178 407.12013 
Q 907.523005 490.121768 913.867468 572.008713 
" clip-path="url(#p3436a32bdf)" style="fill: none; stroke: #808080; stroke-linecap: round"/>
    <path d="M 915.552504 567.866171 
L 913.867468 572.008713 
L 911.564456 568.175158 
L 915.552504 567.866171 
z
" clip-path="url(#p3436a32bdf)" style="fill: #808080; stroke: #808080; stroke-linecap: round"/>
   </g>
   <g id="patch_7">
    <path d="M 352.006814 405.447811 
Q 289.316948 490.123989 227.292338 573.901594 
" clip-path="url(#p3436a32bdf)" style="fill: none; stroke: #808080; stroke-linecap: round"/>
    <path d="M 231.27985 571.87681 
L 227.292338 573.901594 
L 228.065018 569.496714 
L 231.27985 571.87681 
z
" clip-path="url(#p3436a32bdf)" style="fill: #808080; stroke: #808080; stroke-linecap: round"/>
   </g>
   <g id="patch_8">
    <path d="M 354.276862 406.655907 
Q 324.816238 490.123991 295.727733 572.537784 
" clip-path="url(#p3436a32bdf)" style="fill: none; stroke: #ff0000; stroke-linecap: round"/>
    <path d="M 298.945037 569.431507 
L 295.727733 572.537784 
L 295.173094 568.100174 
L 298.945037 569.431507 
z
" clip-path="url(#p3436a32bdf)" style="fill: #ff0000; stroke: #ff0000; stroke-linecap: round"/>
   </g>
   <g id="patch_9">
    <path d="M 357.643728 407.131316 
Q 367.415246 581.758162 377.124299 755.268721 
" clip-path="url(#p3436a32bdf)" style="fill: none; stroke: #808080; stroke-linecap: round"/>
    <path d="M 378.897699 751.16323 
L 377.124299 755.268721 
L 374.903947 751.386707 
L 378.897699 751.16323 
z
" clip-path="url(#p3436a32bdf)" style="fill: #808080; stroke: #808080; stroke-linecap: round"/>
   </g>
   <g id="patch_10">
    <path d="M 359.680451 406.773361 
Q 385.033572 490.124045 410.061334 572.405083 
" clip-path="url(#p3436a32bdf)" style="fill: none; stroke: #808080; stroke-linecap: round"/>
    <path d="M 410.810736 567.996183 
L 410.061334 572.405083 
L 406.983855 569.160221 
L 410.810736 567.996183 
z
" clip-path="url(#p3436a32bdf)" style="fill: #808080; stroke: #808080; stroke-linecap: round"/>
   </g>
   <g id="patch_11">
    <path d="M 356.491178 407.12013 
Q 350.060351 490.121768 343.715889 572.008713 
" clip-path="url(#p3436a32bdf)" style="fill: none; stroke: #808080; stroke-linecap: round"/>
    <path d="M 346.0189 568.175158 
L 343.715889 572.008713 
L 342.030852 567.866171 
L 346.0189 568.175158 
z
" clip-path="url(#p3436a32bdf)" style="fill: #808080; stroke: #808080; stroke-linecap: round"/>
   </g>
   <g id="patch_12">
    <path d="M 227.091974 588.351397 
Q 299.572442 673.396272 371.3277 757.590223 
" clip-path="url(#p3436a32bdf)" style="fill: none; stroke: #808080; stroke-linecap: round"/>
    <path d="M 370.25529 753.248571 
L 371.3277 757.590223 
L 367.210933 755.843159 
L 370.25529 753.248571 
z
" clip-path="url(#p3436a32bdf)" style="fill: #808080; stroke: #808080; stroke-linecap: round"/>
   </g>
   <g id="patch_13">
    <path d="M 221.47438 590.420822 
Q 221.47438 673.395847 221.47438 755.252839 
" clip-path="url(#p3436a32bdf)" style="fill: none; stroke: #808080; stroke-linecap: round"/>
    <path d="M 223.47438 751.252839 
L 221.47438 755.252839 
L 219.47438 751.252839 
L 223.47438 751.252839 
z
" clip-path="url(#p3436a32bdf)" style="fill: #808080; stroke: #808080; stroke-linecap: round"/>
   </g>
   <g id="patch_14">
    <path d="M 379.305689 773.536944 
Q 395.288752 856.669057 411.060727 938.703244 
" clip-path="url(#p3436a32bdf)" style="fill: none; stroke: #808080; stroke-linecap: round"/>
    <path d="M 412.269544 934.397578 
L 411.060727 938.703244 
L 408.341484 935.152791 
L 412.269544 934.397578 
z
" clip-path="url(#p3436a32bdf)" style="fill: #808080; stroke: #808080; stroke-linecap: round"/>
   </g>
   <g id="patch_15">
    <path d="M 412.906857 590.420822 
Q 412.906857 765.034021 412.906857 938.529186 
" clip-path="url(#p3436a32bdf)" style="fill: none; stroke: #808080; stroke-linecap: round"/>
    <path d="M 414.906857 934.529186 
L 412.906857 938.529186 
L 410.906857 934.529186 
L 414.906857 934.529186 
z
" clip-path="url(#p3436a32bdf)" style="fill: #808080; stroke: #808080; stroke-linecap: round"/>
   </g>
   <g id="patch_16">
    <path d="M 491.317659 407.148095 
Q 491.793864 490.12312 492.263653 571.98013 
" clip-path="url(#p3436a32bdf)" style="fill: none; stroke: #808080; stroke-linecap: round"/>
    <path d="M 494.240664 567.968718 
L 492.263653 571.98013 
L 490.240729 567.991674 
L 494.240664 567.968718 
z
" clip-path="url(#p3436a32bdf)" style="fill: #808080; stroke: #808080; stroke-linecap: round"/>
   </g>
   <g id="patch_17">
    <path d="M 490.046551 407.057208 
Q 452.087892 673.392953 414.286983 938.621849 
" clip-path="url(#p3436a32bdf)" style="fill: none; stroke: #808080; stroke-linecap: round"/>
    <path d="M 416.831359 934.944058 
L 414.286983 938.621849 
L 412.871375 934.379673 
L 416.831359 934.944058 
z
" clip-path="url(#p3436a32bdf)" style="fill: #808080; stroke: #808080; stroke-linecap: round"/>
   </g>
   <g id="patch_18">
    <path d="M 494.376714 406.572012 
Q 526.50488 490.12553 558.231779 572.635503 
" clip-path="url(#p3436a32bdf)" style="fill: none; stroke: #808080; stroke-linecap: round"/>
    <path d="M 558.662917 568.184197 
L 558.231779 572.635503 
L 554.929417 569.61981 
L 558.662917 568.184197 
z
" clip-path="url(#p3436a32bdf)" style="fill: #808080; stroke: #808080; stroke-linecap: round"/>
   </g>
   <g id="patch_19">
    <path d="M 558.584869 223.875368 
Q 558.584869 306.850393 558.584869 388.707384 
" clip-path="url(#p3436a32bdf)" style="fill: none; stroke: #808080; stroke-linecap: round"/>
    <path d="M 560.584869 384.707384 
L 558.584869 388.707384 
L 556.584869 384.707384 
L 560.584869 384.707384 
z
" clip-path="url(#p3436a32bdf)" style="fill: #808080; stroke: #808080; stroke-linecap: round"/>
   </g>
   <g id="patch_20">
    <path d="M 566.218545 219.307252 
Q 729.505186 306.851495 891.806477 393.867452 
" clip-path="url(#p3436a32bdf)" style="fill: none; stroke: #808080; stroke-linecap: round"/>
    <path d="M 889.226203 390.214756 
L 891.806477 393.867452 
L 887.336156 393.740054 
L 889.226203 390.214756 
z
" clip-path="url(#p3436a32bdf)" style="fill: #808080; stroke: #808080; stroke-linecap: round"/>
   </g>
   <g id="patch_21">
    <path d="M 552.176623 221.045289 
Q 457.87169 306.851604 364.393708 391.905489 
" clip-path="url(#p3436a32bdf)" style="fill: none; stroke: #808080; stroke-linecap: round"/>
    <path d="M 368.69829 390.692815 
L 364.393708 391.905489 
L 366.006318 387.73422 
L 368.69829 390.692815 
z
" clip-path="url(#p3436a32bdf)" style="fill: #808080; stroke: #808080; stroke-linecap: round"/>
   </g>
   <g id="patch_22">
    <path d="M 563.222522 222.527445 
Q 616.698878 306.851821 669.576461 390.23202 
" clip-path="url(#p3436a32bdf)" style="fill: none; stroke: #808080; stroke-linecap: round"/>
    <path d="M 669.123221 385.782911 
L 669.576461 390.23202 
L 665.74523 387.925147 
L 669.123221 385.782911 
z
" clip-path="url(#p3436a32bdf)" style="fill: #808080; stroke: #808080; stroke-linecap: round"/>
   </g>
   <g id="patch_23">
    <path d="M 564.412673 221.621373 
Q 641.940728 306.852245 718.71647 391.256058 
" clip-path="url(#p3436a32bdf)" style="fill: none; stroke: #808080; stroke-linecap: round"/>
    <path d="M 717.504403 386.951306 
L 718.71647 391.256058 
L 714.545428 389.64286 
L 717.504403 386.951306 
z
" clip-path="url(#p3436a32bdf)" style="fill: #808080; stroke: #808080; stroke-linecap: round"/>
   </g>
   <g id="patch_24">
    <path d="M 555.598872 223.344029 
Q 524.925954 306.852154 494.638514 389.310801 
" clip-path="url(#p3436a32bdf)" style="fill: none; stroke: #808080; stroke-linecap: round"/>
    <path d="M 497.895009 386.245635 
L 494.638514 389.310801 
L 494.140279 384.866505 
L 497.895009 386.245635 
z
" clip-path="url(#p3436a32bdf)" style="fill: #808080; stroke: #808080; stroke-linecap: round"/>
   </g>
   <g id="patch_25">
    <path d="M 552.723397 221.587814 
Q 390.029211 398.487722 228.091862 574.564709 
" clip-path="url(#p3436a32bdf)" style="fill: none; stroke: #808080; stroke-linecap: round"/>
    <path d="M 232.271689 572.974411 
L 228.091862 574.564709 
L 229.327519 570.266669 
L 232.271689 572.974411 
z
" clip-path="url(#p3436a32bdf)" style="fill: #808080; stroke: #808080; stroke-linecap: round"/>
   </g>
   <g id="patch_26">
    <path d="M 555.878168 223.440509 
Q 468.127911 490.123191 380.727105 755.743855 
" clip-path="url(#p3436a32bdf)" style="fill: none; stroke: #808080; stroke-linecap: round"/>
    <path d="M 383.877134 752.569377 
L 380.727105 755.743855 
L 380.07754 751.319144 
L 383.877134 752.569377 
z
" clip-path="url(#p3436a32bdf)" style="fill: #808080; stroke: #808080; stroke-linecap: round"/>
   </g>
   <g id="patch_27">
    <path d="M 555.38727 223.260133 
Q 485.746642 398.485313 416.518943 572.671507 
" clip-path="url(#p3436a32bdf)" style="fill: none; stroke: #808080; stroke-linecap: round"/>
    <path d="M 419.854875 569.692992 
L 416.518943 572.671507 
L 416.13769 568.215652 
L 419.854875 569.692992 
z
" clip-path="url(#p3436a32bdf)" style="fill: #808080; stroke: #808080; stroke-linecap: round"/>
   </g>
   <g id="patch_28">
    <path d="M 565.215322 220.782417 
Q 667.709887 306.851427 769.348259 392.201457 
" clip-path="url(#p3436a32bdf)" style="fill: none; stroke: #ff0000; stroke-linecap: round"/>
    <path d="M 767.571203 388.097547 
L 769.348259 392.201457 
L 764.998898 391.160756 
L 767.571203 388.097547 
z
" clip-path="url(#p3436a32bdf)" style="fill: #ff0000; stroke: #ff0000; stroke-linecap: round"/>
   </g>
   <g id="patch_29">
    <path d="M 558.659427 223.875368 
Q 560.16262 398.488566 561.656189 571.983773 
" clip-path="url(#p3436a32bdf)" style="fill: none; stroke: #ff0000; stroke-linecap: round"/>
    <path d="M 563.621681 567.966704 
L 561.656189 571.983773 
L 559.621829 568.001137 
L 563.621681 567.966704 
z
" clip-path="url(#p3436a32bdf)" style="fill: #ff0000; stroke: #ff0000; stroke-linecap: round"/>
   </g>
   <g id="patch_30">
    <path d="M 565.85784 219.916894 
Q 700.316489 306.85129 833.836253 393.178649 
" clip-path="url(#p3436a32bdf)" style="fill: none; stroke: #808080; stroke-linecap: round"/>
    <path d="M 831.563096 389.327317 
L 833.836253 393.178649 
L 829.391293 392.686375 
L 831.563096 389.327317 
z
" clip-path="url(#p3436a32bdf)" style="fill: #808080; stroke: #808080; stroke-linecap: round"/>
   </g>
   <g id="patch_31">
    <path d="M 564.617894 221.425616 
Q 736.604303 398.487662 907.811721 574.747728 
" clip-path="url(#p3436a32bdf)" style="fill: none; stroke: #808080; stroke-linecap: round"/>
    <path d="M 906.459344 570.484973 
L 907.811721 574.747728 
L 903.590092 573.271976 
L 906.459344 570.484973 
z
" clip-path="url(#p3436a32bdf)" style="fill: #808080; stroke: #808080; stroke-linecap: round"/>
   </g>
   <g id="patch_32">
    <path d="M 618.837038 407.142502 
Q 621.69445 490.122849 624.513385 571.985825 
" clip-path="url(#p3436a32bdf)" style="fill: none; stroke: #808080; stroke-linecap: round"/>
    <path d="M 626.374543 567.919366 
L 624.513385 571.985825 
L 622.376912 568.057023 
L 626.374543 567.919366 
z
" clip-path="url(#p3436a32bdf)" style="fill: #808080; stroke: #808080; stroke-linecap: round"/>
   </g>
   <g id="patch_33">
    <path d="M 613.781244 405.727463 
Q 498.104675 581.760233 383.042098 756.85865 
" clip-path="url(#p3436a32bdf)" style="fill: none; stroke: #808080; stroke-linecap: round"/>
    <path d="M 386.910202 754.614152 
L 383.042098 756.85865 
L 383.567362 752.417468 
L 386.910202 754.614152 
z
" clip-path="url(#p3436a32bdf)" style="fill: #808080; stroke: #808080; stroke-linecap: round"/>
   </g>
   <g id="patch_34">
    <path d="M 615.974495 406.762175 
Q 590.138879 490.126198 564.634228 572.422296 
" clip-path="url(#p3436a32bdf)" style="fill: none; stroke: #808080; stroke-linecap: round"/>
    <path d="M 567.728682 569.193619 
L 564.634228 572.422296 
L 563.907959 568.009527 
L 567.728682 569.193619 
z
" clip-path="url(#p3436a32bdf)" style="fill: #808080; stroke: #808080; stroke-linecap: round"/>
   </g>
   <g id="patch_35">
    <path d="M 445.994314 406.99149 
Q 412.644362 581.757583 379.503978 755.425458 
" clip-path="url(#p3436a32bdf)" style="fill: none; stroke: #808080; stroke-linecap: round"/>
    <path d="M 382.218305 751.871245 
L 379.503978 755.425458 
L 378.289203 751.121469 
L 382.218305 751.871245 
z
" clip-path="url(#p3436a32bdf)" style="fill: #808080; stroke: #808080; stroke-linecap: round"/>
   </g>
   <g id="patch_36">
    <path d="M 446.005457 406.997083 
Q 430.261956 490.123869 414.726502 572.152148 
" clip-path="url(#p3436a32bdf)" style="fill: none; stroke: #808080; stroke-linecap: round"/>
    <path d="M 417.435904 568.594179 
L 414.726502 572.152148 
L 413.505768 567.849845 
L 417.435904 568.594179 
z
" clip-path="url(#p3436a32bdf)" style="fill: #808080; stroke: #808080; stroke-linecap: round"/>
   </g>
   <g id="patch_37">
    <path d="M 959.32562 223.875368 
Q 959.32562 306.850393 959.32562 388.707384 
" clip-path="url(#p3436a32bdf)" style="fill: none; stroke: #808080; stroke-linecap: round"/>
    <path d="M 961.32562 384.707384 
L 959.32562 388.707384 
L 957.32562 384.707384 
L 961.32562 384.707384 
z
" clip-path="url(#p3436a32bdf)" style="fill: #808080; stroke: #808080; stroke-linecap: round"/>
   </g>
   <g id="text_4">
    <g id="patch_38">
     <path d="M 901.074045 485.234238 
L 901.467232 490.309029 
Q 901.652624 492.701858 904.045453 492.516465 
L 911.764818 491.918382 
Q 914.157647 491.732989 913.972255 489.340161 
L 913.579068 484.265369 
Q 913.393676 481.872541 911.000847 482.057933 
L 903.281482 482.656016 
Q 900.888653 482.841409 901.074045 485.234238 
L 901.074045 485.234238 
z
" clip-path="url(#p3436a32bdf)" style="fill: none"/>
    </g>
    <g clip-path="url(#p3436a32bdf)">
     <!-- 7 -->
     <g transform="translate(905.125653 484.920326)rotate(-274.43033)scale(0.08 -0.08)">
      <defs>
       <path id="DejaVuSans-37" d="M 525 4666 
L 3525 4666 
L 3525 4397 
L 1831 0 
L 1172 0 
L 2766 4134 
L 525 4134 
L 525 4666 
z
" transform="scale(0.015625)"/>
      </defs>
      <use xlink:href="#DejaVuSans-37"/>
     </g>
    </g>
   </g>
   <g id="text_5">
    <g id="patch_39">
     <path d="M 292.843127 491.551694 
L 295.871798 487.46082 
Q 297.299856 485.531921 295.370956 484.103863 
L 289.148247 479.496891 
Q 287.219348 478.068834 285.791291 479.997733 
L 282.762619 484.088607 
Q 281.334562 486.017506 283.263461 487.445563 
L 289.48617 492.052536 
Q 291.415069 493.480593 292.843127 491.551694 
L 292.843127 491.551694 
z
" clip-path="url(#p3436a32bdf)" style="fill: none"/>
    </g>
    <g clip-path="url(#p3436a32bdf)">
     <!-- 6 -->
     <g transform="translate(289.577058 489.133665)rotate(-53.485665)scale(0.08 -0.08)">
      <defs>
       <path id="DejaVuSans-36" d="M 2113 2584 
Q 1688 2584 1439 2293 
Q 1191 2003 1191 1497 
Q 1191 994 1439 701 
Q 1688 409 2113 409 
Q 2538 409 2786 701 
Q 3034 994 3034 1497 
Q 3034 2003 2786 2293 
Q 2538 2584 2113 2584 
z
M 3366 4563 
L 3366 3988 
Q 3128 4100 2886 4159 
Q 2644 4219 2406 4219 
Q 1781 4219 1451 3797 
Q 1122 3375 1075 2522 
Q 1259 2794 1537 2939 
Q 1816 3084 2150 3084 
Q 2853 3084 3261 2657 
Q 3669 2231 3669 1497 
Q 3669 778 3244 343 
Q 2819 -91 2113 -91 
Q 1303 -91 875 529 
Q 447 1150 447 2328 
Q 447 3434 972 4092 
Q 1497 4750 2381 4750 
Q 2619 4750 2861 4703 
Q 3103 4656 3366 4563 
z
" transform="scale(0.015625)"/>
      </defs>
      <use xlink:href="#DejaVuSans-36"/>
     </g>
    </g>
   </g>
   <g id="text_6">
    <g id="patch_40">
     <path d="M 329.883002 490.922436 
L 331.577123 486.122639 
Q 332.375922 483.859473 330.112757 483.060673 
L 322.81169 480.483712 
Q 320.548524 479.684913 319.749724 481.948078 
L 318.055603 486.747876 
Q 317.256804 489.011041 319.519969 489.809841 
L 326.821036 492.386802 
Q 329.084202 493.185602 329.883002 490.922436 
L 329.883002 490.922436 
z
" clip-path="url(#p3436a32bdf)" style="fill: none"/>
    </g>
    <g clip-path="url(#p3436a32bdf)">
     <!-- 4 -->
     <g transform="translate(326.050944 489.569885)rotate(-70.559171)scale(0.08 -0.08)">
      <defs>
       <path id="DejaVuSans-34" d="M 2419 4116 
L 825 1625 
L 2419 1625 
L 2419 4116 
z
M 2253 4666 
L 3047 4666 
L 3047 1625 
L 3713 1625 
L 3713 1100 
L 3047 1100 
L 3047 0 
L 2419 0 
L 2419 1100 
L 313 1100 
L 313 1709 
L 2253 4666 
z
" transform="scale(0.015625)"/>
      </defs>
      <use xlink:href="#DejaVuSans-34"/>
     </g>
    </g>
   </g>
   <g id="text_7">
    <g id="patch_41">
     <path d="M 360.869519 571.729986 
L 361.438267 581.894086 
Q 361.572353 584.290337 363.968605 584.156251 
L 371.699012 583.723684 
Q 374.095263 583.589598 373.961177 581.193347 
L 373.392429 571.029247 
Q 373.258343 568.632996 370.862092 568.767082 
L 363.131685 569.199649 
Q 360.735433 569.333735 360.869519 571.729986 
L 360.869519 571.729986 
z
" clip-path="url(#p3436a32bdf)" style="fill: none"/>
    </g>
    <g clip-path="url(#p3436a32bdf)">
     <!-- 14 -->
     <g transform="translate(364.926922 571.502948)rotate(-273.202735)scale(0.08 -0.08)">
      <defs>
       <path id="DejaVuSans-31" d="M 794 531 
L 1825 531 
L 1825 4091 
L 703 3866 
L 703 4441 
L 1819 4666 
L 2450 4666 
L 2450 531 
L 3481 531 
L 3481 0 
L 794 0 
L 794 531 
z
" transform="scale(0.015625)"/>
      </defs>
      <use xlink:href="#DejaVuSans-31"/>
      <use xlink:href="#DejaVuSans-34" x="63.623047"/>
     </g>
    </g>
   </g>
   <g id="text_8">
    <g id="patch_42">
     <path d="M 378.292997 485.952354 
L 379.774235 490.822059 
Q 380.472658 493.118188 382.768786 492.419765 
L 390.176192 490.166624 
Q 392.472321 489.468201 391.773898 487.172072 
L 390.292659 482.302367 
Q 389.594237 480.006238 387.298108 480.704661 
L 379.890702 482.957802 
Q 377.594574 483.656225 378.292997 485.952354 
L 378.292997 485.952354 
z
" clip-path="url(#p3436a32bdf)" style="fill: none"/>
    </g>
    <g clip-path="url(#p3436a32bdf)">
     <!-- 1 -->
     <g transform="translate(382.180868 484.769764)rotate(-286.918404)scale(0.08 -0.08)">
      <use xlink:href="#DejaVuSans-31"/>
     </g>
    </g>
   </g>
   <g id="text_9">
    <g id="patch_43">
     <path d="M 356.116125 490.309029 
L 356.509311 485.234238 
Q 356.694703 482.841409 354.301874 482.656016 
L 346.582509 482.057933 
Q 344.18968 481.872541 344.004288 484.26537 
L 343.611102 489.340161 
Q 343.425709 491.732989 345.818538 491.918382 
L 353.537903 492.516465 
Q 355.930732 492.701858 356.116125 490.309029 
L 356.116125 490.309029 
z
" clip-path="url(#p3436a32bdf)" style="fill: none"/>
    </g>
    <g clip-path="url(#p3436a32bdf)">
     <!-- 6 -->
     <g transform="translate(352.064517 489.995117)rotate(-85.56967)scale(0.08 -0.08)">
      <use xlink:href="#DejaVuSans-36"/>
     </g>
    </g>
   </g>
   <g id="text_10">
    <g id="patch_44">
     <path d="M 293.148732 671.079172 
L 296.450345 674.953117 
Q 298.007098 676.779731 299.833713 675.222978 
L 305.726447 670.200828 
Q 307.553061 668.644075 305.996308 666.817461 
L 302.694695 662.943516 
Q 301.137941 661.116902 299.311327 662.673655 
L 293.418593 667.695805 
Q 291.591979 669.252558 293.148732 671.079172 
L 293.148732 671.079172 
z
" clip-path="url(#p3436a32bdf)" style="fill: none"/>
    </g>
    <g clip-path="url(#p3436a32bdf)">
     <!-- 7 -->
     <g transform="translate(296.241608 668.443232)rotate(-310.439675)scale(0.08 -0.08)">
      <use xlink:href="#DejaVuSans-37"/>
     </g>
    </g>
   </g>
   <g id="text_11">
    <g id="patch_45">
     <path d="M 215.20313 668.306364 
L 215.20313 673.396364 
Q 215.20313 675.796364 217.60313 675.796364 
L 225.34563 675.796364 
Q 227.74563 675.796364 227.74563 673.396364 
L 227.74563 668.306364 
Q 227.74563 665.906364 225.34563 665.906364 
L 217.60313 665.906364 
Q 215.20313 665.906364 215.20313 668.306364 
L 215.20313 668.306364 
z
" clip-path="url(#p3436a32bdf)" style="fill: none"/>
    </g>
    <g clip-path="url(#p3436a32bdf)">
     <!-- 5 -->
     <g transform="translate(219.26688 668.306364)rotate(-270)scale(0.08 -0.08)">
      <defs>
       <path id="DejaVuSans-35" d="M 691 4666 
L 3169 4666 
L 3169 4134 
L 1269 4134 
L 1269 2991 
Q 1406 3038 1543 3061 
Q 1681 3084 1819 3084 
Q 2600 3084 3056 2656 
Q 3513 2228 3513 1497 
Q 3513 744 3044 326 
Q 2575 -91 1722 -91 
Q 1428 -91 1123 -41 
Q 819 9 494 109 
L 494 744 
Q 775 591 1075 516 
Q 1375 441 1709 441 
Q 2250 441 2565 725 
Q 2881 1009 2881 1497 
Q 2881 1984 2565 2268 
Q 2250 2553 1709 2553 
Q 1456 2553 1204 2497 
Q 953 2441 691 2322 
L 691 4666 
z
" transform="scale(0.015625)"/>
      </defs>
      <use xlink:href="#DejaVuSans-35"/>
     </g>
    </g>
   </g>
   <g id="text_12">
    <g id="patch_46">
     <path d="M 388.649793 852.123762 
L 389.610801 857.122219 
Q 390.063929 859.479054 392.420765 859.025927 
L 400.024016 857.564118 
Q 402.380851 857.110991 401.927724 854.754155 
L 400.966716 849.755699 
Q 400.513588 847.398863 398.156752 847.85199 
L 390.553501 849.313799 
Q 388.196666 849.766927 388.649793 852.123762 
L 388.649793 852.123762 
z
" clip-path="url(#p3436a32bdf)" style="fill: none"/>
    </g>
    <g clip-path="url(#p3436a32bdf)">
     <!-- 3 -->
     <g transform="translate(392.640456 851.356514)rotate(-280.882947)scale(0.08 -0.08)">
      <defs>
       <path id="DejaVuSans-33" d="M 2597 2516 
Q 3050 2419 3304 2112 
Q 3559 1806 3559 1356 
Q 3559 666 3084 287 
Q 2609 -91 1734 -91 
Q 1441 -91 1130 -33 
Q 819 25 488 141 
L 488 750 
Q 750 597 1062 519 
Q 1375 441 1716 441 
Q 2309 441 2620 675 
Q 2931 909 2931 1356 
Q 2931 1769 2642 2001 
Q 2353 2234 1838 2234 
L 1294 2234 
L 1294 2753 
L 1863 2753 
Q 2328 2753 2575 2939 
Q 2822 3125 2822 3475 
Q 2822 3834 2567 4026 
Q 2313 4219 1838 4219 
Q 1578 4219 1281 4162 
Q 984 4106 628 3988 
L 628 4550 
Q 988 4650 1302 4700 
Q 1616 4750 1894 4750 
Q 2613 4750 3031 4423 
Q 3450 4097 3450 3541 
Q 3450 3153 3228 2886 
Q 3006 2619 2597 2516 
z
" transform="scale(0.015625)"/>
      </defs>
      <use xlink:href="#DejaVuSans-33"/>
     </g>
    </g>
   </g>
   <g id="text_13">
    <g id="patch_47">
     <path d="M 406.635607 759.942727 
L 406.635607 765.032727 
Q 406.635607 767.432727 409.035607 767.432727 
L 416.778107 767.432727 
Q 419.178107 767.432727 419.178107 765.032727 
L 419.178107 759.942727 
Q 419.178107 757.542727 416.778107 757.542727 
L 409.035607 757.542727 
Q 406.635607 757.542727 406.635607 759.942727 
L 406.635607 759.942727 
z
" clip-path="url(#p3436a32bdf)" style="fill: none"/>
    </g>
    <g clip-path="url(#p3436a32bdf)">
     <!-- 8 -->
     <g transform="translate(410.699357 759.942727)rotate(-270)scale(0.08 -0.08)">
      <defs>
       <path id="DejaVuSans-38" d="M 2034 2216 
Q 1584 2216 1326 1975 
Q 1069 1734 1069 1313 
Q 1069 891 1326 650 
Q 1584 409 2034 409 
Q 2484 409 2743 651 
Q 3003 894 3003 1313 
Q 3003 1734 2745 1975 
Q 2488 2216 2034 2216 
z
M 1403 2484 
Q 997 2584 770 2862 
Q 544 3141 544 3541 
Q 544 4100 942 4425 
Q 1341 4750 2034 4750 
Q 2731 4750 3128 4425 
Q 3525 4100 3525 3541 
Q 3525 3141 3298 2862 
Q 3072 2584 2669 2484 
Q 3125 2378 3379 2068 
Q 3634 1759 3634 1313 
Q 3634 634 3220 271 
Q 2806 -91 2034 -91 
Q 1263 -91 848 271 
Q 434 634 434 1313 
Q 434 1759 690 2068 
Q 947 2378 1403 2484 
z
M 1172 3481 
Q 1172 3119 1398 2916 
Q 1625 2713 2034 2713 
Q 2441 2713 2670 2916 
Q 2900 3119 2900 3481 
Q 2900 3844 2670 4047 
Q 2441 4250 2034 4250 
Q 1625 4250 1398 4047 
Q 1172 3844 1172 3481 
z
" transform="scale(0.015625)"/>
      </defs>
      <use xlink:href="#DejaVuSans-38"/>
     </g>
    </g>
   </g>
   <g id="text_14">
    <g id="patch_48">
     <path d="M 485.493509 479.957578 
L 485.551932 490.13741 
Q 485.565706 492.537371 487.965666 492.523597 
L 495.708039 492.479162 
Q 498.107999 492.465389 498.094226 490.065428 
L 498.035802 479.885596 
Q 498.022029 477.485635 495.622068 477.499409 
L 487.879696 477.543844 
Q 485.479735 477.557617 485.493509 479.957578 
L 485.493509 479.957578 
z
" clip-path="url(#p3436a32bdf)" style="fill: none"/>
    </g>
    <g clip-path="url(#p3436a32bdf)">
     <!-- 13 -->
     <g transform="translate(489.557192 479.934256)rotate(-270.328825)scale(0.08 -0.08)">
      <use xlink:href="#DejaVuSans-31"/>
      <use xlink:href="#DejaVuSans-33" x="63.623047"/>
     </g>
    </g>
   </g>
   <g id="text_15">
    <g id="patch_49">
     <path d="M 457.577739 673.734994 
L 459.014096 663.656836 
Q 459.352727 661.280846 456.976737 660.942215 
L 449.311693 659.849779 
Q 446.935703 659.511148 446.597073 661.887139 
L 445.160715 671.965297 
Q 444.822084 674.341287 447.198075 674.679918 
L 454.863118 675.772354 
Q 457.239108 676.110984 457.577739 673.734994 
L 457.577739 673.734994 
z
" clip-path="url(#p3436a32bdf)" style="fill: none"/>
    </g>
    <g clip-path="url(#p3436a32bdf)">
     <!-- 14 -->
     <g transform="translate(453.554643 673.161615)rotate(-81.888726)scale(0.08 -0.08)">
      <use xlink:href="#DejaVuSans-31"/>
      <use xlink:href="#DejaVuSans-34" x="63.623047"/>
     </g>
    </g>
   </g>
   <g id="text_16">
    <g id="patch_50">
     <path d="M 519.737316 486.234126 
L 521.564133 490.985004 
Q 522.425501 493.225103 524.6656 492.363736 
L 531.892255 489.584928 
Q 534.132354 488.723561 533.270987 486.483461 
L 531.44417 481.732583 
Q 530.582802 479.492484 528.342703 480.353851 
L 521.116048 483.132659 
Q 518.875949 483.994027 519.737316 486.234126 
L 519.737316 486.234126 
z
" clip-path="url(#p3436a32bdf)" style="fill: none"/>
    </g>
    <g clip-path="url(#p3436a32bdf)">
     <!-- 6 -->
     <g transform="translate(523.530318 484.775633)rotate(-291.032849)scale(0.08 -0.08)">
      <use xlink:href="#DejaVuSans-36"/>
     </g>
    </g>
   </g>
   <g id="text_17">
    <g id="patch_51">
     <path d="M 552.313619 296.670909 
L 552.313619 306.850909 
Q 552.313619 309.250909 554.713619 309.250909 
L 562.456119 309.250909 
Q 564.856119 309.250909 564.856119 306.850909 
L 564.856119 296.670909 
Q 564.856119 294.270909 562.456119 294.270909 
L 554.713619 294.270909 
Q 552.313619 294.270909 552.313619 296.670909 
L 552.313619 296.670909 
z
" clip-path="url(#p3436a32bdf)" style="fill: none"/>
    </g>
    <g clip-path="url(#p3436a32bdf)">
     <!-- 29 -->
     <g transform="translate(556.377369 296.670909)rotate(-270)scale(0.08 -0.08)">
      <defs>
       <path id="DejaVuSans-32" d="M 1228 531 
L 3431 531 
L 3431 0 
L 469 0 
L 469 531 
Q 828 903 1448 1529 
Q 2069 2156 2228 2338 
Q 2531 2678 2651 2914 
Q 2772 3150 2772 3378 
Q 2772 3750 2511 3984 
Q 2250 4219 1831 4219 
Q 1534 4219 1204 4116 
Q 875 4013 500 3803 
L 500 4441 
Q 881 4594 1212 4672 
Q 1544 4750 1819 4750 
Q 2544 4750 2975 4387 
Q 3406 4025 3406 3419 
Q 3406 3131 3298 2873 
Q 3191 2616 2906 2266 
Q 2828 2175 2409 1742 
Q 1991 1309 1228 531 
z
" transform="scale(0.015625)"/>
       <path id="DejaVuSans-39" d="M 703 97 
L 703 672 
Q 941 559 1184 500 
Q 1428 441 1663 441 
Q 2288 441 2617 861 
Q 2947 1281 2994 2138 
Q 2813 1869 2534 1725 
Q 2256 1581 1919 1581 
Q 1219 1581 811 2004 
Q 403 2428 403 3163 
Q 403 3881 828 4315 
Q 1253 4750 1959 4750 
Q 2769 4750 3195 4129 
Q 3622 3509 3622 2328 
Q 3622 1225 3098 567 
Q 2575 -91 1691 -91 
Q 1453 -91 1209 -44 
Q 966 3 703 97 
z
M 1959 2075 
Q 2384 2075 2632 2365 
Q 2881 2656 2881 3163 
Q 2881 3666 2632 3958 
Q 2384 4250 1959 4250 
Q 1534 4250 1286 3958 
Q 1038 3666 1038 3163 
Q 1038 2656 1286 2365 
Q 1534 2075 1959 2075 
z
" transform="scale(0.015625)"/>
      </defs>
      <use xlink:href="#DejaVuSans-32"/>
      <use xlink:href="#DejaVuSans-39" x="63.623047"/>
     </g>
    </g>
   </g>
   <g id="text_18">
    <g id="patch_52">
     <path d="M 722.054913 304.155917 
L 731.026795 308.966087 
Q 733.141973 310.100116 734.276002 307.984937 
L 737.934425 301.161284 
Q 739.068453 299.046106 736.953275 297.912077 
L 727.981393 293.101907 
Q 725.866215 291.967878 724.732186 294.083057 
L 721.073763 300.90671 
Q 719.939735 303.021889 722.054913 304.155917 
L 722.054913 304.155917 
z
" clip-path="url(#p3436a32bdf)" style="fill: none"/>
    </g>
    <g clip-path="url(#p3436a32bdf)">
     <!-- 26 -->
     <g transform="translate(723.975083 300.574435)rotate(-331.802531)scale(0.08 -0.08)">
      <use xlink:href="#DejaVuSans-32"/>
      <use xlink:href="#DejaVuSans-36" x="63.623047"/>
     </g>
    </g>
   </g>
   <g id="text_19">
    <g id="patch_53">
     <path d="M 458.328147 308.626067 
L 465.857773 301.774999 
Q 467.63293 300.159816 466.017747 298.384659 
L 460.8071 292.657927 
Q 459.191917 290.882769 457.41676 292.497952 
L 449.887133 299.34902 
Q 448.111976 300.964203 449.727159 302.73936 
L 454.937806 308.466092 
Q 456.552989 310.24125 458.328147 308.626067 
L 458.328147 308.626067 
z
" clip-path="url(#p3436a32bdf)" style="fill: none"/>
    </g>
    <g clip-path="url(#p3436a32bdf)">
     <!-- 26 -->
     <g transform="translate(455.593272 305.620318)rotate(-42.29848)scale(0.08 -0.08)">
      <use xlink:href="#DejaVuSans-32"/>
      <use xlink:href="#DejaVuSans-36" x="63.623047"/>
     </g>
    </g>
   </g>
   <g id="text_20">
    <g id="patch_54">
     <path d="M 610.039245 303.837756 
L 612.76524 308.13625 
Q 614.050581 310.163045 616.077376 308.877704 
L 622.615901 304.731139 
Q 624.642696 303.445798 623.357354 301.419003 
L 620.63136 297.120509 
Q 619.346018 295.093714 617.319223 296.379055 
L 610.780698 300.52562 
Q 608.753903 301.810961 610.039245 303.837756 
L 610.039245 303.837756 
z
" clip-path="url(#p3436a32bdf)" style="fill: none"/>
    </g>
    <g clip-path="url(#p3436a32bdf)">
     <!-- 7 -->
     <g transform="translate(613.471073 301.661379)rotate(-302.381822)scale(0.08 -0.08)">
      <use xlink:href="#DejaVuSans-37"/>
     </g>
    </g>
   </g>
   <g id="text_21">
    <g id="patch_55">
     <path d="M 633.875392 300.935251 
L 640.725399 308.465842 
Q 642.340332 310.241227 644.115717 308.626294 
L 649.843182 303.416453 
Q 651.618567 301.80152 650.003634 300.026135 
L 643.153627 292.495544 
Q 641.538694 290.720159 639.76331 292.335092 
L 634.035844 297.544933 
Q 632.260459 299.159866 633.875392 300.935251 
L 633.875392 300.935251 
z
" clip-path="url(#p3436a32bdf)" style="fill: none"/>
    </g>
    <g clip-path="url(#p3436a32bdf)">
     <!-- 27 -->
     <g transform="translate(636.881525 298.200799)rotate(-312.290411)scale(0.08 -0.08)">
      <use xlink:href="#DejaVuSans-32"/>
      <use xlink:href="#DejaVuSans-37" x="63.623047"/>
     </g>
    </g>
   </g>
   <g id="text_22">
    <g id="patch_56">
     <path d="M 529.058182 307.678387 
L 532.568067 298.122598 
Q 533.395545 295.86976 531.142707 295.042282 
L 523.874957 292.372804 
Q 521.622119 291.545326 520.794641 293.798164 
L 517.284755 303.353953 
Q 516.457277 305.606791 518.710116 306.434269 
L 525.977866 309.103747 
Q 528.230704 309.931225 529.058182 307.678387 
L 529.058182 307.678387 
z
" clip-path="url(#p3436a32bdf)" style="fill: none"/>
    </g>
    <g clip-path="url(#p3436a32bdf)">
     <!-- 15 -->
     <g transform="translate(525.243611 306.277277)rotate(-69.831484)scale(0.08 -0.08)">
      <use xlink:href="#DejaVuSans-31"/>
      <use xlink:href="#DejaVuSans-35" x="63.623047"/>
     </g>
    </g>
   </g>
   <g id="text_23">
    <g id="patch_57">
     <path d="M 391.199929 400.111918 
L 398.091132 392.619006 
Q 399.715777 390.852504 397.949275 389.227859 
L 392.250467 383.986687 
Q 390.483965 382.362042 388.85932 384.128543 
L 381.968117 391.621455 
Q 380.343472 393.387957 382.109974 395.012602 
L 387.808782 400.253774 
Q 389.575284 401.87842 391.199929 400.111918 
L 391.199929 400.111918 
z
" clip-path="url(#p3436a32bdf)" style="fill: none"/>
    </g>
    <g clip-path="url(#p3436a32bdf)">
     <!-- 11 -->
     <g transform="translate(388.208837 397.361021)rotate(-47.395371)scale(0.08 -0.08)">
      <use xlink:href="#DejaVuSans-31"/>
      <use xlink:href="#DejaVuSans-31" x="63.623047"/>
     </g>
    </g>
   </g>
   <g id="text_24">
    <g id="patch_58">
     <path d="M 472.493895 490.873776 
L 475.675737 481.203808 
Q 476.425877 478.924051 474.14612 478.173912 
L 466.79153 475.75393 
Q 464.511773 475.003791 463.761634 477.283547 
L 460.579792 486.953515 
Q 459.829652 489.233272 462.109409 489.983412 
L 469.463999 492.403393 
Q 471.743756 493.153533 472.493895 490.873776 
L 472.493895 490.873776 
z
" clip-path="url(#p3436a32bdf)" style="fill: none"/>
    </g>
    <g clip-path="url(#p3436a32bdf)">
     <!-- 46 -->
     <g transform="translate(468.633745 489.603618)rotate(-71.786536)scale(0.08 -0.08)">
      <use xlink:href="#DejaVuSans-34"/>
      <use xlink:href="#DejaVuSans-36" x="63.623047"/>
     </g>
    </g>
   </g>
   <g id="text_25">
    <g id="patch_59">
     <path d="M 489.693798 399.373677 
L 493.453628 389.91344 
Q 494.340032 387.683129 492.10972 386.796725 
L 484.914643 383.937149 
Q 482.684332 383.050745 481.797928 385.281056 
L 478.038099 394.741293 
Q 477.151695 396.971604 479.382006 397.858008 
L 486.577083 400.717584 
Q 488.807394 401.603988 489.693798 399.373677 
L 489.693798 399.373677 
z
" clip-path="url(#p3436a32bdf)" style="fill: none"/>
    </g>
    <g clip-path="url(#p3436a32bdf)">
     <!-- 60 -->
     <g transform="translate(485.91737 397.872792)rotate(-68.325393)scale(0.08 -0.08)">
      <defs>
       <path id="DejaVuSans-30" d="M 2034 4250 
Q 1547 4250 1301 3770 
Q 1056 3291 1056 2328 
Q 1056 1369 1301 889 
Q 1547 409 2034 409 
Q 2525 409 2770 889 
Q 3016 1369 3016 2328 
Q 3016 3291 2770 3770 
Q 2525 4250 2034 4250 
z
M 2034 4750 
Q 2819 4750 3233 4129 
Q 3647 3509 3647 2328 
Q 3647 1150 3233 529 
Q 2819 -91 2034 -91 
Q 1250 -91 836 529 
Q 422 1150 422 2328 
Q 422 3509 836 4129 
Q 1250 4750 2034 4750 
z
" transform="scale(0.015625)"/>
      </defs>
      <use xlink:href="#DejaVuSans-36"/>
      <use xlink:href="#DejaVuSans-30" x="63.623047"/>
     </g>
    </g>
   </g>
   <g id="text_26">
    <g id="patch_60">
     <path d="M 661.727411 305.415576 
L 665.625344 308.688834 
Q 667.463269 310.232217 669.006652 308.394292 
L 673.98567 302.46507 
Q 675.529053 300.627145 673.691128 299.083761 
L 669.793196 295.810503 
Q 667.955271 294.26712 666.411887 296.105045 
L 661.432869 302.034267 
Q 659.889486 303.872192 661.727411 305.415576 
L 661.727411 305.415576 
z
" clip-path="url(#p3436a32bdf)" style="fill: none"/>
    </g>
    <g clip-path="url(#p3436a32bdf)">
     <!-- 2 -->
     <g transform="translate(664.340712 302.303547)rotate(-319.978403)scale(0.08 -0.08)">
      <use xlink:href="#DejaVuSans-32"/>
     </g>
    </g>
   </g>
   <g id="text_27">
    <g id="patch_61">
     <path d="M 553.869683 393.418121 
L 553.9135 398.507933 
Q 553.93416 400.907844 556.334071 400.887184 
L 564.076284 400.820533 
Q 566.476195 400.799873 566.455535 398.399962 
L 566.411718 393.310151 
Q 566.391058 390.91024 563.991147 390.9309 
L 556.248934 390.99755 
Q 553.849023 391.01821 553.869683 393.418121 
L 553.869683 393.418121 
z
" clip-path="url(#p3436a32bdf)" style="fill: none"/>
    </g>
    <g clip-path="url(#p3436a32bdf)">
     <!-- 8 -->
     <g transform="translate(557.933283 393.383139)rotate(-270.49323)scale(0.08 -0.08)">
      <use xlink:href="#DejaVuSans-38"/>
     </g>
    </g>
   </g>
   <g id="text_28">
    <g id="patch_62">
     <path d="M 692.636519 303.339105 
L 701.185322 308.866344 
Q 703.200757 310.169426 704.503839 308.153991 
L 708.707635 301.652114 
Q 710.010717 299.636679 707.995282 298.333597 
L 699.446479 292.806359 
Q 697.431044 291.503277 696.127962 293.518712 
L 691.924166 300.020589 
Q 690.621084 302.036024 692.636519 303.339105 
L 692.636519 303.339105 
z
" clip-path="url(#p3436a32bdf)" style="fill: none"/>
    </g>
    <g clip-path="url(#p3436a32bdf)">
     <!-- 41 -->
     <g transform="translate(694.842935 299.926512)rotate(-327.115265)scale(0.08 -0.08)">
      <use xlink:href="#DejaVuSans-34"/>
      <use xlink:href="#DejaVuSans-31" x="63.623047"/>
     </g>
    </g>
   </g>
   <g id="text_29">
    <g id="patch_63">
     <path d="M 726.785782 389.206102 
L 737.425167 400.159475 
Q 739.097369 401.881026 740.818921 400.208825 
L 746.372718 394.814231 
Q 748.09427 393.142029 746.422068 391.420477 
L 735.782683 380.467104 
Q 734.110481 378.745553 732.388929 380.417754 
L 726.835131 385.812348 
Q 725.11358 387.48455 726.785782 389.206102 
L 726.785782 389.206102 
z
" clip-path="url(#p3436a32bdf)" style="fill: none"/>
    </g>
    <g clip-path="url(#p3436a32bdf)">
     <!-- 112 -->
     <g transform="translate(729.700763 386.37468)rotate(-314.1669)scale(0.08 -0.08)">
      <use xlink:href="#DejaVuSans-31"/>
      <use xlink:href="#DejaVuSans-31" x="63.623047"/>
      <use xlink:href="#DejaVuSans-32" x="127.246094"/>
     </g>
    </g>
   </g>
   <g id="text_30">
    <g id="patch_64">
     <path d="M 615.339357 485.119246 
L 615.514526 490.206231 
Q 615.597121 492.604809 617.995699 492.522215 
L 625.733613 492.255761 
Q 628.132191 492.173167 628.049597 489.774588 
L 627.874427 484.687603 
Q 627.791833 482.289025 625.393254 482.37162 
L 617.655341 482.638073 
Q 615.256762 482.720668 615.339357 485.119246 
L 615.339357 485.119246 
z
" clip-path="url(#p3436a32bdf)" style="fill: none"/>
    </g>
    <g clip-path="url(#p3436a32bdf)">
     <!-- 5 -->
     <g transform="translate(619.4007 484.979394)rotate(-271.97219)scale(0.08 -0.08)">
      <use xlink:href="#DejaVuSans-35"/>
     </g>
    </g>
   </g>
   <g id="text_31">
    <g id="patch_65">
     <path d="M 501.948135 583.07801 
L 504.743415 578.824246 
Q 506.061425 576.818542 504.055721 575.500532 
L 497.585236 571.248576 
Q 495.579531 569.930566 494.261521 571.93627 
L 491.466241 576.190034 
Q 490.148231 578.195738 492.153935 579.513748 
L 498.624421 583.765704 
Q 500.630125 585.083714 501.948135 583.07801 
L 501.948135 583.07801 
z
" clip-path="url(#p3436a32bdf)" style="fill: none"/>
    </g>
    <g clip-path="url(#p3436a32bdf)">
     <!-- 8 -->
     <g transform="translate(498.552018 580.846317)rotate(-56.689848)scale(0.08 -0.08)">
      <use xlink:href="#DejaVuSans-38"/>
     </g>
    </g>
   </g>
   <g id="text_32">
    <g id="patch_66">
     <path d="M 594.623092 490.834092 
L 597.636608 481.110352 
Q 598.347064 478.817918 596.05463 478.107462 
L 588.659143 475.815503 
Q 586.366709 475.105047 585.656253 477.397481 
L 582.642738 487.121221 
Q 581.932282 489.413655 584.224716 490.124111 
L 591.620203 492.41607 
Q 593.912637 493.126526 594.623092 490.834092 
L 594.623092 490.834092 
z
" clip-path="url(#p3436a32bdf)" style="fill: none"/>
    </g>
    <g clip-path="url(#p3436a32bdf)">
     <!-- 14 -->
     <g transform="translate(590.741476 489.631128)rotate(-72.781099)scale(0.08 -0.08)">
      <use xlink:href="#DejaVuSans-31"/>
      <use xlink:href="#DejaVuSans-34" x="63.623047"/>
     </g>
    </g>
   </g>
   <g id="text_33">
    <g id="patch_67">
     <path d="M 418.32695 582.209865 
L 419.281039 577.210084 
Q 419.730905 574.852623 417.373444 574.402758 
L 409.768177 572.951474 
Q 407.410717 572.501608 406.960851 574.859069 
L 406.006762 579.85885 
Q 405.556897 582.216311 407.914357 582.666177 
L 415.519624 584.117461 
Q 417.877085 584.567326 418.32695 582.209865 
L 418.32695 582.209865 
z
" clip-path="url(#p3436a32bdf)" style="fill: none"/>
    </g>
    <g clip-path="url(#p3436a32bdf)">
     <!-- 2 -->
     <g transform="translate(414.335229 581.44814)rotate(-79.196351)scale(0.08 -0.08)">
      <use xlink:href="#DejaVuSans-32"/>
     </g>
    </g>
   </g>
   <g id="text_34">
    <g id="patch_68">
     <path d="M 435.950133 490.570237 
L 436.897298 485.569139 
Q 437.343898 483.211058 434.985817 482.764457 
L 427.378548 481.323706 
Q 425.020467 480.877105 424.573866 483.235187 
L 423.626701 488.236284 
Q 423.180101 490.594366 425.538182 491.040966 
L 433.145451 492.481718 
Q 435.503533 492.928318 435.950133 490.570237 
L 435.950133 490.570237 
z
" clip-path="url(#p3436a32bdf)" style="fill: none"/>
    </g>
    <g clip-path="url(#p3436a32bdf)">
     <!-- 1 -->
     <g transform="translate(431.957361 489.81404)rotate(-79.27569)scale(0.08 -0.08)">
      <use xlink:href="#DejaVuSans-31"/>
     </g>
    </g>
   </g>
   <g id="text_35">
    <g id="patch_69">
     <path d="M 953.05437 296.670909 
L 953.05437 306.850909 
Q 953.05437 309.250909 955.45437 309.250909 
L 963.19687 309.250909 
Q 965.59687 309.250909 965.59687 306.850909 
L 965.59687 296.670909 
Q 965.59687 294.270909 963.19687 294.270909 
L 955.45437 294.270909 
Q 953.05437 294.270909 953.05437 296.670909 
L 953.05437 296.670909 
z
" clip-path="url(#p3436a32bdf)" style="fill: none"/>
    </g>
    <g clip-path="url(#p3436a32bdf)">
     <!-- 82 -->
     <g transform="translate(957.11812 296.670909)rotate(-270)scale(0.08 -0.08)">
      <use xlink:href="#DejaVuSans-38"/>
      <use xlink:href="#DejaVuSans-32" x="63.623047"/>
     </g>
    </g>
   </g>
   <g id="matplotlib.axis_1">
    <g id="xtick_1"/>
    <g id="xtick_2"/>
    <g id="xtick_3"/>
    <g id="xtick_4"/>
    <g id="xtick_5"/>
    <g id="xtick_6"/>
    <g id="xtick_7"/>
    <g id="xtick_8"/>
    <g id="xtick_9"/>
   </g>
   <g id="matplotlib.axis_2">
    <g id="ytick_1"/>
    <g id="ytick_2"/>
    <g id="ytick_3"/>
    <g id="ytick_4"/>
    <g id="ytick_5"/>
    <g id="ytick_6"/>
    <g id="ytick_7"/>
   </g>
   <g id="PathCollection_1">
    <defs>
     <path id="C0_0_d720274ec6" d="M 0 8.660254 
C 2.296726 8.660254 4.499694 7.747755 6.123724 6.123724 
C 7.747755 4.499694 8.660254 2.296726 8.660254 -0 
C 8.660254 -2.296726 7.747755 -4.499694 6.123724 -6.123724 
C 4.499694 -7.747755 2.296726 -8.660254 0 -8.660254 
C -2.296726 -8.660254 -4.499694 -7.747755 -6.123724 -6.123724 
C -7.747755 -4.499694 -8.660254 -2.296726 -8.660254 0 
C -8.660254 2.296726 -7.747755 4.499694 -6.123724 6.123724 
C -4.499694 7.747755 -2.296726 8.660254 0 8.660254 
z
"/>
    </defs>
    <g clip-path="url(#p3436a32bdf)">
     <use xlink:href="#C0_0_d720274ec6" x="900.423319" y="398.487273" style="fill: #1f78b4; stroke: #1f78b4"/>
    </g>
    <g clip-path="url(#p3436a32bdf)">
     <use xlink:href="#C0_0_d720274ec6" x="914.622981" y="581.76" style="fill: #1f78b4; stroke: #1f78b4"/>
    </g>
    <g clip-path="url(#p3436a32bdf)">
     <use xlink:href="#C0_0_d720274ec6" x="357.160037" y="398.487273" style="fill: #1f78b4; stroke: #1f78b4"/>
    </g>
    <g clip-path="url(#p3436a32bdf)">
     <use xlink:href="#C0_0_d720274ec6" x="221.47438" y="581.76" style="fill: #1f78b4; stroke: #1f78b4"/>
    </g>
    <g clip-path="url(#p3436a32bdf)">
     <use xlink:href="#C0_0_d720274ec6" x="292.472689" y="581.76" style="fill: #1f78b4; stroke: #1f78b4"/>
    </g>
    <g clip-path="url(#p3436a32bdf)">
     <use xlink:href="#C0_0_d720274ec6" x="377.67066" y="765.032727" style="fill: #1f78b4; stroke: #1f78b4"/>
    </g>
    <g clip-path="url(#p3436a32bdf)">
     <use xlink:href="#C0_0_d720274ec6" x="412.906857" y="581.76" style="fill: #1f78b4; stroke: #1f78b4"/>
    </g>
    <g clip-path="url(#p3436a32bdf)">
     <use xlink:href="#C0_0_d720274ec6" x="342.960375" y="581.76" style="fill: #1f78b4; stroke: #1f78b4"/>
    </g>
    <g clip-path="url(#p3436a32bdf)">
     <use xlink:href="#C0_0_d720274ec6" x="491.267954" y="398.487273" style="fill: #1f78b4; stroke: #1f78b4"/>
    </g>
    <g clip-path="url(#p3436a32bdf)">
     <use xlink:href="#C0_0_d720274ec6" x="492.319781" y="581.76" style="fill: #1f78b4; stroke: #1f78b4"/>
    </g>
    <g clip-path="url(#p3436a32bdf)">
     <use xlink:href="#C0_0_d720274ec6" x="412.906857" y="948.305455" style="fill: #1f78b4; stroke: #1f78b4"/>
    </g>
    <g clip-path="url(#p3436a32bdf)">
     <use xlink:href="#C0_0_d720274ec6" x="561.740349" y="581.76" style="fill: #a85832; stroke: #a85832"/>
    </g>
    <g clip-path="url(#p3436a32bdf)">
     <use xlink:href="#C0_0_d720274ec6" x="558.584869" y="215.214545" style="fill: #1f78b4; stroke: #1f78b4"/>
    </g>
    <g clip-path="url(#p3436a32bdf)">
     <use xlink:href="#C0_0_d720274ec6" x="558.584869" y="398.487273" style="fill: #1f78b4; stroke: #1f78b4"/>
    </g>
    <g clip-path="url(#p3436a32bdf)">
     <use xlink:href="#C0_0_d720274ec6" x="674.81173" y="398.487273" style="fill: #1f78b4; stroke: #1f78b4"/>
    </g>
    <g clip-path="url(#p3436a32bdf)">
     <use xlink:href="#C0_0_d720274ec6" x="725.294157" y="398.487273" style="fill: #1f78b4; stroke: #1f78b4"/>
    </g>
    <g clip-path="url(#p3436a32bdf)">
     <use xlink:href="#C0_0_d720274ec6" x="776.83367" y="398.487273" style="fill: #a88e32; stroke: #a88e32"/>
    </g>
    <g clip-path="url(#p3436a32bdf)">
     <use xlink:href="#C0_0_d720274ec6" x="842.046932" y="398.487273" style="fill: #1f78b4; stroke: #1f78b4"/>
    </g>
    <g clip-path="url(#p3436a32bdf)">
     <use xlink:href="#C0_0_d720274ec6" x="221.47438" y="765.032727" style="fill: #1f78b4; stroke: #1f78b4"/>
    </g>
    <g clip-path="url(#p3436a32bdf)">
     <use xlink:href="#C0_0_d720274ec6" x="618.538996" y="398.487273" style="fill: #1f78b4; stroke: #1f78b4"/>
    </g>
    <g clip-path="url(#p3436a32bdf)">
     <use xlink:href="#C0_0_d720274ec6" x="624.849957" y="581.76" style="fill: #1f78b4; stroke: #1f78b4"/>
    </g>
    <g clip-path="url(#p3436a32bdf)">
     <use xlink:href="#C0_0_d720274ec6" x="447.617142" y="398.487273" style="fill: #1f78b4; stroke: #1f78b4"/>
    </g>
    <g clip-path="url(#p3436a32bdf)">
     <use xlink:href="#C0_0_d720274ec6" x="959.32562" y="215.214545" style="fill: #1f78b4; stroke: #1f78b4"/>
    </g>
    <g clip-path="url(#p3436a32bdf)">
     <use xlink:href="#C0_0_d720274ec6" x="959.32562" y="398.487273" style="fill: #1f78b4; stroke: #1f78b4"/>
    </g>
   </g>
   <g id="patch_70">
    <path d="M 144 1025.28 
L 144 138.24 
" style="fill: none; stroke: #000000; stroke-width: 0.8; stroke-linejoin: miter; stroke-linecap: square"/>
   </g>
   <g id="patch_71">
    <path d="M 1036.8 1025.28 
L 1036.8 138.24 
" style="fill: none; stroke: #000000; stroke-width: 0.8; stroke-linejoin: miter; stroke-linecap: square"/>
   </g>
   <g id="patch_72">
    <path d="M 144 1025.28 
L 1036.8 1025.28 
" style="fill: none; stroke: #000000; stroke-width: 0.8; stroke-linejoin: miter; stroke-linecap: square"/>
   </g>
   <g id="patch_73">
    <path d="M 144 138.24 
L 1036.8 138.24 
" style="fill: none; stroke: #000000; stroke-width: 0.8; stroke-linejoin: miter; stroke-linecap: square"/>
   </g>
   <g id="text_36">
    <g clip-path="url(#p3436a32bdf)">
     <!-- auth -->
     <g transform="translate(887.925429 401.522585)scale(0.11 -0.11)">
      <use xlink:href="#DejaVuSans-61"/>
      <use xlink:href="#DejaVuSans-75" x="61.279297"/>
      <use xlink:href="#DejaVuSans-74" x="124.658203"/>
      <use xlink:href="#DejaVuSans-68" x="163.867188"/>
     </g>
    </g>
   </g>
   <g id="text_37">
    <g clip-path="url(#p3436a32bdf)">
     <!-- verification-code -->
     <g transform="translate(868.551028 584.795313)scale(0.11 -0.11)">
      <defs>
       <path id="DejaVuSans-76" d="M 191 3500 
L 800 3500 
L 1894 563 
L 2988 3500 
L 3597 3500 
L 2284 0 
L 1503 0 
L 191 3500 
z
" transform="scale(0.015625)"/>
       <path id="DejaVuSans-72" d="M 2631 2963 
Q 2534 3019 2420 3045 
Q 2306 3072 2169 3072 
Q 1681 3072 1420 2755 
Q 1159 2438 1159 1844 
L 1159 0 
L 581 0 
L 581 3500 
L 1159 3500 
L 1159 2956 
Q 1341 3275 1631 3429 
Q 1922 3584 2338 3584 
Q 2397 3584 2469 3576 
Q 2541 3569 2628 3553 
L 2631 2963 
z
" transform="scale(0.015625)"/>
       <path id="DejaVuSans-69" d="M 603 3500 
L 1178 3500 
L 1178 0 
L 603 0 
L 603 3500 
z
M 603 4863 
L 1178 4863 
L 1178 4134 
L 603 4134 
L 603 4863 
z
" transform="scale(0.015625)"/>
       <path id="DejaVuSans-66" d="M 2375 4863 
L 2375 4384 
L 1825 4384 
Q 1516 4384 1395 4259 
Q 1275 4134 1275 3809 
L 1275 3500 
L 2222 3500 
L 2222 3053 
L 1275 3053 
L 1275 0 
L 697 0 
L 697 3053 
L 147 3053 
L 147 3500 
L 697 3500 
L 697 3744 
Q 697 4328 969 4595 
Q 1241 4863 1831 4863 
L 2375 4863 
z
" transform="scale(0.015625)"/>
       <path id="DejaVuSans-6f" d="M 1959 3097 
Q 1497 3097 1228 2736 
Q 959 2375 959 1747 
Q 959 1119 1226 758 
Q 1494 397 1959 397 
Q 2419 397 2687 759 
Q 2956 1122 2956 1747 
Q 2956 2369 2687 2733 
Q 2419 3097 1959 3097 
z
M 1959 3584 
Q 2709 3584 3137 3096 
Q 3566 2609 3566 1747 
Q 3566 888 3137 398 
Q 2709 -91 1959 -91 
Q 1206 -91 779 398 
Q 353 888 353 1747 
Q 353 2609 779 3096 
Q 1206 3584 1959 3584 
z
" transform="scale(0.015625)"/>
       <path id="DejaVuSans-2d" d="M 313 2009 
L 1997 2009 
L 1997 1497 
L 313 1497 
L 313 2009 
z
" transform="scale(0.015625)"/>
       <path id="DejaVuSans-64" d="M 2906 2969 
L 2906 4863 
L 3481 4863 
L 3481 0 
L 2906 0 
L 2906 525 
Q 2725 213 2448 61 
Q 2172 -91 1784 -91 
Q 1150 -91 751 415 
Q 353 922 353 1747 
Q 353 2572 751 3078 
Q 1150 3584 1784 3584 
Q 2172 3584 2448 3432 
Q 2725 3281 2906 2969 
z
M 947 1747 
Q 947 1113 1208 752 
Q 1469 391 1925 391 
Q 2381 391 2643 752 
Q 2906 1113 2906 1747 
Q 2906 2381 2643 2742 
Q 2381 3103 1925 3103 
Q 1469 3103 1208 2742 
Q 947 2381 947 1747 
z
" transform="scale(0.015625)"/>
      </defs>
      <use xlink:href="#DejaVuSans-76"/>
      <use xlink:href="#DejaVuSans-65" x="59.179688"/>
      <use xlink:href="#DejaVuSans-72" x="120.703125"/>
      <use xlink:href="#DejaVuSans-69" x="161.816406"/>
      <use xlink:href="#DejaVuSans-66" x="189.599609"/>
      <use xlink:href="#DejaVuSans-69" x="224.804688"/>
      <use xlink:href="#DejaVuSans-63" x="252.587891"/>
      <use xlink:href="#DejaVuSans-61" x="307.568359"/>
      <use xlink:href="#DejaVuSans-74" x="368.847656"/>
      <use xlink:href="#DejaVuSans-69" x="408.056641"/>
      <use xlink:href="#DejaVuSans-6f" x="435.839844"/>
      <use xlink:href="#DejaVuSans-6e" x="497.021484"/>
      <use xlink:href="#DejaVuSans-2d" x="560.400391"/>
      <use xlink:href="#DejaVuSans-63" x="596.484375"/>
      <use xlink:href="#DejaVuSans-6f" x="651.464844"/>
      <use xlink:href="#DejaVuSans-64" x="712.646484"/>
      <use xlink:href="#DejaVuSans-65" x="776.123047"/>
     </g>
    </g>
   </g>
   <g id="text_38">
    <g clip-path="url(#p3436a32bdf)">
     <!-- cancel -->
     <g transform="translate(339.343475 401.522585)scale(0.11 -0.11)">
      <use xlink:href="#DejaVuSans-63"/>
      <use xlink:href="#DejaVuSans-61" x="54.980469"/>
      <use xlink:href="#DejaVuSans-6e" x="116.259766"/>
      <use xlink:href="#DejaVuSans-63" x="179.638672"/>
      <use xlink:href="#DejaVuSans-65" x="234.619141"/>
      <use xlink:href="#DejaVuSans-6c" x="296.142578"/>
     </g>
    </g>
   </g>
   <g id="text_39">
    <g clip-path="url(#p3436a32bdf)">
     <!-- inside-payment -->
     <g transform="translate(178.706724 584.795313)scale(0.11 -0.11)">
      <defs>
       <path id="DejaVuSans-6d" d="M 3328 2828 
Q 3544 3216 3844 3400 
Q 4144 3584 4550 3584 
Q 5097 3584 5394 3201 
Q 5691 2819 5691 2113 
L 5691 0 
L 5113 0 
L 5113 2094 
Q 5113 2597 4934 2840 
Q 4756 3084 4391 3084 
Q 3944 3084 3684 2787 
Q 3425 2491 3425 1978 
L 3425 0 
L 2847 0 
L 2847 2094 
Q 2847 2600 2669 2842 
Q 2491 3084 2119 3084 
Q 1678 3084 1418 2786 
Q 1159 2488 1159 1978 
L 1159 0 
L 581 0 
L 581 3500 
L 1159 3500 
L 1159 2956 
Q 1356 3278 1631 3431 
Q 1906 3584 2284 3584 
Q 2666 3584 2933 3390 
Q 3200 3197 3328 2828 
z
" transform="scale(0.015625)"/>
      </defs>
      <use xlink:href="#DejaVuSans-69"/>
      <use xlink:href="#DejaVuSans-6e" x="27.783203"/>
      <use xlink:href="#DejaVuSans-73" x="91.162109"/>
      <use xlink:href="#DejaVuSans-69" x="143.261719"/>
      <use xlink:href="#DejaVuSans-64" x="171.044922"/>
      <use xlink:href="#DejaVuSans-65" x="234.521484"/>
      <use xlink:href="#DejaVuSans-2d" x="296.044922"/>
      <use xlink:href="#DejaVuSans-70" x="332.128906"/>
      <use xlink:href="#DejaVuSans-61" x="395.605469"/>
      <use xlink:href="#DejaVuSans-79" x="456.884766"/>
      <use xlink:href="#DejaVuSans-6d" x="516.064453"/>
      <use xlink:href="#DejaVuSans-65" x="613.476562"/>
      <use xlink:href="#DejaVuSans-6e" x="675"/>
      <use xlink:href="#DejaVuSans-74" x="738.378906"/>
     </g>
    </g>
   </g>
   <g id="text_40">
    <g clip-path="url(#p3436a32bdf)">
     <!-- notification -->
     <g transform="translate(261.543783 584.795313)scale(0.11 -0.11)">
      <use xlink:href="#DejaVuSans-6e"/>
      <use xlink:href="#DejaVuSans-6f" x="63.378906"/>
      <use xlink:href="#DejaVuSans-74" x="124.560547"/>
      <use xlink:href="#DejaVuSans-69" x="163.769531"/>
      <use xlink:href="#DejaVuSans-66" x="191.552734"/>
      <use xlink:href="#DejaVuSans-69" x="226.757812"/>
      <use xlink:href="#DejaVuSans-63" x="254.541016"/>
      <use xlink:href="#DejaVuSans-61" x="309.521484"/>
      <use xlink:href="#DejaVuSans-74" x="370.800781"/>
      <use xlink:href="#DejaVuSans-69" x="410.009766"/>
      <use xlink:href="#DejaVuSans-6f" x="437.792969"/>
      <use xlink:href="#DejaVuSans-6e" x="498.974609"/>
     </g>
    </g>
   </g>
   <g id="text_41">
    <g clip-path="url(#p3436a32bdf)">
     <!-- order -->
     <g transform="translate(363.003707 768.06804)scale(0.11 -0.11)">
      <use xlink:href="#DejaVuSans-6f"/>
      <use xlink:href="#DejaVuSans-72" x="61.181641"/>
      <use xlink:href="#DejaVuSans-64" x="100.544922"/>
      <use xlink:href="#DejaVuSans-65" x="164.021484"/>
      <use xlink:href="#DejaVuSans-72" x="225.544922"/>
     </g>
    </g>
   </g>
   <g id="text_42">
    <g clip-path="url(#p3436a32bdf)">
     <!-- order-other -->
     <g transform="translate(381.850764 584.795313)scale(0.11 -0.11)">
      <use xlink:href="#DejaVuSans-6f"/>
      <use xlink:href="#DejaVuSans-72" x="61.181641"/>
      <use xlink:href="#DejaVuSans-64" x="100.544922"/>
      <use xlink:href="#DejaVuSans-65" x="164.021484"/>
      <use xlink:href="#DejaVuSans-72" x="225.544922"/>
      <use xlink:href="#DejaVuSans-2d" x="260.283203"/>
      <use xlink:href="#DejaVuSans-6f" x="298.242188"/>
      <use xlink:href="#DejaVuSans-74" x="359.423828"/>
      <use xlink:href="#DejaVuSans-68" x="398.632812"/>
      <use xlink:href="#DejaVuSans-65" x="462.011719"/>
      <use xlink:href="#DejaVuSans-72" x="523.535156"/>
     </g>
    </g>
   </g>
   <g id="text_43">
    <g clip-path="url(#p3436a32bdf)">
     <!-- user -->
     <g transform="translate(330.96436 584.795313)scale(0.11 -0.11)">
      <use xlink:href="#DejaVuSans-75"/>
      <use xlink:href="#DejaVuSans-73" x="63.378906"/>
      <use xlink:href="#DejaVuSans-65" x="115.478516"/>
      <use xlink:href="#DejaVuSans-72" x="177.001953"/>
     </g>
    </g>
   </g>
   <g id="text_44">
    <g clip-path="url(#p3436a32bdf)">
     <!-- food -->
     <g transform="translate(479.109516 401.522585)scale(0.11 -0.11)">
      <use xlink:href="#DejaVuSans-66"/>
      <use xlink:href="#DejaVuSans-6f" x="35.205078"/>
      <use xlink:href="#DejaVuSans-6f" x="96.386719"/>
      <use xlink:href="#DejaVuSans-64" x="157.568359"/>
     </g>
    </g>
   </g>
   <g id="text_45">
    <g clip-path="url(#p3436a32bdf)">
     <!-- food-map -->
     <g transform="translate(465.957593 584.795313)scale(0.11 -0.11)">
      <use xlink:href="#DejaVuSans-66"/>
      <use xlink:href="#DejaVuSans-6f" x="35.205078"/>
      <use xlink:href="#DejaVuSans-6f" x="96.386719"/>
      <use xlink:href="#DejaVuSans-64" x="157.568359"/>
      <use xlink:href="#DejaVuSans-2d" x="221.044922"/>
      <use xlink:href="#DejaVuSans-6d" x="257.128906"/>
      <use xlink:href="#DejaVuSans-61" x="354.541016"/>
      <use xlink:href="#DejaVuSans-70" x="415.820312"/>
     </g>
    </g>
   </g>
   <g id="text_46">
    <g clip-path="url(#p3436a32bdf)">
     <!-- station -->
     <g transform="translate(393.979982 951.340767)scale(0.11 -0.11)">
      <use xlink:href="#DejaVuSans-73"/>
      <use xlink:href="#DejaVuSans-74" x="52.099609"/>
      <use xlink:href="#DejaVuSans-61" x="91.308594"/>
      <use xlink:href="#DejaVuSans-74" x="152.587891"/>
      <use xlink:href="#DejaVuSans-69" x="191.796875"/>
      <use xlink:href="#DejaVuSans-6f" x="219.580078"/>
      <use xlink:href="#DejaVuSans-6e" x="280.761719"/>
     </g>
    </g>
   </g>
   <g id="text_47">
    <g clip-path="url(#p3436a32bdf)">
     <!-- travel -->
     <g transform="translate(545.785193 584.795313)scale(0.11 -0.11)">
      <use xlink:href="#DejaVuSans-74"/>
      <use xlink:href="#DejaVuSans-72" x="39.208984"/>
      <use xlink:href="#DejaVuSans-61" x="80.322266"/>
      <use xlink:href="#DejaVuSans-76" x="141.601562"/>
      <use xlink:href="#DejaVuSans-65" x="200.78125"/>
      <use xlink:href="#DejaVuSans-6c" x="262.304688"/>
     </g>
    </g>
   </g>
   <g id="text_48">
    <g clip-path="url(#p3436a32bdf)">
     <!-- gateway -->
     <g transform="translate(535.058619 218.249858)scale(0.11 -0.11)">
      <defs>
       <path id="DejaVuSans-67" d="M 2906 1791 
Q 2906 2416 2648 2759 
Q 2391 3103 1925 3103 
Q 1463 3103 1205 2759 
Q 947 2416 947 1791 
Q 947 1169 1205 825 
Q 1463 481 1925 481 
Q 2391 481 2648 825 
Q 2906 1169 2906 1791 
z
M 3481 434 
Q 3481 -459 3084 -895 
Q 2688 -1331 1869 -1331 
Q 1566 -1331 1297 -1286 
Q 1028 -1241 775 -1147 
L 775 -588 
Q 1028 -725 1275 -790 
Q 1522 -856 1778 -856 
Q 2344 -856 2625 -561 
Q 2906 -266 2906 331 
L 2906 616 
Q 2728 306 2450 153 
Q 2172 0 1784 0 
Q 1141 0 747 490 
Q 353 981 353 1791 
Q 353 2603 747 3093 
Q 1141 3584 1784 3584 
Q 2172 3584 2450 3431 
Q 2728 3278 2906 2969 
L 2906 3500 
L 3481 3500 
L 3481 434 
z
" transform="scale(0.015625)"/>
       <path id="DejaVuSans-77" d="M 269 3500 
L 844 3500 
L 1563 769 
L 2278 3500 
L 2956 3500 
L 3675 769 
L 4391 3500 
L 4966 3500 
L 4050 0 
L 3372 0 
L 2619 2869 
L 1863 0 
L 1184 0 
L 269 3500 
z
" transform="scale(0.015625)"/>
      </defs>
      <use xlink:href="#DejaVuSans-67"/>
      <use xlink:href="#DejaVuSans-61" x="63.476562"/>
      <use xlink:href="#DejaVuSans-74" x="124.755859"/>
      <use xlink:href="#DejaVuSans-65" x="163.964844"/>
      <use xlink:href="#DejaVuSans-77" x="225.488281"/>
      <use xlink:href="#DejaVuSans-61" x="307.275391"/>
      <use xlink:href="#DejaVuSans-79" x="368.554688"/>
     </g>
    </g>
   </g>
   <g id="text_49">
    <g clip-path="url(#p3436a32bdf)">
     <!-- assurance -->
     <g transform="translate(530.472994 401.522585)scale(0.11 -0.11)">
      <use xlink:href="#DejaVuSans-61"/>
      <use xlink:href="#DejaVuSans-73" x="61.279297"/>
      <use xlink:href="#DejaVuSans-73" x="113.378906"/>
      <use xlink:href="#DejaVuSans-75" x="165.478516"/>
      <use xlink:href="#DejaVuSans-72" x="228.857422"/>
      <use xlink:href="#DejaVuSans-61" x="269.970703"/>
      <use xlink:href="#DejaVuSans-6e" x="331.25"/>
      <use xlink:href="#DejaVuSans-63" x="394.628906"/>
      <use xlink:href="#DejaVuSans-65" x="449.609375"/>
     </g>
    </g>
   </g>
   <g id="text_50">
    <g clip-path="url(#p3436a32bdf)">
     <!-- consign -->
     <g transform="translate(653.566261 401.522585)scale(0.11 -0.11)">
      <use xlink:href="#DejaVuSans-63"/>
      <use xlink:href="#DejaVuSans-6f" x="54.980469"/>
      <use xlink:href="#DejaVuSans-6e" x="116.162109"/>
      <use xlink:href="#DejaVuSans-73" x="179.541016"/>
      <use xlink:href="#DejaVuSans-69" x="231.640625"/>
      <use xlink:href="#DejaVuSans-67" x="259.423828"/>
      <use xlink:href="#DejaVuSans-6e" x="322.900391"/>
     </g>
    </g>
   </g>
   <g id="text_51">
    <g clip-path="url(#p3436a32bdf)">
     <!-- contacts -->
     <g transform="translate(701.84697 401.522585)scale(0.11 -0.11)">
      <use xlink:href="#DejaVuSans-63"/>
      <use xlink:href="#DejaVuSans-6f" x="54.980469"/>
      <use xlink:href="#DejaVuSans-6e" x="116.162109"/>
      <use xlink:href="#DejaVuSans-74" x="179.541016"/>
      <use xlink:href="#DejaVuSans-61" x="218.75"/>
      <use xlink:href="#DejaVuSans-63" x="280.029297"/>
      <use xlink:href="#DejaVuSans-74" x="335.009766"/>
      <use xlink:href="#DejaVuSans-73" x="374.21875"/>
     </g>
    </g>
   </g>
   <g id="text_52">
    <g clip-path="url(#p3436a32bdf)">
     <!-- preserve -->
     <g transform="translate(752.670624 401.522585)scale(0.11 -0.11)">
      <use xlink:href="#DejaVuSans-70"/>
      <use xlink:href="#DejaVuSans-72" x="63.476562"/>
      <use xlink:href="#DejaVuSans-65" x="102.339844"/>
      <use xlink:href="#DejaVuSans-73" x="163.863281"/>
      <use xlink:href="#DejaVuSans-65" x="215.962891"/>
      <use xlink:href="#DejaVuSans-72" x="277.486328"/>
      <use xlink:href="#DejaVuSans-76" x="318.599609"/>
      <use xlink:href="#DejaVuSans-65" x="377.779297"/>
     </g>
    </g>
   </g>
   <g id="text_53">
    <g clip-path="url(#p3436a32bdf)">
     <!-- ts-ui-dashboard -->
     <g transform="translate(798.946697 401.522585)scale(0.11 -0.11)">
      <defs>
       <path id="DejaVuSans-62" d="M 3116 1747 
Q 3116 2381 2855 2742 
Q 2594 3103 2138 3103 
Q 1681 3103 1420 2742 
Q 1159 2381 1159 1747 
Q 1159 1113 1420 752 
Q 1681 391 2138 391 
Q 2594 391 2855 752 
Q 3116 1113 3116 1747 
z
M 1159 2969 
Q 1341 3281 1617 3432 
Q 1894 3584 2278 3584 
Q 2916 3584 3314 3078 
Q 3713 2572 3713 1747 
Q 3713 922 3314 415 
Q 2916 -91 2278 -91 
Q 1894 -91 1617 61 
Q 1341 213 1159 525 
L 1159 0 
L 581 0 
L 581 4863 
L 1159 4863 
L 1159 2969 
z
" transform="scale(0.015625)"/>
      </defs>
      <use xlink:href="#DejaVuSans-74"/>
      <use xlink:href="#DejaVuSans-73" x="39.208984"/>
      <use xlink:href="#DejaVuSans-2d" x="91.308594"/>
      <use xlink:href="#DejaVuSans-75" x="127.392578"/>
      <use xlink:href="#DejaVuSans-69" x="190.771484"/>
      <use xlink:href="#DejaVuSans-2d" x="218.554688"/>
      <use xlink:href="#DejaVuSans-64" x="254.638672"/>
      <use xlink:href="#DejaVuSans-61" x="318.115234"/>
      <use xlink:href="#DejaVuSans-73" x="379.394531"/>
      <use xlink:href="#DejaVuSans-68" x="431.494141"/>
      <use xlink:href="#DejaVuSans-62" x="494.873047"/>
      <use xlink:href="#DejaVuSans-6f" x="558.349609"/>
      <use xlink:href="#DejaVuSans-61" x="619.53125"/>
      <use xlink:href="#DejaVuSans-72" x="680.810547"/>
      <use xlink:href="#DejaVuSans-64" x="720.173828"/>
     </g>
    </g>
   </g>
   <g id="text_54">
    <g clip-path="url(#p3436a32bdf)">
     <!-- payment -->
     <g transform="translate(196.973599 768.06804)scale(0.11 -0.11)">
      <use xlink:href="#DejaVuSans-70"/>
      <use xlink:href="#DejaVuSans-61" x="63.476562"/>
      <use xlink:href="#DejaVuSans-79" x="124.755859"/>
      <use xlink:href="#DejaVuSans-6d" x="183.935547"/>
      <use xlink:href="#DejaVuSans-65" x="281.347656"/>
      <use xlink:href="#DejaVuSans-6e" x="342.871094"/>
      <use xlink:href="#DejaVuSans-74" x="406.25"/>
     </g>
    </g>
   </g>
   <g id="text_55">
    <g clip-path="url(#p3436a32bdf)">
     <!-- seat*(RC)* -->
     <g transform="translate(589.584075 401.522585)scale(0.11 -0.11)">
      <defs>
       <path id="DejaVuSans-2a" d="M 3009 3897 
L 1888 3291 
L 3009 2681 
L 2828 2375 
L 1778 3009 
L 1778 1831 
L 1422 1831 
L 1422 3009 
L 372 2375 
L 191 2681 
L 1313 3291 
L 191 3897 
L 372 4206 
L 1422 3572 
L 1422 4750 
L 1778 4750 
L 1778 3572 
L 2828 4206 
L 3009 3897 
z
" transform="scale(0.015625)"/>
       <path id="DejaVuSans-28" d="M 1984 4856 
Q 1566 4138 1362 3434 
Q 1159 2731 1159 2009 
Q 1159 1288 1364 580 
Q 1569 -128 1984 -844 
L 1484 -844 
Q 1016 -109 783 600 
Q 550 1309 550 2009 
Q 550 2706 781 3412 
Q 1013 4119 1484 4856 
L 1984 4856 
z
" transform="scale(0.015625)"/>
       <path id="DejaVuSans-52" d="M 2841 2188 
Q 3044 2119 3236 1894 
Q 3428 1669 3622 1275 
L 4263 0 
L 3584 0 
L 2988 1197 
Q 2756 1666 2539 1819 
Q 2322 1972 1947 1972 
L 1259 1972 
L 1259 0 
L 628 0 
L 628 4666 
L 2053 4666 
Q 2853 4666 3247 4331 
Q 3641 3997 3641 3322 
Q 3641 2881 3436 2590 
Q 3231 2300 2841 2188 
z
M 1259 4147 
L 1259 2491 
L 2053 2491 
Q 2509 2491 2742 2702 
Q 2975 2913 2975 3322 
Q 2975 3731 2742 3939 
Q 2509 4147 2053 4147 
L 1259 4147 
z
" transform="scale(0.015625)"/>
       <path id="DejaVuSans-43" d="M 4122 4306 
L 4122 3641 
Q 3803 3938 3442 4084 
Q 3081 4231 2675 4231 
Q 1875 4231 1450 3742 
Q 1025 3253 1025 2328 
Q 1025 1406 1450 917 
Q 1875 428 2675 428 
Q 3081 428 3442 575 
Q 3803 722 4122 1019 
L 4122 359 
Q 3791 134 3420 21 
Q 3050 -91 2638 -91 
Q 1578 -91 968 557 
Q 359 1206 359 2328 
Q 359 3453 968 4101 
Q 1578 4750 2638 4750 
Q 3056 4750 3426 4639 
Q 3797 4528 4122 4306 
z
" transform="scale(0.015625)"/>
       <path id="DejaVuSans-29" d="M 513 4856 
L 1013 4856 
Q 1481 4119 1714 3412 
Q 1947 2706 1947 2009 
Q 1947 1309 1714 600 
Q 1481 -109 1013 -844 
L 513 -844 
Q 928 -128 1133 580 
Q 1338 1288 1338 2009 
Q 1338 2731 1133 3434 
Q 928 4138 513 4856 
z
" transform="scale(0.015625)"/>
      </defs>
      <use xlink:href="#DejaVuSans-73"/>
      <use xlink:href="#DejaVuSans-65" x="52.099609"/>
      <use xlink:href="#DejaVuSans-61" x="113.623047"/>
      <use xlink:href="#DejaVuSans-74" x="174.902344"/>
      <use xlink:href="#DejaVuSans-2a" x="214.111328"/>
      <use xlink:href="#DejaVuSans-28" x="264.111328"/>
      <use xlink:href="#DejaVuSans-52" x="303.125"/>
      <use xlink:href="#DejaVuSans-43" x="367.607422"/>
      <use xlink:href="#DejaVuSans-29" x="437.431641"/>
      <use xlink:href="#DejaVuSans-2a" x="476.445312"/>
     </g>
    </g>
   </g>
   <g id="text_56">
    <g clip-path="url(#p3436a32bdf)">
     <!-- config -->
     <g transform="translate(608.019098 584.795313)scale(0.11 -0.11)">
      <use xlink:href="#DejaVuSans-63"/>
      <use xlink:href="#DejaVuSans-6f" x="54.980469"/>
      <use xlink:href="#DejaVuSans-6e" x="116.162109"/>
      <use xlink:href="#DejaVuSans-66" x="179.541016"/>
      <use xlink:href="#DejaVuSans-69" x="214.746094"/>
      <use xlink:href="#DejaVuSans-67" x="242.529297"/>
     </g>
    </g>
   </g>
   <g id="text_57">
    <g clip-path="url(#p3436a32bdf)">
     <!-- security -->
     <g transform="translate(425.657532 401.522585)scale(0.11 -0.11)">
      <use xlink:href="#DejaVuSans-73"/>
      <use xlink:href="#DejaVuSans-65" x="52.099609"/>
      <use xlink:href="#DejaVuSans-63" x="113.623047"/>
      <use xlink:href="#DejaVuSans-75" x="168.603516"/>
      <use xlink:href="#DejaVuSans-72" x="231.982422"/>
      <use xlink:href="#DejaVuSans-69" x="273.095703"/>
      <use xlink:href="#DejaVuSans-74" x="300.878906"/>
      <use xlink:href="#DejaVuSans-79" x="340.087891"/>
     </g>
    </g>
   </g>
   <g id="text_58">
    <g clip-path="url(#p3436a32bdf)">
     <!-- ticketinfo -->
     <g transform="translate(933.776401 218.249858)scale(0.11 -0.11)">
      <defs>
       <path id="DejaVuSans-6b" d="M 581 4863 
L 1159 4863 
L 1159 1991 
L 2875 3500 
L 3609 3500 
L 1753 1863 
L 3688 0 
L 2938 0 
L 1159 1709 
L 1159 0 
L 581 0 
L 581 4863 
z
" transform="scale(0.015625)"/>
      </defs>
      <use xlink:href="#DejaVuSans-74"/>
      <use xlink:href="#DejaVuSans-69" x="39.208984"/>
      <use xlink:href="#DejaVuSans-63" x="66.992188"/>
      <use xlink:href="#DejaVuSans-6b" x="121.972656"/>
      <use xlink:href="#DejaVuSans-65" x="176.257812"/>
      <use xlink:href="#DejaVuSans-74" x="237.78125"/>
      <use xlink:href="#DejaVuSans-69" x="276.990234"/>
      <use xlink:href="#DejaVuSans-6e" x="304.773438"/>
      <use xlink:href="#DejaVuSans-66" x="368.152344"/>
      <use xlink:href="#DejaVuSans-6f" x="403.357422"/>
     </g>
    </g>
   </g>
   <g id="text_59">
    <g clip-path="url(#p3436a32bdf)">
     <!-- basic -->
     <g transform="translate(945.046245 401.522585)scale(0.11 -0.11)">
      <use xlink:href="#DejaVuSans-62"/>
      <use xlink:href="#DejaVuSans-61" x="63.476562"/>
      <use xlink:href="#DejaVuSans-73" x="124.755859"/>
      <use xlink:href="#DejaVuSans-69" x="176.855469"/>
      <use xlink:href="#DejaVuSans-63" x="204.638672"/>
     </g>
    </g>
   </g>
  </g>
 </g>
 <defs>
  <clipPath id="p3436a32bdf">
   <rect x="144" y="138.24" width="892.8" height="887.04"/>
  </clipPath>
 </defs>
</svg>
