<?xml version="1.0" encoding="utf-8" standalone="no"?>
<!DOCTYPE svg PUBLIC "-//W3C//DTD SVG 1.1//EN"
  "http://www.w3.org/Graphics/SVG/1.1/DTD/svg11.dtd">
<svg xmlns:xlink="http://www.w3.org/1999/xlink" width="1152pt" height="1152pt" viewBox="0 0 1152 1152" xmlns="http://www.w3.org/2000/svg" version="1.1">
 <metadata>
  <rdf:RDF xmlns:dc="http://purl.org/dc/elements/1.1/" xmlns:cc="http://creativecommons.org/ns#" xmlns:rdf="http://www.w3.org/1999/02/22-rdf-syntax-ns#">
   <cc:Work>
    <dc:type rdf:resource="http://purl.org/dc/dcmitype/StillImage"/>
    <dc:date>2022-11-17T01:45:48.326346</dc:date>
    <dc:format>image/svg+xml</dc:format>
    <dc:creator>
     <cc:Agent>
      <dc:title>Matplotlib v3.5.3, https://matplotlib.org/</dc:title>
     </cc:Agent>
    </dc:creator>
   </cc:Work>
  </rdf:RDF>
 </metadata>
 <defs>
  <style type="text/css">*{stroke-linejoin: round; stroke-linecap: butt}</style>
 </defs>
 <g id="figure_1">
  <g id="patch_1">
   <path d="M 0 1152 
L 1152 1152 
L 1152 0 
L 0 0 
z
" style="fill: #ffffff"/>
  </g>
  <g id="axes_1">
   <g id="patch_2">
    <path d="M 144 1025.28 
L 1036.8 1025.28 
L 1036.8 138.24 
L 144 138.24 
z
" style="fill: #ffffff"/>
   </g>
   <g id="text_1">
    <g id="patch_3">
     <path d="M 591.780553 884.17517 
L 591.780553 939.81642 
Q 591.780553 942.21642 594.180553 942.21642 
L 602.145553 942.21642 
Q 604.545553 942.21642 604.545553 939.81642 
L 604.545553 884.17517 
Q 604.545553 881.77517 602.145553 881.77517 
L 594.180553 881.77517 
Q 591.780553 881.77517 591.780553 884.17517 
L 591.780553 884.17517 
z
" clip-path="url(#p342b04182d)" style="fill: none"/>
    </g>
    <g clip-path="url(#p342b04182d)">
     <!-- ['http_status'] -->
     <g transform="translate(596.066803 884.17517)rotate(-270)scale(0.08 -0.08)">
      <defs>
       <path id="DejaVuSans-5b" d="M 550 4863 
L 1875 4863 
L 1875 4416 
L 1125 4416 
L 1125 -397 
L 1875 -397 
L 1875 -844 
L 550 -844 
L 550 4863 
z
" transform="scale(0.015625)"/>
       <path id="DejaVuSans-27" d="M 1147 4666 
L 1147 2931 
L 616 2931 
L 616 4666 
L 1147 4666 
z
" transform="scale(0.015625)"/>
       <path id="DejaVuSans-68" d="M 3513 2113 
L 3513 0 
L 2938 0 
L 2938 2094 
Q 2938 2591 2744 2837 
Q 2550 3084 2163 3084 
Q 1697 3084 1428 2787 
Q 1159 2491 1159 1978 
L 1159 0 
L 581 0 
L 581 4863 
L 1159 4863 
L 1159 2956 
Q 1366 3272 1645 3428 
Q 1925 3584 2291 3584 
Q 2894 3584 3203 3211 
Q 3513 2838 3513 2113 
z
" transform="scale(0.015625)"/>
       <path id="DejaVuSans-74" d="M 1172 4494 
L 1172 3500 
L 2356 3500 
L 2356 3053 
L 1172 3053 
L 1172 1153 
Q 1172 725 1289 603 
Q 1406 481 1766 481 
L 2356 481 
L 2356 0 
L 1766 0 
Q 1100 0 847 248 
Q 594 497 594 1153 
L 594 3053 
L 172 3053 
L 172 3500 
L 594 3500 
L 594 4494 
L 1172 4494 
z
" transform="scale(0.015625)"/>
       <path id="DejaVuSans-70" d="M 1159 525 
L 1159 -1331 
L 581 -1331 
L 581 3500 
L 1159 3500 
L 1159 2969 
Q 1341 3281 1617 3432 
Q 1894 3584 2278 3584 
Q 2916 3584 3314 3078 
Q 3713 2572 3713 1747 
Q 3713 922 3314 415 
Q 2916 -91 2278 -91 
Q 1894 -91 1617 61 
Q 1341 213 1159 525 
z
M 3116 1747 
Q 3116 2381 2855 2742 
Q 2594 3103 2138 3103 
Q 1681 3103 1420 2742 
Q 1159 2381 1159 1747 
Q 1159 1113 1420 752 
Q 1681 391 2138 391 
Q 2594 391 2855 752 
Q 3116 1113 3116 1747 
z
" transform="scale(0.015625)"/>
       <path id="DejaVuSans-5f" d="M 3263 -1063 
L 3263 -1509 
L -63 -1509 
L -63 -1063 
L 3263 -1063 
z
" transform="scale(0.015625)"/>
       <path id="DejaVuSans-73" d="M 2834 3397 
L 2834 2853 
Q 2591 2978 2328 3040 
Q 2066 3103 1784 3103 
Q 1356 3103 1142 2972 
Q 928 2841 928 2578 
Q 928 2378 1081 2264 
Q 1234 2150 1697 2047 
L 1894 2003 
Q 2506 1872 2764 1633 
Q 3022 1394 3022 966 
Q 3022 478 2636 193 
Q 2250 -91 1575 -91 
Q 1294 -91 989 -36 
Q 684 19 347 128 
L 347 722 
Q 666 556 975 473 
Q 1284 391 1588 391 
Q 1994 391 2212 530 
Q 2431 669 2431 922 
Q 2431 1156 2273 1281 
Q 2116 1406 1581 1522 
L 1381 1569 
Q 847 1681 609 1914 
Q 372 2147 372 2553 
Q 372 3047 722 3315 
Q 1072 3584 1716 3584 
Q 2034 3584 2315 3537 
Q 2597 3491 2834 3397 
z
" transform="scale(0.015625)"/>
       <path id="DejaVuSans-61" d="M 2194 1759 
Q 1497 1759 1228 1600 
Q 959 1441 959 1056 
Q 959 750 1161 570 
Q 1363 391 1709 391 
Q 2188 391 2477 730 
Q 2766 1069 2766 1631 
L 2766 1759 
L 2194 1759 
z
M 3341 1997 
L 3341 0 
L 2766 0 
L 2766 531 
Q 2569 213 2275 61 
Q 1981 -91 1556 -91 
Q 1019 -91 701 211 
Q 384 513 384 1019 
Q 384 1609 779 1909 
Q 1175 2209 1959 2209 
L 2766 2209 
L 2766 2266 
Q 2766 2663 2505 2880 
Q 2244 3097 1772 3097 
Q 1472 3097 1187 3025 
Q 903 2953 641 2809 
L 641 3341 
Q 956 3463 1253 3523 
Q 1550 3584 1831 3584 
Q 2591 3584 2966 3190 
Q 3341 2797 3341 1997 
z
" transform="scale(0.015625)"/>
       <path id="DejaVuSans-75" d="M 544 1381 
L 544 3500 
L 1119 3500 
L 1119 1403 
Q 1119 906 1312 657 
Q 1506 409 1894 409 
Q 2359 409 2629 706 
Q 2900 1003 2900 1516 
L 2900 3500 
L 3475 3500 
L 3475 0 
L 2900 0 
L 2900 538 
Q 2691 219 2414 64 
Q 2138 -91 1772 -91 
Q 1169 -91 856 284 
Q 544 659 544 1381 
z
M 1991 3584 
L 1991 3584 
z
" transform="scale(0.015625)"/>
       <path id="DejaVuSans-5d" d="M 1947 4863 
L 1947 -844 
L 622 -844 
L 622 -397 
L 1369 -397 
L 1369 4416 
L 622 4416 
L 622 4863 
L 1947 4863 
z
" transform="scale(0.015625)"/>
      </defs>
      <use xlink:href="#DejaVuSans-5b"/>
      <use xlink:href="#DejaVuSans-27" x="39.013672"/>
      <use xlink:href="#DejaVuSans-68" x="66.503906"/>
      <use xlink:href="#DejaVuSans-74" x="129.882812"/>
      <use xlink:href="#DejaVuSans-74" x="169.091797"/>
      <use xlink:href="#DejaVuSans-70" x="208.300781"/>
      <use xlink:href="#DejaVuSans-5f" x="271.777344"/>
      <use xlink:href="#DejaVuSans-73" x="321.777344"/>
      <use xlink:href="#DejaVuSans-74" x="373.876953"/>
      <use xlink:href="#DejaVuSans-61" x="413.085938"/>
      <use xlink:href="#DejaVuSans-74" x="474.365234"/>
      <use xlink:href="#DejaVuSans-75" x="513.574219"/>
      <use xlink:href="#DejaVuSans-73" x="576.953125"/>
      <use xlink:href="#DejaVuSans-27" x="629.052734"/>
      <use xlink:href="#DejaVuSans-5d" x="656.542969"/>
     </g>
    </g>
   </g>
   <g id="text_2">
    <g id="patch_4">
     <path d="M 439.45582 397.255099 
L 449.15721 452.044073 
Q 449.575665 454.407311 451.938903 453.988857 
L 459.781901 452.600111 
Q 462.145139 452.181656 461.726685 449.818418 
L 452.025294 395.029443 
Q 451.606839 392.666205 449.243601 393.084659 
L 441.400603 394.473406 
Q 439.037365 394.89186 439.45582 397.255099 
L 439.45582 397.255099 
z
" clip-path="url(#p342b04182d)" style="fill: none"/>
    </g>
    <g clip-path="url(#p342b04182d)">
     <!-- ['http_status'] -->
     <g transform="translate(443.676416 396.507765)rotate(-280.041189)scale(0.08 -0.08)">
      <use xlink:href="#DejaVuSans-5b"/>
      <use xlink:href="#DejaVuSans-27" x="39.013672"/>
      <use xlink:href="#DejaVuSans-68" x="66.503906"/>
      <use xlink:href="#DejaVuSans-74" x="129.882812"/>
      <use xlink:href="#DejaVuSans-74" x="169.091797"/>
      <use xlink:href="#DejaVuSans-70" x="208.300781"/>
      <use xlink:href="#DejaVuSans-5f" x="271.777344"/>
      <use xlink:href="#DejaVuSans-73" x="321.777344"/>
      <use xlink:href="#DejaVuSans-74" x="373.876953"/>
      <use xlink:href="#DejaVuSans-61" x="413.085938"/>
      <use xlink:href="#DejaVuSans-74" x="474.365234"/>
      <use xlink:href="#DejaVuSans-75" x="513.574219"/>
      <use xlink:href="#DejaVuSans-73" x="576.953125"/>
      <use xlink:href="#DejaVuSans-27" x="629.052734"/>
      <use xlink:href="#DejaVuSans-5d" x="656.542969"/>
     </g>
    </g>
   </g>
   <g id="text_3">
    <g id="patch_5">
     <path d="M 449.490275 280.859739 
L 518.731591 345.187156 
Q 520.489892 346.820673 522.123409 345.062373 
L 527.544646 339.227014 
Q 529.178164 337.468714 527.419864 335.835196 
L 458.178548 271.507779 
Q 456.420247 269.874262 454.78673 271.632562 
L 449.365493 277.467921 
Q 447.731975 279.226221 449.490275 280.859739 
L 449.490275 280.859739 
z
" clip-path="url(#p342b04182d)" style="fill: none"/>
    </g>
    <g clip-path="url(#p342b04182d)">
     <!-- ['latency', 'http_status'] -->
     <g transform="translate(452.407636 277.719525)rotate(-317.106921)scale(0.08 -0.08)">
      <defs>
       <path id="DejaVuSans-6c" d="M 603 4863 
L 1178 4863 
L 1178 0 
L 603 0 
L 603 4863 
z
" transform="scale(0.015625)"/>
       <path id="DejaVuSans-65" d="M 3597 1894 
L 3597 1613 
L 953 1613 
Q 991 1019 1311 708 
Q 1631 397 2203 397 
Q 2534 397 2845 478 
Q 3156 559 3463 722 
L 3463 178 
Q 3153 47 2828 -22 
Q 2503 -91 2169 -91 
Q 1331 -91 842 396 
Q 353 884 353 1716 
Q 353 2575 817 3079 
Q 1281 3584 2069 3584 
Q 2775 3584 3186 3129 
Q 3597 2675 3597 1894 
z
M 3022 2063 
Q 3016 2534 2758 2815 
Q 2500 3097 2075 3097 
Q 1594 3097 1305 2825 
Q 1016 2553 972 2059 
L 3022 2063 
z
" transform="scale(0.015625)"/>
       <path id="DejaVuSans-6e" d="M 3513 2113 
L 3513 0 
L 2938 0 
L 2938 2094 
Q 2938 2591 2744 2837 
Q 2550 3084 2163 3084 
Q 1697 3084 1428 2787 
Q 1159 2491 1159 1978 
L 1159 0 
L 581 0 
L 581 3500 
L 1159 3500 
L 1159 2956 
Q 1366 3272 1645 3428 
Q 1925 3584 2291 3584 
Q 2894 3584 3203 3211 
Q 3513 2838 3513 2113 
z
" transform="scale(0.015625)"/>
       <path id="DejaVuSans-63" d="M 3122 3366 
L 3122 2828 
Q 2878 2963 2633 3030 
Q 2388 3097 2138 3097 
Q 1578 3097 1268 2742 
Q 959 2388 959 1747 
Q 959 1106 1268 751 
Q 1578 397 2138 397 
Q 2388 397 2633 464 
Q 2878 531 3122 666 
L 3122 134 
Q 2881 22 2623 -34 
Q 2366 -91 2075 -91 
Q 1284 -91 818 406 
Q 353 903 353 1747 
Q 353 2603 823 3093 
Q 1294 3584 2113 3584 
Q 2378 3584 2631 3529 
Q 2884 3475 3122 3366 
z
" transform="scale(0.015625)"/>
       <path id="DejaVuSans-79" d="M 2059 -325 
Q 1816 -950 1584 -1140 
Q 1353 -1331 966 -1331 
L 506 -1331 
L 506 -850 
L 844 -850 
Q 1081 -850 1212 -737 
Q 1344 -625 1503 -206 
L 1606 56 
L 191 3500 
L 800 3500 
L 1894 763 
L 2988 3500 
L 3597 3500 
L 2059 -325 
z
" transform="scale(0.015625)"/>
       <path id="DejaVuSans-2c" d="M 750 794 
L 1409 794 
L 1409 256 
L 897 -744 
L 494 -744 
L 750 256 
L 750 794 
z
" transform="scale(0.015625)"/>
       <path id="DejaVuSans-20" transform="scale(0.015625)"/>
      </defs>
      <use xlink:href="#DejaVuSans-5b"/>
      <use xlink:href="#DejaVuSans-27" x="39.013672"/>
      <use xlink:href="#DejaVuSans-6c" x="66.503906"/>
      <use xlink:href="#DejaVuSans-61" x="94.287109"/>
      <use xlink:href="#DejaVuSans-74" x="155.566406"/>
      <use xlink:href="#DejaVuSans-65" x="194.775391"/>
      <use xlink:href="#DejaVuSans-6e" x="256.298828"/>
      <use xlink:href="#DejaVuSans-63" x="319.677734"/>
      <use xlink:href="#DejaVuSans-79" x="374.658203"/>
      <use xlink:href="#DejaVuSans-27" x="433.837891"/>
      <use xlink:href="#DejaVuSans-2c" x="461.328125"/>
      <use xlink:href="#DejaVuSans-20" x="493.115234"/>
      <use xlink:href="#DejaVuSans-27" x="524.902344"/>
      <use xlink:href="#DejaVuSans-68" x="552.392578"/>
      <use xlink:href="#DejaVuSans-74" x="615.771484"/>
      <use xlink:href="#DejaVuSans-74" x="654.980469"/>
      <use xlink:href="#DejaVuSans-70" x="694.189453"/>
      <use xlink:href="#DejaVuSans-5f" x="757.666016"/>
      <use xlink:href="#DejaVuSans-73" x="807.666016"/>
      <use xlink:href="#DejaVuSans-74" x="859.765625"/>
      <use xlink:href="#DejaVuSans-61" x="898.974609"/>
      <use xlink:href="#DejaVuSans-74" x="960.253906"/>
      <use xlink:href="#DejaVuSans-75" x="999.462891"/>
      <use xlink:href="#DejaVuSans-73" x="1062.841797"/>
      <use xlink:href="#DejaVuSans-27" x="1114.941406"/>
      <use xlink:href="#DejaVuSans-5d" x="1142.431641"/>
     </g>
    </g>
   </g>
   <g id="text_4">
    <g id="patch_6">
     <path d="M 588.22117 283.072559 
L 640.864179 301.090948 
Q 643.134854 301.868143 643.91205 299.597468 
L 646.491367 292.061663 
Q 647.268563 289.790988 644.997887 289.013792 
L 592.354879 270.995404 
Q 590.084203 270.218209 589.307008 272.488884 
L 586.72769 280.024688 
Q 585.950494 282.295364 588.22117 283.072559 
L 588.22117 283.072559 
z
" clip-path="url(#p342b04182d)" style="fill: none"/>
    </g>
    <g clip-path="url(#p342b04182d)">
     <!-- ['http_status'] -->
     <g transform="translate(589.609192 279.017275)rotate(-341.105204)scale(0.08 -0.08)">
      <use xlink:href="#DejaVuSans-5b"/>
      <use xlink:href="#DejaVuSans-27" x="39.013672"/>
      <use xlink:href="#DejaVuSans-68" x="66.503906"/>
      <use xlink:href="#DejaVuSans-74" x="129.882812"/>
      <use xlink:href="#DejaVuSans-74" x="169.091797"/>
      <use xlink:href="#DejaVuSans-70" x="208.300781"/>
      <use xlink:href="#DejaVuSans-5f" x="271.777344"/>
      <use xlink:href="#DejaVuSans-73" x="321.777344"/>
      <use xlink:href="#DejaVuSans-74" x="373.876953"/>
      <use xlink:href="#DejaVuSans-61" x="413.085938"/>
      <use xlink:href="#DejaVuSans-74" x="474.365234"/>
      <use xlink:href="#DejaVuSans-75" x="513.574219"/>
      <use xlink:href="#DejaVuSans-73" x="576.953125"/>
      <use xlink:href="#DejaVuSans-27" x="629.052734"/>
      <use xlink:href="#DejaVuSans-5d" x="656.542969"/>
     </g>
    </g>
   </g>
   <g id="text_5">
    <g id="patch_7">
     <path d="M 514.858174 645.749505 
L 546.734307 691.354996 
Q 548.109235 693.322119 550.076358 691.947191 
L 556.604747 687.384149 
Q 558.57187 686.00922 557.196942 684.042098 
L 525.320809 638.436606 
Q 523.945881 636.469483 521.978758 637.844411 
L 515.450369 642.407454 
Q 513.483246 643.782382 514.858174 645.749505 
L 514.858174 645.749505 
z
" clip-path="url(#p342b04182d)" style="fill: none"/>
    </g>
    <g clip-path="url(#p342b04182d)">
     <!-- ['http_status'] -->
     <g transform="translate(518.371333 643.293969)rotate(-304.951771)scale(0.08 -0.08)">
      <use xlink:href="#DejaVuSans-5b"/>
      <use xlink:href="#DejaVuSans-27" x="39.013672"/>
      <use xlink:href="#DejaVuSans-68" x="66.503906"/>
      <use xlink:href="#DejaVuSans-74" x="129.882812"/>
      <use xlink:href="#DejaVuSans-74" x="169.091797"/>
      <use xlink:href="#DejaVuSans-70" x="208.300781"/>
      <use xlink:href="#DejaVuSans-5f" x="271.777344"/>
      <use xlink:href="#DejaVuSans-73" x="321.777344"/>
      <use xlink:href="#DejaVuSans-74" x="373.876953"/>
      <use xlink:href="#DejaVuSans-61" x="413.085938"/>
      <use xlink:href="#DejaVuSans-74" x="474.365234"/>
      <use xlink:href="#DejaVuSans-75" x="513.574219"/>
      <use xlink:href="#DejaVuSans-73" x="576.953125"/>
      <use xlink:href="#DejaVuSans-27" x="629.052734"/>
      <use xlink:href="#DejaVuSans-5d" x="656.542969"/>
     </g>
    </g>
   </g>
   <g id="text_6">
    <g id="patch_8">
     <path d="M 567.962321 490.094794 
L 569.283372 395.592777 
Q 569.316919 393.193011 566.917153 393.159465 
L 558.952931 393.048132 
Q 556.553166 393.014586 556.519619 395.414351 
L 555.198568 489.916368 
Q 555.165022 492.316134 557.564787 492.34968 
L 565.529009 492.461013 
Q 567.928775 492.494559 567.962321 490.094794 
L 567.962321 490.094794 
z
" clip-path="url(#p342b04182d)" style="fill: none"/>
    </g>
    <g clip-path="url(#p342b04182d)">
     <!-- ['latency', 'http_status'] -->
     <g transform="translate(563.67649 490.034882)rotate(-89.19911)scale(0.08 -0.08)">
      <use xlink:href="#DejaVuSans-5b"/>
      <use xlink:href="#DejaVuSans-27" x="39.013672"/>
      <use xlink:href="#DejaVuSans-6c" x="66.503906"/>
      <use xlink:href="#DejaVuSans-61" x="94.287109"/>
      <use xlink:href="#DejaVuSans-74" x="155.566406"/>
      <use xlink:href="#DejaVuSans-65" x="194.775391"/>
      <use xlink:href="#DejaVuSans-6e" x="256.298828"/>
      <use xlink:href="#DejaVuSans-63" x="319.677734"/>
      <use xlink:href="#DejaVuSans-79" x="374.658203"/>
      <use xlink:href="#DejaVuSans-27" x="433.837891"/>
      <use xlink:href="#DejaVuSans-2c" x="461.328125"/>
      <use xlink:href="#DejaVuSans-20" x="493.115234"/>
      <use xlink:href="#DejaVuSans-27" x="524.902344"/>
      <use xlink:href="#DejaVuSans-68" x="552.392578"/>
      <use xlink:href="#DejaVuSans-74" x="615.771484"/>
      <use xlink:href="#DejaVuSans-74" x="654.980469"/>
      <use xlink:href="#DejaVuSans-70" x="694.189453"/>
      <use xlink:href="#DejaVuSans-5f" x="757.666016"/>
      <use xlink:href="#DejaVuSans-73" x="807.666016"/>
      <use xlink:href="#DejaVuSans-74" x="859.765625"/>
      <use xlink:href="#DejaVuSans-61" x="898.974609"/>
      <use xlink:href="#DejaVuSans-74" x="960.253906"/>
      <use xlink:href="#DejaVuSans-75" x="999.462891"/>
      <use xlink:href="#DejaVuSans-73" x="1062.841797"/>
      <use xlink:href="#DejaVuSans-27" x="1114.941406"/>
      <use xlink:href="#DejaVuSans-5d" x="1142.431641"/>
     </g>
    </g>
   </g>
   <g id="text_7">
    <g id="patch_9">
     <path d="M 516.962417 571.630768 
L 543.065072 522.492188 
Q 544.19097 520.372671 542.071452 519.246773 
L 535.037304 515.510199 
Q 532.917787 514.384301 531.791889 516.503818 
L 505.689234 565.642398 
Q 504.563336 567.761916 506.682853 568.887814 
L 513.717001 572.624388 
Q 515.836519 573.750286 516.962417 571.630768 
L 516.962417 571.630768 
z
" clip-path="url(#p342b04182d)" style="fill: none"/>
    </g>
    <g clip-path="url(#p342b04182d)">
     <!-- ['http_status'] -->
     <g transform="translate(513.177091 569.619985)rotate(-62.022541)scale(0.08 -0.08)">
      <use xlink:href="#DejaVuSans-5b"/>
      <use xlink:href="#DejaVuSans-27" x="39.013672"/>
      <use xlink:href="#DejaVuSans-68" x="66.503906"/>
      <use xlink:href="#DejaVuSans-74" x="129.882812"/>
      <use xlink:href="#DejaVuSans-74" x="169.091797"/>
      <use xlink:href="#DejaVuSans-70" x="208.300781"/>
      <use xlink:href="#DejaVuSans-5f" x="271.777344"/>
      <use xlink:href="#DejaVuSans-73" x="321.777344"/>
      <use xlink:href="#DejaVuSans-74" x="373.876953"/>
      <use xlink:href="#DejaVuSans-61" x="413.085938"/>
      <use xlink:href="#DejaVuSans-74" x="474.365234"/>
      <use xlink:href="#DejaVuSans-75" x="513.574219"/>
      <use xlink:href="#DejaVuSans-73" x="576.953125"/>
      <use xlink:href="#DejaVuSans-27" x="629.052734"/>
      <use xlink:href="#DejaVuSans-5d" x="656.542969"/>
     </g>
    </g>
   </g>
   <g id="text_8">
    <g id="patch_10">
     <path d="M 582.305417 763.002783 
L 587.724229 818.37954 
Q 587.957961 820.768131 590.346552 820.534399 
L 598.27369 819.7587 
Q 600.662282 819.524968 600.42855 817.136377 
L 595.009738 761.75962 
Q 594.776006 759.371029 592.387415 759.604761 
L 584.460277 760.380459 
Q 582.071685 760.614191 582.305417 763.002783 
L 582.305417 763.002783 
z
" clip-path="url(#p342b04182d)" style="fill: none"/>
    </g>
    <g clip-path="url(#p342b04182d)">
     <!-- ['http_status'] -->
     <g transform="translate(586.571293 762.585352)rotate(-275.588802)scale(0.08 -0.08)">
      <use xlink:href="#DejaVuSans-5b"/>
      <use xlink:href="#DejaVuSans-27" x="39.013672"/>
      <use xlink:href="#DejaVuSans-68" x="66.503906"/>
      <use xlink:href="#DejaVuSans-74" x="129.882812"/>
      <use xlink:href="#DejaVuSans-74" x="169.091797"/>
      <use xlink:href="#DejaVuSans-70" x="208.300781"/>
      <use xlink:href="#DejaVuSans-5f" x="271.777344"/>
      <use xlink:href="#DejaVuSans-73" x="321.777344"/>
      <use xlink:href="#DejaVuSans-74" x="373.876953"/>
      <use xlink:href="#DejaVuSans-61" x="413.085938"/>
      <use xlink:href="#DejaVuSans-74" x="474.365234"/>
      <use xlink:href="#DejaVuSans-75" x="513.574219"/>
      <use xlink:href="#DejaVuSans-73" x="576.953125"/>
      <use xlink:href="#DejaVuSans-27" x="629.052734"/>
      <use xlink:href="#DejaVuSans-5d" x="656.542969"/>
     </g>
    </g>
   </g>
   <g id="patch_11">
    <path d="M 225.082778 346.050661 
Q 223.416173 398.485422 221.785087 449.802714 
" clip-path="url(#p342b04182d)" style="fill: none; stroke: #808080; stroke-linecap: round"/>
    <path d="M 223.911151 445.86827 
L 221.785087 449.802714 
L 219.91317 445.741197 
L 223.911151 445.86827 
z
" clip-path="url(#p342b04182d)" style="fill: #808080; stroke: #808080; stroke-linecap: round"/>
   </g>
   <g id="patch_12">
    <path d="M 598.163053 834.785391 
Q 598.163053 887.216708 598.163053 938.529991 
" clip-path="url(#p342b04182d)" style="fill: none; stroke: #ff0000; stroke-linecap: round"/>
    <path d="M 600.163053 934.529991 
L 598.163053 938.529991 
L 596.163053 934.529991 
L 600.163053 934.529991 
z
" clip-path="url(#p342b04182d)" style="fill: #ff0000; stroke: #ff0000; stroke-linecap: round"/>
   </g>
   <g id="patch_13">
    <path d="M 590.810531 830.704336 
Q 500.103022 887.216073 410.344453 943.136612 
" clip-path="url(#p342b04182d)" style="fill: none; stroke: #808080; stroke-linecap: round"/>
    <path d="M 414.797046 942.718988 
L 410.344453 943.136612 
L 412.68191 939.323963 
L 414.797046 942.718988 
z
" clip-path="url(#p342b04182d)" style="fill: #808080; stroke: #808080; stroke-linecap: round"/>
   </g>
   <g id="patch_14">
    <path d="M 605.628994 830.514173 
Q 702.045498 887.214348 797.498263 943.347772 
" clip-path="url(#p342b04182d)" style="fill: none; stroke: #808080; stroke-linecap: round"/>
    <path d="M 795.064121 939.596112 
L 797.498263 943.347772 
L 793.03645 943.04409 
L 795.064121 939.596112 
z
" clip-path="url(#p342b04182d)" style="fill: #808080; stroke: #808080; stroke-linecap: round"/>
   </g>
   <g id="patch_15">
    <path d="M 606.366033 828.898716 
Q 778.743242 887.214175 950.06138 945.171349 
" clip-path="url(#p342b04182d)" style="fill: none; stroke: #808080; stroke-linecap: round"/>
    <path d="M 946.913252 941.994984 
L 950.06138 945.171349 
L 945.631412 945.784032 
L 946.913252 941.994984 
z
" clip-path="url(#p342b04182d)" style="fill: #808080; stroke: #808080; stroke-linecap: round"/>
   </g>
   <g id="patch_16">
    <path d="M 406.430342 219.929478 
Q 319.525989 276.306808 233.559589 332.075661 
" clip-path="url(#p342b04182d)" style="fill: none; stroke: #808080; stroke-linecap: round"/>
    <path d="M 238.003789 331.576569 
L 233.559589 332.075661 
L 235.826836 328.220846 
L 238.003789 331.576569 
z
" clip-path="url(#p342b04182d)" style="fill: #808080; stroke: #808080; stroke-linecap: round"/>
   </g>
   <g id="patch_17">
    <path d="M 415.40683 223.701983 
Q 450.591236 398.487193 485.555007 572.176356 
" clip-path="url(#p342b04182d)" style="fill: none; stroke: #ff0000; stroke-linecap: round"/>
    <path d="M 486.726308 567.860333 
L 485.555007 572.176356 
L 482.804969 568.649702 
L 486.726308 567.860333 
z
" clip-path="url(#p342b04182d)" style="fill: #ff0000; stroke: #ff0000; stroke-linecap: round"/>
   </g>
   <g id="patch_18">
    <path d="M 420.403323 220.69386 
Q 488.455058 276.305445 555.641064 331.20956 
" clip-path="url(#p342b04182d)" style="fill: none; stroke: #ff0000; stroke-linecap: round"/>
    <path d="M 553.809299 327.129776 
L 555.641064 331.20956 
L 551.278178 330.227102 
L 553.809299 327.129776 
z
" clip-path="url(#p342b04182d)" style="fill: #ff0000; stroke: #ff0000; stroke-linecap: round"/>
   </g>
   <g id="patch_19">
    <path d="M 421.992967 217.711838 
Q 616.609375 276.305408 810.155218 334.576662 
" clip-path="url(#p342b04182d)" style="fill: none; stroke: #ff0000; stroke-linecap: round"/>
    <path d="M 806.901624 331.508417 
L 810.155218 334.576662 
L 805.748466 335.33859 
L 806.901624 331.508417 
z
" clip-path="url(#p342b04182d)" style="fill: #ff0000; stroke: #ff0000; stroke-linecap: round"/>
   </g>
   <g id="patch_20">
    <path d="M 408.345386 222.019411 
Q 317.585946 337.396866 227.517749 451.895582 
" clip-path="url(#p342b04182d)" style="fill: none; stroke: #808080; stroke-linecap: round"/>
    <path d="M 231.562752 449.988242 
L 227.517749 451.895582 
L 228.418879 447.515175 
L 231.562752 449.988242 
z
" clip-path="url(#p342b04182d)" style="fill: #808080; stroke: #808080; stroke-linecap: round"/>
   </g>
   <g id="patch_21">
    <path d="M 485.518943 590.191507 
Q 444.766372 765.031342 404.267596 938.782329 
" clip-path="url(#p342b04182d)" style="fill: none; stroke: #808080; stroke-linecap: round"/>
    <path d="M 407.123387 935.340751 
L 404.267596 938.782329 
L 403.227808 934.432749 
L 407.123387 935.340751 
z
" clip-path="url(#p342b04182d)" style="fill: #808080; stroke: #808080; stroke-linecap: round"/>
   </g>
   <g id="patch_22">
    <path d="M 492.873629 588.542493 
Q 536.028832 642.852512 578.488485 696.287195 
" clip-path="url(#p342b04182d)" style="fill: none; stroke: #ff0000; stroke-linecap: round"/>
    <path d="M 577.565861 691.911265 
L 578.488485 696.287195 
L 574.434167 694.399736 
L 577.565861 691.911265 
z
" clip-path="url(#p342b04182d)" style="fill: #ff0000; stroke: #ff0000; stroke-linecap: round"/>
   </g>
   <g id="patch_23">
    <path d="M 563.074183 346.058118 
Q 562.240936 398.489435 561.425454 449.80286 
" clip-path="url(#p342b04182d)" style="fill: none; stroke: #ff0000; stroke-linecap: round"/>
    <path d="M 563.488762 445.835145 
L 561.425454 449.80286 
L 559.489267 445.771584 
L 563.488762 445.835145 
z
" clip-path="url(#p342b04182d)" style="fill: #ff0000; stroke: #ff0000; stroke-linecap: round"/>
   </g>
   <g id="patch_24">
    <path d="M 556.791339 466.994553 
Q 524.376589 520.670025 492.539807 573.388442 
" clip-path="url(#p342b04182d)" style="fill: none; stroke: #ff0000; stroke-linecap: round"/>
    <path d="M 496.319638 570.998279 
L 492.539807 573.388442 
L 492.895576 568.930479 
L 496.319638 570.998279 
z
" clip-path="url(#p342b04182d)" style="fill: #ff0000; stroke: #ff0000; stroke-linecap: round"/>
   </g>
   <g id="patch_25">
    <path d="M 585.528685 712.551371 
Q 591.367184 765.034526 597.082069 816.406502 
" clip-path="url(#p342b04182d)" style="fill: none; stroke: #ff0000; stroke-linecap: round"/>
    <path d="M 598.627555 812.209899 
L 597.082069 816.406502 
L 594.652078 812.652152 
L 598.627555 812.209899 
z
" clip-path="url(#p342b04182d)" style="fill: #ff0000; stroke: #ff0000; stroke-linecap: round"/>
   </g>
   <g id="text_9">
    <g id="patch_26">
     <path d="M 229.522498 398.563517 
L 229.8459 388.388655 
Q 229.922144 385.989866 227.523355 385.913622 
L 219.784763 385.667656 
Q 217.385974 385.591412 217.30973 387.990201 
L 216.986329 398.165063 
Q 216.910085 400.563851 219.308874 400.640095 
L 227.047466 400.886061 
Q 229.446254 400.962305 229.522498 398.563517 
L 229.522498 398.563517 
z
" clip-path="url(#p342b04182d)" style="fill: none"/>
    </g>
    <g clip-path="url(#p342b04182d)">
     <!-- 25 -->
     <g transform="translate(225.4608 398.434418)rotate(-88.179504)scale(0.08 -0.08)">
      <defs>
       <path id="DejaVuSans-32" d="M 1228 531 
L 3431 531 
L 3431 0 
L 469 0 
L 469 531 
Q 828 903 1448 1529 
Q 2069 2156 2228 2338 
Q 2531 2678 2651 2914 
Q 2772 3150 2772 3378 
Q 2772 3750 2511 3984 
Q 2250 4219 1831 4219 
Q 1534 4219 1204 4116 
Q 875 4013 500 3803 
L 500 4441 
Q 881 4594 1212 4672 
Q 1544 4750 1819 4750 
Q 2544 4750 2975 4387 
Q 3406 4025 3406 3419 
Q 3406 3131 3298 2873 
Q 3191 2616 2906 2266 
Q 2828 2175 2409 1742 
Q 1991 1309 1228 531 
z
" transform="scale(0.015625)"/>
       <path id="DejaVuSans-35" d="M 691 4666 
L 3169 4666 
L 3169 4134 
L 1269 4134 
L 1269 2991 
Q 1406 3038 1543 3061 
Q 1681 3084 1819 3084 
Q 2600 3084 3056 2656 
Q 3513 2228 3513 1497 
Q 3513 744 3044 326 
Q 2575 -91 1722 -91 
Q 1428 -91 1123 -41 
Q 819 9 494 109 
L 494 744 
Q 775 591 1075 516 
Q 1375 441 1709 441 
Q 2250 441 2565 725 
Q 2881 1009 2881 1497 
Q 2881 1984 2565 2268 
Q 2250 2553 1709 2553 
Q 1456 2553 1204 2497 
Q 953 2441 691 2322 
L 691 4666 
z
" transform="scale(0.015625)"/>
      </defs>
      <use xlink:href="#DejaVuSans-32"/>
      <use xlink:href="#DejaVuSans-35" x="63.623047"/>
     </g>
    </g>
   </g>
   <g id="text_10">
    <g id="patch_27">
     <path d="M 591.891803 877.034545 
L 591.891803 887.214545 
Q 591.891803 889.614545 594.291803 889.614545 
L 602.034303 889.614545 
Q 604.434303 889.614545 604.434303 887.214545 
L 604.434303 877.034545 
Q 604.434303 874.634545 602.034303 874.634545 
L 594.291803 874.634545 
Q 591.891803 874.634545 591.891803 877.034545 
L 591.891803 877.034545 
z
" clip-path="url(#p342b04182d)" style="fill: none"/>
    </g>
    <g clip-path="url(#p342b04182d)">
     <!-- 14 -->
     <g transform="translate(595.955553 877.034545)rotate(-270)scale(0.08 -0.08)">
      <defs>
       <path id="DejaVuSans-31" d="M 794 531 
L 1825 531 
L 1825 4091 
L 703 3866 
L 703 4441 
L 1819 4666 
L 2450 4666 
L 2450 531 
L 3481 531 
L 3481 0 
L 794 0 
L 794 531 
z
" transform="scale(0.015625)"/>
       <path id="DejaVuSans-34" d="M 2419 4116 
L 825 1625 
L 2419 1625 
L 2419 4116 
z
M 2253 4666 
L 3047 4666 
L 3047 1625 
L 3713 1625 
L 3713 1100 
L 3047 1100 
L 3047 0 
L 2419 0 
L 2419 1100 
L 313 1100 
L 313 1709 
L 2253 4666 
z
" transform="scale(0.015625)"/>
      </defs>
      <use xlink:href="#DejaVuSans-31"/>
      <use xlink:href="#DejaVuSans-34" x="63.623047"/>
     </g>
    </g>
   </g>
   <g id="text_11">
    <g id="patch_28">
     <path d="M 499.101443 889.251561 
L 507.741782 883.868538 
Q 509.778798 882.599456 508.509716 880.562441 
L 504.415604 873.990945 
Q 503.146522 871.95393 501.109507 873.223012 
L 492.469167 878.606034 
Q 490.432152 879.875116 491.701234 881.912132 
L 495.795346 888.483627 
Q 497.064428 890.520643 499.101443 889.251561 
L 499.101443 889.251561 
z
" clip-path="url(#p342b04182d)" style="fill: none"/>
    </g>
    <g clip-path="url(#p342b04182d)">
     <!-- 14 -->
     <g transform="translate(496.952596 885.802427)rotate(-31.923343)scale(0.08 -0.08)">
      <use xlink:href="#DejaVuSans-31"/>
      <use xlink:href="#DejaVuSans-34" x="63.623047"/>
     </g>
    </g>
   </g>
   <g id="text_12">
    <g id="patch_29">
     <path d="M 694.479275 884.12291 
L 703.254378 889.283332 
Q 705.323165 890.499935 706.539768 888.431148 
L 710.464578 881.757156 
Q 711.681181 879.688369 709.612394 878.471767 
L 700.837291 873.311344 
Q 698.768504 872.094742 697.551902 874.163528 
L 693.627091 880.83752 
Q 692.410488 882.906307 694.479275 884.12291 
L 694.479275 884.12291 
z
" clip-path="url(#p342b04182d)" style="fill: none"/>
    </g>
    <g clip-path="url(#p342b04182d)">
     <!-- 61 -->
     <g transform="translate(696.539262 880.61998)rotate(-329.541261)scale(0.08 -0.08)">
      <defs>
       <path id="DejaVuSans-36" d="M 2113 2584 
Q 1688 2584 1439 2293 
Q 1191 2003 1191 1497 
Q 1191 994 1439 701 
Q 1688 409 2113 409 
Q 2538 409 2786 701 
Q 3034 994 3034 1497 
Q 3034 2003 2786 2293 
Q 2538 2584 2113 2584 
z
M 3366 4563 
L 3366 3988 
Q 3128 4100 2886 4159 
Q 2644 4219 2406 4219 
Q 1781 4219 1451 3797 
Q 1122 3375 1075 2522 
Q 1259 2794 1537 2939 
Q 1816 3084 2150 3084 
Q 2853 3084 3261 2657 
Q 3669 2231 3669 1497 
Q 3669 778 3244 343 
Q 2819 -91 2113 -91 
Q 1303 -91 875 529 
Q 447 1150 447 2328 
Q 447 3434 972 4092 
Q 1497 4750 2381 4750 
Q 2619 4750 2861 4703 
Q 3103 4656 3366 4563 
z
" transform="scale(0.015625)"/>
      </defs>
      <use xlink:href="#DejaVuSans-36"/>
      <use xlink:href="#DejaVuSans-31" x="63.623047"/>
     </g>
    </g>
   </g>
   <g id="text_13">
    <g id="patch_30">
     <path d="M 771.913088 886.22569 
L 781.556215 889.487974 
Q 783.829644 890.257079 784.598748 887.98365 
L 787.07991 880.649474 
Q 787.849015 878.376045 785.575586 877.606941 
L 775.932458 874.344657 
Q 773.65903 873.575552 772.889925 875.848981 
L 770.408763 883.183157 
Q 769.639659 885.456586 771.913088 886.22569 
L 771.913088 886.22569 
z
" clip-path="url(#p342b04182d)" style="fill: none"/>
    </g>
    <g clip-path="url(#p342b04182d)">
     <!-- 16 -->
     <g transform="translate(773.215357 882.376254)rotate(-341.309247)scale(0.08 -0.08)">
      <use xlink:href="#DejaVuSans-31"/>
      <use xlink:href="#DejaVuSans-36" x="63.623047"/>
     </g>
    </g>
   </g>
   <g id="text_14">
    <g id="patch_31">
     <path d="M 318.670972 278.318888 
L 327.211287 272.778543 
Q 329.22472 271.472371 327.918549 269.458937 
L 323.704784 262.963516 
Q 322.398612 260.950083 320.385178 262.256254 
L 311.844864 267.7966 
Q 309.83143 269.102772 311.137602 271.116205 
L 315.351367 277.611626 
Q 316.657538 279.62506 318.670972 278.318888 
L 318.670972 278.318888 
z
" clip-path="url(#p342b04182d)" style="fill: none"/>
    </g>
    <g clip-path="url(#p342b04182d)">
     <!-- 40 -->
     <g transform="translate(316.459324 274.909684)rotate(-32.972624)scale(0.08 -0.08)">
      <defs>
       <path id="DejaVuSans-30" d="M 2034 4250 
Q 1547 4250 1301 3770 
Q 1056 3291 1056 2328 
Q 1056 1369 1301 889 
Q 1547 409 2034 409 
Q 2525 409 2770 889 
Q 3016 1369 3016 2328 
Q 3016 3291 2770 3770 
Q 2525 4250 2034 4250 
z
M 2034 4750 
Q 2819 4750 3233 4129 
Q 3647 3509 3647 2328 
Q 3647 1150 3233 529 
Q 2819 -91 2034 -91 
Q 1250 -91 836 529 
Q 422 1150 422 2328 
Q 422 3509 836 4129 
Q 1250 4750 2034 4750 
z
" transform="scale(0.015625)"/>
      </defs>
      <use xlink:href="#DejaVuSans-34"/>
      <use xlink:href="#DejaVuSans-30" x="63.623047"/>
     </g>
    </g>
   </g>
   <g id="text_15">
    <g id="patch_32">
     <path d="M 443.438857 388.981087 
L 445.4478 398.960894 
Q 445.921421 401.313697 448.274224 400.840076 
L 455.864466 399.312154 
Q 458.217269 398.838533 457.743648 396.48573 
L 455.734704 386.505923 
Q 455.261083 384.15312 452.90828 384.626741 
L 445.318039 386.154663 
Q 442.965235 386.628284 443.438857 388.981087 
L 443.438857 388.981087 
z
" clip-path="url(#p342b04182d)" style="fill: none"/>
    </g>
    <g clip-path="url(#p342b04182d)">
     <!-- 15 -->
     <g transform="translate(447.422692 388.179138)rotate(-281.381579)scale(0.08 -0.08)">
      <use xlink:href="#DejaVuSans-31"/>
      <use xlink:href="#DejaVuSans-35" x="63.623047"/>
     </g>
    </g>
   </g>
   <g id="text_16">
    <g id="patch_33">
     <path d="M 480.545399 271.722147 
L 488.428093 278.16385 
Q 490.286488 279.682523 491.805161 277.824127 
L 496.704462 271.828866 
Q 498.223135 269.970471 496.36474 268.451798 
L 488.482046 262.010095 
Q 486.623651 260.491422 485.104978 262.349818 
L 480.205677 268.345079 
Q 478.687004 270.203474 480.545399 271.722147 
L 480.545399 271.722147 
z
" clip-path="url(#p342b04182d)" style="fill: none"/>
    </g>
    <g clip-path="url(#p342b04182d)">
     <!-- 14 -->
     <g transform="translate(483.11686 268.575457)rotate(-320.744454)scale(0.08 -0.08)">
      <use xlink:href="#DejaVuSans-31"/>
      <use xlink:href="#DejaVuSans-34" x="63.623047"/>
     </g>
    </g>
   </g>
   <g id="text_17">
    <g id="patch_34">
     <path d="M 612.364645 277.136165 
L 617.23854 278.603558 
Q 619.536644 279.295453 620.228539 276.99735 
L 622.460621 269.583571 
Q 623.152516 267.285467 620.854412 266.593572 
L 615.980517 265.126178 
Q 613.682413 264.434283 612.990518 266.732387 
L 610.758436 274.146166 
Q 610.066541 276.44427 612.364645 277.136165 
L 612.364645 277.136165 
z
" clip-path="url(#p342b04182d)" style="fill: none"/>
    </g>
    <g clip-path="url(#p342b04182d)">
     <!-- 1 -->
     <g transform="translate(613.536182 273.244948)rotate(-343.244417)scale(0.08 -0.08)">
      <use xlink:href="#DejaVuSans-31"/>
     </g>
    </g>
   </g>
   <g id="text_18">
    <g id="patch_35">
     <path d="M 317.794878 338.880204 
L 327.235812 326.878468 
Q 328.719652 324.992144 326.833328 323.508303 
L 320.747968 318.721373 
Q 318.861644 317.237533 317.377804 319.123857 
L 307.93687 331.125593 
Q 306.45303 333.011917 308.339354 334.495757 
L 314.424714 339.282688 
Q 316.311038 340.766528 317.794878 338.880204 
L 317.794878 338.880204 
z
" clip-path="url(#p342b04182d)" style="fill: none"/>
    </g>
    <g clip-path="url(#p342b04182d)">
     <!-- 192 -->
     <g transform="translate(314.600899 336.367722)rotate(-51.810326)scale(0.08 -0.08)">
      <defs>
       <path id="DejaVuSans-39" d="M 703 97 
L 703 672 
Q 941 559 1184 500 
Q 1428 441 1663 441 
Q 2288 441 2617 861 
Q 2947 1281 2994 2138 
Q 2813 1869 2534 1725 
Q 2256 1581 1919 1581 
Q 1219 1581 811 2004 
Q 403 2428 403 3163 
Q 403 3881 828 4315 
Q 1253 4750 1959 4750 
Q 2769 4750 3195 4129 
Q 3622 3509 3622 2328 
Q 3622 1225 3098 567 
Q 2575 -91 1691 -91 
Q 1453 -91 1209 -44 
Q 966 3 703 97 
z
M 1959 2075 
Q 2384 2075 2632 2365 
Q 2881 2656 2881 3163 
Q 2881 3666 2632 3958 
Q 2384 4250 1959 4250 
Q 1534 4250 1286 3958 
Q 1038 3666 1038 3163 
Q 1038 2656 1286 2365 
Q 1534 2075 1959 2075 
z
" transform="scale(0.015625)"/>
      </defs>
      <use xlink:href="#DejaVuSans-31"/>
      <use xlink:href="#DejaVuSans-39" x="63.623047"/>
      <use xlink:href="#DejaVuSans-32" x="127.246094"/>
     </g>
    </g>
   </g>
   <g id="text_19">
    <g id="patch_36">
     <path d="M 449.718154 765.577528 
L 452.029018 755.663281 
Q 452.573819 753.325933 450.236472 752.781132 
L 442.696093 751.023582 
Q 440.358745 750.478781 439.813945 752.816128 
L 437.503081 762.730376 
Q 436.95828 765.067723 439.295627 765.612524 
L 446.836006 767.370074 
Q 449.173353 767.914875 449.718154 765.577528 
L 449.718154 765.577528 
z
" clip-path="url(#p342b04182d)" style="fill: none"/>
    </g>
    <g clip-path="url(#p342b04182d)">
     <!-- 25 -->
     <g transform="translate(445.76049 764.655055)rotate(-76.879464)scale(0.08 -0.08)">
      <use xlink:href="#DejaVuSans-32"/>
      <use xlink:href="#DejaVuSans-35" x="63.623047"/>
     </g>
    </g>
   </g>
   <g id="text_20">
    <g id="patch_37">
     <path d="M 527.951069 636.373829 
L 534.284228 644.343992 
Q 535.77731 646.223009 537.656327 644.729926 
L 543.718114 639.913179 
Q 545.59713 638.420096 544.104048 636.541079 
L 537.770889 628.570917 
Q 536.277806 626.6919 534.398789 628.184982 
L 528.337003 633.001729 
Q 526.457986 634.494812 527.951069 636.373829 
L 527.951069 636.373829 
z
" clip-path="url(#p342b04182d)" style="fill: none"/>
    </g>
    <g clip-path="url(#p342b04182d)">
     <!-- 33 -->
     <g transform="translate(531.132675 633.845698)rotate(-308.470952)scale(0.08 -0.08)">
      <defs>
       <path id="DejaVuSans-33" d="M 2597 2516 
Q 3050 2419 3304 2112 
Q 3559 1806 3559 1356 
Q 3559 666 3084 287 
Q 2609 -91 1734 -91 
Q 1441 -91 1130 -33 
Q 819 25 488 141 
L 488 750 
Q 750 597 1062 519 
Q 1375 441 1716 441 
Q 2309 441 2620 675 
Q 2931 909 2931 1356 
Q 2931 1769 2642 2001 
Q 2353 2234 1838 2234 
L 1294 2234 
L 1294 2753 
L 1863 2753 
Q 2328 2753 2575 2939 
Q 2822 3125 2822 3475 
Q 2822 3834 2567 4026 
Q 2313 4219 1838 4219 
Q 1578 4219 1281 4162 
Q 984 4106 628 3988 
L 628 4550 
Q 988 4650 1302 4700 
Q 1616 4750 1894 4750 
Q 2613 4750 3031 4423 
Q 3450 4097 3450 3541 
Q 3450 3153 3228 2886 
Q 3006 2619 2597 2516 
z
" transform="scale(0.015625)"/>
      </defs>
      <use xlink:href="#DejaVuSans-33"/>
      <use xlink:href="#DejaVuSans-33" x="63.623047"/>
     </g>
    </g>
   </g>
   <g id="text_21">
    <g id="patch_38">
     <path d="M 568.470988 398.525409 
L 568.551869 393.436052 
Q 568.590005 391.036355 566.190308 390.998218 
L 558.448786 390.875189 
Q 556.049089 390.837052 556.010952 393.236749 
L 555.930072 398.326107 
Q 555.891935 400.725804 558.291632 400.76394 
L 566.033155 400.88697 
Q 568.432852 400.925106 568.470988 398.525409 
L 568.470988 398.525409 
z
" clip-path="url(#p342b04182d)" style="fill: none"/>
    </g>
    <g clip-path="url(#p342b04182d)">
     <!-- 6 -->
     <g transform="translate(564.407751 398.460835)rotate(-89.089522)scale(0.08 -0.08)">
      <use xlink:href="#DejaVuSans-36"/>
     </g>
    </g>
   </g>
   <g id="text_22">
    <g id="patch_39">
     <path d="M 527.114166 521.909771 
L 532.376716 513.195532 
Q 533.617396 511.141094 531.562958 509.900414 
L 524.935257 505.897929 
Q 522.88082 504.65725 521.64014 506.711687 
L 516.37759 515.425926 
Q 515.13691 517.480364 517.191347 518.721044 
L 523.819048 522.723528 
Q 525.873486 523.964208 527.114166 521.909771 
L 527.114166 521.909771 
z
" clip-path="url(#p342b04182d)" style="fill: none"/>
    </g>
    <g clip-path="url(#p342b04182d)">
     <!-- 10 -->
     <g transform="translate(523.635532 519.809015)rotate(-58.872119)scale(0.08 -0.08)">
      <use xlink:href="#DejaVuSans-31"/>
      <use xlink:href="#DejaVuSans-30" x="63.623047"/>
     </g>
    </g>
   </g>
   <g id="text_23">
    <g id="patch_40">
     <path d="M 584.571416 755.180491 
L 585.696949 765.298079 
Q 585.9623 767.683365 588.347586 767.418013 
L 596.042617 766.561978 
Q 598.427903 766.296626 598.162552 763.91134 
L 597.037019 753.793753 
Q 596.771667 751.408467 594.386381 751.673819 
L 586.69135 752.529854 
Q 584.306064 752.795206 584.571416 755.180491 
L 584.571416 755.180491 
z
" clip-path="url(#p342b04182d)" style="fill: none"/>
    </g>
    <g clip-path="url(#p342b04182d)">
     <!-- 65 -->
     <g transform="translate(588.610251 754.73119)rotate(-276.34778)scale(0.08 -0.08)">
      <use xlink:href="#DejaVuSans-36"/>
      <use xlink:href="#DejaVuSans-35" x="63.623047"/>
     </g>
    </g>
   </g>
   <g id="matplotlib.axis_1">
    <g id="xtick_1"/>
    <g id="xtick_2"/>
    <g id="xtick_3"/>
    <g id="xtick_4"/>
   </g>
   <g id="matplotlib.axis_2">
    <g id="ytick_1"/>
    <g id="ytick_2"/>
    <g id="ytick_3"/>
    <g id="ytick_4"/>
    <g id="ytick_5"/>
   </g>
   <g id="PathCollection_1">
    <defs>
     <path id="C0_0_68b052b5ea" d="M 0 8.660254 
C 2.296726 8.660254 4.499694 7.747755 6.123724 6.123724 
C 7.747755 4.499694 8.660254 2.296726 8.660254 -0 
C 8.660254 -2.296726 7.747755 -4.499694 6.123724 -6.123724 
C 4.499694 -7.747755 2.296726 -8.660254 0 -8.660254 
C -2.296726 -8.660254 -4.499694 -7.747755 -6.123724 -6.123724 
C -7.747755 -4.499694 -8.660254 -2.296726 -8.660254 0 
C -8.660254 2.296726 -7.747755 4.499694 -6.123724 6.123724 
C -4.499694 7.747755 -2.296726 8.660254 0 8.660254 
z
"/>
    </defs>
    <g clip-path="url(#p342b04182d)">
     <use xlink:href="#C0_0_68b052b5ea" x="225.357849" y="337.396364" style="fill: #1f78b4; stroke: #1f78b4"/>
    </g>
    <g clip-path="url(#p342b04182d)">
     <use xlink:href="#C0_0_68b052b5ea" x="221.47438" y="459.578182" style="fill: #1f78b4; stroke: #1f78b4"/>
    </g>
    <g clip-path="url(#p342b04182d)">
     <use xlink:href="#C0_0_68b052b5ea" x="598.163053" y="826.123636" style="fill: #50a832; stroke: #50a832"/>
    </g>
    <g clip-path="url(#p342b04182d)">
     <use xlink:href="#C0_0_68b052b5ea" x="598.163053" y="948.305455" style="fill: #8ca832; stroke: #8ca832"/>
    </g>
    <g clip-path="url(#p342b04182d)">
     <use xlink:href="#C0_0_68b052b5ea" x="402.047896" y="948.305455" style="fill: #1f78b4; stroke: #1f78b4"/>
    </g>
    <g clip-path="url(#p342b04182d)">
     <use xlink:href="#C0_0_68b052b5ea" x="805.928616" y="948.305455" style="fill: #1f78b4; stroke: #1f78b4"/>
    </g>
    <g clip-path="url(#p342b04182d)">
     <use xlink:href="#C0_0_68b052b5ea" x="959.32562" y="948.305455" style="fill: #1f78b4; stroke: #1f78b4"/>
    </g>
    <g clip-path="url(#p342b04182d)">
     <use xlink:href="#C0_0_68b052b5ea" x="413.698302" y="215.214545" style="fill: #1f78b4; stroke: #1f78b4"/>
    </g>
    <g clip-path="url(#p342b04182d)">
     <use xlink:href="#C0_0_68b052b5ea" x="487.484202" y="581.76" style="fill: #a85832; stroke: #a85832"/>
    </g>
    <g clip-path="url(#p342b04182d)">
     <use xlink:href="#C0_0_68b052b5ea" x="563.211837" y="337.396364" style="fill: #32a871; stroke: #32a871"/>
    </g>
    <g clip-path="url(#p342b04182d)">
     <use xlink:href="#C0_0_68b052b5ea" x="819.520755" y="337.396364" style="fill: #1f78b4; stroke: #1f78b4"/>
    </g>
    <g clip-path="url(#p342b04182d)">
     <use xlink:href="#C0_0_68b052b5ea" x="561.270103" y="459.578182" style="fill: #1f78b4; stroke: #1f78b4"/>
    </g>
    <g clip-path="url(#p342b04182d)">
     <use xlink:href="#C0_0_68b052b5ea" x="584.570914" y="703.941818" style="fill: #a88e32; stroke: #a88e32"/>
    </g>
   </g>
   <g id="patch_41">
    <path d="M 144 1025.28 
L 144 138.24 
" style="fill: none; stroke: #000000; stroke-width: 0.8; stroke-linejoin: miter; stroke-linecap: square"/>
   </g>
   <g id="patch_42">
    <path d="M 1036.8 1025.28 
L 1036.8 138.24 
" style="fill: none; stroke: #000000; stroke-width: 0.8; stroke-linejoin: miter; stroke-linecap: square"/>
   </g>
   <g id="patch_43">
    <path d="M 144 1025.28 
L 1036.8 1025.28 
" style="fill: none; stroke: #000000; stroke-width: 0.8; stroke-linejoin: miter; stroke-linecap: square"/>
   </g>
   <g id="patch_44">
    <path d="M 144 138.24 
L 1036.8 138.24 
" style="fill: none; stroke: #000000; stroke-width: 0.8; stroke-linejoin: miter; stroke-linecap: square"/>
   </g>
   <g id="text_24">
    <g clip-path="url(#p342b04182d)">
     <!-- auth -->
     <g transform="translate(212.859958 340.431676)scale(0.11 -0.11)">
      <use xlink:href="#DejaVuSans-61"/>
      <use xlink:href="#DejaVuSans-75" x="61.279297"/>
      <use xlink:href="#DejaVuSans-74" x="124.658203"/>
      <use xlink:href="#DejaVuSans-68" x="163.867188"/>
     </g>
    </g>
   </g>
   <g id="text_25">
    <g clip-path="url(#p342b04182d)">
     <!-- verification-code -->
     <g transform="translate(175.402427 462.613494)scale(0.11 -0.11)">
      <defs>
       <path id="DejaVuSans-76" d="M 191 3500 
L 800 3500 
L 1894 563 
L 2988 3500 
L 3597 3500 
L 2284 0 
L 1503 0 
L 191 3500 
z
" transform="scale(0.015625)"/>
       <path id="DejaVuSans-72" d="M 2631 2963 
Q 2534 3019 2420 3045 
Q 2306 3072 2169 3072 
Q 1681 3072 1420 2755 
Q 1159 2438 1159 1844 
L 1159 0 
L 581 0 
L 581 3500 
L 1159 3500 
L 1159 2956 
Q 1341 3275 1631 3429 
Q 1922 3584 2338 3584 
Q 2397 3584 2469 3576 
Q 2541 3569 2628 3553 
L 2631 2963 
z
" transform="scale(0.015625)"/>
       <path id="DejaVuSans-69" d="M 603 3500 
L 1178 3500 
L 1178 0 
L 603 0 
L 603 3500 
z
M 603 4863 
L 1178 4863 
L 1178 4134 
L 603 4134 
L 603 4863 
z
" transform="scale(0.015625)"/>
       <path id="DejaVuSans-66" d="M 2375 4863 
L 2375 4384 
L 1825 4384 
Q 1516 4384 1395 4259 
Q 1275 4134 1275 3809 
L 1275 3500 
L 2222 3500 
L 2222 3053 
L 1275 3053 
L 1275 0 
L 697 0 
L 697 3053 
L 147 3053 
L 147 3500 
L 697 3500 
L 697 3744 
Q 697 4328 969 4595 
Q 1241 4863 1831 4863 
L 2375 4863 
z
" transform="scale(0.015625)"/>
       <path id="DejaVuSans-6f" d="M 1959 3097 
Q 1497 3097 1228 2736 
Q 959 2375 959 1747 
Q 959 1119 1226 758 
Q 1494 397 1959 397 
Q 2419 397 2687 759 
Q 2956 1122 2956 1747 
Q 2956 2369 2687 2733 
Q 2419 3097 1959 3097 
z
M 1959 3584 
Q 2709 3584 3137 3096 
Q 3566 2609 3566 1747 
Q 3566 888 3137 398 
Q 2709 -91 1959 -91 
Q 1206 -91 779 398 
Q 353 888 353 1747 
Q 353 2609 779 3096 
Q 1206 3584 1959 3584 
z
" transform="scale(0.015625)"/>
       <path id="DejaVuSans-2d" d="M 313 2009 
L 1997 2009 
L 1997 1497 
L 313 1497 
L 313 2009 
z
" transform="scale(0.015625)"/>
       <path id="DejaVuSans-64" d="M 2906 2969 
L 2906 4863 
L 3481 4863 
L 3481 0 
L 2906 0 
L 2906 525 
Q 2725 213 2448 61 
Q 2172 -91 1784 -91 
Q 1150 -91 751 415 
Q 353 922 353 1747 
Q 353 2572 751 3078 
Q 1150 3584 1784 3584 
Q 2172 3584 2448 3432 
Q 2725 3281 2906 2969 
z
M 947 1747 
Q 947 1113 1208 752 
Q 1469 391 1925 391 
Q 2381 391 2643 752 
Q 2906 1113 2906 1747 
Q 2906 2381 2643 2742 
Q 2381 3103 1925 3103 
Q 1469 3103 1208 2742 
Q 947 2381 947 1747 
z
" transform="scale(0.015625)"/>
      </defs>
      <use xlink:href="#DejaVuSans-76"/>
      <use xlink:href="#DejaVuSans-65" x="59.179688"/>
      <use xlink:href="#DejaVuSans-72" x="120.703125"/>
      <use xlink:href="#DejaVuSans-69" x="161.816406"/>
      <use xlink:href="#DejaVuSans-66" x="189.599609"/>
      <use xlink:href="#DejaVuSans-69" x="224.804688"/>
      <use xlink:href="#DejaVuSans-63" x="252.587891"/>
      <use xlink:href="#DejaVuSans-61" x="307.568359"/>
      <use xlink:href="#DejaVuSans-74" x="368.847656"/>
      <use xlink:href="#DejaVuSans-69" x="408.056641"/>
      <use xlink:href="#DejaVuSans-6f" x="435.839844"/>
      <use xlink:href="#DejaVuSans-6e" x="497.021484"/>
      <use xlink:href="#DejaVuSans-2d" x="560.400391"/>
      <use xlink:href="#DejaVuSans-63" x="596.484375"/>
      <use xlink:href="#DejaVuSans-6f" x="651.464844"/>
      <use xlink:href="#DejaVuSans-64" x="712.646484"/>
      <use xlink:href="#DejaVuSans-65" x="776.123047"/>
     </g>
    </g>
   </g>
   <g id="text_26">
    <g clip-path="url(#p342b04182d)">
     <!-- basic -->
     <g transform="translate(583.883678 829.158949)scale(0.11 -0.11)">
      <defs>
       <path id="DejaVuSans-62" d="M 3116 1747 
Q 3116 2381 2855 2742 
Q 2594 3103 2138 3103 
Q 1681 3103 1420 2742 
Q 1159 2381 1159 1747 
Q 1159 1113 1420 752 
Q 1681 391 2138 391 
Q 2594 391 2855 752 
Q 3116 1113 3116 1747 
z
M 1159 2969 
Q 1341 3281 1617 3432 
Q 1894 3584 2278 3584 
Q 2916 3584 3314 3078 
Q 3713 2572 3713 1747 
Q 3713 922 3314 415 
Q 2916 -91 2278 -91 
Q 1894 -91 1617 61 
Q 1341 213 1159 525 
L 1159 0 
L 581 0 
L 581 4863 
L 1159 4863 
L 1159 2969 
z
" transform="scale(0.015625)"/>
      </defs>
      <use xlink:href="#DejaVuSans-62"/>
      <use xlink:href="#DejaVuSans-61" x="63.476562"/>
      <use xlink:href="#DejaVuSans-73" x="124.755859"/>
      <use xlink:href="#DejaVuSans-69" x="176.855469"/>
      <use xlink:href="#DejaVuSans-63" x="204.638672"/>
     </g>
    </g>
   </g>
   <g id="text_27">
    <g clip-path="url(#p342b04182d)">
     <!-- price*(RC)* -->
     <g transform="translate(567.295163 951.340767)scale(0.11 -0.11)">
      <defs>
       <path id="DejaVuSans-2a" d="M 3009 3897 
L 1888 3291 
L 3009 2681 
L 2828 2375 
L 1778 3009 
L 1778 1831 
L 1422 1831 
L 1422 3009 
L 372 2375 
L 191 2681 
L 1313 3291 
L 191 3897 
L 372 4206 
L 1422 3572 
L 1422 4750 
L 1778 4750 
L 1778 3572 
L 2828 4206 
L 3009 3897 
z
" transform="scale(0.015625)"/>
       <path id="DejaVuSans-28" d="M 1984 4856 
Q 1566 4138 1362 3434 
Q 1159 2731 1159 2009 
Q 1159 1288 1364 580 
Q 1569 -128 1984 -844 
L 1484 -844 
Q 1016 -109 783 600 
Q 550 1309 550 2009 
Q 550 2706 781 3412 
Q 1013 4119 1484 4856 
L 1984 4856 
z
" transform="scale(0.015625)"/>
       <path id="DejaVuSans-52" d="M 2841 2188 
Q 3044 2119 3236 1894 
Q 3428 1669 3622 1275 
L 4263 0 
L 3584 0 
L 2988 1197 
Q 2756 1666 2539 1819 
Q 2322 1972 1947 1972 
L 1259 1972 
L 1259 0 
L 628 0 
L 628 4666 
L 2053 4666 
Q 2853 4666 3247 4331 
Q 3641 3997 3641 3322 
Q 3641 2881 3436 2590 
Q 3231 2300 2841 2188 
z
M 1259 4147 
L 1259 2491 
L 2053 2491 
Q 2509 2491 2742 2702 
Q 2975 2913 2975 3322 
Q 2975 3731 2742 3939 
Q 2509 4147 2053 4147 
L 1259 4147 
z
" transform="scale(0.015625)"/>
       <path id="DejaVuSans-43" d="M 4122 4306 
L 4122 3641 
Q 3803 3938 3442 4084 
Q 3081 4231 2675 4231 
Q 1875 4231 1450 3742 
Q 1025 3253 1025 2328 
Q 1025 1406 1450 917 
Q 1875 428 2675 428 
Q 3081 428 3442 575 
Q 3803 722 4122 1019 
L 4122 359 
Q 3791 134 3420 21 
Q 3050 -91 2638 -91 
Q 1578 -91 968 557 
Q 359 1206 359 2328 
Q 359 3453 968 4101 
Q 1578 4750 2638 4750 
Q 3056 4750 3426 4639 
Q 3797 4528 4122 4306 
z
" transform="scale(0.015625)"/>
       <path id="DejaVuSans-29" d="M 513 4856 
L 1013 4856 
Q 1481 4119 1714 3412 
Q 1947 2706 1947 2009 
Q 1947 1309 1714 600 
Q 1481 -109 1013 -844 
L 513 -844 
Q 928 -128 1133 580 
Q 1338 1288 1338 2009 
Q 1338 2731 1133 3434 
Q 928 4138 513 4856 
z
" transform="scale(0.015625)"/>
      </defs>
      <use xlink:href="#DejaVuSans-70"/>
      <use xlink:href="#DejaVuSans-72" x="63.476562"/>
      <use xlink:href="#DejaVuSans-69" x="104.589844"/>
      <use xlink:href="#DejaVuSans-63" x="132.373047"/>
      <use xlink:href="#DejaVuSans-65" x="187.353516"/>
      <use xlink:href="#DejaVuSans-2a" x="248.876953"/>
      <use xlink:href="#DejaVuSans-28" x="298.876953"/>
      <use xlink:href="#DejaVuSans-52" x="337.890625"/>
      <use xlink:href="#DejaVuSans-43" x="402.373047"/>
      <use xlink:href="#DejaVuSans-29" x="472.197266"/>
      <use xlink:href="#DejaVuSans-2a" x="511.210938"/>
     </g>
    </g>
   </g>
   <g id="text_28">
    <g clip-path="url(#p342b04182d)">
     <!-- route -->
     <g transform="translate(387.519303 951.340767)scale(0.11 -0.11)">
      <use xlink:href="#DejaVuSans-72"/>
      <use xlink:href="#DejaVuSans-6f" x="38.863281"/>
      <use xlink:href="#DejaVuSans-75" x="100.044922"/>
      <use xlink:href="#DejaVuSans-74" x="163.423828"/>
      <use xlink:href="#DejaVuSans-65" x="202.632812"/>
     </g>
    </g>
   </g>
   <g id="text_29">
    <g clip-path="url(#p342b04182d)">
     <!-- station -->
     <g transform="translate(787.001741 951.340767)scale(0.11 -0.11)">
      <use xlink:href="#DejaVuSans-73"/>
      <use xlink:href="#DejaVuSans-74" x="52.099609"/>
      <use xlink:href="#DejaVuSans-61" x="91.308594"/>
      <use xlink:href="#DejaVuSans-74" x="152.587891"/>
      <use xlink:href="#DejaVuSans-69" x="191.796875"/>
      <use xlink:href="#DejaVuSans-6f" x="219.580078"/>
      <use xlink:href="#DejaVuSans-6e" x="280.761719"/>
     </g>
    </g>
   </g>
   <g id="text_30">
    <g clip-path="url(#p342b04182d)">
     <!-- train -->
     <g transform="translate(946.52437 951.340767)scale(0.11 -0.11)">
      <use xlink:href="#DejaVuSans-74"/>
      <use xlink:href="#DejaVuSans-72" x="39.208984"/>
      <use xlink:href="#DejaVuSans-61" x="80.322266"/>
      <use xlink:href="#DejaVuSans-69" x="141.601562"/>
      <use xlink:href="#DejaVuSans-6e" x="169.384766"/>
     </g>
    </g>
   </g>
   <g id="text_31">
    <g clip-path="url(#p342b04182d)">
     <!-- gateway -->
     <g transform="translate(390.172052 218.249858)scale(0.11 -0.11)">
      <defs>
       <path id="DejaVuSans-67" d="M 2906 1791 
Q 2906 2416 2648 2759 
Q 2391 3103 1925 3103 
Q 1463 3103 1205 2759 
Q 947 2416 947 1791 
Q 947 1169 1205 825 
Q 1463 481 1925 481 
Q 2391 481 2648 825 
Q 2906 1169 2906 1791 
z
M 3481 434 
Q 3481 -459 3084 -895 
Q 2688 -1331 1869 -1331 
Q 1566 -1331 1297 -1286 
Q 1028 -1241 775 -1147 
L 775 -588 
Q 1028 -725 1275 -790 
Q 1522 -856 1778 -856 
Q 2344 -856 2625 -561 
Q 2906 -266 2906 331 
L 2906 616 
Q 2728 306 2450 153 
Q 2172 0 1784 0 
Q 1141 0 747 490 
Q 353 981 353 1791 
Q 353 2603 747 3093 
Q 1141 3584 1784 3584 
Q 2172 3584 2450 3431 
Q 2728 3278 2906 2969 
L 2906 3500 
L 3481 3500 
L 3481 434 
z
" transform="scale(0.015625)"/>
       <path id="DejaVuSans-77" d="M 269 3500 
L 844 3500 
L 1563 769 
L 2278 3500 
L 2956 3500 
L 3675 769 
L 4391 3500 
L 4966 3500 
L 4050 0 
L 3372 0 
L 2619 2869 
L 1863 0 
L 1184 0 
L 269 3500 
z
" transform="scale(0.015625)"/>
      </defs>
      <use xlink:href="#DejaVuSans-67"/>
      <use xlink:href="#DejaVuSans-61" x="63.476562"/>
      <use xlink:href="#DejaVuSans-74" x="124.755859"/>
      <use xlink:href="#DejaVuSans-65" x="163.964844"/>
      <use xlink:href="#DejaVuSans-77" x="225.488281"/>
      <use xlink:href="#DejaVuSans-61" x="307.275391"/>
      <use xlink:href="#DejaVuSans-79" x="368.554688"/>
     </g>
    </g>
   </g>
   <g id="text_32">
    <g clip-path="url(#p342b04182d)">
     <!-- travel -->
     <g transform="translate(471.529046 584.795313)scale(0.11 -0.11)">
      <use xlink:href="#DejaVuSans-74"/>
      <use xlink:href="#DejaVuSans-72" x="39.208984"/>
      <use xlink:href="#DejaVuSans-61" x="80.322266"/>
      <use xlink:href="#DejaVuSans-76" x="141.601562"/>
      <use xlink:href="#DejaVuSans-65" x="200.78125"/>
      <use xlink:href="#DejaVuSans-6c" x="262.304688"/>
     </g>
    </g>
   </g>
   <g id="text_33">
    <g clip-path="url(#p342b04182d)">
     <!-- travel-plan -->
     <g transform="translate(533.396681 340.431676)scale(0.11 -0.11)">
      <use xlink:href="#DejaVuSans-74"/>
      <use xlink:href="#DejaVuSans-72" x="39.208984"/>
      <use xlink:href="#DejaVuSans-61" x="80.322266"/>
      <use xlink:href="#DejaVuSans-76" x="141.601562"/>
      <use xlink:href="#DejaVuSans-65" x="200.78125"/>
      <use xlink:href="#DejaVuSans-6c" x="262.304688"/>
      <use xlink:href="#DejaVuSans-2d" x="290.087891"/>
      <use xlink:href="#DejaVuSans-70" x="326.171875"/>
      <use xlink:href="#DejaVuSans-6c" x="389.648438"/>
      <use xlink:href="#DejaVuSans-61" x="417.431641"/>
      <use xlink:href="#DejaVuSans-6e" x="478.710938"/>
     </g>
    </g>
   </g>
   <g id="text_34">
    <g clip-path="url(#p342b04182d)">
     <!-- ts-ui-dashboard -->
     <g transform="translate(776.420521 340.431676)scale(0.11 -0.11)">
      <use xlink:href="#DejaVuSans-74"/>
      <use xlink:href="#DejaVuSans-73" x="39.208984"/>
      <use xlink:href="#DejaVuSans-2d" x="91.308594"/>
      <use xlink:href="#DejaVuSans-75" x="127.392578"/>
      <use xlink:href="#DejaVuSans-69" x="190.771484"/>
      <use xlink:href="#DejaVuSans-2d" x="218.554688"/>
      <use xlink:href="#DejaVuSans-64" x="254.638672"/>
      <use xlink:href="#DejaVuSans-61" x="318.115234"/>
      <use xlink:href="#DejaVuSans-73" x="379.394531"/>
      <use xlink:href="#DejaVuSans-68" x="431.494141"/>
      <use xlink:href="#DejaVuSans-62" x="494.873047"/>
      <use xlink:href="#DejaVuSans-6f" x="558.349609"/>
      <use xlink:href="#DejaVuSans-61" x="619.53125"/>
      <use xlink:href="#DejaVuSans-72" x="680.810547"/>
      <use xlink:href="#DejaVuSans-64" x="720.173828"/>
     </g>
    </g>
   </g>
   <g id="text_35">
    <g clip-path="url(#p342b04182d)">
     <!-- route-plan -->
     <g transform="translate(532.881509 462.613494)scale(0.11 -0.11)">
      <use xlink:href="#DejaVuSans-72"/>
      <use xlink:href="#DejaVuSans-6f" x="38.863281"/>
      <use xlink:href="#DejaVuSans-75" x="100.044922"/>
      <use xlink:href="#DejaVuSans-74" x="163.423828"/>
      <use xlink:href="#DejaVuSans-65" x="202.632812"/>
      <use xlink:href="#DejaVuSans-2d" x="264.15625"/>
      <use xlink:href="#DejaVuSans-70" x="300.240234"/>
      <use xlink:href="#DejaVuSans-6c" x="363.716797"/>
      <use xlink:href="#DejaVuSans-61" x="391.5"/>
      <use xlink:href="#DejaVuSans-6e" x="452.779297"/>
     </g>
    </g>
   </g>
   <g id="text_36">
    <g clip-path="url(#p342b04182d)">
     <!-- ticketinfo -->
     <g transform="translate(559.021695 706.977131)scale(0.11 -0.11)">
      <defs>
       <path id="DejaVuSans-6b" d="M 581 4863 
L 1159 4863 
L 1159 1991 
L 2875 3500 
L 3609 3500 
L 1753 1863 
L 3688 0 
L 2938 0 
L 1159 1709 
L 1159 0 
L 581 0 
L 581 4863 
z
" transform="scale(0.015625)"/>
      </defs>
      <use xlink:href="#DejaVuSans-74"/>
      <use xlink:href="#DejaVuSans-69" x="39.208984"/>
      <use xlink:href="#DejaVuSans-63" x="66.992188"/>
      <use xlink:href="#DejaVuSans-6b" x="121.972656"/>
      <use xlink:href="#DejaVuSans-65" x="176.257812"/>
      <use xlink:href="#DejaVuSans-74" x="237.78125"/>
      <use xlink:href="#DejaVuSans-69" x="276.990234"/>
      <use xlink:href="#DejaVuSans-6e" x="304.773438"/>
      <use xlink:href="#DejaVuSans-66" x="368.152344"/>
      <use xlink:href="#DejaVuSans-6f" x="403.357422"/>
     </g>
    </g>
   </g>
  </g>
 </g>
 <defs>
  <clipPath id="p342b04182d">
   <rect x="144" y="138.24" width="892.8" height="887.04"/>
  </clipPath>
 </defs>
</svg>
