<?xml version="1.0" encoding="utf-8" standalone="no"?>
<!DOCTYPE svg PUBLIC "-//W3C//DTD SVG 1.1//EN"
  "http://www.w3.org/Graphics/SVG/1.1/DTD/svg11.dtd">
<svg xmlns:xlink="http://www.w3.org/1999/xlink" width="1152pt" height="1152pt" viewBox="0 0 1152 1152" xmlns="http://www.w3.org/2000/svg" version="1.1">
 <metadata>
  <rdf:RDF xmlns:dc="http://purl.org/dc/elements/1.1/" xmlns:cc="http://creativecommons.org/ns#" xmlns:rdf="http://www.w3.org/1999/02/22-rdf-syntax-ns#">
   <cc:Work>
    <dc:type rdf:resource="http://purl.org/dc/dcmitype/StillImage"/>
    <dc:date>2022-11-17T01:45:34.756701</dc:date>
    <dc:format>image/svg+xml</dc:format>
    <dc:creator>
     <cc:Agent>
      <dc:title>Matplotlib v3.5.3, https://matplotlib.org/</dc:title>
     </cc:Agent>
    </dc:creator>
   </cc:Work>
  </rdf:RDF>
 </metadata>
 <defs>
  <style type="text/css">*{stroke-linejoin: round; stroke-linecap: butt}</style>
 </defs>
 <g id="figure_1">
  <g id="patch_1">
   <path d="M 0 1152 
L 1152 1152 
L 1152 0 
L 0 0 
z
" style="fill: #ffffff"/>
  </g>
  <g id="axes_1">
   <g id="patch_2">
    <path d="M 144 1025.28 
L 1036.8 1025.28 
L 1036.8 138.24 
L 144 138.24 
z
" style="fill: #ffffff"/>
   </g>
   <g id="text_1">
    <g id="patch_3">
     <path d="M 433.361396 340.076708 
L 481.886723 312.850961 
Q 483.979789 311.67662 482.805448 309.583555 
L 478.908104 302.637193 
Q 477.733763 300.544128 475.640698 301.718469 
L 427.11537 328.944216 
Q 425.022305 330.118557 426.196646 332.211622 
L 430.093989 339.157984 
Q 431.26833 341.251049 433.361396 340.076708 
L 433.361396 340.076708 
z
" clip-path="url(#p0402e15110)" style="fill: none"/>
    </g>
    <g clip-path="url(#p0402e15110)">
     <!-- ['http_status'] -->
     <g transform="translate(431.264096 336.338624)rotate(-29.295154)scale(0.08 -0.08)">
      <defs>
       <path id="DejaVuSans-5b" d="M 550 4863 
L 1875 4863 
L 1875 4416 
L 1125 4416 
L 1125 -397 
L 1875 -397 
L 1875 -844 
L 550 -844 
L 550 4863 
z
" transform="scale(0.015625)"/>
       <path id="DejaVuSans-27" d="M 1147 4666 
L 1147 2931 
L 616 2931 
L 616 4666 
L 1147 4666 
z
" transform="scale(0.015625)"/>
       <path id="DejaVuSans-68" d="M 3513 2113 
L 3513 0 
L 2938 0 
L 2938 2094 
Q 2938 2591 2744 2837 
Q 2550 3084 2163 3084 
Q 1697 3084 1428 2787 
Q 1159 2491 1159 1978 
L 1159 0 
L 581 0 
L 581 4863 
L 1159 4863 
L 1159 2956 
Q 1366 3272 1645 3428 
Q 1925 3584 2291 3584 
Q 2894 3584 3203 3211 
Q 3513 2838 3513 2113 
z
" transform="scale(0.015625)"/>
       <path id="DejaVuSans-74" d="M 1172 4494 
L 1172 3500 
L 2356 3500 
L 2356 3053 
L 1172 3053 
L 1172 1153 
Q 1172 725 1289 603 
Q 1406 481 1766 481 
L 2356 481 
L 2356 0 
L 1766 0 
Q 1100 0 847 248 
Q 594 497 594 1153 
L 594 3053 
L 172 3053 
L 172 3500 
L 594 3500 
L 594 4494 
L 1172 4494 
z
" transform="scale(0.015625)"/>
       <path id="DejaVuSans-70" d="M 1159 525 
L 1159 -1331 
L 581 -1331 
L 581 3500 
L 1159 3500 
L 1159 2969 
Q 1341 3281 1617 3432 
Q 1894 3584 2278 3584 
Q 2916 3584 3314 3078 
Q 3713 2572 3713 1747 
Q 3713 922 3314 415 
Q 2916 -91 2278 -91 
Q 1894 -91 1617 61 
Q 1341 213 1159 525 
z
M 3116 1747 
Q 3116 2381 2855 2742 
Q 2594 3103 2138 3103 
Q 1681 3103 1420 2742 
Q 1159 2381 1159 1747 
Q 1159 1113 1420 752 
Q 1681 391 2138 391 
Q 2594 391 2855 752 
Q 3116 1113 3116 1747 
z
" transform="scale(0.015625)"/>
       <path id="DejaVuSans-5f" d="M 3263 -1063 
L 3263 -1509 
L -63 -1509 
L -63 -1063 
L 3263 -1063 
z
" transform="scale(0.015625)"/>
       <path id="DejaVuSans-73" d="M 2834 3397 
L 2834 2853 
Q 2591 2978 2328 3040 
Q 2066 3103 1784 3103 
Q 1356 3103 1142 2972 
Q 928 2841 928 2578 
Q 928 2378 1081 2264 
Q 1234 2150 1697 2047 
L 1894 2003 
Q 2506 1872 2764 1633 
Q 3022 1394 3022 966 
Q 3022 478 2636 193 
Q 2250 -91 1575 -91 
Q 1294 -91 989 -36 
Q 684 19 347 128 
L 347 722 
Q 666 556 975 473 
Q 1284 391 1588 391 
Q 1994 391 2212 530 
Q 2431 669 2431 922 
Q 2431 1156 2273 1281 
Q 2116 1406 1581 1522 
L 1381 1569 
Q 847 1681 609 1914 
Q 372 2147 372 2553 
Q 372 3047 722 3315 
Q 1072 3584 1716 3584 
Q 2034 3584 2315 3537 
Q 2597 3491 2834 3397 
z
" transform="scale(0.015625)"/>
       <path id="DejaVuSans-61" d="M 2194 1759 
Q 1497 1759 1228 1600 
Q 959 1441 959 1056 
Q 959 750 1161 570 
Q 1363 391 1709 391 
Q 2188 391 2477 730 
Q 2766 1069 2766 1631 
L 2766 1759 
L 2194 1759 
z
M 3341 1997 
L 3341 0 
L 2766 0 
L 2766 531 
Q 2569 213 2275 61 
Q 1981 -91 1556 -91 
Q 1019 -91 701 211 
Q 384 513 384 1019 
Q 384 1609 779 1909 
Q 1175 2209 1959 2209 
L 2766 2209 
L 2766 2266 
Q 2766 2663 2505 2880 
Q 2244 3097 1772 3097 
Q 1472 3097 1187 3025 
Q 903 2953 641 2809 
L 641 3341 
Q 956 3463 1253 3523 
Q 1550 3584 1831 3584 
Q 2591 3584 2966 3190 
Q 3341 2797 3341 1997 
z
" transform="scale(0.015625)"/>
       <path id="DejaVuSans-75" d="M 544 1381 
L 544 3500 
L 1119 3500 
L 1119 1403 
Q 1119 906 1312 657 
Q 1506 409 1894 409 
Q 2359 409 2629 706 
Q 2900 1003 2900 1516 
L 2900 3500 
L 3475 3500 
L 3475 0 
L 2900 0 
L 2900 538 
Q 2691 219 2414 64 
Q 2138 -91 1772 -91 
Q 1169 -91 856 284 
Q 544 659 544 1381 
z
M 1991 3584 
L 1991 3584 
z
" transform="scale(0.015625)"/>
       <path id="DejaVuSans-5d" d="M 1947 4863 
L 1947 -844 
L 622 -844 
L 622 -397 
L 1369 -397 
L 1369 4416 
L 622 4416 
L 622 4863 
L 1947 4863 
z
" transform="scale(0.015625)"/>
      </defs>
      <use xlink:href="#DejaVuSans-5b"/>
      <use xlink:href="#DejaVuSans-27" x="39.013672"/>
      <use xlink:href="#DejaVuSans-68" x="66.503906"/>
      <use xlink:href="#DejaVuSans-74" x="129.882812"/>
      <use xlink:href="#DejaVuSans-74" x="169.091797"/>
      <use xlink:href="#DejaVuSans-70" x="208.300781"/>
      <use xlink:href="#DejaVuSans-5f" x="271.777344"/>
      <use xlink:href="#DejaVuSans-73" x="321.777344"/>
      <use xlink:href="#DejaVuSans-74" x="373.876953"/>
      <use xlink:href="#DejaVuSans-61" x="413.085938"/>
      <use xlink:href="#DejaVuSans-74" x="474.365234"/>
      <use xlink:href="#DejaVuSans-75" x="513.574219"/>
      <use xlink:href="#DejaVuSans-73" x="576.953125"/>
      <use xlink:href="#DejaVuSans-27" x="629.052734"/>
      <use xlink:href="#DejaVuSans-5d" x="656.542969"/>
     </g>
    </g>
   </g>
   <g id="text_2">
    <g id="patch_4">
     <path d="M 331.908197 293.343562 
L 466.273706 268.181251 
Q 468.632698 267.739488 468.190935 265.380496 
L 466.724834 257.551589 
Q 466.283071 255.192597 463.924079 255.63436 
L 329.55857 280.79667 
Q 327.199578 281.238433 327.641341 283.597426 
L 329.107442 291.426332 
Q 329.549205 293.785325 331.908197 293.343562 
L 331.908197 293.343562 
z
" clip-path="url(#p0402e15110)" style="fill: none"/>
    </g>
    <g clip-path="url(#p0402e15110)">
     <!-- ['latency', 'cpu_use', 'http_status'] -->
     <g transform="translate(331.119236 289.130548)rotate(-10.606793)scale(0.08 -0.08)">
      <defs>
       <path id="DejaVuSans-6c" d="M 603 4863 
L 1178 4863 
L 1178 0 
L 603 0 
L 603 4863 
z
" transform="scale(0.015625)"/>
       <path id="DejaVuSans-65" d="M 3597 1894 
L 3597 1613 
L 953 1613 
Q 991 1019 1311 708 
Q 1631 397 2203 397 
Q 2534 397 2845 478 
Q 3156 559 3463 722 
L 3463 178 
Q 3153 47 2828 -22 
Q 2503 -91 2169 -91 
Q 1331 -91 842 396 
Q 353 884 353 1716 
Q 353 2575 817 3079 
Q 1281 3584 2069 3584 
Q 2775 3584 3186 3129 
Q 3597 2675 3597 1894 
z
M 3022 2063 
Q 3016 2534 2758 2815 
Q 2500 3097 2075 3097 
Q 1594 3097 1305 2825 
Q 1016 2553 972 2059 
L 3022 2063 
z
" transform="scale(0.015625)"/>
       <path id="DejaVuSans-6e" d="M 3513 2113 
L 3513 0 
L 2938 0 
L 2938 2094 
Q 2938 2591 2744 2837 
Q 2550 3084 2163 3084 
Q 1697 3084 1428 2787 
Q 1159 2491 1159 1978 
L 1159 0 
L 581 0 
L 581 3500 
L 1159 3500 
L 1159 2956 
Q 1366 3272 1645 3428 
Q 1925 3584 2291 3584 
Q 2894 3584 3203 3211 
Q 3513 2838 3513 2113 
z
" transform="scale(0.015625)"/>
       <path id="DejaVuSans-63" d="M 3122 3366 
L 3122 2828 
Q 2878 2963 2633 3030 
Q 2388 3097 2138 3097 
Q 1578 3097 1268 2742 
Q 959 2388 959 1747 
Q 959 1106 1268 751 
Q 1578 397 2138 397 
Q 2388 397 2633 464 
Q 2878 531 3122 666 
L 3122 134 
Q 2881 22 2623 -34 
Q 2366 -91 2075 -91 
Q 1284 -91 818 406 
Q 353 903 353 1747 
Q 353 2603 823 3093 
Q 1294 3584 2113 3584 
Q 2378 3584 2631 3529 
Q 2884 3475 3122 3366 
z
" transform="scale(0.015625)"/>
       <path id="DejaVuSans-79" d="M 2059 -325 
Q 1816 -950 1584 -1140 
Q 1353 -1331 966 -1331 
L 506 -1331 
L 506 -850 
L 844 -850 
Q 1081 -850 1212 -737 
Q 1344 -625 1503 -206 
L 1606 56 
L 191 3500 
L 800 3500 
L 1894 763 
L 2988 3500 
L 3597 3500 
L 2059 -325 
z
" transform="scale(0.015625)"/>
       <path id="DejaVuSans-2c" d="M 750 794 
L 1409 794 
L 1409 256 
L 897 -744 
L 494 -744 
L 750 256 
L 750 794 
z
" transform="scale(0.015625)"/>
       <path id="DejaVuSans-20" transform="scale(0.015625)"/>
      </defs>
      <use xlink:href="#DejaVuSans-5b"/>
      <use xlink:href="#DejaVuSans-27" x="39.013672"/>
      <use xlink:href="#DejaVuSans-6c" x="66.503906"/>
      <use xlink:href="#DejaVuSans-61" x="94.287109"/>
      <use xlink:href="#DejaVuSans-74" x="155.566406"/>
      <use xlink:href="#DejaVuSans-65" x="194.775391"/>
      <use xlink:href="#DejaVuSans-6e" x="256.298828"/>
      <use xlink:href="#DejaVuSans-63" x="319.677734"/>
      <use xlink:href="#DejaVuSans-79" x="374.658203"/>
      <use xlink:href="#DejaVuSans-27" x="433.837891"/>
      <use xlink:href="#DejaVuSans-2c" x="461.328125"/>
      <use xlink:href="#DejaVuSans-20" x="493.115234"/>
      <use xlink:href="#DejaVuSans-27" x="524.902344"/>
      <use xlink:href="#DejaVuSans-63" x="552.392578"/>
      <use xlink:href="#DejaVuSans-70" x="607.373047"/>
      <use xlink:href="#DejaVuSans-75" x="670.849609"/>
      <use xlink:href="#DejaVuSans-5f" x="734.228516"/>
      <use xlink:href="#DejaVuSans-75" x="784.228516"/>
      <use xlink:href="#DejaVuSans-73" x="847.607422"/>
      <use xlink:href="#DejaVuSans-65" x="899.707031"/>
      <use xlink:href="#DejaVuSans-27" x="961.230469"/>
      <use xlink:href="#DejaVuSans-2c" x="988.720703"/>
      <use xlink:href="#DejaVuSans-20" x="1020.507812"/>
      <use xlink:href="#DejaVuSans-27" x="1052.294922"/>
      <use xlink:href="#DejaVuSans-68" x="1079.785156"/>
      <use xlink:href="#DejaVuSans-74" x="1143.164062"/>
      <use xlink:href="#DejaVuSans-74" x="1182.373047"/>
      <use xlink:href="#DejaVuSans-70" x="1221.582031"/>
      <use xlink:href="#DejaVuSans-5f" x="1285.058594"/>
      <use xlink:href="#DejaVuSans-73" x="1335.058594"/>
      <use xlink:href="#DejaVuSans-74" x="1387.158203"/>
      <use xlink:href="#DejaVuSans-61" x="1426.367188"/>
      <use xlink:href="#DejaVuSans-74" x="1487.646484"/>
      <use xlink:href="#DejaVuSans-75" x="1526.855469"/>
      <use xlink:href="#DejaVuSans-73" x="1590.234375"/>
      <use xlink:href="#DejaVuSans-27" x="1642.333984"/>
      <use xlink:href="#DejaVuSans-5d" x="1669.824219"/>
     </g>
    </g>
   </g>
   <g id="patch_5">
    <path d="M 227.124243 315.489359 
Q 224.593374 352.668463 222.138437 388.732114 
" clip-path="url(#p0402e15110)" style="fill: none; stroke: #808080; stroke-linecap: round"/>
    <path d="M 224.40548 384.87718 
L 222.138437 388.732114 
L 220.414715 384.605519 
L 224.40548 384.87718 
z
" clip-path="url(#p0402e15110)" style="fill: #808080; stroke: #808080; stroke-linecap: round"/>
   </g>
   <g id="patch_6">
    <path d="M 805.160304 865.329913 
Q 805.160304 902.486334 805.160304 938.524721 
" clip-path="url(#p0402e15110)" style="fill: none; stroke: #808080; stroke-linecap: round"/>
    <path d="M 807.160304 934.524721 
L 805.160304 938.524721 
L 803.160304 934.524721 
L 807.160304 934.524721 
z
" clip-path="url(#p0402e15110)" style="fill: #808080; stroke: #808080; stroke-linecap: round"/>
   </g>
   <g id="patch_7">
    <path d="M 800.055105 863.66878 
Q 771.742021 902.488571 744.087757 940.405059 
" clip-path="url(#p0402e15110)" style="fill: none; stroke: #808080; stroke-linecap: round"/>
    <path d="M 748.060702 938.35184 
L 744.087757 940.405059 
L 744.828949 935.994771 
L 748.060702 938.35184 
z
" clip-path="url(#p0402e15110)" style="fill: #808080; stroke: #808080; stroke-linecap: round"/>
   </g>
   <g id="patch_8">
    <path d="M 797.216548 860.115802 
Q 699.560993 902.487501 602.931087 944.414182 
" clip-path="url(#p0402e15110)" style="fill: none; stroke: #808080; stroke-linecap: round"/>
    <path d="M 607.396639 944.656774 
L 602.931087 944.414182 
L 605.804492 940.987296 
L 607.396639 944.656774 
z
" clip-path="url(#p0402e15110)" style="fill: #808080; stroke: #808080; stroke-linecap: round"/>
   </g>
   <g id="patch_9">
    <path d="M 810.217559 863.696745 
Q 838.130899 902.485635 865.391191 940.367039 
" clip-path="url(#p0402e15110)" style="fill: none; stroke: #808080; stroke-linecap: round"/>
    <path d="M 864.67814 935.952114 
L 865.391191 940.367039 
L 861.431421 938.288525 
L 864.67814 935.952114 
z
" clip-path="url(#p0402e15110)" style="fill: #808080; stroke: #808080; stroke-linecap: round"/>
   </g>
   <g id="patch_10">
    <path d="M 561.375948 220.653777 
Q 454.49854 306.852931 348.491394 392.350198 
" clip-path="url(#p0402e15110)" style="fill: none; stroke: #ff0000; stroke-linecap: round"/>
    <path d="M 352.860509 391.395824 
L 348.491394 392.350198 
L 350.349363 388.282281 
L 352.860509 391.395824 
z
" clip-path="url(#p0402e15110)" style="fill: #ff0000; stroke: #ff0000; stroke-linecap: round"/>
   </g>
   <g id="patch_11">
    <path d="M 559.759913 217.465045 
Q 397.917347 261.032402 237.154381 304.309135 
" clip-path="url(#p0402e15110)" style="fill: none; stroke: #ff0000; stroke-linecap: round"/>
    <path d="M 241.536762 305.200615 
L 237.154381 304.309135 
L 240.496994 301.338118 
L 241.536762 305.200615 
z
" clip-path="url(#p0402e15110)" style="fill: #ff0000; stroke: #ff0000; stroke-linecap: round"/>
   </g>
   <g id="patch_12">
    <path d="M 575.966595 218.882181 
Q 666.146134 261.03364 755.312821 302.711674 
" clip-path="url(#p0402e15110)" style="fill: none; stroke: #808080; stroke-linecap: round"/>
    <path d="M 752.536018 299.206054 
L 755.312821 302.711674 
L 750.842244 302.829744 
L 752.536018 299.206054 
z
" clip-path="url(#p0402e15110)" style="fill: #808080; stroke: #808080; stroke-linecap: round"/>
   </g>
   <g id="patch_13">
    <path d="M 576.357008 217.89501 
Q 708.917881 261.032567 840.415597 303.824155 
" clip-path="url(#p0402e15110)" style="fill: none; stroke: #808080; stroke-linecap: round"/>
    <path d="M 837.230817 300.684541 
L 840.415597 303.824155 
L 835.993038 304.488211 
L 837.230817 300.684541 
z
" clip-path="url(#p0402e15110)" style="fill: #808080; stroke: #808080; stroke-linecap: round"/>
   </g>
   <g id="patch_14">
    <path d="M 562.70171 221.968141 
Q 494.601422 306.851444 427.200777 390.862681 
" clip-path="url(#p0402e15110)" style="fill: none; stroke: #808080; stroke-linecap: round"/>
    <path d="M 431.263895 388.99424 
L 427.200777 390.862681 
L 428.143894 386.491122 
L 431.263895 388.99424 
z
" clip-path="url(#p0402e15110)" style="fill: #808080; stroke: #808080; stroke-linecap: round"/>
   </g>
   <g id="patch_15">
    <path d="M 568.607581 223.859288 
Q 581.04132 444.304694 593.4121 663.633841 
" clip-path="url(#p0402e15110)" style="fill: none; stroke: #808080; stroke-linecap: round"/>
    <path d="M 595.183673 659.527562 
L 593.4121 663.633841 
L 591.190021 659.752815 
L 595.183673 659.527562 
z
" clip-path="url(#p0402e15110)" style="fill: #808080; stroke: #808080; stroke-linecap: round"/>
   </g>
   <g id="patch_16">
    <path d="M 562.310549 221.638152 
Q 526.681137 261.034229 491.801659 299.601091 
" clip-path="url(#p0402e15110)" style="fill: none; stroke: #808080; stroke-linecap: round"/>
    <path d="M 495.968051 297.975922 
L 491.801659 299.601091 
L 493.001359 295.292876 
L 495.968051 297.975922 
z
" clip-path="url(#p0402e15110)" style="fill: #808080; stroke: #808080; stroke-linecap: round"/>
   </g>
   <g id="patch_17">
    <path d="M 573.368477 222.104471 
Q 672.827997 352.669548 771.610021 482.345244 
" clip-path="url(#p0402e15110)" style="fill: none; stroke: #808080; stroke-linecap: round"/>
    <path d="M 770.777109 477.951355 
L 771.610021 482.345244 
L 767.595163 480.375241 
L 770.777109 477.951355 
z
" clip-path="url(#p0402e15110)" style="fill: #808080; stroke: #808080; stroke-linecap: round"/>
   </g>
   <g id="patch_18">
    <path d="M 574.578149 220.989359 
Q 619.361208 261.033888 663.310836 300.333172 
" clip-path="url(#p0402e15110)" style="fill: none; stroke: #808080; stroke-linecap: round"/>
    <path d="M 661.662196 296.176011 
L 663.310836 300.333172 
L 658.995923 299.157788 
L 661.662196 296.176011 
z
" clip-path="url(#p0402e15110)" style="fill: #808080; stroke: #808080; stroke-linecap: round"/>
   </g>
   <g id="patch_19">
    <path d="M 576.551663 217.189588 
Q 763.72314 261.032805 949.806048 304.621036 
" clip-path="url(#p0402e15110)" style="fill: none; stroke: #808080; stroke-linecap: round"/>
    <path d="M 946.367602 301.761475 
L 949.806048 304.621036 
L 945.455332 305.656056 
L 946.367602 301.761475 
z
" clip-path="url(#p0402e15110)" style="fill: #808080; stroke: #808080; stroke-linecap: round"/>
   </g>
   <g id="patch_20">
    <path d="M 560.463598 219.262508 
Q 394.79798 306.85049 230.120757 393.915904 
" clip-path="url(#p0402e15110)" style="fill: none; stroke: #808080; stroke-linecap: round"/>
    <path d="M 234.591741 393.814403 
L 230.120757 393.915904 
L 232.722147 390.278216 
L 234.591741 393.814403 
z
" clip-path="url(#p0402e15110)" style="fill: #808080; stroke: #808080; stroke-linecap: round"/>
   </g>
   <g id="patch_21">
    <path d="M 593.962734 682.058584 
Q 593.962734 810.853314 593.962734 938.53001 
" clip-path="url(#p0402e15110)" style="fill: none; stroke: #808080; stroke-linecap: round"/>
    <path d="M 595.962734 934.53001 
L 593.962734 938.53001 
L 591.962734 934.53001 
L 595.962734 934.53001 
z
" clip-path="url(#p0402e15110)" style="fill: #808080; stroke: #808080; stroke-linecap: round"/>
   </g>
   <g id="patch_22">
    <path d="M 477.933894 311.491734 
Q 413.065584 352.667799 349.141199 393.244695 
" clip-path="url(#p0402e15110)" style="fill: none; stroke: #808080; stroke-linecap: round"/>
    <path d="M 353.590117 392.789585 
L 349.141199 393.244695 
L 351.446462 389.412494 
L 353.590117 392.789585 
z
" clip-path="url(#p0402e15110)" style="fill: #808080; stroke: #808080; stroke-linecap: round"/>
   </g>
   <g id="patch_23">
    <path d="M 480.277431 313.94568 
Q 453.163535 352.67026 426.690895 390.478985 
" clip-path="url(#p0402e15110)" style="fill: none; stroke: #808080; stroke-linecap: round"/>
    <path d="M 430.623455 388.349438 
L 426.690895 390.478985 
L 427.346793 386.055209 
L 430.623455 388.349438 
z
" clip-path="url(#p0402e15110)" style="fill: #808080; stroke: #808080; stroke-linecap: round"/>
   </g>
   <g id="patch_24">
    <path d="M 487.707635 315.153777 
Q 539.604194 490.124745 591.182832 664.023834 
" clip-path="url(#p0402e15110)" style="fill: none; stroke: #808080; stroke-linecap: round"/>
    <path d="M 591.962842 659.620246 
L 591.182832 664.023834 
L 588.127968 660.757674 
L 591.962842 659.620246 
z
" clip-path="url(#p0402e15110)" style="fill: #808080; stroke: #808080; stroke-linecap: round"/>
   </g>
   <g id="patch_25">
    <path d="M 485.244997 315.511731 
Q 485.244997 352.668152 485.244997 388.70654 
" clip-path="url(#p0402e15110)" style="fill: none; stroke: #808080; stroke-linecap: round"/>
    <path d="M 487.244997 384.70654 
L 485.244997 388.70654 
L 483.244997 384.70654 
L 487.244997 384.70654 
z
" clip-path="url(#p0402e15110)" style="fill: #808080; stroke: #808080; stroke-linecap: round"/>
   </g>
   <g id="patch_26">
    <path d="M 771.409311 496.239625 
Q 685.749694 581.759327 600.881293 666.489105 
" clip-path="url(#p0402e15110)" style="fill: none; stroke: #808080; stroke-linecap: round"/>
    <path d="M 605.125088 665.07836 
L 600.881293 666.489105 
L 602.298974 662.247622 
L 605.125088 665.07836 
z
" clip-path="url(#p0402e15110)" style="fill: #808080; stroke: #808080; stroke-linecap: round"/>
   </g>
   <g id="patch_27">
    <path d="M 776.796714 498.754396 
Q 757.930262 719.216949 739.15914 938.565539 
" clip-path="url(#p0402e15110)" style="fill: none; stroke: #808080; stroke-linecap: round"/>
    <path d="M 741.492916 934.750636 
L 739.15914 938.565539 
L 737.507483 934.409576 
L 741.492916 934.750636 
z
" clip-path="url(#p0402e15110)" style="fill: #808080; stroke: #808080; stroke-linecap: round"/>
   </g>
   <g id="patch_28">
    <path d="M 777.535306 498.784458 
Q 777.535306 535.94088 777.535306 571.979267 
" clip-path="url(#p0402e15110)" style="fill: none; stroke: #808080; stroke-linecap: round"/>
    <path d="M 779.535306 567.979267 
L 777.535306 571.979267 
L 775.535306 567.979267 
L 779.535306 567.979267 
z
" clip-path="url(#p0402e15110)" style="fill: #808080; stroke: #808080; stroke-linecap: round"/>
   </g>
   <g id="patch_29">
    <path d="M 780.831936 498.131471 
Q 834.121389 627.576707 886.98523 755.988089 
" clip-path="url(#p0402e15110)" style="fill: none; stroke: #808080; stroke-linecap: round"/>
    <path d="M 887.311927 751.527902 
L 886.98523 755.988089 
L 883.613098 753.050619 
L 887.311927 751.527902 
z
" clip-path="url(#p0402e15110)" style="fill: #808080; stroke: #808080; stroke-linecap: round"/>
   </g>
   <g id="patch_30">
    <path d="M 779.267871 498.607579 
Q 824.319503 719.214181 869.147431 938.725358 
" clip-path="url(#p0402e15110)" style="fill: none; stroke: #808080; stroke-linecap: round"/>
    <path d="M 870.306637 934.406071 
L 869.147431 938.725358 
L 866.387525 935.206421 
L 870.306637 934.406071 
z
" clip-path="url(#p0402e15110)" style="fill: #808080; stroke: #808080; stroke-linecap: round"/>
   </g>
   <g id="patch_31">
    <path d="M 677.175602 312.485897 
Q 724.067608 352.669126 770.11065 392.124853 
" clip-path="url(#p0402e15110)" style="fill: none; stroke: #808080; stroke-linecap: round"/>
    <path d="M 768.374704 388.003386 
L 770.11065 392.124853 
L 765.771909 391.040729 
L 768.374704 388.003386 
z
" clip-path="url(#p0402e15110)" style="fill: #808080; stroke: #808080; stroke-linecap: round"/>
   </g>
   <g id="patch_32">
    <path d="M 673.740861 314.92586 
Q 724.067768 444.305973 773.989361 572.644106 
" clip-path="url(#p0402e15110)" style="fill: none; stroke: #808080; stroke-linecap: round"/>
    <path d="M 774.403214 568.19116 
L 773.989361 572.644106 
L 770.675316 569.641256 
L 774.403214 568.19116 
z
" clip-path="url(#p0402e15110)" style="fill: #808080; stroke: #808080; stroke-linecap: round"/>
   </g>
   <g id="patch_33">
    <path d="M 669.572518 315.449509 
Q 632.281317 627.577874 595.122748 938.5961 
" clip-path="url(#p0402e15110)" style="fill: none; stroke: #808080; stroke-linecap: round"/>
    <path d="M 597.583147 934.861606 
L 595.122748 938.5961 
L 593.611393 934.387085 
L 597.583147 934.861606 
z
" clip-path="url(#p0402e15110)" style="fill: #808080; stroke: #808080; stroke-linecap: round"/>
   </g>
   <g id="patch_34">
    <path d="M 674.349698 314.656695 
Q 780.654836 535.943024 886.475842 756.221575 
" clip-path="url(#p0402e15110)" style="fill: none; stroke: #808080; stroke-linecap: round"/>
    <path d="M 886.546524 751.749997 
L 886.475842 756.221575 
L 882.940989 753.482083 
L 886.546524 751.749997 
z
" clip-path="url(#p0402e15110)" style="fill: #808080; stroke: #808080; stroke-linecap: round"/>
   </g>
   <g id="patch_35">
    <path d="M 777.535306 407.148095 
Q 777.535306 444.304516 777.535306 480.342903 
" clip-path="url(#p0402e15110)" style="fill: none; stroke: #808080; stroke-linecap: round"/>
    <path d="M 779.535306 476.342903 
L 777.535306 480.342903 
L 775.535306 476.342903 
L 779.535306 476.342903 
z
" clip-path="url(#p0402e15110)" style="fill: #808080; stroke: #808080; stroke-linecap: round"/>
   </g>
   <g id="patch_36">
    <path d="M 779.554787 406.906196 
Q 810.506788 535.940608 841.198 663.887827 
" clip-path="url(#p0402e15110)" style="fill: none; stroke: #808080; stroke-linecap: round"/>
    <path d="M 842.209802 659.531653 
L 841.198 663.887827 
L 838.320142 660.464681 
L 842.209802 659.531653 
z
" clip-path="url(#p0402e15110)" style="fill: #808080; stroke: #808080; stroke-linecap: round"/>
   </g>
   <g id="patch_37">
    <path d="M 836.41642 678.404931 
Q 778.872837 719.213951 722.241231 759.376212 
" clip-path="url(#p0402e15110)" style="fill: none; stroke: #808080; stroke-linecap: round"/>
    <path d="M 726.660978 758.693687 
L 722.241231 759.376212 
L 724.347059 755.4309 
L 726.660978 758.693687 
z
" clip-path="url(#p0402e15110)" style="fill: #808080; stroke: #808080; stroke-linecap: round"/>
   </g>
   <g id="patch_38">
    <path d="M 840.38375 681.488094 
Q 790.901851 810.851928 741.81938 939.171512 
" clip-path="url(#p0402e15110)" style="fill: none; stroke: #808080; stroke-linecap: round"/>
    <path d="M 745.116426 936.150008 
L 741.81938 939.171512 
L 741.380404 934.720973 
L 745.116426 936.150008 
z
" clip-path="url(#p0402e15110)" style="fill: #808080; stroke: #808080; stroke-linecap: round"/>
   </g>
   <g id="patch_39">
    <path d="M 838.421596 666.368709 
Q 810.508257 627.57982 783.247964 589.698416 
" clip-path="url(#p0402e15110)" style="fill: none; stroke: #808080; stroke-linecap: round"/>
    <path d="M 783.961015 594.11334 
L 783.247964 589.698416 
L 787.207735 591.776929 
L 783.961015 594.11334 
z
" clip-path="url(#p0402e15110)" style="fill: #808080; stroke: #808080; stroke-linecap: round"/>
   </g>
   <g id="patch_40">
    <path d="M 847.446861 681.095183 
Q 867.094104 719.215195 886.229138 756.341407 
" clip-path="url(#p0402e15110)" style="fill: none; stroke: #808080; stroke-linecap: round"/>
    <path d="M 886.174365 751.869606 
L 886.229138 756.341407 
L 882.618834 753.702144 
L 886.174365 751.869606 
z
" clip-path="url(#p0402e15110)" style="fill: #808080; stroke: #808080; stroke-linecap: round"/>
   </g>
   <g id="patch_41">
    <path d="M 844.345083 682.016636 
Q 857.291457 810.851974 870.126046 938.574881 
" clip-path="url(#p0402e15110)" style="fill: none; stroke: #808080; stroke-linecap: round"/>
    <path d="M 871.716087 934.394956 
L 870.126046 938.574881 
L 867.736131 934.794893 
L 871.716087 934.394956 
z
" clip-path="url(#p0402e15110)" style="fill: #808080; stroke: #808080; stroke-linecap: round"/>
   </g>
   <g id="patch_42">
    <path d="M 776.531807 590.359299 
Q 772.188762 627.576213 767.975307 663.682629 
" clip-path="url(#p0402e15110)" style="fill: none; stroke: #808080; stroke-linecap: round"/>
    <path d="M 770.425462 659.941408 
L 767.975307 663.682629 
L 766.452423 659.477772 
L 770.425462 659.941408 
z
" clip-path="url(#p0402e15110)" style="fill: #808080; stroke: #808080; stroke-linecap: round"/>
   </g>
   <g id="patch_43">
    <path d="M 769.784675 585.628985 
Q 685.749052 627.578166 602.713756 669.027999 
" clip-path="url(#p0402e15110)" style="fill: none; stroke: #808080; stroke-linecap: round"/>
    <path d="M 607.185891 669.030922 
L 602.713756 669.027999 
L 605.399375 665.452045 
L 607.185891 669.030922 
z
" clip-path="url(#p0402e15110)" style="fill: #808080; stroke: #808080; stroke-linecap: round"/>
   </g>
   <g id="patch_44">
    <path d="M 774.709504 589.945414 
Q 745.900762 673.394812 717.456864 755.787381 
" clip-path="url(#p0402e15110)" style="fill: none; stroke: #808080; stroke-linecap: round"/>
    <path d="M 720.652681 752.659002 
L 717.456864 755.787381 
L 716.871651 751.3537 
L 720.652681 752.659002 
z
" clip-path="url(#p0402e15110)" style="fill: #808080; stroke: #808080; stroke-linecap: round"/>
   </g>
   <g id="patch_45">
    <path d="M 777.535306 573.099178 
Q 777.535306 535.942757 777.535306 499.90437 
" clip-path="url(#p0402e15110)" style="fill: none; stroke: #808080; stroke-linecap: round"/>
    <path d="M 775.535306 503.90437 
L 777.535306 499.90437 
L 779.535306 503.90437 
L 775.535306 503.90437 
z
" clip-path="url(#p0402e15110)" style="fill: #808080; stroke: #808080; stroke-linecap: round"/>
   </g>
   <g id="patch_46">
    <path d="M 782.592561 588.787654 
Q 810.5059 627.576544 837.766192 665.457948 
" clip-path="url(#p0402e15110)" style="fill: none; stroke: #808080; stroke-linecap: round"/>
    <path d="M 837.053141 661.043024 
L 837.766192 665.457948 
L 833.806422 663.379434 
L 837.053141 661.043024 
z
" clip-path="url(#p0402e15110)" style="fill: #808080; stroke: #808080; stroke-linecap: round"/>
   </g>
   <g id="patch_47">
    <path d="M 696.92509 587.316685 
Q 648.766748 627.578532 601.466164 667.123266 
" clip-path="url(#p0402e15110)" style="fill: none; stroke: #808080; stroke-linecap: round"/>
    <path d="M 605.817785 666.092052 
L 601.466164 667.123266 
L 603.252165 663.023242 
L 605.817785 666.092052 
z
" clip-path="url(#p0402e15110)" style="fill: #808080; stroke: #808080; stroke-linecap: round"/>
   </g>
   <g id="patch_48">
    <path d="M 704.07596 590.404043 
Q 708.918296 673.395036 713.695508 755.269892 
" clip-path="url(#p0402e15110)" style="fill: none; stroke: #808080; stroke-linecap: round"/>
    <path d="M 715.459118 751.160187 
L 713.695508 755.269892 
L 711.465909 751.393181 
L 715.459118 751.160187 
z
" clip-path="url(#p0402e15110)" style="fill: #808080; stroke: #808080; stroke-linecap: round"/>
   </g>
   <g id="patch_49">
    <path d="M 884.800607 771.361252 
Q 847.934642 810.850752 811.831633 849.523002 
" clip-path="url(#p0402e15110)" style="fill: none; stroke: #808080; stroke-linecap: round"/>
    <path d="M 816.023209 847.963934 
L 811.831633 849.523002 
L 813.099324 845.234301 
L 816.023209 847.963934 
z
" clip-path="url(#p0402e15110)" style="fill: #808080; stroke: #808080; stroke-linecap: round"/>
   </g>
   <g id="text_3">
    <g id="patch_50">
     <path d="M 230.504414 352.832087 
L 231.19579 342.675592 
Q 231.358787 340.281133 228.964328 340.118137 
L 221.239705 339.592304 
Q 218.845246 339.429307 218.68225 341.823766 
L 217.990873 351.980261 
Q 217.827877 354.37472 220.222335 354.537716 
L 227.946959 355.06355 
Q 230.341417 355.226546 230.504414 352.832087 
L 230.504414 352.832087 
z
" clip-path="url(#p0402e15110)" style="fill: none"/>
    </g>
    <g clip-path="url(#p0402e15110)">
     <!-- 48 -->
     <g transform="translate(226.450046 352.556097)rotate(-86.105749)scale(0.08 -0.08)">
      <defs>
       <path id="DejaVuSans-34" d="M 2419 4116 
L 825 1625 
L 2419 1625 
L 2419 4116 
z
M 2253 4666 
L 3047 4666 
L 3047 1625 
L 3713 1625 
L 3713 1100 
L 3047 1100 
L 3047 0 
L 2419 0 
L 2419 1100 
L 313 1100 
L 313 1709 
L 2253 4666 
z
" transform="scale(0.015625)"/>
       <path id="DejaVuSans-38" d="M 2034 2216 
Q 1584 2216 1326 1975 
Q 1069 1734 1069 1313 
Q 1069 891 1326 650 
Q 1584 409 2034 409 
Q 2484 409 2743 651 
Q 3003 894 3003 1313 
Q 3003 1734 2745 1975 
Q 2488 2216 2034 2216 
z
M 1403 2484 
Q 997 2584 770 2862 
Q 544 3141 544 3541 
Q 544 4100 942 4425 
Q 1341 4750 2034 4750 
Q 2731 4750 3128 4425 
Q 3525 4100 3525 3541 
Q 3525 3141 3298 2862 
Q 3072 2584 2669 2484 
Q 3125 2378 3379 2068 
Q 3634 1759 3634 1313 
Q 3634 634 3220 271 
Q 2806 -91 2034 -91 
Q 1263 -91 848 271 
Q 434 634 434 1313 
Q 434 1759 690 2068 
Q 947 2378 1403 2484 
z
M 1172 3481 
Q 1172 3119 1398 2916 
Q 1625 2713 2034 2713 
Q 2441 2713 2670 2916 
Q 2900 3119 2900 3481 
Q 2900 3844 2670 4047 
Q 2441 4250 2034 4250 
Q 1625 4250 1398 4047 
Q 1172 3844 1172 3481 
z
" transform="scale(0.015625)"/>
      </defs>
      <use xlink:href="#DejaVuSans-34"/>
      <use xlink:href="#DejaVuSans-38" x="63.623047"/>
     </g>
    </g>
   </g>
   <g id="text_4">
    <g id="patch_51">
     <path d="M 798.889054 892.307273 
L 798.889054 902.487273 
Q 798.889054 904.887273 801.289054 904.887273 
L 809.031554 904.887273 
Q 811.431554 904.887273 811.431554 902.487273 
L 811.431554 892.307273 
Q 811.431554 889.907273 809.031554 889.907273 
L 801.289054 889.907273 
Q 798.889054 889.907273 798.889054 892.307273 
L 798.889054 892.307273 
z
" clip-path="url(#p0402e15110)" style="fill: none"/>
    </g>
    <g clip-path="url(#p0402e15110)">
     <!-- 20 -->
     <g transform="translate(802.952804 892.307273)rotate(-270)scale(0.08 -0.08)">
      <defs>
       <path id="DejaVuSans-32" d="M 1228 531 
L 3431 531 
L 3431 0 
L 469 0 
L 469 531 
Q 828 903 1448 1529 
Q 2069 2156 2228 2338 
Q 2531 2678 2651 2914 
Q 2772 3150 2772 3378 
Q 2772 3750 2511 3984 
Q 2250 4219 1831 4219 
Q 1534 4219 1204 4116 
Q 875 4013 500 3803 
L 500 4441 
Q 881 4594 1212 4672 
Q 1544 4750 1819 4750 
Q 2544 4750 2975 4387 
Q 3406 4025 3406 3419 
Q 3406 3131 3298 2873 
Q 3191 2616 2906 2266 
Q 2828 2175 2409 1742 
Q 1991 1309 1228 531 
z
" transform="scale(0.015625)"/>
       <path id="DejaVuSans-30" d="M 2034 4250 
Q 1547 4250 1301 3770 
Q 1056 3291 1056 2328 
Q 1056 1369 1301 889 
Q 1547 409 2034 409 
Q 2525 409 2770 889 
Q 3016 1369 3016 2328 
Q 3016 3291 2770 3770 
Q 2525 4250 2034 4250 
z
M 2034 4750 
Q 2819 4750 3233 4129 
Q 3647 3509 3647 2328 
Q 3647 1150 3233 529 
Q 2819 -91 2034 -91 
Q 1250 -91 836 529 
Q 422 1150 422 2328 
Q 422 3509 836 4129 
Q 1250 4750 2034 4750 
z
" transform="scale(0.015625)"/>
      </defs>
      <use xlink:href="#DejaVuSans-32"/>
      <use xlink:href="#DejaVuSans-30" x="63.623047"/>
     </g>
    </g>
   </g>
   <g id="text_5">
    <g id="patch_52">
     <path d="M 773.810381 903.901514 
L 779.80912 895.676702 
Q 781.223361 893.73765 779.284309 892.323409 
L 773.028847 887.761008 
Q 771.089795 886.346767 769.675554 888.285819 
L 763.676815 896.510631 
Q 762.262574 898.449683 764.201626 899.863924 
L 770.457088 904.426325 
Q 772.39614 905.840566 773.810381 903.901514 
L 773.810381 903.901514 
z
" clip-path="url(#p0402e15110)" style="fill: none"/>
    </g>
    <g clip-path="url(#p0402e15110)">
     <!-- 22 -->
     <g transform="translate(770.527122 901.50688)rotate(-53.894984)scale(0.08 -0.08)">
      <use xlink:href="#DejaVuSans-32"/>
      <use xlink:href="#DejaVuSans-32" x="63.623047"/>
     </g>
    </g>
   </g>
   <g id="text_6">
    <g id="patch_53">
     <path d="M 695.053591 904.688959 
L 709.061823 898.610938 
Q 711.26351 897.65565 710.308221 895.453963 
L 707.226422 888.35123 
Q 706.271134 886.149543 704.069447 887.104831 
L 690.061215 893.182853 
Q 687.859528 894.138141 688.814817 896.339828 
L 691.896616 903.442561 
Q 692.851905 905.644248 695.053591 904.688959 
L 695.053591 904.688959 
z
" clip-path="url(#p0402e15110)" style="fill: none"/>
    </g>
    <g clip-path="url(#p0402e15110)">
     <!-- 222 -->
     <g transform="translate(693.436069 900.960999)rotate(-23.455505)scale(0.08 -0.08)">
      <use xlink:href="#DejaVuSans-32"/>
      <use xlink:href="#DejaVuSans-32" x="63.623047"/>
      <use xlink:href="#DejaVuSans-32" x="127.246094"/>
     </g>
    </g>
   </g>
   <g id="text_7">
    <g id="patch_54">
     <path d="M 830.068748 895.626219 
L 836.014913 903.889119 
Q 837.416759 905.837151 839.364791 904.435304 
L 845.649221 899.912889 
Q 847.597253 898.511043 846.195407 896.563012 
L 840.249242 888.300111 
Q 838.847395 886.35208 836.899364 887.753926 
L 830.614933 892.276341 
Q 828.666901 893.678187 830.068748 895.626219 
L 830.068748 895.626219 
z
" clip-path="url(#p0402e15110)" style="fill: none"/>
    </g>
    <g clip-path="url(#p0402e15110)">
     <!-- 20 -->
     <g transform="translate(833.367211 893.252572)rotate(-305.739622)scale(0.08 -0.08)">
      <use xlink:href="#DejaVuSans-32"/>
      <use xlink:href="#DejaVuSans-30" x="63.623047"/>
     </g>
    </g>
   </g>
   <g id="text_8">
    <g id="patch_55">
     <path d="M 454.476069 308.719035 
L 462.400035 302.328169 
Q 464.268161 300.821482 462.761473 298.953356 
L 457.900837 292.926705 
Q 456.39415 291.05858 454.526024 292.565267 
L 446.602058 298.956133 
Q 444.733933 300.46282 446.24062 302.330946 
L 451.101256 308.357596 
Q 452.607944 310.225722 454.476069 308.719035 
L 454.476069 308.719035 
z
" clip-path="url(#p0402e15110)" style="fill: none"/>
    </g>
    <g clip-path="url(#p0402e15110)">
     <!-- 68 -->
     <g transform="translate(451.924902 305.55587)rotate(-38.886996)scale(0.08 -0.08)">
      <defs>
       <path id="DejaVuSans-36" d="M 2113 2584 
Q 1688 2584 1439 2293 
Q 1191 2003 1191 1497 
Q 1191 994 1439 701 
Q 1688 409 2113 409 
Q 2538 409 2786 701 
Q 3034 994 3034 1497 
Q 3034 2003 2786 2293 
Q 2538 2584 2113 2584 
z
M 3366 4563 
L 3366 3988 
Q 3128 4100 2886 4159 
Q 2644 4219 2406 4219 
Q 1781 4219 1451 3797 
Q 1122 3375 1075 2522 
Q 1259 2794 1537 2939 
Q 1816 3084 2150 3084 
Q 2853 3084 3261 2657 
Q 3669 2231 3669 1497 
Q 3669 778 3244 343 
Q 2819 -91 2113 -91 
Q 1303 -91 875 529 
Q 447 1150 447 2328 
Q 447 3434 972 4092 
Q 1497 4750 2381 4750 
Q 2619 4750 2861 4703 
Q 3103 4656 3366 4563 
z
" transform="scale(0.015625)"/>
      </defs>
      <use xlink:href="#DejaVuSans-36"/>
      <use xlink:href="#DejaVuSans-38" x="63.623047"/>
     </g>
    </g>
   </g>
   <g id="text_9">
    <g id="patch_56">
     <path d="M 394.631273 263.350225 
L 404.461327 260.704015 
Q 406.778825 260.080154 406.154964 257.762656 
L 404.142363 250.28631 
Q 403.518501 247.968812 401.201003 248.592673 
L 391.370949 251.238884 
Q 389.053451 251.862745 389.677312 254.180243 
L 391.689914 261.656588 
Q 392.313775 263.974086 394.631273 263.350225 
L 394.631273 263.350225 
z
" clip-path="url(#p0402e15110)" style="fill: none"/>
    </g>
    <g clip-path="url(#p0402e15110)">
     <!-- 55 -->
     <g transform="translate(393.574933 259.42617)rotate(-15.066626)scale(0.08 -0.08)">
      <defs>
       <path id="DejaVuSans-35" d="M 691 4666 
L 3169 4666 
L 3169 4134 
L 1269 4134 
L 1269 2991 
Q 1406 3038 1543 3061 
Q 1681 3084 1819 3084 
Q 2600 3084 3056 2656 
Q 3513 2228 3513 1497 
Q 3513 744 3044 326 
Q 2575 -91 1722 -91 
Q 1428 -91 1123 -41 
Q 819 9 494 109 
L 494 744 
Q 775 591 1075 516 
Q 1375 441 1709 441 
Q 2250 441 2565 725 
Q 2881 1009 2881 1497 
Q 2881 1984 2565 2268 
Q 2250 2553 1709 2553 
Q 1456 2553 1204 2497 
Q 953 2441 691 2322 
L 691 4666 
z
" transform="scale(0.015625)"/>
      </defs>
      <use xlink:href="#DejaVuSans-35"/>
      <use xlink:href="#DejaVuSans-35" x="63.623047"/>
     </g>
    </g>
   </g>
   <g id="text_10">
    <g id="patch_57">
     <path d="M 661.183088 261.051613 
L 665.794234 263.206941 
Q 667.968447 264.223206 668.984712 262.048992 
L 672.263225 255.034887 
Q 673.279489 252.860674 671.105276 251.844409 
L 666.49413 249.689081 
Q 664.319916 248.672816 663.303652 250.84703 
L 660.025139 257.861134 
Q 659.008874 260.035348 661.183088 261.051613 
L 661.183088 261.051613 
z
" clip-path="url(#p0402e15110)" style="fill: none"/>
    </g>
    <g clip-path="url(#p0402e15110)">
     <!-- 1 -->
     <g transform="translate(662.903857 257.370171)rotate(-334.947809)scale(0.08 -0.08)">
      <defs>
       <path id="DejaVuSans-31" d="M 794 531 
L 1825 531 
L 1825 4091 
L 703 3866 
L 703 4441 
L 1819 4666 
L 2450 4666 
L 2450 531 
L 3481 531 
L 3481 0 
L 794 0 
L 794 531 
z
" transform="scale(0.015625)"/>
      </defs>
      <use xlink:href="#DejaVuSans-31"/>
     </g>
    </g>
   </g>
   <g id="text_11">
    <g id="patch_58">
     <path d="M 704.557684 261.739856 
L 709.397853 263.314929 
Q 711.680055 264.057596 712.422723 261.775395 
L 714.818598 254.412916 
Q 715.561265 252.130714 713.279063 251.388047 
L 708.438894 249.812974 
Q 706.156692 249.070306 705.414024 251.352508 
L 703.018149 258.714987 
Q 702.275482 260.997188 704.557684 261.739856 
L 704.557684 261.739856 
z
" clip-path="url(#p0402e15110)" style="fill: none"/>
    </g>
    <g clip-path="url(#p0402e15110)">
     <!-- 4 -->
     <g transform="translate(705.815189 257.875565)rotate(-341.974232)scale(0.08 -0.08)">
      <use xlink:href="#DejaVuSans-34"/>
     </g>
    </g>
   </g>
   <g id="text_12">
    <g id="patch_59">
     <path d="M 497.900818 308.35278 
L 501.086035 304.38258 
Q 502.587906 302.510579 500.715906 301.008709 
L 494.676755 296.163611 
Q 492.804755 294.661741 491.302885 296.533741 
L 488.117667 300.503941 
Q 486.615797 302.375941 488.487797 303.877812 
L 494.526947 308.722909 
Q 496.398947 310.22478 497.900818 308.35278 
L 497.900818 308.35278 
z
" clip-path="url(#p0402e15110)" style="fill: none"/>
    </g>
    <g clip-path="url(#p0402e15110)">
     <!-- 3 -->
     <g transform="translate(494.731093 305.809769)rotate(-51.26058)scale(0.08 -0.08)">
      <defs>
       <path id="DejaVuSans-33" d="M 2597 2516 
Q 3050 2419 3304 2112 
Q 3559 1806 3559 1356 
Q 3559 666 3084 287 
Q 2609 -91 1734 -91 
Q 1441 -91 1130 -33 
Q 819 25 488 141 
L 488 750 
Q 750 597 1062 519 
Q 1375 441 1716 441 
Q 2309 441 2620 675 
Q 2931 909 2931 1356 
Q 2931 1769 2642 2001 
Q 2353 2234 1838 2234 
L 1294 2234 
L 1294 2753 
L 1863 2753 
Q 2328 2753 2575 2939 
Q 2822 3125 2822 3475 
Q 2822 3834 2567 4026 
Q 2313 4219 1838 4219 
Q 1578 4219 1281 4162 
Q 984 4106 628 3988 
L 628 4550 
Q 988 4650 1302 4700 
Q 1616 4750 1894 4750 
Q 2613 4750 3031 4423 
Q 3450 4097 3450 3541 
Q 3450 3153 3228 2886 
Q 3006 2619 2597 2516 
z
" transform="scale(0.015625)"/>
      </defs>
      <use xlink:href="#DejaVuSans-33"/>
     </g>
    </g>
   </g>
   <g id="text_13">
    <g id="patch_60">
     <path d="M 574.636748 439.358684 
L 574.923382 444.440606 
Q 575.058534 446.836798 577.454726 446.701646 
L 585.18494 446.26564 
Q 587.581131 446.130488 587.445979 443.734297 
L 587.159344 438.652374 
Q 587.024193 436.256182 584.628001 436.391334 
L 576.897787 436.82734 
Q 574.501596 436.962492 574.636748 439.358684 
L 574.636748 439.358684 
z
" clip-path="url(#p0402e15110)" style="fill: none"/>
    </g>
    <g clip-path="url(#p0402e15110)">
     <!-- 2 -->
     <g transform="translate(578.694049 439.12984)rotate(-273.228222)scale(0.08 -0.08)">
      <use xlink:href="#DejaVuSans-32"/>
     </g>
    </g>
   </g>
   <g id="text_14">
    <g id="patch_61">
     <path d="M 529.626624 262.642555 
L 533.0408 258.867439 
Q 534.650628 257.087424 532.870613 255.477596 
L 527.128209 250.284225 
Q 525.348194 248.674397 523.738366 250.454412 
L 520.32419 254.229528 
Q 518.714362 256.009543 520.494377 257.619371 
L 526.236781 262.812743 
Q 528.016796 264.42257 529.626624 262.642555 
L 529.626624 262.642555 
z
" clip-path="url(#p0402e15110)" style="fill: none"/>
    </g>
    <g clip-path="url(#p0402e15110)">
     <!-- 2 -->
     <g transform="translate(526.61265 259.916748)rotate(-47.87413)scale(0.08 -0.08)">
      <use xlink:href="#DejaVuSans-32"/>
     </g>
    </g>
   </g>
   <g id="text_15">
    <g id="patch_62">
     <path d="M 664.754561 346.02537 
L 670.923349 354.123422 
Q 672.377681 356.03259 674.286848 354.578258 
L 680.445902 349.886525 
Q 682.355069 348.432194 680.900738 346.523026 
L 674.731949 338.424974 
Q 673.277618 336.515807 671.368451 337.970138 
L 665.209397 342.661872 
Q 663.300229 344.116203 664.754561 346.02537 
L 664.754561 346.02537 
z
" clip-path="url(#p0402e15110)" style="fill: none"/>
    </g>
    <g clip-path="url(#p0402e15110)">
     <!-- 11 -->
     <g transform="translate(667.987219 343.562854)rotate(-307.298775)scale(0.08 -0.08)">
      <use xlink:href="#DejaVuSans-31"/>
      <use xlink:href="#DejaVuSans-31" x="63.623047"/>
     </g>
    </g>
   </g>
   <g id="text_16">
    <g id="patch_63">
     <path d="M 613.282539 259.428961 
L 617.07685 262.821793 
Q 618.865916 264.421557 620.465679 262.632491 
L 625.626583 256.86089 
Q 627.226346 255.071824 625.437281 253.47206 
L 621.64297 250.079228 
Q 619.853904 248.479465 618.254141 250.268531 
L 613.093237 256.040132 
Q 611.493473 257.829198 613.282539 259.428961 
L 613.282539 259.428961 
z
" clip-path="url(#p0402e15110)" style="fill: none"/>
    </g>
    <g clip-path="url(#p0402e15110)">
     <!-- 7 -->
     <g transform="translate(615.991306 256.399663)rotate(-318.19726)scale(0.08 -0.08)">
      <defs>
       <path id="DejaVuSans-37" d="M 525 4666 
L 3525 4666 
L 3525 4397 
L 1831 0 
L 1172 0 
L 2766 4134 
L 525 4134 
L 525 4666 
z
" transform="scale(0.015625)"/>
      </defs>
      <use xlink:href="#DejaVuSans-37"/>
     </g>
    </g>
   </g>
   <g id="text_17">
    <g id="patch_64">
     <path d="M 759.81461 262.208612 
L 764.770465 263.369476 
Q 767.107214 263.916838 767.654576 261.580089 
L 769.420389 254.041641 
Q 769.967751 251.704892 767.631002 251.15753 
L 762.675148 249.996666 
Q 760.338399 249.449304 759.791037 251.786052 
L 758.025224 259.324501 
Q 757.477862 261.66125 759.81461 262.208612 
L 759.81461 262.208612 
z
" clip-path="url(#p0402e15110)" style="fill: none"/>
    </g>
    <g clip-path="url(#p0402e15110)">
     <!-- 2 -->
     <g transform="translate(760.74142 258.251961)rotate(-346.816672)scale(0.08 -0.08)">
      <use xlink:href="#DejaVuSans-32"/>
     </g>
    </g>
   </g>
   <g id="text_18">
    <g id="patch_65">
     <path d="M 390.978663 308.972621 
L 404.478056 301.835446 
Q 406.599769 300.713689 405.478012 298.591977 
L 401.859179 291.747245 
Q 400.737422 289.625533 398.61571 290.74729 
L 385.116317 297.884465 
Q 382.994605 299.006222 384.116361 301.127934 
L 387.735194 307.972666 
Q 388.856951 310.094378 390.978663 308.972621 
L 390.978663 308.972621 
z
" clip-path="url(#p0402e15110)" style="fill: none"/>
    </g>
    <g clip-path="url(#p0402e15110)">
     <!-- 304 -->
     <g transform="translate(389.079272 305.380076)rotate(-27.865562)scale(0.08 -0.08)">
      <use xlink:href="#DejaVuSans-33"/>
      <use xlink:href="#DejaVuSans-30" x="63.623047"/>
      <use xlink:href="#DejaVuSans-34" x="127.246094"/>
     </g>
    </g>
   </g>
   <g id="text_19">
    <g id="patch_66">
     <path d="M 587.691484 805.760909 
L 587.691484 810.850909 
Q 587.691484 813.250909 590.091484 813.250909 
L 597.833984 813.250909 
Q 600.233984 813.250909 600.233984 810.850909 
L 600.233984 805.760909 
Q 600.233984 803.360909 597.833984 803.360909 
L 590.091484 803.360909 
Q 587.691484 803.360909 587.691484 805.760909 
L 587.691484 805.760909 
z
" clip-path="url(#p0402e15110)" style="fill: none"/>
    </g>
    <g clip-path="url(#p0402e15110)">
     <!-- 1 -->
     <g transform="translate(591.755234 805.760909)rotate(-270)scale(0.08 -0.08)">
      <use xlink:href="#DejaVuSans-31"/>
     </g>
    </g>
   </g>
   <g id="text_20">
    <g id="patch_67">
     <path d="M 414.275724 354.695345 
L 418.573072 351.967544 
Q 420.599327 350.68135 419.313133 348.655096 
L 415.16382 342.118315 
Q 413.877627 340.092061 411.851373 341.378254 
L 407.554025 344.106055 
Q 405.52777 345.392249 406.813964 347.418503 
L 410.963277 353.955284 
Q 412.24947 355.981539 414.275724 354.695345 
L 414.275724 354.695345 
z
" clip-path="url(#p0402e15110)" style="fill: none"/>
    </g>
    <g clip-path="url(#p0402e15110)">
     <!-- 2 -->
     <g transform="translate(412.097905 351.264432)rotate(-32.405908)scale(0.08 -0.08)">
      <use xlink:href="#DejaVuSans-32"/>
     </g>
    </g>
   </g>
   <g id="text_21">
    <g id="patch_68">
     <path d="M 456.841841 354.045628 
L 459.761248 349.876076 
Q 461.137785 347.910079 459.171788 346.533542 
L 452.8294 342.092774 
Q 450.863403 340.716237 449.486865 342.682234 
L 446.567459 346.851786 
Q 445.190921 348.817783 447.156918 350.19432 
L 453.499306 354.635088 
Q 455.465303 356.011626 456.841841 354.045628 
L 456.841841 354.045628 
z
" clip-path="url(#p0402e15110)" style="fill: none"/>
    </g>
    <g clip-path="url(#p0402e15110)">
     <!-- 2 -->
     <g transform="translate(453.512957 351.714835)rotate(-55.001337)scale(0.08 -0.08)">
      <use xlink:href="#DejaVuSans-32"/>
     </g>
    </g>
   </g>
   <g id="text_22">
    <g id="patch_69">
     <path d="M 532.867814 485.926216 
L 534.31519 490.806093 
Q 534.997646 493.107017 537.298571 492.424561 
L 544.721449 490.222928 
Q 547.022373 489.540472 546.339917 487.239547 
L 544.892541 482.35967 
Q 544.210084 480.058745 541.90916 480.741202 
L 534.486282 482.942835 
Q 532.185357 483.625291 532.867814 485.926216 
L 532.867814 485.926216 
z
" clip-path="url(#p0402e15110)" style="fill: none"/>
    </g>
    <g clip-path="url(#p0402e15110)">
     <!-- 1 -->
     <g transform="translate(536.763806 484.77066)rotate(-286.520408)scale(0.08 -0.08)">
      <use xlink:href="#DejaVuSans-31"/>
     </g>
    </g>
   </g>
   <g id="text_23">
    <g id="patch_70">
     <path d="M 478.973747 347.579091 
L 478.973747 352.669091 
Q 478.973747 355.069091 481.373747 355.069091 
L 489.116247 355.069091 
Q 491.516247 355.069091 491.516247 352.669091 
L 491.516247 347.579091 
Q 491.516247 345.179091 489.116247 345.179091 
L 481.373747 345.179091 
Q 478.973747 345.179091 478.973747 347.579091 
L 478.973747 347.579091 
z
" clip-path="url(#p0402e15110)" style="fill: none"/>
    </g>
    <g clip-path="url(#p0402e15110)">
     <!-- 2 -->
     <g transform="translate(483.037497 347.579091)rotate(-270)scale(0.08 -0.08)">
      <use xlink:href="#DejaVuSans-32"/>
     </g>
    </g>
   </g>
   <g id="text_24">
    <g id="patch_71">
     <path d="M 686.577723 583.458443 
L 693.781951 576.265982 
Q 695.480394 574.570313 693.784725 572.871871 
L 688.314428 567.392623 
Q 686.618759 565.69418 684.920317 567.389849 
L 677.716088 574.58231 
Q 676.017645 576.277978 677.713314 577.976421 
L 683.183611 583.455669 
Q 684.87928 585.154111 686.577723 583.458443 
L 686.577723 583.458443 
z
" clip-path="url(#p0402e15110)" style="fill: none"/>
    </g>
    <g clip-path="url(#p0402e15110)">
     <!-- 17 -->
     <g transform="translate(683.706567 580.58259)rotate(-44.953168)scale(0.08 -0.08)">
      <use xlink:href="#DejaVuSans-31"/>
      <use xlink:href="#DejaVuSans-37" x="63.623047"/>
     </g>
    </g>
   </g>
   <g id="text_25">
    <g id="patch_72">
     <path d="M 763.744881 719.419182 
L 764.612879 709.276254 
Q 764.817515 706.884994 762.426255 706.680358 
L 754.711951 706.020193 
Q 752.320691 705.815557 752.116055 708.206817 
L 751.248057 718.349745 
Q 751.043421 720.741005 753.434681 720.945641 
L 761.148985 721.605805 
Q 763.540245 721.810441 763.744881 719.419182 
L 763.744881 719.419182 
z
" clip-path="url(#p0402e15110)" style="fill: none"/>
    </g>
    <g clip-path="url(#p0402e15110)">
     <!-- 99 -->
     <g transform="translate(759.69593 719.072686)rotate(-85.108735)scale(0.08 -0.08)">
      <defs>
       <path id="DejaVuSans-39" d="M 703 97 
L 703 672 
Q 941 559 1184 500 
Q 1428 441 1663 441 
Q 2288 441 2617 861 
Q 2947 1281 2994 2138 
Q 2813 1869 2534 1725 
Q 2256 1581 1919 1581 
Q 1219 1581 811 2004 
Q 403 2428 403 3163 
Q 403 3881 828 4315 
Q 1253 4750 1959 4750 
Q 2769 4750 3195 4129 
Q 3622 3509 3622 2328 
Q 3622 1225 3098 567 
Q 2575 -91 1691 -91 
Q 1453 -91 1209 -44 
Q 966 3 703 97 
z
M 1959 2075 
Q 2384 2075 2632 2365 
Q 2881 2656 2881 3163 
Q 2881 3666 2632 3958 
Q 2384 4250 1959 4250 
Q 1534 4250 1286 3958 
Q 1038 3666 1038 3163 
Q 1038 2656 1286 2365 
Q 1534 2075 1959 2075 
z
" transform="scale(0.015625)"/>
      </defs>
      <use xlink:href="#DejaVuSans-39"/>
      <use xlink:href="#DejaVuSans-39" x="63.623047"/>
     </g>
    </g>
   </g>
   <g id="text_26">
    <g id="patch_73">
     <path d="M 771.264056 525.761818 
L 771.264056 535.941818 
Q 771.264056 538.341818 773.664056 538.341818 
L 781.406556 538.341818 
Q 783.806556 538.341818 783.806556 535.941818 
L 783.806556 525.761818 
Q 783.806556 523.361818 781.406556 523.361818 
L 773.664056 523.361818 
Q 771.264056 523.361818 771.264056 525.761818 
L 771.264056 525.761818 
z
" clip-path="url(#p0402e15110)" style="fill: none"/>
    </g>
    <g clip-path="url(#p0402e15110)">
     <!-- 29 -->
     <g transform="translate(775.327806 525.761818)rotate(-270)scale(0.08 -0.08)">
      <use xlink:href="#DejaVuSans-32"/>
      <use xlink:href="#DejaVuSans-39" x="63.623047"/>
     </g>
    </g>
   </g>
   <g id="text_27">
    <g id="patch_74">
     <path d="M 825.41644 614.371535 
L 831.229415 628.491812 
Q 832.143045 630.711109 834.362342 629.797479 
L 841.521887 626.850069 
Q 843.741184 625.936438 842.827553 623.717141 
L 837.014579 609.596864 
Q 836.100948 607.377567 833.881651 608.291197 
L 826.722107 611.238608 
Q 824.50281 612.152238 825.41644 614.371535 
L 825.41644 614.371535 
z
" clip-path="url(#p0402e15110)" style="fill: none"/>
    </g>
    <g clip-path="url(#p0402e15110)">
     <!-- 128 -->
     <g transform="translate(829.174219 612.824549)rotate(-292.375773)scale(0.08 -0.08)">
      <use xlink:href="#DejaVuSans-31"/>
      <use xlink:href="#DejaVuSans-32" x="63.623047"/>
      <use xlink:href="#DejaVuSans-38" x="127.246094"/>
     </g>
    </g>
   </g>
   <g id="text_28">
    <g id="patch_75">
     <path d="M 817.1567 709.720615 
L 819.193589 719.694755 
Q 819.673799 722.046223 822.025267 721.566013 
L 829.611198 720.016836 
Q 831.962665 719.536626 831.482456 717.185159 
L 829.445566 707.211018 
Q 828.965356 704.859551 826.613889 705.339761 
L 819.027957 706.888938 
Q 816.67649 707.369147 817.1567 709.720615 
L 817.1567 709.720615 
z
" clip-path="url(#p0402e15110)" style="fill: none"/>
    </g>
    <g clip-path="url(#p0402e15110)">
     <!-- 55 -->
     <g transform="translate(821.138273 708.907509)rotate(-281.54207)scale(0.08 -0.08)">
      <use xlink:href="#DejaVuSans-35"/>
      <use xlink:href="#DejaVuSans-35" x="63.623047"/>
     </g>
    </g>
   </g>
   <g id="text_29">
    <g id="patch_76">
     <path d="M 718.054362 351.17944 
L 721.919382 354.491497 
Q 723.741788 356.053174 725.303465 354.230768 
L 730.3415 348.351609 
Q 731.903177 346.529203 730.080771 344.967526 
L 726.215751 341.655469 
Q 724.393345 340.093792 722.831668 341.916198 
L 717.793632 347.795357 
Q 716.231955 349.617763 718.054362 351.17944 
L 718.054362 351.17944 
z
" clip-path="url(#p0402e15110)" style="fill: none"/>
    </g>
    <g clip-path="url(#p0402e15110)">
     <!-- 2 -->
     <g transform="translate(720.698639 348.093689)rotate(-319.405692)scale(0.08 -0.08)">
      <use xlink:href="#DejaVuSans-32"/>
     </g>
    </g>
   </g>
   <g id="text_30">
    <g id="patch_77">
     <path d="M 716.377675 435.688012 
L 720.068169 445.175512 
Q 720.938226 447.412251 723.174965 446.542193 
L 730.390777 443.735351 
Q 732.627516 442.865294 731.757458 440.628555 
L 728.066964 431.141055 
Q 727.196907 428.904317 724.960168 429.774374 
L 717.744356 432.581216 
Q 715.507617 433.451273 716.377675 435.688012 
L 716.377675 435.688012 
z
" clip-path="url(#p0402e15110)" style="fill: none"/>
    </g>
    <g clip-path="url(#p0402e15110)">
     <!-- 18 -->
     <g transform="translate(720.164986 434.214805)rotate(-291.255282)scale(0.08 -0.08)">
      <use xlink:href="#DejaVuSans-31"/>
      <use xlink:href="#DejaVuSans-38" x="63.623047"/>
     </g>
    </g>
   </g>
   <g id="text_31">
    <g id="patch_78">
     <path d="M 638.206332 627.862894 
L 638.81016 622.808837 
Q 639.094873 620.425785 636.71182 620.141072 
L 629.023994 619.222578 
Q 626.640941 618.937865 626.356229 621.320917 
L 625.752401 626.374974 
Q 625.467688 628.758027 627.85074 629.042739 
L 635.538567 629.961234 
Q 637.921619 630.245947 638.206332 627.862894 
L 638.206332 627.862894 
z
" clip-path="url(#p0402e15110)" style="fill: none"/>
    </g>
    <g clip-path="url(#p0402e15110)">
     <!-- 4 -->
     <g transform="translate(634.171278 627.380811)rotate(-83.186942)scale(0.08 -0.08)">
      <use xlink:href="#DejaVuSans-34"/>
     </g>
    </g>
   </g>
   <g id="text_32">
    <g id="patch_79">
     <path d="M 772.797376 527.804984 
L 777.205534 536.98107 
Q 778.244785 539.14439 780.408106 538.105139 
L 787.387069 534.752471 
Q 789.55039 533.713219 788.511138 531.549899 
L 784.102981 522.373813 
Q 783.063729 520.210492 780.900408 521.249744 
L 773.921446 524.602412 
Q 771.758125 525.641663 772.797376 527.804984 
L 772.797376 527.804984 
z
" clip-path="url(#p0402e15110)" style="fill: none"/>
    </g>
    <g clip-path="url(#p0402e15110)">
     <!-- 29 -->
     <g transform="translate(776.460374 526.045293)rotate(-295.659459)scale(0.08 -0.08)">
      <use xlink:href="#DejaVuSans-32"/>
      <use xlink:href="#DejaVuSans-39" x="63.623047"/>
     </g>
    </g>
   </g>
   <g id="text_33">
    <g id="patch_80">
     <path d="M 771.264056 434.125455 
L 771.264056 444.305455 
Q 771.264056 446.705455 773.664056 446.705455 
L 781.406556 446.705455 
Q 783.806556 446.705455 783.806556 444.305455 
L 783.806556 434.125455 
Q 783.806556 431.725455 781.406556 431.725455 
L 773.664056 431.725455 
Q 771.264056 431.725455 771.264056 434.125455 
L 771.264056 434.125455 
z
" clip-path="url(#p0402e15110)" style="fill: none"/>
    </g>
    <g clip-path="url(#p0402e15110)">
     <!-- 13 -->
     <g transform="translate(775.327806 434.125455)rotate(-270)scale(0.08 -0.08)">
      <use xlink:href="#DejaVuSans-31"/>
      <use xlink:href="#DejaVuSans-33" x="63.623047"/>
     </g>
    </g>
   </g>
   <g id="text_34">
    <g id="patch_81">
     <path d="M 803.815181 531.552042 
L 805.00246 536.501635 
Q 805.562277 538.835431 807.896073 538.275614 
L 815.424997 536.469621 
Q 817.758793 535.909804 817.198976 533.576008 
L 816.011697 528.626415 
Q 815.45188 526.292619 813.118084 526.852436 
L 805.58916 528.658429 
Q 803.255364 529.218246 803.815181 531.552042 
L 803.815181 531.552042 
z
" clip-path="url(#p0402e15110)" style="fill: none"/>
    </g>
    <g clip-path="url(#p0402e15110)">
     <!-- 4 -->
     <g transform="translate(807.766833 530.604144)rotate(-283.488907)scale(0.08 -0.08)">
      <use xlink:href="#DejaVuSans-34"/>
     </g>
    </g>
   </g>
   <g id="text_35">
    <g id="patch_82">
     <path d="M 780.423841 721.172218 
L 784.575738 718.227757 
Q 786.53341 716.839406 785.145059 714.881733 
L 780.666181 708.5662 
Q 779.27783 706.608528 777.320158 707.996879 
L 773.168261 710.94134 
Q 771.210588 712.329691 772.598939 714.287364 
L 777.077817 720.602896 
Q 778.466169 722.560569 780.423841 721.172218 
L 780.423841 721.172218 
z
" clip-path="url(#p0402e15110)" style="fill: none"/>
    </g>
    <g clip-path="url(#p0402e15110)">
     <!-- 1 -->
     <g transform="translate(778.073044 717.85743)rotate(-35.343677)scale(0.08 -0.08)">
      <use xlink:href="#DejaVuSans-31"/>
     </g>
    </g>
   </g>
   <g id="text_36">
    <g id="patch_83">
     <path d="M 794.941175 811.70833 
L 798.578069 802.200155 
Q 799.43549 799.958542 797.193877 799.101121 
L 789.96234 796.335045 
Q 787.720727 795.477624 786.863306 797.719237 
L 783.226412 807.227412 
Q 782.368991 809.469025 784.610604 810.326446 
L 791.842141 813.092522 
Q 794.083754 813.949943 794.941175 811.70833 
L 794.941175 811.70833 
z
" clip-path="url(#p0402e15110)" style="fill: none"/>
    </g>
    <g clip-path="url(#p0402e15110)">
     <!-- 10 -->
     <g transform="translate(791.14561 810.25652)rotate(-69.068057)scale(0.08 -0.08)">
      <use xlink:href="#DejaVuSans-31"/>
      <use xlink:href="#DejaVuSans-30" x="63.623047"/>
     </g>
    </g>
   </g>
   <g id="text_37">
    <g id="patch_84">
     <path d="M 803.93029 624.848578 
L 806.903373 628.980028 
Q 808.305219 630.92806 810.253251 629.526213 
L 816.537681 625.003799 
Q 818.485713 623.601952 817.083867 621.653921 
L 814.110784 617.522471 
Q 812.708938 615.574439 810.760906 616.976285 
L 804.476475 621.4987 
Q 802.528444 622.900546 803.93029 624.848578 
L 803.93029 624.848578 
z
" clip-path="url(#p0402e15110)" style="fill: none"/>
    </g>
    <g clip-path="url(#p0402e15110)">
     <!-- 1 -->
     <g transform="translate(807.228754 622.474931)rotate(-305.739622)scale(0.08 -0.08)">
      <use xlink:href="#DejaVuSans-31"/>
     </g>
    </g>
   </g>
   <g id="text_38">
    <g id="patch_85">
     <path d="M 860.35341 715.789655 
L 862.685315 720.314069 
Q 863.784839 722.447387 865.918157 721.347864 
L 872.800333 717.800757 
Q 874.933651 716.701234 873.834128 714.567915 
L 871.502223 710.043502 
Q 870.4027 707.910183 868.269381 709.009706 
L 861.387206 712.556813 
Q 859.253887 713.656336 860.35341 715.789655 
L 860.35341 715.789655 
z
" clip-path="url(#p0402e15110)" style="fill: none"/>
    </g>
    <g clip-path="url(#p0402e15110)">
     <!-- 5 -->
     <g transform="translate(863.965608 713.92791)rotate(-297.266803)scale(0.08 -0.08)">
      <use xlink:href="#DejaVuSans-35"/>
     </g>
    </g>
   </g>
   <g id="text_39">
    <g id="patch_86">
     <path d="M 850.542606 800.961883 
L 851.560445 811.090871 
Q 851.800407 813.478845 854.188381 813.238883 
L 861.892083 812.464755 
Q 864.280057 812.224793 864.040095 809.836819 
L 863.022256 799.707831 
Q 862.782294 797.319857 860.39432 797.559819 
L 852.690617 798.333947 
Q 850.302644 798.573909 850.542606 800.961883 
L 850.542606 800.961883 
z
" clip-path="url(#p0402e15110)" style="fill: none"/>
    </g>
    <g clip-path="url(#p0402e15110)">
     <!-- 13 -->
     <g transform="translate(854.585992 800.555572)rotate(-275.738262)scale(0.08 -0.08)">
      <use xlink:href="#DejaVuSans-31"/>
      <use xlink:href="#DejaVuSans-33" x="63.623047"/>
     </g>
    </g>
   </g>
   <g id="text_40">
    <g id="patch_87">
     <path d="M 777.827536 627.856363 
L 779.007489 617.744978 
Q 779.28567 615.361154 776.901847 615.082973 
L 769.211532 614.185548 
Q 766.827709 613.907367 766.549527 616.29119 
L 765.369575 626.402576 
Q 765.091393 628.786399 767.475217 629.064581 
L 775.165531 629.962005 
Q 777.549355 630.240187 777.827536 627.856363 
L 777.827536 627.856363 
z
" clip-path="url(#p0402e15110)" style="fill: none"/>
    </g>
    <g clip-path="url(#p0402e15110)">
     <!-- 39 -->
     <g transform="translate(773.791177 627.385338)rotate(-83.343947)scale(0.08 -0.08)">
      <use xlink:href="#DejaVuSans-33"/>
      <use xlink:href="#DejaVuSans-39" x="63.623047"/>
     </g>
    </g>
   </g>
   <g id="text_41">
    <g id="patch_88">
     <path d="M 683.99582 629.725508 
L 693.104063 625.178826 
Q 695.251389 624.106916 694.179479 621.95959 
L 690.721455 615.032226 
Q 689.649546 612.8849 687.502219 613.956809 
L 678.393977 618.503491 
Q 676.246651 619.575401 677.31856 621.722727 
L 680.776584 628.650091 
Q 681.848494 630.797418 683.99582 629.725508 
L 683.99582 629.725508 
z
" clip-path="url(#p0402e15110)" style="fill: none"/>
    </g>
    <g clip-path="url(#p0402e15110)">
     <!-- 38 -->
     <g transform="translate(682.180832 626.089593)rotate(-26.527604)scale(0.08 -0.08)">
      <use xlink:href="#DejaVuSans-33"/>
      <use xlink:href="#DejaVuSans-38" x="63.623047"/>
     </g>
    </g>
   </g>
   <g id="text_42">
    <g id="patch_89">
     <path d="M 750.997674 674.179545 
L 752.658671 669.368185 
Q 753.441852 667.099567 751.173235 666.316386 
L 743.854579 663.789809 
Q 741.585961 663.006628 740.80278 665.275246 
L 739.141782 670.086606 
Q 738.358601 672.355224 740.627219 673.138405 
L 747.945874 675.664981 
Q 750.214492 676.448163 750.997674 674.179545 
L 750.997674 674.179545 
z
" clip-path="url(#p0402e15110)" style="fill: none"/>
    </g>
    <g clip-path="url(#p0402e15110)">
     <!-- 3 -->
     <g transform="translate(747.156384 672.853439)rotate(-70.954094)scale(0.08 -0.08)">
      <use xlink:href="#DejaVuSans-33"/>
     </g>
    </g>
   </g>
   <g id="text_43">
    <g id="patch_90">
     <path d="M 783.806556 535.941818 
L 783.806556 525.761818 
Q 783.806556 523.361818 781.406556 523.361818 
L 773.664056 523.361818 
Q 771.264056 523.361818 771.264056 525.761818 
L 771.264056 535.941818 
Q 771.264056 538.341818 773.664056 538.341818 
L 781.406556 538.341818 
Q 783.806556 538.341818 783.806556 535.941818 
L 783.806556 535.941818 
z
" clip-path="url(#p0402e15110)" style="fill: none"/>
    </g>
    <g clip-path="url(#p0402e15110)">
     <!-- 73 -->
     <g transform="translate(779.742806 535.941818)rotate(-90)scale(0.08 -0.08)">
      <use xlink:href="#DejaVuSans-37"/>
      <use xlink:href="#DejaVuSans-33" x="63.623047"/>
     </g>
    </g>
   </g>
   <g id="text_44">
    <g id="patch_91">
     <path d="M 803.93029 624.848578 
L 806.903373 628.980028 
Q 808.305219 630.92806 810.253251 629.526213 
L 816.537681 625.003799 
Q 818.485713 623.601952 817.083867 621.653921 
L 814.110784 617.522471 
Q 812.708938 615.574439 810.760906 616.976285 
L 804.476475 621.4987 
Q 802.528444 622.900546 803.93029 624.848578 
L 803.93029 624.848578 
z
" clip-path="url(#p0402e15110)" style="fill: none"/>
    </g>
    <g clip-path="url(#p0402e15110)">
     <!-- 5 -->
     <g transform="translate(807.228754 622.474931)rotate(-305.739622)scale(0.08 -0.08)">
      <use xlink:href="#DejaVuSans-35"/>
     </g>
    </g>
   </g>
   <g id="text_45">
    <g id="patch_92">
     <path d="M 650.837046 629.419468 
L 654.742107 626.154717 
Q 656.583394 624.615346 655.044022 622.77406 
L 650.077945 616.833993 
Q 648.538573 614.992707 646.697287 616.532079 
L 642.792226 619.796829 
Q 640.95094 621.336201 642.490311 623.177487 
L 647.456388 629.117553 
Q 648.99576 630.95884 650.837046 629.419468 
L 650.837046 629.419468 
z
" clip-path="url(#p0402e15110)" style="fill: none"/>
    </g>
    <g clip-path="url(#p0402e15110)">
     <!-- 2 -->
     <g transform="translate(648.230537 626.301748)rotate(-39.896655)scale(0.08 -0.08)">
      <use xlink:href="#DejaVuSans-32"/>
     </g>
    </g>
   </g>
   <g id="text_46">
    <g id="patch_93">
     <path d="M 702.509529 668.454803 
L 702.806014 673.53616 
Q 702.945811 675.932085 705.341736 675.792289 
L 713.07109 675.341298 
Q 715.467015 675.201502 715.327218 672.805577 
L 715.030733 667.724219 
Q 714.890936 665.328294 712.495011 665.468091 
L 704.765657 665.919081 
Q 702.369732 666.058878 702.509529 668.454803 
L 702.509529 668.454803 
z
" clip-path="url(#p0402e15110)" style="fill: none"/>
    </g>
    <g clip-path="url(#p0402e15110)">
     <!-- 2 -->
     <g transform="translate(706.566379 668.218095)rotate(-273.339292)scale(0.08 -0.08)">
      <use xlink:href="#DejaVuSans-32"/>
     </g>
    </g>
   </g>
   <g id="text_47">
    <g id="patch_94">
     <path d="M 847.308413 812.488689 
L 857.728786 801.326758 
Q 859.366566 799.572427 857.612235 797.934647 
L 851.95269 792.651101 
Q 850.198359 791.013321 848.560579 792.767652 
L 838.140206 803.929583 
Q 836.502426 805.683915 838.256757 807.321694 
L 843.916302 812.60524 
Q 845.670633 814.24302 847.308413 812.488689 
L 847.308413 812.488689 
z
" clip-path="url(#p0402e15110)" style="fill: none"/>
    </g>
    <g clip-path="url(#p0402e15110)">
     <!-- 169 -->
     <g transform="translate(844.337928 809.715552)rotate(-46.96788)scale(0.08 -0.08)">
      <use xlink:href="#DejaVuSans-31"/>
      <use xlink:href="#DejaVuSans-36" x="63.623047"/>
      <use xlink:href="#DejaVuSans-39" x="127.246094"/>
     </g>
    </g>
   </g>
   <g id="matplotlib.axis_1">
    <g id="xtick_1"/>
    <g id="xtick_2"/>
    <g id="xtick_3"/>
    <g id="xtick_4"/>
    <g id="xtick_5"/>
   </g>
   <g id="matplotlib.axis_2">
    <g id="ytick_1"/>
    <g id="ytick_2"/>
    <g id="ytick_3"/>
    <g id="ytick_4"/>
    <g id="ytick_5"/>
    <g id="ytick_6"/>
    <g id="ytick_7"/>
   </g>
   <g id="PathCollection_1">
    <defs>
     <path id="C0_0_eab76bc1ec" d="M 0 8.660254 
C 2.296726 8.660254 4.499694 7.747755 6.123724 6.123724 
C 7.747755 4.499694 8.660254 2.296726 8.660254 -0 
C 8.660254 -2.296726 7.747755 -4.499694 6.123724 -6.123724 
C 4.499694 -7.747755 2.296726 -8.660254 0 -8.660254 
C -2.296726 -8.660254 -4.499694 -7.747755 -6.123724 -6.123724 
C -7.747755 -4.499694 -8.660254 -2.296726 -8.660254 0 
C -8.660254 2.296726 -7.747755 4.499694 -6.123724 6.123724 
C -4.499694 7.747755 -2.296726 8.660254 0 8.660254 
z
"/>
    </defs>
    <g clip-path="url(#p0402e15110)">
     <use xlink:href="#C0_0_eab76bc1ec" x="227.712283" y="306.850909" style="fill: #a88e32; stroke: #a88e32"/>
    </g>
    <g clip-path="url(#p0402e15110)">
     <use xlink:href="#C0_0_eab76bc1ec" x="221.47438" y="398.487273" style="fill: #1f78b4; stroke: #1f78b4"/>
    </g>
    <g clip-path="url(#p0402e15110)">
     <use xlink:href="#C0_0_eab76bc1ec" x="805.160304" y="856.669091" style="fill: #1f78b4; stroke: #1f78b4"/>
    </g>
    <g clip-path="url(#p0402e15110)">
     <use xlink:href="#C0_0_eab76bc1ec" x="805.160304" y="948.305455" style="fill: #1f78b4; stroke: #1f78b4"/>
    </g>
    <g clip-path="url(#p0402e15110)">
     <use xlink:href="#C0_0_eab76bc1ec" x="738.32563" y="948.305455" style="fill: #1f78b4; stroke: #1f78b4"/>
    </g>
    <g clip-path="url(#p0402e15110)">
     <use xlink:href="#C0_0_eab76bc1ec" x="593.962734" y="948.305455" style="fill: #1f78b4; stroke: #1f78b4"/>
    </g>
    <g clip-path="url(#p0402e15110)">
     <use xlink:href="#C0_0_eab76bc1ec" x="871.10385" y="948.305455" style="fill: #1f78b4; stroke: #1f78b4"/>
    </g>
    <g clip-path="url(#p0402e15110)">
     <use xlink:href="#C0_0_eab76bc1ec" x="568.119993" y="215.214545" style="fill: #1f78b4; stroke: #1f78b4"/>
    </g>
    <g clip-path="url(#p0402e15110)">
     <use xlink:href="#C0_0_eab76bc1ec" x="340.8821" y="398.487273" style="fill: #a85832; stroke: #a85832"/>
    </g>
    <g clip-path="url(#p0402e15110)">
     <use xlink:href="#C0_0_eab76bc1ec" x="764.168371" y="306.850909" style="fill: #1f78b4; stroke: #1f78b4"/>
    </g>
    <g clip-path="url(#p0402e15110)">
     <use xlink:href="#C0_0_eab76bc1ec" x="849.716754" y="306.850909" style="fill: #1f78b4; stroke: #1f78b4"/>
    </g>
    <g clip-path="url(#p0402e15110)">
     <use xlink:href="#C0_0_eab76bc1ec" x="421.08371" y="398.487273" style="fill: #1f78b4; stroke: #1f78b4"/>
    </g>
    <g clip-path="url(#p0402e15110)">
     <use xlink:href="#C0_0_eab76bc1ec" x="593.962734" y="673.396364" style="fill: #1f78b4; stroke: #1f78b4"/>
    </g>
    <g clip-path="url(#p0402e15110)">
     <use xlink:href="#C0_0_eab76bc1ec" x="485.244997" y="306.850909" style="fill: #1f78b4; stroke: #1f78b4"/>
    </g>
    <g clip-path="url(#p0402e15110)">
     <use xlink:href="#C0_0_eab76bc1ec" x="777.535306" y="490.123636" style="fill: #1f78b4; stroke: #1f78b4"/>
    </g>
    <g clip-path="url(#p0402e15110)">
     <use xlink:href="#C0_0_eab76bc1ec" x="670.599827" y="306.850909" style="fill: #1f78b4; stroke: #1f78b4"/>
    </g>
    <g clip-path="url(#p0402e15110)">
     <use xlink:href="#C0_0_eab76bc1ec" x="959.32562" y="306.850909" style="fill: #1f78b4; stroke: #1f78b4"/>
    </g>
    <g clip-path="url(#p0402e15110)">
     <use xlink:href="#C0_0_eab76bc1ec" x="485.244997" y="398.487273" style="fill: #1f78b4; stroke: #1f78b4"/>
    </g>
    <g clip-path="url(#p0402e15110)">
     <use xlink:href="#C0_0_eab76bc1ec" x="777.535306" y="398.487273" style="fill: #1f78b4; stroke: #1f78b4"/>
    </g>
    <g clip-path="url(#p0402e15110)">
     <use xlink:href="#C0_0_eab76bc1ec" x="843.478851" y="673.396364" style="fill: #1f78b4; stroke: #1f78b4"/>
    </g>
    <g clip-path="url(#p0402e15110)">
     <use xlink:href="#C0_0_eab76bc1ec" x="777.535306" y="581.76" style="fill: #1f78b4; stroke: #1f78b4"/>
    </g>
    <g clip-path="url(#p0402e15110)">
     <use xlink:href="#C0_0_eab76bc1ec" x="766.841758" y="673.396364" style="fill: #1f78b4; stroke: #1f78b4"/>
    </g>
    <g clip-path="url(#p0402e15110)">
     <use xlink:href="#C0_0_eab76bc1ec" x="714.265147" y="765.032727" style="fill: #1f78b4; stroke: #1f78b4"/>
    </g>
    <g clip-path="url(#p0402e15110)">
     <use xlink:href="#C0_0_eab76bc1ec" x="703.5716" y="581.76" style="fill: #1f78b4; stroke: #1f78b4"/>
    </g>
    <g clip-path="url(#p0402e15110)">
     <use xlink:href="#C0_0_eab76bc1ec" x="890.708688" y="765.032727" style="fill: #1f78b4; stroke: #1f78b4"/>
    </g>
   </g>
   <g id="patch_95">
    <path d="M 144 1025.28 
L 144 138.24 
" style="fill: none; stroke: #000000; stroke-width: 0.8; stroke-linejoin: miter; stroke-linecap: square"/>
   </g>
   <g id="patch_96">
    <path d="M 1036.8 1025.28 
L 1036.8 138.24 
" style="fill: none; stroke: #000000; stroke-width: 0.8; stroke-linejoin: miter; stroke-linecap: square"/>
   </g>
   <g id="patch_97">
    <path d="M 144 1025.28 
L 1036.8 1025.28 
" style="fill: none; stroke: #000000; stroke-width: 0.8; stroke-linejoin: miter; stroke-linecap: square"/>
   </g>
   <g id="patch_98">
    <path d="M 144 138.24 
L 1036.8 138.24 
" style="fill: none; stroke: #000000; stroke-width: 0.8; stroke-linejoin: miter; stroke-linecap: square"/>
   </g>
   <g id="text_48">
    <g clip-path="url(#p0402e15110)">
     <!-- auth*(RC)* -->
     <g transform="translate(198.035486 309.886222)scale(0.11 -0.11)">
      <defs>
       <path id="DejaVuSans-2a" d="M 3009 3897 
L 1888 3291 
L 3009 2681 
L 2828 2375 
L 1778 3009 
L 1778 1831 
L 1422 1831 
L 1422 3009 
L 372 2375 
L 191 2681 
L 1313 3291 
L 191 3897 
L 372 4206 
L 1422 3572 
L 1422 4750 
L 1778 4750 
L 1778 3572 
L 2828 4206 
L 3009 3897 
z
" transform="scale(0.015625)"/>
       <path id="DejaVuSans-28" d="M 1984 4856 
Q 1566 4138 1362 3434 
Q 1159 2731 1159 2009 
Q 1159 1288 1364 580 
Q 1569 -128 1984 -844 
L 1484 -844 
Q 1016 -109 783 600 
Q 550 1309 550 2009 
Q 550 2706 781 3412 
Q 1013 4119 1484 4856 
L 1984 4856 
z
" transform="scale(0.015625)"/>
       <path id="DejaVuSans-52" d="M 2841 2188 
Q 3044 2119 3236 1894 
Q 3428 1669 3622 1275 
L 4263 0 
L 3584 0 
L 2988 1197 
Q 2756 1666 2539 1819 
Q 2322 1972 1947 1972 
L 1259 1972 
L 1259 0 
L 628 0 
L 628 4666 
L 2053 4666 
Q 2853 4666 3247 4331 
Q 3641 3997 3641 3322 
Q 3641 2881 3436 2590 
Q 3231 2300 2841 2188 
z
M 1259 4147 
L 1259 2491 
L 2053 2491 
Q 2509 2491 2742 2702 
Q 2975 2913 2975 3322 
Q 2975 3731 2742 3939 
Q 2509 4147 2053 4147 
L 1259 4147 
z
" transform="scale(0.015625)"/>
       <path id="DejaVuSans-43" d="M 4122 4306 
L 4122 3641 
Q 3803 3938 3442 4084 
Q 3081 4231 2675 4231 
Q 1875 4231 1450 3742 
Q 1025 3253 1025 2328 
Q 1025 1406 1450 917 
Q 1875 428 2675 428 
Q 3081 428 3442 575 
Q 3803 722 4122 1019 
L 4122 359 
Q 3791 134 3420 21 
Q 3050 -91 2638 -91 
Q 1578 -91 968 557 
Q 359 1206 359 2328 
Q 359 3453 968 4101 
Q 1578 4750 2638 4750 
Q 3056 4750 3426 4639 
Q 3797 4528 4122 4306 
z
" transform="scale(0.015625)"/>
       <path id="DejaVuSans-29" d="M 513 4856 
L 1013 4856 
Q 1481 4119 1714 3412 
Q 1947 2706 1947 2009 
Q 1947 1309 1714 600 
Q 1481 -109 1013 -844 
L 513 -844 
Q 928 -128 1133 580 
Q 1338 1288 1338 2009 
Q 1338 2731 1133 3434 
Q 928 4138 513 4856 
z
" transform="scale(0.015625)"/>
      </defs>
      <use xlink:href="#DejaVuSans-61"/>
      <use xlink:href="#DejaVuSans-75" x="61.279297"/>
      <use xlink:href="#DejaVuSans-74" x="124.658203"/>
      <use xlink:href="#DejaVuSans-68" x="163.867188"/>
      <use xlink:href="#DejaVuSans-2a" x="227.246094"/>
      <use xlink:href="#DejaVuSans-28" x="277.246094"/>
      <use xlink:href="#DejaVuSans-52" x="316.259766"/>
      <use xlink:href="#DejaVuSans-43" x="380.742188"/>
      <use xlink:href="#DejaVuSans-29" x="450.566406"/>
      <use xlink:href="#DejaVuSans-2a" x="489.580078"/>
     </g>
    </g>
   </g>
   <g id="text_49">
    <g clip-path="url(#p0402e15110)">
     <!-- verification-code -->
     <g transform="translate(175.402427 401.522585)scale(0.11 -0.11)">
      <defs>
       <path id="DejaVuSans-76" d="M 191 3500 
L 800 3500 
L 1894 563 
L 2988 3500 
L 3597 3500 
L 2284 0 
L 1503 0 
L 191 3500 
z
" transform="scale(0.015625)"/>
       <path id="DejaVuSans-72" d="M 2631 2963 
Q 2534 3019 2420 3045 
Q 2306 3072 2169 3072 
Q 1681 3072 1420 2755 
Q 1159 2438 1159 1844 
L 1159 0 
L 581 0 
L 581 3500 
L 1159 3500 
L 1159 2956 
Q 1341 3275 1631 3429 
Q 1922 3584 2338 3584 
Q 2397 3584 2469 3576 
Q 2541 3569 2628 3553 
L 2631 2963 
z
" transform="scale(0.015625)"/>
       <path id="DejaVuSans-69" d="M 603 3500 
L 1178 3500 
L 1178 0 
L 603 0 
L 603 3500 
z
M 603 4863 
L 1178 4863 
L 1178 4134 
L 603 4134 
L 603 4863 
z
" transform="scale(0.015625)"/>
       <path id="DejaVuSans-66" d="M 2375 4863 
L 2375 4384 
L 1825 4384 
Q 1516 4384 1395 4259 
Q 1275 4134 1275 3809 
L 1275 3500 
L 2222 3500 
L 2222 3053 
L 1275 3053 
L 1275 0 
L 697 0 
L 697 3053 
L 147 3053 
L 147 3500 
L 697 3500 
L 697 3744 
Q 697 4328 969 4595 
Q 1241 4863 1831 4863 
L 2375 4863 
z
" transform="scale(0.015625)"/>
       <path id="DejaVuSans-6f" d="M 1959 3097 
Q 1497 3097 1228 2736 
Q 959 2375 959 1747 
Q 959 1119 1226 758 
Q 1494 397 1959 397 
Q 2419 397 2687 759 
Q 2956 1122 2956 1747 
Q 2956 2369 2687 2733 
Q 2419 3097 1959 3097 
z
M 1959 3584 
Q 2709 3584 3137 3096 
Q 3566 2609 3566 1747 
Q 3566 888 3137 398 
Q 2709 -91 1959 -91 
Q 1206 -91 779 398 
Q 353 888 353 1747 
Q 353 2609 779 3096 
Q 1206 3584 1959 3584 
z
" transform="scale(0.015625)"/>
       <path id="DejaVuSans-2d" d="M 313 2009 
L 1997 2009 
L 1997 1497 
L 313 1497 
L 313 2009 
z
" transform="scale(0.015625)"/>
       <path id="DejaVuSans-64" d="M 2906 2969 
L 2906 4863 
L 3481 4863 
L 3481 0 
L 2906 0 
L 2906 525 
Q 2725 213 2448 61 
Q 2172 -91 1784 -91 
Q 1150 -91 751 415 
Q 353 922 353 1747 
Q 353 2572 751 3078 
Q 1150 3584 1784 3584 
Q 2172 3584 2448 3432 
Q 2725 3281 2906 2969 
z
M 947 1747 
Q 947 1113 1208 752 
Q 1469 391 1925 391 
Q 2381 391 2643 752 
Q 2906 1113 2906 1747 
Q 2906 2381 2643 2742 
Q 2381 3103 1925 3103 
Q 1469 3103 1208 2742 
Q 947 2381 947 1747 
z
" transform="scale(0.015625)"/>
      </defs>
      <use xlink:href="#DejaVuSans-76"/>
      <use xlink:href="#DejaVuSans-65" x="59.179688"/>
      <use xlink:href="#DejaVuSans-72" x="120.703125"/>
      <use xlink:href="#DejaVuSans-69" x="161.816406"/>
      <use xlink:href="#DejaVuSans-66" x="189.599609"/>
      <use xlink:href="#DejaVuSans-69" x="224.804688"/>
      <use xlink:href="#DejaVuSans-63" x="252.587891"/>
      <use xlink:href="#DejaVuSans-61" x="307.568359"/>
      <use xlink:href="#DejaVuSans-74" x="368.847656"/>
      <use xlink:href="#DejaVuSans-69" x="408.056641"/>
      <use xlink:href="#DejaVuSans-6f" x="435.839844"/>
      <use xlink:href="#DejaVuSans-6e" x="497.021484"/>
      <use xlink:href="#DejaVuSans-2d" x="560.400391"/>
      <use xlink:href="#DejaVuSans-63" x="596.484375"/>
      <use xlink:href="#DejaVuSans-6f" x="651.464844"/>
      <use xlink:href="#DejaVuSans-64" x="712.646484"/>
      <use xlink:href="#DejaVuSans-65" x="776.123047"/>
     </g>
    </g>
   </g>
   <g id="text_50">
    <g clip-path="url(#p0402e15110)">
     <!-- basic -->
     <g transform="translate(790.880929 859.704403)scale(0.11 -0.11)">
      <defs>
       <path id="DejaVuSans-62" d="M 3116 1747 
Q 3116 2381 2855 2742 
Q 2594 3103 2138 3103 
Q 1681 3103 1420 2742 
Q 1159 2381 1159 1747 
Q 1159 1113 1420 752 
Q 1681 391 2138 391 
Q 2594 391 2855 752 
Q 3116 1113 3116 1747 
z
M 1159 2969 
Q 1341 3281 1617 3432 
Q 1894 3584 2278 3584 
Q 2916 3584 3314 3078 
Q 3713 2572 3713 1747 
Q 3713 922 3314 415 
Q 2916 -91 2278 -91 
Q 1894 -91 1617 61 
Q 1341 213 1159 525 
L 1159 0 
L 581 0 
L 581 4863 
L 1159 4863 
L 1159 2969 
z
" transform="scale(0.015625)"/>
      </defs>
      <use xlink:href="#DejaVuSans-62"/>
      <use xlink:href="#DejaVuSans-61" x="63.476562"/>
      <use xlink:href="#DejaVuSans-73" x="124.755859"/>
      <use xlink:href="#DejaVuSans-69" x="176.855469"/>
      <use xlink:href="#DejaVuSans-63" x="204.638672"/>
     </g>
    </g>
   </g>
   <g id="text_51">
    <g clip-path="url(#p0402e15110)">
     <!-- price -->
     <g transform="translate(791.47132 951.340767)scale(0.11 -0.11)">
      <use xlink:href="#DejaVuSans-70"/>
      <use xlink:href="#DejaVuSans-72" x="63.476562"/>
      <use xlink:href="#DejaVuSans-69" x="104.589844"/>
      <use xlink:href="#DejaVuSans-63" x="132.373047"/>
      <use xlink:href="#DejaVuSans-65" x="187.353516"/>
     </g>
    </g>
   </g>
   <g id="text_52">
    <g clip-path="url(#p0402e15110)">
     <!-- route -->
     <g transform="translate(723.797036 951.340767)scale(0.11 -0.11)">
      <use xlink:href="#DejaVuSans-72"/>
      <use xlink:href="#DejaVuSans-6f" x="38.863281"/>
      <use xlink:href="#DejaVuSans-75" x="100.044922"/>
      <use xlink:href="#DejaVuSans-74" x="163.423828"/>
      <use xlink:href="#DejaVuSans-65" x="202.632812"/>
     </g>
    </g>
   </g>
   <g id="text_53">
    <g clip-path="url(#p0402e15110)">
     <!-- station -->
     <g transform="translate(575.035859 951.340767)scale(0.11 -0.11)">
      <use xlink:href="#DejaVuSans-73"/>
      <use xlink:href="#DejaVuSans-74" x="52.099609"/>
      <use xlink:href="#DejaVuSans-61" x="91.308594"/>
      <use xlink:href="#DejaVuSans-74" x="152.587891"/>
      <use xlink:href="#DejaVuSans-69" x="191.796875"/>
      <use xlink:href="#DejaVuSans-6f" x="219.580078"/>
      <use xlink:href="#DejaVuSans-6e" x="280.761719"/>
     </g>
    </g>
   </g>
   <g id="text_54">
    <g clip-path="url(#p0402e15110)">
     <!-- train -->
     <g transform="translate(858.3026 951.340767)scale(0.11 -0.11)">
      <use xlink:href="#DejaVuSans-74"/>
      <use xlink:href="#DejaVuSans-72" x="39.208984"/>
      <use xlink:href="#DejaVuSans-61" x="80.322266"/>
      <use xlink:href="#DejaVuSans-69" x="141.601562"/>
      <use xlink:href="#DejaVuSans-6e" x="169.384766"/>
     </g>
    </g>
   </g>
   <g id="text_55">
    <g clip-path="url(#p0402e15110)">
     <!-- gateway -->
     <g transform="translate(544.593743 218.249858)scale(0.11 -0.11)">
      <defs>
       <path id="DejaVuSans-67" d="M 2906 1791 
Q 2906 2416 2648 2759 
Q 2391 3103 1925 3103 
Q 1463 3103 1205 2759 
Q 947 2416 947 1791 
Q 947 1169 1205 825 
Q 1463 481 1925 481 
Q 2391 481 2648 825 
Q 2906 1169 2906 1791 
z
M 3481 434 
Q 3481 -459 3084 -895 
Q 2688 -1331 1869 -1331 
Q 1566 -1331 1297 -1286 
Q 1028 -1241 775 -1147 
L 775 -588 
Q 1028 -725 1275 -790 
Q 1522 -856 1778 -856 
Q 2344 -856 2625 -561 
Q 2906 -266 2906 331 
L 2906 616 
Q 2728 306 2450 153 
Q 2172 0 1784 0 
Q 1141 0 747 490 
Q 353 981 353 1791 
Q 353 2603 747 3093 
Q 1141 3584 1784 3584 
Q 2172 3584 2450 3431 
Q 2728 3278 2906 2969 
L 2906 3500 
L 3481 3500 
L 3481 434 
z
" transform="scale(0.015625)"/>
       <path id="DejaVuSans-77" d="M 269 3500 
L 844 3500 
L 1563 769 
L 2278 3500 
L 2956 3500 
L 3675 769 
L 4391 3500 
L 4966 3500 
L 4050 0 
L 3372 0 
L 2619 2869 
L 1863 0 
L 1184 0 
L 269 3500 
z
" transform="scale(0.015625)"/>
      </defs>
      <use xlink:href="#DejaVuSans-67"/>
      <use xlink:href="#DejaVuSans-61" x="63.476562"/>
      <use xlink:href="#DejaVuSans-74" x="124.755859"/>
      <use xlink:href="#DejaVuSans-65" x="163.964844"/>
      <use xlink:href="#DejaVuSans-77" x="225.488281"/>
      <use xlink:href="#DejaVuSans-61" x="307.275391"/>
      <use xlink:href="#DejaVuSans-79" x="368.554688"/>
     </g>
    </g>
   </g>
   <g id="text_56">
    <g clip-path="url(#p0402e15110)">
     <!-- assurance -->
     <g transform="translate(312.770225 401.522585)scale(0.11 -0.11)">
      <use xlink:href="#DejaVuSans-61"/>
      <use xlink:href="#DejaVuSans-73" x="61.279297"/>
      <use xlink:href="#DejaVuSans-73" x="113.378906"/>
      <use xlink:href="#DejaVuSans-75" x="165.478516"/>
      <use xlink:href="#DejaVuSans-72" x="228.857422"/>
      <use xlink:href="#DejaVuSans-61" x="269.970703"/>
      <use xlink:href="#DejaVuSans-6e" x="331.25"/>
      <use xlink:href="#DejaVuSans-63" x="394.628906"/>
      <use xlink:href="#DejaVuSans-65" x="449.609375"/>
     </g>
    </g>
   </g>
   <g id="text_57">
    <g clip-path="url(#p0402e15110)">
     <!-- consign -->
     <g transform="translate(742.922902 309.886222)scale(0.11 -0.11)">
      <use xlink:href="#DejaVuSans-63"/>
      <use xlink:href="#DejaVuSans-6f" x="54.980469"/>
      <use xlink:href="#DejaVuSans-6e" x="116.162109"/>
      <use xlink:href="#DejaVuSans-73" x="179.541016"/>
      <use xlink:href="#DejaVuSans-69" x="231.640625"/>
      <use xlink:href="#DejaVuSans-67" x="259.423828"/>
      <use xlink:href="#DejaVuSans-6e" x="322.900391"/>
     </g>
    </g>
   </g>
   <g id="text_58">
    <g clip-path="url(#p0402e15110)">
     <!-- contacts -->
     <g transform="translate(826.269566 309.886222)scale(0.11 -0.11)">
      <use xlink:href="#DejaVuSans-63"/>
      <use xlink:href="#DejaVuSans-6f" x="54.980469"/>
      <use xlink:href="#DejaVuSans-6e" x="116.162109"/>
      <use xlink:href="#DejaVuSans-74" x="179.541016"/>
      <use xlink:href="#DejaVuSans-61" x="218.75"/>
      <use xlink:href="#DejaVuSans-63" x="280.029297"/>
      <use xlink:href="#DejaVuSans-74" x="335.009766"/>
      <use xlink:href="#DejaVuSans-73" x="374.21875"/>
     </g>
    </g>
   </g>
   <g id="text_59">
    <g clip-path="url(#p0402e15110)">
     <!-- food -->
     <g transform="translate(408.925272 401.522585)scale(0.11 -0.11)">
      <use xlink:href="#DejaVuSans-66"/>
      <use xlink:href="#DejaVuSans-6f" x="35.205078"/>
      <use xlink:href="#DejaVuSans-6f" x="96.386719"/>
      <use xlink:href="#DejaVuSans-64" x="157.568359"/>
     </g>
    </g>
   </g>
   <g id="text_60">
    <g clip-path="url(#p0402e15110)">
     <!-- order -->
     <g transform="translate(579.295781 676.431676)scale(0.11 -0.11)">
      <use xlink:href="#DejaVuSans-6f"/>
      <use xlink:href="#DejaVuSans-72" x="61.181641"/>
      <use xlink:href="#DejaVuSans-64" x="100.544922"/>
      <use xlink:href="#DejaVuSans-65" x="164.021484"/>
      <use xlink:href="#DejaVuSans-72" x="225.544922"/>
     </g>
    </g>
   </g>
   <g id="text_61">
    <g clip-path="url(#p0402e15110)">
     <!-- preserve -->
     <g transform="translate(461.08195 309.886222)scale(0.11 -0.11)">
      <use xlink:href="#DejaVuSans-70"/>
      <use xlink:href="#DejaVuSans-72" x="63.476562"/>
      <use xlink:href="#DejaVuSans-65" x="102.339844"/>
      <use xlink:href="#DejaVuSans-73" x="163.863281"/>
      <use xlink:href="#DejaVuSans-65" x="215.962891"/>
      <use xlink:href="#DejaVuSans-72" x="277.486328"/>
      <use xlink:href="#DejaVuSans-76" x="318.599609"/>
      <use xlink:href="#DejaVuSans-65" x="377.779297"/>
     </g>
    </g>
   </g>
   <g id="text_62">
    <g clip-path="url(#p0402e15110)">
     <!-- travel -->
     <g transform="translate(761.58015 493.158949)scale(0.11 -0.11)">
      <use xlink:href="#DejaVuSans-74"/>
      <use xlink:href="#DejaVuSans-72" x="39.208984"/>
      <use xlink:href="#DejaVuSans-61" x="80.322266"/>
      <use xlink:href="#DejaVuSans-76" x="141.601562"/>
      <use xlink:href="#DejaVuSans-65" x="200.78125"/>
      <use xlink:href="#DejaVuSans-6c" x="262.304688"/>
     </g>
    </g>
   </g>
   <g id="text_63">
    <g clip-path="url(#p0402e15110)">
     <!-- travel-plan -->
     <g transform="translate(640.784671 309.886222)scale(0.11 -0.11)">
      <use xlink:href="#DejaVuSans-74"/>
      <use xlink:href="#DejaVuSans-72" x="39.208984"/>
      <use xlink:href="#DejaVuSans-61" x="80.322266"/>
      <use xlink:href="#DejaVuSans-76" x="141.601562"/>
      <use xlink:href="#DejaVuSans-65" x="200.78125"/>
      <use xlink:href="#DejaVuSans-6c" x="262.304688"/>
      <use xlink:href="#DejaVuSans-2d" x="290.087891"/>
      <use xlink:href="#DejaVuSans-70" x="326.171875"/>
      <use xlink:href="#DejaVuSans-6c" x="389.648438"/>
      <use xlink:href="#DejaVuSans-61" x="417.431641"/>
      <use xlink:href="#DejaVuSans-6e" x="478.710938"/>
     </g>
    </g>
   </g>
   <g id="text_64">
    <g clip-path="url(#p0402e15110)">
     <!-- ts-ui-dashboard -->
     <g transform="translate(916.225385 309.886222)scale(0.11 -0.11)">
      <use xlink:href="#DejaVuSans-74"/>
      <use xlink:href="#DejaVuSans-73" x="39.208984"/>
      <use xlink:href="#DejaVuSans-2d" x="91.308594"/>
      <use xlink:href="#DejaVuSans-75" x="127.392578"/>
      <use xlink:href="#DejaVuSans-69" x="190.771484"/>
      <use xlink:href="#DejaVuSans-2d" x="218.554688"/>
      <use xlink:href="#DejaVuSans-64" x="254.638672"/>
      <use xlink:href="#DejaVuSans-61" x="318.115234"/>
      <use xlink:href="#DejaVuSans-73" x="379.394531"/>
      <use xlink:href="#DejaVuSans-68" x="431.494141"/>
      <use xlink:href="#DejaVuSans-62" x="494.873047"/>
      <use xlink:href="#DejaVuSans-6f" x="558.349609"/>
      <use xlink:href="#DejaVuSans-61" x="619.53125"/>
      <use xlink:href="#DejaVuSans-72" x="680.810547"/>
      <use xlink:href="#DejaVuSans-64" x="720.173828"/>
     </g>
    </g>
   </g>
   <g id="text_65">
    <g clip-path="url(#p0402e15110)">
     <!-- user -->
     <g transform="translate(473.248981 401.522585)scale(0.11 -0.11)">
      <use xlink:href="#DejaVuSans-75"/>
      <use xlink:href="#DejaVuSans-73" x="63.378906"/>
      <use xlink:href="#DejaVuSans-65" x="115.478516"/>
      <use xlink:href="#DejaVuSans-72" x="177.001953"/>
     </g>
    </g>
   </g>
   <g id="text_66">
    <g clip-path="url(#p0402e15110)">
     <!-- route-plan -->
     <g transform="translate(749.146712 401.522585)scale(0.11 -0.11)">
      <use xlink:href="#DejaVuSans-72"/>
      <use xlink:href="#DejaVuSans-6f" x="38.863281"/>
      <use xlink:href="#DejaVuSans-75" x="100.044922"/>
      <use xlink:href="#DejaVuSans-74" x="163.423828"/>
      <use xlink:href="#DejaVuSans-65" x="202.632812"/>
      <use xlink:href="#DejaVuSans-2d" x="264.15625"/>
      <use xlink:href="#DejaVuSans-70" x="300.240234"/>
      <use xlink:href="#DejaVuSans-6c" x="363.716797"/>
      <use xlink:href="#DejaVuSans-61" x="391.5"/>
      <use xlink:href="#DejaVuSans-6e" x="452.779297"/>
     </g>
    </g>
   </g>
   <g id="text_67">
    <g clip-path="url(#p0402e15110)">
     <!-- travel2 -->
     <g transform="translate(824.02432 676.431676)scale(0.11 -0.11)">
      <use xlink:href="#DejaVuSans-74"/>
      <use xlink:href="#DejaVuSans-72" x="39.208984"/>
      <use xlink:href="#DejaVuSans-61" x="80.322266"/>
      <use xlink:href="#DejaVuSans-76" x="141.601562"/>
      <use xlink:href="#DejaVuSans-65" x="200.78125"/>
      <use xlink:href="#DejaVuSans-6c" x="262.304688"/>
      <use xlink:href="#DejaVuSans-32" x="290.087891"/>
     </g>
    </g>
   </g>
   <g id="text_68">
    <g clip-path="url(#p0402e15110)">
     <!-- seat -->
     <g transform="translate(765.75929 584.795313)scale(0.11 -0.11)">
      <use xlink:href="#DejaVuSans-73"/>
      <use xlink:href="#DejaVuSans-65" x="52.099609"/>
      <use xlink:href="#DejaVuSans-61" x="113.623047"/>
      <use xlink:href="#DejaVuSans-74" x="174.902344"/>
     </g>
    </g>
   </g>
   <g id="text_69">
    <g clip-path="url(#p0402e15110)">
     <!-- config -->
     <g transform="translate(750.010898 676.431676)scale(0.11 -0.11)">
      <use xlink:href="#DejaVuSans-63"/>
      <use xlink:href="#DejaVuSans-6f" x="54.980469"/>
      <use xlink:href="#DejaVuSans-6e" x="116.162109"/>
      <use xlink:href="#DejaVuSans-66" x="179.541016"/>
      <use xlink:href="#DejaVuSans-69" x="214.746094"/>
      <use xlink:href="#DejaVuSans-67" x="242.529297"/>
     </g>
    </g>
   </g>
   <g id="text_70">
    <g clip-path="url(#p0402e15110)">
     <!-- order-other -->
     <g transform="translate(683.209054 768.06804)scale(0.11 -0.11)">
      <use xlink:href="#DejaVuSans-6f"/>
      <use xlink:href="#DejaVuSans-72" x="61.181641"/>
      <use xlink:href="#DejaVuSans-64" x="100.544922"/>
      <use xlink:href="#DejaVuSans-65" x="164.021484"/>
      <use xlink:href="#DejaVuSans-72" x="225.544922"/>
      <use xlink:href="#DejaVuSans-2d" x="260.283203"/>
      <use xlink:href="#DejaVuSans-6f" x="298.242188"/>
      <use xlink:href="#DejaVuSans-74" x="359.423828"/>
      <use xlink:href="#DejaVuSans-68" x="398.632812"/>
      <use xlink:href="#DejaVuSans-65" x="462.011719"/>
      <use xlink:href="#DejaVuSans-72" x="523.535156"/>
     </g>
    </g>
   </g>
   <g id="text_71">
    <g clip-path="url(#p0402e15110)">
     <!-- security -->
     <g transform="translate(681.61199 584.795313)scale(0.11 -0.11)">
      <use xlink:href="#DejaVuSans-73"/>
      <use xlink:href="#DejaVuSans-65" x="52.099609"/>
      <use xlink:href="#DejaVuSans-63" x="113.623047"/>
      <use xlink:href="#DejaVuSans-75" x="168.603516"/>
      <use xlink:href="#DejaVuSans-72" x="231.982422"/>
      <use xlink:href="#DejaVuSans-69" x="273.095703"/>
      <use xlink:href="#DejaVuSans-74" x="300.878906"/>
      <use xlink:href="#DejaVuSans-79" x="340.087891"/>
     </g>
    </g>
   </g>
   <g id="text_72">
    <g clip-path="url(#p0402e15110)">
     <!-- ticketinfo -->
     <g transform="translate(865.159469 768.06804)scale(0.11 -0.11)">
      <defs>
       <path id="DejaVuSans-6b" d="M 581 4863 
L 1159 4863 
L 1159 1991 
L 2875 3500 
L 3609 3500 
L 1753 1863 
L 3688 0 
L 2938 0 
L 1159 1709 
L 1159 0 
L 581 0 
L 581 4863 
z
" transform="scale(0.015625)"/>
      </defs>
      <use xlink:href="#DejaVuSans-74"/>
      <use xlink:href="#DejaVuSans-69" x="39.208984"/>
      <use xlink:href="#DejaVuSans-63" x="66.992188"/>
      <use xlink:href="#DejaVuSans-6b" x="121.972656"/>
      <use xlink:href="#DejaVuSans-65" x="176.257812"/>
      <use xlink:href="#DejaVuSans-74" x="237.78125"/>
      <use xlink:href="#DejaVuSans-69" x="276.990234"/>
      <use xlink:href="#DejaVuSans-6e" x="304.773438"/>
      <use xlink:href="#DejaVuSans-66" x="368.152344"/>
      <use xlink:href="#DejaVuSans-6f" x="403.357422"/>
     </g>
    </g>
   </g>
  </g>
 </g>
 <defs>
  <clipPath id="p0402e15110">
   <rect x="144" y="138.24" width="892.8" height="887.04"/>
  </clipPath>
 </defs>
</svg>
