<?xml version="1.0" encoding="utf-8" standalone="no"?>
<!DOCTYPE svg PUBLIC "-//W3C//DTD SVG 1.1//EN"
  "http://www.w3.org/Graphics/SVG/1.1/DTD/svg11.dtd">
<svg xmlns:xlink="http://www.w3.org/1999/xlink" width="1152pt" height="1152pt" viewBox="0 0 1152 1152" xmlns="http://www.w3.org/2000/svg" version="1.1">
 <metadata>
  <rdf:RDF xmlns:dc="http://purl.org/dc/elements/1.1/" xmlns:cc="http://creativecommons.org/ns#" xmlns:rdf="http://www.w3.org/1999/02/22-rdf-syntax-ns#">
   <cc:Work>
    <dc:type rdf:resource="http://purl.org/dc/dcmitype/StillImage"/>
    <dc:date>2022-11-17T01:45:35.715344</dc:date>
    <dc:format>image/svg+xml</dc:format>
    <dc:creator>
     <cc:Agent>
      <dc:title>Matplotlib v3.5.3, https://matplotlib.org/</dc:title>
     </cc:Agent>
    </dc:creator>
   </cc:Work>
  </rdf:RDF>
 </metadata>
 <defs>
  <style type="text/css">*{stroke-linejoin: round; stroke-linecap: butt}</style>
 </defs>
 <g id="figure_1">
  <g id="patch_1">
   <path d="M 0 1152 
L 1152 1152 
L 1152 0 
L 0 0 
z
" style="fill: #ffffff"/>
  </g>
  <g id="axes_1">
   <g id="patch_2">
    <path d="M 144 1025.28 
L 1036.8 1025.28 
L 1036.8 138.24 
L 144 138.24 
z
" style="fill: #ffffff"/>
   </g>
   <g id="text_1">
    <g id="patch_3">
     <path d="M 641.462666 273.26608 
L 641.462666 328.90733 
Q 641.462666 331.30733 643.862666 331.30733 
L 651.827666 331.30733 
Q 654.227666 331.30733 654.227666 328.90733 
L 654.227666 273.26608 
Q 654.227666 270.86608 651.827666 270.86608 
L 643.862666 270.86608 
Q 641.462666 270.86608 641.462666 273.26608 
L 641.462666 273.26608 
z
" clip-path="url(#p0b2b62fb52)" style="fill: none"/>
    </g>
    <g clip-path="url(#p0b2b62fb52)">
     <!-- ['http_status'] -->
     <g transform="translate(645.748916 273.26608)rotate(-270)scale(0.08 -0.08)">
      <defs>
       <path id="DejaVuSans-5b" d="M 550 4863 
L 1875 4863 
L 1875 4416 
L 1125 4416 
L 1125 -397 
L 1875 -397 
L 1875 -844 
L 550 -844 
L 550 4863 
z
" transform="scale(0.015625)"/>
       <path id="DejaVuSans-27" d="M 1147 4666 
L 1147 2931 
L 616 2931 
L 616 4666 
L 1147 4666 
z
" transform="scale(0.015625)"/>
       <path id="DejaVuSans-68" d="M 3513 2113 
L 3513 0 
L 2938 0 
L 2938 2094 
Q 2938 2591 2744 2837 
Q 2550 3084 2163 3084 
Q 1697 3084 1428 2787 
Q 1159 2491 1159 1978 
L 1159 0 
L 581 0 
L 581 4863 
L 1159 4863 
L 1159 2956 
Q 1366 3272 1645 3428 
Q 1925 3584 2291 3584 
Q 2894 3584 3203 3211 
Q 3513 2838 3513 2113 
z
" transform="scale(0.015625)"/>
       <path id="DejaVuSans-74" d="M 1172 4494 
L 1172 3500 
L 2356 3500 
L 2356 3053 
L 1172 3053 
L 1172 1153 
Q 1172 725 1289 603 
Q 1406 481 1766 481 
L 2356 481 
L 2356 0 
L 1766 0 
Q 1100 0 847 248 
Q 594 497 594 1153 
L 594 3053 
L 172 3053 
L 172 3500 
L 594 3500 
L 594 4494 
L 1172 4494 
z
" transform="scale(0.015625)"/>
       <path id="DejaVuSans-70" d="M 1159 525 
L 1159 -1331 
L 581 -1331 
L 581 3500 
L 1159 3500 
L 1159 2969 
Q 1341 3281 1617 3432 
Q 1894 3584 2278 3584 
Q 2916 3584 3314 3078 
Q 3713 2572 3713 1747 
Q 3713 922 3314 415 
Q 2916 -91 2278 -91 
Q 1894 -91 1617 61 
Q 1341 213 1159 525 
z
M 3116 1747 
Q 3116 2381 2855 2742 
Q 2594 3103 2138 3103 
Q 1681 3103 1420 2742 
Q 1159 2381 1159 1747 
Q 1159 1113 1420 752 
Q 1681 391 2138 391 
Q 2594 391 2855 752 
Q 3116 1113 3116 1747 
z
" transform="scale(0.015625)"/>
       <path id="DejaVuSans-5f" d="M 3263 -1063 
L 3263 -1509 
L -63 -1509 
L -63 -1063 
L 3263 -1063 
z
" transform="scale(0.015625)"/>
       <path id="DejaVuSans-73" d="M 2834 3397 
L 2834 2853 
Q 2591 2978 2328 3040 
Q 2066 3103 1784 3103 
Q 1356 3103 1142 2972 
Q 928 2841 928 2578 
Q 928 2378 1081 2264 
Q 1234 2150 1697 2047 
L 1894 2003 
Q 2506 1872 2764 1633 
Q 3022 1394 3022 966 
Q 3022 478 2636 193 
Q 2250 -91 1575 -91 
Q 1294 -91 989 -36 
Q 684 19 347 128 
L 347 722 
Q 666 556 975 473 
Q 1284 391 1588 391 
Q 1994 391 2212 530 
Q 2431 669 2431 922 
Q 2431 1156 2273 1281 
Q 2116 1406 1581 1522 
L 1381 1569 
Q 847 1681 609 1914 
Q 372 2147 372 2553 
Q 372 3047 722 3315 
Q 1072 3584 1716 3584 
Q 2034 3584 2315 3537 
Q 2597 3491 2834 3397 
z
" transform="scale(0.015625)"/>
       <path id="DejaVuSans-61" d="M 2194 1759 
Q 1497 1759 1228 1600 
Q 959 1441 959 1056 
Q 959 750 1161 570 
Q 1363 391 1709 391 
Q 2188 391 2477 730 
Q 2766 1069 2766 1631 
L 2766 1759 
L 2194 1759 
z
M 3341 1997 
L 3341 0 
L 2766 0 
L 2766 531 
Q 2569 213 2275 61 
Q 1981 -91 1556 -91 
Q 1019 -91 701 211 
Q 384 513 384 1019 
Q 384 1609 779 1909 
Q 1175 2209 1959 2209 
L 2766 2209 
L 2766 2266 
Q 2766 2663 2505 2880 
Q 2244 3097 1772 3097 
Q 1472 3097 1187 3025 
Q 903 2953 641 2809 
L 641 3341 
Q 956 3463 1253 3523 
Q 1550 3584 1831 3584 
Q 2591 3584 2966 3190 
Q 3341 2797 3341 1997 
z
" transform="scale(0.015625)"/>
       <path id="DejaVuSans-75" d="M 544 1381 
L 544 3500 
L 1119 3500 
L 1119 1403 
Q 1119 906 1312 657 
Q 1506 409 1894 409 
Q 2359 409 2629 706 
Q 2900 1003 2900 1516 
L 2900 3500 
L 3475 3500 
L 3475 0 
L 2900 0 
L 2900 538 
Q 2691 219 2414 64 
Q 2138 -91 1772 -91 
Q 1169 -91 856 284 
Q 544 659 544 1381 
z
M 1991 3584 
L 1991 3584 
z
" transform="scale(0.015625)"/>
       <path id="DejaVuSans-5d" d="M 1947 4863 
L 1947 -844 
L 622 -844 
L 622 -397 
L 1369 -397 
L 1369 4416 
L 622 4416 
L 622 4863 
L 1947 4863 
z
" transform="scale(0.015625)"/>
      </defs>
      <use xlink:href="#DejaVuSans-5b"/>
      <use xlink:href="#DejaVuSans-27" x="39.013672"/>
      <use xlink:href="#DejaVuSans-68" x="66.503906"/>
      <use xlink:href="#DejaVuSans-74" x="129.882812"/>
      <use xlink:href="#DejaVuSans-74" x="169.091797"/>
      <use xlink:href="#DejaVuSans-70" x="208.300781"/>
      <use xlink:href="#DejaVuSans-5f" x="271.777344"/>
      <use xlink:href="#DejaVuSans-73" x="321.777344"/>
      <use xlink:href="#DejaVuSans-74" x="373.876953"/>
      <use xlink:href="#DejaVuSans-61" x="413.085938"/>
      <use xlink:href="#DejaVuSans-74" x="474.365234"/>
      <use xlink:href="#DejaVuSans-75" x="513.574219"/>
      <use xlink:href="#DejaVuSans-73" x="576.953125"/>
      <use xlink:href="#DejaVuSans-27" x="629.052734"/>
      <use xlink:href="#DejaVuSans-5d" x="656.542969"/>
     </g>
    </g>
   </g>
   <g id="text_2">
    <g id="patch_4">
     <path d="M 653.28289 282.06724 
L 733.534573 331.987614 
Q 735.572469 333.255282 736.840137 331.217387 
L 741.04721 324.454121 
Q 742.314878 322.416226 740.276983 321.148558 
L 660.0253 271.228184 
Q 657.987404 269.960516 656.719736 271.998411 
L 652.512663 278.761677 
Q 651.244995 280.799572 653.28289 282.06724 
L 653.28289 282.06724 
z
" clip-path="url(#p0b2b62fb52)" style="fill: none"/>
    </g>
    <g clip-path="url(#p0b2b62fb52)">
     <!-- ['latency', 'http_status'] -->
     <g transform="translate(655.546866 278.427686)rotate(-328.116418)scale(0.08 -0.08)">
      <defs>
       <path id="DejaVuSans-6c" d="M 603 4863 
L 1178 4863 
L 1178 0 
L 603 0 
L 603 4863 
z
" transform="scale(0.015625)"/>
       <path id="DejaVuSans-65" d="M 3597 1894 
L 3597 1613 
L 953 1613 
Q 991 1019 1311 708 
Q 1631 397 2203 397 
Q 2534 397 2845 478 
Q 3156 559 3463 722 
L 3463 178 
Q 3153 47 2828 -22 
Q 2503 -91 2169 -91 
Q 1331 -91 842 396 
Q 353 884 353 1716 
Q 353 2575 817 3079 
Q 1281 3584 2069 3584 
Q 2775 3584 3186 3129 
Q 3597 2675 3597 1894 
z
M 3022 2063 
Q 3016 2534 2758 2815 
Q 2500 3097 2075 3097 
Q 1594 3097 1305 2825 
Q 1016 2553 972 2059 
L 3022 2063 
z
" transform="scale(0.015625)"/>
       <path id="DejaVuSans-6e" d="M 3513 2113 
L 3513 0 
L 2938 0 
L 2938 2094 
Q 2938 2591 2744 2837 
Q 2550 3084 2163 3084 
Q 1697 3084 1428 2787 
Q 1159 2491 1159 1978 
L 1159 0 
L 581 0 
L 581 3500 
L 1159 3500 
L 1159 2956 
Q 1366 3272 1645 3428 
Q 1925 3584 2291 3584 
Q 2894 3584 3203 3211 
Q 3513 2838 3513 2113 
z
" transform="scale(0.015625)"/>
       <path id="DejaVuSans-63" d="M 3122 3366 
L 3122 2828 
Q 2878 2963 2633 3030 
Q 2388 3097 2138 3097 
Q 1578 3097 1268 2742 
Q 959 2388 959 1747 
Q 959 1106 1268 751 
Q 1578 397 2138 397 
Q 2388 397 2633 464 
Q 2878 531 3122 666 
L 3122 134 
Q 2881 22 2623 -34 
Q 2366 -91 2075 -91 
Q 1284 -91 818 406 
Q 353 903 353 1747 
Q 353 2603 823 3093 
Q 1294 3584 2113 3584 
Q 2378 3584 2631 3529 
Q 2884 3475 3122 3366 
z
" transform="scale(0.015625)"/>
       <path id="DejaVuSans-79" d="M 2059 -325 
Q 1816 -950 1584 -1140 
Q 1353 -1331 966 -1331 
L 506 -1331 
L 506 -850 
L 844 -850 
Q 1081 -850 1212 -737 
Q 1344 -625 1503 -206 
L 1606 56 
L 191 3500 
L 800 3500 
L 1894 763 
L 2988 3500 
L 3597 3500 
L 2059 -325 
z
" transform="scale(0.015625)"/>
       <path id="DejaVuSans-2c" d="M 750 794 
L 1409 794 
L 1409 256 
L 897 -744 
L 494 -744 
L 750 256 
L 750 794 
z
" transform="scale(0.015625)"/>
       <path id="DejaVuSans-20" transform="scale(0.015625)"/>
      </defs>
      <use xlink:href="#DejaVuSans-5b"/>
      <use xlink:href="#DejaVuSans-27" x="39.013672"/>
      <use xlink:href="#DejaVuSans-6c" x="66.503906"/>
      <use xlink:href="#DejaVuSans-61" x="94.287109"/>
      <use xlink:href="#DejaVuSans-74" x="155.566406"/>
      <use xlink:href="#DejaVuSans-65" x="194.775391"/>
      <use xlink:href="#DejaVuSans-6e" x="256.298828"/>
      <use xlink:href="#DejaVuSans-63" x="319.677734"/>
      <use xlink:href="#DejaVuSans-79" x="374.658203"/>
      <use xlink:href="#DejaVuSans-27" x="433.837891"/>
      <use xlink:href="#DejaVuSans-2c" x="461.328125"/>
      <use xlink:href="#DejaVuSans-20" x="493.115234"/>
      <use xlink:href="#DejaVuSans-27" x="524.902344"/>
      <use xlink:href="#DejaVuSans-68" x="552.392578"/>
      <use xlink:href="#DejaVuSans-74" x="615.771484"/>
      <use xlink:href="#DejaVuSans-74" x="654.980469"/>
      <use xlink:href="#DejaVuSans-70" x="694.189453"/>
      <use xlink:href="#DejaVuSans-5f" x="757.666016"/>
      <use xlink:href="#DejaVuSans-73" x="807.666016"/>
      <use xlink:href="#DejaVuSans-74" x="859.765625"/>
      <use xlink:href="#DejaVuSans-61" x="898.974609"/>
      <use xlink:href="#DejaVuSans-74" x="960.253906"/>
      <use xlink:href="#DejaVuSans-75" x="999.462891"/>
      <use xlink:href="#DejaVuSans-73" x="1062.841797"/>
      <use xlink:href="#DejaVuSans-27" x="1114.941406"/>
      <use xlink:href="#DejaVuSans-5d" x="1142.431641"/>
     </g>
    </g>
   </g>
   <g id="text_3">
    <g id="patch_5">
     <path d="M 775.0571 283.438598 
L 829.665071 294.111843 
Q 832.020502 294.572217 832.480876 292.216786 
L 834.008743 284.399699 
Q 834.469117 282.044268 832.113686 281.583894 
L 777.505714 270.910648 
Q 775.150283 270.450274 774.689909 272.805705 
L 773.162043 280.622792 
Q 772.701669 282.978224 775.0571 283.438598 
L 775.0571 283.438598 
z
" clip-path="url(#p0b2b62fb52)" style="fill: none"/>
    </g>
    <g clip-path="url(#p0b2b62fb52)">
     <!-- ['http_status'] -->
     <g transform="translate(775.879299 279.231945)rotate(-348.940836)scale(0.08 -0.08)">
      <use xlink:href="#DejaVuSans-5b"/>
      <use xlink:href="#DejaVuSans-27" x="39.013672"/>
      <use xlink:href="#DejaVuSans-68" x="66.503906"/>
      <use xlink:href="#DejaVuSans-74" x="129.882812"/>
      <use xlink:href="#DejaVuSans-74" x="169.091797"/>
      <use xlink:href="#DejaVuSans-70" x="208.300781"/>
      <use xlink:href="#DejaVuSans-5f" x="271.777344"/>
      <use xlink:href="#DejaVuSans-73" x="321.777344"/>
      <use xlink:href="#DejaVuSans-74" x="373.876953"/>
      <use xlink:href="#DejaVuSans-61" x="413.085938"/>
      <use xlink:href="#DejaVuSans-74" x="474.365234"/>
      <use xlink:href="#DejaVuSans-75" x="513.574219"/>
      <use xlink:href="#DejaVuSans-73" x="576.953125"/>
      <use xlink:href="#DejaVuSans-27" x="629.052734"/>
      <use xlink:href="#DejaVuSans-5d" x="656.542969"/>
     </g>
    </g>
   </g>
   <g id="patch_6">
    <path d="M 544.703091 345.28255 
Q 492.957177 459.575534 441.672392 572.850008 
" clip-path="url(#p0b2b62fb52)" style="fill: none; stroke: #808080; stroke-linecap: round"/>
    <path d="M 445.144138 570.03097 
L 441.672392 572.850008 
L 441.500208 568.381188 
L 445.144138 570.03097 
z
" clip-path="url(#p0b2b62fb52)" style="fill: #808080; stroke: #808080; stroke-linecap: round"/>
   </g>
   <g id="patch_7">
    <path d="M 550.758384 345.692706 
Q 566.57094 398.487424 582.062712 450.211115 
" clip-path="url(#p0b2b62fb52)" style="fill: none; stroke: #808080; stroke-linecap: round"/>
    <path d="M 582.830953 445.805459 
L 582.062712 450.211115 
L 578.999131 446.953129 
L 582.830953 445.805459 
z
" clip-path="url(#p0b2b62fb52)" style="fill: #808080; stroke: #808080; stroke-linecap: round"/>
   </g>
   <g id="patch_8">
    <path d="M 391.682279 834.785391 
Q 391.682279 887.216708 391.682279 938.529991 
" clip-path="url(#p0b2b62fb52)" style="fill: none; stroke: #808080; stroke-linecap: round"/>
    <path d="M 393.682279 934.529991 
L 391.682279 938.529991 
L 389.682279 934.529991 
L 393.682279 934.529991 
z
" clip-path="url(#p0b2b62fb52)" style="fill: #808080; stroke: #808080; stroke-linecap: round"/>
   </g>
   <g id="patch_9">
    <path d="M 384.646555 831.174151 
Q 306.577324 887.215267 229.416346 942.604404 
" clip-path="url(#p0b2b62fb52)" style="fill: none; stroke: #808080; stroke-linecap: round"/>
    <path d="M 233.832106 941.896545 
L 229.416346 942.604404 
L 231.499514 938.647081 
L 233.832106 941.896545 
z
" clip-path="url(#p0b2b62fb52)" style="fill: #808080; stroke: #808080; stroke-linecap: round"/>
   </g>
   <g id="patch_10">
    <path d="M 399.408589 830.029442 
Q 512.528428 887.213808 624.650479 943.893772 
" clip-path="url(#p0b2b62fb52)" style="fill: none; stroke: #808080; stroke-linecap: round"/>
    <path d="M 621.982989 940.304274 
L 624.650479 943.893772 
L 620.178387 943.874066 
L 621.982989 940.304274 
z
" clip-path="url(#p0b2b62fb52)" style="fill: #808080; stroke: #808080; stroke-linecap: round"/>
   </g>
   <g id="patch_11">
    <path d="M 386.356217 832.950874 
Q 344.023563 887.215192 302.3786 940.597989 
" clip-path="url(#p0b2b62fb52)" style="fill: none; stroke: #808080; stroke-linecap: round"/>
    <path d="M 306.415874 938.674344 
L 302.3786 940.597989 
L 303.262048 936.213982 
L 306.415874 938.674344 
z
" clip-path="url(#p0b2b62fb52)" style="fill: #808080; stroke: #808080; stroke-linecap: round"/>
   </g>
   <g id="patch_12">
    <path d="M 642.372495 221.929922 
Q 598.058287 276.306765 554.450381 329.816925 
" clip-path="url(#p0b2b62fb52)" style="fill: none; stroke: #808080; stroke-linecap: round"/>
    <path d="M 558.527688 327.979653 
L 554.450381 329.816925 
L 555.426947 325.452716 
L 558.527688 327.979653 
z
" clip-path="url(#p0b2b62fb52)" style="fill: #808080; stroke: #808080; stroke-linecap: round"/>
   </g>
   <g id="patch_13">
    <path d="M 647.845166 223.8763 
Q 647.845166 276.307617 647.845166 327.6209 
" clip-path="url(#p0b2b62fb52)" style="fill: none; stroke: #ff0000; stroke-linecap: round"/>
    <path d="M 649.845166 323.6209 
L 647.845166 327.6209 
L 645.845166 323.6209 
L 649.845166 323.6209 
z
" clip-path="url(#p0b2b62fb52)" style="fill: #ff0000; stroke: #ff0000; stroke-linecap: round"/>
   </g>
   <g id="patch_14">
    <path d="M 653.260128 221.974666 
Q 696.780198 276.305781 739.601298 329.764291 
" clip-path="url(#p0b2b62fb52)" style="fill: none; stroke: #ff0000; stroke-linecap: round"/>
    <path d="M 738.661549 325.392006 
L 739.601298 329.764291 
L 735.539621 327.892719 
L 738.661549 325.392006 
z
" clip-path="url(#p0b2b62fb52)" style="fill: #ff0000; stroke: #ff0000; stroke-linecap: round"/>
   </g>
   <g id="patch_15">
    <path d="M 639.746623 218.282328 
Q 486.572271 276.3058 334.443452 333.933217 
" clip-path="url(#p0b2b62fb52)" style="fill: none; stroke: #808080; stroke-linecap: round"/>
    <path d="M 338.892551 334.386554 
L 334.443452 333.933217 
L 337.475581 330.64594 
L 338.892551 334.386554 
z
" clip-path="url(#p0b2b62fb52)" style="fill: #808080; stroke: #808080; stroke-linecap: round"/>
   </g>
   <g id="patch_16">
    <path d="M 655.226131 219.743043 
Q 747.416044 276.304999 838.652989 332.282274 
" clip-path="url(#p0b2b62fb52)" style="fill: none; stroke: #808080; stroke-linecap: round"/>
    <path d="M 836.289458 328.485733 
L 838.652989 332.282274 
L 834.197638 331.895175 
L 836.289458 328.485733 
z
" clip-path="url(#p0b2b62fb52)" style="fill: #808080; stroke: #808080; stroke-linecap: round"/>
   </g>
   <g id="patch_17">
    <path d="M 655.908316 218.377409 
Q 803.586744 276.305984 950.224349 333.826285 
" clip-path="url(#p0b2b62fb52)" style="fill: none; stroke: #ff0000; stroke-linecap: round"/>
    <path d="M 947.230933 330.503716 
L 950.224349 333.826285 
L 945.770245 334.227477 
L 947.230933 330.503716 
z
" clip-path="url(#p0b2b62fb52)" style="fill: #ff0000; stroke: #ff0000; stroke-linecap: round"/>
   </g>
   <g id="patch_18">
    <path d="M 640.265336 219.400004 
Q 537.210631 276.305124 435.134661 332.669802 
" clip-path="url(#p0b2b62fb52)" style="fill: none; stroke: #808080; stroke-linecap: round"/>
    <path d="M 439.603063 332.487075 
L 435.134661 332.669802 
L 437.66952 328.985445 
L 439.603063 332.487075 
z
" clip-path="url(#p0b2b62fb52)" style="fill: #808080; stroke: #808080; stroke-linecap: round"/>
   </g>
   <g id="patch_19">
    <path d="M 328.919726 345.267635 
Q 381.470021 459.578653 433.553324 572.873838 
" clip-path="url(#p0b2b62fb52)" style="fill: none; stroke: #808080; stroke-linecap: round"/>
    <path d="M 433.69974 568.404099 
L 433.553324 572.873838 
L 430.065383 570.074862 
L 433.69974 568.404099 
z
" clip-path="url(#p0b2b62fb52)" style="fill: #808080; stroke: #808080; stroke-linecap: round"/>
   </g>
   <g id="patch_20">
    <path d="M 323.850798 345.93041 
Q 273.387812 642.850772 223.112156 938.668905 
" clip-path="url(#p0b2b62fb52)" style="fill: none; stroke: #808080; stroke-linecap: round"/>
    <path d="M 225.754091 935.060556 
L 223.112156 938.668905 
L 221.810638 934.390348 
L 225.754091 935.060556 
z
" clip-path="url(#p0b2b62fb52)" style="fill: #808080; stroke: #808080; stroke-linecap: round"/>
   </g>
   <g id="patch_21">
    <path d="M 325.301198 346.058118 
Q 325.301198 398.489435 325.301198 449.802719 
" clip-path="url(#p0b2b62fb52)" style="fill: none; stroke: #808080; stroke-linecap: round"/>
    <path d="M 327.301198 445.802719 
L 325.301198 449.802719 
L 323.301198 445.802719 
L 327.301198 445.802719 
z
" clip-path="url(#p0b2b62fb52)" style="fill: #808080; stroke: #808080; stroke-linecap: round"/>
   </g>
   <g id="patch_22">
    <path d="M 328.184001 345.564998 
Q 389.980479 520.669883 451.404881 694.720463 
" clip-path="url(#p0b2b62fb52)" style="fill: none; stroke: #808080; stroke-linecap: round"/>
    <path d="M 451.9597 690.282876 
L 451.404881 694.720463 
L 448.187703 691.614056 
L 451.9597 690.282876 
z
" clip-path="url(#p0b2b62fb52)" style="fill: #808080; stroke: #808080; stroke-linecap: round"/>
   </g>
   <g id="patch_23">
    <path d="M 324.89169 346.042271 
Q 310.833676 642.847761 296.828558 938.536469 
" clip-path="url(#p0b2b62fb52)" style="fill: none; stroke: #808080; stroke-linecap: round"/>
    <path d="M 299.015563 934.635571 
L 296.828558 938.536469 
L 295.020043 934.446326 
L 299.015563 934.635571 
z
" clip-path="url(#p0b2b62fb52)" style="fill: #808080; stroke: #808080; stroke-linecap: round"/>
   </g>
   <g id="patch_24">
    <path d="M 838.554453 339.371639 
Q 586.143197 398.487649 334.820518 457.348708 
" clip-path="url(#p0b2b62fb52)" style="fill: none; stroke: #808080; stroke-linecap: round"/>
    <path d="M 339.171199 458.383876 
L 334.820518 457.348708 
L 338.259061 454.489264 
L 339.171199 458.383876 
z
" clip-path="url(#p0b2b62fb52)" style="fill: #808080; stroke: #808080; stroke-linecap: round"/>
   </g>
   <g id="patch_25">
    <path d="M 844.131504 345.566863 
Q 740.183141 642.850364 636.603802 939.078488 
" clip-path="url(#p0b2b62fb52)" style="fill: none; stroke: #808080; stroke-linecap: round"/>
    <path d="M 639.811979 935.962786 
L 636.603802 939.078488 
L 636.036146 934.642526 
L 639.811979 935.962786 
z
" clip-path="url(#p0b2b62fb52)" style="fill: #808080; stroke: #808080; stroke-linecap: round"/>
   </g>
   <g id="patch_26">
    <path d="M 840.657716 343.311003 
Q 650.822791 520.670037 461.804825 697.265802 
" clip-path="url(#p0b2b62fb52)" style="fill: none; stroke: #808080; stroke-linecap: round"/>
    <path d="M 466.093041 695.996471 
L 461.804825 697.265802 
L 463.362289 693.073631 
L 466.093041 695.996471 
z
" clip-path="url(#p0b2b62fb52)" style="fill: #808080; stroke: #808080; stroke-linecap: round"/>
   </g>
   <g id="patch_27">
    <path d="M 302.33604 223.70478 
Q 312.96114 276.305526 323.364874 327.810373 
" clip-path="url(#p0b2b62fb52)" style="fill: none; stroke: #808080; stroke-linecap: round"/>
    <path d="M 324.533294 323.493569 
L 323.364874 327.810373 
L 320.612483 324.285554 
L 324.533294 323.493569 
z
" clip-path="url(#p0b2b62fb52)" style="fill: #808080; stroke: #808080; stroke-linecap: round"/>
   </g>
   <g id="patch_28">
    <path d="M 300.52051 223.875368 
Q 298.493439 398.488566 296.479347 571.983806 
" clip-path="url(#p0b2b62fb52)" style="fill: none; stroke: #808080; stroke-linecap: round"/>
    <path d="M 298.525644 568.007292 
L 296.479347 571.983806 
L 294.525914 567.96086 
L 298.525644 568.007292 
z
" clip-path="url(#p0b2b62fb52)" style="fill: #808080; stroke: #808080; stroke-linecap: round"/>
   </g>
   <g id="patch_29">
    <path d="M 294.631727 590.247438 
Q 258.920134 765.032648 223.43235 938.722454 
" clip-path="url(#p0b2b62fb52)" style="fill: none; stroke: #808080; stroke-linecap: round"/>
    <path d="M 226.192594 935.203782 
L 223.43235 938.722454 
L 222.273558 934.403056 
L 226.192594 935.203782 
z
" clip-path="url(#p0b2b62fb52)" style="fill: #808080; stroke: #808080; stroke-linecap: round"/>
   </g>
   <g id="patch_30">
    <path d="M 298.362401 573.329425 
Q 310.834173 520.666362 323.048296 469.091242 
" clip-path="url(#p0b2b62fb52)" style="fill: none; stroke: #808080; stroke-linecap: round"/>
    <path d="M 320.180336 472.522685 
L 323.048296 469.091242 
L 324.072674 473.444476 
L 320.180336 472.522685 
z
" clip-path="url(#p0b2b62fb52)" style="fill: #808080; stroke: #808080; stroke-linecap: round"/>
   </g>
   <g id="patch_31">
    <path d="M 303.223076 587.05288 
Q 375.513168 642.851403 446.918209 697.966782 
" clip-path="url(#p0b2b62fb52)" style="fill: none; stroke: #808080; stroke-linecap: round"/>
    <path d="M 444.9738 693.939466 
L 446.918209 697.966782 
L 442.529711 697.105919 
L 444.9738 693.939466 
z
" clip-path="url(#p0b2b62fb52)" style="fill: #808080; stroke: #808080; stroke-linecap: round"/>
   </g>
   <g id="patch_32">
    <path d="M 296.365855 590.420822 
Q 296.365855 765.034021 296.365855 938.529186 
" clip-path="url(#p0b2b62fb52)" style="fill: none; stroke: #808080; stroke-linecap: round"/>
    <path d="M 298.365855 934.529186 
L 296.365855 938.529186 
L 294.365855 934.529186 
L 298.365855 934.529186 
z
" clip-path="url(#p0b2b62fb52)" style="fill: #808080; stroke: #808080; stroke-linecap: round"/>
   </g>
   <g id="patch_33">
    <path d="M 328.249398 467.717919 
Q 347.428106 520.668763 366.22607 572.5684 
" clip-path="url(#p0b2b62fb52)" style="fill: none; stroke: #808080; stroke-linecap: round"/>
    <path d="M 366.744329 568.126396 
L 366.22607 572.5684 
L 362.983421 569.48859 
L 366.744329 568.126396 
z
" clip-path="url(#p0b2b62fb52)" style="fill: #808080; stroke: #808080; stroke-linecap: round"/>
   </g>
   <g id="patch_34">
    <path d="M 331.161808 465.952383 
Q 381.470768 520.670139 431.023012 574.564864 
" clip-path="url(#p0b2b62fb52)" style="fill: none; stroke: #808080; stroke-linecap: round"/>
    <path d="M 429.787983 570.266643 
L 431.023012 574.564864 
L 426.843418 572.973955 
L 429.787983 570.266643 
z
" clip-path="url(#p0b2b62fb52)" style="fill: #808080; stroke: #808080; stroke-linecap: round"/>
   </g>
   <g id="patch_35">
    <path d="M 325.301198 450.916428 
Q 325.301198 398.48511 325.301198 347.171827 
" clip-path="url(#p0b2b62fb52)" style="fill: none; stroke: #808080; stroke-linecap: round"/>
    <path d="M 323.301198 351.171827 
L 325.301198 347.171827 
L 327.301198 351.171827 
L 323.301198 351.171827 
z
" clip-path="url(#p0b2b62fb52)" style="fill: #808080; stroke: #808080; stroke-linecap: round"/>
   </g>
   <g id="patch_36">
    <path d="M 323.304652 468.008757 
Q 310.832881 520.67182 298.618757 572.24694 
" clip-path="url(#p0b2b62fb52)" style="fill: none; stroke: #808080; stroke-linecap: round"/>
    <path d="M 301.486718 568.815497 
L 298.618757 572.24694 
L 297.594379 567.893706 
L 301.486718 568.815497 
z
" clip-path="url(#p0b2b62fb52)" style="fill: #808080; stroke: #808080; stroke-linecap: round"/>
   </g>
   <g id="patch_37">
    <path d="M 450.690471 711.64157 
Q 423.169942 765.034275 396.161647 817.433193 
" clip-path="url(#p0b2b62fb52)" style="fill: none; stroke: #808080; stroke-linecap: round"/>
    <path d="M 399.772016 814.79402 
L 396.161647 817.433193 
L 396.21653 812.961394 
L 399.772016 814.79402 
z
" clip-path="url(#p0b2b62fb52)" style="fill: #808080; stroke: #808080; stroke-linecap: round"/>
   </g>
   <g id="text_4">
    <g id="patch_38">
     <path d="M 497.619303 460.568051 
L 499.71865 455.931151 
Q 500.708519 453.744793 498.522161 452.754924 
L 491.46888 449.561566 
Q 489.282523 448.571697 488.292654 450.758054 
L 486.193307 455.394955 
Q 485.203438 457.581312 487.389795 458.571181 
L 494.443076 461.764539 
Q 496.629434 462.754408 497.619303 460.568051 
L 497.619303 460.568051 
z
" clip-path="url(#p0b2b62fb52)" style="fill: none"/>
    </g>
    <g clip-path="url(#p0b2b62fb52)">
     <!-- 3 -->
     <g transform="translate(493.917298 458.891976)rotate(-65.641457)scale(0.08 -0.08)">
      <defs>
       <path id="DejaVuSans-33" d="M 2597 2516 
Q 3050 2419 3304 2112 
Q 3559 1806 3559 1356 
Q 3559 666 3084 287 
Q 2609 -91 1734 -91 
Q 1441 -91 1130 -33 
Q 819 25 488 141 
L 488 750 
Q 750 597 1062 519 
Q 1375 441 1716 441 
Q 2309 441 2620 675 
Q 2931 909 2931 1356 
Q 2931 1769 2642 2001 
Q 2353 2234 1838 2234 
L 1294 2234 
L 1294 2753 
L 1863 2753 
Q 2328 2753 2575 2939 
Q 2822 3125 2822 3475 
Q 2822 3834 2567 4026 
Q 2313 4219 1838 4219 
Q 1578 4219 1281 4162 
Q 984 4106 628 3988 
L 628 4550 
Q 988 4650 1302 4700 
Q 1616 4750 1894 4750 
Q 2613 4750 3031 4423 
Q 3450 4097 3450 3541 
Q 3450 3153 3228 2886 
Q 3006 2619 2597 2516 
z
" transform="scale(0.015625)"/>
      </defs>
      <use xlink:href="#DejaVuSans-33"/>
     </g>
    </g>
   </g>
   <g id="text_5">
    <g id="patch_39">
     <path d="M 559.833112 394.299882 
L 561.293522 399.175874 
Q 561.982123 401.474967 564.281216 400.786366 
L 571.698185 398.564908 
Q 573.997278 397.876306 573.308676 395.577213 
L 571.848267 390.701221 
Q 571.159665 388.402128 568.860572 389.09073 
L 561.443603 391.312187 
Q 559.14451 392.000789 559.833112 394.299882 
L 559.833112 394.299882 
z
" clip-path="url(#p0b2b62fb52)" style="fill: none"/>
    </g>
    <g clip-path="url(#p0b2b62fb52)">
     <!-- 2 -->
     <g transform="translate(563.726003 393.133921)rotate(-286.673493)scale(0.08 -0.08)">
      <defs>
       <path id="DejaVuSans-32" d="M 1228 531 
L 3431 531 
L 3431 0 
L 469 0 
L 469 531 
Q 828 903 1448 1529 
Q 2069 2156 2228 2338 
Q 2531 2678 2651 2914 
Q 2772 3150 2772 3378 
Q 2772 3750 2511 3984 
Q 2250 4219 1831 4219 
Q 1534 4219 1204 4116 
Q 875 4013 500 3803 
L 500 4441 
Q 881 4594 1212 4672 
Q 1544 4750 1819 4750 
Q 2544 4750 2975 4387 
Q 3406 4025 3406 3419 
Q 3406 3131 3298 2873 
Q 3191 2616 2906 2266 
Q 2828 2175 2409 1742 
Q 1991 1309 1228 531 
z
" transform="scale(0.015625)"/>
      </defs>
      <use xlink:href="#DejaVuSans-32"/>
     </g>
    </g>
   </g>
   <g id="text_6">
    <g id="patch_40">
     <path d="M 385.411029 882.124545 
L 385.411029 887.214545 
Q 385.411029 889.614545 387.811029 889.614545 
L 395.553529 889.614545 
Q 397.953529 889.614545 397.953529 887.214545 
L 397.953529 882.124545 
Q 397.953529 879.724545 395.553529 879.724545 
L 387.811029 879.724545 
Q 385.411029 879.724545 385.411029 882.124545 
L 385.411029 882.124545 
z
" clip-path="url(#p0b2b62fb52)" style="fill: none"/>
    </g>
    <g clip-path="url(#p0b2b62fb52)">
     <!-- 6 -->
     <g transform="translate(389.474779 882.124545)rotate(-270)scale(0.08 -0.08)">
      <defs>
       <path id="DejaVuSans-36" d="M 2113 2584 
Q 1688 2584 1439 2293 
Q 1191 2003 1191 1497 
Q 1191 994 1439 701 
Q 1688 409 2113 409 
Q 2538 409 2786 701 
Q 3034 994 3034 1497 
Q 3034 2003 2786 2293 
Q 2538 2584 2113 2584 
z
M 3366 4563 
L 3366 3988 
Q 3128 4100 2886 4159 
Q 2644 4219 2406 4219 
Q 1781 4219 1451 3797 
Q 1122 3375 1075 2522 
Q 1259 2794 1537 2939 
Q 1816 3084 2150 3084 
Q 2853 3084 3261 2657 
Q 3669 2231 3669 1497 
Q 3669 778 3244 343 
Q 2819 -91 2113 -91 
Q 1303 -91 875 529 
Q 447 1150 447 2328 
Q 447 3434 972 4092 
Q 1497 4750 2381 4750 
Q 2619 4750 2861 4703 
Q 3103 4656 3366 4563 
z
" transform="scale(0.015625)"/>
      </defs>
      <use xlink:href="#DejaVuSans-36"/>
     </g>
    </g>
   </g>
   <g id="text_7">
    <g id="patch_41">
     <path d="M 308.167923 889.164224 
L 312.302867 886.196002 
Q 314.252545 884.796447 312.852991 882.846768 
L 308.337969 876.557024 
Q 306.938414 874.607345 304.988735 876.0069 
L 300.853792 878.975123 
Q 298.904113 880.374677 300.303668 882.324356 
L 304.81869 888.6141 
Q 306.218245 890.563779 308.167923 889.164224 
L 308.167923 889.164224 
z
" clip-path="url(#p0b2b62fb52)" style="fill: none"/>
    </g>
    <g clip-path="url(#p0b2b62fb52)">
     <!-- 4 -->
     <g transform="translate(305.798157 885.862971)rotate(-35.672249)scale(0.08 -0.08)">
      <defs>
       <path id="DejaVuSans-34" d="M 2419 4116 
L 825 1625 
L 2419 1625 
L 2419 4116 
z
M 2253 4666 
L 3047 4666 
L 3047 1625 
L 3713 1625 
L 3713 1100 
L 3047 1100 
L 3047 0 
L 2419 0 
L 2419 1100 
L 313 1100 
L 313 1709 
L 2253 4666 
z
" transform="scale(0.015625)"/>
      </defs>
      <use xlink:href="#DejaVuSans-34"/>
     </g>
    </g>
   </g>
   <g id="text_8">
    <g id="patch_42">
     <path d="M 505.158049 884.763709 
L 514.243169 889.35642 
Q 516.385044 890.439182 517.467805 888.297307 
L 520.960837 881.387529 
Q 522.043599 879.245654 519.901724 878.162893 
L 510.816604 873.570181 
Q 508.674729 872.48742 507.591968 874.629295 
L 504.098935 881.539073 
Q 503.016174 883.680948 505.158049 884.763709 
L 505.158049 884.763709 
z
" clip-path="url(#p0b2b62fb52)" style="fill: none"/>
    </g>
    <g clip-path="url(#p0b2b62fb52)">
     <!-- 71 -->
     <g transform="translate(506.991412 881.137024)rotate(-333.18248)scale(0.08 -0.08)">
      <defs>
       <path id="DejaVuSans-37" d="M 525 4666 
L 3525 4666 
L 3525 4397 
L 1831 0 
L 1172 0 
L 2766 4134 
L 525 4134 
L 525 4666 
z
" transform="scale(0.015625)"/>
       <path id="DejaVuSans-31" d="M 794 531 
L 1825 531 
L 1825 4091 
L 703 3866 
L 703 4441 
L 1819 4666 
L 2450 4666 
L 2450 531 
L 3481 531 
L 3481 0 
L 794 0 
L 794 531 
z
" transform="scale(0.015625)"/>
      </defs>
      <use xlink:href="#DejaVuSans-37"/>
      <use xlink:href="#DejaVuSans-31" x="63.623047"/>
     </g>
    </g>
   </g>
   <g id="text_9">
    <g id="patch_43">
     <path d="M 347.40327 888.690762 
L 350.534081 884.677518 
Q 352.010297 882.785222 350.118002 881.309006 
L 344.013376 876.546668 
Q 342.121081 875.070451 340.644864 876.962747 
L 337.514054 880.975991 
Q 336.037837 882.868287 337.930132 884.344504 
L 344.034758 889.106841 
Q 345.927053 890.583058 347.40327 888.690762 
L 347.40327 888.690762 
z
" clip-path="url(#p0b2b62fb52)" style="fill: none"/>
    </g>
    <g clip-path="url(#p0b2b62fb52)">
     <!-- 6 -->
     <g transform="translate(344.19918 886.191189)rotate(-52.041511)scale(0.08 -0.08)">
      <use xlink:href="#DejaVuSans-36"/>
     </g>
    </g>
   </g>
   <g id="text_10">
    <g id="patch_44">
     <path d="M 601.312971 277.821617 
L 604.528498 273.875925 
Q 606.04466 272.01548 604.184216 270.499318 
L 598.182346 265.608116 
Q 596.321902 264.091954 594.80574 265.952398 
L 591.590213 269.89809 
Q 590.07405 271.758535 591.934495 273.274697 
L 597.936365 278.165899 
Q 599.796809 279.682061 601.312971 277.821617 
L 601.312971 277.821617 
z
" clip-path="url(#p0b2b62fb52)" style="fill: none"/>
    </g>
    <g clip-path="url(#p0b2b62fb52)">
     <!-- 3 -->
     <g transform="translate(598.162813 275.254407)rotate(-50.821815)scale(0.08 -0.08)">
      <use xlink:href="#DejaVuSans-33"/>
     </g>
    </g>
   </g>
   <g id="text_11">
    <g id="patch_45">
     <path d="M 641.573916 266.125455 
L 641.573916 276.305455 
Q 641.573916 278.705455 643.973916 278.705455 
L 651.716416 278.705455 
Q 654.116416 278.705455 654.116416 276.305455 
L 654.116416 266.125455 
Q 654.116416 263.725455 651.716416 263.725455 
L 643.973916 263.725455 
Q 641.573916 263.725455 641.573916 266.125455 
L 641.573916 266.125455 
z
" clip-path="url(#p0b2b62fb52)" style="fill: none"/>
    </g>
    <g clip-path="url(#p0b2b62fb52)">
     <!-- 70 -->
     <g transform="translate(645.637666 266.125455)rotate(-270)scale(0.08 -0.08)">
      <defs>
       <path id="DejaVuSans-30" d="M 2034 4250 
Q 1547 4250 1301 3770 
Q 1056 3291 1056 2328 
Q 1056 1369 1301 889 
Q 1547 409 2034 409 
Q 2525 409 2770 889 
Q 3016 1369 3016 2328 
Q 3016 3291 2770 3770 
Q 2525 4250 2034 4250 
z
M 2034 4750 
Q 2819 4750 3233 4129 
Q 3647 3509 3647 2328 
Q 3647 1150 3233 529 
Q 2819 -91 2034 -91 
Q 1250 -91 836 529 
Q 422 1150 422 2328 
Q 422 3509 836 4129 
Q 1250 4750 2034 4750 
z
" transform="scale(0.015625)"/>
      </defs>
      <use xlink:href="#DejaVuSans-37"/>
      <use xlink:href="#DejaVuSans-30" x="63.623047"/>
     </g>
    </g>
   </g>
   <g id="text_12">
    <g id="patch_46">
     <path d="M 688.703181 269.860576 
L 695.067496 277.805882 
Q 696.567924 279.679039 698.441081 278.178611 
L 704.483963 273.338169 
Q 706.357119 271.837741 704.856692 269.964584 
L 698.492377 262.019277 
Q 696.991949 260.146121 695.118792 261.646548 
L 689.07591 266.486991 
Q 687.202754 267.987419 688.703181 269.860576 
L 688.703181 269.860576 
z
" clip-path="url(#p0b2b62fb52)" style="fill: none"/>
    </g>
    <g clip-path="url(#p0b2b62fb52)">
     <!-- 67 -->
     <g transform="translate(691.874865 267.320007)rotate(-308.695272)scale(0.08 -0.08)">
      <use xlink:href="#DejaVuSans-36"/>
      <use xlink:href="#DejaVuSans-37" x="63.623047"/>
     </g>
    </g>
   </g>
   <g id="text_13">
    <g id="patch_47">
     <path d="M 486.414759 278.549823 
L 491.174691 276.746729 
Q 493.41906 275.896547 492.568878 273.652178 
L 489.826155 266.411752 
Q 488.975973 264.167383 486.731605 265.017565 
L 481.971673 266.820659 
Q 479.727304 267.670841 480.577486 269.91521 
L 483.320209 277.155636 
Q 484.17039 279.400005 486.414759 278.549823 
L 486.414759 278.549823 
z
" clip-path="url(#p0b2b62fb52)" style="fill: none"/>
    </g>
    <g clip-path="url(#p0b2b62fb52)">
     <!-- 7 -->
     <g transform="translate(484.975206 274.749593)rotate(-20.747024)scale(0.08 -0.08)">
      <use xlink:href="#DejaVuSans-37"/>
     </g>
    </g>
   </g>
   <g id="text_14">
    <g id="patch_48">
     <path d="M 741.967948 275.689279 
L 746.306462 278.351119 
Q 748.352127 279.606211 749.607219 277.560546 
L 753.656197 270.961146 
Q 754.911289 268.915482 752.865624 267.66039 
L 748.52711 264.998549 
Q 746.481445 263.743457 745.226354 265.789122 
L 741.177375 272.388522 
Q 739.922283 274.434187 741.967948 275.689279 
L 741.967948 275.689279 
z
" clip-path="url(#p0b2b62fb52)" style="fill: none"/>
    </g>
    <g clip-path="url(#p0b2b62fb52)">
     <!-- 3 -->
     <g transform="translate(744.093106 272.225499)rotate(-328.469329)scale(0.08 -0.08)">
      <use xlink:href="#DejaVuSans-33"/>
     </g>
    </g>
   </g>
   <g id="text_15">
    <g id="patch_49">
     <path d="M 796.556823 274.822259 
L 806.033793 278.539711 
Q 808.268049 279.416124 809.144462 277.181867 
L 811.971806 269.974064 
Q 812.848219 267.739808 810.613963 266.863395 
L 801.136993 263.145944 
Q 798.902737 262.269531 798.026324 264.503787 
L 795.19898 271.71159 
Q 794.322567 273.945847 796.556823 274.822259 
L 796.556823 274.822259 
z
" clip-path="url(#p0b2b62fb52)" style="fill: none"/>
    </g>
    <g clip-path="url(#p0b2b62fb52)">
     <!-- 25 -->
     <g transform="translate(798.040791 271.039152)rotate(-338.58183)scale(0.08 -0.08)">
      <defs>
       <path id="DejaVuSans-35" d="M 691 4666 
L 3169 4666 
L 3169 4134 
L 1269 4134 
L 1269 2991 
Q 1406 3038 1543 3061 
Q 1681 3084 1819 3084 
Q 2600 3084 3056 2656 
Q 3513 2228 3513 1497 
Q 3513 744 3044 326 
Q 2575 -91 1722 -91 
Q 1428 -91 1123 -41 
Q 819 9 494 109 
L 494 744 
Q 775 591 1075 516 
Q 1375 441 1709 441 
Q 2250 441 2565 725 
Q 2881 1009 2881 1497 
Q 2881 1984 2565 2268 
Q 2250 2553 1709 2553 
Q 1456 2553 1204 2497 
Q 953 2441 691 2322 
L 691 4666 
z
" transform="scale(0.015625)"/>
      </defs>
      <use xlink:href="#DejaVuSans-32"/>
      <use xlink:href="#DejaVuSans-35" x="63.623047"/>
     </g>
    </g>
   </g>
   <g id="text_16">
    <g id="patch_50">
     <path d="M 533.557728 278.406433 
L 546.9252 271.025133 
Q 549.026178 269.865008 547.866053 267.76403 
L 544.123439 260.986187 
Q 542.963314 258.885209 540.862336 260.045335 
L 527.494863 267.426634 
Q 525.393885 268.58676 526.554011 270.687738 
L 530.296624 277.46558 
Q 531.45675 279.566558 533.557728 278.406433 
L 533.557728 278.406433 
z
" clip-path="url(#p0b2b62fb52)" style="fill: none"/>
    </g>
    <g clip-path="url(#p0b2b62fb52)">
     <!-- 384 -->
     <g transform="translate(531.593369 274.848995)rotate(-28.906761)scale(0.08 -0.08)">
      <defs>
       <path id="DejaVuSans-38" d="M 2034 2216 
Q 1584 2216 1326 1975 
Q 1069 1734 1069 1313 
Q 1069 891 1326 650 
Q 1584 409 2034 409 
Q 2484 409 2743 651 
Q 3003 894 3003 1313 
Q 3003 1734 2745 1975 
Q 2488 2216 2034 2216 
z
M 1403 2484 
Q 997 2584 770 2862 
Q 544 3141 544 3541 
Q 544 4100 942 4425 
Q 1341 4750 2034 4750 
Q 2731 4750 3128 4425 
Q 3525 4100 3525 3541 
Q 3525 3141 3298 2862 
Q 3072 2584 2669 2484 
Q 3125 2378 3379 2068 
Q 3634 1759 3634 1313 
Q 3634 634 3220 271 
Q 2806 -91 2034 -91 
Q 1263 -91 848 271 
Q 434 634 434 1313 
Q 434 1759 690 2068 
Q 947 2378 1403 2484 
z
M 1172 3481 
Q 1172 3119 1398 2916 
Q 1625 2713 2034 2713 
Q 2441 2713 2670 2916 
Q 2900 3119 2900 3481 
Q 2900 3844 2670 4047 
Q 2441 4250 2034 4250 
Q 1625 4250 1398 4047 
Q 1172 3844 1172 3481 
z
" transform="scale(0.015625)"/>
      </defs>
      <use xlink:href="#DejaVuSans-33"/>
      <use xlink:href="#DejaVuSans-38" x="63.623047"/>
      <use xlink:href="#DejaVuSans-34" x="127.246094"/>
     </g>
    </g>
   </g>
   <g id="text_17">
    <g id="patch_51">
     <path d="M 374.708791 455.95592 
L 376.834836 460.580639 
Q 377.837294 462.761254 380.017908 461.758796 
L 387.052661 458.524827 
Q 389.233275 457.522369 388.230818 455.341755 
L 386.104773 450.717035 
Q 385.102316 448.536421 382.921701 449.538878 
L 375.886948 452.772848 
Q 373.706334 453.775305 374.708791 455.95592 
L 374.708791 455.95592 
z
" clip-path="url(#p0b2b62fb52)" style="fill: none"/>
    </g>
    <g clip-path="url(#p0b2b62fb52)">
     <!-- 4 -->
     <g transform="translate(378.401071 454.258529)rotate(-294.688871)scale(0.08 -0.08)">
      <use xlink:href="#DejaVuSans-34"/>
     </g>
    </g>
   </g>
   <g id="text_18">
    <g id="patch_52">
     <path d="M 278.717544 643.253034 
L 280.423224 633.216946 
Q 280.825349 630.850874 278.459277 630.44875 
L 270.826231 629.151478 
Q 268.460159 628.749353 268.058034 631.115425 
L 266.352355 641.151513 
Q 265.95023 643.517585 268.316302 643.919709 
L 275.949348 645.216981 
Q 278.315419 645.619106 278.717544 643.253034 
L 278.717544 643.253034 
z
" clip-path="url(#p0b2b62fb52)" style="fill: none"/>
    </g>
    <g clip-path="url(#p0b2b62fb52)">
     <!-- 44 -->
     <g transform="translate(274.711243 642.572144)rotate(-80.354482)scale(0.08 -0.08)">
      <use xlink:href="#DejaVuSans-34"/>
      <use xlink:href="#DejaVuSans-34" x="63.623047"/>
     </g>
    </g>
   </g>
   <g id="text_19">
    <g id="patch_53">
     <path d="M 319.029948 393.397273 
L 319.029948 398.487273 
Q 319.029948 400.887273 321.429948 400.887273 
L 329.172448 400.887273 
Q 331.572448 400.887273 331.572448 398.487273 
L 331.572448 393.397273 
Q 331.572448 390.997273 329.172448 390.997273 
L 321.429948 390.997273 
Q 319.029948 390.997273 319.029948 393.397273 
L 319.029948 393.397273 
z
" clip-path="url(#p0b2b62fb52)" style="fill: none"/>
    </g>
    <g clip-path="url(#p0b2b62fb52)">
     <!-- 7 -->
     <g transform="translate(323.093698 393.397273)rotate(-270)scale(0.08 -0.08)">
      <use xlink:href="#DejaVuSans-37"/>
     </g>
    </g>
   </g>
   <g id="text_20">
    <g id="patch_54">
     <path d="M 382.372489 511.868067 
L 385.760342 521.467799 
Q 386.55905 523.730997 388.822248 522.932289 
L 396.12342 520.355624 
Q 398.386618 519.556916 397.58791 517.293718 
L 394.200057 507.693986 
Q 393.401349 505.430788 391.138151 506.229496 
L 383.836979 508.806161 
Q 381.573781 509.604869 382.372489 511.868067 
L 382.372489 511.868067 
z
" clip-path="url(#p0b2b62fb52)" style="fill: none"/>
    </g>
    <g clip-path="url(#p0b2b62fb52)">
     <!-- 41 -->
     <g transform="translate(386.204602 510.515671)rotate(-289.438509)scale(0.08 -0.08)">
      <use xlink:href="#DejaVuSans-34"/>
      <use xlink:href="#DejaVuSans-31" x="63.623047"/>
     </g>
    </g>
   </g>
   <g id="text_21">
    <g id="patch_55">
     <path d="M 316.856939 642.964456 
L 317.338569 632.795856 
Q 317.452116 630.398544 315.054804 630.284996 
L 307.320974 629.918688 
Q 304.923662 629.805141 304.810114 632.202453 
L 304.328485 642.371054 
Q 304.214937 644.768366 306.61225 644.881913 
L 314.34608 645.248222 
Q 316.743392 645.361769 316.856939 642.964456 
L 316.856939 642.964456 
z
" clip-path="url(#p0b2b62fb52)" style="fill: none"/>
    </g>
    <g clip-path="url(#p0b2b62fb52)">
     <!-- 21 -->
     <g transform="translate(312.79774 642.772195)rotate(-87.288246)scale(0.08 -0.08)">
      <use xlink:href="#DejaVuSans-32"/>
      <use xlink:href="#DejaVuSans-31" x="63.623047"/>
     </g>
    </g>
   </g>
   <g id="text_22">
    <g id="patch_56">
     <path d="M 585.096917 400.82404 
L 590.052811 399.663344 
Q 592.389578 399.116061 591.842296 396.779294 
L 590.076738 389.240785 
Q 589.529455 386.904018 587.192688 387.451301 
L 582.236794 388.611997 
Q 579.900027 389.15928 580.44731 391.496047 
L 582.212867 399.034556 
Q 582.76015 401.371323 585.096917 400.82404 
L 585.096917 400.82404 
z
" clip-path="url(#p0b2b62fb52)" style="fill: none"/>
    </g>
    <g clip-path="url(#p0b2b62fb52)">
     <!-- 7 -->
     <g transform="translate(584.170242 396.867357)rotate(-13.181384)scale(0.08 -0.08)">
      <use xlink:href="#DejaVuSans-37"/>
     </g>
    </g>
   </g>
   <g id="text_23">
    <g id="patch_57">
     <path d="M 745.262733 643.643065 
L 746.942764 638.838318 
Q 747.73492 636.572819 745.469421 635.780662 
L 738.160824 633.225133 
Q 735.895325 632.432977 735.103169 634.698477 
L 733.423137 639.503224 
Q 732.630981 641.768724 734.896481 642.56088 
L 742.205077 645.116409 
Q 744.470576 645.908565 745.262733 643.643065 
L 745.262733 643.643065 
z
" clip-path="url(#p0b2b62fb52)" style="fill: none"/>
    </g>
    <g clip-path="url(#p0b2b62fb52)">
     <!-- 4 -->
     <g transform="translate(741.426723 642.301763)rotate(-70.727274)scale(0.08 -0.08)">
      <use xlink:href="#DejaVuSans-34"/>
     </g>
    </g>
   </g>
   <g id="text_24">
    <g id="patch_58">
     <path d="M 651.385797 522.422795 
L 658.824425 515.473031 
Q 660.578129 513.83458 658.939678 512.080876 
L 653.653966 506.423354 
Q 652.015515 504.66965 650.261811 506.308101 
L 642.823183 513.257865 
Q 641.069479 514.896316 642.70793 516.65002 
L 647.993642 522.307542 
Q 649.632093 524.061246 651.385797 522.422795 
L 651.385797 522.422795 
z
" clip-path="url(#p0b2b62fb52)" style="fill: none"/>
    </g>
    <g clip-path="url(#p0b2b62fb52)">
     <!-- 12 -->
     <g transform="translate(648.611524 519.453372)rotate(-43.05405)scale(0.08 -0.08)">
      <use xlink:href="#DejaVuSans-31"/>
      <use xlink:href="#DejaVuSans-32" x="63.623047"/>
     </g>
    </g>
   </g>
   <g id="text_25">
    <g id="patch_59">
     <path d="M 306.310128 271.791414 
L 307.31793 276.780646 
Q 307.793121 279.133132 310.145607 278.657941 
L 317.734827 277.124955 
Q 320.087314 276.649764 319.612123 274.297277 
L 318.604322 269.308045 
Q 318.129131 266.955558 315.776644 267.43075 
L 308.187424 268.963736 
Q 305.834937 269.438927 306.310128 271.791414 
L 306.310128 271.791414 
z
" clip-path="url(#p0b2b62fb52)" style="fill: none"/>
    </g>
    <g clip-path="url(#p0b2b62fb52)">
     <!-- 3 -->
     <g transform="translate(310.293427 270.986806)rotate(-281.419812)scale(0.08 -0.08)">
      <use xlink:href="#DejaVuSans-33"/>
     </g>
    </g>
   </g>
   <g id="text_26">
    <g id="patch_60">
     <path d="M 304.734739 398.515132 
L 304.793824 393.425475 
Q 304.821684 391.025637 302.421846 390.997777 
L 294.679867 390.907901 
Q 292.280029 390.880042 292.252169 393.27988 
L 292.193084 398.369537 
Q 292.165224 400.769375 294.565063 400.797235 
L 302.307041 400.887111 
Q 304.706879 400.914971 304.734739 398.515132 
L 304.734739 398.515132 
z
" clip-path="url(#p0b2b62fb52)" style="fill: none"/>
    </g>
    <g clip-path="url(#p0b2b62fb52)">
     <!-- 1 -->
     <g transform="translate(300.671263 398.46796)rotate(-89.334888)scale(0.08 -0.08)">
      <use xlink:href="#DejaVuSans-31"/>
     </g>
    </g>
   </g>
   <g id="text_27">
    <g id="patch_61">
     <path d="M 264.554969 765.513163 
L 265.573892 760.52619 
Q 266.054328 758.174769 263.702906 757.694333 
L 256.117123 756.144429 
Q 253.765702 755.663994 253.285267 758.015415 
L 252.266343 763.002387 
Q 251.785908 765.353809 254.137329 765.834244 
L 261.723112 767.384149 
Q 264.074533 767.864584 264.554969 765.513163 
L 264.554969 765.513163 
z
" clip-path="url(#p0b2b62fb52)" style="fill: none"/>
    </g>
    <g clip-path="url(#p0b2b62fb52)">
     <!-- 2 -->
     <g transform="translate(260.573474 764.699675)rotate(-78.452433)scale(0.08 -0.08)">
      <use xlink:href="#DejaVuSans-32"/>
     </g>
    </g>
   </g>
   <g id="text_28">
    <g id="patch_62">
     <path d="M 316.349494 521.222166 
L 317.522474 516.269165 
Q 318.075549 513.933762 315.740146 513.380687 
L 308.206037 511.596444 
Q 305.870634 511.043369 305.317559 513.378772 
L 304.14458 518.331773 
Q 303.591505 520.667177 305.926908 521.220252 
L 313.461016 523.004494 
Q 315.796419 523.557569 316.349494 521.222166 
L 316.349494 521.222166 
z
" clip-path="url(#p0b2b62fb52)" style="fill: none"/>
    </g>
    <g clip-path="url(#p0b2b62fb52)">
     <!-- 2 -->
     <g transform="translate(312.395121 520.285683)rotate(-76.676559)scale(0.08 -0.08)">
      <use xlink:href="#DejaVuSans-32"/>
     </g>
    </g>
   </g>
   <g id="text_29">
    <g id="patch_63">
     <path d="M 369.665999 641.640678 
L 373.695311 644.750781 
Q 375.595183 646.217235 377.061636 644.317363 
L 381.792476 638.188296 
Q 383.25893 636.288424 381.359058 634.82197 
L 377.329746 631.711867 
Q 375.429874 630.245413 373.96342 632.145285 
L 369.23258 638.274352 
Q 367.766126 640.174224 369.665999 641.640678 
L 369.665999 641.640678 
z
" clip-path="url(#p0b2b62fb52)" style="fill: none"/>
    </g>
    <g clip-path="url(#p0b2b62fb52)">
     <!-- 4 -->
     <g transform="translate(372.14904 638.423759)rotate(-322.336542)scale(0.08 -0.08)">
      <use xlink:href="#DejaVuSans-34"/>
     </g>
    </g>
   </g>
   <g id="text_30">
    <g id="patch_64">
     <path d="M 290.094605 759.942727 
L 290.094605 765.032727 
Q 290.094605 767.432727 292.494605 767.432727 
L 300.237105 767.432727 
Q 302.637105 767.432727 302.637105 765.032727 
L 302.637105 759.942727 
Q 302.637105 757.542727 300.237105 757.542727 
L 292.494605 757.542727 
Q 290.094605 757.542727 290.094605 759.942727 
L 290.094605 759.942727 
z
" clip-path="url(#p0b2b62fb52)" style="fill: none"/>
    </g>
    <g clip-path="url(#p0b2b62fb52)">
     <!-- 7 -->
     <g transform="translate(294.158355 759.942727)rotate(-270)scale(0.08 -0.08)">
      <use xlink:href="#DejaVuSans-37"/>
     </g>
    </g>
   </g>
   <g id="text_31">
    <g id="patch_65">
     <path d="M 339.798434 511.914898 
L 343.26522 521.486408 
Q 344.082536 523.742952 346.339081 522.925635 
L 353.618788 520.288938 
Q 355.875332 519.471621 355.058016 517.215076 
L 351.59123 507.643567 
Q 350.773914 505.387022 348.517369 506.204339 
L 341.237662 508.841036 
Q 338.981118 509.658353 339.798434 511.914898 
L 339.798434 511.914898 
z
" clip-path="url(#p0b2b62fb52)" style="fill: none"/>
    </g>
    <g clip-path="url(#p0b2b62fb52)">
     <!-- 11 -->
     <g transform="translate(343.619282 510.530993)rotate(-289.910303)scale(0.08 -0.08)">
      <use xlink:href="#DejaVuSans-31"/>
      <use xlink:href="#DejaVuSans-31" x="63.623047"/>
     </g>
    </g>
   </g>
   <g id="text_32">
    <g id="patch_66">
     <path d="M 373.408225 514.799559 
L 380.298332 522.293478 
Q 381.922719 524.060217 383.689459 522.43583 
L 389.389033 517.19549 
Q 391.155772 515.571103 389.531385 513.804364 
L 382.641277 506.310446 
Q 381.01689 504.543707 379.250151 506.168093 
L 373.550577 511.408433 
Q 371.783838 513.03282 373.408225 514.799559 
L 373.408225 514.799559 
z
" clip-path="url(#p0b2b62fb52)" style="fill: none"/>
    </g>
    <g clip-path="url(#p0b2b62fb52)">
     <!-- 15 -->
     <g transform="translate(376.399719 512.0491)rotate(-312.596257)scale(0.08 -0.08)">
      <use xlink:href="#DejaVuSans-31"/>
      <use xlink:href="#DejaVuSans-35" x="63.623047"/>
     </g>
    </g>
   </g>
   <g id="text_33">
    <g id="patch_67">
     <path d="M 331.572448 398.487273 
L 331.572448 388.307273 
Q 331.572448 385.907273 329.172448 385.907273 
L 321.429948 385.907273 
Q 319.029948 385.907273 319.029948 388.307273 
L 319.029948 398.487273 
Q 319.029948 400.887273 321.429948 400.887273 
L 329.172448 400.887273 
Q 331.572448 400.887273 331.572448 398.487273 
L 331.572448 398.487273 
z
" clip-path="url(#p0b2b62fb52)" style="fill: none"/>
    </g>
    <g clip-path="url(#p0b2b62fb52)">
     <!-- 28 -->
     <g transform="translate(327.508698 398.487273)rotate(-90)scale(0.08 -0.08)">
      <use xlink:href="#DejaVuSans-32"/>
      <use xlink:href="#DejaVuSans-38" x="63.623047"/>
     </g>
    </g>
   </g>
   <g id="text_34">
    <g id="patch_68">
     <path d="M 316.349494 521.222166 
L 317.522474 516.269165 
Q 318.075549 513.933762 315.740146 513.380687 
L 308.206037 511.596444 
Q 305.870634 511.043369 305.317559 513.378772 
L 304.14458 518.331773 
Q 303.591505 520.667177 305.926908 521.220252 
L 313.461016 523.004494 
Q 315.796419 523.557569 316.349494 521.222166 
L 316.349494 521.222166 
z
" clip-path="url(#p0b2b62fb52)" style="fill: none"/>
    </g>
    <g clip-path="url(#p0b2b62fb52)">
     <!-- 2 -->
     <g transform="translate(312.395121 520.285683)rotate(-76.676559)scale(0.08 -0.08)">
      <use xlink:href="#DejaVuSans-32"/>
     </g>
    </g>
   </g>
   <g id="text_35">
    <g id="patch_69">
     <path d="M 426.413059 766.132303 
L 431.077092 757.083591 
Q 432.176668 754.950299 430.043376 753.850723 
L 423.161288 750.303447 
Q 421.027996 749.203871 419.928421 751.337163 
L 415.264388 760.385875 
Q 414.164812 762.519167 416.298104 763.618742 
L 423.180192 767.166019 
Q 425.313483 768.265595 426.413059 766.132303 
L 426.413059 766.132303 
z
" clip-path="url(#p0b2b62fb52)" style="fill: none"/>
    </g>
    <g clip-path="url(#p0b2b62fb52)">
     <!-- 46 -->
     <g transform="translate(422.800907 764.270469)rotate(-62.731786)scale(0.08 -0.08)">
      <use xlink:href="#DejaVuSans-34"/>
      <use xlink:href="#DejaVuSans-36" x="63.623047"/>
     </g>
    </g>
   </g>
   <g id="matplotlib.axis_1">
    <g id="xtick_1"/>
    <g id="xtick_2"/>
    <g id="xtick_3"/>
    <g id="xtick_4"/>
    <g id="xtick_5"/>
   </g>
   <g id="matplotlib.axis_2">
    <g id="ytick_1"/>
    <g id="ytick_2"/>
    <g id="ytick_3"/>
    <g id="ytick_4"/>
    <g id="ytick_5"/>
   </g>
   <g id="PathCollection_1">
    <defs>
     <path id="C0_0_96fa415f46" d="M 0 8.660254 
C 2.296726 8.660254 4.499694 7.747755 6.123724 6.123724 
C 7.747755 4.499694 8.660254 2.296726 8.660254 -0 
C 8.660254 -2.296726 7.747755 -4.499694 6.123724 -6.123724 
C 4.499694 -7.747755 2.296726 -8.660254 0 -8.660254 
C -2.296726 -8.660254 -4.499694 -7.747755 -6.123724 -6.123724 
C -7.747755 -4.499694 -8.660254 -2.296726 -8.660254 0 
C -8.660254 2.296726 -7.747755 4.499694 -6.123724 6.123724 
C -4.499694 7.747755 -2.296726 8.660254 0 8.660254 
z
"/>
    </defs>
    <g clip-path="url(#p0b2b62fb52)">
     <use xlink:href="#C0_0_96fa415f46" x="548.273545" y="337.396364" style="fill: #1f78b4; stroke: #1f78b4"/>
    </g>
    <g clip-path="url(#p0b2b62fb52)">
     <use xlink:href="#C0_0_96fa415f46" x="437.638411" y="581.76" style="fill: #1f78b4; stroke: #1f78b4"/>
    </g>
    <g clip-path="url(#p0b2b62fb52)">
     <use xlink:href="#C0_0_96fa415f46" x="584.868243" y="459.578182" style="fill: #1f78b4; stroke: #1f78b4"/>
    </g>
    <g clip-path="url(#p0b2b62fb52)">
     <use xlink:href="#C0_0_96fa415f46" x="391.682279" y="826.123636" style="fill: #1f78b4; stroke: #1f78b4"/>
    </g>
    <g clip-path="url(#p0b2b62fb52)">
     <use xlink:href="#C0_0_96fa415f46" x="391.682279" y="948.305455" style="fill: #1f78b4; stroke: #1f78b4"/>
    </g>
    <g clip-path="url(#p0b2b62fb52)">
     <use xlink:href="#C0_0_96fa415f46" x="221.47438" y="948.305455" style="fill: #1f78b4; stroke: #1f78b4"/>
    </g>
    <g clip-path="url(#p0b2b62fb52)">
     <use xlink:href="#C0_0_96fa415f46" x="633.377494" y="948.305455" style="fill: #1f78b4; stroke: #1f78b4"/>
    </g>
    <g clip-path="url(#p0b2b62fb52)">
     <use xlink:href="#C0_0_96fa415f46" x="296.365855" y="948.305455" style="fill: #1f78b4; stroke: #1f78b4"/>
    </g>
    <g clip-path="url(#p0b2b62fb52)">
     <use xlink:href="#C0_0_96fa415f46" x="647.845166" y="215.214545" style="fill: #1f78b4; stroke: #1f78b4"/>
    </g>
    <g clip-path="url(#p0b2b62fb52)">
     <use xlink:href="#C0_0_96fa415f46" x="647.845166" y="337.396364" style="fill: #a85832; stroke: #a85832"/>
    </g>
    <g clip-path="url(#p0b2b62fb52)">
     <use xlink:href="#C0_0_96fa415f46" x="745.714707" y="337.396364" style="fill: #a88e32; stroke: #a88e32"/>
    </g>
    <g clip-path="url(#p0b2b62fb52)">
     <use xlink:href="#C0_0_96fa415f46" x="325.301198" y="337.396364" style="fill: #1f78b4; stroke: #1f78b4"/>
    </g>
    <g clip-path="url(#p0b2b62fb52)">
     <use xlink:href="#C0_0_96fa415f46" x="846.988407" y="337.396364" style="fill: #1f78b4; stroke: #1f78b4"/>
    </g>
    <g clip-path="url(#p0b2b62fb52)">
     <use xlink:href="#C0_0_96fa415f46" x="959.32562" y="337.396364" style="fill: #8ca832; stroke: #8ca832"/>
    </g>
    <g clip-path="url(#p0b2b62fb52)">
     <use xlink:href="#C0_0_96fa415f46" x="426.574898" y="337.396364" style="fill: #1f78b4; stroke: #1f78b4"/>
    </g>
    <g clip-path="url(#p0b2b62fb52)">
     <use xlink:href="#C0_0_96fa415f46" x="300.621053" y="215.214545" style="fill: #1f78b4; stroke: #1f78b4"/>
    </g>
    <g clip-path="url(#p0b2b62fb52)">
     <use xlink:href="#C0_0_96fa415f46" x="296.365855" y="581.76" style="fill: #1f78b4; stroke: #1f78b4"/>
    </g>
    <g clip-path="url(#p0b2b62fb52)">
     <use xlink:href="#C0_0_96fa415f46" x="325.301198" y="459.578182" style="fill: #1f78b4; stroke: #1f78b4"/>
    </g>
    <g clip-path="url(#p0b2b62fb52)">
     <use xlink:href="#C0_0_96fa415f46" x="369.555252" y="581.76" style="fill: #1f78b4; stroke: #1f78b4"/>
    </g>
    <g clip-path="url(#p0b2b62fb52)">
     <use xlink:href="#C0_0_96fa415f46" x="454.659201" y="703.941818" style="fill: #1f78b4; stroke: #1f78b4"/>
    </g>
   </g>
   <g id="patch_70">
    <path d="M 144 1025.28 
L 144 138.24 
" style="fill: none; stroke: #000000; stroke-width: 0.8; stroke-linejoin: miter; stroke-linecap: square"/>
   </g>
   <g id="patch_71">
    <path d="M 1036.8 1025.28 
L 1036.8 138.24 
" style="fill: none; stroke: #000000; stroke-width: 0.8; stroke-linejoin: miter; stroke-linecap: square"/>
   </g>
   <g id="patch_72">
    <path d="M 144 1025.28 
L 1036.8 1025.28 
" style="fill: none; stroke: #000000; stroke-width: 0.8; stroke-linejoin: miter; stroke-linecap: square"/>
   </g>
   <g id="patch_73">
    <path d="M 144 138.24 
L 1036.8 138.24 
" style="fill: none; stroke: #000000; stroke-width: 0.8; stroke-linejoin: miter; stroke-linecap: square"/>
   </g>
   <g id="text_36">
    <g clip-path="url(#p0b2b62fb52)">
     <!-- admin-order -->
     <g transform="translate(514.286123 340.431676)scale(0.11 -0.11)">
      <defs>
       <path id="DejaVuSans-64" d="M 2906 2969 
L 2906 4863 
L 3481 4863 
L 3481 0 
L 2906 0 
L 2906 525 
Q 2725 213 2448 61 
Q 2172 -91 1784 -91 
Q 1150 -91 751 415 
Q 353 922 353 1747 
Q 353 2572 751 3078 
Q 1150 3584 1784 3584 
Q 2172 3584 2448 3432 
Q 2725 3281 2906 2969 
z
M 947 1747 
Q 947 1113 1208 752 
Q 1469 391 1925 391 
Q 2381 391 2643 752 
Q 2906 1113 2906 1747 
Q 2906 2381 2643 2742 
Q 2381 3103 1925 3103 
Q 1469 3103 1208 2742 
Q 947 2381 947 1747 
z
" transform="scale(0.015625)"/>
       <path id="DejaVuSans-6d" d="M 3328 2828 
Q 3544 3216 3844 3400 
Q 4144 3584 4550 3584 
Q 5097 3584 5394 3201 
Q 5691 2819 5691 2113 
L 5691 0 
L 5113 0 
L 5113 2094 
Q 5113 2597 4934 2840 
Q 4756 3084 4391 3084 
Q 3944 3084 3684 2787 
Q 3425 2491 3425 1978 
L 3425 0 
L 2847 0 
L 2847 2094 
Q 2847 2600 2669 2842 
Q 2491 3084 2119 3084 
Q 1678 3084 1418 2786 
Q 1159 2488 1159 1978 
L 1159 0 
L 581 0 
L 581 3500 
L 1159 3500 
L 1159 2956 
Q 1356 3278 1631 3431 
Q 1906 3584 2284 3584 
Q 2666 3584 2933 3390 
Q 3200 3197 3328 2828 
z
" transform="scale(0.015625)"/>
       <path id="DejaVuSans-69" d="M 603 3500 
L 1178 3500 
L 1178 0 
L 603 0 
L 603 3500 
z
M 603 4863 
L 1178 4863 
L 1178 4134 
L 603 4134 
L 603 4863 
z
" transform="scale(0.015625)"/>
       <path id="DejaVuSans-2d" d="M 313 2009 
L 1997 2009 
L 1997 1497 
L 313 1497 
L 313 2009 
z
" transform="scale(0.015625)"/>
       <path id="DejaVuSans-6f" d="M 1959 3097 
Q 1497 3097 1228 2736 
Q 959 2375 959 1747 
Q 959 1119 1226 758 
Q 1494 397 1959 397 
Q 2419 397 2687 759 
Q 2956 1122 2956 1747 
Q 2956 2369 2687 2733 
Q 2419 3097 1959 3097 
z
M 1959 3584 
Q 2709 3584 3137 3096 
Q 3566 2609 3566 1747 
Q 3566 888 3137 398 
Q 2709 -91 1959 -91 
Q 1206 -91 779 398 
Q 353 888 353 1747 
Q 353 2609 779 3096 
Q 1206 3584 1959 3584 
z
" transform="scale(0.015625)"/>
       <path id="DejaVuSans-72" d="M 2631 2963 
Q 2534 3019 2420 3045 
Q 2306 3072 2169 3072 
Q 1681 3072 1420 2755 
Q 1159 2438 1159 1844 
L 1159 0 
L 581 0 
L 581 3500 
L 1159 3500 
L 1159 2956 
Q 1341 3275 1631 3429 
Q 1922 3584 2338 3584 
Q 2397 3584 2469 3576 
Q 2541 3569 2628 3553 
L 2631 2963 
z
" transform="scale(0.015625)"/>
      </defs>
      <use xlink:href="#DejaVuSans-61"/>
      <use xlink:href="#DejaVuSans-64" x="61.279297"/>
      <use xlink:href="#DejaVuSans-6d" x="124.755859"/>
      <use xlink:href="#DejaVuSans-69" x="222.167969"/>
      <use xlink:href="#DejaVuSans-6e" x="249.951172"/>
      <use xlink:href="#DejaVuSans-2d" x="313.330078"/>
      <use xlink:href="#DejaVuSans-6f" x="351.289062"/>
      <use xlink:href="#DejaVuSans-72" x="412.470703"/>
      <use xlink:href="#DejaVuSans-64" x="451.833984"/>
      <use xlink:href="#DejaVuSans-65" x="515.310547"/>
      <use xlink:href="#DejaVuSans-72" x="576.833984"/>
     </g>
    </g>
   </g>
   <g id="text_37">
    <g clip-path="url(#p0b2b62fb52)">
     <!-- order -->
     <g transform="translate(422.971458 584.795313)scale(0.11 -0.11)">
      <use xlink:href="#DejaVuSans-6f"/>
      <use xlink:href="#DejaVuSans-72" x="61.181641"/>
      <use xlink:href="#DejaVuSans-64" x="100.544922"/>
      <use xlink:href="#DejaVuSans-65" x="164.021484"/>
      <use xlink:href="#DejaVuSans-72" x="225.544922"/>
     </g>
    </g>
   </g>
   <g id="text_38">
    <g clip-path="url(#p0b2b62fb52)">
     <!-- order-other -->
     <g transform="translate(553.81215 462.613494)scale(0.11 -0.11)">
      <use xlink:href="#DejaVuSans-6f"/>
      <use xlink:href="#DejaVuSans-72" x="61.181641"/>
      <use xlink:href="#DejaVuSans-64" x="100.544922"/>
      <use xlink:href="#DejaVuSans-65" x="164.021484"/>
      <use xlink:href="#DejaVuSans-72" x="225.544922"/>
      <use xlink:href="#DejaVuSans-2d" x="260.283203"/>
      <use xlink:href="#DejaVuSans-6f" x="298.242188"/>
      <use xlink:href="#DejaVuSans-74" x="359.423828"/>
      <use xlink:href="#DejaVuSans-68" x="398.632812"/>
      <use xlink:href="#DejaVuSans-65" x="462.011719"/>
      <use xlink:href="#DejaVuSans-72" x="523.535156"/>
     </g>
    </g>
   </g>
   <g id="text_39">
    <g clip-path="url(#p0b2b62fb52)">
     <!-- basic -->
     <g transform="translate(377.402904 829.158949)scale(0.11 -0.11)">
      <defs>
       <path id="DejaVuSans-62" d="M 3116 1747 
Q 3116 2381 2855 2742 
Q 2594 3103 2138 3103 
Q 1681 3103 1420 2742 
Q 1159 2381 1159 1747 
Q 1159 1113 1420 752 
Q 1681 391 2138 391 
Q 2594 391 2855 752 
Q 3116 1113 3116 1747 
z
M 1159 2969 
Q 1341 3281 1617 3432 
Q 1894 3584 2278 3584 
Q 2916 3584 3314 3078 
Q 3713 2572 3713 1747 
Q 3713 922 3314 415 
Q 2916 -91 2278 -91 
Q 1894 -91 1617 61 
Q 1341 213 1159 525 
L 1159 0 
L 581 0 
L 581 4863 
L 1159 4863 
L 1159 2969 
z
" transform="scale(0.015625)"/>
      </defs>
      <use xlink:href="#DejaVuSans-62"/>
      <use xlink:href="#DejaVuSans-61" x="63.476562"/>
      <use xlink:href="#DejaVuSans-73" x="124.755859"/>
      <use xlink:href="#DejaVuSans-69" x="176.855469"/>
      <use xlink:href="#DejaVuSans-63" x="204.638672"/>
     </g>
    </g>
   </g>
   <g id="text_40">
    <g clip-path="url(#p0b2b62fb52)">
     <!-- price -->
     <g transform="translate(377.993294 951.340767)scale(0.11 -0.11)">
      <use xlink:href="#DejaVuSans-70"/>
      <use xlink:href="#DejaVuSans-72" x="63.476562"/>
      <use xlink:href="#DejaVuSans-69" x="104.589844"/>
      <use xlink:href="#DejaVuSans-63" x="132.373047"/>
      <use xlink:href="#DejaVuSans-65" x="187.353516"/>
     </g>
    </g>
   </g>
   <g id="text_41">
    <g clip-path="url(#p0b2b62fb52)">
     <!-- route -->
     <g transform="translate(206.945786 951.340767)scale(0.11 -0.11)">
      <use xlink:href="#DejaVuSans-72"/>
      <use xlink:href="#DejaVuSans-6f" x="38.863281"/>
      <use xlink:href="#DejaVuSans-75" x="100.044922"/>
      <use xlink:href="#DejaVuSans-74" x="163.423828"/>
      <use xlink:href="#DejaVuSans-65" x="202.632812"/>
     </g>
    </g>
   </g>
   <g id="text_42">
    <g clip-path="url(#p0b2b62fb52)">
     <!-- station -->
     <g transform="translate(614.450619 951.340767)scale(0.11 -0.11)">
      <use xlink:href="#DejaVuSans-73"/>
      <use xlink:href="#DejaVuSans-74" x="52.099609"/>
      <use xlink:href="#DejaVuSans-61" x="91.308594"/>
      <use xlink:href="#DejaVuSans-74" x="152.587891"/>
      <use xlink:href="#DejaVuSans-69" x="191.796875"/>
      <use xlink:href="#DejaVuSans-6f" x="219.580078"/>
      <use xlink:href="#DejaVuSans-6e" x="280.761719"/>
     </g>
    </g>
   </g>
   <g id="text_43">
    <g clip-path="url(#p0b2b62fb52)">
     <!-- train -->
     <g transform="translate(283.564605 951.340767)scale(0.11 -0.11)">
      <use xlink:href="#DejaVuSans-74"/>
      <use xlink:href="#DejaVuSans-72" x="39.208984"/>
      <use xlink:href="#DejaVuSans-61" x="80.322266"/>
      <use xlink:href="#DejaVuSans-69" x="141.601562"/>
      <use xlink:href="#DejaVuSans-6e" x="169.384766"/>
     </g>
    </g>
   </g>
   <g id="text_44">
    <g clip-path="url(#p0b2b62fb52)">
     <!-- gateway -->
     <g transform="translate(624.318916 218.249858)scale(0.11 -0.11)">
      <defs>
       <path id="DejaVuSans-67" d="M 2906 1791 
Q 2906 2416 2648 2759 
Q 2391 3103 1925 3103 
Q 1463 3103 1205 2759 
Q 947 2416 947 1791 
Q 947 1169 1205 825 
Q 1463 481 1925 481 
Q 2391 481 2648 825 
Q 2906 1169 2906 1791 
z
M 3481 434 
Q 3481 -459 3084 -895 
Q 2688 -1331 1869 -1331 
Q 1566 -1331 1297 -1286 
Q 1028 -1241 775 -1147 
L 775 -588 
Q 1028 -725 1275 -790 
Q 1522 -856 1778 -856 
Q 2344 -856 2625 -561 
Q 2906 -266 2906 331 
L 2906 616 
Q 2728 306 2450 153 
Q 2172 0 1784 0 
Q 1141 0 747 490 
Q 353 981 353 1791 
Q 353 2603 747 3093 
Q 1141 3584 1784 3584 
Q 2172 3584 2450 3431 
Q 2728 3278 2906 2969 
L 2906 3500 
L 3481 3500 
L 3481 434 
z
" transform="scale(0.015625)"/>
       <path id="DejaVuSans-77" d="M 269 3500 
L 844 3500 
L 1563 769 
L 2278 3500 
L 2956 3500 
L 3675 769 
L 4391 3500 
L 4966 3500 
L 4050 0 
L 3372 0 
L 2619 2869 
L 1863 0 
L 1184 0 
L 269 3500 
z
" transform="scale(0.015625)"/>
      </defs>
      <use xlink:href="#DejaVuSans-67"/>
      <use xlink:href="#DejaVuSans-61" x="63.476562"/>
      <use xlink:href="#DejaVuSans-74" x="124.755859"/>
      <use xlink:href="#DejaVuSans-65" x="163.964844"/>
      <use xlink:href="#DejaVuSans-77" x="225.488281"/>
      <use xlink:href="#DejaVuSans-61" x="307.275391"/>
      <use xlink:href="#DejaVuSans-79" x="368.554688"/>
     </g>
    </g>
   </g>
   <g id="text_45">
    <g clip-path="url(#p0b2b62fb52)">
     <!-- assurance -->
     <g transform="translate(619.733291 340.431676)scale(0.11 -0.11)">
      <use xlink:href="#DejaVuSans-61"/>
      <use xlink:href="#DejaVuSans-73" x="61.279297"/>
      <use xlink:href="#DejaVuSans-73" x="113.378906"/>
      <use xlink:href="#DejaVuSans-75" x="165.478516"/>
      <use xlink:href="#DejaVuSans-72" x="228.857422"/>
      <use xlink:href="#DejaVuSans-61" x="269.970703"/>
      <use xlink:href="#DejaVuSans-6e" x="331.25"/>
      <use xlink:href="#DejaVuSans-63" x="394.628906"/>
      <use xlink:href="#DejaVuSans-65" x="449.609375"/>
     </g>
    </g>
   </g>
   <g id="text_46">
    <g clip-path="url(#p0b2b62fb52)">
     <!-- auth*(RC)* -->
     <g transform="translate(716.03791 340.431676)scale(0.11 -0.11)">
      <defs>
       <path id="DejaVuSans-2a" d="M 3009 3897 
L 1888 3291 
L 3009 2681 
L 2828 2375 
L 1778 3009 
L 1778 1831 
L 1422 1831 
L 1422 3009 
L 372 2375 
L 191 2681 
L 1313 3291 
L 191 3897 
L 372 4206 
L 1422 3572 
L 1422 4750 
L 1778 4750 
L 1778 3572 
L 2828 4206 
L 3009 3897 
z
" transform="scale(0.015625)"/>
       <path id="DejaVuSans-28" d="M 1984 4856 
Q 1566 4138 1362 3434 
Q 1159 2731 1159 2009 
Q 1159 1288 1364 580 
Q 1569 -128 1984 -844 
L 1484 -844 
Q 1016 -109 783 600 
Q 550 1309 550 2009 
Q 550 2706 781 3412 
Q 1013 4119 1484 4856 
L 1984 4856 
z
" transform="scale(0.015625)"/>
       <path id="DejaVuSans-52" d="M 2841 2188 
Q 3044 2119 3236 1894 
Q 3428 1669 3622 1275 
L 4263 0 
L 3584 0 
L 2988 1197 
Q 2756 1666 2539 1819 
Q 2322 1972 1947 1972 
L 1259 1972 
L 1259 0 
L 628 0 
L 628 4666 
L 2053 4666 
Q 2853 4666 3247 4331 
Q 3641 3997 3641 3322 
Q 3641 2881 3436 2590 
Q 3231 2300 2841 2188 
z
M 1259 4147 
L 1259 2491 
L 2053 2491 
Q 2509 2491 2742 2702 
Q 2975 2913 2975 3322 
Q 2975 3731 2742 3939 
Q 2509 4147 2053 4147 
L 1259 4147 
z
" transform="scale(0.015625)"/>
       <path id="DejaVuSans-43" d="M 4122 4306 
L 4122 3641 
Q 3803 3938 3442 4084 
Q 3081 4231 2675 4231 
Q 1875 4231 1450 3742 
Q 1025 3253 1025 2328 
Q 1025 1406 1450 917 
Q 1875 428 2675 428 
Q 3081 428 3442 575 
Q 3803 722 4122 1019 
L 4122 359 
Q 3791 134 3420 21 
Q 3050 -91 2638 -91 
Q 1578 -91 968 557 
Q 359 1206 359 2328 
Q 359 3453 968 4101 
Q 1578 4750 2638 4750 
Q 3056 4750 3426 4639 
Q 3797 4528 4122 4306 
z
" transform="scale(0.015625)"/>
       <path id="DejaVuSans-29" d="M 513 4856 
L 1013 4856 
Q 1481 4119 1714 3412 
Q 1947 2706 1947 2009 
Q 1947 1309 1714 600 
Q 1481 -109 1013 -844 
L 513 -844 
Q 928 -128 1133 580 
Q 1338 1288 1338 2009 
Q 1338 2731 1133 3434 
Q 928 4138 513 4856 
z
" transform="scale(0.015625)"/>
      </defs>
      <use xlink:href="#DejaVuSans-61"/>
      <use xlink:href="#DejaVuSans-75" x="61.279297"/>
      <use xlink:href="#DejaVuSans-74" x="124.658203"/>
      <use xlink:href="#DejaVuSans-68" x="163.867188"/>
      <use xlink:href="#DejaVuSans-2a" x="227.246094"/>
      <use xlink:href="#DejaVuSans-28" x="277.246094"/>
      <use xlink:href="#DejaVuSans-52" x="316.259766"/>
      <use xlink:href="#DejaVuSans-43" x="380.742188"/>
      <use xlink:href="#DejaVuSans-29" x="450.566406"/>
      <use xlink:href="#DejaVuSans-2a" x="489.580078"/>
     </g>
    </g>
   </g>
   <g id="text_47">
    <g clip-path="url(#p0b2b62fb52)">
     <!-- travel -->
     <g transform="translate(309.346042 340.431676)scale(0.11 -0.11)">
      <defs>
       <path id="DejaVuSans-76" d="M 191 3500 
L 800 3500 
L 1894 563 
L 2988 3500 
L 3597 3500 
L 2284 0 
L 1503 0 
L 191 3500 
z
" transform="scale(0.015625)"/>
      </defs>
      <use xlink:href="#DejaVuSans-74"/>
      <use xlink:href="#DejaVuSans-72" x="39.208984"/>
      <use xlink:href="#DejaVuSans-61" x="80.322266"/>
      <use xlink:href="#DejaVuSans-76" x="141.601562"/>
      <use xlink:href="#DejaVuSans-65" x="200.78125"/>
      <use xlink:href="#DejaVuSans-6c" x="262.304688"/>
     </g>
    </g>
   </g>
   <g id="text_48">
    <g clip-path="url(#p0b2b62fb52)">
     <!-- travel-plan -->
     <g transform="translate(817.173251 340.431676)scale(0.11 -0.11)">
      <use xlink:href="#DejaVuSans-74"/>
      <use xlink:href="#DejaVuSans-72" x="39.208984"/>
      <use xlink:href="#DejaVuSans-61" x="80.322266"/>
      <use xlink:href="#DejaVuSans-76" x="141.601562"/>
      <use xlink:href="#DejaVuSans-65" x="200.78125"/>
      <use xlink:href="#DejaVuSans-6c" x="262.304688"/>
      <use xlink:href="#DejaVuSans-2d" x="290.087891"/>
      <use xlink:href="#DejaVuSans-70" x="326.171875"/>
      <use xlink:href="#DejaVuSans-6c" x="389.648438"/>
      <use xlink:href="#DejaVuSans-61" x="417.431641"/>
      <use xlink:href="#DejaVuSans-6e" x="478.710938"/>
     </g>
    </g>
   </g>
   <g id="text_49">
    <g clip-path="url(#p0b2b62fb52)">
     <!-- ts-ui-dashboard -->
     <g transform="translate(916.225385 340.431676)scale(0.11 -0.11)">
      <use xlink:href="#DejaVuSans-74"/>
      <use xlink:href="#DejaVuSans-73" x="39.208984"/>
      <use xlink:href="#DejaVuSans-2d" x="91.308594"/>
      <use xlink:href="#DejaVuSans-75" x="127.392578"/>
      <use xlink:href="#DejaVuSans-69" x="190.771484"/>
      <use xlink:href="#DejaVuSans-2d" x="218.554688"/>
      <use xlink:href="#DejaVuSans-64" x="254.638672"/>
      <use xlink:href="#DejaVuSans-61" x="318.115234"/>
      <use xlink:href="#DejaVuSans-73" x="379.394531"/>
      <use xlink:href="#DejaVuSans-68" x="431.494141"/>
      <use xlink:href="#DejaVuSans-62" x="494.873047"/>
      <use xlink:href="#DejaVuSans-6f" x="558.349609"/>
      <use xlink:href="#DejaVuSans-61" x="619.53125"/>
      <use xlink:href="#DejaVuSans-72" x="680.810547"/>
      <use xlink:href="#DejaVuSans-64" x="720.173828"/>
     </g>
    </g>
   </g>
   <g id="text_50">
    <g clip-path="url(#p0b2b62fb52)">
     <!-- verification-code -->
     <g transform="translate(380.502945 340.431676)scale(0.11 -0.11)">
      <defs>
       <path id="DejaVuSans-66" d="M 2375 4863 
L 2375 4384 
L 1825 4384 
Q 1516 4384 1395 4259 
Q 1275 4134 1275 3809 
L 1275 3500 
L 2222 3500 
L 2222 3053 
L 1275 3053 
L 1275 0 
L 697 0 
L 697 3053 
L 147 3053 
L 147 3500 
L 697 3500 
L 697 3744 
Q 697 4328 969 4595 
Q 1241 4863 1831 4863 
L 2375 4863 
z
" transform="scale(0.015625)"/>
      </defs>
      <use xlink:href="#DejaVuSans-76"/>
      <use xlink:href="#DejaVuSans-65" x="59.179688"/>
      <use xlink:href="#DejaVuSans-72" x="120.703125"/>
      <use xlink:href="#DejaVuSans-69" x="161.816406"/>
      <use xlink:href="#DejaVuSans-66" x="189.599609"/>
      <use xlink:href="#DejaVuSans-69" x="224.804688"/>
      <use xlink:href="#DejaVuSans-63" x="252.587891"/>
      <use xlink:href="#DejaVuSans-61" x="307.568359"/>
      <use xlink:href="#DejaVuSans-74" x="368.847656"/>
      <use xlink:href="#DejaVuSans-69" x="408.056641"/>
      <use xlink:href="#DejaVuSans-6f" x="435.839844"/>
      <use xlink:href="#DejaVuSans-6e" x="497.021484"/>
      <use xlink:href="#DejaVuSans-2d" x="560.400391"/>
      <use xlink:href="#DejaVuSans-63" x="596.484375"/>
      <use xlink:href="#DejaVuSans-6f" x="651.464844"/>
      <use xlink:href="#DejaVuSans-64" x="712.646484"/>
      <use xlink:href="#DejaVuSans-65" x="776.123047"/>
     </g>
    </g>
   </g>
   <g id="text_51">
    <g clip-path="url(#p0b2b62fb52)">
     <!-- route-plan -->
     <g transform="translate(272.232459 218.249858)scale(0.11 -0.11)">
      <use xlink:href="#DejaVuSans-72"/>
      <use xlink:href="#DejaVuSans-6f" x="38.863281"/>
      <use xlink:href="#DejaVuSans-75" x="100.044922"/>
      <use xlink:href="#DejaVuSans-74" x="163.423828"/>
      <use xlink:href="#DejaVuSans-65" x="202.632812"/>
      <use xlink:href="#DejaVuSans-2d" x="264.15625"/>
      <use xlink:href="#DejaVuSans-70" x="300.240234"/>
      <use xlink:href="#DejaVuSans-6c" x="363.716797"/>
      <use xlink:href="#DejaVuSans-61" x="391.5"/>
      <use xlink:href="#DejaVuSans-6e" x="452.779297"/>
     </g>
    </g>
   </g>
   <g id="text_52">
    <g clip-path="url(#p0b2b62fb52)">
     <!-- travel2 -->
     <g transform="translate(276.911324 584.795313)scale(0.11 -0.11)">
      <use xlink:href="#DejaVuSans-74"/>
      <use xlink:href="#DejaVuSans-72" x="39.208984"/>
      <use xlink:href="#DejaVuSans-61" x="80.322266"/>
      <use xlink:href="#DejaVuSans-76" x="141.601562"/>
      <use xlink:href="#DejaVuSans-65" x="200.78125"/>
      <use xlink:href="#DejaVuSans-6c" x="262.304688"/>
      <use xlink:href="#DejaVuSans-32" x="290.087891"/>
     </g>
    </g>
   </g>
   <g id="text_53">
    <g clip-path="url(#p0b2b62fb52)">
     <!-- seat -->
     <g transform="translate(313.525183 462.613494)scale(0.11 -0.11)">
      <use xlink:href="#DejaVuSans-73"/>
      <use xlink:href="#DejaVuSans-65" x="52.099609"/>
      <use xlink:href="#DejaVuSans-61" x="113.623047"/>
      <use xlink:href="#DejaVuSans-74" x="174.902344"/>
     </g>
    </g>
   </g>
   <g id="text_54">
    <g clip-path="url(#p0b2b62fb52)">
     <!-- config -->
     <g transform="translate(352.724392 584.795313)scale(0.11 -0.11)">
      <use xlink:href="#DejaVuSans-63"/>
      <use xlink:href="#DejaVuSans-6f" x="54.980469"/>
      <use xlink:href="#DejaVuSans-6e" x="116.162109"/>
      <use xlink:href="#DejaVuSans-66" x="179.541016"/>
      <use xlink:href="#DejaVuSans-69" x="214.746094"/>
      <use xlink:href="#DejaVuSans-67" x="242.529297"/>
     </g>
    </g>
   </g>
   <g id="text_55">
    <g clip-path="url(#p0b2b62fb52)">
     <!-- ticketinfo -->
     <g transform="translate(429.109982 706.977131)scale(0.11 -0.11)">
      <defs>
       <path id="DejaVuSans-6b" d="M 581 4863 
L 1159 4863 
L 1159 1991 
L 2875 3500 
L 3609 3500 
L 1753 1863 
L 3688 0 
L 2938 0 
L 1159 1709 
L 1159 0 
L 581 0 
L 581 4863 
z
" transform="scale(0.015625)"/>
      </defs>
      <use xlink:href="#DejaVuSans-74"/>
      <use xlink:href="#DejaVuSans-69" x="39.208984"/>
      <use xlink:href="#DejaVuSans-63" x="66.992188"/>
      <use xlink:href="#DejaVuSans-6b" x="121.972656"/>
      <use xlink:href="#DejaVuSans-65" x="176.257812"/>
      <use xlink:href="#DejaVuSans-74" x="237.78125"/>
      <use xlink:href="#DejaVuSans-69" x="276.990234"/>
      <use xlink:href="#DejaVuSans-6e" x="304.773438"/>
      <use xlink:href="#DejaVuSans-66" x="368.152344"/>
      <use xlink:href="#DejaVuSans-6f" x="403.357422"/>
     </g>
    </g>
   </g>
  </g>
 </g>
 <defs>
  <clipPath id="p0b2b62fb52">
   <rect x="144" y="138.24" width="892.8" height="887.04"/>
  </clipPath>
 </defs>
</svg>
