<?xml version="1.0" encoding="utf-8" standalone="no"?>
<!DOCTYPE svg PUBLIC "-//W3C//DTD SVG 1.1//EN"
  "http://www.w3.org/Graphics/SVG/1.1/DTD/svg11.dtd">
<svg xmlns:xlink="http://www.w3.org/1999/xlink" width="1152pt" height="1152pt" viewBox="0 0 1152 1152" xmlns="http://www.w3.org/2000/svg" version="1.1">
 <metadata>
  <rdf:RDF xmlns:dc="http://purl.org/dc/elements/1.1/" xmlns:cc="http://creativecommons.org/ns#" xmlns:rdf="http://www.w3.org/1999/02/22-rdf-syntax-ns#">
   <cc:Work>
    <dc:type rdf:resource="http://purl.org/dc/dcmitype/StillImage"/>
    <dc:date>2022-11-17T01:45:33.661223</dc:date>
    <dc:format>image/svg+xml</dc:format>
    <dc:creator>
     <cc:Agent>
      <dc:title>Matplotlib v3.5.3, https://matplotlib.org/</dc:title>
     </cc:Agent>
    </dc:creator>
   </cc:Work>
  </rdf:RDF>
 </metadata>
 <defs>
  <style type="text/css">*{stroke-linejoin: round; stroke-linecap: butt}</style>
 </defs>
 <g id="figure_1">
  <g id="patch_1">
   <path d="M 0 1152 
L 1152 1152 
L 1152 0 
L 0 0 
z
" style="fill: #ffffff"/>
  </g>
  <g id="axes_1">
   <g id="patch_2">
    <path d="M 144 1025.28 
L 1036.8 1025.28 
L 1036.8 138.24 
L 144 138.24 
z
" style="fill: #ffffff"/>
   </g>
   <g id="text_1">
    <g id="patch_3">
     <path d="M 481.989104 312.355085 
L 507.001641 262.652754 
Q 508.080518 260.50892 505.936685 259.430043 
L 498.821836 255.849518 
Q 496.678002 254.770641 495.599125 256.914475 
L 470.586588 306.616806 
Q 469.507711 308.76064 471.651545 309.839517 
L 478.766393 313.420042 
Q 480.910227 314.498919 481.989104 312.355085 
L 481.989104 312.355085 
z
" clip-path="url(#p1b2416cebb)" style="fill: none"/>
    </g>
    <g clip-path="url(#p1b2416cebb)">
     <!-- ['http_status'] -->
     <g transform="translate(478.160351 310.428278)rotate(-63.286322)scale(0.08 -0.08)">
      <defs>
       <path id="DejaVuSans-5b" d="M 550 4863 
L 1875 4863 
L 1875 4416 
L 1125 4416 
L 1125 -397 
L 1875 -397 
L 1875 -844 
L 550 -844 
L 550 4863 
z
" transform="scale(0.015625)"/>
       <path id="DejaVuSans-27" d="M 1147 4666 
L 1147 2931 
L 616 2931 
L 616 4666 
L 1147 4666 
z
" transform="scale(0.015625)"/>
       <path id="DejaVuSans-68" d="M 3513 2113 
L 3513 0 
L 2938 0 
L 2938 2094 
Q 2938 2591 2744 2837 
Q 2550 3084 2163 3084 
Q 1697 3084 1428 2787 
Q 1159 2491 1159 1978 
L 1159 0 
L 581 0 
L 581 4863 
L 1159 4863 
L 1159 2956 
Q 1366 3272 1645 3428 
Q 1925 3584 2291 3584 
Q 2894 3584 3203 3211 
Q 3513 2838 3513 2113 
z
" transform="scale(0.015625)"/>
       <path id="DejaVuSans-74" d="M 1172 4494 
L 1172 3500 
L 2356 3500 
L 2356 3053 
L 1172 3053 
L 1172 1153 
Q 1172 725 1289 603 
Q 1406 481 1766 481 
L 2356 481 
L 2356 0 
L 1766 0 
Q 1100 0 847 248 
Q 594 497 594 1153 
L 594 3053 
L 172 3053 
L 172 3500 
L 594 3500 
L 594 4494 
L 1172 4494 
z
" transform="scale(0.015625)"/>
       <path id="DejaVuSans-70" d="M 1159 525 
L 1159 -1331 
L 581 -1331 
L 581 3500 
L 1159 3500 
L 1159 2969 
Q 1341 3281 1617 3432 
Q 1894 3584 2278 3584 
Q 2916 3584 3314 3078 
Q 3713 2572 3713 1747 
Q 3713 922 3314 415 
Q 2916 -91 2278 -91 
Q 1894 -91 1617 61 
Q 1341 213 1159 525 
z
M 3116 1747 
Q 3116 2381 2855 2742 
Q 2594 3103 2138 3103 
Q 1681 3103 1420 2742 
Q 1159 2381 1159 1747 
Q 1159 1113 1420 752 
Q 1681 391 2138 391 
Q 2594 391 2855 752 
Q 3116 1113 3116 1747 
z
" transform="scale(0.015625)"/>
       <path id="DejaVuSans-5f" d="M 3263 -1063 
L 3263 -1509 
L -63 -1509 
L -63 -1063 
L 3263 -1063 
z
" transform="scale(0.015625)"/>
       <path id="DejaVuSans-73" d="M 2834 3397 
L 2834 2853 
Q 2591 2978 2328 3040 
Q 2066 3103 1784 3103 
Q 1356 3103 1142 2972 
Q 928 2841 928 2578 
Q 928 2378 1081 2264 
Q 1234 2150 1697 2047 
L 1894 2003 
Q 2506 1872 2764 1633 
Q 3022 1394 3022 966 
Q 3022 478 2636 193 
Q 2250 -91 1575 -91 
Q 1294 -91 989 -36 
Q 684 19 347 128 
L 347 722 
Q 666 556 975 473 
Q 1284 391 1588 391 
Q 1994 391 2212 530 
Q 2431 669 2431 922 
Q 2431 1156 2273 1281 
Q 2116 1406 1581 1522 
L 1381 1569 
Q 847 1681 609 1914 
Q 372 2147 372 2553 
Q 372 3047 722 3315 
Q 1072 3584 1716 3584 
Q 2034 3584 2315 3537 
Q 2597 3491 2834 3397 
z
" transform="scale(0.015625)"/>
       <path id="DejaVuSans-61" d="M 2194 1759 
Q 1497 1759 1228 1600 
Q 959 1441 959 1056 
Q 959 750 1161 570 
Q 1363 391 1709 391 
Q 2188 391 2477 730 
Q 2766 1069 2766 1631 
L 2766 1759 
L 2194 1759 
z
M 3341 1997 
L 3341 0 
L 2766 0 
L 2766 531 
Q 2569 213 2275 61 
Q 1981 -91 1556 -91 
Q 1019 -91 701 211 
Q 384 513 384 1019 
Q 384 1609 779 1909 
Q 1175 2209 1959 2209 
L 2766 2209 
L 2766 2266 
Q 2766 2663 2505 2880 
Q 2244 3097 1772 3097 
Q 1472 3097 1187 3025 
Q 903 2953 641 2809 
L 641 3341 
Q 956 3463 1253 3523 
Q 1550 3584 1831 3584 
Q 2591 3584 2966 3190 
Q 3341 2797 3341 1997 
z
" transform="scale(0.015625)"/>
       <path id="DejaVuSans-75" d="M 544 1381 
L 544 3500 
L 1119 3500 
L 1119 1403 
Q 1119 906 1312 657 
Q 1506 409 1894 409 
Q 2359 409 2629 706 
Q 2900 1003 2900 1516 
L 2900 3500 
L 3475 3500 
L 3475 0 
L 2900 0 
L 2900 538 
Q 2691 219 2414 64 
Q 2138 -91 1772 -91 
Q 1169 -91 856 284 
Q 544 659 544 1381 
z
M 1991 3584 
L 1991 3584 
z
" transform="scale(0.015625)"/>
       <path id="DejaVuSans-5d" d="M 1947 4863 
L 1947 -844 
L 622 -844 
L 622 -397 
L 1369 -397 
L 1369 4416 
L 622 4416 
L 622 4863 
L 1947 4863 
z
" transform="scale(0.015625)"/>
      </defs>
      <use xlink:href="#DejaVuSans-5b"/>
      <use xlink:href="#DejaVuSans-27" x="39.013672"/>
      <use xlink:href="#DejaVuSans-68" x="66.503906"/>
      <use xlink:href="#DejaVuSans-74" x="129.882812"/>
      <use xlink:href="#DejaVuSans-74" x="169.091797"/>
      <use xlink:href="#DejaVuSans-70" x="208.300781"/>
      <use xlink:href="#DejaVuSans-5f" x="271.777344"/>
      <use xlink:href="#DejaVuSans-73" x="321.777344"/>
      <use xlink:href="#DejaVuSans-74" x="373.876953"/>
      <use xlink:href="#DejaVuSans-61" x="413.085938"/>
      <use xlink:href="#DejaVuSans-74" x="474.365234"/>
      <use xlink:href="#DejaVuSans-75" x="513.574219"/>
      <use xlink:href="#DejaVuSans-73" x="576.953125"/>
      <use xlink:href="#DejaVuSans-27" x="629.052734"/>
      <use xlink:href="#DejaVuSans-5d" x="656.542969"/>
     </g>
    </g>
   </g>
   <g id="text_2">
    <g id="patch_4">
     <path d="M 307.537414 316.076626 
L 435.387719 267.687253 
Q 437.632327 266.837704 436.782777 264.593096 
L 433.963335 257.143803 
Q 433.113785 254.899195 430.869177 255.748744 
L 303.018872 304.138117 
Q 300.774264 304.987667 301.623814 307.232275 
L 304.443257 314.681568 
Q 305.292806 316.926176 307.537414 316.076626 
L 307.537414 316.076626 
z
" clip-path="url(#p1b2416cebb)" style="fill: none"/>
    </g>
    <g clip-path="url(#p1b2416cebb)">
     <!-- ['latency', 'cpu_use', 'http_status'] -->
     <g transform="translate(306.020172 312.067896)rotate(-20.730883)scale(0.08 -0.08)">
      <defs>
       <path id="DejaVuSans-6c" d="M 603 4863 
L 1178 4863 
L 1178 0 
L 603 0 
L 603 4863 
z
" transform="scale(0.015625)"/>
       <path id="DejaVuSans-65" d="M 3597 1894 
L 3597 1613 
L 953 1613 
Q 991 1019 1311 708 
Q 1631 397 2203 397 
Q 2534 397 2845 478 
Q 3156 559 3463 722 
L 3463 178 
Q 3153 47 2828 -22 
Q 2503 -91 2169 -91 
Q 1331 -91 842 396 
Q 353 884 353 1716 
Q 353 2575 817 3079 
Q 1281 3584 2069 3584 
Q 2775 3584 3186 3129 
Q 3597 2675 3597 1894 
z
M 3022 2063 
Q 3016 2534 2758 2815 
Q 2500 3097 2075 3097 
Q 1594 3097 1305 2825 
Q 1016 2553 972 2059 
L 3022 2063 
z
" transform="scale(0.015625)"/>
       <path id="DejaVuSans-6e" d="M 3513 2113 
L 3513 0 
L 2938 0 
L 2938 2094 
Q 2938 2591 2744 2837 
Q 2550 3084 2163 3084 
Q 1697 3084 1428 2787 
Q 1159 2491 1159 1978 
L 1159 0 
L 581 0 
L 581 3500 
L 1159 3500 
L 1159 2956 
Q 1366 3272 1645 3428 
Q 1925 3584 2291 3584 
Q 2894 3584 3203 3211 
Q 3513 2838 3513 2113 
z
" transform="scale(0.015625)"/>
       <path id="DejaVuSans-63" d="M 3122 3366 
L 3122 2828 
Q 2878 2963 2633 3030 
Q 2388 3097 2138 3097 
Q 1578 3097 1268 2742 
Q 959 2388 959 1747 
Q 959 1106 1268 751 
Q 1578 397 2138 397 
Q 2388 397 2633 464 
Q 2878 531 3122 666 
L 3122 134 
Q 2881 22 2623 -34 
Q 2366 -91 2075 -91 
Q 1284 -91 818 406 
Q 353 903 353 1747 
Q 353 2603 823 3093 
Q 1294 3584 2113 3584 
Q 2378 3584 2631 3529 
Q 2884 3475 3122 3366 
z
" transform="scale(0.015625)"/>
       <path id="DejaVuSans-79" d="M 2059 -325 
Q 1816 -950 1584 -1140 
Q 1353 -1331 966 -1331 
L 506 -1331 
L 506 -850 
L 844 -850 
Q 1081 -850 1212 -737 
Q 1344 -625 1503 -206 
L 1606 56 
L 191 3500 
L 800 3500 
L 1894 763 
L 2988 3500 
L 3597 3500 
L 2059 -325 
z
" transform="scale(0.015625)"/>
       <path id="DejaVuSans-2c" d="M 750 794 
L 1409 794 
L 1409 256 
L 897 -744 
L 494 -744 
L 750 256 
L 750 794 
z
" transform="scale(0.015625)"/>
       <path id="DejaVuSans-20" transform="scale(0.015625)"/>
      </defs>
      <use xlink:href="#DejaVuSans-5b"/>
      <use xlink:href="#DejaVuSans-27" x="39.013672"/>
      <use xlink:href="#DejaVuSans-6c" x="66.503906"/>
      <use xlink:href="#DejaVuSans-61" x="94.287109"/>
      <use xlink:href="#DejaVuSans-74" x="155.566406"/>
      <use xlink:href="#DejaVuSans-65" x="194.775391"/>
      <use xlink:href="#DejaVuSans-6e" x="256.298828"/>
      <use xlink:href="#DejaVuSans-63" x="319.677734"/>
      <use xlink:href="#DejaVuSans-79" x="374.658203"/>
      <use xlink:href="#DejaVuSans-27" x="433.837891"/>
      <use xlink:href="#DejaVuSans-2c" x="461.328125"/>
      <use xlink:href="#DejaVuSans-20" x="493.115234"/>
      <use xlink:href="#DejaVuSans-27" x="524.902344"/>
      <use xlink:href="#DejaVuSans-63" x="552.392578"/>
      <use xlink:href="#DejaVuSans-70" x="607.373047"/>
      <use xlink:href="#DejaVuSans-75" x="670.849609"/>
      <use xlink:href="#DejaVuSans-5f" x="734.228516"/>
      <use xlink:href="#DejaVuSans-75" x="784.228516"/>
      <use xlink:href="#DejaVuSans-73" x="847.607422"/>
      <use xlink:href="#DejaVuSans-65" x="899.707031"/>
      <use xlink:href="#DejaVuSans-27" x="961.230469"/>
      <use xlink:href="#DejaVuSans-2c" x="988.720703"/>
      <use xlink:href="#DejaVuSans-20" x="1020.507812"/>
      <use xlink:href="#DejaVuSans-27" x="1052.294922"/>
      <use xlink:href="#DejaVuSans-68" x="1079.785156"/>
      <use xlink:href="#DejaVuSans-74" x="1143.164062"/>
      <use xlink:href="#DejaVuSans-74" x="1182.373047"/>
      <use xlink:href="#DejaVuSans-70" x="1221.582031"/>
      <use xlink:href="#DejaVuSans-5f" x="1285.058594"/>
      <use xlink:href="#DejaVuSans-73" x="1335.058594"/>
      <use xlink:href="#DejaVuSans-74" x="1387.158203"/>
      <use xlink:href="#DejaVuSans-61" x="1426.367188"/>
      <use xlink:href="#DejaVuSans-74" x="1487.646484"/>
      <use xlink:href="#DejaVuSans-75" x="1526.855469"/>
      <use xlink:href="#DejaVuSans-73" x="1590.234375"/>
      <use xlink:href="#DejaVuSans-27" x="1642.333984"/>
      <use xlink:href="#DejaVuSans-5d" x="1669.824219"/>
     </g>
    </g>
   </g>
   <g id="text_3">
    <g id="patch_5">
     <path d="M 709.592509 268.042282 
L 763.537037 281.67814 
Q 765.863851 282.266302 766.452013 279.939488 
L 768.403975 272.217372 
Q 768.992137 269.890558 766.665322 269.302396 
L 712.720794 255.666538 
Q 710.39398 255.078376 709.805818 257.40519 
L 707.853856 265.127306 
Q 707.265694 267.454121 709.592509 268.042282 
L 709.592509 268.042282 
z
" clip-path="url(#p1b2416cebb)" style="fill: none"/>
    </g>
    <g clip-path="url(#p1b2416cebb)">
     <!-- ['http_status'] -->
     <g transform="translate(710.642929 263.886737)rotate(-345.814181)scale(0.08 -0.08)">
      <use xlink:href="#DejaVuSans-5b"/>
      <use xlink:href="#DejaVuSans-27" x="39.013672"/>
      <use xlink:href="#DejaVuSans-68" x="66.503906"/>
      <use xlink:href="#DejaVuSans-74" x="129.882812"/>
      <use xlink:href="#DejaVuSans-74" x="169.091797"/>
      <use xlink:href="#DejaVuSans-70" x="208.300781"/>
      <use xlink:href="#DejaVuSans-5f" x="271.777344"/>
      <use xlink:href="#DejaVuSans-73" x="321.777344"/>
      <use xlink:href="#DejaVuSans-74" x="373.876953"/>
      <use xlink:href="#DejaVuSans-61" x="413.085938"/>
      <use xlink:href="#DejaVuSans-74" x="474.365234"/>
      <use xlink:href="#DejaVuSans-75" x="513.574219"/>
      <use xlink:href="#DejaVuSans-73" x="576.953125"/>
      <use xlink:href="#DejaVuSans-27" x="629.052734"/>
      <use xlink:href="#DejaVuSans-5d" x="656.542969"/>
     </g>
    </g>
   </g>
   <g id="patch_6">
    <path d="M 226.357558 314.007203 
Q 252.739612 352.670087 278.491493 390.409453 
" clip-path="url(#p1b2416cebb)" style="fill: none; stroke: #808080; stroke-linecap: round"/>
    <path d="M 277.888958 385.978093 
L 278.491493 390.409453 
L 274.584884 388.232665 
L 277.888958 385.978093 
z
" clip-path="url(#p1b2416cebb)" style="fill: #808080; stroke: #808080; stroke-linecap: round"/>
   </g>
   <g id="patch_7">
    <path d="M 806.129316 865.329913 
Q 806.129316 902.486334 806.129316 938.524721 
" clip-path="url(#p1b2416cebb)" style="fill: none; stroke: #808080; stroke-linecap: round"/>
    <path d="M 808.129316 934.524721 
L 806.129316 938.524721 
L 804.129316 934.524721 
L 808.129316 934.524721 
z
" clip-path="url(#p1b2416cebb)" style="fill: #808080; stroke: #808080; stroke-linecap: round"/>
   </g>
   <g id="patch_8">
    <path d="M 799.306177 862.002054 
Q 747.508551 902.487062 696.591815 942.283567 
" clip-path="url(#p1b2416cebb)" style="fill: none; stroke: #808080; stroke-linecap: round"/>
    <path d="M 700.975008 941.396087 
L 696.591815 942.283567 
L 698.511747 938.244525 
L 700.975008 941.396087 
z
" clip-path="url(#p1b2416cebb)" style="fill: #808080; stroke: #808080; stroke-linecap: round"/>
   </g>
   <g id="patch_9">
    <path d="M 813.142802 861.744775 
Q 869.437162 902.485195 924.825792 942.570135 
" clip-path="url(#p1b2416cebb)" style="fill: none; stroke: #808080; stroke-linecap: round"/>
    <path d="M 922.757913 938.604801 
L 924.825792 942.570135 
L 920.412797 941.845238 
L 922.757913 938.604801 
z
" clip-path="url(#p1b2416cebb)" style="fill: #808080; stroke: #808080; stroke-linecap: round"/>
   </g>
   <g id="patch_10">
    <path d="M 798.072191 859.838946 
Q 689.670183 902.486752 582.308585 944.725237 
" clip-path="url(#p1b2416cebb)" style="fill: none; stroke: #808080; stroke-linecap: round"/>
    <path d="M 586.763091 945.121949 
L 582.308585 944.725237 
L 585.298658 941.39966 
L 586.763091 945.121949 
z
" clip-path="url(#p1b2416cebb)" style="fill: #808080; stroke: #808080; stroke-linecap: round"/>
   </g>
   <g id="patch_11">
    <path d="M 512.399958 222.594561 
Q 488.794786 261.031635 465.774701 298.51599 
" clip-path="url(#p1b2416cebb)" style="fill: none; stroke: #ff0000; stroke-linecap: round"/>
    <path d="M 469.57225 296.154079 
L 465.774701 298.51599 
L 466.163702 294.060804 
L 469.57225 296.154079 
z
" clip-path="url(#p1b2416cebb)" style="fill: #ff0000; stroke: #ff0000; stroke-linecap: round"/>
   </g>
   <g id="patch_12">
    <path d="M 508.659428 217.780352 
Q 369.201412 261.033312 230.811248 303.955076 
" clip-path="url(#p1b2416cebb)" style="fill: none; stroke: #ff0000; stroke-linecap: round"/>
    <path d="M 235.224175 304.68039 
L 230.811248 303.955076 
L 234.039255 300.859923 
L 235.224175 304.68039 
z
" clip-path="url(#p1b2416cebb)" style="fill: #ff0000; stroke: #ff0000; stroke-linecap: round"/>
   </g>
   <g id="patch_13">
    <path d="M 519.03442 223.616689 
Q 551.323802 352.671426 583.341818 480.641561 
" clip-path="url(#p1b2416cebb)" style="fill: none; stroke: #808080; stroke-linecap: round"/>
    <path d="M 584.311143 476.275738 
L 583.341818 480.641561 
L 580.430755 477.246608 
L 584.311143 476.275738 
z
" clip-path="url(#p1b2416cebb)" style="fill: #808080; stroke: #808080; stroke-linecap: round"/>
   </g>
   <g id="patch_14">
    <path d="M 525.003838 218.348046 
Q 634.954754 261.032284 743.863418 303.311909 
" clip-path="url(#p1b2416cebb)" style="fill: none; stroke: #808080; stroke-linecap: round"/>
    <path d="M 740.858342 299.999882 
L 743.863418 303.311909 
L 739.410751 303.728752 
L 740.858342 299.999882 
z
" clip-path="url(#p1b2416cebb)" style="fill: #808080; stroke: #808080; stroke-linecap: round"/>
   </g>
   <g id="patch_15">
    <path d="M 525.414073 216.971459 
Q 738.130774 261.033112 949.75268 304.867992 
" clip-path="url(#p1b2416cebb)" style="fill: none; stroke: #ff0000; stroke-linecap: round"/>
    <path d="M 946.24149 302.098237 
L 949.75268 304.867992 
L 945.430162 306.015091 
L 946.24149 302.098237 
z
" clip-path="url(#p1b2416cebb)" style="fill: #ff0000; stroke: #ff0000; stroke-linecap: round"/>
   </g>
   <g id="patch_16">
    <path d="M 510.125898 220.569881 
Q 400.468466 306.850423 291.689692 392.439619 
" clip-path="url(#p1b2416cebb)" style="fill: none; stroke: #808080; stroke-linecap: round"/>
    <path d="M 296.069994 391.537979 
L 291.689692 392.439619 
L 293.596561 388.394394 
L 296.069994 391.537979 
z
" clip-path="url(#p1b2416cebb)" style="fill: #808080; stroke: #808080; stroke-linecap: round"/>
   </g>
   <g id="patch_17">
    <path d="M 578.273117 494.551926 
Q 431.731922 581.760284 286.151498 668.396876 
" clip-path="url(#p1b2416cebb)" style="fill: none; stroke: #808080; stroke-linecap: round"/>
    <path d="M 290.611668 668.069944 
L 286.151498 668.396876 
L 288.566054 664.632581 
L 290.611668 668.069944 
z
" clip-path="url(#p1b2416cebb)" style="fill: #808080; stroke: #808080; stroke-linecap: round"/>
   </g>
   <g id="patch_18">
    <path d="M 587.616761 498.572622 
Q 637.300507 719.213529 686.738644 938.763713 
" clip-path="url(#p1b2416cebb)" style="fill: none; stroke: #808080; stroke-linecap: round"/>
    <path d="M 687.811075 934.422066 
L 686.738644 938.763713 
L 683.908785 935.300781 
L 687.811075 934.422066 
z
" clip-path="url(#p1b2416cebb)" style="fill: #808080; stroke: #808080; stroke-linecap: round"/>
   </g>
   <g id="patch_19">
    <path d="M 585.714225 498.784458 
Q 585.714225 535.94088 585.714225 571.979267 
" clip-path="url(#p1b2416cebb)" style="fill: none; stroke: #808080; stroke-linecap: round"/>
    <path d="M 587.714225 567.979267 
L 585.714225 571.979267 
L 583.714225 567.979267 
L 587.714225 567.979267 
z
" clip-path="url(#p1b2416cebb)" style="fill: #808080; stroke: #808080; stroke-linecap: round"/>
   </g>
   <g id="patch_20">
    <path d="M 591.155634 496.86255 
Q 696.703996 627.578939 801.549977 757.425465 
" clip-path="url(#p1b2416cebb)" style="fill: none; stroke: #808080; stroke-linecap: round"/>
    <path d="M 800.593123 753.056892 
L 801.549977 757.425465 
L 797.481006 755.569804 
L 800.593123 753.056892 
z
" clip-path="url(#p1b2416cebb)" style="fill: #808080; stroke: #808080; stroke-linecap: round"/>
   </g>
   <g id="patch_21">
    <path d="M 585.47789 498.782361 
Q 579.461328 719.214052 573.475271 938.528124 
" clip-path="url(#p1b2416cebb)" style="fill: none; stroke: #808080; stroke-linecap: round"/>
    <path d="M 575.583664 934.584182 
L 573.475271 938.528124 
L 571.585153 934.475045 
L 575.583664 934.584182 
z
" clip-path="url(#p1b2416cebb)" style="fill: #808080; stroke: #808080; stroke-linecap: round"/>
   </g>
   <g id="patch_22">
    <path d="M 748.181269 314.063134 
Q 722.496365 352.669503 697.430756 390.345026 
" clip-path="url(#p1b2416cebb)" style="fill: none; stroke: #808080; stroke-linecap: round"/>
    <path d="M 701.311559 388.122556 
L 697.430756 390.345026 
L 697.981262 385.906902 
L 701.311559 388.122556 
z
" clip-path="url(#p1b2416cebb)" style="fill: #808080; stroke: #808080; stroke-linecap: round"/>
   </g>
   <g id="patch_23">
    <path d="M 748.479931 314.246306 
Q 669.348469 444.302879 590.798145 573.40432 
" clip-path="url(#p1b2416cebb)" style="fill: none; stroke: #808080; stroke-linecap: round"/>
    <path d="M 594.585884 571.026709 
L 590.798145 573.40432 
L 591.1687 568.947562 
L 594.585884 571.026709 
z
" clip-path="url(#p1b2416cebb)" style="fill: #808080; stroke: #808080; stroke-linecap: round"/>
   </g>
   <g id="patch_24">
    <path d="M 755.316005 315.187684 
Q 842.864779 627.576808 930.111843 938.889377 
" clip-path="url(#p1b2416cebb)" style="fill: none; stroke: #808080; stroke-linecap: round"/>
    <path d="M 930.958211 934.498061 
L 930.111843 938.889377 
L 927.106611 935.577493 
L 930.958211 934.498061 
z
" clip-path="url(#p1b2416cebb)" style="fill: #808080; stroke: #808080; stroke-linecap: round"/>
   </g>
   <g id="patch_25">
    <path d="M 754.00603 315.446712 
Q 780.335859 535.940128 806.533121 755.323397 
" clip-path="url(#p1b2416cebb)" style="fill: none; stroke: #808080; stroke-linecap: round"/>
    <path d="M 808.044729 751.114473 
L 806.533121 755.323397 
L 804.072947 751.588756 
L 808.044729 751.114473 
z
" clip-path="url(#p1b2416cebb)" style="fill: #808080; stroke: #808080; stroke-linecap: round"/>
   </g>
   <g id="patch_26">
    <path d="M 685.451084 404.144632 
Q 638.862271 444.306913 593.120272 483.739191 
" clip-path="url(#p1b2416cebb)" style="fill: none; stroke: #808080; stroke-linecap: round"/>
    <path d="M 597.455798 482.642278 
L 593.120272 483.739191 
L 594.844058 479.612623 
L 597.455798 482.642278 
z
" clip-path="url(#p1b2416cebb)" style="fill: #808080; stroke: #808080; stroke-linecap: round"/>
   </g>
   <g id="patch_27">
    <path d="M 689.174937 406.671288 
Q 644.335357 535.94154 599.86217 664.155498 
" clip-path="url(#p1b2416cebb)" style="fill: none; stroke: #808080; stroke-linecap: round"/>
    <path d="M 603.062573 661.031812 
L 599.86217 664.155498 
L 599.283463 659.720963 
L 603.062573 661.031812 
z
" clip-path="url(#p1b2416cebb)" style="fill: #808080; stroke: #808080; stroke-linecap: round"/>
   </g>
   <g id="patch_28">
    <path d="M 589.37439 678.087526 
Q 525.527883 719.215886 462.621277 759.738784 
" clip-path="url(#p1b2416cebb)" style="fill: none; stroke: #808080; stroke-linecap: round"/>
    <path d="M 467.067056 759.253965 
L 462.621277 759.738784 
L 464.900889 755.891269 
L 467.067056 759.253965 
z
" clip-path="url(#p1b2416cebb)" style="fill: #808080; stroke: #808080; stroke-linecap: round"/>
   </g>
   <g id="patch_29">
    <path d="M 599.410953 681.605548 
Q 642.772195 810.851393 685.777822 939.037266 
" clip-path="url(#p1b2416cebb)" style="fill: none; stroke: #808080; stroke-linecap: round"/>
    <path d="M 686.401672 934.608857 
L 685.777822 939.037266 
L 682.609404 935.881141 
L 686.401672 934.608857 
z
" clip-path="url(#p1b2416cebb)" style="fill: #808080; stroke: #808080; stroke-linecap: round"/>
   </g>
   <g id="patch_30">
    <path d="M 595.629949 664.797065 
Q 591.185454 627.577616 586.873526 591.468315 
" clip-path="url(#p1b2416cebb)" style="fill: none; stroke: #808080; stroke-linecap: round"/>
    <path d="M 585.361919 595.677239 
L 586.873526 591.468315 
L 589.333701 595.202955 
L 585.361919 595.677239 
z
" clip-path="url(#p1b2416cebb)" style="fill: #808080; stroke: #808080; stroke-linecap: round"/>
   </g>
   <g id="patch_31">
    <path d="M 604.600928 676.845871 
Q 702.175454 719.214881 798.724455 761.138586 
" clip-path="url(#p1b2416cebb)" style="fill: none; stroke: #808080; stroke-linecap: round"/>
    <path d="M 795.85201 757.710895 
L 798.724455 761.138586 
L 794.258836 761.379927 
L 795.85201 757.710895 
z
" clip-path="url(#p1b2416cebb)" style="fill: #808080; stroke: #808080; stroke-linecap: round"/>
   </g>
   <g id="patch_32">
    <path d="M 595.920835 682.025026 
Q 584.932498 810.852242 574.039178 938.565468 
" clip-path="url(#p1b2416cebb)" style="fill: none; stroke: #808080; stroke-linecap: round"/>
    <path d="M 576.371889 934.749913 
L 574.039178 938.565468 
L 572.38636 934.409967 
L 576.371889 934.749913 
z
" clip-path="url(#p1b2416cebb)" style="fill: #808080; stroke: #808080; stroke-linecap: round"/>
   </g>
   <g id="patch_33">
    <path d="M 577.969765 585.640171 
Q 494.264479 627.578649 411.558782 669.016307 
" clip-path="url(#p1b2416cebb)" style="fill: none; stroke: #808080; stroke-linecap: round"/>
    <path d="M 416.030916 669.012639 
L 411.558782 669.016307 
L 414.239129 665.436399 
L 416.030916 669.012639 
z
" clip-path="url(#p1b2416cebb)" style="fill: #808080; stroke: #808080; stroke-linecap: round"/>
   </g>
   <g id="patch_34">
    <path d="M 577.410823 584.230725 
Q 431.730199 627.578837 287.121175 670.608087 
" clip-path="url(#p1b2416cebb)" style="fill: none; stroke: #808080; stroke-linecap: round"/>
    <path d="M 291.525446 671.384233 
L 287.121175 670.608087 
L 290.384654 667.550358 
L 291.525446 671.384233 
z
" clip-path="url(#p1b2416cebb)" style="fill: #808080; stroke: #808080; stroke-linecap: round"/>
   </g>
   <g id="patch_35">
    <path d="M 580.671042 588.798841 
Q 520.058156 673.397076 460.096434 757.086474 
" clip-path="url(#p1b2416cebb)" style="fill: none; stroke: #808080; stroke-linecap: round"/>
    <path d="M 464.051886 754.999753 
L 460.096434 757.086474 
L 460.800329 752.67008 
L 464.051886 754.999753 
z
" clip-path="url(#p1b2416cebb)" style="fill: #808080; stroke: #808080; stroke-linecap: round"/>
   </g>
   <g id="patch_36">
    <path d="M 585.714225 573.099178 
Q 585.714225 535.942757 585.714225 499.90437 
" clip-path="url(#p1b2416cebb)" style="fill: none; stroke: #808080; stroke-linecap: round"/>
    <path d="M 583.714225 503.90437 
L 585.714225 499.90437 
L 587.714225 503.90437 
L 583.714225 503.90437 
z
" clip-path="url(#p1b2416cebb)" style="fill: #808080; stroke: #808080; stroke-linecap: round"/>
   </g>
   <g id="patch_37">
    <path d="M 586.741095 590.359299 
Q 591.185589 627.578747 595.497517 663.688049 
" clip-path="url(#p1b2416cebb)" style="fill: none; stroke: #808080; stroke-linecap: round"/>
    <path d="M 597.009125 659.479125 
L 595.497517 663.688049 
L 593.037343 659.953408 
L 597.009125 659.479125 
z
" clip-path="url(#p1b2416cebb)" style="fill: #808080; stroke: #808080; stroke-linecap: round"/>
   </g>
   <g id="patch_38">
    <path d="M 807.544798 773.693549 
Q 806.910902 810.852503 806.296076 846.893585 
" clip-path="url(#p1b2416cebb)" style="fill: none; stroke: #808080; stroke-linecap: round"/>
    <path d="M 808.364012 842.92828 
L 806.296076 846.893585 
L 804.364594 842.860054 
L 808.364012 842.92828 
z
" clip-path="url(#p1b2416cebb)" style="fill: #808080; stroke: #808080; stroke-linecap: round"/>
   </g>
   <g id="text_4">
    <g id="patch_39">
     <path d="M 244.689821 345.612966 
L 250.427706 354.021834 
Q 251.78045 356.004279 253.762894 354.651535 
L 260.158342 350.287529 
Q 262.140787 348.934786 260.788043 346.952342 
L 255.050158 338.543473 
Q 253.697414 336.561029 251.71497 337.913772 
L 245.319522 342.277778 
Q 243.337077 343.630521 244.689821 345.612966 
L 244.689821 345.612966 
z
" clip-path="url(#p1b2416cebb)" style="fill: none"/>
    </g>
    <g clip-path="url(#p1b2416cebb)">
     <!-- 36 -->
     <g transform="translate(248.046553 343.322462)rotate(-304.308113)scale(0.08 -0.08)">
      <defs>
       <path id="DejaVuSans-33" d="M 2597 2516 
Q 3050 2419 3304 2112 
Q 3559 1806 3559 1356 
Q 3559 666 3084 287 
Q 2609 -91 1734 -91 
Q 1441 -91 1130 -33 
Q 819 25 488 141 
L 488 750 
Q 750 597 1062 519 
Q 1375 441 1716 441 
Q 2309 441 2620 675 
Q 2931 909 2931 1356 
Q 2931 1769 2642 2001 
Q 2353 2234 1838 2234 
L 1294 2234 
L 1294 2753 
L 1863 2753 
Q 2328 2753 2575 2939 
Q 2822 3125 2822 3475 
Q 2822 3834 2567 4026 
Q 2313 4219 1838 4219 
Q 1578 4219 1281 4162 
Q 984 4106 628 3988 
L 628 4550 
Q 988 4650 1302 4700 
Q 1616 4750 1894 4750 
Q 2613 4750 3031 4423 
Q 3450 4097 3450 3541 
Q 3450 3153 3228 2886 
Q 3006 2619 2597 2516 
z
" transform="scale(0.015625)"/>
       <path id="DejaVuSans-36" d="M 2113 2584 
Q 1688 2584 1439 2293 
Q 1191 2003 1191 1497 
Q 1191 994 1439 701 
Q 1688 409 2113 409 
Q 2538 409 2786 701 
Q 3034 994 3034 1497 
Q 3034 2003 2786 2293 
Q 2538 2584 2113 2584 
z
M 3366 4563 
L 3366 3988 
Q 3128 4100 2886 4159 
Q 2644 4219 2406 4219 
Q 1781 4219 1451 3797 
Q 1122 3375 1075 2522 
Q 1259 2794 1537 2939 
Q 1816 3084 2150 3084 
Q 2853 3084 3261 2657 
Q 3669 2231 3669 1497 
Q 3669 778 3244 343 
Q 2819 -91 2113 -91 
Q 1303 -91 875 529 
Q 447 1150 447 2328 
Q 447 3434 972 4092 
Q 1497 4750 2381 4750 
Q 2619 4750 2861 4703 
Q 3103 4656 3366 4563 
z
" transform="scale(0.015625)"/>
      </defs>
      <use xlink:href="#DejaVuSans-33"/>
      <use xlink:href="#DejaVuSans-36" x="63.623047"/>
     </g>
    </g>
   </g>
   <g id="text_5">
    <g id="patch_40">
     <path d="M 799.858066 892.307273 
L 799.858066 902.487273 
Q 799.858066 904.887273 802.258066 904.887273 
L 810.000566 904.887273 
Q 812.400566 904.887273 812.400566 902.487273 
L 812.400566 892.307273 
Q 812.400566 889.907273 810.000566 889.907273 
L 802.258066 889.907273 
Q 799.858066 889.907273 799.858066 892.307273 
L 799.858066 892.307273 
z
" clip-path="url(#p1b2416cebb)" style="fill: none"/>
    </g>
    <g clip-path="url(#p1b2416cebb)">
     <!-- 52 -->
     <g transform="translate(803.921816 892.307273)rotate(-270)scale(0.08 -0.08)">
      <defs>
       <path id="DejaVuSans-35" d="M 691 4666 
L 3169 4666 
L 3169 4134 
L 1269 4134 
L 1269 2991 
Q 1406 3038 1543 3061 
Q 1681 3084 1819 3084 
Q 2600 3084 3056 2656 
Q 3513 2228 3513 1497 
Q 3513 744 3044 326 
Q 2575 -91 1722 -91 
Q 1428 -91 1123 -41 
Q 819 9 494 109 
L 494 744 
Q 775 591 1075 516 
Q 1375 441 1709 441 
Q 2250 441 2565 725 
Q 2881 1009 2881 1497 
Q 2881 1984 2565 2268 
Q 2250 2553 1709 2553 
Q 1456 2553 1204 2497 
Q 953 2441 691 2322 
L 691 4666 
z
" transform="scale(0.015625)"/>
       <path id="DejaVuSans-32" d="M 1228 531 
L 3431 531 
L 3431 0 
L 469 0 
L 469 531 
Q 828 903 1448 1529 
Q 2069 2156 2228 2338 
Q 2531 2678 2651 2914 
Q 2772 3150 2772 3378 
Q 2772 3750 2511 3984 
Q 2250 4219 1831 4219 
Q 1534 4219 1204 4116 
Q 875 4013 500 3803 
L 500 4441 
Q 881 4594 1212 4672 
Q 1544 4750 1819 4750 
Q 2544 4750 2975 4387 
Q 3406 4025 3406 3419 
Q 3406 3131 3298 2873 
Q 3191 2616 2906 2266 
Q 2828 2175 2409 1742 
Q 1991 1309 1228 531 
z
" transform="scale(0.015625)"/>
      </defs>
      <use xlink:href="#DejaVuSans-35"/>
      <use xlink:href="#DejaVuSans-32" x="63.623047"/>
     </g>
    </g>
   </g>
   <g id="text_6">
    <g id="patch_41">
     <path d="M 747.359848 904.37821 
L 755.380575 898.109213 
Q 757.271513 896.631256 755.793557 894.740319 
L 751.025608 888.640075 
Q 749.547652 886.749137 747.656714 888.227094 
L 739.635987 894.496091 
Q 737.745049 895.974048 739.223006 897.864985 
L 743.990954 903.965229 
Q 745.46891 905.856167 747.359848 904.37821 
L 747.359848 904.37821 
z
" clip-path="url(#p1b2416cebb)" style="fill: none"/>
    </g>
    <g clip-path="url(#p1b2416cebb)">
     <!-- 50 -->
     <g transform="translate(744.857329 901.17642)rotate(-38.011172)scale(0.08 -0.08)">
      <defs>
       <path id="DejaVuSans-30" d="M 2034 4250 
Q 1547 4250 1301 3770 
Q 1056 3291 1056 2328 
Q 1056 1369 1301 889 
Q 1547 409 2034 409 
Q 2525 409 2770 889 
Q 3016 1369 3016 2328 
Q 3016 3291 2770 3770 
Q 2525 4250 2034 4250 
z
M 2034 4750 
Q 2819 4750 3233 4129 
Q 3647 3509 3647 2328 
Q 3647 1150 3233 529 
Q 2819 -91 2034 -91 
Q 1250 -91 836 529 
Q 422 1150 422 2328 
Q 422 3509 836 4129 
Q 1250 4750 2034 4750 
z
" transform="scale(0.015625)"/>
      </defs>
      <use xlink:href="#DejaVuSans-35"/>
      <use xlink:href="#DejaVuSans-30" x="63.623047"/>
     </g>
    </g>
   </g>
   <g id="text_7">
    <g id="patch_42">
     <path d="M 859.578147 895.479057 
L 871.948517 904.431535 
Q 873.892779 905.838604 875.299848 903.894342 
L 879.839112 897.622071 
Q 881.246182 895.677808 879.301919 894.270739 
L 866.93155 885.318261 
Q 864.987288 883.911192 863.580218 885.855454 
L 859.040954 892.127725 
Q 857.633885 894.071988 859.578147 895.479057 
L 859.578147 895.479057 
z
" clip-path="url(#p1b2416cebb)" style="fill: none"/>
    </g>
    <g clip-path="url(#p1b2416cebb)">
     <!-- 616 -->
     <g transform="translate(861.960638 892.186975)rotate(-324.106613)scale(0.08 -0.08)">
      <defs>
       <path id="DejaVuSans-31" d="M 794 531 
L 1825 531 
L 1825 4091 
L 703 3866 
L 703 4441 
L 1819 4666 
L 2450 4666 
L 2450 531 
L 3481 531 
L 3481 0 
L 794 0 
L 794 531 
z
" transform="scale(0.015625)"/>
      </defs>
      <use xlink:href="#DejaVuSans-36"/>
      <use xlink:href="#DejaVuSans-31" x="63.623047"/>
      <use xlink:href="#DejaVuSans-36" x="127.246094"/>
     </g>
    </g>
   </g>
   <g id="text_8">
    <g id="patch_43">
     <path d="M 687.228203 904.720646 
L 696.701429 900.993665 
Q 698.934803 900.115005 698.056143 897.881631 
L 695.22155 890.676675 
Q 694.34289 888.443302 692.109517 889.321962 
L 682.636291 893.048943 
Q 680.402918 893.927603 681.281577 896.160977 
L 684.11617 903.365932 
Q 684.99483 905.599306 687.228203 904.720646 
L 687.228203 904.720646 
z
" clip-path="url(#p1b2416cebb)" style="fill: none"/>
    </g>
    <g clip-path="url(#p1b2416cebb)">
     <!-- 50 -->
     <g transform="translate(685.740431 900.939033)rotate(-21.4758)scale(0.08 -0.08)">
      <use xlink:href="#DejaVuSans-35"/>
      <use xlink:href="#DejaVuSans-30" x="63.623047"/>
     </g>
    </g>
   </g>
   <g id="text_9">
    <g id="patch_44">
     <path d="M 491.474386 262.288692 
L 496.801771 253.613937 
Q 498.057736 251.568809 496.012607 250.312844 
L 489.414937 246.261048 
Q 487.369808 245.005083 486.113843 247.050212 
L 480.786458 255.724967 
Q 479.530493 257.770096 481.575622 259.026061 
L 488.173293 263.077856 
Q 490.218421 264.333821 491.474386 262.288692 
L 491.474386 262.288692 
z
" clip-path="url(#p1b2416cebb)" style="fill: none"/>
    </g>
    <g clip-path="url(#p1b2416cebb)">
     <!-- 80 -->
     <g transform="translate(488.011515 260.162056)rotate(-58.444869)scale(0.08 -0.08)">
      <defs>
       <path id="DejaVuSans-38" d="M 2034 2216 
Q 1584 2216 1326 1975 
Q 1069 1734 1069 1313 
Q 1069 891 1326 650 
Q 1584 409 2034 409 
Q 2484 409 2743 651 
Q 3003 894 3003 1313 
Q 3003 1734 2745 1975 
Q 2488 2216 2034 2216 
z
M 1403 2484 
Q 997 2584 770 2862 
Q 544 3141 544 3541 
Q 544 4100 942 4425 
Q 1341 4750 2034 4750 
Q 2731 4750 3128 4425 
Q 3525 4100 3525 3541 
Q 3525 3141 3298 2862 
Q 3072 2584 2669 2484 
Q 3125 2378 3379 2068 
Q 3634 1759 3634 1313 
Q 3634 634 3220 271 
Q 2806 -91 2034 -91 
Q 1263 -91 848 271 
Q 434 634 434 1313 
Q 434 1759 690 2068 
Q 947 2378 1403 2484 
z
M 1172 3481 
Q 1172 3119 1398 2916 
Q 1625 2713 2034 2713 
Q 2441 2713 2670 2916 
Q 2900 3119 2900 3481 
Q 2900 3844 2670 4047 
Q 2441 4250 2034 4250 
Q 1625 4250 1398 4047 
Q 1172 3844 1172 3481 
z
" transform="scale(0.015625)"/>
      </defs>
      <use xlink:href="#DejaVuSans-38"/>
      <use xlink:href="#DejaVuSans-30" x="63.623047"/>
     </g>
    </g>
   </g>
   <g id="text_10">
    <g id="patch_45">
     <path d="M 366.199483 263.325007 
L 375.922571 260.309388 
Q 378.214851 259.598436 377.503899 257.306156 
L 375.21034 249.911165 
Q 374.499388 247.618885 372.207108 248.329837 
L 362.48402 251.345456 
Q 360.19174 252.056408 360.902692 254.348688 
L 363.196251 261.743679 
Q 363.907203 264.035959 366.199483 263.325007 
L 366.199483 263.325007 
z
" clip-path="url(#p1b2416cebb)" style="fill: none"/>
    </g>
    <g clip-path="url(#p1b2416cebb)">
     <!-- 56 -->
     <g transform="translate(364.995679 259.443652)rotate(-17.231298)scale(0.08 -0.08)">
      <use xlink:href="#DejaVuSans-35"/>
      <use xlink:href="#DejaVuSans-36" x="63.623047"/>
     </g>
    </g>
   </g>
   <g id="text_11">
    <g id="patch_46">
     <path d="M 544.004066 343.376025 
L 546.474929 353.251613 
Q 547.057451 355.579846 549.385684 354.997324 
L 556.89666 353.118084 
Q 559.224893 352.535562 558.642371 350.207329 
L 556.171508 340.331742 
Q 555.588986 338.003509 553.260753 338.586031 
L 545.749777 340.46527 
Q 543.421544 341.047792 544.004066 343.376025 
L 544.004066 343.376025 
z
" clip-path="url(#p1b2416cebb)" style="fill: none"/>
    </g>
    <g clip-path="url(#p1b2416cebb)">
     <!-- 27 -->
     <g transform="translate(547.946297 342.389682)rotate(-284.046981)scale(0.08 -0.08)">
      <defs>
       <path id="DejaVuSans-37" d="M 525 4666 
L 3525 4666 
L 3525 4397 
L 1831 0 
L 1172 0 
L 2766 4134 
L 525 4134 
L 525 4666 
z
" transform="scale(0.015625)"/>
      </defs>
      <use xlink:href="#DejaVuSans-32"/>
      <use xlink:href="#DejaVuSans-37" x="63.623047"/>
     </g>
    </g>
   </g>
   <g id="text_12">
    <g id="patch_47">
     <path d="M 627.941354 259.585929 
L 637.431331 263.27005 
Q 639.668653 264.138605 640.537208 261.901282 
L 643.339203 254.683586 
Q 644.207757 252.446264 641.970435 251.577709 
L 632.480458 247.893588 
Q 630.243136 247.025033 629.374581 249.262356 
L 626.572586 256.480052 
Q 625.704031 258.717374 627.941354 259.585929 
L 627.941354 259.585929 
z
" clip-path="url(#p1b2416cebb)" style="fill: none"/>
    </g>
    <g clip-path="url(#p1b2416cebb)">
     <!-- 29 -->
     <g transform="translate(629.412017 255.79763)rotate(-338.783202)scale(0.08 -0.08)">
      <defs>
       <path id="DejaVuSans-39" d="M 703 97 
L 703 672 
Q 941 559 1184 500 
Q 1428 441 1663 441 
Q 2288 441 2617 861 
Q 2947 1281 2994 2138 
Q 2813 1869 2534 1725 
Q 2256 1581 1919 1581 
Q 1219 1581 811 2004 
Q 403 2428 403 3163 
Q 403 3881 828 4315 
Q 1253 4750 1959 4750 
Q 2769 4750 3195 4129 
Q 3622 3509 3622 2328 
Q 3622 1225 3098 567 
Q 2575 -91 1691 -91 
Q 1453 -91 1209 -44 
Q 966 3 703 97 
z
M 1959 2075 
Q 2384 2075 2632 2365 
Q 2881 2656 2881 3163 
Q 2881 3666 2632 3958 
Q 2384 4250 1959 4250 
Q 1534 4250 1286 3958 
Q 1038 3666 1038 3163 
Q 1038 2656 1286 2365 
Q 1534 2075 1959 2075 
z
" transform="scale(0.015625)"/>
      </defs>
      <use xlink:href="#DejaVuSans-32"/>
      <use xlink:href="#DejaVuSans-39" x="63.623047"/>
     </g>
    </g>
   </g>
   <g id="text_13">
    <g id="patch_48">
     <path d="M 731.872708 261.318009 
L 741.841102 263.38284 
Q 744.191214 263.869637 744.678011 261.519524 
L 746.248439 253.937963 
Q 746.735236 251.587851 744.385123 251.101054 
L 734.416729 249.036224 
Q 732.066617 248.549427 731.57982 250.899539 
L 730.009393 258.4811 
Q 729.522596 260.831212 731.872708 261.318009 
L 731.872708 261.318009 
z
" clip-path="url(#p1b2416cebb)" style="fill: none"/>
    </g>
    <g clip-path="url(#p1b2416cebb)">
     <!-- 74 -->
     <g transform="translate(732.696967 257.33873)rotate(-348.29738)scale(0.08 -0.08)">
      <defs>
       <path id="DejaVuSans-34" d="M 2419 4116 
L 825 1625 
L 2419 1625 
L 2419 4116 
z
M 2253 4666 
L 3047 4666 
L 3047 1625 
L 3713 1625 
L 3713 1100 
L 3047 1100 
L 3047 0 
L 2419 0 
L 2419 1100 
L 313 1100 
L 313 1709 
L 2253 4666 
z
" transform="scale(0.015625)"/>
      </defs>
      <use xlink:href="#DejaVuSans-37"/>
      <use xlink:href="#DejaVuSans-34" x="63.623047"/>
     </g>
    </g>
   </g>
   <g id="text_14">
    <g id="patch_49">
     <path d="M 398.345407 308.737061 
L 410.346045 299.294731 
Q 412.232197 297.810672 410.748137 295.92452 
L 405.960499 289.839717 
Q 404.47644 287.953566 402.590288 289.437626 
L 390.58965 298.879955 
Q 388.703498 300.364014 390.187558 302.250166 
L 394.975196 308.334969 
Q 396.459256 310.22112 398.345407 308.737061 
L 398.345407 308.737061 
z
" clip-path="url(#p1b2416cebb)" style="fill: none"/>
    </g>
    <g clip-path="url(#p1b2416cebb)">
     <!-- 467 -->
     <g transform="translate(395.832554 305.543374)rotate(-38.196338)scale(0.08 -0.08)">
      <use xlink:href="#DejaVuSans-34"/>
      <use xlink:href="#DejaVuSans-36" x="63.623047"/>
      <use xlink:href="#DejaVuSans-37" x="127.246094"/>
     </g>
    </g>
   </g>
   <g id="text_15">
    <g id="patch_50">
     <path d="M 430.565495 583.822418 
L 439.313583 578.616329 
Q 441.376001 577.388961 440.148632 575.326543 
L 436.18909 568.673098 
Q 434.961721 566.61068 432.899304 567.838049 
L 424.151216 573.044137 
Q 422.088798 574.271506 423.316167 576.333923 
L 427.275709 582.987369 
Q 428.503077 585.049786 430.565495 583.822418 
L 430.565495 583.822418 
z
" clip-path="url(#p1b2416cebb)" style="fill: none"/>
    </g>
    <g clip-path="url(#p1b2416cebb)">
     <!-- 35 -->
     <g transform="translate(428.487279 580.330272)rotate(-30.757366)scale(0.08 -0.08)">
      <use xlink:href="#DejaVuSans-33"/>
      <use xlink:href="#DejaVuSans-35" x="63.623047"/>
     </g>
    </g>
   </g>
   <g id="text_16">
    <g id="patch_51">
     <path d="M 629.505432 704.844785 
L 632.859924 719.741774 
Q 633.387153 722.083148 635.728526 721.555919 
L 643.281895 719.855057 
Q 645.623268 719.327829 645.09604 716.986455 
L 641.741548 702.089466 
Q 641.214319 699.748093 638.872945 700.275321 
L 631.319577 701.976183 
Q 628.978203 702.503412 629.505432 704.844785 
L 629.505432 704.844785 
z
" clip-path="url(#p1b2416cebb)" style="fill: none"/>
    </g>
    <g clip-path="url(#p1b2416cebb)">
     <!-- 234 -->
     <g transform="translate(633.469914 703.952066)rotate(-282.690156)scale(0.08 -0.08)">
      <use xlink:href="#DejaVuSans-32"/>
      <use xlink:href="#DejaVuSans-33" x="63.623047"/>
      <use xlink:href="#DejaVuSans-34" x="127.246094"/>
     </g>
    </g>
   </g>
   <g id="text_17">
    <g id="patch_52">
     <path d="M 579.442975 525.761818 
L 579.442975 535.941818 
Q 579.442975 538.341818 581.842975 538.341818 
L 589.585475 538.341818 
Q 591.985475 538.341818 591.985475 535.941818 
L 591.985475 525.761818 
Q 591.985475 523.361818 589.585475 523.361818 
L 581.842975 523.361818 
Q 579.442975 523.361818 579.442975 525.761818 
L 579.442975 525.761818 
z
" clip-path="url(#p1b2416cebb)" style="fill: none"/>
    </g>
    <g clip-path="url(#p1b2416cebb)">
     <!-- 57 -->
     <g transform="translate(583.506725 525.761818)rotate(-270)scale(0.08 -0.08)">
      <use xlink:href="#DejaVuSans-35"/>
      <use xlink:href="#DejaVuSans-37" x="63.623047"/>
     </g>
    </g>
   </g>
   <g id="text_18">
    <g id="patch_53">
     <path d="M 687.027647 617.205423 
L 696.62069 629.085929 
Q 698.128438 630.953199 699.995708 629.445452 
L 706.019599 624.581396 
Q 707.886869 623.073648 706.379122 621.206378 
L 696.786079 609.325872 
Q 695.278331 607.458602 693.411061 608.96635 
L 687.38717 613.830406 
Q 685.5199 615.338153 687.027647 617.205423 
L 687.027647 617.205423 
z
" clip-path="url(#p1b2416cebb)" style="fill: none"/>
    </g>
    <g clip-path="url(#p1b2416cebb)">
     <!-- 265 -->
     <g transform="translate(690.189363 614.652461)rotate(-308.919515)scale(0.08 -0.08)">
      <use xlink:href="#DejaVuSans-32"/>
      <use xlink:href="#DejaVuSans-36" x="63.623047"/>
      <use xlink:href="#DejaVuSans-35" x="127.246094"/>
     </g>
    </g>
   </g>
   <g id="text_19">
    <g id="patch_54">
     <path d="M 585.521915 719.280028 
L 585.938546 704.015713 
Q 586.004028 701.616606 583.604922 701.551124 
L 575.865304 701.339875 
Q 573.466197 701.274393 573.400715 703.673499 
L 572.984084 718.937815 
Q 572.918602 721.336921 575.317708 721.402403 
L 583.057326 721.613652 
Q 585.456432 721.679134 585.521915 719.280028 
L 585.521915 719.280028 
z
" clip-path="url(#p1b2416cebb)" style="fill: none"/>
    </g>
    <g clip-path="url(#p1b2416cebb)">
     <!-- 140 -->
     <g transform="translate(581.459678 719.169151)rotate(-88.436531)scale(0.08 -0.08)">
      <use xlink:href="#DejaVuSans-31"/>
      <use xlink:href="#DejaVuSans-34" x="63.623047"/>
      <use xlink:href="#DejaVuSans-30" x="127.246094"/>
     </g>
    </g>
   </g>
   <g id="text_20">
    <g id="patch_55">
     <path d="M 726.308211 353.998483 
L 729.127631 349.76068 
Q 730.457023 347.762502 728.458845 346.43311 
L 722.012639 342.144435 
Q 720.014461 340.815042 718.685068 342.813221 
L 715.865649 347.051023 
Q 714.536256 349.049202 716.534434 350.378594 
L 722.98064 354.667269 
Q 724.978819 355.996661 726.308211 353.998483 
L 726.308211 353.998483 
z
" clip-path="url(#p1b2416cebb)" style="fill: none"/>
    </g>
    <g clip-path="url(#p1b2416cebb)">
     <!-- 2 -->
     <g transform="translate(722.924837 351.747517)rotate(-56.364089)scale(0.08 -0.08)">
      <use xlink:href="#DejaVuSans-32"/>
     </g>
    </g>
   </g>
   <g id="text_21">
    <g id="patch_56">
     <path d="M 672.05869 445.552943 
L 677.35012 436.85621 
Q 678.597609 434.805899 676.547298 433.558411 
L 669.932911 429.533961 
Q 667.882601 428.286473 666.635113 430.336783 
L 661.343683 439.033517 
Q 660.096194 441.083827 662.146505 442.331315 
L 668.760892 446.355765 
Q 670.811202 447.603253 672.05869 445.552943 
L 672.05869 445.552943 
z
" clip-path="url(#p1b2416cebb)" style="fill: none"/>
    </g>
    <g clip-path="url(#p1b2416cebb)">
     <!-- 38 -->
     <g transform="translate(668.587045 443.440659)rotate(-58.682047)scale(0.08 -0.08)">
      <use xlink:href="#DejaVuSans-33"/>
      <use xlink:href="#DejaVuSans-38" x="63.623047"/>
     </g>
    </g>
   </g>
   <g id="text_22">
    <g id="patch_57">
     <path d="M 835.452999 618.423518 
L 838.200154 628.225841 
Q 838.847814 630.536801 841.158774 629.889142 
L 848.614028 627.799766 
Q 850.924988 627.152107 850.277329 624.841146 
L 847.530174 615.038823 
Q 846.882515 612.727863 844.571554 613.375522 
L 837.1163 615.464898 
Q 834.80534 616.112558 835.452999 618.423518 
L 835.452999 618.423518 
z
" clip-path="url(#p1b2416cebb)" style="fill: none"/>
    </g>
    <g clip-path="url(#p1b2416cebb)">
     <!-- 15 -->
     <g transform="translate(839.365985 617.326882)rotate(-285.655821)scale(0.08 -0.08)">
      <use xlink:href="#DejaVuSans-31"/>
      <use xlink:href="#DejaVuSans-35" x="63.623047"/>
     </g>
    </g>
   </g>
   <g id="text_23">
    <g id="patch_58">
     <path d="M 773.505525 526.118202 
L 774.712576 536.226388 
Q 774.997146 538.609458 777.380215 538.324888 
L 785.068097 537.406853 
Q 787.451166 537.122283 787.166596 534.739214 
L 785.959545 524.631027 
Q 785.674975 522.247958 783.291906 522.532528 
L 775.604024 523.450563 
Q 773.220955 523.735133 773.505525 526.118202 
L 773.505525 526.118202 
z
" clip-path="url(#p1b2416cebb)" style="fill: none"/>
    </g>
    <g clip-path="url(#p1b2416cebb)">
     <!-- 66 -->
     <g transform="translate(777.540608 525.63636)rotate(-276.809628)scale(0.08 -0.08)">
      <use xlink:href="#DejaVuSans-36"/>
      <use xlink:href="#DejaVuSans-36" x="63.623047"/>
     </g>
    </g>
   </g>
   <g id="text_24">
    <g id="patch_59">
     <path d="M 639.103446 446.123248 
L 646.813919 439.476369 
Q 648.631712 437.909325 647.064668 436.091531 
L 642.009319 430.227254 
Q 640.442274 428.409461 638.624481 429.976505 
L 630.914008 436.623384 
Q 629.096214 438.190428 630.663259 440.008222 
L 635.718608 445.872499 
Q 637.285652 447.690292 639.103446 446.123248 
L 639.103446 446.123248 
z
" clip-path="url(#p1b2416cebb)" style="fill: none"/>
    </g>
    <g clip-path="url(#p1b2416cebb)">
     <!-- 52 -->
     <g transform="translate(636.450081 443.045307)rotate(-40.76326)scale(0.08 -0.08)">
      <use xlink:href="#DejaVuSans-35"/>
      <use xlink:href="#DejaVuSans-32" x="63.623047"/>
     </g>
    </g>
   </g>
   <g id="text_25">
    <g id="patch_60">
     <path d="M 648.592142 536.728327 
L 651.928251 527.110491 
Q 652.714761 524.843025 650.447294 524.056516 
L 643.132354 521.519204 
Q 640.864887 520.732695 640.078378 523.000162 
L 636.742269 532.617998 
Q 635.955759 534.885464 638.223226 535.671973 
L 645.538166 538.209284 
Q 647.805633 538.995794 648.592142 536.728327 
L 648.592142 536.728327 
z
" clip-path="url(#p1b2416cebb)" style="fill: none"/>
    </g>
    <g clip-path="url(#p1b2416cebb)">
     <!-- 20 -->
     <g transform="translate(644.752802 535.396587)rotate(-70.870029)scale(0.08 -0.08)">
      <use xlink:href="#DejaVuSans-32"/>
      <use xlink:href="#DejaVuSans-30" x="63.623047"/>
     </g>
    </g>
   </g>
   <g id="text_26">
    <g id="patch_61">
     <path d="M 526.786591 721.232163 
L 531.065621 718.475716 
Q 533.083238 717.176016 531.783539 715.158399 
L 527.590653 708.649481 
Q 526.290953 706.631863 524.273335 707.931563 
L 519.994305 710.68801 
Q 517.976688 711.98771 519.276387 714.005327 
L 523.469273 720.514245 
Q 524.768973 722.531863 526.786591 721.232163 
L 526.786591 721.232163 
z
" clip-path="url(#p1b2416cebb)" style="fill: none"/>
    </g>
    <g clip-path="url(#p1b2416cebb)">
     <!-- 4 -->
     <g transform="translate(524.585901 717.815874)rotate(-32.788645)scale(0.08 -0.08)">
      <use xlink:href="#DejaVuSans-34"/>
     </g>
    </g>
   </g>
   <g id="text_27">
    <g id="patch_62">
     <path d="M 635.207486 801.962959 
L 638.445449 811.61428 
Q 639.20882 813.88964 641.48418 813.12627 
L 648.824588 810.663605 
Q 651.099949 809.900234 650.336578 807.624874 
L 647.098615 797.973553 
Q 646.335245 795.698192 644.059884 796.461563 
L 636.719477 798.924228 
Q 634.444116 799.687598 635.207486 801.962959 
L 635.207486 801.962959 
z
" clip-path="url(#p1b2416cebb)" style="fill: none"/>
    </g>
    <g clip-path="url(#p1b2416cebb)">
     <!-- 42 -->
     <g transform="translate(639.060193 800.670397)rotate(-288.546308)scale(0.08 -0.08)">
      <use xlink:href="#DejaVuSans-34"/>
      <use xlink:href="#DejaVuSans-32" x="63.623047"/>
     </g>
    </g>
   </g>
   <g id="text_28">
    <g id="patch_63">
     <path d="M 584.354986 617.754566 
L 585.562037 627.862752 
Q 585.846607 630.245821 588.229677 629.961251 
L 595.917558 629.043217 
Q 598.300627 628.758647 598.016057 626.375577 
L 596.809006 616.267391 
Q 596.524436 613.884322 594.141367 614.168892 
L 586.453486 615.086926 
Q 584.070416 615.371496 584.354986 617.754566 
L 584.354986 617.754566 
z
" clip-path="url(#p1b2416cebb)" style="fill: none"/>
    </g>
    <g clip-path="url(#p1b2416cebb)">
     <!-- 10 -->
     <g transform="translate(588.390069 617.272723)rotate(-276.809628)scale(0.08 -0.08)">
      <use xlink:href="#DejaVuSans-31"/>
      <use xlink:href="#DejaVuSans-30" x="63.623047"/>
     </g>
    </g>
   </g>
   <g id="text_29">
    <g id="patch_64">
     <path d="M 695.008039 717.361335 
L 704.345725 721.415965 
Q 706.547144 722.371869 707.503049 720.17045 
L 710.586837 713.06858 
Q 711.542742 710.867161 709.341323 709.911256 
L 700.003637 705.856627 
Q 697.802218 704.900723 696.846313 707.102142 
L 693.762524 714.204012 
Q 692.80662 716.405431 695.008039 717.361335 
L 695.008039 717.361335 
z
" clip-path="url(#p1b2416cebb)" style="fill: none"/>
    </g>
    <g clip-path="url(#p1b2416cebb)">
     <!-- 27 -->
     <g transform="translate(696.626605 713.633828)rotate(-336.528452)scale(0.08 -0.08)">
      <use xlink:href="#DejaVuSans-32"/>
      <use xlink:href="#DejaVuSans-37" x="63.623047"/>
     </g>
    </g>
   </g>
   <g id="text_30">
    <g id="patch_65">
     <path d="M 590.748591 811.054877 
L 591.613754 800.911707 
Q 591.817722 798.52039 589.426405 798.316422 
L 581.711917 797.658414 
Q 579.3206 797.454446 579.116632 799.845763 
L 578.251469 809.988933 
Q 578.047501 812.38025 580.438818 812.584218 
L 588.153306 813.242226 
Q 590.544623 813.446194 590.748591 811.054877 
L 590.748591 811.054877 
z
" clip-path="url(#p1b2416cebb)" style="fill: none"/>
    </g>
    <g clip-path="url(#p1b2416cebb)">
     <!-- 35 -->
     <g transform="translate(586.699543 810.709513)rotate(-85.124748)scale(0.08 -0.08)">
      <use xlink:href="#DejaVuSans-33"/>
      <use xlink:href="#DejaVuSans-35" x="63.623047"/>
     </g>
    </g>
   </g>
   <g id="text_31">
    <g id="patch_66">
     <path d="M 490.248449 629.723926 
L 503.900747 622.883777 
Q 506.046492 621.808705 504.971419 619.66296 
L 501.503191 612.7407 
Q 500.428118 610.594955 498.282374 611.670028 
L 484.630075 618.510177 
Q 482.48433 619.585249 483.559403 621.730993 
L 487.027632 628.653254 
Q 488.102704 630.798999 490.248449 629.723926 
L 490.248449 629.723926 
z
" clip-path="url(#p1b2416cebb)" style="fill: none"/>
    </g>
    <g clip-path="url(#p1b2416cebb)">
     <!-- 112 -->
     <g transform="translate(488.428104 626.090689)rotate(-26.612034)scale(0.08 -0.08)">
      <use xlink:href="#DejaVuSans-31"/>
      <use xlink:href="#DejaVuSans-31" x="63.623047"/>
      <use xlink:href="#DejaVuSans-32" x="127.246094"/>
     </g>
    </g>
   </g>
   <g id="text_32">
    <g id="patch_67">
     <path d="M 428.642341 629.878507 
L 438.399552 626.975192 
Q 440.699877 626.290717 440.015402 623.990392 
L 437.807257 616.569449 
Q 437.122782 614.269124 434.822458 614.953599 
L 425.065247 617.856913 
Q 422.764922 618.541388 423.449397 620.841713 
L 425.657541 628.262657 
Q 426.342016 630.562982 428.642341 629.878507 
L 428.642341 629.878507 
z
" clip-path="url(#p1b2416cebb)" style="fill: none"/>
    </g>
    <g clip-path="url(#p1b2416cebb)">
     <!-- 94 -->
     <g transform="translate(427.483368 625.98353)rotate(-16.570677)scale(0.08 -0.08)">
      <use xlink:href="#DejaVuSans-39"/>
      <use xlink:href="#DejaVuSans-34" x="63.623047"/>
     </g>
    </g>
   </g>
   <g id="text_33">
    <g id="patch_68">
     <path d="M 522.191989 674.794168 
L 528.121007 666.518955 
Q 529.518811 664.568021 527.567877 663.170217 
L 521.274082 658.660843 
Q 519.323148 657.263039 517.925344 659.213973 
L 511.996326 667.489186 
Q 510.598522 669.44012 512.549456 670.837924 
L 518.843251 675.347298 
Q 520.794185 676.745102 522.191989 674.794168 
L 522.191989 674.794168 
z
" clip-path="url(#p1b2416cebb)" style="fill: none"/>
    </g>
    <g clip-path="url(#p1b2416cebb)">
     <!-- 17 -->
     <g transform="translate(518.88861 672.427365)rotate(-54.379185)scale(0.08 -0.08)">
      <use xlink:href="#DejaVuSans-31"/>
      <use xlink:href="#DejaVuSans-37" x="63.623047"/>
     </g>
    </g>
   </g>
   <g id="text_34">
    <g id="patch_69">
     <path d="M 591.985475 535.941818 
L 591.985475 520.671818 
Q 591.985475 518.271818 589.585475 518.271818 
L 581.842975 518.271818 
Q 579.442975 518.271818 579.442975 520.671818 
L 579.442975 535.941818 
Q 579.442975 538.341818 581.842975 538.341818 
L 589.585475 538.341818 
Q 591.985475 538.341818 591.985475 535.941818 
L 591.985475 535.941818 
z
" clip-path="url(#p1b2416cebb)" style="fill: none"/>
    </g>
    <g clip-path="url(#p1b2416cebb)">
     <!-- 193 -->
     <g transform="translate(587.921725 535.941818)rotate(-90)scale(0.08 -0.08)">
      <use xlink:href="#DejaVuSans-31"/>
      <use xlink:href="#DejaVuSans-39" x="63.623047"/>
      <use xlink:href="#DejaVuSans-33" x="127.246094"/>
     </g>
    </g>
   </g>
   <g id="text_35">
    <g id="patch_70">
     <path d="M 584.354986 617.754566 
L 585.562037 627.862752 
Q 585.846607 630.245821 588.229677 629.961251 
L 595.917558 629.043217 
Q 598.300627 628.758647 598.016057 626.375577 
L 596.809006 616.267391 
Q 596.524436 613.884322 594.141367 614.168892 
L 586.453486 615.086926 
Q 584.070416 615.371496 584.354986 617.754566 
L 584.354986 617.754566 
z
" clip-path="url(#p1b2416cebb)" style="fill: none"/>
    </g>
    <g clip-path="url(#p1b2416cebb)">
     <!-- 40 -->
     <g transform="translate(588.390069 617.272723)rotate(-276.809628)scale(0.08 -0.08)">
      <use xlink:href="#DejaVuSans-34"/>
      <use xlink:href="#DejaVuSans-30" x="63.623047"/>
     </g>
    </g>
   </g>
   <g id="text_36">
    <g id="patch_71">
     <path d="M 813.051041 810.891845 
L 813.311494 795.624066 
Q 813.35243 793.224415 810.952779 793.18348 
L 803.211405 793.051419 
Q 800.811754 793.010484 800.770819 795.410134 
L 800.510365 810.677913 
Q 800.469429 813.077564 802.86908 813.1185 
L 810.610454 813.25056 
Q 813.010105 813.291496 813.051041 810.891845 
L 813.051041 810.891845 
z
" clip-path="url(#p1b2416cebb)" style="fill: none"/>
    </g>
    <g clip-path="url(#p1b2416cebb)">
     <!-- 387 -->
     <g transform="translate(808.987882 810.822531)rotate(-89.022684)scale(0.08 -0.08)">
      <use xlink:href="#DejaVuSans-33"/>
      <use xlink:href="#DejaVuSans-38" x="63.623047"/>
      <use xlink:href="#DejaVuSans-37" x="127.246094"/>
     </g>
    </g>
   </g>
   <g id="matplotlib.axis_1">
    <g id="xtick_1"/>
    <g id="xtick_2"/>
    <g id="xtick_3"/>
    <g id="xtick_4"/>
    <g id="xtick_5"/>
   </g>
   <g id="matplotlib.axis_2">
    <g id="ytick_1"/>
    <g id="ytick_2"/>
    <g id="ytick_3"/>
    <g id="ytick_4"/>
    <g id="ytick_5"/>
    <g id="ytick_6"/>
    <g id="ytick_7"/>
   </g>
   <g id="PathCollection_1">
    <defs>
     <path id="C0_0_75ac5b5750" d="M 0 8.660254 
C 2.296726 8.660254 4.499694 7.747755 6.123724 6.123724 
C 7.747755 4.499694 8.660254 2.296726 8.660254 -0 
C 8.660254 -2.296726 7.747755 -4.499694 6.123724 -6.123724 
C 4.499694 -7.747755 2.296726 -8.660254 0 -8.660254 
C -2.296726 -8.660254 -4.499694 -7.747755 -6.123724 -6.123724 
C -7.747755 -4.499694 -8.660254 -2.296726 -8.660254 0 
C -8.660254 2.296726 -7.747755 4.499694 -6.123724 6.123724 
C -4.499694 7.747755 -2.296726 8.660254 0 8.660254 
z
"/>
    </defs>
    <g clip-path="url(#p1b2416cebb)">
     <use xlink:href="#C0_0_75ac5b5750" x="221.47438" y="306.850909" style="fill: #8ca832; stroke: #8ca832"/>
    </g>
    <g clip-path="url(#p1b2416cebb)">
     <use xlink:href="#C0_0_75ac5b5750" x="284.003484" y="398.487273" style="fill: #1f78b4; stroke: #1f78b4"/>
    </g>
    <g clip-path="url(#p1b2416cebb)">
     <use xlink:href="#C0_0_75ac5b5750" x="806.129316" y="856.669091" style="fill: #1f78b4; stroke: #1f78b4"/>
    </g>
    <g clip-path="url(#p1b2416cebb)">
     <use xlink:href="#C0_0_75ac5b5750" x="806.129316" y="948.305455" style="fill: #1f78b4; stroke: #1f78b4"/>
    </g>
    <g clip-path="url(#p1b2416cebb)">
     <use xlink:href="#C0_0_75ac5b5750" x="688.887246" y="948.305455" style="fill: #1f78b4; stroke: #1f78b4"/>
    </g>
    <g clip-path="url(#p1b2416cebb)">
     <use xlink:href="#C0_0_75ac5b5750" x="932.750751" y="948.305455" style="fill: #1f78b4; stroke: #1f78b4"/>
    </g>
    <g clip-path="url(#p1b2416cebb)">
     <use xlink:href="#C0_0_75ac5b5750" x="573.208405" y="948.305455" style="fill: #1f78b4; stroke: #1f78b4"/>
    </g>
    <g clip-path="url(#p1b2416cebb)">
     <use xlink:href="#C0_0_75ac5b5750" x="516.932211" y="215.214545" style="fill: #1f78b4; stroke: #1f78b4"/>
    </g>
    <g clip-path="url(#p1b2416cebb)">
     <use xlink:href="#C0_0_75ac5b5750" x="460.656018" y="306.850909" style="fill: #a85832; stroke: #a85832"/>
    </g>
    <g clip-path="url(#p1b2416cebb)">
     <use xlink:href="#C0_0_75ac5b5750" x="585.714225" y="490.123636" style="fill: #1f78b4; stroke: #1f78b4"/>
    </g>
    <g clip-path="url(#p1b2416cebb)">
     <use xlink:href="#C0_0_75ac5b5750" x="752.979578" y="306.850909" style="fill: #1f78b4; stroke: #1f78b4"/>
    </g>
    <g clip-path="url(#p1b2416cebb)">
     <use xlink:href="#C0_0_75ac5b5750" x="959.32562" y="306.850909" style="fill: #a88e32; stroke: #a88e32"/>
    </g>
    <g clip-path="url(#p1b2416cebb)">
     <use xlink:href="#C0_0_75ac5b5750" x="692.013702" y="398.487273" style="fill: #1f78b4; stroke: #1f78b4"/>
    </g>
    <g clip-path="url(#p1b2416cebb)">
     <use xlink:href="#C0_0_75ac5b5750" x="596.656818" y="673.396364" style="fill: #1f78b4; stroke: #1f78b4"/>
    </g>
    <g clip-path="url(#p1b2416cebb)">
     <use xlink:href="#C0_0_75ac5b5750" x="585.714225" y="581.76" style="fill: #1f78b4; stroke: #1f78b4"/>
    </g>
    <g clip-path="url(#p1b2416cebb)">
     <use xlink:href="#C0_0_75ac5b5750" x="402.816597" y="673.396364" style="fill: #1f78b4; stroke: #1f78b4"/>
    </g>
    <g clip-path="url(#p1b2416cebb)">
     <use xlink:href="#C0_0_75ac5b5750" x="277.750573" y="673.396364" style="fill: #1f78b4; stroke: #1f78b4"/>
    </g>
    <g clip-path="url(#p1b2416cebb)">
     <use xlink:href="#C0_0_75ac5b5750" x="454.403108" y="765.032727" style="fill: #1f78b4; stroke: #1f78b4"/>
    </g>
    <g clip-path="url(#p1b2416cebb)">
     <use xlink:href="#C0_0_75ac5b5750" x="807.692543" y="765.032727" style="fill: #1f78b4; stroke: #1f78b4"/>
    </g>
   </g>
   <g id="patch_72">
    <path d="M 144 1025.28 
L 144 138.24 
" style="fill: none; stroke: #000000; stroke-width: 0.8; stroke-linejoin: miter; stroke-linecap: square"/>
   </g>
   <g id="patch_73">
    <path d="M 1036.8 1025.28 
L 1036.8 138.24 
" style="fill: none; stroke: #000000; stroke-width: 0.8; stroke-linejoin: miter; stroke-linecap: square"/>
   </g>
   <g id="patch_74">
    <path d="M 144 1025.28 
L 1036.8 1025.28 
" style="fill: none; stroke: #000000; stroke-width: 0.8; stroke-linejoin: miter; stroke-linecap: square"/>
   </g>
   <g id="patch_75">
    <path d="M 144 138.24 
L 1036.8 138.24 
" style="fill: none; stroke: #000000; stroke-width: 0.8; stroke-linejoin: miter; stroke-linecap: square"/>
   </g>
   <g id="text_37">
    <g clip-path="url(#p1b2416cebb)">
     <!-- auth*(RC)* -->
     <g transform="translate(191.797583 309.886222)scale(0.11 -0.11)">
      <defs>
       <path id="DejaVuSans-2a" d="M 3009 3897 
L 1888 3291 
L 3009 2681 
L 2828 2375 
L 1778 3009 
L 1778 1831 
L 1422 1831 
L 1422 3009 
L 372 2375 
L 191 2681 
L 1313 3291 
L 191 3897 
L 372 4206 
L 1422 3572 
L 1422 4750 
L 1778 4750 
L 1778 3572 
L 2828 4206 
L 3009 3897 
z
" transform="scale(0.015625)"/>
       <path id="DejaVuSans-28" d="M 1984 4856 
Q 1566 4138 1362 3434 
Q 1159 2731 1159 2009 
Q 1159 1288 1364 580 
Q 1569 -128 1984 -844 
L 1484 -844 
Q 1016 -109 783 600 
Q 550 1309 550 2009 
Q 550 2706 781 3412 
Q 1013 4119 1484 4856 
L 1984 4856 
z
" transform="scale(0.015625)"/>
       <path id="DejaVuSans-52" d="M 2841 2188 
Q 3044 2119 3236 1894 
Q 3428 1669 3622 1275 
L 4263 0 
L 3584 0 
L 2988 1197 
Q 2756 1666 2539 1819 
Q 2322 1972 1947 1972 
L 1259 1972 
L 1259 0 
L 628 0 
L 628 4666 
L 2053 4666 
Q 2853 4666 3247 4331 
Q 3641 3997 3641 3322 
Q 3641 2881 3436 2590 
Q 3231 2300 2841 2188 
z
M 1259 4147 
L 1259 2491 
L 2053 2491 
Q 2509 2491 2742 2702 
Q 2975 2913 2975 3322 
Q 2975 3731 2742 3939 
Q 2509 4147 2053 4147 
L 1259 4147 
z
" transform="scale(0.015625)"/>
       <path id="DejaVuSans-43" d="M 4122 4306 
L 4122 3641 
Q 3803 3938 3442 4084 
Q 3081 4231 2675 4231 
Q 1875 4231 1450 3742 
Q 1025 3253 1025 2328 
Q 1025 1406 1450 917 
Q 1875 428 2675 428 
Q 3081 428 3442 575 
Q 3803 722 4122 1019 
L 4122 359 
Q 3791 134 3420 21 
Q 3050 -91 2638 -91 
Q 1578 -91 968 557 
Q 359 1206 359 2328 
Q 359 3453 968 4101 
Q 1578 4750 2638 4750 
Q 3056 4750 3426 4639 
Q 3797 4528 4122 4306 
z
" transform="scale(0.015625)"/>
       <path id="DejaVuSans-29" d="M 513 4856 
L 1013 4856 
Q 1481 4119 1714 3412 
Q 1947 2706 1947 2009 
Q 1947 1309 1714 600 
Q 1481 -109 1013 -844 
L 513 -844 
Q 928 -128 1133 580 
Q 1338 1288 1338 2009 
Q 1338 2731 1133 3434 
Q 928 4138 513 4856 
z
" transform="scale(0.015625)"/>
      </defs>
      <use xlink:href="#DejaVuSans-61"/>
      <use xlink:href="#DejaVuSans-75" x="61.279297"/>
      <use xlink:href="#DejaVuSans-74" x="124.658203"/>
      <use xlink:href="#DejaVuSans-68" x="163.867188"/>
      <use xlink:href="#DejaVuSans-2a" x="227.246094"/>
      <use xlink:href="#DejaVuSans-28" x="277.246094"/>
      <use xlink:href="#DejaVuSans-52" x="316.259766"/>
      <use xlink:href="#DejaVuSans-43" x="380.742188"/>
      <use xlink:href="#DejaVuSans-29" x="450.566406"/>
      <use xlink:href="#DejaVuSans-2a" x="489.580078"/>
     </g>
    </g>
   </g>
   <g id="text_38">
    <g clip-path="url(#p1b2416cebb)">
     <!-- verification-code -->
     <g transform="translate(237.931531 401.522585)scale(0.11 -0.11)">
      <defs>
       <path id="DejaVuSans-76" d="M 191 3500 
L 800 3500 
L 1894 563 
L 2988 3500 
L 3597 3500 
L 2284 0 
L 1503 0 
L 191 3500 
z
" transform="scale(0.015625)"/>
       <path id="DejaVuSans-72" d="M 2631 2963 
Q 2534 3019 2420 3045 
Q 2306 3072 2169 3072 
Q 1681 3072 1420 2755 
Q 1159 2438 1159 1844 
L 1159 0 
L 581 0 
L 581 3500 
L 1159 3500 
L 1159 2956 
Q 1341 3275 1631 3429 
Q 1922 3584 2338 3584 
Q 2397 3584 2469 3576 
Q 2541 3569 2628 3553 
L 2631 2963 
z
" transform="scale(0.015625)"/>
       <path id="DejaVuSans-69" d="M 603 3500 
L 1178 3500 
L 1178 0 
L 603 0 
L 603 3500 
z
M 603 4863 
L 1178 4863 
L 1178 4134 
L 603 4134 
L 603 4863 
z
" transform="scale(0.015625)"/>
       <path id="DejaVuSans-66" d="M 2375 4863 
L 2375 4384 
L 1825 4384 
Q 1516 4384 1395 4259 
Q 1275 4134 1275 3809 
L 1275 3500 
L 2222 3500 
L 2222 3053 
L 1275 3053 
L 1275 0 
L 697 0 
L 697 3053 
L 147 3053 
L 147 3500 
L 697 3500 
L 697 3744 
Q 697 4328 969 4595 
Q 1241 4863 1831 4863 
L 2375 4863 
z
" transform="scale(0.015625)"/>
       <path id="DejaVuSans-6f" d="M 1959 3097 
Q 1497 3097 1228 2736 
Q 959 2375 959 1747 
Q 959 1119 1226 758 
Q 1494 397 1959 397 
Q 2419 397 2687 759 
Q 2956 1122 2956 1747 
Q 2956 2369 2687 2733 
Q 2419 3097 1959 3097 
z
M 1959 3584 
Q 2709 3584 3137 3096 
Q 3566 2609 3566 1747 
Q 3566 888 3137 398 
Q 2709 -91 1959 -91 
Q 1206 -91 779 398 
Q 353 888 353 1747 
Q 353 2609 779 3096 
Q 1206 3584 1959 3584 
z
" transform="scale(0.015625)"/>
       <path id="DejaVuSans-2d" d="M 313 2009 
L 1997 2009 
L 1997 1497 
L 313 1497 
L 313 2009 
z
" transform="scale(0.015625)"/>
       <path id="DejaVuSans-64" d="M 2906 2969 
L 2906 4863 
L 3481 4863 
L 3481 0 
L 2906 0 
L 2906 525 
Q 2725 213 2448 61 
Q 2172 -91 1784 -91 
Q 1150 -91 751 415 
Q 353 922 353 1747 
Q 353 2572 751 3078 
Q 1150 3584 1784 3584 
Q 2172 3584 2448 3432 
Q 2725 3281 2906 2969 
z
M 947 1747 
Q 947 1113 1208 752 
Q 1469 391 1925 391 
Q 2381 391 2643 752 
Q 2906 1113 2906 1747 
Q 2906 2381 2643 2742 
Q 2381 3103 1925 3103 
Q 1469 3103 1208 2742 
Q 947 2381 947 1747 
z
" transform="scale(0.015625)"/>
      </defs>
      <use xlink:href="#DejaVuSans-76"/>
      <use xlink:href="#DejaVuSans-65" x="59.179688"/>
      <use xlink:href="#DejaVuSans-72" x="120.703125"/>
      <use xlink:href="#DejaVuSans-69" x="161.816406"/>
      <use xlink:href="#DejaVuSans-66" x="189.599609"/>
      <use xlink:href="#DejaVuSans-69" x="224.804688"/>
      <use xlink:href="#DejaVuSans-63" x="252.587891"/>
      <use xlink:href="#DejaVuSans-61" x="307.568359"/>
      <use xlink:href="#DejaVuSans-74" x="368.847656"/>
      <use xlink:href="#DejaVuSans-69" x="408.056641"/>
      <use xlink:href="#DejaVuSans-6f" x="435.839844"/>
      <use xlink:href="#DejaVuSans-6e" x="497.021484"/>
      <use xlink:href="#DejaVuSans-2d" x="560.400391"/>
      <use xlink:href="#DejaVuSans-63" x="596.484375"/>
      <use xlink:href="#DejaVuSans-6f" x="651.464844"/>
      <use xlink:href="#DejaVuSans-64" x="712.646484"/>
      <use xlink:href="#DejaVuSans-65" x="776.123047"/>
     </g>
    </g>
   </g>
   <g id="text_39">
    <g clip-path="url(#p1b2416cebb)">
     <!-- basic -->
     <g transform="translate(791.849941 859.704403)scale(0.11 -0.11)">
      <defs>
       <path id="DejaVuSans-62" d="M 3116 1747 
Q 3116 2381 2855 2742 
Q 2594 3103 2138 3103 
Q 1681 3103 1420 2742 
Q 1159 2381 1159 1747 
Q 1159 1113 1420 752 
Q 1681 391 2138 391 
Q 2594 391 2855 752 
Q 3116 1113 3116 1747 
z
M 1159 2969 
Q 1341 3281 1617 3432 
Q 1894 3584 2278 3584 
Q 2916 3584 3314 3078 
Q 3713 2572 3713 1747 
Q 3713 922 3314 415 
Q 2916 -91 2278 -91 
Q 1894 -91 1617 61 
Q 1341 213 1159 525 
L 1159 0 
L 581 0 
L 581 4863 
L 1159 4863 
L 1159 2969 
z
" transform="scale(0.015625)"/>
      </defs>
      <use xlink:href="#DejaVuSans-62"/>
      <use xlink:href="#DejaVuSans-61" x="63.476562"/>
      <use xlink:href="#DejaVuSans-73" x="124.755859"/>
      <use xlink:href="#DejaVuSans-69" x="176.855469"/>
      <use xlink:href="#DejaVuSans-63" x="204.638672"/>
     </g>
    </g>
   </g>
   <g id="text_40">
    <g clip-path="url(#p1b2416cebb)">
     <!-- price -->
     <g transform="translate(792.440331 951.340767)scale(0.11 -0.11)">
      <use xlink:href="#DejaVuSans-70"/>
      <use xlink:href="#DejaVuSans-72" x="63.476562"/>
      <use xlink:href="#DejaVuSans-69" x="104.589844"/>
      <use xlink:href="#DejaVuSans-63" x="132.373047"/>
      <use xlink:href="#DejaVuSans-65" x="187.353516"/>
     </g>
    </g>
   </g>
   <g id="text_41">
    <g clip-path="url(#p1b2416cebb)">
     <!-- route -->
     <g transform="translate(674.358653 951.340767)scale(0.11 -0.11)">
      <use xlink:href="#DejaVuSans-72"/>
      <use xlink:href="#DejaVuSans-6f" x="38.863281"/>
      <use xlink:href="#DejaVuSans-75" x="100.044922"/>
      <use xlink:href="#DejaVuSans-74" x="163.423828"/>
      <use xlink:href="#DejaVuSans-65" x="202.632812"/>
     </g>
    </g>
   </g>
   <g id="text_42">
    <g clip-path="url(#p1b2416cebb)">
     <!-- station -->
     <g transform="translate(913.823876 951.340767)scale(0.11 -0.11)">
      <use xlink:href="#DejaVuSans-73"/>
      <use xlink:href="#DejaVuSans-74" x="52.099609"/>
      <use xlink:href="#DejaVuSans-61" x="91.308594"/>
      <use xlink:href="#DejaVuSans-74" x="152.587891"/>
      <use xlink:href="#DejaVuSans-69" x="191.796875"/>
      <use xlink:href="#DejaVuSans-6f" x="219.580078"/>
      <use xlink:href="#DejaVuSans-6e" x="280.761719"/>
     </g>
    </g>
   </g>
   <g id="text_43">
    <g clip-path="url(#p1b2416cebb)">
     <!-- train -->
     <g transform="translate(560.407155 951.340767)scale(0.11 -0.11)">
      <use xlink:href="#DejaVuSans-74"/>
      <use xlink:href="#DejaVuSans-72" x="39.208984"/>
      <use xlink:href="#DejaVuSans-61" x="80.322266"/>
      <use xlink:href="#DejaVuSans-69" x="141.601562"/>
      <use xlink:href="#DejaVuSans-6e" x="169.384766"/>
     </g>
    </g>
   </g>
   <g id="text_44">
    <g clip-path="url(#p1b2416cebb)">
     <!-- gateway -->
     <g transform="translate(493.405961 218.249858)scale(0.11 -0.11)">
      <defs>
       <path id="DejaVuSans-67" d="M 2906 1791 
Q 2906 2416 2648 2759 
Q 2391 3103 1925 3103 
Q 1463 3103 1205 2759 
Q 947 2416 947 1791 
Q 947 1169 1205 825 
Q 1463 481 1925 481 
Q 2391 481 2648 825 
Q 2906 1169 2906 1791 
z
M 3481 434 
Q 3481 -459 3084 -895 
Q 2688 -1331 1869 -1331 
Q 1566 -1331 1297 -1286 
Q 1028 -1241 775 -1147 
L 775 -588 
Q 1028 -725 1275 -790 
Q 1522 -856 1778 -856 
Q 2344 -856 2625 -561 
Q 2906 -266 2906 331 
L 2906 616 
Q 2728 306 2450 153 
Q 2172 0 1784 0 
Q 1141 0 747 490 
Q 353 981 353 1791 
Q 353 2603 747 3093 
Q 1141 3584 1784 3584 
Q 2172 3584 2450 3431 
Q 2728 3278 2906 2969 
L 2906 3500 
L 3481 3500 
L 3481 434 
z
" transform="scale(0.015625)"/>
       <path id="DejaVuSans-77" d="M 269 3500 
L 844 3500 
L 1563 769 
L 2278 3500 
L 2956 3500 
L 3675 769 
L 4391 3500 
L 4966 3500 
L 4050 0 
L 3372 0 
L 2619 2869 
L 1863 0 
L 1184 0 
L 269 3500 
z
" transform="scale(0.015625)"/>
      </defs>
      <use xlink:href="#DejaVuSans-67"/>
      <use xlink:href="#DejaVuSans-61" x="63.476562"/>
      <use xlink:href="#DejaVuSans-74" x="124.755859"/>
      <use xlink:href="#DejaVuSans-65" x="163.964844"/>
      <use xlink:href="#DejaVuSans-77" x="225.488281"/>
      <use xlink:href="#DejaVuSans-61" x="307.275391"/>
      <use xlink:href="#DejaVuSans-79" x="368.554688"/>
     </g>
    </g>
   </g>
   <g id="text_45">
    <g clip-path="url(#p1b2416cebb)">
     <!-- assurance -->
     <g transform="translate(432.544143 309.886222)scale(0.11 -0.11)">
      <use xlink:href="#DejaVuSans-61"/>
      <use xlink:href="#DejaVuSans-73" x="61.279297"/>
      <use xlink:href="#DejaVuSans-73" x="113.378906"/>
      <use xlink:href="#DejaVuSans-75" x="165.478516"/>
      <use xlink:href="#DejaVuSans-72" x="228.857422"/>
      <use xlink:href="#DejaVuSans-61" x="269.970703"/>
      <use xlink:href="#DejaVuSans-6e" x="331.25"/>
      <use xlink:href="#DejaVuSans-63" x="394.628906"/>
      <use xlink:href="#DejaVuSans-65" x="449.609375"/>
     </g>
    </g>
   </g>
   <g id="text_46">
    <g clip-path="url(#p1b2416cebb)">
     <!-- travel -->
     <g transform="translate(569.759069 493.158949)scale(0.11 -0.11)">
      <use xlink:href="#DejaVuSans-74"/>
      <use xlink:href="#DejaVuSans-72" x="39.208984"/>
      <use xlink:href="#DejaVuSans-61" x="80.322266"/>
      <use xlink:href="#DejaVuSans-76" x="141.601562"/>
      <use xlink:href="#DejaVuSans-65" x="200.78125"/>
      <use xlink:href="#DejaVuSans-6c" x="262.304688"/>
     </g>
    </g>
   </g>
   <g id="text_47">
    <g clip-path="url(#p1b2416cebb)">
     <!-- travel-plan -->
     <g transform="translate(723.164421 309.886222)scale(0.11 -0.11)">
      <use xlink:href="#DejaVuSans-74"/>
      <use xlink:href="#DejaVuSans-72" x="39.208984"/>
      <use xlink:href="#DejaVuSans-61" x="80.322266"/>
      <use xlink:href="#DejaVuSans-76" x="141.601562"/>
      <use xlink:href="#DejaVuSans-65" x="200.78125"/>
      <use xlink:href="#DejaVuSans-6c" x="262.304688"/>
      <use xlink:href="#DejaVuSans-2d" x="290.087891"/>
      <use xlink:href="#DejaVuSans-70" x="326.171875"/>
      <use xlink:href="#DejaVuSans-6c" x="389.648438"/>
      <use xlink:href="#DejaVuSans-61" x="417.431641"/>
      <use xlink:href="#DejaVuSans-6e" x="478.710938"/>
     </g>
    </g>
   </g>
   <g id="text_48">
    <g clip-path="url(#p1b2416cebb)">
     <!-- ts-ui-dashboard -->
     <g transform="translate(916.225385 309.886222)scale(0.11 -0.11)">
      <use xlink:href="#DejaVuSans-74"/>
      <use xlink:href="#DejaVuSans-73" x="39.208984"/>
      <use xlink:href="#DejaVuSans-2d" x="91.308594"/>
      <use xlink:href="#DejaVuSans-75" x="127.392578"/>
      <use xlink:href="#DejaVuSans-69" x="190.771484"/>
      <use xlink:href="#DejaVuSans-2d" x="218.554688"/>
      <use xlink:href="#DejaVuSans-64" x="254.638672"/>
      <use xlink:href="#DejaVuSans-61" x="318.115234"/>
      <use xlink:href="#DejaVuSans-73" x="379.394531"/>
      <use xlink:href="#DejaVuSans-68" x="431.494141"/>
      <use xlink:href="#DejaVuSans-62" x="494.873047"/>
      <use xlink:href="#DejaVuSans-6f" x="558.349609"/>
      <use xlink:href="#DejaVuSans-61" x="619.53125"/>
      <use xlink:href="#DejaVuSans-72" x="680.810547"/>
      <use xlink:href="#DejaVuSans-64" x="720.173828"/>
     </g>
    </g>
   </g>
   <g id="text_49">
    <g clip-path="url(#p1b2416cebb)">
     <!-- route-plan -->
     <g transform="translate(663.625108 401.522585)scale(0.11 -0.11)">
      <use xlink:href="#DejaVuSans-72"/>
      <use xlink:href="#DejaVuSans-6f" x="38.863281"/>
      <use xlink:href="#DejaVuSans-75" x="100.044922"/>
      <use xlink:href="#DejaVuSans-74" x="163.423828"/>
      <use xlink:href="#DejaVuSans-65" x="202.632812"/>
      <use xlink:href="#DejaVuSans-2d" x="264.15625"/>
      <use xlink:href="#DejaVuSans-70" x="300.240234"/>
      <use xlink:href="#DejaVuSans-6c" x="363.716797"/>
      <use xlink:href="#DejaVuSans-61" x="391.5"/>
      <use xlink:href="#DejaVuSans-6e" x="452.779297"/>
     </g>
    </g>
   </g>
   <g id="text_50">
    <g clip-path="url(#p1b2416cebb)">
     <!-- travel2 -->
     <g transform="translate(577.202287 676.431676)scale(0.11 -0.11)">
      <use xlink:href="#DejaVuSans-74"/>
      <use xlink:href="#DejaVuSans-72" x="39.208984"/>
      <use xlink:href="#DejaVuSans-61" x="80.322266"/>
      <use xlink:href="#DejaVuSans-76" x="141.601562"/>
      <use xlink:href="#DejaVuSans-65" x="200.78125"/>
      <use xlink:href="#DejaVuSans-6c" x="262.304688"/>
      <use xlink:href="#DejaVuSans-32" x="290.087891"/>
     </g>
    </g>
   </g>
   <g id="text_51">
    <g clip-path="url(#p1b2416cebb)">
     <!-- seat -->
     <g transform="translate(573.93821 584.795313)scale(0.11 -0.11)">
      <use xlink:href="#DejaVuSans-73"/>
      <use xlink:href="#DejaVuSans-65" x="52.099609"/>
      <use xlink:href="#DejaVuSans-61" x="113.623047"/>
      <use xlink:href="#DejaVuSans-74" x="174.902344"/>
     </g>
    </g>
   </g>
   <g id="text_52">
    <g clip-path="url(#p1b2416cebb)">
     <!-- config -->
     <g transform="translate(385.985738 676.431676)scale(0.11 -0.11)">
      <use xlink:href="#DejaVuSans-63"/>
      <use xlink:href="#DejaVuSans-6f" x="54.980469"/>
      <use xlink:href="#DejaVuSans-6e" x="116.162109"/>
      <use xlink:href="#DejaVuSans-66" x="179.541016"/>
      <use xlink:href="#DejaVuSans-69" x="214.746094"/>
      <use xlink:href="#DejaVuSans-67" x="242.529297"/>
     </g>
    </g>
   </g>
   <g id="text_53">
    <g clip-path="url(#p1b2416cebb)">
     <!-- order -->
     <g transform="translate(263.08362 676.431676)scale(0.11 -0.11)">
      <use xlink:href="#DejaVuSans-6f"/>
      <use xlink:href="#DejaVuSans-72" x="61.181641"/>
      <use xlink:href="#DejaVuSans-64" x="100.544922"/>
      <use xlink:href="#DejaVuSans-65" x="164.021484"/>
      <use xlink:href="#DejaVuSans-72" x="225.544922"/>
     </g>
    </g>
   </g>
   <g id="text_54">
    <g clip-path="url(#p1b2416cebb)">
     <!-- order-other -->
     <g transform="translate(423.347014 768.06804)scale(0.11 -0.11)">
      <use xlink:href="#DejaVuSans-6f"/>
      <use xlink:href="#DejaVuSans-72" x="61.181641"/>
      <use xlink:href="#DejaVuSans-64" x="100.544922"/>
      <use xlink:href="#DejaVuSans-65" x="164.021484"/>
      <use xlink:href="#DejaVuSans-72" x="225.544922"/>
      <use xlink:href="#DejaVuSans-2d" x="260.283203"/>
      <use xlink:href="#DejaVuSans-6f" x="298.242188"/>
      <use xlink:href="#DejaVuSans-74" x="359.423828"/>
      <use xlink:href="#DejaVuSans-68" x="398.632812"/>
      <use xlink:href="#DejaVuSans-65" x="462.011719"/>
      <use xlink:href="#DejaVuSans-72" x="523.535156"/>
     </g>
    </g>
   </g>
   <g id="text_55">
    <g clip-path="url(#p1b2416cebb)">
     <!-- ticketinfo -->
     <g transform="translate(782.143325 768.06804)scale(0.11 -0.11)">
      <defs>
       <path id="DejaVuSans-6b" d="M 581 4863 
L 1159 4863 
L 1159 1991 
L 2875 3500 
L 3609 3500 
L 1753 1863 
L 3688 0 
L 2938 0 
L 1159 1709 
L 1159 0 
L 581 0 
L 581 4863 
z
" transform="scale(0.015625)"/>
      </defs>
      <use xlink:href="#DejaVuSans-74"/>
      <use xlink:href="#DejaVuSans-69" x="39.208984"/>
      <use xlink:href="#DejaVuSans-63" x="66.992188"/>
      <use xlink:href="#DejaVuSans-6b" x="121.972656"/>
      <use xlink:href="#DejaVuSans-65" x="176.257812"/>
      <use xlink:href="#DejaVuSans-74" x="237.78125"/>
      <use xlink:href="#DejaVuSans-69" x="276.990234"/>
      <use xlink:href="#DejaVuSans-6e" x="304.773438"/>
      <use xlink:href="#DejaVuSans-66" x="368.152344"/>
      <use xlink:href="#DejaVuSans-6f" x="403.357422"/>
     </g>
    </g>
   </g>
  </g>
 </g>
 <defs>
  <clipPath id="p1b2416cebb">
   <rect x="144" y="138.24" width="892.8" height="887.04"/>
  </clipPath>
 </defs>
</svg>
