<?xml version="1.0" encoding="utf-8" standalone="no"?>
<!DOCTYPE svg PUBLIC "-//W3C//DTD SVG 1.1//EN"
  "http://www.w3.org/Graphics/SVG/1.1/DTD/svg11.dtd">
<svg xmlns:xlink="http://www.w3.org/1999/xlink" width="1152pt" height="1152pt" viewBox="0 0 1152 1152" xmlns="http://www.w3.org/2000/svg" version="1.1">
 <metadata>
  <rdf:RDF xmlns:dc="http://purl.org/dc/elements/1.1/" xmlns:cc="http://creativecommons.org/ns#" xmlns:rdf="http://www.w3.org/1999/02/22-rdf-syntax-ns#">
   <cc:Work>
    <dc:type rdf:resource="http://purl.org/dc/dcmitype/StillImage"/>
    <dc:date>2022-11-17T01:45:37.503776</dc:date>
    <dc:format>image/svg+xml</dc:format>
    <dc:creator>
     <cc:Agent>
      <dc:title>Matplotlib v3.5.3, https://matplotlib.org/</dc:title>
     </cc:Agent>
    </dc:creator>
   </cc:Work>
  </rdf:RDF>
 </metadata>
 <defs>
  <style type="text/css">*{stroke-linejoin: round; stroke-linecap: butt}</style>
 </defs>
 <g id="figure_1">
  <g id="patch_1">
   <path d="M 0 1152 
L 1152 1152 
L 1152 0 
L 0 0 
z
" style="fill: #ffffff"/>
  </g>
  <g id="axes_1">
   <g id="patch_2">
    <path d="M 144 1025.28 
L 1036.8 1025.28 
L 1036.8 138.24 
L 144 138.24 
z
" style="fill: #ffffff"/>
   </g>
   <g id="text_1">
    <g id="patch_3">
     <path d="M 607.824975 879.409195 
L 666.937543 936.553062 
Q 668.66309 938.221141 670.331169 936.495594 
L 675.867106 930.768935 
Q 677.535185 929.043388 675.809638 927.375309 
L 616.697069 870.231442 
Q 614.971522 868.563363 613.303443 870.28891 
L 607.767506 876.015569 
Q 606.099427 877.741116 607.824975 879.409195 
L 607.824975 879.409195 
z
" clip-path="url(#p6c13ea20f2)" style="fill: none"/>
    </g>
    <g clip-path="url(#p6c13ea20f2)">
     <!-- ['latency', 'cpu_use'] -->
     <g transform="translate(610.804059 876.327476)rotate(-315.970161)scale(0.08 -0.08)">
      <defs>
       <path id="DejaVuSans-5b" d="M 550 4863 
L 1875 4863 
L 1875 4416 
L 1125 4416 
L 1125 -397 
L 1875 -397 
L 1875 -844 
L 550 -844 
L 550 4863 
z
" transform="scale(0.015625)"/>
       <path id="DejaVuSans-27" d="M 1147 4666 
L 1147 2931 
L 616 2931 
L 616 4666 
L 1147 4666 
z
" transform="scale(0.015625)"/>
       <path id="DejaVuSans-6c" d="M 603 4863 
L 1178 4863 
L 1178 0 
L 603 0 
L 603 4863 
z
" transform="scale(0.015625)"/>
       <path id="DejaVuSans-61" d="M 2194 1759 
Q 1497 1759 1228 1600 
Q 959 1441 959 1056 
Q 959 750 1161 570 
Q 1363 391 1709 391 
Q 2188 391 2477 730 
Q 2766 1069 2766 1631 
L 2766 1759 
L 2194 1759 
z
M 3341 1997 
L 3341 0 
L 2766 0 
L 2766 531 
Q 2569 213 2275 61 
Q 1981 -91 1556 -91 
Q 1019 -91 701 211 
Q 384 513 384 1019 
Q 384 1609 779 1909 
Q 1175 2209 1959 2209 
L 2766 2209 
L 2766 2266 
Q 2766 2663 2505 2880 
Q 2244 3097 1772 3097 
Q 1472 3097 1187 3025 
Q 903 2953 641 2809 
L 641 3341 
Q 956 3463 1253 3523 
Q 1550 3584 1831 3584 
Q 2591 3584 2966 3190 
Q 3341 2797 3341 1997 
z
" transform="scale(0.015625)"/>
       <path id="DejaVuSans-74" d="M 1172 4494 
L 1172 3500 
L 2356 3500 
L 2356 3053 
L 1172 3053 
L 1172 1153 
Q 1172 725 1289 603 
Q 1406 481 1766 481 
L 2356 481 
L 2356 0 
L 1766 0 
Q 1100 0 847 248 
Q 594 497 594 1153 
L 594 3053 
L 172 3053 
L 172 3500 
L 594 3500 
L 594 4494 
L 1172 4494 
z
" transform="scale(0.015625)"/>
       <path id="DejaVuSans-65" d="M 3597 1894 
L 3597 1613 
L 953 1613 
Q 991 1019 1311 708 
Q 1631 397 2203 397 
Q 2534 397 2845 478 
Q 3156 559 3463 722 
L 3463 178 
Q 3153 47 2828 -22 
Q 2503 -91 2169 -91 
Q 1331 -91 842 396 
Q 353 884 353 1716 
Q 353 2575 817 3079 
Q 1281 3584 2069 3584 
Q 2775 3584 3186 3129 
Q 3597 2675 3597 1894 
z
M 3022 2063 
Q 3016 2534 2758 2815 
Q 2500 3097 2075 3097 
Q 1594 3097 1305 2825 
Q 1016 2553 972 2059 
L 3022 2063 
z
" transform="scale(0.015625)"/>
       <path id="DejaVuSans-6e" d="M 3513 2113 
L 3513 0 
L 2938 0 
L 2938 2094 
Q 2938 2591 2744 2837 
Q 2550 3084 2163 3084 
Q 1697 3084 1428 2787 
Q 1159 2491 1159 1978 
L 1159 0 
L 581 0 
L 581 3500 
L 1159 3500 
L 1159 2956 
Q 1366 3272 1645 3428 
Q 1925 3584 2291 3584 
Q 2894 3584 3203 3211 
Q 3513 2838 3513 2113 
z
" transform="scale(0.015625)"/>
       <path id="DejaVuSans-63" d="M 3122 3366 
L 3122 2828 
Q 2878 2963 2633 3030 
Q 2388 3097 2138 3097 
Q 1578 3097 1268 2742 
Q 959 2388 959 1747 
Q 959 1106 1268 751 
Q 1578 397 2138 397 
Q 2388 397 2633 464 
Q 2878 531 3122 666 
L 3122 134 
Q 2881 22 2623 -34 
Q 2366 -91 2075 -91 
Q 1284 -91 818 406 
Q 353 903 353 1747 
Q 353 2603 823 3093 
Q 1294 3584 2113 3584 
Q 2378 3584 2631 3529 
Q 2884 3475 3122 3366 
z
" transform="scale(0.015625)"/>
       <path id="DejaVuSans-79" d="M 2059 -325 
Q 1816 -950 1584 -1140 
Q 1353 -1331 966 -1331 
L 506 -1331 
L 506 -850 
L 844 -850 
Q 1081 -850 1212 -737 
Q 1344 -625 1503 -206 
L 1606 56 
L 191 3500 
L 800 3500 
L 1894 763 
L 2988 3500 
L 3597 3500 
L 2059 -325 
z
" transform="scale(0.015625)"/>
       <path id="DejaVuSans-2c" d="M 750 794 
L 1409 794 
L 1409 256 
L 897 -744 
L 494 -744 
L 750 256 
L 750 794 
z
" transform="scale(0.015625)"/>
       <path id="DejaVuSans-20" transform="scale(0.015625)"/>
       <path id="DejaVuSans-70" d="M 1159 525 
L 1159 -1331 
L 581 -1331 
L 581 3500 
L 1159 3500 
L 1159 2969 
Q 1341 3281 1617 3432 
Q 1894 3584 2278 3584 
Q 2916 3584 3314 3078 
Q 3713 2572 3713 1747 
Q 3713 922 3314 415 
Q 2916 -91 2278 -91 
Q 1894 -91 1617 61 
Q 1341 213 1159 525 
z
M 3116 1747 
Q 3116 2381 2855 2742 
Q 2594 3103 2138 3103 
Q 1681 3103 1420 2742 
Q 1159 2381 1159 1747 
Q 1159 1113 1420 752 
Q 1681 391 2138 391 
Q 2594 391 2855 752 
Q 3116 1113 3116 1747 
z
" transform="scale(0.015625)"/>
       <path id="DejaVuSans-75" d="M 544 1381 
L 544 3500 
L 1119 3500 
L 1119 1403 
Q 1119 906 1312 657 
Q 1506 409 1894 409 
Q 2359 409 2629 706 
Q 2900 1003 2900 1516 
L 2900 3500 
L 3475 3500 
L 3475 0 
L 2900 0 
L 2900 538 
Q 2691 219 2414 64 
Q 2138 -91 1772 -91 
Q 1169 -91 856 284 
Q 544 659 544 1381 
z
M 1991 3584 
L 1991 3584 
z
" transform="scale(0.015625)"/>
       <path id="DejaVuSans-5f" d="M 3263 -1063 
L 3263 -1509 
L -63 -1509 
L -63 -1063 
L 3263 -1063 
z
" transform="scale(0.015625)"/>
       <path id="DejaVuSans-73" d="M 2834 3397 
L 2834 2853 
Q 2591 2978 2328 3040 
Q 2066 3103 1784 3103 
Q 1356 3103 1142 2972 
Q 928 2841 928 2578 
Q 928 2378 1081 2264 
Q 1234 2150 1697 2047 
L 1894 2003 
Q 2506 1872 2764 1633 
Q 3022 1394 3022 966 
Q 3022 478 2636 193 
Q 2250 -91 1575 -91 
Q 1294 -91 989 -36 
Q 684 19 347 128 
L 347 722 
Q 666 556 975 473 
Q 1284 391 1588 391 
Q 1994 391 2212 530 
Q 2431 669 2431 922 
Q 2431 1156 2273 1281 
Q 2116 1406 1581 1522 
L 1381 1569 
Q 847 1681 609 1914 
Q 372 2147 372 2553 
Q 372 3047 722 3315 
Q 1072 3584 1716 3584 
Q 2034 3584 2315 3537 
Q 2597 3491 2834 3397 
z
" transform="scale(0.015625)"/>
       <path id="DejaVuSans-5d" d="M 1947 4863 
L 1947 -844 
L 622 -844 
L 622 -397 
L 1369 -397 
L 1369 4416 
L 622 4416 
L 622 4863 
L 1947 4863 
z
" transform="scale(0.015625)"/>
      </defs>
      <use xlink:href="#DejaVuSans-5b"/>
      <use xlink:href="#DejaVuSans-27" x="39.013672"/>
      <use xlink:href="#DejaVuSans-6c" x="66.503906"/>
      <use xlink:href="#DejaVuSans-61" x="94.287109"/>
      <use xlink:href="#DejaVuSans-74" x="155.566406"/>
      <use xlink:href="#DejaVuSans-65" x="194.775391"/>
      <use xlink:href="#DejaVuSans-6e" x="256.298828"/>
      <use xlink:href="#DejaVuSans-63" x="319.677734"/>
      <use xlink:href="#DejaVuSans-79" x="374.658203"/>
      <use xlink:href="#DejaVuSans-27" x="433.837891"/>
      <use xlink:href="#DejaVuSans-2c" x="461.328125"/>
      <use xlink:href="#DejaVuSans-20" x="493.115234"/>
      <use xlink:href="#DejaVuSans-27" x="524.902344"/>
      <use xlink:href="#DejaVuSans-63" x="552.392578"/>
      <use xlink:href="#DejaVuSans-70" x="607.373047"/>
      <use xlink:href="#DejaVuSans-75" x="670.849609"/>
      <use xlink:href="#DejaVuSans-5f" x="734.228516"/>
      <use xlink:href="#DejaVuSans-75" x="784.228516"/>
      <use xlink:href="#DejaVuSans-73" x="847.607422"/>
      <use xlink:href="#DejaVuSans-65" x="899.707031"/>
      <use xlink:href="#DejaVuSans-27" x="961.230469"/>
      <use xlink:href="#DejaVuSans-5d" x="988.720703"/>
     </g>
    </g>
   </g>
   <g id="text_2">
    <g id="patch_4">
     <path d="M 632.515347 613.686783 
L 661.48015 586.059967 
Q 663.216844 584.403497 661.560374 582.666803 
L 656.216532 577.064155 
Q 654.560062 575.327461 652.823368 576.983931 
L 623.858565 604.610747 
Q 622.121871 606.267217 623.778341 608.003911 
L 629.122183 613.606559 
Q 630.778653 615.343253 632.515347 613.686783 
L 632.515347 613.686783 
z
" clip-path="url(#p6c13ea20f2)" style="fill: none"/>
    </g>
    <g clip-path="url(#p6c13ea20f2)">
     <!-- ['latency'] -->
     <g transform="translate(629.710563 610.746162)rotate(-43.645617)scale(0.08 -0.08)">
      <use xlink:href="#DejaVuSans-5b"/>
      <use xlink:href="#DejaVuSans-27" x="39.013672"/>
      <use xlink:href="#DejaVuSans-6c" x="66.503906"/>
      <use xlink:href="#DejaVuSans-61" x="94.287109"/>
      <use xlink:href="#DejaVuSans-74" x="155.566406"/>
      <use xlink:href="#DejaVuSans-65" x="194.775391"/>
      <use xlink:href="#DejaVuSans-6e" x="256.298828"/>
      <use xlink:href="#DejaVuSans-63" x="319.677734"/>
      <use xlink:href="#DejaVuSans-79" x="374.658203"/>
      <use xlink:href="#DejaVuSans-27" x="433.837891"/>
      <use xlink:href="#DejaVuSans-5d" x="461.328125"/>
     </g>
    </g>
   </g>
   <g id="text_3">
    <g id="patch_5">
     <path d="M 669.401732 807.649328 
L 670.167914 725.435398 
Q 670.19028 723.035502 667.790384 723.013137 
L 659.82573 722.938911 
Q 657.425834 722.916545 657.403469 725.316441 
L 656.637286 807.530371 
Q 656.614921 809.930267 659.014816 809.952633 
L 666.97947 810.026858 
Q 669.379366 810.049224 669.401732 807.649328 
L 669.401732 807.649328 
z
" clip-path="url(#p6c13ea20f2)" style="fill: none"/>
    </g>
    <g clip-path="url(#p6c13ea20f2)">
     <!-- ['latency', 'cpu_use'] -->
     <g transform="translate(665.115668 807.609384)rotate(-89.466054)scale(0.08 -0.08)">
      <use xlink:href="#DejaVuSans-5b"/>
      <use xlink:href="#DejaVuSans-27" x="39.013672"/>
      <use xlink:href="#DejaVuSans-6c" x="66.503906"/>
      <use xlink:href="#DejaVuSans-61" x="94.287109"/>
      <use xlink:href="#DejaVuSans-74" x="155.566406"/>
      <use xlink:href="#DejaVuSans-65" x="194.775391"/>
      <use xlink:href="#DejaVuSans-6e" x="256.298828"/>
      <use xlink:href="#DejaVuSans-63" x="319.677734"/>
      <use xlink:href="#DejaVuSans-79" x="374.658203"/>
      <use xlink:href="#DejaVuSans-27" x="433.837891"/>
      <use xlink:href="#DejaVuSans-2c" x="461.328125"/>
      <use xlink:href="#DejaVuSans-20" x="493.115234"/>
      <use xlink:href="#DejaVuSans-27" x="524.902344"/>
      <use xlink:href="#DejaVuSans-63" x="552.392578"/>
      <use xlink:href="#DejaVuSans-70" x="607.373047"/>
      <use xlink:href="#DejaVuSans-75" x="670.849609"/>
      <use xlink:href="#DejaVuSans-5f" x="734.228516"/>
      <use xlink:href="#DejaVuSans-75" x="784.228516"/>
      <use xlink:href="#DejaVuSans-73" x="847.607422"/>
      <use xlink:href="#DejaVuSans-65" x="899.707031"/>
      <use xlink:href="#DejaVuSans-27" x="961.230469"/>
      <use xlink:href="#DejaVuSans-5d" x="988.720703"/>
     </g>
    </g>
   </g>
   <g id="text_4">
    <g id="patch_6">
     <path d="M 713.137068 295.721263 
L 806.481193 310.52838 
Q 808.851555 310.904389 809.227564 308.534027 
L 810.475444 300.667387 
Q 810.851453 298.297025 808.481091 297.921016 
L 715.136966 283.113899 
Q 712.766604 282.73789 712.390595 285.108252 
L 711.142715 292.974892 
Q 710.766706 295.345254 713.137068 295.721263 
L 713.137068 295.721263 
z
" clip-path="url(#p6c13ea20f2)" style="fill: none"/>
    </g>
    <g clip-path="url(#p6c13ea20f2)">
     <!-- ['latency', 'http_status'] -->
     <g transform="translate(713.808597 291.487945)rotate(-350.986312)scale(0.08 -0.08)">
      <defs>
       <path id="DejaVuSans-68" d="M 3513 2113 
L 3513 0 
L 2938 0 
L 2938 2094 
Q 2938 2591 2744 2837 
Q 2550 3084 2163 3084 
Q 1697 3084 1428 2787 
Q 1159 2491 1159 1978 
L 1159 0 
L 581 0 
L 581 4863 
L 1159 4863 
L 1159 2956 
Q 1366 3272 1645 3428 
Q 1925 3584 2291 3584 
Q 2894 3584 3203 3211 
Q 3513 2838 3513 2113 
z
" transform="scale(0.015625)"/>
      </defs>
      <use xlink:href="#DejaVuSans-5b"/>
      <use xlink:href="#DejaVuSans-27" x="39.013672"/>
      <use xlink:href="#DejaVuSans-6c" x="66.503906"/>
      <use xlink:href="#DejaVuSans-61" x="94.287109"/>
      <use xlink:href="#DejaVuSans-74" x="155.566406"/>
      <use xlink:href="#DejaVuSans-65" x="194.775391"/>
      <use xlink:href="#DejaVuSans-6e" x="256.298828"/>
      <use xlink:href="#DejaVuSans-63" x="319.677734"/>
      <use xlink:href="#DejaVuSans-79" x="374.658203"/>
      <use xlink:href="#DejaVuSans-27" x="433.837891"/>
      <use xlink:href="#DejaVuSans-2c" x="461.328125"/>
      <use xlink:href="#DejaVuSans-20" x="493.115234"/>
      <use xlink:href="#DejaVuSans-27" x="524.902344"/>
      <use xlink:href="#DejaVuSans-68" x="552.392578"/>
      <use xlink:href="#DejaVuSans-74" x="615.771484"/>
      <use xlink:href="#DejaVuSans-74" x="654.980469"/>
      <use xlink:href="#DejaVuSans-70" x="694.189453"/>
      <use xlink:href="#DejaVuSans-5f" x="757.666016"/>
      <use xlink:href="#DejaVuSans-73" x="807.666016"/>
      <use xlink:href="#DejaVuSans-74" x="859.765625"/>
      <use xlink:href="#DejaVuSans-61" x="898.974609"/>
      <use xlink:href="#DejaVuSans-74" x="960.253906"/>
      <use xlink:href="#DejaVuSans-75" x="999.462891"/>
      <use xlink:href="#DejaVuSans-73" x="1062.841797"/>
      <use xlink:href="#DejaVuSans-27" x="1114.941406"/>
      <use xlink:href="#DejaVuSans-5d" x="1142.431641"/>
     </g>
    </g>
   </g>
   <g id="text_5">
    <g id="patch_7">
     <path d="M 625.435789 362.512562 
L 659.348688 450.72986 
Q 660.209866 452.970033 662.450038 452.108855 
L 669.884611 449.250823 
Q 672.124784 448.389645 671.263607 446.149473 
L 637.350707 357.932175 
Q 636.48953 355.692002 634.249357 356.55318 
L 626.814784 359.411212 
Q 624.574612 360.27239 625.435789 362.512562 
L 625.435789 362.512562 
z
" clip-path="url(#p6c13ea20f2)" style="fill: none"/>
    </g>
    <g clip-path="url(#p6c13ea20f2)">
     <!-- ['latency', 'http_status'] -->
     <g transform="translate(629.436598 360.974553)rotate(-291.027988)scale(0.08 -0.08)">
      <use xlink:href="#DejaVuSans-5b"/>
      <use xlink:href="#DejaVuSans-27" x="39.013672"/>
      <use xlink:href="#DejaVuSans-6c" x="66.503906"/>
      <use xlink:href="#DejaVuSans-61" x="94.287109"/>
      <use xlink:href="#DejaVuSans-74" x="155.566406"/>
      <use xlink:href="#DejaVuSans-65" x="194.775391"/>
      <use xlink:href="#DejaVuSans-6e" x="256.298828"/>
      <use xlink:href="#DejaVuSans-63" x="319.677734"/>
      <use xlink:href="#DejaVuSans-79" x="374.658203"/>
      <use xlink:href="#DejaVuSans-27" x="433.837891"/>
      <use xlink:href="#DejaVuSans-2c" x="461.328125"/>
      <use xlink:href="#DejaVuSans-20" x="493.115234"/>
      <use xlink:href="#DejaVuSans-27" x="524.902344"/>
      <use xlink:href="#DejaVuSans-68" x="552.392578"/>
      <use xlink:href="#DejaVuSans-74" x="615.771484"/>
      <use xlink:href="#DejaVuSans-74" x="654.980469"/>
      <use xlink:href="#DejaVuSans-70" x="694.189453"/>
      <use xlink:href="#DejaVuSans-5f" x="757.666016"/>
      <use xlink:href="#DejaVuSans-73" x="807.666016"/>
      <use xlink:href="#DejaVuSans-74" x="859.765625"/>
      <use xlink:href="#DejaVuSans-61" x="898.974609"/>
      <use xlink:href="#DejaVuSans-74" x="960.253906"/>
      <use xlink:href="#DejaVuSans-75" x="999.462891"/>
      <use xlink:href="#DejaVuSans-73" x="1062.841797"/>
      <use xlink:href="#DejaVuSans-27" x="1114.941406"/>
      <use xlink:href="#DejaVuSans-5d" x="1142.431641"/>
     </g>
    </g>
   </g>
   <g id="text_6">
    <g id="patch_8">
     <path d="M 767.631404 295.769956 
L 822.84693 302.639772 
Q 825.228567 302.936091 825.524886 300.554454 
L 826.508295 292.650396 
Q 826.804614 290.268759 824.422977 289.97244 
L 769.207451 283.102624 
Q 766.825814 282.806305 766.529495 285.187942 
L 765.546086 293.092 
Q 765.249767 295.473637 767.631404 295.769956 
L 767.631404 295.769956 
z
" clip-path="url(#p6c13ea20f2)" style="fill: none"/>
    </g>
    <g clip-path="url(#p6c13ea20f2)">
     <!-- ['http_status'] -->
     <g transform="translate(768.160611 291.516501)rotate(-352.907808)scale(0.08 -0.08)">
      <use xlink:href="#DejaVuSans-5b"/>
      <use xlink:href="#DejaVuSans-27" x="39.013672"/>
      <use xlink:href="#DejaVuSans-68" x="66.503906"/>
      <use xlink:href="#DejaVuSans-74" x="129.882812"/>
      <use xlink:href="#DejaVuSans-74" x="169.091797"/>
      <use xlink:href="#DejaVuSans-70" x="208.300781"/>
      <use xlink:href="#DejaVuSans-5f" x="271.777344"/>
      <use xlink:href="#DejaVuSans-73" x="321.777344"/>
      <use xlink:href="#DejaVuSans-74" x="373.876953"/>
      <use xlink:href="#DejaVuSans-61" x="413.085938"/>
      <use xlink:href="#DejaVuSans-74" x="474.365234"/>
      <use xlink:href="#DejaVuSans-75" x="513.574219"/>
      <use xlink:href="#DejaVuSans-73" x="576.953125"/>
      <use xlink:href="#DejaVuSans-27" x="629.052734"/>
      <use xlink:href="#DejaVuSans-5d" x="656.542969"/>
     </g>
    </g>
   </g>
   <g id="text_7">
    <g id="patch_9">
     <path d="M 626.891334 807.693154 
L 628.040546 725.483686 
Q 628.074093 723.08392 625.674327 723.050374 
L 617.710105 722.939041 
Q 615.31034 722.905495 615.276793 725.30526 
L 614.127581 807.514728 
Q 614.094034 809.914494 616.4938 809.94804 
L 624.458022 810.059373 
Q 626.857787 810.092919 626.891334 807.693154 
L 626.891334 807.693154 
z
" clip-path="url(#p6c13ea20f2)" style="fill: none"/>
    </g>
    <g clip-path="url(#p6c13ea20f2)">
     <!-- ['latency', 'cpu_use'] -->
     <g transform="translate(622.605502 807.633242)rotate(-89.19911)scale(0.08 -0.08)">
      <use xlink:href="#DejaVuSans-5b"/>
      <use xlink:href="#DejaVuSans-27" x="39.013672"/>
      <use xlink:href="#DejaVuSans-6c" x="66.503906"/>
      <use xlink:href="#DejaVuSans-61" x="94.287109"/>
      <use xlink:href="#DejaVuSans-74" x="155.566406"/>
      <use xlink:href="#DejaVuSans-65" x="194.775391"/>
      <use xlink:href="#DejaVuSans-6e" x="256.298828"/>
      <use xlink:href="#DejaVuSans-63" x="319.677734"/>
      <use xlink:href="#DejaVuSans-79" x="374.658203"/>
      <use xlink:href="#DejaVuSans-27" x="433.837891"/>
      <use xlink:href="#DejaVuSans-2c" x="461.328125"/>
      <use xlink:href="#DejaVuSans-20" x="493.115234"/>
      <use xlink:href="#DejaVuSans-27" x="524.902344"/>
      <use xlink:href="#DejaVuSans-63" x="552.392578"/>
      <use xlink:href="#DejaVuSans-70" x="607.373047"/>
      <use xlink:href="#DejaVuSans-75" x="670.849609"/>
      <use xlink:href="#DejaVuSans-5f" x="734.228516"/>
      <use xlink:href="#DejaVuSans-75" x="784.228516"/>
      <use xlink:href="#DejaVuSans-73" x="847.607422"/>
      <use xlink:href="#DejaVuSans-65" x="899.707031"/>
      <use xlink:href="#DejaVuSans-27" x="961.230469"/>
      <use xlink:href="#DejaVuSans-5d" x="988.720703"/>
     </g>
    </g>
   </g>
   <g id="patch_10">
    <path d="M 505.463391 370.186491 
Q 467.430406 508.452533 429.693945 645.640579 
" clip-path="url(#p6c13ea20f2)" style="fill: none; stroke: #808080; stroke-linecap: round"/>
    <path d="M 432.683202 642.314268 
L 429.693945 645.640579 
L 428.82645 641.253387 
L 432.683202 642.314268 
z
" clip-path="url(#p6c13ea20f2)" style="fill: #808080; stroke: #808080; stroke-linecap: round"/>
   </g>
   <g id="patch_11">
    <path d="M 508.761328 370.43706 
Q 516.281753 435.141581 523.673102 498.735545 
" clip-path="url(#p6c13ea20f2)" style="fill: none; stroke: #808080; stroke-linecap: round"/>
    <path d="M 525.197928 494.531392 
L 523.673102 498.735545 
L 521.224675 494.993192 
L 525.197928 494.531392 
z
" clip-path="url(#p6c13ea20f2)" style="fill: #808080; stroke: #808080; stroke-linecap: round"/>
   </g>
   <g id="patch_12">
    <path d="M 429.966668 663.243878 
Q 478.507816 801.688128 526.67904 939.077317 
" clip-path="url(#p6c13ea20f2)" style="fill: none; stroke: #808080; stroke-linecap: round"/>
    <path d="M 527.24291 934.640871 
L 526.67904 939.077317 
L 523.468206 935.964353 
L 527.24291 934.640871 
z
" clip-path="url(#p6c13ea20f2)" style="fill: #808080; stroke: #808080; stroke-linecap: round"/>
   </g>
   <g id="patch_13">
    <path d="M 524.90296 517.11229 
Q 527.358442 728.377926 529.80093 938.525603 
" clip-path="url(#p6c13ea20f2)" style="fill: none; stroke: #808080; stroke-linecap: round"/>
    <path d="M 531.754307 934.50263 
L 529.80093 938.525603 
L 527.754577 934.549117 
L 531.754307 934.50263 
z
" clip-path="url(#p6c13ea20f2)" style="fill: #808080; stroke: #808080; stroke-linecap: round"/>
   </g>
   <g id="patch_14">
    <path d="M 652.897039 369.369908 
Q 690.101146 435.14349 726.754806 499.943929 
" clip-path="url(#p6c13ea20f2)" style="fill: none; stroke: #808080; stroke-linecap: round"/>
    <path d="M 726.526276 495.477636 
L 726.754806 499.943929 
L 723.044653 497.446977 
L 726.526276 495.477636 
z
" clip-path="url(#p6c13ea20f2)" style="fill: #808080; stroke: #808080; stroke-linecap: round"/>
   </g>
   <g id="patch_15">
    <path d="M 618.383111 810.005241 
Q 599.498887 874.995959 580.926626 938.913047 
" clip-path="url(#p6c13ea20f2)" style="fill: none; stroke: #808080; stroke-linecap: round"/>
    <path d="M 583.963302 935.62997 
L 580.926626 938.913047 
L 580.12217 934.51386 
L 583.963302 935.62997 
z
" clip-path="url(#p6c13ea20f2)" style="fill: #808080; stroke: #808080; stroke-linecap: round"/>
   </g>
   <g id="patch_16">
    <path d="M 620.800046 810.345298 
Q 620.800046 874.995176 620.800046 938.527019 
" clip-path="url(#p6c13ea20f2)" style="fill: none; stroke: #808080; stroke-linecap: round"/>
    <path d="M 622.800046 934.527019 
L 620.800046 938.527019 
L 618.800046 934.527019 
L 622.800046 934.527019 
z
" clip-path="url(#p6c13ea20f2)" style="fill: #808080; stroke: #808080; stroke-linecap: round"/>
   </g>
   <g id="patch_17">
    <path d="M 616.236081 809.04995 
Q 575.35798 874.995302 535.068932 939.990382 
" clip-path="url(#p6c13ea20f2)" style="fill: none; stroke: #808080; stroke-linecap: round"/>
    <path d="M 538.87629 937.644316 
L 535.068932 939.990382 
L 535.476494 935.536856 
L 538.87629 937.644316 
z
" clip-path="url(#p6c13ea20f2)" style="fill: #808080; stroke: #808080; stroke-linecap: round"/>
   </g>
   <g id="patch_18">
    <path d="M 623.187322 810.01419 
Q 641.81734 874.996482 660.139238 938.904036 
" clip-path="url(#p6c13ea20f2)" style="fill: none; stroke: #ff0000; stroke-linecap: round"/>
    <path d="M 660.959422 934.507754 
L 660.139238 938.904036 
L 657.114322 935.61012 
L 660.959422 934.507754 
z
" clip-path="url(#p6c13ea20f2)" style="fill: #ff0000; stroke: #ff0000; stroke-linecap: round"/>
   </g>
   <g id="patch_19">
    <path d="M 331.98122 368.627152 
Q 279.413075 435.141366 227.538175 500.77842 
" clip-path="url(#p6c13ea20f2)" style="fill: none; stroke: #808080; stroke-linecap: round"/>
    <path d="M 231.587518 498.880311 
L 227.538175 500.77842 
L 228.449294 496.40008 
L 231.587518 498.880311 
z
" clip-path="url(#p6c13ea20f2)" style="fill: #808080; stroke: #808080; stroke-linecap: round"/>
   </g>
   <g id="patch_20">
    <path d="M 339.885938 370.114901 
Q 359.788929 435.143548 379.364712 499.103113 
" clip-path="url(#p6c13ea20f2)" style="fill: none; stroke: #808080; stroke-linecap: round"/>
    <path d="M 380.106486 494.692924 
L 379.364712 499.103113 
L 376.281625 495.86358 
L 380.106486 494.692924 
z
" clip-path="url(#p6c13ea20f2)" style="fill: #808080; stroke: #808080; stroke-linecap: round"/>
   </g>
   <g id="patch_21">
    <path d="M 339.885938 370.114901 
Q 382.225611 508.450473 424.238076 645.716963 
" clip-path="url(#p6c13ea20f2)" style="fill: none; stroke: #808080; stroke-linecap: round"/>
    <path d="M 424.979851 641.306774 
L 424.238076 645.716963 
L 421.154989 642.47743 
L 424.979851 641.306774 
z
" clip-path="url(#p6c13ea20f2)" style="fill: #808080; stroke: #808080; stroke-linecap: round"/>
   </g>
   <g id="patch_22">
    <path d="M 335.546219 370.302827 
Q 321.73009 435.141951 308.146964 498.887591 
" clip-path="url(#p6c13ea20f2)" style="fill: none; stroke: #808080; stroke-linecap: round"/>
    <path d="M 310.936668 495.392229 
L 308.146964 498.887591 
L 307.024497 494.558611 
L 310.936668 495.392229 
z
" clip-path="url(#p6c13ea20f2)" style="fill: #808080; stroke: #808080; stroke-linecap: round"/>
   </g>
   <g id="patch_23">
    <path d="M 228.524578 513.477933 
Q 324.28707 581.759759 419.139241 649.392496 
" clip-path="url(#p6c13ea20f2)" style="fill: none; stroke: #808080; stroke-linecap: round"/>
    <path d="M 417.043504 645.441815 
L 419.139241 649.392496 
L 414.721253 648.698677 
L 417.043504 645.441815 
z
" clip-path="url(#p6c13ea20f2)" style="fill: #808080; stroke: #808080; stroke-linecap: round"/>
   </g>
   <g id="patch_24">
    <path d="M 221.47438 517.108935 
Q 221.47438 581.758812 221.47438 645.290655 
" clip-path="url(#p6c13ea20f2)" style="fill: none; stroke: #808080; stroke-linecap: round"/>
    <path d="M 223.47438 641.290655 
L 221.47438 645.290655 
L 219.47438 641.290655 
L 223.47438 641.290655 
z
" clip-path="url(#p6c13ea20f2)" style="fill: #808080; stroke: #808080; stroke-linecap: round"/>
   </g>
   <g id="patch_25">
    <path d="M 587.572949 370.374418 
Q 598.362735 435.142017 608.968796 498.806782 
" clip-path="url(#p6c13ea20f2)" style="fill: none; stroke: #808080; stroke-linecap: round"/>
    <path d="M 610.284297 494.532504 
L 608.968796 498.806782 
L 606.338674 495.189814 
L 610.284297 494.532504 
z
" clip-path="url(#p6c13ea20f2)" style="fill: #808080; stroke: #808080; stroke-linecap: round"/>
   </g>
   <g id="patch_26">
    <path d="M 585.323206 370.454957 
Q 558.032124 655.070751 530.847759 938.573616 
" clip-path="url(#p6c13ea20f2)" style="fill: none; stroke: #808080; stroke-linecap: round"/>
    <path d="M 533.220426 934.782778 
L 530.847759 938.573616 
L 529.238689 934.400979 
L 533.220426 934.782778 
z
" clip-path="url(#p6c13ea20f2)" style="fill: #808080; stroke: #808080; stroke-linecap: round"/>
   </g>
   <g id="patch_27">
    <path d="M 590.209858 369.481768 
Q 625.060969 435.143076 659.387918 499.816834 
" clip-path="url(#p6c13ea20f2)" style="fill: none; stroke: #808080; stroke-linecap: round"/>
    <path d="M 659.2792 495.34602 
L 659.387918 499.816834 
L 655.746036 497.22132 
L 659.2792 495.34602 
z
" clip-path="url(#p6c13ea20f2)" style="fill: #808080; stroke: #808080; stroke-linecap: round"/>
   </g>
   <g id="patch_28">
    <path d="M 656.608198 513.008118 
Q 545.536681 581.759291 435.415817 649.922027 
" clip-path="url(#p6c13ea20f2)" style="fill: none; stroke: #808080; stroke-linecap: round"/>
    <path d="M 439.869606 649.517352 
L 435.415817 649.922027 
L 437.764351 646.116191 
L 439.869606 649.517352 
z
" clip-path="url(#p6c13ea20f2)" style="fill: #808080; stroke: #808080; stroke-linecap: round"/>
   </g>
   <g id="patch_29">
    <path d="M 665.711677 516.929957 
Q 679.022808 581.75645 692.109059 645.487759 
" clip-path="url(#p6c13ea20f2)" style="fill: none; stroke: #808080; stroke-linecap: round"/>
    <path d="M 693.263631 641.167231 
L 692.109059 645.487759 
L 689.34538 641.971784 
L 693.263631 641.167231 
z
" clip-path="url(#p6c13ea20f2)" style="fill: #808080; stroke: #808080; stroke-linecap: round"/>
   </g>
   <g id="patch_30">
    <path d="M 661.553699 516.768878 
Q 642.669475 581.759595 624.097214 645.676684 
" clip-path="url(#p6c13ea20f2)" style="fill: none; stroke: #ff0000; stroke-linecap: round"/>
    <path d="M 627.13389 642.393606 
L 624.097214 645.676684 
L 623.292758 641.277496 
L 627.13389 642.393606 
z
" clip-path="url(#p6c13ea20f2)" style="fill: #ff0000; stroke: #ff0000; stroke-linecap: round"/>
   </g>
   <g id="patch_31">
    <path d="M 663.948263 517.11229 
Q 663.402601 728.377926 662.859826 938.525532 
" clip-path="url(#p6c13ea20f2)" style="fill: none; stroke: #ff0000; stroke-linecap: round"/>
    <path d="M 664.870151 934.530711 
L 662.859826 938.525532 
L 660.870164 934.520379 
L 664.870151 934.530711 
z
" clip-path="url(#p6c13ea20f2)" style="fill: #ff0000; stroke: #ff0000; stroke-linecap: round"/>
   </g>
   <g id="patch_32">
    <path d="M 627.109267 221.807621 
Q 570.244324 288.524448 514.104626 354.390381 
" clip-path="url(#p6c13ea20f2)" style="fill: none; stroke: #808080; stroke-linecap: round"/>
    <path d="M 518.221466 352.643488 
L 514.104626 354.390381 
L 515.177216 350.048774 
L 518.221466 352.643488 
z
" clip-path="url(#p6c13ea20f2)" style="fill: #808080; stroke: #808080; stroke-linecap: round"/>
   </g>
   <g id="patch_33">
    <path d="M 637.208374 222.626442 
Q 677.035031 288.522996 716.283384 353.462699 
" clip-path="url(#p6c13ea20f2)" style="fill: none; stroke: #808080; stroke-linecap: round"/>
    <path d="M 715.926051 349.004862 
L 716.283384 353.462699 
L 712.502714 351.073863 
L 715.926051 349.004862 
z
" clip-path="url(#p6c13ea20f2)" style="fill: #808080; stroke: #808080; stroke-linecap: round"/>
   </g>
   <g id="patch_34">
    <path d="M 633.663119 223.827827 
Q 640.681271 288.523941 647.578848 352.108543 
" clip-path="url(#p6c13ea20f2)" style="fill: none; stroke: #808080; stroke-linecap: round"/>
    <path d="M 649.135799 347.91618 
L 647.578848 352.108543 
L 645.159128 348.347564 
L 649.135799 347.91618 
z
" clip-path="url(#p6c13ea20f2)" style="fill: #808080; stroke: #808080; stroke-linecap: round"/>
   </g>
   <g id="patch_35">
    <path d="M 624.969778 219.065913 
Q 485.037845 288.524661 346.107359 357.486315 
" clip-path="url(#p6c13ea20f2)" style="fill: none; stroke: #808080; stroke-linecap: round"/>
    <path d="M 350.579476 357.499302 
L 346.107359 357.486315 
L 348.801019 353.916413 
L 350.579476 357.499302 
z
" clip-path="url(#p6c13ea20f2)" style="fill: #808080; stroke: #808080; stroke-linecap: round"/>
   </g>
   <g id="patch_36">
    <path d="M 638.837982 221.351229 
Q 705.709588 288.523447 771.792399 354.903324 
" clip-path="url(#p6c13ea20f2)" style="fill: none; stroke: #808080; stroke-linecap: round"/>
    <path d="M 770.387704 350.657523 
L 771.792399 354.903324 
L 767.552941 353.4796 
L 770.387704 350.657523 
z
" clip-path="url(#p6c13ea20f2)" style="fill: #808080; stroke: #808080; stroke-linecap: round"/>
   </g>
   <g id="patch_37">
    <path d="M 639.719228 220.326584 
Q 732.976219 288.524228 825.330743 356.061908 
" clip-path="url(#p6c13ea20f2)" style="fill: none; stroke: #808080; stroke-linecap: round"/>
    <path d="M 823.282554 352.086368 
L 825.330743 356.061908 
L 820.921398 355.315136 
L 823.282554 352.086368 
z
" clip-path="url(#p6c13ea20f2)" style="fill: #808080; stroke: #808080; stroke-linecap: round"/>
   </g>
   <g id="patch_38">
    <path d="M 630.106146 223.469872 
Q 609.439311 288.523807 589.110991 352.512186 
" clip-path="url(#p6c13ea20f2)" style="fill: none; stroke: #808080; stroke-linecap: round"/>
    <path d="M 592.228218 349.305491 
L 589.110991 352.512186 
L 588.415971 348.094387 
L 592.228218 349.305491 
z
" clip-path="url(#p6c13ea20f2)" style="fill: #808080; stroke: #808080; stroke-linecap: round"/>
   </g>
   <g id="patch_39">
    <path d="M 625.678525 220.24157 
Q 427.102815 361.83184 229.437428 502.773024 
" clip-path="url(#p6c13ea20f2)" style="fill: none; stroke: #808080; stroke-linecap: round"/>
    <path d="M 233.855418 502.079216 
L 229.437428 502.773024 
L 231.533176 498.822347 
L 233.855418 502.079216 
z
" clip-path="url(#p6c13ea20f2)" style="fill: #808080; stroke: #808080; stroke-linecap: round"/>
   </g>
   <g id="patch_40">
    <path d="M 629.06243 223.057106 
Q 529.915812 435.139222 431.24268 646.208516 
" clip-path="url(#p6c13ea20f2)" style="fill: none; stroke: #808080; stroke-linecap: round"/>
    <path d="M 434.748469 643.431928 
L 431.24268 646.208516 
L 431.124883 641.737932 
L 434.748469 643.431928 
z
" clip-path="url(#p6c13ea20f2)" style="fill: #808080; stroke: #808080; stroke-linecap: round"/>
   </g>
   <g id="patch_41">
    <path d="M 629.736476 223.344588 
Q 578.765676 361.832321 528.181046 499.270829 
" clip-path="url(#p6c13ea20f2)" style="fill: none; stroke: #808080; stroke-linecap: round"/>
    <path d="M 531.43956 496.207811 
L 528.181046 499.270829 
L 527.68574 494.826206 
L 531.43956 496.207811 
z
" clip-path="url(#p6c13ea20f2)" style="fill: #808080; stroke: #808080; stroke-linecap: round"/>
   </g>
   <g id="patch_42">
    <path d="M 640.245194 219.516712 
Q 760.809329 288.523779 880.403132 356.97546 
" clip-path="url(#p6c13ea20f2)" style="fill: none; stroke: #ff0000; stroke-linecap: round"/>
    <path d="M 877.925073 353.252662 
L 880.403132 356.97546 
L 875.938059 356.724229 
L 877.925073 353.252662 
z
" clip-path="url(#p6c13ea20f2)" style="fill: #ff0000; stroke: #ff0000; stroke-linecap: round"/>
   </g>
   <g id="patch_43">
    <path d="M 633.646434 223.827827 
Q 648.349757 361.83328 662.934632 498.726991 
" clip-path="url(#p6c13ea20f2)" style="fill: none; stroke: #ff0000; stroke-linecap: round"/>
    <path d="M 664.499609 494.537618 
L 662.934632 498.726991 
L 660.52212 494.961386 
L 664.499609 494.537618 
z
" clip-path="url(#p6c13ea20f2)" style="fill: #ff0000; stroke: #ff0000; stroke-linecap: round"/>
   </g>
   <g id="patch_44">
    <path d="M 640.630057 218.761651 
Q 796.027941 288.523973 950.405857 357.828404 
" clip-path="url(#p6c13ea20f2)" style="fill: none; stroke: #ff0000; stroke-linecap: round"/>
    <path d="M 947.575808 354.365627 
L 950.405857 357.828404 
L 945.937606 358.014777 
L 947.575808 354.365627 
z
" clip-path="url(#p6c13ea20f2)" style="fill: #ff0000; stroke: #ff0000; stroke-linecap: round"/>
   </g>
   <g id="patch_45">
    <path d="M 635.496211 223.425128 
Q 682.148354 361.834597 728.443393 499.184596 
" clip-path="url(#p6c13ea20f2)" style="fill: none; stroke: #808080; stroke-linecap: round"/>
    <path d="M 729.061018 494.755314 
L 728.443393 499.184596 
L 725.270542 496.032928 
L 729.061018 494.755314 
z
" clip-path="url(#p6c13ea20f2)" style="fill: #808080; stroke: #808080; stroke-linecap: round"/>
   </g>
   <g id="patch_46">
    <path d="M 462.445473 516.840469 
Q 445.845666 581.759578 429.52283 645.595504 
" clip-path="url(#p6c13ea20f2)" style="fill: none; stroke: #808080; stroke-linecap: round"/>
    <path d="M 432.451406 642.215646 
L 429.52283 645.595504 
L 428.576089 641.224728 
L 432.451406 642.215646 
z
" clip-path="url(#p6c13ea20f2)" style="fill: #808080; stroke: #808080; stroke-linecap: round"/>
   </g>
   <g id="patch_47">
    <path d="M 621.334537 663.727116 
Q 621.084068 728.376994 620.83793 791.908845 
" clip-path="url(#p6c13ea20f2)" style="fill: none; stroke: #ff0000; stroke-linecap: round"/>
    <path d="M 622.853412 787.916624 
L 620.83793 791.908845 
L 618.853442 787.901127 
L 622.853412 787.916624 
z
" clip-path="url(#p6c13ea20f2)" style="fill: #ff0000; stroke: #ff0000; stroke-linecap: round"/>
   </g>
   <g id="text_8">
    <g id="patch_48">
     <path d="M 472.80253 509.087438 
L 474.152501 504.179721 
Q 474.789029 501.86567 472.474978 501.229142 
L 465.009754 499.175675 
Q 462.695703 498.539146 462.059175 500.853197 
L 460.709204 505.760913 
Q 460.072675 508.074964 462.386726 508.711493 
L 469.851951 510.76496 
Q 472.166002 511.401488 472.80253 509.087438 
L 472.80253 509.087438 
z
" clip-path="url(#p6c13ea20f2)" style="fill: none"/>
    </g>
    <g clip-path="url(#p6c13ea20f2)">
     <!-- 6 -->
     <g transform="translate(468.884312 508.009649)rotate(-74.619964)scale(0.08 -0.08)">
      <defs>
       <path id="DejaVuSans-36" d="M 2113 2584 
Q 1688 2584 1439 2293 
Q 1191 2003 1191 1497 
Q 1191 994 1439 701 
Q 1688 409 2113 409 
Q 2538 409 2786 701 
Q 3034 994 3034 1497 
Q 3034 2003 2786 2293 
Q 2538 2584 2113 2584 
z
M 3366 4563 
L 3366 3988 
Q 3128 4100 2886 4159 
Q 2644 4219 2406 4219 
Q 1781 4219 1451 3797 
Q 1122 3375 1075 2522 
Q 1259 2794 1537 2939 
Q 1816 3084 2150 3084 
Q 2853 3084 3261 2657 
Q 3669 2231 3669 1497 
Q 3669 778 3244 343 
Q 2819 -91 2113 -91 
Q 1303 -91 875 529 
Q 447 1150 447 2328 
Q 447 3434 972 4092 
Q 1497 4750 2381 4750 
Q 2619 4750 2861 4703 
Q 3103 4656 3366 4563 
z
" transform="scale(0.015625)"/>
      </defs>
      <use xlink:href="#DejaVuSans-36"/>
     </g>
    </g>
   </g>
   <g id="text_9">
    <g id="patch_49">
     <path d="M 509.758645 430.362934 
L 510.346285 435.418898 
Q 510.623365 437.80285 513.007317 437.52577 
L 520.698045 436.631898 
Q 523.081997 436.354818 522.804917 433.970866 
L 522.217277 428.914902 
Q 521.940196 426.53095 519.556245 426.80803 
L 511.865516 427.701902 
Q 509.481565 427.978982 509.758645 430.362934 
L 509.758645 430.362934 
z
" clip-path="url(#p6c13ea20f2)" style="fill: none"/>
    </g>
    <g clip-path="url(#p6c13ea20f2)">
     <!-- 3 -->
     <g transform="translate(513.795221 429.893774)rotate(-276.629583)scale(0.08 -0.08)">
      <defs>
       <path id="DejaVuSans-33" d="M 2597 2516 
Q 3050 2419 3304 2112 
Q 3559 1806 3559 1356 
Q 3559 666 3084 287 
Q 2609 -91 1734 -91 
Q 1441 -91 1130 -33 
Q 819 25 488 141 
L 488 750 
Q 750 597 1062 519 
Q 1375 441 1716 441 
Q 2309 441 2620 675 
Q 2931 909 2931 1356 
Q 2931 1769 2642 2001 
Q 2353 2234 1838 2234 
L 1294 2234 
L 1294 2753 
L 1863 2753 
Q 2328 2753 2575 2939 
Q 2822 3125 2822 3475 
Q 2822 3834 2567 4026 
Q 2313 4219 1838 4219 
Q 1578 4219 1281 4162 
Q 984 4106 628 3988 
L 628 4550 
Q 988 4650 1302 4700 
Q 1616 4750 1894 4750 
Q 2613 4750 3031 4423 
Q 3450 4097 3450 3541 
Q 3450 3153 3228 2886 
Q 3006 2619 2597 2516 
z
" transform="scale(0.015625)"/>
      </defs>
      <use xlink:href="#DejaVuSans-33"/>
     </g>
    </g>
   </g>
   <g id="text_10">
    <g id="patch_50">
     <path d="M 470.905356 792.874739 
L 474.273618 802.481362 
Q 475.067708 804.746185 477.33253 803.952095 
L 484.638943 801.39033 
Q 486.903766 800.596241 486.109677 798.331418 
L 482.741414 788.724795 
Q 481.947325 786.459972 479.682502 787.254062 
L 472.37609 789.815827 
Q 470.111267 790.609916 470.905356 792.874739 
L 470.905356 792.874739 
z
" clip-path="url(#p6c13ea20f2)" style="fill: none"/>
    </g>
    <g clip-path="url(#p6c13ea20f2)">
     <!-- 24 -->
     <g transform="translate(474.74022 791.530164)rotate(-289.321622)scale(0.08 -0.08)">
      <defs>
       <path id="DejaVuSans-32" d="M 1228 531 
L 3431 531 
L 3431 0 
L 469 0 
L 469 531 
Q 828 903 1448 1529 
Q 2069 2156 2228 2338 
Q 2531 2678 2651 2914 
Q 2772 3150 2772 3378 
Q 2772 3750 2511 3984 
Q 2250 4219 1831 4219 
Q 1534 4219 1204 4116 
Q 875 4013 500 3803 
L 500 4441 
Q 881 4594 1212 4672 
Q 1544 4750 1819 4750 
Q 2544 4750 2975 4387 
Q 3406 4025 3406 3419 
Q 3406 3131 3298 2873 
Q 3191 2616 2906 2266 
Q 2828 2175 2409 1742 
Q 1991 1309 1228 531 
z
" transform="scale(0.015625)"/>
       <path id="DejaVuSans-34" d="M 2419 4116 
L 825 1625 
L 2419 1625 
L 2419 4116 
z
M 2253 4666 
L 3047 4666 
L 3047 1625 
L 3713 1625 
L 3713 1100 
L 3047 1100 
L 3047 0 
L 2419 0 
L 2419 1100 
L 313 1100 
L 313 1709 
L 2253 4666 
z
" transform="scale(0.015625)"/>
      </defs>
      <use xlink:href="#DejaVuSans-32"/>
      <use xlink:href="#DejaVuSans-34" x="63.623047"/>
     </g>
    </g>
   </g>
   <g id="text_11">
    <g id="patch_51">
     <path d="M 521.028463 718.226762 
L 521.146774 728.406074 
Q 521.174667 730.805912 523.574505 730.77802 
L 531.316482 730.688037 
Q 533.71632 730.660144 533.688427 728.260306 
L 533.570116 718.080994 
Q 533.542223 715.681156 531.142385 715.709049 
L 523.400408 715.799031 
Q 521.00057 715.826924 521.028463 718.226762 
L 521.028463 718.226762 
z
" clip-path="url(#p6c13ea20f2)" style="fill: none"/>
    </g>
    <g clip-path="url(#p6c13ea20f2)">
     <!-- 18 -->
     <g transform="translate(525.091938 718.179533)rotate(-270.665903)scale(0.08 -0.08)">
      <defs>
       <path id="DejaVuSans-31" d="M 794 531 
L 1825 531 
L 1825 4091 
L 703 3866 
L 703 4441 
L 1819 4666 
L 2450 4666 
L 2450 531 
L 3481 531 
L 3481 0 
L 794 0 
L 794 531 
z
" transform="scale(0.015625)"/>
       <path id="DejaVuSans-38" d="M 2034 2216 
Q 1584 2216 1326 1975 
Q 1069 1734 1069 1313 
Q 1069 891 1326 650 
Q 1584 409 2034 409 
Q 2484 409 2743 651 
Q 3003 894 3003 1313 
Q 3003 1734 2745 1975 
Q 2488 2216 2034 2216 
z
M 1403 2484 
Q 997 2584 770 2862 
Q 544 3141 544 3541 
Q 544 4100 942 4425 
Q 1341 4750 2034 4750 
Q 2731 4750 3128 4425 
Q 3525 4100 3525 3541 
Q 3525 3141 3298 2862 
Q 3072 2584 2669 2484 
Q 3125 2378 3379 2068 
Q 3634 1759 3634 1313 
Q 3634 634 3220 271 
Q 2806 -91 2034 -91 
Q 1263 -91 848 271 
Q 434 634 434 1313 
Q 434 1759 690 2068 
Q 947 2378 1403 2484 
z
M 1172 3481 
Q 1172 3119 1398 2916 
Q 1625 2713 2034 2713 
Q 2441 2713 2670 2916 
Q 2900 3119 2900 3481 
Q 2900 3844 2670 4047 
Q 2441 4250 2034 4250 
Q 1625 4250 1398 4047 
Q 1172 3844 1172 3481 
z
" transform="scale(0.015625)"/>
      </defs>
      <use xlink:href="#DejaVuSans-31"/>
      <use xlink:href="#DejaVuSans-38" x="63.623047"/>
     </g>
    </g>
   </g>
   <g id="text_12">
    <g id="patch_52">
     <path d="M 682.135683 427.462694 
L 687.147657 436.323423 
Q 688.329262 438.412397 690.418235 437.230792 
L 697.15735 433.418885 
Q 699.246324 432.23728 698.064719 430.148306 
L 693.052744 421.287578 
Q 691.871139 419.198604 689.782166 420.380209 
L 683.043051 424.192116 
Q 680.954078 425.373721 682.135683 427.462694 
L 682.135683 427.462694 
z
" clip-path="url(#p6c13ea20f2)" style="fill: none"/>
    </g>
    <g clip-path="url(#p6c13ea20f2)">
     <!-- 25 -->
     <g transform="translate(685.672793 425.461966)rotate(-299.494197)scale(0.08 -0.08)">
      <defs>
       <path id="DejaVuSans-35" d="M 691 4666 
L 3169 4666 
L 3169 4134 
L 1269 4134 
L 1269 2991 
Q 1406 3038 1543 3061 
Q 1681 3084 1819 3084 
Q 2600 3084 3056 2656 
Q 3513 2228 3513 1497 
Q 3513 744 3044 326 
Q 2575 -91 1722 -91 
Q 1428 -91 1123 -41 
Q 819 9 494 109 
L 494 744 
Q 775 591 1075 516 
Q 1375 441 1709 441 
Q 2250 441 2565 725 
Q 2881 1009 2881 1497 
Q 2881 1984 2565 2268 
Q 2250 2553 1709 2553 
Q 1456 2553 1204 2497 
Q 953 2441 691 2322 
L 691 4666 
z
" transform="scale(0.015625)"/>
      </defs>
      <use xlink:href="#DejaVuSans-32"/>
      <use xlink:href="#DejaVuSans-35" x="63.623047"/>
     </g>
    </g>
   </g>
   <g id="text_13">
    <g id="patch_53">
     <path d="M 604.81082 875.66603 
L 606.23107 870.778189 
Q 606.900736 868.473509 604.596057 867.803843 
L 597.161065 865.643472 
Q 594.856385 864.973806 594.186719 867.278486 
L 592.766469 872.166327 
Q 592.096803 874.471006 594.401482 875.140672 
L 601.836474 877.301043 
Q 604.141154 877.970709 604.81082 875.66603 
L 604.81082 875.66603 
z
" clip-path="url(#p6c13ea20f2)" style="fill: none"/>
    </g>
    <g clip-path="url(#p6c13ea20f2)">
     <!-- 9 -->
     <g transform="translate(600.908469 874.532132)rotate(-73.797825)scale(0.08 -0.08)">
      <defs>
       <path id="DejaVuSans-39" d="M 703 97 
L 703 672 
Q 941 559 1184 500 
Q 1428 441 1663 441 
Q 2288 441 2617 861 
Q 2947 1281 2994 2138 
Q 2813 1869 2534 1725 
Q 2256 1581 1919 1581 
Q 1219 1581 811 2004 
Q 403 2428 403 3163 
Q 403 3881 828 4315 
Q 1253 4750 1959 4750 
Q 2769 4750 3195 4129 
Q 3622 3509 3622 2328 
Q 3622 1225 3098 567 
Q 2575 -91 1691 -91 
Q 1453 -91 1209 -44 
Q 966 3 703 97 
z
M 1959 2075 
Q 2384 2075 2632 2365 
Q 2881 2656 2881 3163 
Q 2881 3666 2632 3958 
Q 2384 4250 1959 4250 
Q 1534 4250 1286 3958 
Q 1038 3666 1038 3163 
Q 1038 2656 1286 2365 
Q 1534 2075 1959 2075 
z
" transform="scale(0.015625)"/>
      </defs>
      <use xlink:href="#DejaVuSans-39"/>
     </g>
    </g>
   </g>
   <g id="text_14">
    <g id="patch_54">
     <path d="M 614.528796 869.906364 
L 614.528796 874.996364 
Q 614.528796 877.396364 616.928796 877.396364 
L 624.671296 877.396364 
Q 627.071296 877.396364 627.071296 874.996364 
L 627.071296 869.906364 
Q 627.071296 867.506364 624.671296 867.506364 
L 616.928796 867.506364 
Q 614.528796 867.506364 614.528796 869.906364 
L 614.528796 869.906364 
z
" clip-path="url(#p6c13ea20f2)" style="fill: none"/>
    </g>
    <g clip-path="url(#p6c13ea20f2)">
     <!-- 9 -->
     <g transform="translate(618.592546 869.906364)rotate(-270)scale(0.08 -0.08)">
      <use xlink:href="#DejaVuSans-39"/>
     </g>
    </g>
   </g>
   <g id="text_15">
    <g id="patch_55">
     <path d="M 576.66495 876.26084 
L 584.710179 863.282119 
Q 585.974655 861.242241 583.934778 859.977765 
L 577.354048 855.898513 
Q 575.31417 854.634037 574.049694 856.673914 
L 566.004465 869.652635 
Q 564.739989 871.692513 566.779867 872.956989 
L 573.360597 877.036241 
Q 575.400474 878.300717 576.66495 876.26084 
L 576.66495 876.26084 
z
" clip-path="url(#p6c13ea20f2)" style="fill: none"/>
    </g>
    <g clip-path="url(#p6c13ea20f2)">
     <!-- 113 -->
     <g transform="translate(573.21097 874.119792)rotate(-58.206119)scale(0.08 -0.08)">
      <use xlink:href="#DejaVuSans-31"/>
      <use xlink:href="#DejaVuSans-31" x="63.623047"/>
      <use xlink:href="#DejaVuSans-33" x="127.246094"/>
     </g>
    </g>
   </g>
   <g id="text_16">
    <g id="patch_56">
     <path d="M 634.386151 865.872005 
L 637.191672 875.657783 
Q 637.853092 877.964843 640.160151 877.303423 
L 647.602822 875.169656 
Q 649.909882 874.508236 649.248462 872.201177 
L 646.44294 862.415399 
Q 645.781521 860.108339 643.474461 860.769759 
L 636.031791 862.903526 
Q 633.724731 863.564946 634.386151 865.872005 
L 634.386151 865.872005 
z
" clip-path="url(#p6c13ea20f2)" style="fill: none"/>
    </g>
    <g clip-path="url(#p6c13ea20f2)">
     <!-- 10 -->
     <g transform="translate(638.292531 864.75207)rotate(-285.997267)scale(0.08 -0.08)">
      <defs>
       <path id="DejaVuSans-30" d="M 2034 4250 
Q 1547 4250 1301 3770 
Q 1056 3291 1056 2328 
Q 1056 1369 1301 889 
Q 1547 409 2034 409 
Q 2525 409 2770 889 
Q 3016 1369 3016 2328 
Q 3016 3291 2770 3770 
Q 2525 4250 2034 4250 
z
M 2034 4750 
Q 2819 4750 3233 4129 
Q 3647 3509 3647 2328 
Q 3647 1150 3233 529 
Q 2819 -91 2034 -91 
Q 1250 -91 836 529 
Q 422 1150 422 2328 
Q 422 3509 836 4129 
Q 1250 4750 2034 4750 
z
" transform="scale(0.015625)"/>
      </defs>
      <use xlink:href="#DejaVuSans-31"/>
      <use xlink:href="#DejaVuSans-30" x="63.623047"/>
     </g>
    </g>
   </g>
   <g id="text_17">
    <g id="patch_57">
     <path d="M 282.754818 436.629957 
L 285.910912 432.636566 
Q 287.399051 430.753632 285.516116 429.265493 
L 279.441691 424.464695 
Q 277.558756 422.976556 276.070617 424.859491 
L 272.914523 428.852882 
Q 271.426384 430.735816 273.309319 432.223955 
L 279.383744 437.024753 
Q 281.266679 438.512892 282.754818 436.629957 
L 282.754818 436.629957 
z
" clip-path="url(#p6c13ea20f2)" style="fill: none"/>
    </g>
    <g clip-path="url(#p6c13ea20f2)">
     <!-- 5 -->
     <g transform="translate(279.566578 434.110197)rotate(-51.679642)scale(0.08 -0.08)">
      <use xlink:href="#DejaVuSans-35"/>
     </g>
    </g>
   </g>
   <g id="text_18">
    <g id="patch_58">
     <path d="M 353.046904 430.977076 
L 354.536564 435.844212 
Q 355.238958 438.139129 357.533875 437.436735 
L 364.937372 435.170784 
Q 367.232289 434.46839 366.529895 432.173473 
L 365.040235 427.306337 
Q 364.337841 425.01142 362.042925 425.713814 
L 354.639427 427.979765 
Q 352.344511 428.682159 353.046904 430.977076 
L 353.046904 430.977076 
z
" clip-path="url(#p6c13ea20f2)" style="fill: none"/>
    </g>
    <g clip-path="url(#p6c13ea20f2)">
     <!-- 5 -->
     <g transform="translate(356.932724 429.787762)rotate(-287.017515)scale(0.08 -0.08)">
      <use xlink:href="#DejaVuSans-35"/>
     </g>
    </g>
   </g>
   <g id="text_19">
    <g id="patch_59">
     <path d="M 374.739419 499.419031 
L 377.718739 509.153303 
Q 378.421133 511.44822 380.71605 510.745826 
L 388.119547 508.479875 
Q 390.414464 507.777481 389.71207 505.482564 
L 386.73275 495.748292 
Q 386.030357 493.453375 383.73544 494.155769 
L 376.331942 496.42172 
Q 374.037026 497.124114 374.739419 499.419031 
L 374.739419 499.419031 
z
" clip-path="url(#p6c13ea20f2)" style="fill: none"/>
    </g>
    <g clip-path="url(#p6c13ea20f2)">
     <!-- 17 -->
     <g transform="translate(378.625239 498.229717)rotate(-287.017515)scale(0.08 -0.08)">
      <defs>
       <path id="DejaVuSans-37" d="M 525 4666 
L 3525 4666 
L 3525 4397 
L 1831 0 
L 1172 0 
L 2766 4134 
L 525 4134 
L 525 4666 
z
" transform="scale(0.015625)"/>
      </defs>
      <use xlink:href="#DejaVuSans-31"/>
      <use xlink:href="#DejaVuSans-37" x="63.623047"/>
     </g>
    </g>
   </g>
   <g id="text_20">
    <g id="patch_60">
     <path d="M 327.333279 435.641989 
L 328.394058 430.663751 
Q 328.894229 428.316449 326.546926 427.816278 
L 318.97443 426.202706 
Q 316.627128 425.702536 316.126957 428.049838 
L 315.066178 433.028076 
Q 314.566008 435.375378 316.91331 435.875549 
L 324.485806 437.489121 
Q 326.833108 437.989291 327.333279 435.641989 
L 327.333279 435.641989 
z
" clip-path="url(#p6c13ea20f2)" style="fill: none"/>
    </g>
    <g clip-path="url(#p6c13ea20f2)">
     <!-- 5 -->
     <g transform="translate(323.358758 434.795085)rotate(-77.971133)scale(0.08 -0.08)">
      <use xlink:href="#DejaVuSans-35"/>
     </g>
    </g>
   </g>
   <g id="text_21">
    <g id="patch_61">
     <path d="M 318.574375 580.759054 
L 322.718733 583.714117 
Q 324.67285 585.107468 326.0662 583.15335 
L 330.561207 576.849286 
Q 331.954557 574.895169 330.00044 573.501818 
L 325.856082 570.546755 
Q 323.901965 569.153404 322.508615 571.107522 
L 318.013608 577.411586 
Q 316.620258 579.365703 318.574375 580.759054 
L 318.574375 580.759054 
z
" clip-path="url(#p6c13ea20f2)" style="fill: none"/>
    </g>
    <g clip-path="url(#p6c13ea20f2)">
     <!-- 2 -->
     <g transform="translate(320.933637 577.450285)rotate(-324.509874)scale(0.08 -0.08)">
      <use xlink:href="#DejaVuSans-32"/>
     </g>
    </g>
   </g>
   <g id="text_22">
    <g id="patch_62">
     <path d="M 215.20313 576.67 
L 215.20313 581.76 
Q 215.20313 584.16 217.60313 584.16 
L 225.34563 584.16 
Q 227.74563 584.16 227.74563 581.76 
L 227.74563 576.67 
Q 227.74563 574.27 225.34563 574.27 
L 217.60313 574.27 
Q 215.20313 574.27 215.20313 576.67 
L 215.20313 576.67 
z
" clip-path="url(#p6c13ea20f2)" style="fill: none"/>
    </g>
    <g clip-path="url(#p6c13ea20f2)">
     <!-- 2 -->
     <g transform="translate(219.26688 576.67)rotate(-270)scale(0.08 -0.08)">
      <use xlink:href="#DejaVuSans-32"/>
     </g>
    </g>
   </g>
   <g id="text_23">
    <g id="patch_63">
     <path d="M 591.75849 430.515399 
L 592.594918 435.536205 
Q 592.989304 437.903578 595.356678 437.509192 
L 602.993925 436.236885 
Q 605.361299 435.842499 604.966913 433.475125 
L 604.130485 428.454319 
Q 603.736099 426.086946 601.368725 426.481332 
L 593.731478 427.753639 
Q 591.364104 428.148025 591.75849 430.515399 
L 591.75849 430.515399 
z
" clip-path="url(#p6c13ea20f2)" style="fill: none"/>
    </g>
    <g clip-path="url(#p6c13ea20f2)">
     <!-- 5 -->
     <g transform="translate(595.766997 429.847612)rotate(-279.458178)scale(0.08 -0.08)">
      <use xlink:href="#DejaVuSans-35"/>
     </g>
    </g>
   </g>
   <g id="text_24">
    <g id="patch_64">
     <path d="M 564.031981 655.29817 
L 564.51782 650.23141 
Q 564.746899 647.842367 562.357857 647.613288 
L 554.650707 646.874269 
Q 552.261665 646.64519 552.032586 649.034232 
L 551.546747 654.100993 
Q 551.317668 656.490035 553.70671 656.719114 
L 561.41386 657.458133 
Q 563.802902 657.687212 564.031981 655.29817 
L 564.031981 655.29817 
z
" clip-path="url(#p6c13ea20f2)" style="fill: none"/>
    </g>
    <g clip-path="url(#p6c13ea20f2)">
     <!-- 8 -->
     <g transform="translate(559.986785 654.910287)rotate(-84.5228)scale(0.08 -0.08)">
      <use xlink:href="#DejaVuSans-38"/>
     </g>
    </g>
   </g>
   <g id="text_25">
    <g id="patch_65">
     <path d="M 618.327803 431.771047 
L 620.714123 436.266999 
Q 621.839304 438.386897 623.959202 437.261717 
L 630.798082 433.631838 
Q 632.917981 432.506657 631.7928 430.386759 
L 629.40648 425.890808 
Q 628.2813 423.77091 626.161402 424.89609 
L 619.322521 428.525969 
Q 617.202623 429.651149 618.327803 431.771047 
L 618.327803 431.771047 
z
" clip-path="url(#p6c13ea20f2)" style="fill: none"/>
    </g>
    <g clip-path="url(#p6c13ea20f2)">
     <!-- 5 -->
     <g transform="translate(621.917277 429.865859)rotate(-297.958062)scale(0.08 -0.08)">
      <use xlink:href="#DejaVuSans-35"/>
     </g>
    </g>
   </g>
   <g id="text_26">
    <g id="patch_66">
     <path d="M 546.67219 583.800697 
L 551.000169 581.12176 
Q 553.040866 579.858607 551.777713 577.81791 
L 547.702729 571.234536 
Q 546.439576 569.193839 544.398879 570.456992 
L 540.0709 573.135929 
Q 538.030203 574.399082 539.293356 576.439779 
L 543.36834 583.023153 
Q 544.631493 585.06385 546.67219 583.800697 
L 546.67219 583.800697 
z
" clip-path="url(#p6c13ea20f2)" style="fill: none"/>
    </g>
    <g clip-path="url(#p6c13ea20f2)">
     <!-- 1 -->
     <g transform="translate(544.533383 580.345329)rotate(-31.756726)scale(0.08 -0.08)">
      <use xlink:href="#DejaVuSans-31"/>
     </g>
    </g>
   </g>
   <g id="text_27">
    <g id="patch_67">
     <path d="M 672.368556 577.256757 
L 673.39235 582.242732 
Q 673.875082 584.593683 676.226033 584.110951 
L 683.810298 582.553638 
Q 686.161249 582.070906 685.678517 579.719955 
L 684.654723 574.73398 
Q 684.171991 572.383029 681.821041 572.865761 
L 674.236775 574.423074 
Q 671.885824 574.905806 672.368556 577.256757 
L 672.368556 577.256757 
z
" clip-path="url(#p6c13ea20f2)" style="fill: none"/>
    </g>
    <g clip-path="url(#p6c13ea20f2)">
     <!-- 1 -->
     <g transform="translate(676.349255 576.439381)rotate(-281.60353)scale(0.08 -0.08)">
      <use xlink:href="#DejaVuSans-31"/>
     </g>
    </g>
   </g>
   <g id="text_28">
    <g id="patch_68">
     <path d="M 647.981408 582.429666 
L 649.401658 577.541825 
Q 650.071324 575.237146 647.766645 574.56748 
L 640.331653 572.407109 
Q 638.026973 571.737443 637.357307 574.042122 
L 635.937057 578.929963 
Q 635.267391 581.234642 637.57207 581.904309 
L 645.007062 584.064679 
Q 647.311741 584.734346 647.981408 582.429666 
L 647.981408 582.429666 
z
" clip-path="url(#p6c13ea20f2)" style="fill: none"/>
    </g>
    <g clip-path="url(#p6c13ea20f2)">
     <!-- 6 -->
     <g transform="translate(644.079057 581.295768)rotate(-73.797825)scale(0.08 -0.08)">
      <use xlink:href="#DejaVuSans-36"/>
     </g>
    </g>
   </g>
   <g id="text_29">
    <g id="patch_69">
     <path d="M 669.667256 728.384381 
L 669.680403 723.294398 
Q 669.686601 720.894406 667.286609 720.888207 
L 659.544135 720.868209 
Q 657.144143 720.862011 657.137944 723.262003 
L 657.124798 728.351986 
Q 657.118599 730.751978 659.518591 730.758176 
L 667.261065 730.778174 
Q 669.661057 730.784373 669.667256 728.384381 
L 669.667256 728.384381 
z
" clip-path="url(#p6c13ea20f2)" style="fill: none"/>
    </g>
    <g clip-path="url(#p6c13ea20f2)">
     <!-- 1 -->
     <g transform="translate(665.60352 728.373885)rotate(-89.852016)scale(0.08 -0.08)">
      <use xlink:href="#DejaVuSans-31"/>
     </g>
    </g>
   </g>
   <g id="text_30">
    <g id="patch_70">
     <path d="M 571.716055 290.080465 
L 578.319603 282.332849 
Q 579.876431 280.506299 578.049881 278.94947 
L 572.157355 273.927076 
Q 570.330805 272.370248 568.773977 274.196798 
L 562.170429 281.944414 
Q 560.6136 283.770964 562.44015 285.327792 
L 568.332676 290.350186 
Q 570.159226 291.907015 571.716055 290.080465 
L 571.716055 290.080465 
z
" clip-path="url(#p6c13ea20f2)" style="fill: none"/>
    </g>
    <g clip-path="url(#p6c13ea20f2)">
     <!-- 20 -->
     <g transform="translate(568.623287 287.444397)rotate(-49.557954)scale(0.08 -0.08)">
      <use xlink:href="#DejaVuSans-32"/>
      <use xlink:href="#DejaVuSans-30" x="63.623047"/>
     </g>
    </g>
   </g>
   <g id="text_31">
    <g id="patch_71">
     <path d="M 669.035463 281.052645 
L 674.301072 289.765037 
Q 675.542472 291.819039 677.596474 290.577638 
L 684.22277 286.572828 
Q 686.276772 285.331427 685.035372 283.277425 
L 679.769763 274.565033 
Q 678.528363 272.511031 676.474361 273.752432 
L 669.848065 277.757243 
Q 667.794063 278.998643 669.035463 281.052645 
L 669.035463 281.052645 
z
" clip-path="url(#p6c13ea20f2)" style="fill: none"/>
    </g>
    <g clip-path="url(#p6c13ea20f2)">
     <!-- 27 -->
     <g transform="translate(672.51336 278.950669)rotate(-301.147987)scale(0.08 -0.08)">
      <use xlink:href="#DejaVuSans-32"/>
      <use xlink:href="#DejaVuSans-37" x="63.623047"/>
     </g>
    </g>
   </g>
   <g id="text_32">
    <g id="patch_72">
     <path d="M 633.897628 278.661841 
L 634.995501 288.782467 
Q 635.254331 291.168469 637.640334 290.909639 
L 645.337676 290.074641 
Q 647.723679 289.81581 647.464848 287.429808 
L 646.366975 277.309182 
Q 646.108145 274.923179 643.722143 275.18201 
L 636.0248 276.017008 
Q 633.638798 276.275838 633.897628 278.661841 
L 633.897628 278.661841 
z
" clip-path="url(#p6c13ea20f2)" style="fill: none"/>
    </g>
    <g clip-path="url(#p6c13ea20f2)">
     <!-- 33 -->
     <g transform="translate(637.937677 278.223581)rotate(-276.191164)scale(0.08 -0.08)">
      <use xlink:href="#DejaVuSans-33"/>
      <use xlink:href="#DejaVuSans-33" x="63.623047"/>
     </g>
    </g>
   </g>
   <g id="text_33">
    <g id="patch_73">
     <path d="M 483.26897 290.673369 
L 492.387421 286.147196 
Q 494.537154 285.080122 493.47008 282.930389 
L 490.027654 275.99526 
Q 488.960579 273.845527 486.810846 274.912601 
L 477.692395 279.438775 
Q 475.542662 280.505849 476.609736 282.655582 
L 480.052162 289.590711 
Q 481.119237 291.740444 483.26897 290.673369 
L 483.26897 290.673369 
z
" clip-path="url(#p6c13ea20f2)" style="fill: none"/>
    </g>
    <g clip-path="url(#p6c13ea20f2)">
     <!-- 15 -->
     <g transform="translate(481.462168 287.033379)rotate(-26.398663)scale(0.08 -0.08)">
      <use xlink:href="#DejaVuSans-31"/>
      <use xlink:href="#DejaVuSans-35" x="63.623047"/>
     </g>
    </g>
   </g>
   <g id="text_34">
    <g id="patch_74">
     <path d="M 699.469853 286.609646 
L 703.060946 290.216882 
Q 704.754192 291.91774 706.45505 290.224494 
L 711.942088 284.762012 
Q 713.642946 283.068766 711.9497 281.367908 
L 708.358607 277.760672 
Q 706.665361 276.059814 704.964503 277.75306 
L 699.477465 283.215542 
Q 697.776607 284.908789 699.469853 286.609646 
L 699.469853 286.609646 
z
" clip-path="url(#p6c13ea20f2)" style="fill: none"/>
    </g>
    <g clip-path="url(#p6c13ea20f2)">
     <!-- 7 -->
     <g transform="translate(702.349795 283.742593)rotate(-314.871506)scale(0.08 -0.08)">
      <use xlink:href="#DejaVuSans-37"/>
     </g>
    </g>
   </g>
   <g id="text_35">
    <g id="patch_75">
     <path d="M 725.164954 284.451754 
L 733.382167 290.460897 
Q 735.319428 291.877591 736.736122 289.94033 
L 741.306435 283.690647 
Q 742.723129 281.753386 740.785868 280.336692 
L 732.568655 274.327549 
Q 730.631394 272.910855 729.2147 274.848116 
L 724.644387 281.097799 
Q 723.227693 283.03506 725.164954 284.451754 
L 725.164954 284.451754 
z
" clip-path="url(#p6c13ea20f2)" style="fill: none"/>
    </g>
    <g clip-path="url(#p6c13ea20f2)">
     <!-- 27 -->
     <g transform="translate(727.563741 281.171528)rotate(-323.822473)scale(0.08 -0.08)">
      <use xlink:href="#DejaVuSans-32"/>
      <use xlink:href="#DejaVuSans-37" x="63.623047"/>
     </g>
    </g>
   </g>
   <g id="text_36">
    <g id="patch_76">
     <path d="M 613.875124 289.250299 
L 616.957384 279.54813 
Q 617.684046 277.260782 615.396698 276.53412 
L 608.017617 274.189876 
Q 605.730269 273.463214 605.003607 275.750562 
L 601.921347 285.452731 
Q 601.194685 287.740079 603.482033 288.466741 
L 610.861114 290.810985 
Q 613.148462 291.537647 613.875124 289.250299 
L 613.875124 289.250299 
z
" clip-path="url(#p6c13ea20f2)" style="fill: none"/>
    </g>
    <g clip-path="url(#p6c13ea20f2)">
     <!-- 20 -->
     <g transform="translate(610.002119 288.019893)rotate(-72.375588)scale(0.08 -0.08)">
      <use xlink:href="#DejaVuSans-32"/>
      <use xlink:href="#DejaVuSans-30" x="63.623047"/>
     </g>
    </g>
   </g>
   <g id="text_37">
    <g id="patch_77">
     <path d="M 428.670229 363.786848 
L 432.814594 360.831795 
Q 434.768715 359.43845 433.375369 357.484329 
L 428.880379 351.180253 
Q 427.487034 349.226132 425.532913 350.619477 
L 421.388548 353.57453 
Q 419.434427 354.967876 420.827772 356.921997 
L 425.322762 363.226073 
Q 426.716107 365.180194 428.670229 363.786848 
L 428.670229 363.786848 
z
" clip-path="url(#p6c13ea20f2)" style="fill: none"/>
    </g>
    <g clip-path="url(#p6c13ea20f2)">
     <!-- 7 -->
     <g transform="translate(426.310976 360.478074)rotate(-35.489977)scale(0.08 -0.08)">
      <use xlink:href="#DejaVuSans-37"/>
     </g>
    </g>
   </g>
   <g id="text_38">
    <g id="patch_78">
     <path d="M 533.440091 436.158216 
L 537.751312 426.936189 
Q 538.76771 424.762038 536.593558 423.74564 
L 529.579654 420.466698 
Q 527.405503 419.4503 526.389105 421.624452 
L 522.077884 430.846479 
Q 521.061486 433.020631 523.235638 434.037028 
L 530.249542 437.31597 
Q 532.423694 438.332368 533.440091 436.158216 
L 533.440091 436.158216 
z
" clip-path="url(#p6c13ea20f2)" style="fill: none"/>
    </g>
    <g clip-path="url(#p6c13ea20f2)">
     <!-- 34 -->
     <g transform="translate(529.758754 434.437222)rotate(-64.944303)scale(0.08 -0.08)">
      <use xlink:href="#DejaVuSans-33"/>
      <use xlink:href="#DejaVuSans-34" x="63.623047"/>
     </g>
    </g>
   </g>
   <g id="text_39">
    <g id="patch_79">
     <path d="M 582.892722 362.66169 
L 586.408905 353.108216 
Q 587.237867 350.855924 584.985575 350.026961 
L 577.719586 347.352694 
Q 575.467294 346.523731 574.638331 348.776023 
L 571.122148 358.329497 
Q 570.293186 360.581789 572.545478 361.410752 
L 579.811467 364.08502 
Q 582.06376 364.913982 582.892722 362.66169 
L 582.892722 362.66169 
z
" clip-path="url(#p6c13ea20f2)" style="fill: none"/>
    </g>
    <g clip-path="url(#p6c13ea20f2)">
     <!-- 35 -->
     <g transform="translate(579.079075 361.258066)rotate(-69.79372)scale(0.08 -0.08)">
      <use xlink:href="#DejaVuSans-33"/>
      <use xlink:href="#DejaVuSans-35" x="63.623047"/>
     </g>
    </g>
   </g>
   <g id="text_40">
    <g id="patch_80">
     <path d="M 755.48503 288.078101 
L 759.902598 290.606576 
Q 761.985538 291.798785 763.177747 289.715845 
L 767.023861 282.996194 
Q 768.216069 280.913254 766.133129 279.721045 
L 761.715561 277.19257 
Q 759.632621 276.000361 758.440412 278.083301 
L 754.594298 284.802952 
Q 753.40209 286.885892 755.48503 288.078101 
L 755.48503 288.078101 
z
" clip-path="url(#p6c13ea20f2)" style="fill: none"/>
    </g>
    <g clip-path="url(#p6c13ea20f2)">
     <!-- 3 -->
     <g transform="translate(757.503712 284.551206)rotate(-330.214554)scale(0.08 -0.08)">
      <use xlink:href="#DejaVuSans-33"/>
     </g>
    </g>
   </g>
   <g id="text_41">
    <g id="patch_81">
     <path d="M 641.574496 351.964278 
L 642.652985 362.086988 
Q 642.907246 364.473482 645.29374 364.219221 
L 652.992667 363.398965 
Q 655.379161 363.144704 655.1249 360.75821 
L 654.04641 350.6355 
Q 653.79215 348.249007 651.405656 348.503268 
L 643.706728 349.323524 
Q 641.320235 349.577784 641.574496 351.964278 
L 641.574496 351.964278 
z
" clip-path="url(#p6c13ea20f2)" style="fill: none"/>
    </g>
    <g clip-path="url(#p6c13ea20f2)">
     <!-- 11 -->
     <g transform="translate(645.615376 351.533756)rotate(-276.081443)scale(0.08 -0.08)">
      <use xlink:href="#DejaVuSans-31"/>
      <use xlink:href="#DejaVuSans-31" x="63.623047"/>
     </g>
    </g>
   </g>
   <g id="text_42">
    <g id="patch_82">
     <path d="M 788.815254 286.543901 
L 798.10234 290.713126 
Q 800.291829 291.696048 801.274751 289.506558 
L 804.445696 282.443172 
Q 805.428617 280.253683 803.239128 279.270761 
L 793.952042 275.101536 
Q 791.762552 274.118615 790.779631 276.308105 
L 787.608685 283.37149 
Q 786.625764 285.56098 788.815254 286.543901 
L 788.815254 286.543901 
z
" clip-path="url(#p6c13ea20f2)" style="fill: none"/>
    </g>
    <g clip-path="url(#p6c13ea20f2)">
     <!-- 44 -->
     <g transform="translate(790.479565 282.836593)rotate(-335.823395)scale(0.08 -0.08)">
      <use xlink:href="#DejaVuSans-34"/>
      <use xlink:href="#DejaVuSans-34" x="63.623047"/>
     </g>
    </g>
   </g>
   <g id="text_43">
    <g id="patch_83">
     <path d="M 673.766325 348.129155 
L 678.643614 362.599295 
Q 679.410182 364.873581 681.684467 364.107013 
L 689.021406 361.634032 
Q 691.295691 360.867464 690.529123 358.593179 
L 685.651834 344.123039 
Q 684.885266 341.848754 682.610981 342.615322 
L 675.274042 345.088302 
Q 672.999756 345.85487 673.766325 348.129155 
L 673.766325 348.129155 
z
" clip-path="url(#p6c13ea20f2)" style="fill: none"/>
    </g>
    <g clip-path="url(#p6c13ea20f2)">
     <!-- 140 -->
     <g transform="translate(677.617211 346.83118)rotate(-288.626847)scale(0.08 -0.08)">
      <use xlink:href="#DejaVuSans-31"/>
      <use xlink:href="#DejaVuSans-34" x="63.623047"/>
      <use xlink:href="#DejaVuSans-30" x="127.246094"/>
     </g>
    </g>
   </g>
   <g id="text_44">
    <g id="patch_84">
     <path d="M 451.290857 582.354551 
L 452.5518 577.42321 
Q 453.146351 575.09802 450.821161 574.503469 
L 443.320001 572.585423 
Q 440.99481 571.990873 440.40026 574.316063 
L 439.139317 579.247404 
Q 438.544766 581.572594 440.869956 582.167145 
L 448.371116 584.08519 
Q 450.696306 584.679741 451.290857 582.354551 
L 451.290857 582.354551 
z
" clip-path="url(#p6c13ea20f2)" style="fill: none"/>
    </g>
    <g clip-path="url(#p6c13ea20f2)">
     <!-- 1 -->
     <g transform="translate(447.353777 581.34784)rotate(-75.656804)scale(0.08 -0.08)">
      <use xlink:href="#DejaVuSans-31"/>
     </g>
    </g>
   </g>
   <g id="text_45">
    <g id="patch_85">
     <path d="M 627.335547 728.38748 
L 627.374986 718.207556 
Q 627.384284 715.807574 624.984302 715.798276 
L 617.24186 715.76828 
Q 614.841878 715.758982 614.83258 718.158964 
L 614.793141 728.338888 
Q 614.783843 730.73887 617.183825 730.748168 
L 624.926266 730.778164 
Q 627.326248 730.787462 627.335547 728.38748 
L 627.335547 728.38748 
z
" clip-path="url(#p6c13ea20f2)" style="fill: none"/>
    </g>
    <g clip-path="url(#p6c13ea20f2)">
     <!-- 69 -->
     <g transform="translate(623.271827 728.371736)rotate(-89.778023)scale(0.08 -0.08)">
      <use xlink:href="#DejaVuSans-36"/>
      <use xlink:href="#DejaVuSans-39" x="63.623047"/>
     </g>
    </g>
   </g>
   <g id="matplotlib.axis_1">
    <g id="xtick_1"/>
    <g id="xtick_2"/>
    <g id="xtick_3"/>
    <g id="xtick_4"/>
    <g id="xtick_5"/>
    <g id="xtick_6"/>
    <g id="xtick_7"/>
    <g id="xtick_8"/>
   </g>
   <g id="matplotlib.axis_2">
    <g id="ytick_1"/>
    <g id="ytick_2"/>
    <g id="ytick_3"/>
    <g id="ytick_4"/>
    <g id="ytick_5"/>
    <g id="ytick_6"/>
    <g id="ytick_7"/>
    <g id="ytick_8"/>
    <g id="ytick_9"/>
   </g>
   <g id="PathCollection_1">
    <defs>
     <path id="C0_0_c561cc3a6f" d="M 0 8.660254 
C 2.296726 8.660254 4.499694 7.747755 6.123724 6.123724 
C 7.747755 4.499694 8.660254 2.296726 8.660254 -0 
C 8.660254 -2.296726 7.747755 -4.499694 6.123724 -6.123724 
C 4.499694 -7.747755 2.296726 -8.660254 0 -8.660254 
C -2.296726 -8.660254 -4.499694 -7.747755 -6.123724 -6.123724 
C -7.747755 -4.499694 -8.660254 -2.296726 -8.660254 0 
C -8.660254 2.296726 -7.747755 4.499694 -6.123724 6.123724 
C -4.499694 7.747755 -2.296726 8.660254 0 8.660254 
z
"/>
    </defs>
    <g clip-path="url(#p6c13ea20f2)">
     <use xlink:href="#C0_0_c561cc3a6f" x="507.76127" y="361.832727" style="fill: #1f78b4; stroke: #1f78b4"/>
    </g>
    <g clip-path="url(#p6c13ea20f2)">
     <use xlink:href="#C0_0_c561cc3a6f" x="427.100435" y="655.069091" style="fill: #1f78b4; stroke: #1f78b4"/>
    </g>
    <g clip-path="url(#p6c13ea20f2)">
     <use xlink:href="#C0_0_c561cc3a6f" x="524.802292" y="508.450909" style="fill: #1f78b4; stroke: #1f78b4"/>
    </g>
    <g clip-path="url(#p6c13ea20f2)">
     <use xlink:href="#C0_0_c561cc3a6f" x="648.633715" y="361.832727" style="fill: #1f78b4; stroke: #1f78b4"/>
    </g>
    <g clip-path="url(#p6c13ea20f2)">
     <use xlink:href="#C0_0_c561cc3a6f" x="731.566686" y="508.450909" style="fill: #1f78b4; stroke: #1f78b4"/>
    </g>
    <g clip-path="url(#p6c13ea20f2)">
     <use xlink:href="#C0_0_c561cc3a6f" x="620.800046" y="801.687273" style="fill: #50a832; stroke: #50a832"/>
    </g>
    <g clip-path="url(#p6c13ea20f2)">
     <use xlink:href="#C0_0_c561cc3a6f" x="578.197493" y="948.305455" style="fill: #1f78b4; stroke: #1f78b4"/>
    </g>
    <g clip-path="url(#p6c13ea20f2)">
     <use xlink:href="#C0_0_c561cc3a6f" x="620.800046" y="948.305455" style="fill: #1f78b4; stroke: #1f78b4"/>
    </g>
    <g clip-path="url(#p6c13ea20f2)">
     <use xlink:href="#C0_0_c561cc3a6f" x="529.914598" y="948.305455" style="fill: #1f78b4; stroke: #1f78b4"/>
    </g>
    <g clip-path="url(#p6c13ea20f2)">
     <use xlink:href="#C0_0_c561cc3a6f" x="662.834566" y="948.305455" style="fill: #a88e32; stroke: #a88e32"/>
    </g>
    <g clip-path="url(#p6c13ea20f2)">
     <use xlink:href="#C0_0_c561cc3a6f" x="337.351055" y="361.832727" style="fill: #1f78b4; stroke: #1f78b4"/>
    </g>
    <g clip-path="url(#p6c13ea20f2)">
     <use xlink:href="#C0_0_c561cc3a6f" x="221.47438" y="508.450909" style="fill: #1f78b4; stroke: #1f78b4"/>
    </g>
    <g clip-path="url(#p6c13ea20f2)">
     <use xlink:href="#C0_0_c561cc3a6f" x="382.225745" y="508.450909" style="fill: #1f78b4; stroke: #1f78b4"/>
    </g>
    <g clip-path="url(#p6c13ea20f2)">
     <use xlink:href="#C0_0_c561cc3a6f" x="306.109182" y="508.450909" style="fill: #1f78b4; stroke: #1f78b4"/>
    </g>
    <g clip-path="url(#p6c13ea20f2)">
     <use xlink:href="#C0_0_c561cc3a6f" x="586.149969" y="361.832727" style="fill: #1f78b4; stroke: #1f78b4"/>
    </g>
    <g clip-path="url(#p6c13ea20f2)">
     <use xlink:href="#C0_0_c561cc3a6f" x="610.575433" y="508.450909" style="fill: #1f78b4; stroke: #1f78b4"/>
    </g>
    <g clip-path="url(#p6c13ea20f2)">
     <use xlink:href="#C0_0_c561cc3a6f" x="663.970634" y="508.450909" style="fill: #8ca832; stroke: #8ca832"/>
    </g>
    <g clip-path="url(#p6c13ea20f2)">
     <use xlink:href="#C0_0_c561cc3a6f" x="632.728761" y="215.214545" style="fill: #1f78b4; stroke: #1f78b4"/>
    </g>
    <g clip-path="url(#p6c13ea20f2)">
     <use xlink:href="#C0_0_c561cc3a6f" x="721.342074" y="361.832727" style="fill: #1f78b4; stroke: #1f78b4"/>
    </g>
    <g clip-path="url(#p6c13ea20f2)">
     <use xlink:href="#C0_0_c561cc3a6f" x="778.690791" y="361.832727" style="fill: #1f78b4; stroke: #1f78b4"/>
    </g>
    <g clip-path="url(#p6c13ea20f2)">
     <use xlink:href="#C0_0_c561cc3a6f" x="833.22206" y="361.832727" style="fill: #1f78b4; stroke: #1f78b4"/>
    </g>
    <g clip-path="url(#p6c13ea20f2)">
     <use xlink:href="#C0_0_c561cc3a6f" x="888.889397" y="361.832727" style="fill: #32a871; stroke: #32a871"/>
    </g>
    <g clip-path="url(#p6c13ea20f2)">
     <use xlink:href="#C0_0_c561cc3a6f" x="959.32562" y="361.832727" style="fill: #1f78b4; stroke: #1f78b4"/>
    </g>
    <g clip-path="url(#p6c13ea20f2)">
     <use xlink:href="#C0_0_c561cc3a6f" x="221.47438" y="655.069091" style="fill: #1f78b4; stroke: #1f78b4"/>
    </g>
    <g clip-path="url(#p6c13ea20f2)">
     <use xlink:href="#C0_0_c561cc3a6f" x="464.590682" y="508.450909" style="fill: #1f78b4; stroke: #1f78b4"/>
    </g>
    <g clip-path="url(#p6c13ea20f2)">
     <use xlink:href="#C0_0_c561cc3a6f" x="621.36808" y="655.069091" style="fill: #a85832; stroke: #a85832"/>
    </g>
    <g clip-path="url(#p6c13ea20f2)">
     <use xlink:href="#C0_0_c561cc3a6f" x="694.076439" y="655.069091" style="fill: #1f78b4; stroke: #1f78b4"/>
    </g>
   </g>
   <g id="patch_86">
    <path d="M 144 1025.28 
L 144 138.24 
" style="fill: none; stroke: #000000; stroke-width: 0.8; stroke-linejoin: miter; stroke-linecap: square"/>
   </g>
   <g id="patch_87">
    <path d="M 1036.8 1025.28 
L 1036.8 138.24 
" style="fill: none; stroke: #000000; stroke-width: 0.8; stroke-linejoin: miter; stroke-linecap: square"/>
   </g>
   <g id="patch_88">
    <path d="M 144 1025.28 
L 1036.8 1025.28 
" style="fill: none; stroke: #000000; stroke-width: 0.8; stroke-linejoin: miter; stroke-linecap: square"/>
   </g>
   <g id="patch_89">
    <path d="M 144 138.24 
L 1036.8 138.24 
" style="fill: none; stroke: #000000; stroke-width: 0.8; stroke-linejoin: miter; stroke-linecap: square"/>
   </g>
   <g id="text_46">
    <g clip-path="url(#p6c13ea20f2)">
     <!-- admin-order -->
     <g transform="translate(473.773848 364.86804)scale(0.11 -0.11)">
      <defs>
       <path id="DejaVuSans-64" d="M 2906 2969 
L 2906 4863 
L 3481 4863 
L 3481 0 
L 2906 0 
L 2906 525 
Q 2725 213 2448 61 
Q 2172 -91 1784 -91 
Q 1150 -91 751 415 
Q 353 922 353 1747 
Q 353 2572 751 3078 
Q 1150 3584 1784 3584 
Q 2172 3584 2448 3432 
Q 2725 3281 2906 2969 
z
M 947 1747 
Q 947 1113 1208 752 
Q 1469 391 1925 391 
Q 2381 391 2643 752 
Q 2906 1113 2906 1747 
Q 2906 2381 2643 2742 
Q 2381 3103 1925 3103 
Q 1469 3103 1208 2742 
Q 947 2381 947 1747 
z
" transform="scale(0.015625)"/>
       <path id="DejaVuSans-6d" d="M 3328 2828 
Q 3544 3216 3844 3400 
Q 4144 3584 4550 3584 
Q 5097 3584 5394 3201 
Q 5691 2819 5691 2113 
L 5691 0 
L 5113 0 
L 5113 2094 
Q 5113 2597 4934 2840 
Q 4756 3084 4391 3084 
Q 3944 3084 3684 2787 
Q 3425 2491 3425 1978 
L 3425 0 
L 2847 0 
L 2847 2094 
Q 2847 2600 2669 2842 
Q 2491 3084 2119 3084 
Q 1678 3084 1418 2786 
Q 1159 2488 1159 1978 
L 1159 0 
L 581 0 
L 581 3500 
L 1159 3500 
L 1159 2956 
Q 1356 3278 1631 3431 
Q 1906 3584 2284 3584 
Q 2666 3584 2933 3390 
Q 3200 3197 3328 2828 
z
" transform="scale(0.015625)"/>
       <path id="DejaVuSans-69" d="M 603 3500 
L 1178 3500 
L 1178 0 
L 603 0 
L 603 3500 
z
M 603 4863 
L 1178 4863 
L 1178 4134 
L 603 4134 
L 603 4863 
z
" transform="scale(0.015625)"/>
       <path id="DejaVuSans-2d" d="M 313 2009 
L 1997 2009 
L 1997 1497 
L 313 1497 
L 313 2009 
z
" transform="scale(0.015625)"/>
       <path id="DejaVuSans-6f" d="M 1959 3097 
Q 1497 3097 1228 2736 
Q 959 2375 959 1747 
Q 959 1119 1226 758 
Q 1494 397 1959 397 
Q 2419 397 2687 759 
Q 2956 1122 2956 1747 
Q 2956 2369 2687 2733 
Q 2419 3097 1959 3097 
z
M 1959 3584 
Q 2709 3584 3137 3096 
Q 3566 2609 3566 1747 
Q 3566 888 3137 398 
Q 2709 -91 1959 -91 
Q 1206 -91 779 398 
Q 353 888 353 1747 
Q 353 2609 779 3096 
Q 1206 3584 1959 3584 
z
" transform="scale(0.015625)"/>
       <path id="DejaVuSans-72" d="M 2631 2963 
Q 2534 3019 2420 3045 
Q 2306 3072 2169 3072 
Q 1681 3072 1420 2755 
Q 1159 2438 1159 1844 
L 1159 0 
L 581 0 
L 581 3500 
L 1159 3500 
L 1159 2956 
Q 1341 3275 1631 3429 
Q 1922 3584 2338 3584 
Q 2397 3584 2469 3576 
Q 2541 3569 2628 3553 
L 2631 2963 
z
" transform="scale(0.015625)"/>
      </defs>
      <use xlink:href="#DejaVuSans-61"/>
      <use xlink:href="#DejaVuSans-64" x="61.279297"/>
      <use xlink:href="#DejaVuSans-6d" x="124.755859"/>
      <use xlink:href="#DejaVuSans-69" x="222.167969"/>
      <use xlink:href="#DejaVuSans-6e" x="249.951172"/>
      <use xlink:href="#DejaVuSans-2d" x="313.330078"/>
      <use xlink:href="#DejaVuSans-6f" x="351.289062"/>
      <use xlink:href="#DejaVuSans-72" x="412.470703"/>
      <use xlink:href="#DejaVuSans-64" x="451.833984"/>
      <use xlink:href="#DejaVuSans-65" x="515.310547"/>
      <use xlink:href="#DejaVuSans-72" x="576.833984"/>
     </g>
    </g>
   </g>
   <g id="text_47">
    <g clip-path="url(#p6c13ea20f2)">
     <!-- order -->
     <g transform="translate(412.433482 658.104403)scale(0.11 -0.11)">
      <use xlink:href="#DejaVuSans-6f"/>
      <use xlink:href="#DejaVuSans-72" x="61.181641"/>
      <use xlink:href="#DejaVuSans-64" x="100.544922"/>
      <use xlink:href="#DejaVuSans-65" x="164.021484"/>
      <use xlink:href="#DejaVuSans-72" x="225.544922"/>
     </g>
    </g>
   </g>
   <g id="text_48">
    <g clip-path="url(#p6c13ea20f2)">
     <!-- order-other -->
     <g transform="translate(493.746198 511.486222)scale(0.11 -0.11)">
      <use xlink:href="#DejaVuSans-6f"/>
      <use xlink:href="#DejaVuSans-72" x="61.181641"/>
      <use xlink:href="#DejaVuSans-64" x="100.544922"/>
      <use xlink:href="#DejaVuSans-65" x="164.021484"/>
      <use xlink:href="#DejaVuSans-72" x="225.544922"/>
      <use xlink:href="#DejaVuSans-2d" x="260.283203"/>
      <use xlink:href="#DejaVuSans-6f" x="298.242188"/>
      <use xlink:href="#DejaVuSans-74" x="359.423828"/>
      <use xlink:href="#DejaVuSans-68" x="398.632812"/>
      <use xlink:href="#DejaVuSans-65" x="462.011719"/>
      <use xlink:href="#DejaVuSans-72" x="523.535156"/>
     </g>
    </g>
   </g>
   <g id="text_49">
    <g clip-path="url(#p6c13ea20f2)">
     <!-- auth -->
     <g transform="translate(636.135824 364.86804)scale(0.11 -0.11)">
      <use xlink:href="#DejaVuSans-61"/>
      <use xlink:href="#DejaVuSans-75" x="61.279297"/>
      <use xlink:href="#DejaVuSans-74" x="124.658203"/>
      <use xlink:href="#DejaVuSans-68" x="163.867188"/>
     </g>
    </g>
   </g>
   <g id="text_50">
    <g clip-path="url(#p6c13ea20f2)">
     <!-- verification-code -->
     <g transform="translate(685.494733 511.486222)scale(0.11 -0.11)">
      <defs>
       <path id="DejaVuSans-76" d="M 191 3500 
L 800 3500 
L 1894 563 
L 2988 3500 
L 3597 3500 
L 2284 0 
L 1503 0 
L 191 3500 
z
" transform="scale(0.015625)"/>
       <path id="DejaVuSans-66" d="M 2375 4863 
L 2375 4384 
L 1825 4384 
Q 1516 4384 1395 4259 
Q 1275 4134 1275 3809 
L 1275 3500 
L 2222 3500 
L 2222 3053 
L 1275 3053 
L 1275 0 
L 697 0 
L 697 3053 
L 147 3053 
L 147 3500 
L 697 3500 
L 697 3744 
Q 697 4328 969 4595 
Q 1241 4863 1831 4863 
L 2375 4863 
z
" transform="scale(0.015625)"/>
      </defs>
      <use xlink:href="#DejaVuSans-76"/>
      <use xlink:href="#DejaVuSans-65" x="59.179688"/>
      <use xlink:href="#DejaVuSans-72" x="120.703125"/>
      <use xlink:href="#DejaVuSans-69" x="161.816406"/>
      <use xlink:href="#DejaVuSans-66" x="189.599609"/>
      <use xlink:href="#DejaVuSans-69" x="224.804688"/>
      <use xlink:href="#DejaVuSans-63" x="252.587891"/>
      <use xlink:href="#DejaVuSans-61" x="307.568359"/>
      <use xlink:href="#DejaVuSans-74" x="368.847656"/>
      <use xlink:href="#DejaVuSans-69" x="408.056641"/>
      <use xlink:href="#DejaVuSans-6f" x="435.839844"/>
      <use xlink:href="#DejaVuSans-6e" x="497.021484"/>
      <use xlink:href="#DejaVuSans-2d" x="560.400391"/>
      <use xlink:href="#DejaVuSans-63" x="596.484375"/>
      <use xlink:href="#DejaVuSans-6f" x="651.464844"/>
      <use xlink:href="#DejaVuSans-64" x="712.646484"/>
      <use xlink:href="#DejaVuSans-65" x="776.123047"/>
     </g>
    </g>
   </g>
   <g id="text_51">
    <g clip-path="url(#p6c13ea20f2)">
     <!-- basic -->
     <g transform="translate(606.520671 804.722585)scale(0.11 -0.11)">
      <defs>
       <path id="DejaVuSans-62" d="M 3116 1747 
Q 3116 2381 2855 2742 
Q 2594 3103 2138 3103 
Q 1681 3103 1420 2742 
Q 1159 2381 1159 1747 
Q 1159 1113 1420 752 
Q 1681 391 2138 391 
Q 2594 391 2855 752 
Q 3116 1113 3116 1747 
z
M 1159 2969 
Q 1341 3281 1617 3432 
Q 1894 3584 2278 3584 
Q 2916 3584 3314 3078 
Q 3713 2572 3713 1747 
Q 3713 922 3314 415 
Q 2916 -91 2278 -91 
Q 1894 -91 1617 61 
Q 1341 213 1159 525 
L 1159 0 
L 581 0 
L 581 4863 
L 1159 4863 
L 1159 2969 
z
" transform="scale(0.015625)"/>
      </defs>
      <use xlink:href="#DejaVuSans-62"/>
      <use xlink:href="#DejaVuSans-61" x="63.476562"/>
      <use xlink:href="#DejaVuSans-73" x="124.755859"/>
      <use xlink:href="#DejaVuSans-69" x="176.855469"/>
      <use xlink:href="#DejaVuSans-63" x="204.638672"/>
     </g>
    </g>
   </g>
   <g id="text_52">
    <g clip-path="url(#p6c13ea20f2)">
     <!-- price -->
     <g transform="translate(564.508508 951.340767)scale(0.11 -0.11)">
      <use xlink:href="#DejaVuSans-70"/>
      <use xlink:href="#DejaVuSans-72" x="63.476562"/>
      <use xlink:href="#DejaVuSans-69" x="104.589844"/>
      <use xlink:href="#DejaVuSans-63" x="132.373047"/>
      <use xlink:href="#DejaVuSans-65" x="187.353516"/>
     </g>
    </g>
   </g>
   <g id="text_53">
    <g clip-path="url(#p6c13ea20f2)">
     <!-- route -->
     <g transform="translate(606.271453 951.340767)scale(0.11 -0.11)">
      <use xlink:href="#DejaVuSans-72"/>
      <use xlink:href="#DejaVuSans-6f" x="38.863281"/>
      <use xlink:href="#DejaVuSans-75" x="100.044922"/>
      <use xlink:href="#DejaVuSans-74" x="163.423828"/>
      <use xlink:href="#DejaVuSans-65" x="202.632812"/>
     </g>
    </g>
   </g>
   <g id="text_54">
    <g clip-path="url(#p6c13ea20f2)">
     <!-- station -->
     <g transform="translate(510.987723 951.340767)scale(0.11 -0.11)">
      <use xlink:href="#DejaVuSans-73"/>
      <use xlink:href="#DejaVuSans-74" x="52.099609"/>
      <use xlink:href="#DejaVuSans-61" x="91.308594"/>
      <use xlink:href="#DejaVuSans-74" x="152.587891"/>
      <use xlink:href="#DejaVuSans-69" x="191.796875"/>
      <use xlink:href="#DejaVuSans-6f" x="219.580078"/>
      <use xlink:href="#DejaVuSans-6e" x="280.761719"/>
     </g>
    </g>
   </g>
   <g id="text_55">
    <g clip-path="url(#p6c13ea20f2)">
     <!-- train -->
     <g transform="translate(650.033316 951.340767)scale(0.11 -0.11)">
      <use xlink:href="#DejaVuSans-74"/>
      <use xlink:href="#DejaVuSans-72" x="39.208984"/>
      <use xlink:href="#DejaVuSans-61" x="80.322266"/>
      <use xlink:href="#DejaVuSans-69" x="141.601562"/>
      <use xlink:href="#DejaVuSans-6e" x="169.384766"/>
     </g>
    </g>
   </g>
   <g id="text_56">
    <g clip-path="url(#p6c13ea20f2)">
     <!-- cancel -->
     <g transform="translate(319.534492 364.86804)scale(0.11 -0.11)">
      <use xlink:href="#DejaVuSans-63"/>
      <use xlink:href="#DejaVuSans-61" x="54.980469"/>
      <use xlink:href="#DejaVuSans-6e" x="116.259766"/>
      <use xlink:href="#DejaVuSans-63" x="179.638672"/>
      <use xlink:href="#DejaVuSans-65" x="234.619141"/>
      <use xlink:href="#DejaVuSans-6c" x="296.142578"/>
     </g>
    </g>
   </g>
   <g id="text_57">
    <g clip-path="url(#p6c13ea20f2)">
     <!-- inside-payment -->
     <g transform="translate(178.706724 511.486222)scale(0.11 -0.11)">
      <use xlink:href="#DejaVuSans-69"/>
      <use xlink:href="#DejaVuSans-6e" x="27.783203"/>
      <use xlink:href="#DejaVuSans-73" x="91.162109"/>
      <use xlink:href="#DejaVuSans-69" x="143.261719"/>
      <use xlink:href="#DejaVuSans-64" x="171.044922"/>
      <use xlink:href="#DejaVuSans-65" x="234.521484"/>
      <use xlink:href="#DejaVuSans-2d" x="296.044922"/>
      <use xlink:href="#DejaVuSans-70" x="332.128906"/>
      <use xlink:href="#DejaVuSans-61" x="395.605469"/>
      <use xlink:href="#DejaVuSans-79" x="456.884766"/>
      <use xlink:href="#DejaVuSans-6d" x="516.064453"/>
      <use xlink:href="#DejaVuSans-65" x="613.476562"/>
      <use xlink:href="#DejaVuSans-6e" x="675"/>
      <use xlink:href="#DejaVuSans-74" x="738.378906"/>
     </g>
    </g>
   </g>
   <g id="text_58">
    <g clip-path="url(#p6c13ea20f2)">
     <!-- notification -->
     <g transform="translate(351.296838 511.486222)scale(0.11 -0.11)">
      <use xlink:href="#DejaVuSans-6e"/>
      <use xlink:href="#DejaVuSans-6f" x="63.378906"/>
      <use xlink:href="#DejaVuSans-74" x="124.560547"/>
      <use xlink:href="#DejaVuSans-69" x="163.769531"/>
      <use xlink:href="#DejaVuSans-66" x="191.552734"/>
      <use xlink:href="#DejaVuSans-69" x="226.757812"/>
      <use xlink:href="#DejaVuSans-63" x="254.541016"/>
      <use xlink:href="#DejaVuSans-61" x="309.521484"/>
      <use xlink:href="#DejaVuSans-74" x="370.800781"/>
      <use xlink:href="#DejaVuSans-69" x="410.009766"/>
      <use xlink:href="#DejaVuSans-6f" x="437.792969"/>
      <use xlink:href="#DejaVuSans-6e" x="498.974609"/>
     </g>
    </g>
   </g>
   <g id="text_59">
    <g clip-path="url(#p6c13ea20f2)">
     <!-- user -->
     <g transform="translate(294.113166 511.486222)scale(0.11 -0.11)">
      <use xlink:href="#DejaVuSans-75"/>
      <use xlink:href="#DejaVuSans-73" x="63.378906"/>
      <use xlink:href="#DejaVuSans-65" x="115.478516"/>
      <use xlink:href="#DejaVuSans-72" x="177.001953"/>
     </g>
    </g>
   </g>
   <g id="text_60">
    <g clip-path="url(#p6c13ea20f2)">
     <!-- food -->
     <g transform="translate(573.991532 364.86804)scale(0.11 -0.11)">
      <use xlink:href="#DejaVuSans-66"/>
      <use xlink:href="#DejaVuSans-6f" x="35.205078"/>
      <use xlink:href="#DejaVuSans-6f" x="96.386719"/>
      <use xlink:href="#DejaVuSans-64" x="157.568359"/>
     </g>
    </g>
   </g>
   <g id="text_61">
    <g clip-path="url(#p6c13ea20f2)">
     <!-- food-map -->
     <g transform="translate(584.213246 511.486222)scale(0.11 -0.11)">
      <use xlink:href="#DejaVuSans-66"/>
      <use xlink:href="#DejaVuSans-6f" x="35.205078"/>
      <use xlink:href="#DejaVuSans-6f" x="96.386719"/>
      <use xlink:href="#DejaVuSans-64" x="157.568359"/>
      <use xlink:href="#DejaVuSans-2d" x="221.044922"/>
      <use xlink:href="#DejaVuSans-6d" x="257.128906"/>
      <use xlink:href="#DejaVuSans-61" x="354.541016"/>
      <use xlink:href="#DejaVuSans-70" x="415.820312"/>
     </g>
    </g>
   </g>
   <g id="text_62">
    <g clip-path="url(#p6c13ea20f2)">
     <!-- travel -->
     <g transform="translate(648.015478 511.486222)scale(0.11 -0.11)">
      <use xlink:href="#DejaVuSans-74"/>
      <use xlink:href="#DejaVuSans-72" x="39.208984"/>
      <use xlink:href="#DejaVuSans-61" x="80.322266"/>
      <use xlink:href="#DejaVuSans-76" x="141.601562"/>
      <use xlink:href="#DejaVuSans-65" x="200.78125"/>
      <use xlink:href="#DejaVuSans-6c" x="262.304688"/>
     </g>
    </g>
   </g>
   <g id="text_63">
    <g clip-path="url(#p6c13ea20f2)">
     <!-- gateway -->
     <g transform="translate(609.202511 218.249858)scale(0.11 -0.11)">
      <defs>
       <path id="DejaVuSans-67" d="M 2906 1791 
Q 2906 2416 2648 2759 
Q 2391 3103 1925 3103 
Q 1463 3103 1205 2759 
Q 947 2416 947 1791 
Q 947 1169 1205 825 
Q 1463 481 1925 481 
Q 2391 481 2648 825 
Q 2906 1169 2906 1791 
z
M 3481 434 
Q 3481 -459 3084 -895 
Q 2688 -1331 1869 -1331 
Q 1566 -1331 1297 -1286 
Q 1028 -1241 775 -1147 
L 775 -588 
Q 1028 -725 1275 -790 
Q 1522 -856 1778 -856 
Q 2344 -856 2625 -561 
Q 2906 -266 2906 331 
L 2906 616 
Q 2728 306 2450 153 
Q 2172 0 1784 0 
Q 1141 0 747 490 
Q 353 981 353 1791 
Q 353 2603 747 3093 
Q 1141 3584 1784 3584 
Q 2172 3584 2450 3431 
Q 2728 3278 2906 2969 
L 2906 3500 
L 3481 3500 
L 3481 434 
z
" transform="scale(0.015625)"/>
       <path id="DejaVuSans-77" d="M 269 3500 
L 844 3500 
L 1563 769 
L 2278 3500 
L 2956 3500 
L 3675 769 
L 4391 3500 
L 4966 3500 
L 4050 0 
L 3372 0 
L 2619 2869 
L 1863 0 
L 1184 0 
L 269 3500 
z
" transform="scale(0.015625)"/>
      </defs>
      <use xlink:href="#DejaVuSans-67"/>
      <use xlink:href="#DejaVuSans-61" x="63.476562"/>
      <use xlink:href="#DejaVuSans-74" x="124.755859"/>
      <use xlink:href="#DejaVuSans-65" x="163.964844"/>
      <use xlink:href="#DejaVuSans-77" x="225.488281"/>
      <use xlink:href="#DejaVuSans-61" x="307.275391"/>
      <use xlink:href="#DejaVuSans-79" x="368.554688"/>
     </g>
    </g>
   </g>
   <g id="text_64">
    <g clip-path="url(#p6c13ea20f2)">
     <!-- assurance -->
     <g transform="translate(693.230199 364.86804)scale(0.11 -0.11)">
      <use xlink:href="#DejaVuSans-61"/>
      <use xlink:href="#DejaVuSans-73" x="61.279297"/>
      <use xlink:href="#DejaVuSans-73" x="113.378906"/>
      <use xlink:href="#DejaVuSans-75" x="165.478516"/>
      <use xlink:href="#DejaVuSans-72" x="228.857422"/>
      <use xlink:href="#DejaVuSans-61" x="269.970703"/>
      <use xlink:href="#DejaVuSans-6e" x="331.25"/>
      <use xlink:href="#DejaVuSans-63" x="394.628906"/>
      <use xlink:href="#DejaVuSans-65" x="449.609375"/>
     </g>
    </g>
   </g>
   <g id="text_65">
    <g clip-path="url(#p6c13ea20f2)">
     <!-- consign -->
     <g transform="translate(757.445323 364.86804)scale(0.11 -0.11)">
      <use xlink:href="#DejaVuSans-63"/>
      <use xlink:href="#DejaVuSans-6f" x="54.980469"/>
      <use xlink:href="#DejaVuSans-6e" x="116.162109"/>
      <use xlink:href="#DejaVuSans-73" x="179.541016"/>
      <use xlink:href="#DejaVuSans-69" x="231.640625"/>
      <use xlink:href="#DejaVuSans-67" x="259.423828"/>
      <use xlink:href="#DejaVuSans-6e" x="322.900391"/>
     </g>
    </g>
   </g>
   <g id="text_66">
    <g clip-path="url(#p6c13ea20f2)">
     <!-- contacts -->
     <g transform="translate(809.774873 364.86804)scale(0.11 -0.11)">
      <use xlink:href="#DejaVuSans-63"/>
      <use xlink:href="#DejaVuSans-6f" x="54.980469"/>
      <use xlink:href="#DejaVuSans-6e" x="116.162109"/>
      <use xlink:href="#DejaVuSans-74" x="179.541016"/>
      <use xlink:href="#DejaVuSans-61" x="218.75"/>
      <use xlink:href="#DejaVuSans-63" x="280.029297"/>
      <use xlink:href="#DejaVuSans-74" x="335.009766"/>
      <use xlink:href="#DejaVuSans-73" x="374.21875"/>
     </g>
    </g>
   </g>
   <g id="text_67">
    <g clip-path="url(#p6c13ea20f2)">
     <!-- preserve -->
     <g transform="translate(864.726351 364.86804)scale(0.11 -0.11)">
      <use xlink:href="#DejaVuSans-70"/>
      <use xlink:href="#DejaVuSans-72" x="63.476562"/>
      <use xlink:href="#DejaVuSans-65" x="102.339844"/>
      <use xlink:href="#DejaVuSans-73" x="163.863281"/>
      <use xlink:href="#DejaVuSans-65" x="215.962891"/>
      <use xlink:href="#DejaVuSans-72" x="277.486328"/>
      <use xlink:href="#DejaVuSans-76" x="318.599609"/>
      <use xlink:href="#DejaVuSans-65" x="377.779297"/>
     </g>
    </g>
   </g>
   <g id="text_68">
    <g clip-path="url(#p6c13ea20f2)">
     <!-- ts-ui-dashboard -->
     <g transform="translate(916.225385 364.86804)scale(0.11 -0.11)">
      <use xlink:href="#DejaVuSans-74"/>
      <use xlink:href="#DejaVuSans-73" x="39.208984"/>
      <use xlink:href="#DejaVuSans-2d" x="91.308594"/>
      <use xlink:href="#DejaVuSans-75" x="127.392578"/>
      <use xlink:href="#DejaVuSans-69" x="190.771484"/>
      <use xlink:href="#DejaVuSans-2d" x="218.554688"/>
      <use xlink:href="#DejaVuSans-64" x="254.638672"/>
      <use xlink:href="#DejaVuSans-61" x="318.115234"/>
      <use xlink:href="#DejaVuSans-73" x="379.394531"/>
      <use xlink:href="#DejaVuSans-68" x="431.494141"/>
      <use xlink:href="#DejaVuSans-62" x="494.873047"/>
      <use xlink:href="#DejaVuSans-6f" x="558.349609"/>
      <use xlink:href="#DejaVuSans-61" x="619.53125"/>
      <use xlink:href="#DejaVuSans-72" x="680.810547"/>
      <use xlink:href="#DejaVuSans-64" x="720.173828"/>
     </g>
    </g>
   </g>
   <g id="text_69">
    <g clip-path="url(#p6c13ea20f2)">
     <!-- payment -->
     <g transform="translate(196.973599 658.104403)scale(0.11 -0.11)">
      <use xlink:href="#DejaVuSans-70"/>
      <use xlink:href="#DejaVuSans-61" x="63.476562"/>
      <use xlink:href="#DejaVuSans-79" x="124.755859"/>
      <use xlink:href="#DejaVuSans-6d" x="183.935547"/>
      <use xlink:href="#DejaVuSans-65" x="281.347656"/>
      <use xlink:href="#DejaVuSans-6e" x="342.871094"/>
      <use xlink:href="#DejaVuSans-74" x="406.25"/>
     </g>
    </g>
   </g>
   <g id="text_70">
    <g clip-path="url(#p6c13ea20f2)">
     <!-- security -->
     <g transform="translate(442.631073 511.486222)scale(0.11 -0.11)">
      <use xlink:href="#DejaVuSans-73"/>
      <use xlink:href="#DejaVuSans-65" x="52.099609"/>
      <use xlink:href="#DejaVuSans-63" x="113.623047"/>
      <use xlink:href="#DejaVuSans-75" x="168.603516"/>
      <use xlink:href="#DejaVuSans-72" x="231.982422"/>
      <use xlink:href="#DejaVuSans-69" x="273.095703"/>
      <use xlink:href="#DejaVuSans-74" x="300.878906"/>
      <use xlink:href="#DejaVuSans-79" x="340.087891"/>
     </g>
    </g>
   </g>
   <g id="text_71">
    <g clip-path="url(#p6c13ea20f2)">
     <!-- ticketinfo -->
     <g transform="translate(595.818862 658.104403)scale(0.11 -0.11)">
      <defs>
       <path id="DejaVuSans-6b" d="M 581 4863 
L 1159 4863 
L 1159 1991 
L 2875 3500 
L 3609 3500 
L 1753 1863 
L 3688 0 
L 2938 0 
L 1159 1709 
L 1159 0 
L 581 0 
L 581 4863 
z
" transform="scale(0.015625)"/>
      </defs>
      <use xlink:href="#DejaVuSans-74"/>
      <use xlink:href="#DejaVuSans-69" x="39.208984"/>
      <use xlink:href="#DejaVuSans-63" x="66.992188"/>
      <use xlink:href="#DejaVuSans-6b" x="121.972656"/>
      <use xlink:href="#DejaVuSans-65" x="176.257812"/>
      <use xlink:href="#DejaVuSans-74" x="237.78125"/>
      <use xlink:href="#DejaVuSans-69" x="276.990234"/>
      <use xlink:href="#DejaVuSans-6e" x="304.773438"/>
      <use xlink:href="#DejaVuSans-66" x="368.152344"/>
      <use xlink:href="#DejaVuSans-6f" x="403.357422"/>
     </g>
    </g>
   </g>
   <g id="text_72">
    <g clip-path="url(#p6c13ea20f2)">
     <!-- seat -->
     <g transform="translate(682.300423 658.104403)scale(0.11 -0.11)">
      <use xlink:href="#DejaVuSans-73"/>
      <use xlink:href="#DejaVuSans-65" x="52.099609"/>
      <use xlink:href="#DejaVuSans-61" x="113.623047"/>
      <use xlink:href="#DejaVuSans-74" x="174.902344"/>
     </g>
    </g>
   </g>
  </g>
 </g>
 <defs>
  <clipPath id="p6c13ea20f2">
   <rect x="144" y="138.24" width="892.8" height="887.04"/>
  </clipPath>
 </defs>
</svg>
