<?xml version="1.0" encoding="utf-8" standalone="no"?>
<!DOCTYPE svg PUBLIC "-//W3C//DTD SVG 1.1//EN"
  "http://www.w3.org/Graphics/SVG/1.1/DTD/svg11.dtd">
<svg xmlns:xlink="http://www.w3.org/1999/xlink" width="1152pt" height="1152pt" viewBox="0 0 1152 1152" xmlns="http://www.w3.org/2000/svg" version="1.1">
 <metadata>
  <rdf:RDF xmlns:dc="http://purl.org/dc/elements/1.1/" xmlns:cc="http://creativecommons.org/ns#" xmlns:rdf="http://www.w3.org/1999/02/22-rdf-syntax-ns#">
   <cc:Work>
    <dc:type rdf:resource="http://purl.org/dc/dcmitype/StillImage"/>
    <dc:date>2022-11-17T01:45:50.587341</dc:date>
    <dc:format>image/svg+xml</dc:format>
    <dc:creator>
     <cc:Agent>
      <dc:title>Matplotlib v3.5.3, https://matplotlib.org/</dc:title>
     </cc:Agent>
    </dc:creator>
   </cc:Work>
  </rdf:RDF>
 </metadata>
 <defs>
  <style type="text/css">*{stroke-linejoin: round; stroke-linecap: butt}</style>
 </defs>
 <g id="figure_1">
  <g id="patch_1">
   <path d="M 0 1152 
L 1152 1152 
L 1152 0 
L 0 0 
z
" style="fill: #ffffff"/>
  </g>
  <g id="axes_1">
   <g id="patch_2">
    <path d="M 144 1025.28 
L 1036.8 1025.28 
L 1036.8 138.24 
L 144 138.24 
z
" style="fill: #ffffff"/>
   </g>
   <g id="text_1">
    <g id="patch_3">
     <path d="M 493.016304 397.255099 
L 502.717694 452.044073 
Q 503.136149 454.407311 505.499387 453.988857 
L 513.342385 452.600111 
Q 515.705623 452.181656 515.287168 449.818418 
L 505.585778 395.029443 
Q 505.167323 392.666205 502.804085 393.084659 
L 494.961087 394.473406 
Q 492.597849 394.89186 493.016304 397.255099 
L 493.016304 397.255099 
z
" clip-path="url(#p0bc6d2c250)" style="fill: none"/>
    </g>
    <g clip-path="url(#p0bc6d2c250)">
     <!-- ['http_status'] -->
     <g transform="translate(497.2369 396.507765)rotate(-280.041189)scale(0.08 -0.08)">
      <defs>
       <path id="DejaVuSans-5b" d="M 550 4863 
L 1875 4863 
L 1875 4416 
L 1125 4416 
L 1125 -397 
L 1875 -397 
L 1875 -844 
L 550 -844 
L 550 4863 
z
" transform="scale(0.015625)"/>
       <path id="DejaVuSans-27" d="M 1147 4666 
L 1147 2931 
L 616 2931 
L 616 4666 
L 1147 4666 
z
" transform="scale(0.015625)"/>
       <path id="DejaVuSans-68" d="M 3513 2113 
L 3513 0 
L 2938 0 
L 2938 2094 
Q 2938 2591 2744 2837 
Q 2550 3084 2163 3084 
Q 1697 3084 1428 2787 
Q 1159 2491 1159 1978 
L 1159 0 
L 581 0 
L 581 4863 
L 1159 4863 
L 1159 2956 
Q 1366 3272 1645 3428 
Q 1925 3584 2291 3584 
Q 2894 3584 3203 3211 
Q 3513 2838 3513 2113 
z
" transform="scale(0.015625)"/>
       <path id="DejaVuSans-74" d="M 1172 4494 
L 1172 3500 
L 2356 3500 
L 2356 3053 
L 1172 3053 
L 1172 1153 
Q 1172 725 1289 603 
Q 1406 481 1766 481 
L 2356 481 
L 2356 0 
L 1766 0 
Q 1100 0 847 248 
Q 594 497 594 1153 
L 594 3053 
L 172 3053 
L 172 3500 
L 594 3500 
L 594 4494 
L 1172 4494 
z
" transform="scale(0.015625)"/>
       <path id="DejaVuSans-70" d="M 1159 525 
L 1159 -1331 
L 581 -1331 
L 581 3500 
L 1159 3500 
L 1159 2969 
Q 1341 3281 1617 3432 
Q 1894 3584 2278 3584 
Q 2916 3584 3314 3078 
Q 3713 2572 3713 1747 
Q 3713 922 3314 415 
Q 2916 -91 2278 -91 
Q 1894 -91 1617 61 
Q 1341 213 1159 525 
z
M 3116 1747 
Q 3116 2381 2855 2742 
Q 2594 3103 2138 3103 
Q 1681 3103 1420 2742 
Q 1159 2381 1159 1747 
Q 1159 1113 1420 752 
Q 1681 391 2138 391 
Q 2594 391 2855 752 
Q 3116 1113 3116 1747 
z
" transform="scale(0.015625)"/>
       <path id="DejaVuSans-5f" d="M 3263 -1063 
L 3263 -1509 
L -63 -1509 
L -63 -1063 
L 3263 -1063 
z
" transform="scale(0.015625)"/>
       <path id="DejaVuSans-73" d="M 2834 3397 
L 2834 2853 
Q 2591 2978 2328 3040 
Q 2066 3103 1784 3103 
Q 1356 3103 1142 2972 
Q 928 2841 928 2578 
Q 928 2378 1081 2264 
Q 1234 2150 1697 2047 
L 1894 2003 
Q 2506 1872 2764 1633 
Q 3022 1394 3022 966 
Q 3022 478 2636 193 
Q 2250 -91 1575 -91 
Q 1294 -91 989 -36 
Q 684 19 347 128 
L 347 722 
Q 666 556 975 473 
Q 1284 391 1588 391 
Q 1994 391 2212 530 
Q 2431 669 2431 922 
Q 2431 1156 2273 1281 
Q 2116 1406 1581 1522 
L 1381 1569 
Q 847 1681 609 1914 
Q 372 2147 372 2553 
Q 372 3047 722 3315 
Q 1072 3584 1716 3584 
Q 2034 3584 2315 3537 
Q 2597 3491 2834 3397 
z
" transform="scale(0.015625)"/>
       <path id="DejaVuSans-61" d="M 2194 1759 
Q 1497 1759 1228 1600 
Q 959 1441 959 1056 
Q 959 750 1161 570 
Q 1363 391 1709 391 
Q 2188 391 2477 730 
Q 2766 1069 2766 1631 
L 2766 1759 
L 2194 1759 
z
M 3341 1997 
L 3341 0 
L 2766 0 
L 2766 531 
Q 2569 213 2275 61 
Q 1981 -91 1556 -91 
Q 1019 -91 701 211 
Q 384 513 384 1019 
Q 384 1609 779 1909 
Q 1175 2209 1959 2209 
L 2766 2209 
L 2766 2266 
Q 2766 2663 2505 2880 
Q 2244 3097 1772 3097 
Q 1472 3097 1187 3025 
Q 903 2953 641 2809 
L 641 3341 
Q 956 3463 1253 3523 
Q 1550 3584 1831 3584 
Q 2591 3584 2966 3190 
Q 3341 2797 3341 1997 
z
" transform="scale(0.015625)"/>
       <path id="DejaVuSans-75" d="M 544 1381 
L 544 3500 
L 1119 3500 
L 1119 1403 
Q 1119 906 1312 657 
Q 1506 409 1894 409 
Q 2359 409 2629 706 
Q 2900 1003 2900 1516 
L 2900 3500 
L 3475 3500 
L 3475 0 
L 2900 0 
L 2900 538 
Q 2691 219 2414 64 
Q 2138 -91 1772 -91 
Q 1169 -91 856 284 
Q 544 659 544 1381 
z
M 1991 3584 
L 1991 3584 
z
" transform="scale(0.015625)"/>
       <path id="DejaVuSans-5d" d="M 1947 4863 
L 1947 -844 
L 622 -844 
L 622 -397 
L 1369 -397 
L 1369 4416 
L 622 4416 
L 622 4863 
L 1947 4863 
z
" transform="scale(0.015625)"/>
      </defs>
      <use xlink:href="#DejaVuSans-5b"/>
      <use xlink:href="#DejaVuSans-27" x="39.013672"/>
      <use xlink:href="#DejaVuSans-68" x="66.503906"/>
      <use xlink:href="#DejaVuSans-74" x="129.882812"/>
      <use xlink:href="#DejaVuSans-74" x="169.091797"/>
      <use xlink:href="#DejaVuSans-70" x="208.300781"/>
      <use xlink:href="#DejaVuSans-5f" x="271.777344"/>
      <use xlink:href="#DejaVuSans-73" x="321.777344"/>
      <use xlink:href="#DejaVuSans-74" x="373.876953"/>
      <use xlink:href="#DejaVuSans-61" x="413.085938"/>
      <use xlink:href="#DejaVuSans-74" x="474.365234"/>
      <use xlink:href="#DejaVuSans-75" x="513.574219"/>
      <use xlink:href="#DejaVuSans-73" x="576.953125"/>
      <use xlink:href="#DejaVuSans-27" x="629.052734"/>
      <use xlink:href="#DejaVuSans-5d" x="656.542969"/>
     </g>
    </g>
   </g>
   <g id="text_2">
    <g id="patch_4">
     <path d="M 511.902156 280.859739 
L 581.143472 345.187156 
Q 582.901773 346.820673 584.53529 345.062373 
L 589.956527 339.227014 
Q 591.590045 337.468714 589.831745 335.835196 
L 520.590428 271.507779 
Q 518.832128 269.874262 517.19861 271.632562 
L 511.777374 277.467921 
Q 510.143856 279.226221 511.902156 280.859739 
L 511.902156 280.859739 
z
" clip-path="url(#p0bc6d2c250)" style="fill: none"/>
    </g>
    <g clip-path="url(#p0bc6d2c250)">
     <!-- ['latency', 'http_status'] -->
     <g transform="translate(514.819517 277.719525)rotate(-317.106921)scale(0.08 -0.08)">
      <defs>
       <path id="DejaVuSans-6c" d="M 603 4863 
L 1178 4863 
L 1178 0 
L 603 0 
L 603 4863 
z
" transform="scale(0.015625)"/>
       <path id="DejaVuSans-65" d="M 3597 1894 
L 3597 1613 
L 953 1613 
Q 991 1019 1311 708 
Q 1631 397 2203 397 
Q 2534 397 2845 478 
Q 3156 559 3463 722 
L 3463 178 
Q 3153 47 2828 -22 
Q 2503 -91 2169 -91 
Q 1331 -91 842 396 
Q 353 884 353 1716 
Q 353 2575 817 3079 
Q 1281 3584 2069 3584 
Q 2775 3584 3186 3129 
Q 3597 2675 3597 1894 
z
M 3022 2063 
Q 3016 2534 2758 2815 
Q 2500 3097 2075 3097 
Q 1594 3097 1305 2825 
Q 1016 2553 972 2059 
L 3022 2063 
z
" transform="scale(0.015625)"/>
       <path id="DejaVuSans-6e" d="M 3513 2113 
L 3513 0 
L 2938 0 
L 2938 2094 
Q 2938 2591 2744 2837 
Q 2550 3084 2163 3084 
Q 1697 3084 1428 2787 
Q 1159 2491 1159 1978 
L 1159 0 
L 581 0 
L 581 3500 
L 1159 3500 
L 1159 2956 
Q 1366 3272 1645 3428 
Q 1925 3584 2291 3584 
Q 2894 3584 3203 3211 
Q 3513 2838 3513 2113 
z
" transform="scale(0.015625)"/>
       <path id="DejaVuSans-63" d="M 3122 3366 
L 3122 2828 
Q 2878 2963 2633 3030 
Q 2388 3097 2138 3097 
Q 1578 3097 1268 2742 
Q 959 2388 959 1747 
Q 959 1106 1268 751 
Q 1578 397 2138 397 
Q 2388 397 2633 464 
Q 2878 531 3122 666 
L 3122 134 
Q 2881 22 2623 -34 
Q 2366 -91 2075 -91 
Q 1284 -91 818 406 
Q 353 903 353 1747 
Q 353 2603 823 3093 
Q 1294 3584 2113 3584 
Q 2378 3584 2631 3529 
Q 2884 3475 3122 3366 
z
" transform="scale(0.015625)"/>
       <path id="DejaVuSans-79" d="M 2059 -325 
Q 1816 -950 1584 -1140 
Q 1353 -1331 966 -1331 
L 506 -1331 
L 506 -850 
L 844 -850 
Q 1081 -850 1212 -737 
Q 1344 -625 1503 -206 
L 1606 56 
L 191 3500 
L 800 3500 
L 1894 763 
L 2988 3500 
L 3597 3500 
L 2059 -325 
z
" transform="scale(0.015625)"/>
       <path id="DejaVuSans-2c" d="M 750 794 
L 1409 794 
L 1409 256 
L 897 -744 
L 494 -744 
L 750 256 
L 750 794 
z
" transform="scale(0.015625)"/>
       <path id="DejaVuSans-20" transform="scale(0.015625)"/>
      </defs>
      <use xlink:href="#DejaVuSans-5b"/>
      <use xlink:href="#DejaVuSans-27" x="39.013672"/>
      <use xlink:href="#DejaVuSans-6c" x="66.503906"/>
      <use xlink:href="#DejaVuSans-61" x="94.287109"/>
      <use xlink:href="#DejaVuSans-74" x="155.566406"/>
      <use xlink:href="#DejaVuSans-65" x="194.775391"/>
      <use xlink:href="#DejaVuSans-6e" x="256.298828"/>
      <use xlink:href="#DejaVuSans-63" x="319.677734"/>
      <use xlink:href="#DejaVuSans-79" x="374.658203"/>
      <use xlink:href="#DejaVuSans-27" x="433.837891"/>
      <use xlink:href="#DejaVuSans-2c" x="461.328125"/>
      <use xlink:href="#DejaVuSans-20" x="493.115234"/>
      <use xlink:href="#DejaVuSans-27" x="524.902344"/>
      <use xlink:href="#DejaVuSans-68" x="552.392578"/>
      <use xlink:href="#DejaVuSans-74" x="615.771484"/>
      <use xlink:href="#DejaVuSans-74" x="654.980469"/>
      <use xlink:href="#DejaVuSans-70" x="694.189453"/>
      <use xlink:href="#DejaVuSans-5f" x="757.666016"/>
      <use xlink:href="#DejaVuSans-73" x="807.666016"/>
      <use xlink:href="#DejaVuSans-74" x="859.765625"/>
      <use xlink:href="#DejaVuSans-61" x="898.974609"/>
      <use xlink:href="#DejaVuSans-74" x="960.253906"/>
      <use xlink:href="#DejaVuSans-75" x="999.462891"/>
      <use xlink:href="#DejaVuSans-73" x="1062.841797"/>
      <use xlink:href="#DejaVuSans-27" x="1114.941406"/>
      <use xlink:href="#DejaVuSans-5d" x="1142.431641"/>
     </g>
    </g>
   </g>
   <g id="text_3">
    <g id="patch_5">
     <path d="M 680.591625 283.072559 
L 733.234634 301.090948 
Q 735.505309 301.868143 736.282505 299.597468 
L 738.861822 292.061663 
Q 739.639018 289.790988 737.368343 289.013792 
L 684.725334 270.995404 
Q 682.454658 270.218209 681.677463 272.488884 
L 679.098145 280.024688 
Q 678.320949 282.295364 680.591625 283.072559 
L 680.591625 283.072559 
z
" clip-path="url(#p0bc6d2c250)" style="fill: none"/>
    </g>
    <g clip-path="url(#p0bc6d2c250)">
     <!-- ['http_status'] -->
     <g transform="translate(681.979648 279.017275)rotate(-341.105204)scale(0.08 -0.08)">
      <use xlink:href="#DejaVuSans-5b"/>
      <use xlink:href="#DejaVuSans-27" x="39.013672"/>
      <use xlink:href="#DejaVuSans-68" x="66.503906"/>
      <use xlink:href="#DejaVuSans-74" x="129.882812"/>
      <use xlink:href="#DejaVuSans-74" x="169.091797"/>
      <use xlink:href="#DejaVuSans-70" x="208.300781"/>
      <use xlink:href="#DejaVuSans-5f" x="271.777344"/>
      <use xlink:href="#DejaVuSans-73" x="321.777344"/>
      <use xlink:href="#DejaVuSans-74" x="373.876953"/>
      <use xlink:href="#DejaVuSans-61" x="413.085938"/>
      <use xlink:href="#DejaVuSans-74" x="474.365234"/>
      <use xlink:href="#DejaVuSans-75" x="513.574219"/>
      <use xlink:href="#DejaVuSans-73" x="576.953125"/>
      <use xlink:href="#DejaVuSans-27" x="629.052734"/>
      <use xlink:href="#DejaVuSans-5d" x="656.542969"/>
     </g>
    </g>
   </g>
   <g id="text_4">
    <g id="patch_6">
     <path d="M 694.4009 649.094219 
L 744.232079 673.849062 
Q 746.381471 674.916825 747.449233 672.767433 
L 750.992869 665.63414 
Q 752.060631 663.484749 749.91124 662.416986 
L 700.08006 637.662143 
Q 697.930669 636.59438 696.862907 638.743772 
L 693.319271 645.877065 
Q 692.251509 648.026456 694.4009 649.094219 
L 694.4009 649.094219 
z
" clip-path="url(#p0bc6d2c250)" style="fill: none"/>
    </g>
    <g clip-path="url(#p0bc6d2c250)">
     <!-- ['http_status'] -->
     <g transform="translate(696.307857 645.25554)rotate(-333.583)scale(0.08 -0.08)">
      <use xlink:href="#DejaVuSans-5b"/>
      <use xlink:href="#DejaVuSans-27" x="39.013672"/>
      <use xlink:href="#DejaVuSans-68" x="66.503906"/>
      <use xlink:href="#DejaVuSans-74" x="129.882812"/>
      <use xlink:href="#DejaVuSans-74" x="169.091797"/>
      <use xlink:href="#DejaVuSans-70" x="208.300781"/>
      <use xlink:href="#DejaVuSans-5f" x="271.777344"/>
      <use xlink:href="#DejaVuSans-73" x="321.777344"/>
      <use xlink:href="#DejaVuSans-74" x="373.876953"/>
      <use xlink:href="#DejaVuSans-61" x="413.085938"/>
      <use xlink:href="#DejaVuSans-74" x="474.365234"/>
      <use xlink:href="#DejaVuSans-75" x="513.574219"/>
      <use xlink:href="#DejaVuSans-73" x="576.953125"/>
      <use xlink:href="#DejaVuSans-27" x="629.052734"/>
      <use xlink:href="#DejaVuSans-5d" x="656.542969"/>
     </g>
    </g>
   </g>
   <g id="text_5">
    <g id="patch_7">
     <path d="M 647.623078 490.094794 
L 648.944129 395.592777 
Q 648.977676 393.193011 646.57791 393.159465 
L 638.613688 393.048132 
Q 636.213923 393.014586 636.180376 395.414351 
L 634.859325 489.916368 
Q 634.825779 492.316134 637.225544 492.34968 
L 645.189766 492.461013 
Q 647.589532 492.494559 647.623078 490.094794 
L 647.623078 490.094794 
z
" clip-path="url(#p0bc6d2c250)" style="fill: none"/>
    </g>
    <g clip-path="url(#p0bc6d2c250)">
     <!-- ['latency', 'http_status'] -->
     <g transform="translate(643.337247 490.034882)rotate(-89.19911)scale(0.08 -0.08)">
      <use xlink:href="#DejaVuSans-5b"/>
      <use xlink:href="#DejaVuSans-27" x="39.013672"/>
      <use xlink:href="#DejaVuSans-6c" x="66.503906"/>
      <use xlink:href="#DejaVuSans-61" x="94.287109"/>
      <use xlink:href="#DejaVuSans-74" x="155.566406"/>
      <use xlink:href="#DejaVuSans-65" x="194.775391"/>
      <use xlink:href="#DejaVuSans-6e" x="256.298828"/>
      <use xlink:href="#DejaVuSans-63" x="319.677734"/>
      <use xlink:href="#DejaVuSans-79" x="374.658203"/>
      <use xlink:href="#DejaVuSans-27" x="433.837891"/>
      <use xlink:href="#DejaVuSans-2c" x="461.328125"/>
      <use xlink:href="#DejaVuSans-20" x="493.115234"/>
      <use xlink:href="#DejaVuSans-27" x="524.902344"/>
      <use xlink:href="#DejaVuSans-68" x="552.392578"/>
      <use xlink:href="#DejaVuSans-74" x="615.771484"/>
      <use xlink:href="#DejaVuSans-74" x="654.980469"/>
      <use xlink:href="#DejaVuSans-70" x="694.189453"/>
      <use xlink:href="#DejaVuSans-5f" x="757.666016"/>
      <use xlink:href="#DejaVuSans-73" x="807.666016"/>
      <use xlink:href="#DejaVuSans-74" x="859.765625"/>
      <use xlink:href="#DejaVuSans-61" x="898.974609"/>
      <use xlink:href="#DejaVuSans-74" x="960.253906"/>
      <use xlink:href="#DejaVuSans-75" x="999.462891"/>
      <use xlink:href="#DejaVuSans-73" x="1062.841797"/>
      <use xlink:href="#DejaVuSans-27" x="1114.941406"/>
      <use xlink:href="#DejaVuSans-5d" x="1142.431641"/>
     </g>
    </g>
   </g>
   <g id="text_6">
    <g id="patch_8">
     <path d="M 587.771777 571.630768 
L 613.874432 522.492188 
Q 615.00033 520.372671 612.880812 519.246773 
L 605.846664 515.510199 
Q 603.727147 514.384301 602.601249 516.503818 
L 576.498594 565.642398 
Q 575.372696 567.761916 577.492213 568.887814 
L 584.526361 572.624388 
Q 586.645879 573.750286 587.771777 571.630768 
L 587.771777 571.630768 
z
" clip-path="url(#p0bc6d2c250)" style="fill: none"/>
    </g>
    <g clip-path="url(#p0bc6d2c250)">
     <!-- ['http_status'] -->
     <g transform="translate(583.986451 569.619985)rotate(-62.022541)scale(0.08 -0.08)">
      <use xlink:href="#DejaVuSans-5b"/>
      <use xlink:href="#DejaVuSans-27" x="39.013672"/>
      <use xlink:href="#DejaVuSans-68" x="66.503906"/>
      <use xlink:href="#DejaVuSans-74" x="129.882812"/>
      <use xlink:href="#DejaVuSans-74" x="169.091797"/>
      <use xlink:href="#DejaVuSans-70" x="208.300781"/>
      <use xlink:href="#DejaVuSans-5f" x="271.777344"/>
      <use xlink:href="#DejaVuSans-73" x="321.777344"/>
      <use xlink:href="#DejaVuSans-74" x="373.876953"/>
      <use xlink:href="#DejaVuSans-61" x="413.085938"/>
      <use xlink:href="#DejaVuSans-74" x="474.365234"/>
      <use xlink:href="#DejaVuSans-75" x="513.574219"/>
      <use xlink:href="#DejaVuSans-73" x="576.953125"/>
      <use xlink:href="#DejaVuSans-27" x="629.052734"/>
      <use xlink:href="#DejaVuSans-5d" x="656.542969"/>
     </g>
    </g>
   </g>
   <g id="patch_9">
    <path d="M 225.92631 346.050661 
Q 223.869969 398.488887 221.857437 449.809938 
" clip-path="url(#p0bc6d2c250)" style="fill: none; stroke: #808080; stroke-linecap: round"/>
    <path d="M 224.012639 445.891379 
L 221.857437 449.809938 
L 220.015711 445.734641 
L 224.012639 445.891379 
z
" clip-path="url(#p0bc6d2c250)" style="fill: #808080; stroke: #808080; stroke-linecap: round"/>
   </g>
   <g id="patch_10">
    <path d="M 444.260435 834.785391 
Q 444.260435 887.216708 444.260435 938.529991 
" clip-path="url(#p0bc6d2c250)" style="fill: none; stroke: #808080; stroke-linecap: round"/>
    <path d="M 446.260435 934.529991 
L 444.260435 938.529991 
L 442.260435 934.529991 
L 446.260435 934.529991 
z
" clip-path="url(#p0bc6d2c250)" style="fill: #808080; stroke: #808080; stroke-linecap: round"/>
   </g>
   <g id="patch_11">
    <path d="M 437.097001 830.995174 
Q 354.427605 887.215002 272.682717 942.806112 
" clip-path="url(#p0bc6d2c250)" style="fill: none; stroke: #808080; stroke-linecap: round"/>
    <path d="M 277.11502 942.210555 
L 272.682717 942.806112 
L 274.865653 938.902936 
L 277.11502 942.210555 
z
" clip-path="url(#p0bc6d2c250)" style="fill: #808080; stroke: #808080; stroke-linecap: round"/>
   </g>
   <g id="patch_12">
    <path d="M 451.588749 830.737894 
Q 541.283114 887.213772 630.031371 943.093935 
" clip-path="url(#p0bc6d2c250)" style="fill: none; stroke: #808080; stroke-linecap: round"/>
    <path d="M 627.712116 939.270185 
L 630.031371 943.093935 
L 625.580819 942.655089 
L 627.712116 939.270185 
z
" clip-path="url(#p0bc6d2c250)" style="fill: #808080; stroke: #808080; stroke-linecap: round"/>
   </g>
   <g id="patch_13">
    <path d="M 452.510111 828.753297 
Q 635.912669 887.214568 818.250002 945.336289 
" clip-path="url(#p0bc6d2c250)" style="fill: none; stroke: #808080; stroke-linecap: round"/>
    <path d="M 815.046342 942.215943 
L 818.250002 945.336289 
L 813.831529 946.02701 
L 815.046342 942.215943 
z
" clip-path="url(#p0bc6d2c250)" style="fill: #808080; stroke: #808080; stroke-linecap: round"/>
   </g>
   <g id="patch_14">
    <path d="M 450.972167 219.243398 
Q 342.450552 276.305173 234.918513 332.846618 
" clip-path="url(#p0bc6d2c250)" style="fill: none; stroke: #808080; stroke-linecap: round"/>
    <path d="M 239.389715 332.755239 
L 234.918513 332.846618 
L 237.528131 329.214829 
L 239.389715 332.755239 
z
" clip-path="url(#p0bc6d2c250)" style="fill: #808080; stroke: #808080; stroke-linecap: round"/>
   </g>
   <g id="patch_15">
    <path d="M 460.721441 223.618088 
Q 504.15123 398.485237 547.311533 572.267317 
" clip-path="url(#p0bc6d2c250)" style="fill: none; stroke: #ff0000; stroke-linecap: round"/>
    <path d="M 548.288421 567.90318 
L 547.311533 572.267317 
L 544.406356 568.867325 
L 548.288421 567.90318 
z
" clip-path="url(#p0bc6d2c250)" style="fill: #ff0000; stroke: #ff0000; stroke-linecap: round"/>
   </g>
   <g id="patch_16">
    <path d="M 465.854093 219.996594 
Q 550.8676 276.305885 634.948996 331.997785 
" clip-path="url(#p0bc6d2c250)" style="fill: none; stroke: #ff0000; stroke-linecap: round"/>
    <path d="M 632.718597 328.121534 
L 634.948996 331.997785 
L 630.509756 331.456354 
L 632.718597 328.121534 
z
" clip-path="url(#p0bc6d2c250)" style="fill: #ff0000; stroke: #ff0000; stroke-linecap: round"/>
   </g>
   <g id="patch_17">
    <path d="M 467.049744 217.268123 
Q 708.979345 276.305299 949.822784 335.077422 
" clip-path="url(#p0bc6d2c250)" style="fill: none; stroke: #ff0000; stroke-linecap: round"/>
    <path d="M 946.410953 332.186158 
L 949.822784 335.077422 
L 945.462674 336.072129 
L 946.410953 332.186158 
z
" clip-path="url(#p0bc6d2c250)" style="fill: #ff0000; stroke: #ff0000; stroke-linecap: round"/>
   </g>
   <g id="patch_18">
    <path d="M 452.603661 221.428413 
Q 340.055276 337.395424 228.285546 452.560128 
" clip-path="url(#p0bc6d2c250)" style="fill: none; stroke: #808080; stroke-linecap: round"/>
    <path d="M 232.506558 451.08261 
L 228.285546 452.560128 
L 229.636138 448.296808 
L 232.506558 451.08261 
z
" clip-path="url(#p0bc6d2c250)" style="fill: #808080; stroke: #808080; stroke-linecap: round"/>
   </g>
   <g id="patch_19">
    <path d="M 555.468681 588.190131 
Q 604.768002 642.849669 653.318511 696.678977 
" clip-path="url(#p0bc6d2c250)" style="fill: none; stroke: #808080; stroke-linecap: round"/>
    <path d="M 652.124638 692.369144 
L 653.318511 696.678977 
L 649.15432 695.048176 
L 652.124638 692.369144 
z
" clip-path="url(#p0bc6d2c250)" style="fill: #808080; stroke: #808080; stroke-linecap: round"/>
   </g>
   <g id="patch_20">
    <path d="M 544.35141 588.597491 
Q 407.132113 765.03338 270.599196 940.586725 
" clip-path="url(#p0bc6d2c250)" style="fill: none; stroke: #808080; stroke-linecap: round"/>
    <path d="M 274.633604 938.657075 
L 270.599196 940.586725 
L 271.47612 936.201409 
L 274.633604 938.657075 
z
" clip-path="url(#p0bc6d2c250)" style="fill: #808080; stroke: #808080; stroke-linecap: round"/>
   </g>
   <g id="patch_21">
    <path d="M 557.830776 584.650669 
Q 722.154969 642.850519 885.425277 700.677107 
" clip-path="url(#p0bc6d2c250)" style="fill: none; stroke: #ff0000; stroke-linecap: round"/>
    <path d="M 882.322492 697.456436 
L 885.425277 700.677107 
L 880.987069 701.226932 
L 882.322492 697.456436 
z
" clip-path="url(#p0bc6d2c250)" style="fill: #ff0000; stroke: #ff0000; stroke-linecap: round"/>
   </g>
   <g id="patch_22">
    <path d="M 543.941361 588.251655 
Q 495.767434 642.850365 448.333211 696.61072 
" clip-path="url(#p0bc6d2c250)" style="fill: none; stroke: #808080; stroke-linecap: round"/>
    <path d="M 452.479349 694.934552 
L 448.333211 696.61072 
L 449.479959 692.288109 
L 452.479349 694.934552 
z
" clip-path="url(#p0bc6d2c250)" style="fill: #808080; stroke: #808080; stroke-linecap: round"/>
   </g>
   <g id="patch_23">
    <path d="M 642.92972 346.058118 
Q 641.901685 398.489435 640.895567 449.802933 
" clip-path="url(#p0bc6d2c250)" style="fill: none; stroke: #ff0000; stroke-linecap: round"/>
    <path d="M 642.973597 445.842909 
L 640.895567 449.802933 
L 638.974365 445.764495 
L 642.973597 445.842909 
z
" clip-path="url(#p0bc6d2c250)" style="fill: #ff0000; stroke: #ff0000; stroke-linecap: round"/>
   </g>
   <g id="patch_24">
    <path d="M 635.528187 466.524737 
Q 595.186114 520.669626 555.512032 573.917974 
" clip-path="url(#p0bc6d2c250)" style="fill: none; stroke: #ff0000; stroke-linecap: round"/>
    <path d="M 559.505695 571.905349 
L 555.512032 573.917974 
L 556.29813 569.515469 
L 559.505695 571.905349 
z
" clip-path="url(#p0bc6d2c250)" style="fill: #ff0000; stroke: #ff0000; stroke-linecap: round"/>
   </g>
   <g id="patch_25">
    <path d="M 442.034617 712.603572 
Q 443.062652 765.03489 444.06877 816.348388 
" clip-path="url(#p0bc6d2c250)" style="fill: none; stroke: #808080; stroke-linecap: round"/>
    <path d="M 445.989971 812.30995 
L 444.06877 816.348388 
L 441.99074 812.388364 
L 445.989971 812.30995 
z
" clip-path="url(#p0bc6d2c250)" style="fill: #808080; stroke: #808080; stroke-linecap: round"/>
   </g>
   <g id="text_7">
    <g id="patch_26">
     <path d="M 229.937017 398.581315 
L 230.335915 388.409134 
Q 230.429957 386.010977 228.0318 385.916934 
L 220.295247 385.613549 
Q 217.89709 385.519506 217.803047 387.917663 
L 217.40415 398.089845 
Q 217.310107 400.488001 219.708264 400.582044 
L 227.444818 400.88543 
Q 229.842975 400.979472 229.937017 398.581315 
L 229.937017 398.581315 
z
" clip-path="url(#p0bc6d2c250)" style="fill: none"/>
    </g>
    <g clip-path="url(#p0bc6d2c250)">
     <!-- 11 -->
     <g transform="translate(225.876388 398.42208)rotate(-87.754323)scale(0.08 -0.08)">
      <defs>
       <path id="DejaVuSans-31" d="M 794 531 
L 1825 531 
L 1825 4091 
L 703 3866 
L 703 4441 
L 1819 4666 
L 2450 4666 
L 2450 531 
L 3481 531 
L 3481 0 
L 794 0 
L 794 531 
z
" transform="scale(0.015625)"/>
      </defs>
      <use xlink:href="#DejaVuSans-31"/>
      <use xlink:href="#DejaVuSans-31" x="63.623047"/>
     </g>
    </g>
   </g>
   <g id="text_8">
    <g id="patch_27">
     <path d="M 437.989185 882.124545 
L 437.989185 887.214545 
Q 437.989185 889.614545 440.389185 889.614545 
L 448.131685 889.614545 
Q 450.531685 889.614545 450.531685 887.214545 
L 450.531685 882.124545 
Q 450.531685 879.724545 448.131685 879.724545 
L 440.389185 879.724545 
Q 437.989185 879.724545 437.989185 882.124545 
L 437.989185 882.124545 
z
" clip-path="url(#p0bc6d2c250)" style="fill: none"/>
    </g>
    <g clip-path="url(#p0bc6d2c250)">
     <!-- 7 -->
     <g transform="translate(442.052935 882.124545)rotate(-270)scale(0.08 -0.08)">
      <defs>
       <path id="DejaVuSans-37" d="M 525 4666 
L 3525 4666 
L 3525 4397 
L 1831 0 
L 1172 0 
L 2766 4134 
L 525 4134 
L 525 4666 
z
" transform="scale(0.015625)"/>
      </defs>
      <use xlink:href="#DejaVuSans-37"/>
     </g>
    </g>
   </g>
   <g id="text_9">
    <g id="patch_28">
     <path d="M 355.850389 889.199117 
L 360.059335 886.336798 
Q 362.043907 884.987178 360.694286 883.002606 
L 356.340355 876.600294 
Q 354.990735 874.615723 353.006163 875.965343 
L 348.797217 878.827662 
Q 346.812645 880.177282 348.162266 882.161854 
L 352.516197 888.564166 
Q 353.865817 890.548737 355.850389 889.199117 
L 355.850389 889.199117 
z
" clip-path="url(#p0bc6d2c250)" style="fill: none"/>
    </g>
    <g clip-path="url(#p0bc6d2c250)">
     <!-- 4 -->
     <g transform="translate(353.565172 885.838782)rotate(-34.217901)scale(0.08 -0.08)">
      <defs>
       <path id="DejaVuSans-34" d="M 2419 4116 
L 825 1625 
L 2419 1625 
L 2419 4116 
z
M 2253 4666 
L 3047 4666 
L 3047 1625 
L 3713 1625 
L 3713 1100 
L 3047 1100 
L 3047 0 
L 2419 0 
L 2419 1100 
L 313 1100 
L 313 1709 
L 2253 4666 
z
" transform="scale(0.015625)"/>
      </defs>
      <use xlink:href="#DejaVuSans-34"/>
     </g>
    </g>
   </g>
   <g id="text_10">
    <g id="patch_29">
     <path d="M 533.635578 883.821335 
L 542.250157 889.245487 
Q 544.281099 890.524266 545.559877 888.493324 
L 549.68527 881.941421 
Q 550.964049 879.910479 548.933107 878.6317 
L 540.318528 873.207548 
Q 538.287586 871.928769 537.008807 873.959711 
L 532.883414 880.511614 
Q 531.604636 882.542556 533.635578 883.821335 
L 533.635578 883.821335 
z
" clip-path="url(#p0bc6d2c250)" style="fill: none"/>
    </g>
    <g clip-path="url(#p0bc6d2c250)">
     <!-- 64 -->
     <g transform="translate(535.800843 880.382485)rotate(-327.803512)scale(0.08 -0.08)">
      <defs>
       <path id="DejaVuSans-36" d="M 2113 2584 
Q 1688 2584 1439 2293 
Q 1191 2003 1191 1497 
Q 1191 994 1439 701 
Q 1688 409 2113 409 
Q 2538 409 2786 701 
Q 3034 994 3034 1497 
Q 3034 2003 2786 2293 
Q 2538 2584 2113 2584 
z
M 3366 4563 
L 3366 3988 
Q 3128 4100 2886 4159 
Q 2644 4219 2406 4219 
Q 1781 4219 1451 3797 
Q 1122 3375 1075 2522 
Q 1259 2794 1537 2939 
Q 1816 3084 2150 3084 
Q 2853 3084 3261 2657 
Q 3669 2231 3669 1497 
Q 3669 778 3244 343 
Q 2819 -91 2113 -91 
Q 1303 -91 875 529 
Q 447 1150 447 2328 
Q 447 3434 972 4092 
Q 1497 4750 2381 4750 
Q 2619 4750 2861 4703 
Q 3103 4656 3366 4563 
z
" transform="scale(0.015625)"/>
      </defs>
      <use xlink:href="#DejaVuSans-36"/>
      <use xlink:href="#DejaVuSans-34" x="63.623047"/>
     </g>
    </g>
   </g>
   <g id="text_11">
    <g id="patch_30">
     <path d="M 631.583207 887.955336 
L 636.432789 889.501185 
Q 638.719429 890.230073 639.448317 887.943433 
L 641.799739 880.566637 
Q 642.528627 878.279997 640.241987 877.551109 
L 635.392405 876.00526 
Q 633.105765 875.276372 632.376877 877.563012 
L 630.025455 884.939808 
Q 629.296567 887.226448 631.583207 887.955336 
L 631.583207 887.955336 
z
" clip-path="url(#p0bc6d2c250)" style="fill: none"/>
    </g>
    <g clip-path="url(#p0bc6d2c250)">
     <!-- 4 -->
     <g transform="translate(632.817381 884.08353)rotate(-342.319835)scale(0.08 -0.08)">
      <use xlink:href="#DejaVuSans-34"/>
     </g>
    </g>
   </g>
   <g id="text_12">
    <g id="patch_31">
     <path d="M 340.863458 278.429701 
L 349.873803 273.69197 
Q 351.998049 272.575019 350.881098 270.450773 
L 347.27777 263.597866 
Q 346.16082 261.47362 344.036573 262.590571 
L 335.026229 267.328302 
Q 332.901983 268.445252 334.018933 270.569498 
L 337.622262 277.422405 
Q 338.739212 279.546651 340.863458 278.429701 
L 340.863458 278.429701 
z
" clip-path="url(#p0bc6d2c250)" style="fill: none"/>
    </g>
    <g clip-path="url(#p0bc6d2c250)">
     <!-- 39 -->
     <g transform="translate(338.972205 274.832865)rotate(-27.735852)scale(0.08 -0.08)">
      <defs>
       <path id="DejaVuSans-33" d="M 2597 2516 
Q 3050 2419 3304 2112 
Q 3559 1806 3559 1356 
Q 3559 666 3084 287 
Q 2609 -91 1734 -91 
Q 1441 -91 1130 -33 
Q 819 25 488 141 
L 488 750 
Q 750 597 1062 519 
Q 1375 441 1716 441 
Q 2309 441 2620 675 
Q 2931 909 2931 1356 
Q 2931 1769 2642 2001 
Q 2353 2234 1838 2234 
L 1294 2234 
L 1294 2753 
L 1863 2753 
Q 2328 2753 2575 2939 
Q 2822 3125 2822 3475 
Q 2822 3834 2567 4026 
Q 2313 4219 1838 4219 
Q 1578 4219 1281 4162 
Q 984 4106 628 3988 
L 628 4550 
Q 988 4650 1302 4700 
Q 1616 4750 1894 4750 
Q 2613 4750 3031 4423 
Q 3450 4097 3450 3541 
Q 3450 3153 3228 2886 
Q 3006 2619 2597 2516 
z
" transform="scale(0.015625)"/>
       <path id="DejaVuSans-39" d="M 703 97 
L 703 672 
Q 941 559 1184 500 
Q 1428 441 1663 441 
Q 2288 441 2617 861 
Q 2947 1281 2994 2138 
Q 2813 1869 2534 1725 
Q 2256 1581 1919 1581 
Q 1219 1581 811 2004 
Q 403 2428 403 3163 
Q 403 3881 828 4315 
Q 1253 4750 1959 4750 
Q 2769 4750 3195 4129 
Q 3622 3509 3622 2328 
Q 3622 1225 3098 567 
Q 2575 -91 1691 -91 
Q 1453 -91 1209 -44 
Q 966 3 703 97 
z
M 1959 2075 
Q 2384 2075 2632 2365 
Q 2881 2656 2881 3163 
Q 2881 3666 2632 3958 
Q 2384 4250 1959 4250 
Q 1534 4250 1286 3958 
Q 1038 3666 1038 3163 
Q 1038 2656 1286 2365 
Q 1534 2075 1959 2075 
z
" transform="scale(0.015625)"/>
      </defs>
      <use xlink:href="#DejaVuSans-33"/>
      <use xlink:href="#DejaVuSans-39" x="63.623047"/>
     </g>
    </g>
   </g>
   <g id="text_13">
    <g id="patch_32">
     <path d="M 496.838512 389.185905 
L 499.292261 399.06576 
Q 499.870748 401.394998 502.199986 400.816511 
L 509.714208 398.950289 
Q 512.043446 398.371802 511.464959 396.042563 
L 509.011211 386.162709 
Q 508.432724 383.83347 506.103485 384.411957 
L 498.589264 386.27818 
Q 496.260026 386.856667 496.838512 389.185905 
L 496.838512 389.185905 
z
" clip-path="url(#p0bc6d2c250)" style="fill: none"/>
    </g>
    <g clip-path="url(#p0bc6d2c250)">
     <!-- 12 -->
     <g transform="translate(500.782447 388.206395)rotate(-283.947705)scale(0.08 -0.08)">
      <defs>
       <path id="DejaVuSans-32" d="M 1228 531 
L 3431 531 
L 3431 0 
L 469 0 
L 469 531 
Q 828 903 1448 1529 
Q 2069 2156 2228 2338 
Q 2531 2678 2651 2914 
Q 2772 3150 2772 3378 
Q 2772 3750 2511 3984 
Q 2250 4219 1831 4219 
Q 1534 4219 1204 4116 
Q 875 4013 500 3803 
L 500 4441 
Q 881 4594 1212 4672 
Q 1544 4750 1819 4750 
Q 2544 4750 2975 4387 
Q 3406 4025 3406 3419 
Q 3406 3131 3298 2873 
Q 3191 2616 2906 2266 
Q 2828 2175 2409 1742 
Q 1991 1309 1228 531 
z
" transform="scale(0.015625)"/>
      </defs>
      <use xlink:href="#DejaVuSans-31"/>
      <use xlink:href="#DejaVuSans-32" x="63.623047"/>
     </g>
    </g>
   </g>
   <g id="text_14">
    <g id="patch_33">
     <path d="M 545.282123 275.495596 
L 549.525681 278.306346 
Q 551.526572 279.631651 552.851877 277.630759 
L 557.127365 271.175799 
Q 558.45267 269.174907 556.451778 267.849603 
L 552.20822 265.038853 
Q 550.207328 263.713548 548.882024 265.71444 
L 544.606536 272.1694 
Q 543.281231 274.170291 545.282123 275.495596 
L 545.282123 275.495596 
z
" clip-path="url(#p0bc6d2c250)" style="fill: none"/>
    </g>
    <g clip-path="url(#p0bc6d2c250)">
     <!-- 8 -->
     <g transform="translate(547.526167 272.107628)rotate(-326.481222)scale(0.08 -0.08)">
      <defs>
       <path id="DejaVuSans-38" d="M 2034 2216 
Q 1584 2216 1326 1975 
Q 1069 1734 1069 1313 
Q 1069 891 1326 650 
Q 1584 409 2034 409 
Q 2484 409 2743 651 
Q 3003 894 3003 1313 
Q 3003 1734 2745 1975 
Q 2488 2216 2034 2216 
z
M 1403 2484 
Q 997 2584 770 2862 
Q 544 3141 544 3541 
Q 544 4100 942 4425 
Q 1341 4750 2034 4750 
Q 2731 4750 3128 4425 
Q 3525 4100 3525 3541 
Q 3525 3141 3298 2862 
Q 3072 2584 2669 2484 
Q 3125 2378 3379 2068 
Q 3634 1759 3634 1313 
Q 3634 634 3220 271 
Q 2806 -91 2034 -91 
Q 1263 -91 848 271 
Q 434 634 434 1313 
Q 434 1759 690 2068 
Q 947 2378 1403 2484 
z
M 1172 3481 
Q 1172 3119 1398 2916 
Q 1625 2713 2034 2713 
Q 2441 2713 2670 2916 
Q 2900 3119 2900 3481 
Q 2900 3844 2670 4047 
Q 2441 4250 2034 4250 
Q 1625 4250 1398 4047 
Q 1172 3844 1172 3481 
z
" transform="scale(0.015625)"/>
      </defs>
      <use xlink:href="#DejaVuSans-38"/>
     </g>
    </g>
   </g>
   <g id="text_15">
    <g id="patch_34">
     <path d="M 702.548363 276.223667 
L 712.438158 278.637037 
Q 714.76974 279.206004 715.338707 276.874422 
L 717.17422 269.35264 
Q 717.743187 267.021058 715.411605 266.45209 
L 705.52181 264.038721 
Q 703.190227 263.469753 702.62126 265.801336 
L 700.785748 273.323117 
Q 700.21678 275.6547 702.548363 276.223667 
L 702.548363 276.223667 
z
" clip-path="url(#p0bc6d2c250)" style="fill: none"/>
    </g>
    <g clip-path="url(#p0bc6d2c250)">
     <!-- 19 -->
     <g transform="translate(703.511755 272.275764)rotate(-346.286343)scale(0.08 -0.08)">
      <use xlink:href="#DejaVuSans-31"/>
      <use xlink:href="#DejaVuSans-39" x="63.623047"/>
     </g>
    </g>
   </g>
   <g id="text_16">
    <g id="patch_35">
     <path d="M 339.237245 339.067845 
L 349.872043 328.110018 
Q 351.543524 326.387766 349.821272 324.716285 
L 344.265216 319.324017 
Q 342.542964 317.652536 340.871483 319.374788 
L 330.236685 330.332615 
Q 328.565204 332.054867 330.287456 333.726348 
L 335.843512 339.118615 
Q 337.565764 340.790096 339.237245 339.067845 
L 339.237245 339.067845 
z
" clip-path="url(#p0bc6d2c250)" style="fill: none"/>
    </g>
    <g clip-path="url(#p0bc6d2c250)">
     <!-- 160 -->
     <g transform="translate(336.321078 336.237644)rotate(-45.85709)scale(0.08 -0.08)">
      <defs>
       <path id="DejaVuSans-30" d="M 2034 4250 
Q 1547 4250 1301 3770 
Q 1056 3291 1056 2328 
Q 1056 1369 1301 889 
Q 1547 409 2034 409 
Q 2525 409 2770 889 
Q 3016 1369 3016 2328 
Q 3016 3291 2770 3770 
Q 2525 4250 2034 4250 
z
M 2034 4750 
Q 2819 4750 3233 4129 
Q 3647 3509 3647 2328 
Q 3647 1150 3233 529 
Q 2819 -91 2034 -91 
Q 1250 -91 836 529 
Q 422 1150 422 2328 
Q 422 3509 836 4129 
Q 1250 4750 2034 4750 
z
" transform="scale(0.015625)"/>
      </defs>
      <use xlink:href="#DejaVuSans-31"/>
      <use xlink:href="#DejaVuSans-36" x="63.623047"/>
      <use xlink:href="#DejaVuSans-30" x="127.246094"/>
     </g>
    </g>
   </g>
   <g id="text_17">
    <g id="patch_36">
     <path d="M 596.703151 636.89887 
L 603.521288 644.458328 
Q 605.128707 646.240519 606.910898 644.6331 
L 612.660319 639.447498 
Q 614.44251 637.840079 612.83509 636.057889 
L 606.016954 628.49843 
Q 604.409535 626.716239 602.627344 628.323658 
L 596.877923 633.50926 
Q 595.095732 635.116679 596.703151 636.89887 
L 596.703151 636.89887 
z
" clip-path="url(#p0bc6d2c250)" style="fill: none"/>
    </g>
    <g clip-path="url(#p0bc6d2c250)">
     <!-- 16 -->
     <g transform="translate(599.720809 634.17714)rotate(-312.048389)scale(0.08 -0.08)">
      <use xlink:href="#DejaVuSans-31"/>
      <use xlink:href="#DejaVuSans-36" x="63.623047"/>
     </g>
    </g>
   </g>
   <g id="text_18">
    <g id="patch_37">
     <path d="M 408.958127 766.506127 
L 415.207798 758.470331 
Q 416.681198 756.575841 414.786708 755.102441 
L 408.675004 750.349192 
Q 406.780513 748.875792 405.307114 750.770282 
L 399.057443 758.806078 
Q 397.584043 760.700568 399.478533 762.173968 
L 405.590237 766.927217 
Q 407.484727 768.400617 408.958127 766.506127 
L 408.958127 766.506127 
z
" clip-path="url(#p0bc6d2c250)" style="fill: none"/>
    </g>
    <g clip-path="url(#p0bc6d2c250)">
     <!-- 54 -->
     <g transform="translate(405.750321 764.011324)rotate(-52.12676)scale(0.08 -0.08)">
      <defs>
       <path id="DejaVuSans-35" d="M 691 4666 
L 3169 4666 
L 3169 4134 
L 1269 4134 
L 1269 2991 
Q 1406 3038 1543 3061 
Q 1681 3084 1819 3084 
Q 2600 3084 3056 2656 
Q 3513 2228 3513 1497 
Q 3513 744 3044 326 
Q 2575 -91 1722 -91 
Q 1428 -91 1123 -41 
Q 819 9 494 109 
L 494 744 
Q 775 591 1075 516 
Q 1375 441 1709 441 
Q 2250 441 2565 725 
Q 2881 1009 2881 1497 
Q 2881 1984 2565 2268 
Q 2250 2553 1709 2553 
Q 1456 2553 1204 2497 
Q 953 2441 691 2322 
L 691 4666 
z
" transform="scale(0.015625)"/>
      </defs>
      <use xlink:href="#DejaVuSans-35"/>
      <use xlink:href="#DejaVuSans-34" x="63.623047"/>
     </g>
    </g>
   </g>
   <g id="text_19">
    <g id="patch_38">
     <path d="M 715.26442 641.714555 
L 724.860334 645.113207 
Q 727.122632 645.914461 727.923886 643.652163 
L 730.508764 636.353895 
Q 731.310018 634.091597 729.04772 633.290344 
L 719.451806 629.891692 
Q 717.189508 629.090438 716.388254 631.352736 
L 713.803376 638.651003 
Q 713.002122 640.913301 715.26442 641.714555 
L 715.26442 641.714555 
z
" clip-path="url(#p0bc6d2c250)" style="fill: none"/>
    </g>
    <g clip-path="url(#p0bc6d2c250)">
     <!-- 15 -->
     <g transform="translate(716.621126 637.883966)rotate(-340.497026)scale(0.08 -0.08)">
      <use xlink:href="#DejaVuSans-31"/>
      <use xlink:href="#DejaVuSans-35" x="63.623047"/>
     </g>
    </g>
   </g>
   <g id="text_20">
    <g id="patch_39">
     <path d="M 495.418036 644.438775 
L 505.520833 632.988605 
Q 507.108699 631.188971 505.309065 629.601105 
L 499.503371 624.478583 
Q 497.703737 622.890718 496.115872 624.690351 
L 486.013075 636.140522 
Q 484.425209 637.940156 486.224843 639.528021 
L 492.030537 644.650543 
Q 493.83017 646.238409 495.418036 644.438775 
L 495.418036 644.438775 
z
" clip-path="url(#p0bc6d2c250)" style="fill: none"/>
    </g>
    <g clip-path="url(#p0bc6d2c250)">
     <!-- 100 -->
     <g transform="translate(492.370844 641.750154)rotate(-48.577164)scale(0.08 -0.08)">
      <use xlink:href="#DejaVuSans-31"/>
      <use xlink:href="#DejaVuSans-30" x="63.623047"/>
      <use xlink:href="#DejaVuSans-30" x="127.246094"/>
     </g>
    </g>
   </g>
   <g id="text_21">
    <g id="patch_40">
     <path d="M 648.121881 398.534321 
L 648.221663 393.445299 
Q 648.268711 391.04576 645.869173 390.998712 
L 638.12816 390.846932 
Q 635.728622 390.799884 635.681573 393.199422 
L 635.581791 398.288444 
Q 635.534743 400.687983 637.934282 400.735031 
L 645.675294 400.886812 
Q 648.074833 400.93386 648.121881 398.534321 
L 648.121881 398.534321 
z
" clip-path="url(#p0bc6d2c250)" style="fill: none"/>
    </g>
    <g clip-path="url(#p0bc6d2c250)">
     <!-- 4 -->
     <g transform="translate(644.058912 398.454657)rotate(-88.87673)scale(0.08 -0.08)">
      <use xlink:href="#DejaVuSans-34"/>
     </g>
    </g>
   </g>
   <g id="text_22">
    <g id="patch_41">
     <path d="M 598.694811 522.103019 
L 601.735934 518.021393 
Q 603.169863 516.096854 601.245324 514.662926 
L 595.036681 510.037014 
Q 593.112142 508.603085 591.678214 510.527624 
L 588.637091 514.60925 
Q 587.203163 516.533789 589.127702 517.967717 
L 595.336344 522.59363 
Q 597.260883 524.027558 598.694811 522.103019 
L 598.694811 522.103019 
z
" clip-path="url(#p0bc6d2c250)" style="fill: none"/>
    </g>
    <g clip-path="url(#p0bc6d2c250)">
     <!-- 3 -->
     <g transform="translate(595.436126 519.67505)rotate(-53.311078)scale(0.08 -0.08)">
      <use xlink:href="#DejaVuSans-33"/>
     </g>
    </g>
   </g>
   <g id="text_23">
    <g id="patch_42">
     <path d="M 436.742674 759.990754 
L 436.842455 765.079776 
Q 436.889504 767.479314 439.289043 767.432266 
L 447.030055 767.280486 
Q 449.429594 767.233438 449.382545 764.833899 
L 449.282763 759.744877 
Q 449.235715 757.345338 446.836176 757.392386 
L 439.095164 757.544167 
Q 436.695625 757.591215 436.742674 759.990754 
L 436.742674 759.990754 
z
" clip-path="url(#p0bc6d2c250)" style="fill: none"/>
    </g>
    <g clip-path="url(#p0bc6d2c250)">
     <!-- 5 -->
     <g transform="translate(440.805643 759.91109)rotate(-271.12327)scale(0.08 -0.08)">
      <use xlink:href="#DejaVuSans-35"/>
     </g>
    </g>
   </g>
   <g id="matplotlib.axis_1">
    <g id="xtick_1"/>
    <g id="xtick_2"/>
    <g id="xtick_3"/>
    <g id="xtick_4"/>
    <g id="xtick_5"/>
    <g id="xtick_6"/>
    <g id="xtick_7"/>
    <g id="xtick_8"/>
   </g>
   <g id="matplotlib.axis_2">
    <g id="ytick_1"/>
    <g id="ytick_2"/>
    <g id="ytick_3"/>
    <g id="ytick_4"/>
    <g id="ytick_5"/>
   </g>
   <g id="PathCollection_1">
    <defs>
     <path id="C0_0_9d374768ab" d="M 0 8.660254 
C 2.296726 8.660254 4.499694 7.747755 6.123724 6.123724 
C 7.747755 4.499694 8.660254 2.296726 8.660254 -0 
C 8.660254 -2.296726 7.747755 -4.499694 6.123724 -6.123724 
C 4.499694 -7.747755 2.296726 -8.660254 0 -8.660254 
C -2.296726 -8.660254 -4.499694 -7.747755 -6.123724 -6.123724 
C -7.747755 -4.499694 -8.660254 -2.296726 -8.660254 0 
C -8.660254 2.296726 -7.747755 4.499694 -6.123724 6.123724 
C -4.499694 7.747755 -2.296726 8.660254 0 8.660254 
z
"/>
    </defs>
    <g clip-path="url(#p0bc6d2c250)">
     <use xlink:href="#C0_0_9d374768ab" x="226.265684" y="337.396364" style="fill: #1f78b4; stroke: #1f78b4"/>
    </g>
    <g clip-path="url(#p0bc6d2c250)">
     <use xlink:href="#C0_0_9d374768ab" x="221.47438" y="459.578182" style="fill: #1f78b4; stroke: #1f78b4"/>
    </g>
    <g clip-path="url(#p0bc6d2c250)">
     <use xlink:href="#C0_0_9d374768ab" x="444.260435" y="826.123636" style="fill: #1f78b4; stroke: #1f78b4"/>
    </g>
    <g clip-path="url(#p0bc6d2c250)">
     <use xlink:href="#C0_0_9d374768ab" x="444.260435" y="948.305455" style="fill: #1f78b4; stroke: #1f78b4"/>
    </g>
    <g clip-path="url(#p0bc6d2c250)">
     <use xlink:href="#C0_0_9d374768ab" x="264.596117" y="948.305455" style="fill: #1f78b4; stroke: #1f78b4"/>
    </g>
    <g clip-path="url(#p0bc6d2c250)">
     <use xlink:href="#C0_0_9d374768ab" x="638.308249" y="948.305455" style="fill: #1f78b4; stroke: #1f78b4"/>
    </g>
    <g clip-path="url(#p0bc6d2c250)">
     <use xlink:href="#C0_0_9d374768ab" x="827.564759" y="948.305455" style="fill: #1f78b4; stroke: #1f78b4"/>
    </g>
    <g clip-path="url(#p0bc6d2c250)">
     <use xlink:href="#C0_0_9d374768ab" x="458.634348" y="215.214545" style="fill: #1f78b4; stroke: #1f78b4"/>
    </g>
    <g clip-path="url(#p0bc6d2c250)">
     <use xlink:href="#C0_0_9d374768ab" x="549.669124" y="581.76" style="fill: #50a832; stroke: #50a832"/>
    </g>
    <g clip-path="url(#p0bc6d2c250)">
     <use xlink:href="#C0_0_9d374768ab" x="643.099553" y="337.396364" style="fill: #8ca832; stroke: #8ca832"/>
    </g>
    <g clip-path="url(#p0bc6d2c250)">
     <use xlink:href="#C0_0_9d374768ab" x="959.32562" y="337.396364" style="fill: #a85832; stroke: #a85832"/>
    </g>
    <g clip-path="url(#p0bc6d2c250)">
     <use xlink:href="#C0_0_9d374768ab" x="640.703901" y="459.578182" style="fill: #32a871; stroke: #32a871"/>
    </g>
    <g clip-path="url(#p0bc6d2c250)">
     <use xlink:href="#C0_0_9d374768ab" x="441.864783" y="703.941818" style="fill: #1f78b4; stroke: #1f78b4"/>
    </g>
    <g clip-path="url(#p0bc6d2c250)">
     <use xlink:href="#C0_0_9d374768ab" x="659.869117" y="703.941818" style="fill: #1f78b4; stroke: #1f78b4"/>
    </g>
    <g clip-path="url(#p0bc6d2c250)">
     <use xlink:href="#C0_0_9d374768ab" x="894.643015" y="703.941818" style="fill: #a88e32; stroke: #a88e32"/>
    </g>
   </g>
   <g id="patch_43">
    <path d="M 144 1025.28 
L 144 138.24 
" style="fill: none; stroke: #000000; stroke-width: 0.8; stroke-linejoin: miter; stroke-linecap: square"/>
   </g>
   <g id="patch_44">
    <path d="M 1036.8 1025.28 
L 1036.8 138.24 
" style="fill: none; stroke: #000000; stroke-width: 0.8; stroke-linejoin: miter; stroke-linecap: square"/>
   </g>
   <g id="patch_45">
    <path d="M 144 1025.28 
L 1036.8 1025.28 
" style="fill: none; stroke: #000000; stroke-width: 0.8; stroke-linejoin: miter; stroke-linecap: square"/>
   </g>
   <g id="patch_46">
    <path d="M 144 138.24 
L 1036.8 138.24 
" style="fill: none; stroke: #000000; stroke-width: 0.8; stroke-linejoin: miter; stroke-linecap: square"/>
   </g>
   <g id="text_24">
    <g clip-path="url(#p0bc6d2c250)">
     <!-- auth -->
     <g transform="translate(213.767794 340.431676)scale(0.11 -0.11)">
      <use xlink:href="#DejaVuSans-61"/>
      <use xlink:href="#DejaVuSans-75" x="61.279297"/>
      <use xlink:href="#DejaVuSans-74" x="124.658203"/>
      <use xlink:href="#DejaVuSans-68" x="163.867188"/>
     </g>
    </g>
   </g>
   <g id="text_25">
    <g clip-path="url(#p0bc6d2c250)">
     <!-- verification-code -->
     <g transform="translate(175.402427 462.613494)scale(0.11 -0.11)">
      <defs>
       <path id="DejaVuSans-76" d="M 191 3500 
L 800 3500 
L 1894 563 
L 2988 3500 
L 3597 3500 
L 2284 0 
L 1503 0 
L 191 3500 
z
" transform="scale(0.015625)"/>
       <path id="DejaVuSans-72" d="M 2631 2963 
Q 2534 3019 2420 3045 
Q 2306 3072 2169 3072 
Q 1681 3072 1420 2755 
Q 1159 2438 1159 1844 
L 1159 0 
L 581 0 
L 581 3500 
L 1159 3500 
L 1159 2956 
Q 1341 3275 1631 3429 
Q 1922 3584 2338 3584 
Q 2397 3584 2469 3576 
Q 2541 3569 2628 3553 
L 2631 2963 
z
" transform="scale(0.015625)"/>
       <path id="DejaVuSans-69" d="M 603 3500 
L 1178 3500 
L 1178 0 
L 603 0 
L 603 3500 
z
M 603 4863 
L 1178 4863 
L 1178 4134 
L 603 4134 
L 603 4863 
z
" transform="scale(0.015625)"/>
       <path id="DejaVuSans-66" d="M 2375 4863 
L 2375 4384 
L 1825 4384 
Q 1516 4384 1395 4259 
Q 1275 4134 1275 3809 
L 1275 3500 
L 2222 3500 
L 2222 3053 
L 1275 3053 
L 1275 0 
L 697 0 
L 697 3053 
L 147 3053 
L 147 3500 
L 697 3500 
L 697 3744 
Q 697 4328 969 4595 
Q 1241 4863 1831 4863 
L 2375 4863 
z
" transform="scale(0.015625)"/>
       <path id="DejaVuSans-6f" d="M 1959 3097 
Q 1497 3097 1228 2736 
Q 959 2375 959 1747 
Q 959 1119 1226 758 
Q 1494 397 1959 397 
Q 2419 397 2687 759 
Q 2956 1122 2956 1747 
Q 2956 2369 2687 2733 
Q 2419 3097 1959 3097 
z
M 1959 3584 
Q 2709 3584 3137 3096 
Q 3566 2609 3566 1747 
Q 3566 888 3137 398 
Q 2709 -91 1959 -91 
Q 1206 -91 779 398 
Q 353 888 353 1747 
Q 353 2609 779 3096 
Q 1206 3584 1959 3584 
z
" transform="scale(0.015625)"/>
       <path id="DejaVuSans-2d" d="M 313 2009 
L 1997 2009 
L 1997 1497 
L 313 1497 
L 313 2009 
z
" transform="scale(0.015625)"/>
       <path id="DejaVuSans-64" d="M 2906 2969 
L 2906 4863 
L 3481 4863 
L 3481 0 
L 2906 0 
L 2906 525 
Q 2725 213 2448 61 
Q 2172 -91 1784 -91 
Q 1150 -91 751 415 
Q 353 922 353 1747 
Q 353 2572 751 3078 
Q 1150 3584 1784 3584 
Q 2172 3584 2448 3432 
Q 2725 3281 2906 2969 
z
M 947 1747 
Q 947 1113 1208 752 
Q 1469 391 1925 391 
Q 2381 391 2643 752 
Q 2906 1113 2906 1747 
Q 2906 2381 2643 2742 
Q 2381 3103 1925 3103 
Q 1469 3103 1208 2742 
Q 947 2381 947 1747 
z
" transform="scale(0.015625)"/>
      </defs>
      <use xlink:href="#DejaVuSans-76"/>
      <use xlink:href="#DejaVuSans-65" x="59.179688"/>
      <use xlink:href="#DejaVuSans-72" x="120.703125"/>
      <use xlink:href="#DejaVuSans-69" x="161.816406"/>
      <use xlink:href="#DejaVuSans-66" x="189.599609"/>
      <use xlink:href="#DejaVuSans-69" x="224.804688"/>
      <use xlink:href="#DejaVuSans-63" x="252.587891"/>
      <use xlink:href="#DejaVuSans-61" x="307.568359"/>
      <use xlink:href="#DejaVuSans-74" x="368.847656"/>
      <use xlink:href="#DejaVuSans-69" x="408.056641"/>
      <use xlink:href="#DejaVuSans-6f" x="435.839844"/>
      <use xlink:href="#DejaVuSans-6e" x="497.021484"/>
      <use xlink:href="#DejaVuSans-2d" x="560.400391"/>
      <use xlink:href="#DejaVuSans-63" x="596.484375"/>
      <use xlink:href="#DejaVuSans-6f" x="651.464844"/>
      <use xlink:href="#DejaVuSans-64" x="712.646484"/>
      <use xlink:href="#DejaVuSans-65" x="776.123047"/>
     </g>
    </g>
   </g>
   <g id="text_26">
    <g clip-path="url(#p0bc6d2c250)">
     <!-- basic -->
     <g transform="translate(429.98106 829.158949)scale(0.11 -0.11)">
      <defs>
       <path id="DejaVuSans-62" d="M 3116 1747 
Q 3116 2381 2855 2742 
Q 2594 3103 2138 3103 
Q 1681 3103 1420 2742 
Q 1159 2381 1159 1747 
Q 1159 1113 1420 752 
Q 1681 391 2138 391 
Q 2594 391 2855 752 
Q 3116 1113 3116 1747 
z
M 1159 2969 
Q 1341 3281 1617 3432 
Q 1894 3584 2278 3584 
Q 2916 3584 3314 3078 
Q 3713 2572 3713 1747 
Q 3713 922 3314 415 
Q 2916 -91 2278 -91 
Q 1894 -91 1617 61 
Q 1341 213 1159 525 
L 1159 0 
L 581 0 
L 581 4863 
L 1159 4863 
L 1159 2969 
z
" transform="scale(0.015625)"/>
      </defs>
      <use xlink:href="#DejaVuSans-62"/>
      <use xlink:href="#DejaVuSans-61" x="63.476562"/>
      <use xlink:href="#DejaVuSans-73" x="124.755859"/>
      <use xlink:href="#DejaVuSans-69" x="176.855469"/>
      <use xlink:href="#DejaVuSans-63" x="204.638672"/>
     </g>
    </g>
   </g>
   <g id="text_27">
    <g clip-path="url(#p0bc6d2c250)">
     <!-- price -->
     <g transform="translate(430.571451 951.340767)scale(0.11 -0.11)">
      <use xlink:href="#DejaVuSans-70"/>
      <use xlink:href="#DejaVuSans-72" x="63.476562"/>
      <use xlink:href="#DejaVuSans-69" x="104.589844"/>
      <use xlink:href="#DejaVuSans-63" x="132.373047"/>
      <use xlink:href="#DejaVuSans-65" x="187.353516"/>
     </g>
    </g>
   </g>
   <g id="text_28">
    <g clip-path="url(#p0bc6d2c250)">
     <!-- route -->
     <g transform="translate(250.067523 951.340767)scale(0.11 -0.11)">
      <use xlink:href="#DejaVuSans-72"/>
      <use xlink:href="#DejaVuSans-6f" x="38.863281"/>
      <use xlink:href="#DejaVuSans-75" x="100.044922"/>
      <use xlink:href="#DejaVuSans-74" x="163.423828"/>
      <use xlink:href="#DejaVuSans-65" x="202.632812"/>
     </g>
    </g>
   </g>
   <g id="text_29">
    <g clip-path="url(#p0bc6d2c250)">
     <!-- station -->
     <g transform="translate(619.381374 951.340767)scale(0.11 -0.11)">
      <use xlink:href="#DejaVuSans-73"/>
      <use xlink:href="#DejaVuSans-74" x="52.099609"/>
      <use xlink:href="#DejaVuSans-61" x="91.308594"/>
      <use xlink:href="#DejaVuSans-74" x="152.587891"/>
      <use xlink:href="#DejaVuSans-69" x="191.796875"/>
      <use xlink:href="#DejaVuSans-6f" x="219.580078"/>
      <use xlink:href="#DejaVuSans-6e" x="280.761719"/>
     </g>
    </g>
   </g>
   <g id="text_30">
    <g clip-path="url(#p0bc6d2c250)">
     <!-- train -->
     <g transform="translate(814.763509 951.340767)scale(0.11 -0.11)">
      <use xlink:href="#DejaVuSans-74"/>
      <use xlink:href="#DejaVuSans-72" x="39.208984"/>
      <use xlink:href="#DejaVuSans-61" x="80.322266"/>
      <use xlink:href="#DejaVuSans-69" x="141.601562"/>
      <use xlink:href="#DejaVuSans-6e" x="169.384766"/>
     </g>
    </g>
   </g>
   <g id="text_31">
    <g clip-path="url(#p0bc6d2c250)">
     <!-- gateway -->
     <g transform="translate(435.108098 218.249858)scale(0.11 -0.11)">
      <defs>
       <path id="DejaVuSans-67" d="M 2906 1791 
Q 2906 2416 2648 2759 
Q 2391 3103 1925 3103 
Q 1463 3103 1205 2759 
Q 947 2416 947 1791 
Q 947 1169 1205 825 
Q 1463 481 1925 481 
Q 2391 481 2648 825 
Q 2906 1169 2906 1791 
z
M 3481 434 
Q 3481 -459 3084 -895 
Q 2688 -1331 1869 -1331 
Q 1566 -1331 1297 -1286 
Q 1028 -1241 775 -1147 
L 775 -588 
Q 1028 -725 1275 -790 
Q 1522 -856 1778 -856 
Q 2344 -856 2625 -561 
Q 2906 -266 2906 331 
L 2906 616 
Q 2728 306 2450 153 
Q 2172 0 1784 0 
Q 1141 0 747 490 
Q 353 981 353 1791 
Q 353 2603 747 3093 
Q 1141 3584 1784 3584 
Q 2172 3584 2450 3431 
Q 2728 3278 2906 2969 
L 2906 3500 
L 3481 3500 
L 3481 434 
z
" transform="scale(0.015625)"/>
       <path id="DejaVuSans-77" d="M 269 3500 
L 844 3500 
L 1563 769 
L 2278 3500 
L 2956 3500 
L 3675 769 
L 4391 3500 
L 4966 3500 
L 4050 0 
L 3372 0 
L 2619 2869 
L 1863 0 
L 1184 0 
L 269 3500 
z
" transform="scale(0.015625)"/>
      </defs>
      <use xlink:href="#DejaVuSans-67"/>
      <use xlink:href="#DejaVuSans-61" x="63.476562"/>
      <use xlink:href="#DejaVuSans-74" x="124.755859"/>
      <use xlink:href="#DejaVuSans-65" x="163.964844"/>
      <use xlink:href="#DejaVuSans-77" x="225.488281"/>
      <use xlink:href="#DejaVuSans-61" x="307.275391"/>
      <use xlink:href="#DejaVuSans-79" x="368.554688"/>
     </g>
    </g>
   </g>
   <g id="text_32">
    <g clip-path="url(#p0bc6d2c250)">
     <!-- travel -->
     <g transform="translate(533.713968 584.795313)scale(0.11 -0.11)">
      <use xlink:href="#DejaVuSans-74"/>
      <use xlink:href="#DejaVuSans-72" x="39.208984"/>
      <use xlink:href="#DejaVuSans-61" x="80.322266"/>
      <use xlink:href="#DejaVuSans-76" x="141.601562"/>
      <use xlink:href="#DejaVuSans-65" x="200.78125"/>
      <use xlink:href="#DejaVuSans-6c" x="262.304688"/>
     </g>
    </g>
   </g>
   <g id="text_33">
    <g clip-path="url(#p0bc6d2c250)">
     <!-- travel-plan -->
     <g transform="translate(613.284397 340.431676)scale(0.11 -0.11)">
      <use xlink:href="#DejaVuSans-74"/>
      <use xlink:href="#DejaVuSans-72" x="39.208984"/>
      <use xlink:href="#DejaVuSans-61" x="80.322266"/>
      <use xlink:href="#DejaVuSans-76" x="141.601562"/>
      <use xlink:href="#DejaVuSans-65" x="200.78125"/>
      <use xlink:href="#DejaVuSans-6c" x="262.304688"/>
      <use xlink:href="#DejaVuSans-2d" x="290.087891"/>
      <use xlink:href="#DejaVuSans-70" x="326.171875"/>
      <use xlink:href="#DejaVuSans-6c" x="389.648438"/>
      <use xlink:href="#DejaVuSans-61" x="417.431641"/>
      <use xlink:href="#DejaVuSans-6e" x="478.710938"/>
     </g>
    </g>
   </g>
   <g id="text_34">
    <g clip-path="url(#p0bc6d2c250)">
     <!-- ts-ui-dashboard -->
     <g transform="translate(916.225385 340.431676)scale(0.11 -0.11)">
      <use xlink:href="#DejaVuSans-74"/>
      <use xlink:href="#DejaVuSans-73" x="39.208984"/>
      <use xlink:href="#DejaVuSans-2d" x="91.308594"/>
      <use xlink:href="#DejaVuSans-75" x="127.392578"/>
      <use xlink:href="#DejaVuSans-69" x="190.771484"/>
      <use xlink:href="#DejaVuSans-2d" x="218.554688"/>
      <use xlink:href="#DejaVuSans-64" x="254.638672"/>
      <use xlink:href="#DejaVuSans-61" x="318.115234"/>
      <use xlink:href="#DejaVuSans-73" x="379.394531"/>
      <use xlink:href="#DejaVuSans-68" x="431.494141"/>
      <use xlink:href="#DejaVuSans-62" x="494.873047"/>
      <use xlink:href="#DejaVuSans-6f" x="558.349609"/>
      <use xlink:href="#DejaVuSans-61" x="619.53125"/>
      <use xlink:href="#DejaVuSans-72" x="680.810547"/>
      <use xlink:href="#DejaVuSans-64" x="720.173828"/>
     </g>
    </g>
   </g>
   <g id="text_35">
    <g clip-path="url(#p0bc6d2c250)">
     <!-- route-plan -->
     <g transform="translate(612.315307 462.613494)scale(0.11 -0.11)">
      <use xlink:href="#DejaVuSans-72"/>
      <use xlink:href="#DejaVuSans-6f" x="38.863281"/>
      <use xlink:href="#DejaVuSans-75" x="100.044922"/>
      <use xlink:href="#DejaVuSans-74" x="163.423828"/>
      <use xlink:href="#DejaVuSans-65" x="202.632812"/>
      <use xlink:href="#DejaVuSans-2d" x="264.15625"/>
      <use xlink:href="#DejaVuSans-70" x="300.240234"/>
      <use xlink:href="#DejaVuSans-6c" x="363.716797"/>
      <use xlink:href="#DejaVuSans-61" x="391.5"/>
      <use xlink:href="#DejaVuSans-6e" x="452.779297"/>
     </g>
    </g>
   </g>
   <g id="text_36">
    <g clip-path="url(#p0bc6d2c250)">
     <!-- ticketinfo -->
     <g transform="translate(416.315565 706.977131)scale(0.11 -0.11)">
      <defs>
       <path id="DejaVuSans-6b" d="M 581 4863 
L 1159 4863 
L 1159 1991 
L 2875 3500 
L 3609 3500 
L 1753 1863 
L 3688 0 
L 2938 0 
L 1159 1709 
L 1159 0 
L 581 0 
L 581 4863 
z
" transform="scale(0.015625)"/>
      </defs>
      <use xlink:href="#DejaVuSans-74"/>
      <use xlink:href="#DejaVuSans-69" x="39.208984"/>
      <use xlink:href="#DejaVuSans-63" x="66.992188"/>
      <use xlink:href="#DejaVuSans-6b" x="121.972656"/>
      <use xlink:href="#DejaVuSans-65" x="176.257812"/>
      <use xlink:href="#DejaVuSans-74" x="237.78125"/>
      <use xlink:href="#DejaVuSans-69" x="276.990234"/>
      <use xlink:href="#DejaVuSans-6e" x="304.773438"/>
      <use xlink:href="#DejaVuSans-66" x="368.152344"/>
      <use xlink:href="#DejaVuSans-6f" x="403.357422"/>
     </g>
    </g>
   </g>
   <g id="text_37">
    <g clip-path="url(#p0bc6d2c250)">
     <!-- order -->
     <g transform="translate(645.202164 706.977131)scale(0.11 -0.11)">
      <use xlink:href="#DejaVuSans-6f"/>
      <use xlink:href="#DejaVuSans-72" x="61.181641"/>
      <use xlink:href="#DejaVuSans-64" x="100.544922"/>
      <use xlink:href="#DejaVuSans-65" x="164.021484"/>
      <use xlink:href="#DejaVuSans-72" x="225.544922"/>
     </g>
    </g>
   </g>
   <g id="text_38">
    <g clip-path="url(#p0bc6d2c250)">
     <!-- seat*(RC)* -->
     <g transform="translate(865.688093 706.977131)scale(0.11 -0.11)">
      <defs>
       <path id="DejaVuSans-2a" d="M 3009 3897 
L 1888 3291 
L 3009 2681 
L 2828 2375 
L 1778 3009 
L 1778 1831 
L 1422 1831 
L 1422 3009 
L 372 2375 
L 191 2681 
L 1313 3291 
L 191 3897 
L 372 4206 
L 1422 3572 
L 1422 4750 
L 1778 4750 
L 1778 3572 
L 2828 4206 
L 3009 3897 
z
" transform="scale(0.015625)"/>
       <path id="DejaVuSans-28" d="M 1984 4856 
Q 1566 4138 1362 3434 
Q 1159 2731 1159 2009 
Q 1159 1288 1364 580 
Q 1569 -128 1984 -844 
L 1484 -844 
Q 1016 -109 783 600 
Q 550 1309 550 2009 
Q 550 2706 781 3412 
Q 1013 4119 1484 4856 
L 1984 4856 
z
" transform="scale(0.015625)"/>
       <path id="DejaVuSans-52" d="M 2841 2188 
Q 3044 2119 3236 1894 
Q 3428 1669 3622 1275 
L 4263 0 
L 3584 0 
L 2988 1197 
Q 2756 1666 2539 1819 
Q 2322 1972 1947 1972 
L 1259 1972 
L 1259 0 
L 628 0 
L 628 4666 
L 2053 4666 
Q 2853 4666 3247 4331 
Q 3641 3997 3641 3322 
Q 3641 2881 3436 2590 
Q 3231 2300 2841 2188 
z
M 1259 4147 
L 1259 2491 
L 2053 2491 
Q 2509 2491 2742 2702 
Q 2975 2913 2975 3322 
Q 2975 3731 2742 3939 
Q 2509 4147 2053 4147 
L 1259 4147 
z
" transform="scale(0.015625)"/>
       <path id="DejaVuSans-43" d="M 4122 4306 
L 4122 3641 
Q 3803 3938 3442 4084 
Q 3081 4231 2675 4231 
Q 1875 4231 1450 3742 
Q 1025 3253 1025 2328 
Q 1025 1406 1450 917 
Q 1875 428 2675 428 
Q 3081 428 3442 575 
Q 3803 722 4122 1019 
L 4122 359 
Q 3791 134 3420 21 
Q 3050 -91 2638 -91 
Q 1578 -91 968 557 
Q 359 1206 359 2328 
Q 359 3453 968 4101 
Q 1578 4750 2638 4750 
Q 3056 4750 3426 4639 
Q 3797 4528 4122 4306 
z
" transform="scale(0.015625)"/>
       <path id="DejaVuSans-29" d="M 513 4856 
L 1013 4856 
Q 1481 4119 1714 3412 
Q 1947 2706 1947 2009 
Q 1947 1309 1714 600 
Q 1481 -109 1013 -844 
L 513 -844 
Q 928 -128 1133 580 
Q 1338 1288 1338 2009 
Q 1338 2731 1133 3434 
Q 928 4138 513 4856 
z
" transform="scale(0.015625)"/>
      </defs>
      <use xlink:href="#DejaVuSans-73"/>
      <use xlink:href="#DejaVuSans-65" x="52.099609"/>
      <use xlink:href="#DejaVuSans-61" x="113.623047"/>
      <use xlink:href="#DejaVuSans-74" x="174.902344"/>
      <use xlink:href="#DejaVuSans-2a" x="214.111328"/>
      <use xlink:href="#DejaVuSans-28" x="264.111328"/>
      <use xlink:href="#DejaVuSans-52" x="303.125"/>
      <use xlink:href="#DejaVuSans-43" x="367.607422"/>
      <use xlink:href="#DejaVuSans-29" x="437.431641"/>
      <use xlink:href="#DejaVuSans-2a" x="476.445312"/>
     </g>
    </g>
   </g>
  </g>
 </g>
 <defs>
  <clipPath id="p0bc6d2c250">
   <rect x="144" y="138.24" width="892.8" height="887.04"/>
  </clipPath>
 </defs>
</svg>
