<?xml version="1.0" encoding="utf-8" standalone="no"?>
<!DOCTYPE svg PUBLIC "-//W3C//DTD SVG 1.1//EN"
  "http://www.w3.org/Graphics/SVG/1.1/DTD/svg11.dtd">
<svg xmlns:xlink="http://www.w3.org/1999/xlink" width="1152pt" height="1152pt" viewBox="0 0 1152 1152" xmlns="http://www.w3.org/2000/svg" version="1.1">
 <metadata>
  <rdf:RDF xmlns:dc="http://purl.org/dc/elements/1.1/" xmlns:cc="http://creativecommons.org/ns#" xmlns:rdf="http://www.w3.org/1999/02/22-rdf-syntax-ns#">
   <cc:Work>
    <dc:type rdf:resource="http://purl.org/dc/dcmitype/StillImage"/>
    <dc:date>2022-11-17T01:46:00.334079</dc:date>
    <dc:format>image/svg+xml</dc:format>
    <dc:creator>
     <cc:Agent>
      <dc:title>Matplotlib v3.5.3, https://matplotlib.org/</dc:title>
     </cc:Agent>
    </dc:creator>
   </cc:Work>
  </rdf:RDF>
 </metadata>
 <defs>
  <style type="text/css">*{stroke-linejoin: round; stroke-linecap: butt}</style>
 </defs>
 <g id="figure_1">
  <g id="patch_1">
   <path d="M 0 1152 
L 1152 1152 
L 1152 0 
L 0 0 
z
" style="fill: #ffffff"/>
  </g>
  <g id="axes_1">
   <g id="patch_2">
    <path d="M 144 1025.28 
L 1036.8 1025.28 
L 1036.8 138.24 
L 144 138.24 
z
" style="fill: #ffffff"/>
   </g>
   <g id="text_1">
    <g id="patch_3">
     <path d="M 806.946298 887.586198 
L 837.109133 861.272625 
Q 838.91766 859.694896 837.33993 857.886369 
L 832.250108 852.051986 
Q 830.672379 850.243459 828.863852 851.821189 
L 798.701017 878.134762 
Q 796.89249 879.712492 798.47022 881.521019 
L 803.560042 887.355401 
Q 805.137771 889.163928 806.946298 887.586198 
L 806.946298 887.586198 
z
" clip-path="url(#p39a78f147d)" style="fill: none"/>
    </g>
    <g clip-path="url(#p39a78f147d)">
     <!-- ['latency'] -->
     <g transform="translate(804.27484 884.523948)rotate(-41.100922)scale(0.08 -0.08)">
      <defs>
       <path id="DejaVuSans-5b" d="M 550 4863 
L 1875 4863 
L 1875 4416 
L 1125 4416 
L 1125 -397 
L 1875 -397 
L 1875 -844 
L 550 -844 
L 550 4863 
z
" transform="scale(0.015625)"/>
       <path id="DejaVuSans-27" d="M 1147 4666 
L 1147 2931 
L 616 2931 
L 616 4666 
L 1147 4666 
z
" transform="scale(0.015625)"/>
       <path id="DejaVuSans-6c" d="M 603 4863 
L 1178 4863 
L 1178 0 
L 603 0 
L 603 4863 
z
" transform="scale(0.015625)"/>
       <path id="DejaVuSans-61" d="M 2194 1759 
Q 1497 1759 1228 1600 
Q 959 1441 959 1056 
Q 959 750 1161 570 
Q 1363 391 1709 391 
Q 2188 391 2477 730 
Q 2766 1069 2766 1631 
L 2766 1759 
L 2194 1759 
z
M 3341 1997 
L 3341 0 
L 2766 0 
L 2766 531 
Q 2569 213 2275 61 
Q 1981 -91 1556 -91 
Q 1019 -91 701 211 
Q 384 513 384 1019 
Q 384 1609 779 1909 
Q 1175 2209 1959 2209 
L 2766 2209 
L 2766 2266 
Q 2766 2663 2505 2880 
Q 2244 3097 1772 3097 
Q 1472 3097 1187 3025 
Q 903 2953 641 2809 
L 641 3341 
Q 956 3463 1253 3523 
Q 1550 3584 1831 3584 
Q 2591 3584 2966 3190 
Q 3341 2797 3341 1997 
z
" transform="scale(0.015625)"/>
       <path id="DejaVuSans-74" d="M 1172 4494 
L 1172 3500 
L 2356 3500 
L 2356 3053 
L 1172 3053 
L 1172 1153 
Q 1172 725 1289 603 
Q 1406 481 1766 481 
L 2356 481 
L 2356 0 
L 1766 0 
Q 1100 0 847 248 
Q 594 497 594 1153 
L 594 3053 
L 172 3053 
L 172 3500 
L 594 3500 
L 594 4494 
L 1172 4494 
z
" transform="scale(0.015625)"/>
       <path id="DejaVuSans-65" d="M 3597 1894 
L 3597 1613 
L 953 1613 
Q 991 1019 1311 708 
Q 1631 397 2203 397 
Q 2534 397 2845 478 
Q 3156 559 3463 722 
L 3463 178 
Q 3153 47 2828 -22 
Q 2503 -91 2169 -91 
Q 1331 -91 842 396 
Q 353 884 353 1716 
Q 353 2575 817 3079 
Q 1281 3584 2069 3584 
Q 2775 3584 3186 3129 
Q 3597 2675 3597 1894 
z
M 3022 2063 
Q 3016 2534 2758 2815 
Q 2500 3097 2075 3097 
Q 1594 3097 1305 2825 
Q 1016 2553 972 2059 
L 3022 2063 
z
" transform="scale(0.015625)"/>
       <path id="DejaVuSans-6e" d="M 3513 2113 
L 3513 0 
L 2938 0 
L 2938 2094 
Q 2938 2591 2744 2837 
Q 2550 3084 2163 3084 
Q 1697 3084 1428 2787 
Q 1159 2491 1159 1978 
L 1159 0 
L 581 0 
L 581 3500 
L 1159 3500 
L 1159 2956 
Q 1366 3272 1645 3428 
Q 1925 3584 2291 3584 
Q 2894 3584 3203 3211 
Q 3513 2838 3513 2113 
z
" transform="scale(0.015625)"/>
       <path id="DejaVuSans-63" d="M 3122 3366 
L 3122 2828 
Q 2878 2963 2633 3030 
Q 2388 3097 2138 3097 
Q 1578 3097 1268 2742 
Q 959 2388 959 1747 
Q 959 1106 1268 751 
Q 1578 397 2138 397 
Q 2388 397 2633 464 
Q 2878 531 3122 666 
L 3122 134 
Q 2881 22 2623 -34 
Q 2366 -91 2075 -91 
Q 1284 -91 818 406 
Q 353 903 353 1747 
Q 353 2603 823 3093 
Q 1294 3584 2113 3584 
Q 2378 3584 2631 3529 
Q 2884 3475 3122 3366 
z
" transform="scale(0.015625)"/>
       <path id="DejaVuSans-79" d="M 2059 -325 
Q 1816 -950 1584 -1140 
Q 1353 -1331 966 -1331 
L 506 -1331 
L 506 -850 
L 844 -850 
Q 1081 -850 1212 -737 
Q 1344 -625 1503 -206 
L 1606 56 
L 191 3500 
L 800 3500 
L 1894 763 
L 2988 3500 
L 3597 3500 
L 2059 -325 
z
" transform="scale(0.015625)"/>
       <path id="DejaVuSans-5d" d="M 1947 4863 
L 1947 -844 
L 622 -844 
L 622 -397 
L 1369 -397 
L 1369 4416 
L 622 4416 
L 622 4863 
L 1947 4863 
z
" transform="scale(0.015625)"/>
      </defs>
      <use xlink:href="#DejaVuSans-5b"/>
      <use xlink:href="#DejaVuSans-27" x="39.013672"/>
      <use xlink:href="#DejaVuSans-6c" x="66.503906"/>
      <use xlink:href="#DejaVuSans-61" x="94.287109"/>
      <use xlink:href="#DejaVuSans-74" x="155.566406"/>
      <use xlink:href="#DejaVuSans-65" x="194.775391"/>
      <use xlink:href="#DejaVuSans-6e" x="256.298828"/>
      <use xlink:href="#DejaVuSans-63" x="319.677734"/>
      <use xlink:href="#DejaVuSans-79" x="374.658203"/>
      <use xlink:href="#DejaVuSans-27" x="433.837891"/>
      <use xlink:href="#DejaVuSans-5d" x="461.328125"/>
     </g>
    </g>
   </g>
   <g id="text_2">
    <g id="patch_4">
     <path d="M 540.118674 313.785505 
L 631.064399 339.500313 
Q 633.373857 340.15331 634.026854 337.843852 
L 636.193987 330.179339 
Q 636.846984 327.869882 634.537526 327.216885 
L 543.5918 301.502076 
Q 541.282343 300.84908 540.629346 303.158537 
L 538.462213 310.82305 
Q 537.809216 313.132508 540.118674 313.785505 
L 540.118674 313.785505 
z
" clip-path="url(#p39a78f147d)" style="fill: none"/>
    </g>
    <g clip-path="url(#p39a78f147d)">
     <!-- ['latency', 'http_status'] -->
     <g transform="translate(541.284885 309.660958)rotate(-344.211805)scale(0.08 -0.08)">
      <defs>
       <path id="DejaVuSans-2c" d="M 750 794 
L 1409 794 
L 1409 256 
L 897 -744 
L 494 -744 
L 750 256 
L 750 794 
z
" transform="scale(0.015625)"/>
       <path id="DejaVuSans-20" transform="scale(0.015625)"/>
       <path id="DejaVuSans-68" d="M 3513 2113 
L 3513 0 
L 2938 0 
L 2938 2094 
Q 2938 2591 2744 2837 
Q 2550 3084 2163 3084 
Q 1697 3084 1428 2787 
Q 1159 2491 1159 1978 
L 1159 0 
L 581 0 
L 581 4863 
L 1159 4863 
L 1159 2956 
Q 1366 3272 1645 3428 
Q 1925 3584 2291 3584 
Q 2894 3584 3203 3211 
Q 3513 2838 3513 2113 
z
" transform="scale(0.015625)"/>
       <path id="DejaVuSans-70" d="M 1159 525 
L 1159 -1331 
L 581 -1331 
L 581 3500 
L 1159 3500 
L 1159 2969 
Q 1341 3281 1617 3432 
Q 1894 3584 2278 3584 
Q 2916 3584 3314 3078 
Q 3713 2572 3713 1747 
Q 3713 922 3314 415 
Q 2916 -91 2278 -91 
Q 1894 -91 1617 61 
Q 1341 213 1159 525 
z
M 3116 1747 
Q 3116 2381 2855 2742 
Q 2594 3103 2138 3103 
Q 1681 3103 1420 2742 
Q 1159 2381 1159 1747 
Q 1159 1113 1420 752 
Q 1681 391 2138 391 
Q 2594 391 2855 752 
Q 3116 1113 3116 1747 
z
" transform="scale(0.015625)"/>
       <path id="DejaVuSans-5f" d="M 3263 -1063 
L 3263 -1509 
L -63 -1509 
L -63 -1063 
L 3263 -1063 
z
" transform="scale(0.015625)"/>
       <path id="DejaVuSans-73" d="M 2834 3397 
L 2834 2853 
Q 2591 2978 2328 3040 
Q 2066 3103 1784 3103 
Q 1356 3103 1142 2972 
Q 928 2841 928 2578 
Q 928 2378 1081 2264 
Q 1234 2150 1697 2047 
L 1894 2003 
Q 2506 1872 2764 1633 
Q 3022 1394 3022 966 
Q 3022 478 2636 193 
Q 2250 -91 1575 -91 
Q 1294 -91 989 -36 
Q 684 19 347 128 
L 347 722 
Q 666 556 975 473 
Q 1284 391 1588 391 
Q 1994 391 2212 530 
Q 2431 669 2431 922 
Q 2431 1156 2273 1281 
Q 2116 1406 1581 1522 
L 1381 1569 
Q 847 1681 609 1914 
Q 372 2147 372 2553 
Q 372 3047 722 3315 
Q 1072 3584 1716 3584 
Q 2034 3584 2315 3537 
Q 2597 3491 2834 3397 
z
" transform="scale(0.015625)"/>
       <path id="DejaVuSans-75" d="M 544 1381 
L 544 3500 
L 1119 3500 
L 1119 1403 
Q 1119 906 1312 657 
Q 1506 409 1894 409 
Q 2359 409 2629 706 
Q 2900 1003 2900 1516 
L 2900 3500 
L 3475 3500 
L 3475 0 
L 2900 0 
L 2900 538 
Q 2691 219 2414 64 
Q 2138 -91 1772 -91 
Q 1169 -91 856 284 
Q 544 659 544 1381 
z
M 1991 3584 
L 1991 3584 
z
" transform="scale(0.015625)"/>
      </defs>
      <use xlink:href="#DejaVuSans-5b"/>
      <use xlink:href="#DejaVuSans-27" x="39.013672"/>
      <use xlink:href="#DejaVuSans-6c" x="66.503906"/>
      <use xlink:href="#DejaVuSans-61" x="94.287109"/>
      <use xlink:href="#DejaVuSans-74" x="155.566406"/>
      <use xlink:href="#DejaVuSans-65" x="194.775391"/>
      <use xlink:href="#DejaVuSans-6e" x="256.298828"/>
      <use xlink:href="#DejaVuSans-63" x="319.677734"/>
      <use xlink:href="#DejaVuSans-79" x="374.658203"/>
      <use xlink:href="#DejaVuSans-27" x="433.837891"/>
      <use xlink:href="#DejaVuSans-2c" x="461.328125"/>
      <use xlink:href="#DejaVuSans-20" x="493.115234"/>
      <use xlink:href="#DejaVuSans-27" x="524.902344"/>
      <use xlink:href="#DejaVuSans-68" x="552.392578"/>
      <use xlink:href="#DejaVuSans-74" x="615.771484"/>
      <use xlink:href="#DejaVuSans-74" x="654.980469"/>
      <use xlink:href="#DejaVuSans-70" x="694.189453"/>
      <use xlink:href="#DejaVuSans-5f" x="757.666016"/>
      <use xlink:href="#DejaVuSans-73" x="807.666016"/>
      <use xlink:href="#DejaVuSans-74" x="859.765625"/>
      <use xlink:href="#DejaVuSans-61" x="898.974609"/>
      <use xlink:href="#DejaVuSans-74" x="960.253906"/>
      <use xlink:href="#DejaVuSans-75" x="999.462891"/>
      <use xlink:href="#DejaVuSans-73" x="1062.841797"/>
      <use xlink:href="#DejaVuSans-27" x="1114.941406"/>
      <use xlink:href="#DejaVuSans-5d" x="1142.431641"/>
     </g>
    </g>
   </g>
   <g id="text_3">
    <g id="patch_5">
     <path d="M 363.830943 380.303065 
L 427.918869 310.840024 
Q 429.546305 309.076093 427.782374 307.448657 
L 421.928329 302.047603 
Q 420.164399 300.420167 418.536962 302.184098 
L 354.449037 371.64714 
Q 352.821601 373.41107 354.585531 375.038507 
L 360.439577 380.43956 
Q 362.203507 382.066996 363.830943 380.303065 
L 363.830943 380.303065 
z
" clip-path="url(#p39a78f147d)" style="fill: none"/>
    </g>
    <g clip-path="url(#p39a78f147d)">
     <!-- ['latency', 'http_status'] -->
     <g transform="translate(360.680673 377.396566)rotate(-47.304778)scale(0.08 -0.08)">
      <use xlink:href="#DejaVuSans-5b"/>
      <use xlink:href="#DejaVuSans-27" x="39.013672"/>
      <use xlink:href="#DejaVuSans-6c" x="66.503906"/>
      <use xlink:href="#DejaVuSans-61" x="94.287109"/>
      <use xlink:href="#DejaVuSans-74" x="155.566406"/>
      <use xlink:href="#DejaVuSans-65" x="194.775391"/>
      <use xlink:href="#DejaVuSans-6e" x="256.298828"/>
      <use xlink:href="#DejaVuSans-63" x="319.677734"/>
      <use xlink:href="#DejaVuSans-79" x="374.658203"/>
      <use xlink:href="#DejaVuSans-27" x="433.837891"/>
      <use xlink:href="#DejaVuSans-2c" x="461.328125"/>
      <use xlink:href="#DejaVuSans-20" x="493.115234"/>
      <use xlink:href="#DejaVuSans-27" x="524.902344"/>
      <use xlink:href="#DejaVuSans-68" x="552.392578"/>
      <use xlink:href="#DejaVuSans-74" x="615.771484"/>
      <use xlink:href="#DejaVuSans-74" x="654.980469"/>
      <use xlink:href="#DejaVuSans-70" x="694.189453"/>
      <use xlink:href="#DejaVuSans-5f" x="757.666016"/>
      <use xlink:href="#DejaVuSans-73" x="807.666016"/>
      <use xlink:href="#DejaVuSans-74" x="859.765625"/>
      <use xlink:href="#DejaVuSans-61" x="898.974609"/>
      <use xlink:href="#DejaVuSans-74" x="960.253906"/>
      <use xlink:href="#DejaVuSans-75" x="999.462891"/>
      <use xlink:href="#DejaVuSans-73" x="1062.841797"/>
      <use xlink:href="#DejaVuSans-27" x="1114.941406"/>
      <use xlink:href="#DejaVuSans-5d" x="1142.431641"/>
     </g>
    </g>
   </g>
   <g id="text_4">
    <g id="patch_6">
     <path d="M 448.790974 310.840024 
L 486.521216 351.734737 
Q 488.148652 353.498668 489.912582 351.871232 
L 495.766628 346.470178 
Q 497.530558 344.842742 495.903122 343.078811 
L 458.172881 302.184098 
Q 456.545445 300.420167 454.781514 302.047603 
L 448.927469 307.448657 
Q 447.163538 309.076093 448.790974 310.840024 
L 448.790974 310.840024 
z
" clip-path="url(#p39a78f147d)" style="fill: none"/>
    </g>
    <g clip-path="url(#p39a78f147d)">
     <!-- ['http_status'] -->
     <g transform="translate(451.941244 307.933525)rotate(-312.695222)scale(0.08 -0.08)">
      <use xlink:href="#DejaVuSans-5b"/>
      <use xlink:href="#DejaVuSans-27" x="39.013672"/>
      <use xlink:href="#DejaVuSans-68" x="66.503906"/>
      <use xlink:href="#DejaVuSans-74" x="129.882812"/>
      <use xlink:href="#DejaVuSans-74" x="169.091797"/>
      <use xlink:href="#DejaVuSans-70" x="208.300781"/>
      <use xlink:href="#DejaVuSans-5f" x="271.777344"/>
      <use xlink:href="#DejaVuSans-73" x="321.777344"/>
      <use xlink:href="#DejaVuSans-74" x="373.876953"/>
      <use xlink:href="#DejaVuSans-61" x="413.085938"/>
      <use xlink:href="#DejaVuSans-74" x="474.365234"/>
      <use xlink:href="#DejaVuSans-75" x="513.574219"/>
      <use xlink:href="#DejaVuSans-73" x="576.953125"/>
      <use xlink:href="#DejaVuSans-27" x="629.052734"/>
      <use xlink:href="#DejaVuSans-5d" x="656.542969"/>
     </g>
    </g>
   </g>
   <g id="text_5">
    <g id="patch_7">
     <path d="M 724.219352 528.055012 
L 738.808896 490.781081 
Q 739.683667 488.546182 737.448767 487.67141 
L 730.238889 484.849362 
Q 728.003989 483.974591 727.129218 486.20949 
L 712.539674 523.483422 
Q 711.664903 525.718321 713.899803 526.593092 
L 721.109681 529.415141 
Q 723.344581 530.289912 724.219352 528.055012 
L 724.219352 528.055012 
z
" clip-path="url(#p39a78f147d)" style="fill: none"/>
    </g>
    <g clip-path="url(#p39a78f147d)">
     <!-- ['latency'] -->
     <g transform="translate(720.435155 526.573824)rotate(-68.623923)scale(0.08 -0.08)">
      <use xlink:href="#DejaVuSans-5b"/>
      <use xlink:href="#DejaVuSans-27" x="39.013672"/>
      <use xlink:href="#DejaVuSans-6c" x="66.503906"/>
      <use xlink:href="#DejaVuSans-61" x="94.287109"/>
      <use xlink:href="#DejaVuSans-74" x="155.566406"/>
      <use xlink:href="#DejaVuSans-65" x="194.775391"/>
      <use xlink:href="#DejaVuSans-6e" x="256.298828"/>
      <use xlink:href="#DejaVuSans-63" x="319.677734"/>
      <use xlink:href="#DejaVuSans-79" x="374.658203"/>
      <use xlink:href="#DejaVuSans-27" x="433.837891"/>
      <use xlink:href="#DejaVuSans-5d" x="461.328125"/>
     </g>
    </g>
   </g>
   <g id="text_6">
    <g id="patch_8">
     <path d="M 785.0359 495.361029 
L 817.700263 518.496286 
Q 819.658779 519.883448 821.04594 517.924933 
L 825.520982 511.606681 
Q 826.908144 509.648165 824.949629 508.261004 
L 792.285265 485.125746 
Q 790.32675 483.738584 788.939588 485.6971 
L 784.464547 492.015352 
Q 783.077385 493.973867 785.0359 495.361029 
L 785.0359 495.361029 
z
" clip-path="url(#p39a78f147d)" style="fill: none"/>
    </g>
    <g clip-path="url(#p39a78f147d)">
     <!-- ['latency'] -->
     <g transform="translate(787.384683 492.044813)rotate(-324.691122)scale(0.08 -0.08)">
      <use xlink:href="#DejaVuSans-5b"/>
      <use xlink:href="#DejaVuSans-27" x="39.013672"/>
      <use xlink:href="#DejaVuSans-6c" x="66.503906"/>
      <use xlink:href="#DejaVuSans-61" x="94.287109"/>
      <use xlink:href="#DejaVuSans-74" x="155.566406"/>
      <use xlink:href="#DejaVuSans-65" x="194.775391"/>
      <use xlink:href="#DejaVuSans-6e" x="256.298828"/>
      <use xlink:href="#DejaVuSans-63" x="319.677734"/>
      <use xlink:href="#DejaVuSans-79" x="374.658203"/>
      <use xlink:href="#DejaVuSans-27" x="433.837891"/>
      <use xlink:href="#DejaVuSans-5d" x="461.328125"/>
     </g>
    </g>
   </g>
   <g id="text_7">
    <g id="patch_9">
     <path d="M 689.786523 711.32774 
L 704.376067 674.053808 
Q 705.250838 671.818909 703.015939 670.944138 
L 695.806061 668.122089 
Q 693.571161 667.247318 692.69639 669.482217 
L 678.106846 706.756149 
Q 677.232075 708.991048 679.466974 709.865819 
L 686.676853 712.687868 
Q 688.911752 713.562639 689.786523 711.32774 
L 689.786523 711.32774 
z
" clip-path="url(#p39a78f147d)" style="fill: none"/>
    </g>
    <g clip-path="url(#p39a78f147d)">
     <!-- ['latency'] -->
     <g transform="translate(686.002327 709.846552)rotate(-68.623923)scale(0.08 -0.08)">
      <use xlink:href="#DejaVuSans-5b"/>
      <use xlink:href="#DejaVuSans-27" x="39.013672"/>
      <use xlink:href="#DejaVuSans-6c" x="66.503906"/>
      <use xlink:href="#DejaVuSans-61" x="94.287109"/>
      <use xlink:href="#DejaVuSans-74" x="155.566406"/>
      <use xlink:href="#DejaVuSans-65" x="194.775391"/>
      <use xlink:href="#DejaVuSans-6e" x="256.298828"/>
      <use xlink:href="#DejaVuSans-63" x="319.677734"/>
      <use xlink:href="#DejaVuSans-79" x="374.658203"/>
      <use xlink:href="#DejaVuSans-27" x="433.837891"/>
      <use xlink:href="#DejaVuSans-5d" x="461.328125"/>
     </g>
    </g>
   </g>
   <g id="text_8">
    <g id="patch_10">
     <path d="M 736.619449 303.811534 
L 736.619449 343.839034 
Q 736.619449 346.239034 739.019449 346.239034 
L 746.761949 346.239034 
Q 749.161949 346.239034 749.161949 343.839034 
L 749.161949 303.811534 
Q 749.161949 301.411534 746.761949 301.411534 
L 739.019449 301.411534 
Q 736.619449 301.411534 736.619449 303.811534 
L 736.619449 303.811534 
z
" clip-path="url(#p39a78f147d)" style="fill: none"/>
    </g>
    <g clip-path="url(#p39a78f147d)">
     <!-- ['latency'] -->
     <g transform="translate(740.683199 303.811534)rotate(-270)scale(0.08 -0.08)">
      <use xlink:href="#DejaVuSans-5b"/>
      <use xlink:href="#DejaVuSans-27" x="39.013672"/>
      <use xlink:href="#DejaVuSans-6c" x="66.503906"/>
      <use xlink:href="#DejaVuSans-61" x="94.287109"/>
      <use xlink:href="#DejaVuSans-74" x="155.566406"/>
      <use xlink:href="#DejaVuSans-65" x="194.775391"/>
      <use xlink:href="#DejaVuSans-6e" x="256.298828"/>
      <use xlink:href="#DejaVuSans-63" x="319.677734"/>
      <use xlink:href="#DejaVuSans-79" x="374.658203"/>
      <use xlink:href="#DejaVuSans-27" x="433.837891"/>
      <use xlink:href="#DejaVuSans-5d" x="461.328125"/>
     </g>
    </g>
   </g>
   <g id="text_9">
    <g id="patch_11">
     <path d="M 861.159318 670.498758 
L 861.718811 710.522347 
Q 861.752357 712.922113 864.152123 712.888566 
L 871.893866 712.780344 
Q 874.293632 712.746797 874.260085 710.347032 
L 873.700593 670.323442 
Q 873.667046 667.923677 871.267281 667.957223 
L 863.525537 668.065446 
Q 861.125771 668.098992 861.159318 670.498758 
L 861.159318 670.498758 
z
" clip-path="url(#p39a78f147d)" style="fill: none"/>
    </g>
    <g clip-path="url(#p39a78f147d)">
     <!-- ['latency'] -->
     <g transform="translate(865.222671 670.441956)rotate(-270.80089)scale(0.08 -0.08)">
      <use xlink:href="#DejaVuSans-5b"/>
      <use xlink:href="#DejaVuSans-27" x="39.013672"/>
      <use xlink:href="#DejaVuSans-6c" x="66.503906"/>
      <use xlink:href="#DejaVuSans-61" x="94.287109"/>
      <use xlink:href="#DejaVuSans-74" x="155.566406"/>
      <use xlink:href="#DejaVuSans-65" x="194.775391"/>
      <use xlink:href="#DejaVuSans-6e" x="256.298828"/>
      <use xlink:href="#DejaVuSans-63" x="319.677734"/>
      <use xlink:href="#DejaVuSans-79" x="374.658203"/>
      <use xlink:href="#DejaVuSans-27" x="433.837891"/>
      <use xlink:href="#DejaVuSans-5d" x="461.328125"/>
     </g>
    </g>
   </g>
   <g id="patch_12">
    <path d="M 641.89683 402.75616 
Q 487.720283 490.122822 334.51645 576.93828 
" clip-path="url(#p39a78f147d)" style="fill: none; stroke: #808080; stroke-linecap: round"/>
    <path d="M 338.982564 576.706275 
L 334.51645 576.93828 
L 337.010515 573.226186 
L 338.982564 576.706275 
z
" clip-path="url(#p39a78f147d)" style="fill: #808080; stroke: #808080; stroke-linecap: round"/>
   </g>
   <g id="patch_13">
    <path d="M 868.26646 773.693549 
Q 867.709705 856.668575 867.160452 938.525591 
" clip-path="url(#p39a78f147d)" style="fill: none; stroke: #808080; stroke-linecap: round"/>
    <path d="M 869.187246 934.539101 
L 867.160452 938.525591 
L 865.187336 934.512262 
L 869.187246 934.539101 
z
" clip-path="url(#p39a78f147d)" style="fill: #808080; stroke: #808080; stroke-linecap: round"/>
   </g>
   <g id="patch_14">
    <path d="M 872.175066 772.787477 
Q 913.824111 856.667105 954.975934 939.545348 
" clip-path="url(#p39a78f147d)" style="fill: none; stroke: #808080; stroke-linecap: round"/>
    <path d="M 954.988353 935.07323 
L 954.975934 939.545348 
L 951.40569 936.852142 
L 954.988353 935.07323 
z
" clip-path="url(#p39a78f147d)" style="fill: #808080; stroke: #808080; stroke-linecap: round"/>
   </g>
   <g id="patch_15">
    <path d="M 864.150132 772.619686 
Q 817.905694 856.667966 772.200218 939.736694 
" clip-path="url(#p39a78f147d)" style="fill: none; stroke: #ff0000; stroke-linecap: round"/>
    <path d="M 775.88074 937.196269 
L 772.200218 939.736694 
L 772.376191 935.268022 
L 775.88074 937.196269 
z
" clip-path="url(#p39a78f147d)" style="fill: #ff0000; stroke: #ff0000; stroke-linecap: round"/>
   </g>
   <g id="patch_16">
    <path d="M 861.564097 770.449586 
Q 753.95671 856.67044 647.221827 942.192196 
" clip-path="url(#p39a78f147d)" style="fill: none; stroke: #808080; stroke-linecap: round"/>
    <path d="M 651.593975 941.251812 
L 647.221827 942.192196 
L 649.092809 938.130247 
L 651.593975 941.251812 
z
" clip-path="url(#p39a78f147d)" style="fill: #808080; stroke: #808080; stroke-linecap: round"/>
   </g>
   <g id="patch_17">
    <path d="M 438.391492 220.793603 
Q 540.598859 306.851773 641.950982 392.189832 
" clip-path="url(#p39a78f147d)" style="fill: none; stroke: #808080; stroke-linecap: round"/>
    <path d="M 640.179346 388.08358 
L 641.950982 392.189832 
L 637.602999 391.14339 
L 640.179346 388.08358 
z
" clip-path="url(#p39a78f147d)" style="fill: #808080; stroke: #808080; stroke-linecap: round"/>
   </g>
   <g id="patch_18">
    <path d="M 425.235617 220.905463 
Q 326.618051 306.852555 228.843344 392.06508 
" clip-path="url(#p39a78f147d)" style="fill: none; stroke: #808080; stroke-linecap: round"/>
    <path d="M 233.172881 390.944763 
L 228.843344 392.06508 
L 230.544813 387.92926 
L 233.172881 390.944763 
z
" clip-path="url(#p39a78f147d)" style="fill: #808080; stroke: #808080; stroke-linecap: round"/>
   </g>
   <g id="patch_19">
    <path d="M 439.22603 219.609276 
Q 587.327194 306.850376 734.465036 393.524016 
" clip-path="url(#p39a78f147d)" style="fill: none; stroke: #ff0000; stroke-linecap: round"/>
    <path d="M 732.03365 389.770569 
L 734.465036 393.524016 
L 730.003447 393.217057 
L 732.03365 389.770569 
z
" clip-path="url(#p39a78f147d)" style="fill: #ff0000; stroke: #ff0000; stroke-linecap: round"/>
   </g>
   <g id="patch_20">
    <path d="M 428.259447 223.131493 
Q 391.184063 306.85066 354.561398 389.547552 
" clip-path="url(#p39a78f147d)" style="fill: none; stroke: #ff0000; stroke-linecap: round"/>
    <path d="M 358.009795 386.699998 
L 354.561398 389.547552 
L 354.352393 385.080302 
L 358.009795 386.699998 
z
" clip-path="url(#p39a78f147d)" style="fill: #ff0000; stroke: #ff0000; stroke-linecap: round"/>
   </g>
   <g id="patch_21">
    <path d="M 435.271554 223.131493 
Q 472.346938 306.85066 508.969603 389.547552 
" clip-path="url(#p39a78f147d)" style="fill: none; stroke: #ff0000; stroke-linecap: round"/>
    <path d="M 509.178608 385.080302 
L 508.969603 389.547552 
L 505.521207 386.699998 
L 509.178608 385.080302 
z
" clip-path="url(#p39a78f147d)" style="fill: #ff0000; stroke: #ff0000; stroke-linecap: round"/>
   </g>
   <g id="patch_22">
    <path d="M 429.365064 223.534192 
Q 378.886872 398.486033 328.718618 572.36366 
" clip-path="url(#p39a78f147d)" style="fill: none; stroke: #808080; stroke-linecap: round"/>
    <path d="M 331.749104 569.074868 
L 328.718618 572.36366 
L 327.905876 567.965996 
L 331.749104 569.074868 
z
" clip-path="url(#p39a78f147d)" style="fill: #808080; stroke: #808080; stroke-linecap: round"/>
   </g>
   <g id="patch_23">
    <path d="M 743.643245 407.114537 
Q 758.877412 581.760493 774.014423 755.292644 
" clip-path="url(#p39a78f147d)" style="fill: none; stroke: #808080; stroke-linecap: round"/>
    <path d="M 775.659262 751.133978 
L 774.014423 755.292644 
L 771.674394 751.481573 
L 775.659262 751.133978 
z
" clip-path="url(#p39a78f147d)" style="fill: #808080; stroke: #808080; stroke-linecap: round"/>
   </g>
   <g id="patch_24">
    <path d="M 746.062784 406.545445 
Q 851.108626 673.397548 955.744943 939.20932 
" clip-path="url(#p39a78f147d)" style="fill: none; stroke: #808080; stroke-linecap: round"/>
    <path d="M 956.140785 934.754737 
L 955.744943 939.20932 
L 952.418782 936.219896 
L 956.140785 934.754737 
z
" clip-path="url(#p39a78f147d)" style="fill: #808080; stroke: #808080; stroke-linecap: round"/>
   </g>
   <g id="patch_25">
    <path d="M 741.291897 406.997083 
Q 725.674241 490.123869 710.263027 572.151845 
" clip-path="url(#p39a78f147d)" style="fill: none; stroke: #ff0000; stroke-linecap: round"/>
    <path d="M 712.967225 568.589919 
L 710.263027 572.151845 
L 709.036005 567.851332 
L 712.967225 568.589919 
z
" clip-path="url(#p39a78f147d)" style="fill: #ff0000; stroke: #ff0000; stroke-linecap: round"/>
   </g>
   <g id="patch_26">
    <path d="M 747.748109 405.654753 
Q 804.99305 490.124058 861.610766 573.667843 
" clip-path="url(#p39a78f147d)" style="fill: none; stroke: #ff0000; stroke-linecap: round"/>
    <path d="M 861.022355 569.234586 
L 861.610766 573.667843 
L 857.711113 571.478618 
L 861.022355 569.234586 
z
" clip-path="url(#p39a78f147d)" style="fill: #ff0000; stroke: #ff0000; stroke-linecap: round"/>
   </g>
   <g id="patch_27">
    <path d="M 741.291634 406.998481 
Q 691.241494 673.396163 641.397796 938.695036 
" clip-path="url(#p39a78f147d)" style="fill: none; stroke: #ff0000; stroke-linecap: round"/>
    <path d="M 644.101994 935.13311 
L 641.397796 938.695036 
L 640.170774 934.394522 
L 644.101994 935.13311 
z
" clip-path="url(#p39a78f147d)" style="fill: #ff0000; stroke: #ff0000; stroke-linecap: round"/>
   </g>
   <g id="patch_28">
    <path d="M 742.890699 223.875368 
Q 742.890699 306.850393 742.890699 388.707384 
" clip-path="url(#p39a78f147d)" style="fill: none; stroke: #ff0000; stroke-linecap: round"/>
    <path d="M 744.890699 384.707384 
L 742.890699 388.707384 
L 740.890699 384.707384 
L 744.890699 384.707384 
z
" clip-path="url(#p39a78f147d)" style="fill: #ff0000; stroke: #ff0000; stroke-linecap: round"/>
   </g>
   <g id="patch_29">
    <path d="M 706.969366 590.292182 
Q 692.470974 673.397661 678.16473 755.401742 
" clip-path="url(#p39a78f147d)" style="fill: none; stroke: #808080; stroke-linecap: round"/>
    <path d="M 680.82242 751.804981 
L 678.16473 755.401742 
L 676.881936 751.117534 
L 680.82242 751.804981 
z
" clip-path="url(#p39a78f147d)" style="fill: #808080; stroke: #808080; stroke-linecap: round"/>
   </g>
   <g id="patch_30">
    <path d="M 711.407522 589.900669 
Q 741.660622 673.395445 771.53285 755.83906 
" clip-path="url(#p39a78f147d)" style="fill: none; stroke: #808080; stroke-linecap: round"/>
    <path d="M 772.050572 751.396993 
L 771.53285 755.83906 
L 768.289829 752.759642 
L 772.050572 751.396993 
z
" clip-path="url(#p39a78f147d)" style="fill: #808080; stroke: #808080; stroke-linecap: round"/>
   </g>
   <g id="patch_31">
    <path d="M 710.056673 573.25019 
Q 725.674329 490.123404 741.085543 408.095428 
" clip-path="url(#p39a78f147d)" style="fill: none; stroke: #808080; stroke-linecap: round"/>
    <path d="M 738.381345 411.657353 
L 741.085543 408.095428 
L 742.312565 412.395941 
L 738.381345 411.657353 
z
" clip-path="url(#p39a78f147d)" style="fill: #808080; stroke: #808080; stroke-linecap: round"/>
   </g>
   <g id="patch_32">
    <path d="M 867.152943 590.420822 
Q 867.709698 673.395847 868.258952 755.252864 
" clip-path="url(#p39a78f147d)" style="fill: none; stroke: #ff0000; stroke-linecap: round"/>
    <path d="M 870.232068 751.239534 
L 868.258952 755.252864 
L 866.232158 751.266373 
L 870.232068 751.239534 
z
" clip-path="url(#p39a78f147d)" style="fill: #ff0000; stroke: #ff0000; stroke-linecap: round"/>
   </g>
   <g id="text_10">
    <g id="patch_33">
     <path d="M 486.382237 492.21169 
L 495.239064 487.192824 
Q 497.327117 486.009594 496.143888 483.921541 
L 492.326739 477.185393 
Q 491.14351 475.09734 489.055456 476.280569 
L 480.198629 481.299435 
Q 478.110576 482.482665 479.293805 484.570718 
L 483.110954 491.306866 
Q 484.294183 493.39492 486.382237 492.21169 
L 486.382237 492.21169 
z
" clip-path="url(#p39a78f147d)" style="fill: none"/>
    </g>
    <g clip-path="url(#p39a78f147d)">
     <!-- 18 -->
     <g transform="translate(484.378758 488.676137)rotate(-29.538769)scale(0.08 -0.08)">
      <defs>
       <path id="DejaVuSans-31" d="M 794 531 
L 1825 531 
L 1825 4091 
L 703 3866 
L 703 4441 
L 1819 4666 
L 2450 4666 
L 2450 531 
L 3481 531 
L 3481 0 
L 794 0 
L 794 531 
z
" transform="scale(0.015625)"/>
       <path id="DejaVuSans-38" d="M 2034 2216 
Q 1584 2216 1326 1975 
Q 1069 1734 1069 1313 
Q 1069 891 1326 650 
Q 1584 409 2034 409 
Q 2484 409 2743 651 
Q 3003 894 3003 1313 
Q 3003 1734 2745 1975 
Q 2488 2216 2034 2216 
z
M 1403 2484 
Q 997 2584 770 2862 
Q 544 3141 544 3541 
Q 544 4100 942 4425 
Q 1341 4750 2034 4750 
Q 2731 4750 3128 4425 
Q 3525 4100 3525 3541 
Q 3525 3141 3298 2862 
Q 3072 2584 2669 2484 
Q 3125 2378 3379 2068 
Q 3634 1759 3634 1313 
Q 3634 634 3220 271 
Q 2806 -91 2034 -91 
Q 1263 -91 848 271 
Q 434 634 434 1313 
Q 434 1759 690 2068 
Q 947 2378 1403 2484 
z
M 1172 3481 
Q 1172 3119 1398 2916 
Q 1625 2713 2034 2713 
Q 2441 2713 2670 2916 
Q 2900 3119 2900 3481 
Q 2900 3844 2670 4047 
Q 2441 4250 2034 4250 
Q 1625 4250 1398 4047 
Q 1172 3844 1172 3481 
z
" transform="scale(0.015625)"/>
      </defs>
      <use xlink:href="#DejaVuSans-31"/>
      <use xlink:href="#DejaVuSans-38" x="63.623047"/>
     </g>
    </g>
   </g>
   <g id="text_11">
    <g id="patch_34">
     <path d="M 873.963734 856.685194 
L 873.997887 851.595309 
Q 874.01399 849.195363 871.614044 849.17926 
L 863.871719 849.127309 
Q 861.471773 849.111206 861.455669 851.511152 
L 861.421517 856.601037 
Q 861.405413 859.000983 863.805359 859.017087 
L 871.547685 859.069037 
Q 873.947631 859.08514 873.963734 856.685194 
L 873.963734 856.685194 
z
" clip-path="url(#p39a78f147d)" style="fill: none"/>
    </g>
    <g clip-path="url(#p39a78f147d)">
     <!-- 7 -->
     <g transform="translate(869.900076 856.657928)rotate(-89.615556)scale(0.08 -0.08)">
      <defs>
       <path id="DejaVuSans-37" d="M 525 4666 
L 3525 4666 
L 3525 4397 
L 1831 0 
L 1172 0 
L 2766 4134 
L 525 4134 
L 525 4666 
z
" transform="scale(0.015625)"/>
      </defs>
      <use xlink:href="#DejaVuSans-37"/>
     </g>
    </g>
   </g>
   <g id="text_12">
    <g id="patch_35">
     <path d="M 907.076321 853.1775 
L 909.339986 857.736438 
Q 910.407333 859.886036 912.556931 858.818689 
L 919.491622 855.375382 
Q 921.64122 854.308035 920.573873 852.158437 
L 918.310207 847.599499 
Q 917.24286 845.449901 915.093263 846.517248 
L 908.158571 849.960555 
Q 906.008973 851.027902 907.076321 853.1775 
L 907.076321 853.1775 
z
" clip-path="url(#p39a78f147d)" style="fill: none"/>
    </g>
    <g clip-path="url(#p39a78f147d)">
     <!-- 6 -->
     <g transform="translate(910.716082 851.370236)rotate(-296.405938)scale(0.08 -0.08)">
      <defs>
       <path id="DejaVuSans-36" d="M 2113 2584 
Q 1688 2584 1439 2293 
Q 1191 2003 1191 1497 
Q 1191 994 1439 701 
Q 1688 409 2113 409 
Q 2538 409 2786 701 
Q 3034 994 3034 1497 
Q 3034 2003 2786 2293 
Q 2538 2584 2113 2584 
z
M 3366 4563 
L 3366 3988 
Q 3128 4100 2886 4159 
Q 2644 4219 2406 4219 
Q 1781 4219 1451 3797 
Q 1122 3375 1075 2522 
Q 1259 2794 1537 2939 
Q 1816 3084 2150 3084 
Q 2853 3084 3261 2657 
Q 3669 2231 3669 1497 
Q 3669 778 3244 343 
Q 2819 -91 2113 -91 
Q 1303 -91 875 529 
Q 447 1150 447 2328 
Q 447 3434 972 4092 
Q 1497 4750 2381 4750 
Q 2619 4750 2861 4703 
Q 3103 4656 3366 4563 
z
" transform="scale(0.015625)"/>
      </defs>
      <use xlink:href="#DejaVuSans-36"/>
     </g>
    </g>
   </g>
   <g id="text_13">
    <g id="patch_36">
     <path d="M 820.945855 857.826039 
L 825.853245 848.906963 
Q 827.010194 846.804234 824.907464 845.647285 
L 818.123972 841.914921 
Q 816.021243 840.757973 814.864295 842.860702 
L 809.956905 851.779778 
Q 808.799956 853.882508 810.902686 855.039456 
L 817.686178 858.77182 
Q 819.788907 859.928769 820.945855 857.826039 
L 820.945855 857.826039 
z
" clip-path="url(#p39a78f147d)" style="fill: none"/>
    </g>
    <g clip-path="url(#p39a78f147d)">
     <!-- 68 -->
     <g transform="translate(817.385453 855.86706)rotate(-61.179847)scale(0.08 -0.08)">
      <use xlink:href="#DejaVuSans-36"/>
      <use xlink:href="#DejaVuSans-38" x="63.623047"/>
     </g>
    </g>
   </g>
   <g id="text_14">
    <g id="patch_37">
     <path d="M 755.893658 858.54203 
L 759.865849 855.359296 
Q 761.738788 853.858596 760.238088 851.985657 
L 755.396768 845.943478 
Q 753.896068 844.070539 752.02313 845.571239 
L 748.050938 848.753973 
Q 746.178 850.254673 747.678699 852.127612 
L 752.52002 858.169791 
Q 754.020719 860.04273 755.893658 858.54203 
L 755.893658 858.54203 
z
" clip-path="url(#p39a78f147d)" style="fill: none"/>
    </g>
    <g clip-path="url(#p39a78f147d)">
     <!-- 6 -->
     <g transform="translate(753.35263 855.370715)rotate(-38.703593)scale(0.08 -0.08)">
      <use xlink:href="#DejaVuSans-36"/>
     </g>
    </g>
   </g>
   <g id="text_15">
    <g id="patch_38">
     <path d="M 532.664996 302.129992 
L 540.452212 308.686795 
Q 542.288098 310.232603 543.833906 308.396717 
L 548.820748 302.474073 
Q 550.366556 300.638187 548.53067 299.092379 
L 540.743454 292.535576 
Q 538.907568 290.989768 537.36176 292.825653 
L 532.374918 298.748298 
Q 530.82911 300.584184 532.664996 302.129992 
L 532.664996 302.129992 
z
" clip-path="url(#p39a78f147d)" style="fill: none"/>
    </g>
    <g clip-path="url(#p39a78f147d)">
     <!-- 54 -->
     <g transform="translate(535.282403 299.021416)rotate(-319.902763)scale(0.08 -0.08)">
      <defs>
       <path id="DejaVuSans-35" d="M 691 4666 
L 3169 4666 
L 3169 4134 
L 1269 4134 
L 1269 2991 
Q 1406 3038 1543 3061 
Q 1681 3084 1819 3084 
Q 2600 3084 3056 2656 
Q 3513 2228 3513 1497 
Q 3513 744 3044 326 
Q 2575 -91 1722 -91 
Q 1428 -91 1123 -41 
Q 819 9 494 109 
L 494 744 
Q 775 591 1075 516 
Q 1375 441 1709 441 
Q 2250 441 2565 725 
Q 2881 1009 2881 1497 
Q 2881 1984 2565 2268 
Q 2250 2553 1709 2553 
Q 1456 2553 1204 2497 
Q 953 2441 691 2322 
L 691 4666 
z
" transform="scale(0.015625)"/>
       <path id="DejaVuSans-34" d="M 2419 4116 
L 825 1625 
L 2419 1625 
L 2419 4116 
z
M 2253 4666 
L 3047 4666 
L 3047 1625 
L 3713 1625 
L 3713 1100 
L 3047 1100 
L 3047 0 
L 2419 0 
L 2419 1100 
L 313 1100 
L 313 1709 
L 2253 4666 
z
" transform="scale(0.015625)"/>
      </defs>
      <use xlink:href="#DejaVuSans-35"/>
      <use xlink:href="#DejaVuSans-34" x="63.623047"/>
     </g>
    </g>
   </g>
   <g id="text_16">
    <g id="patch_39">
     <path d="M 328.821645 308.660211 
L 332.658872 305.315994 
Q 334.468174 303.739153 332.891333 301.929851 
L 327.804378 296.092969 
Q 326.227537 294.283667 324.418236 295.860508 
L 320.581008 299.204725 
Q 318.771707 300.781566 320.348548 302.590867 
L 325.435502 308.42775 
Q 327.012343 310.237052 328.821645 308.660211 
L 328.821645 308.660211 
z
" clip-path="url(#p39a78f147d)" style="fill: none"/>
    </g>
    <g clip-path="url(#p39a78f147d)">
     <!-- 8 -->
     <g transform="translate(326.151692 305.596648)rotate(-41.072772)scale(0.08 -0.08)">
      <use xlink:href="#DejaVuSans-38"/>
     </g>
    </g>
   </g>
   <g id="text_17">
    <g id="patch_40">
     <path d="M 581.952295 306.335369 
L 586.337951 308.918802 
Q 588.405843 310.136923 589.623965 308.069031 
L 593.553676 301.397923 
Q 594.771797 299.33003 592.703905 298.111909 
L 588.318249 295.528476 
Q 586.250356 294.310354 585.032235 296.378247 
L 581.102524 303.049355 
Q 579.884402 305.117247 581.952295 306.335369 
L 581.952295 306.335369 
z
" clip-path="url(#p39a78f147d)" style="fill: none"/>
    </g>
    <g clip-path="url(#p39a78f147d)">
     <!-- 7 -->
     <g transform="translate(584.014854 302.833953)rotate(-329.499183)scale(0.08 -0.08)">
      <use xlink:href="#DejaVuSans-37"/>
     </g>
    </g>
   </g>
   <g id="text_18">
    <g id="patch_41">
     <path d="M 395.887541 307.822726 
L 397.948604 303.168683 
Q 398.920421 300.974242 396.725981 300.002425 
L 389.646623 296.867301 
Q 387.452182 295.895484 386.480364 298.089925 
L 384.419302 302.743968 
Q 383.447484 304.938409 385.641925 305.910227 
L 392.721283 309.04535 
Q 394.915724 310.017167 395.887541 307.822726 
L 395.887541 307.822726 
z
" clip-path="url(#p39a78f147d)" style="fill: none"/>
    </g>
    <g clip-path="url(#p39a78f147d)">
     <!-- 6 -->
     <g transform="translate(392.17185 306.177217)rotate(-66.113642)scale(0.08 -0.08)">
      <use xlink:href="#DejaVuSans-36"/>
     </g>
    </g>
   </g>
   <g id="text_19">
    <g id="patch_42">
     <path d="M 465.582397 303.168683 
L 467.64346 307.822726 
Q 468.615277 310.017167 470.809718 309.04535 
L 477.889076 305.910227 
Q 480.083517 304.938409 479.111699 302.743968 
L 477.050637 298.089925 
Q 476.078819 295.895484 473.884378 296.867301 
L 466.805021 300.002425 
Q 464.61058 300.974242 465.582397 303.168683 
L 465.582397 303.168683 
z
" clip-path="url(#p39a78f147d)" style="fill: none"/>
    </g>
    <g clip-path="url(#p39a78f147d)">
     <!-- 4 -->
     <g transform="translate(469.298088 301.523173)rotate(-293.886359)scale(0.08 -0.08)">
      <use xlink:href="#DejaVuSans-34"/>
     </g>
    </g>
   </g>
   <g id="text_20">
    <g id="patch_43">
     <path d="M 382.795416 399.152596 
L 387.028535 384.481072 
Q 387.693858 382.175136 385.387921 381.509812 
L 377.948873 379.363452 
Q 375.642936 378.698129 374.977613 381.004065 
L 370.744494 395.675589 
Q 370.07917 397.981526 372.385107 398.646849 
L 379.824156 400.79321 
Q 382.130093 401.458533 382.795416 399.152596 
L 382.795416 399.152596 
z
" clip-path="url(#p39a78f147d)" style="fill: none"/>
    </g>
    <g clip-path="url(#p39a78f147d)">
     <!-- 211 -->
     <g transform="translate(378.890936 398.026051)rotate(-73.905763)scale(0.08 -0.08)">
      <defs>
       <path id="DejaVuSans-32" d="M 1228 531 
L 3431 531 
L 3431 0 
L 469 0 
L 469 531 
Q 828 903 1448 1529 
Q 2069 2156 2228 2338 
Q 2531 2678 2651 2914 
Q 2772 3150 2772 3378 
Q 2772 3750 2511 3984 
Q 2250 4219 1831 4219 
Q 1534 4219 1204 4116 
Q 875 4013 500 3803 
L 500 4441 
Q 881 4594 1212 4672 
Q 1544 4750 1819 4750 
Q 2544 4750 2975 4387 
Q 3406 4025 3406 3419 
Q 3406 3131 3298 2873 
Q 3191 2616 2906 2266 
Q 2828 2175 2409 1742 
Q 1991 1309 1228 531 
z
" transform="scale(0.015625)"/>
      </defs>
      <use xlink:href="#DejaVuSans-32"/>
      <use xlink:href="#DejaVuSans-31" x="63.623047"/>
      <use xlink:href="#DejaVuSans-31" x="127.246094"/>
     </g>
    </g>
   </g>
   <g id="text_21">
    <g id="patch_44">
     <path d="M 752.408685 576.897812 
L 752.851 581.968557 
Q 753.059558 584.359478 755.450479 584.150921 
L 763.16369 583.478107 
Q 765.554611 583.269549 765.346054 580.878628 
L 764.903738 575.807883 
Q 764.695181 573.416962 762.30426 573.625519 
L 754.591049 574.298334 
Q 752.200128 574.506891 752.408685 576.897812 
L 752.408685 576.897812 
z
" clip-path="url(#p39a78f147d)" style="fill: none"/>
    </g>
    <g clip-path="url(#p39a78f147d)">
     <!-- 5 -->
     <g transform="translate(756.457062 576.544677)rotate(-274.985227)scale(0.08 -0.08)">
      <use xlink:href="#DejaVuSans-35"/>
     </g>
    </g>
   </g>
   <g id="text_22">
    <g id="patch_45">
     <path d="M 843.408341 664.802962 
L 847.137172 674.275459 
Q 848.016268 676.508661 850.24947 675.629565 
L 857.453872 672.793566 
Q 859.687074 671.91447 858.807978 669.681268 
L 855.079147 660.20877 
Q 854.200051 657.975568 851.966849 658.854664 
L 844.762447 661.690664 
Q 842.529245 662.56976 843.408341 664.802962 
L 843.408341 664.802962 
z
" clip-path="url(#p39a78f147d)" style="fill: none"/>
    </g>
    <g clip-path="url(#p39a78f147d)">
     <!-- 28 -->
     <g transform="translate(847.189663 663.314451)rotate(-291.486988)scale(0.08 -0.08)">
      <use xlink:href="#DejaVuSans-32"/>
      <use xlink:href="#DejaVuSans-38" x="63.623047"/>
     </g>
    </g>
   </g>
   <g id="text_23">
    <g id="patch_46">
     <path d="M 731.367774 490.566789 
L 732.307627 485.564312 
Q 732.75078 483.20558 730.392048 482.762428 
L 722.782681 481.332798 
Q 720.423949 480.889646 719.980796 483.248377 
L 719.040943 488.250855 
Q 718.59779 490.609586 720.956522 491.052739 
L 728.565889 492.482368 
Q 730.924621 492.925521 731.367774 490.566789 
L 731.367774 490.566789 
z
" clip-path="url(#p39a78f147d)" style="fill: none"/>
    </g>
    <g clip-path="url(#p39a78f147d)">
     <!-- 8 -->
     <g transform="translate(727.3739 489.81643)rotate(-79.35945)scale(0.08 -0.08)">
      <use xlink:href="#DejaVuSans-38"/>
     </g>
    </g>
   </g>
   <g id="text_24">
    <g id="patch_47">
     <path d="M 796.945828 483.042946 
L 802.656889 491.470056 
Q 804.003309 493.4568 805.990054 492.110381 
L 812.399375 487.766777 
Q 814.38612 486.420358 813.039701 484.433613 
L 807.328639 476.006503 
Q 805.98222 474.019758 803.995475 475.366177 
L 797.586154 479.709782 
Q 795.599409 481.056201 796.945828 483.042946 
L 796.945828 483.042946 
z
" clip-path="url(#p39a78f147d)" style="fill: none"/>
    </g>
    <g clip-path="url(#p39a78f147d)">
     <!-- 33 -->
     <g transform="translate(800.309842 480.76315)rotate(-304.125537)scale(0.08 -0.08)">
      <defs>
       <path id="DejaVuSans-33" d="M 2597 2516 
Q 3050 2419 3304 2112 
Q 3559 1806 3559 1356 
Q 3559 666 3084 287 
Q 2609 -91 1734 -91 
Q 1441 -91 1130 -33 
Q 819 25 488 141 
L 488 750 
Q 750 597 1062 519 
Q 1375 441 1716 441 
Q 2309 441 2620 675 
Q 2931 909 2931 1356 
Q 2931 1769 2642 2001 
Q 2353 2234 1838 2234 
L 1294 2234 
L 1294 2753 
L 1863 2753 
Q 2328 2753 2575 2939 
Q 2822 3125 2822 3475 
Q 2822 3834 2567 4026 
Q 2313 4219 1838 4219 
Q 1578 4219 1281 4162 
Q 984 4106 628 3988 
L 628 4550 
Q 988 4650 1302 4700 
Q 1616 4750 1894 4750 
Q 2613 4750 3031 4423 
Q 3450 4097 3450 3541 
Q 3450 3153 3228 2886 
Q 3006 2619 2597 2516 
z
" transform="scale(0.015625)"/>
      </defs>
      <use xlink:href="#DejaVuSans-33"/>
      <use xlink:href="#DejaVuSans-33" x="63.623047"/>
     </g>
    </g>
   </g>
   <g id="text_25">
    <g id="patch_48">
     <path d="M 696.934945 673.839516 
L 697.874798 668.837039 
Q 698.317951 666.478308 695.959219 666.035155 
L 688.349852 664.605526 
Q 685.991121 664.162373 685.547968 666.521105 
L 684.608115 671.523582 
Q 684.164962 673.882314 686.523694 674.325466 
L 694.133061 675.755095 
Q 696.491793 676.198248 696.934945 673.839516 
L 696.934945 673.839516 
z
" clip-path="url(#p39a78f147d)" style="fill: none"/>
    </g>
    <g clip-path="url(#p39a78f147d)">
     <!-- 7 -->
     <g transform="translate(692.941072 673.089157)rotate(-79.35945)scale(0.08 -0.08)">
      <use xlink:href="#DejaVuSans-37"/>
     </g>
    </g>
   </g>
   <g id="text_26">
    <g id="patch_49">
     <path d="M 736.619449 301.760909 
L 736.619449 306.850909 
Q 736.619449 309.250909 739.019449 309.250909 
L 746.761949 309.250909 
Q 749.161949 309.250909 749.161949 306.850909 
L 749.161949 301.760909 
Q 749.161949 299.360909 746.761949 299.360909 
L 739.019449 299.360909 
Q 736.619449 299.360909 736.619449 301.760909 
L 736.619449 301.760909 
z
" clip-path="url(#p39a78f147d)" style="fill: none"/>
    </g>
    <g clip-path="url(#p39a78f147d)">
     <!-- 1 -->
     <g transform="translate(740.683199 301.760909)rotate(-270)scale(0.08 -0.08)">
      <use xlink:href="#DejaVuSans-31"/>
     </g>
    </g>
   </g>
   <g id="text_27">
    <g id="patch_50">
     <path d="M 698.211752 673.808832 
L 699.08653 668.794566 
Q 699.498998 666.430276 697.134708 666.017807 
L 689.507408 664.687166 
Q 687.143118 664.274697 686.730649 666.638988 
L 685.855871 671.653254 
Q 685.443403 674.017544 687.807693 674.430013 
L 695.434993 675.760654 
Q 697.799283 676.173123 698.211752 673.808832 
L 698.211752 673.808832 
z
" clip-path="url(#p39a78f147d)" style="fill: none"/>
    </g>
    <g clip-path="url(#p39a78f147d)">
     <!-- 5 -->
     <g transform="translate(694.208467 673.110428)rotate(-80.103905)scale(0.08 -0.08)">
      <use xlink:href="#DejaVuSans-35"/>
     </g>
    </g>
   </g>
   <g id="text_28">
    <g id="patch_51">
     <path d="M 734.89783 669.428408 
L 736.631802 674.213953 
Q 737.449391 676.470399 739.705837 675.652809 
L 746.985225 673.015231 
Q 749.24167 672.197641 748.424081 669.941195 
L 746.690109 665.15565 
Q 745.872519 662.899204 743.616073 663.716794 
L 736.336686 666.354373 
Q 734.08024 667.171963 734.89783 669.428408 
L 734.89783 669.428408 
z
" clip-path="url(#p39a78f147d)" style="fill: none"/>
    </g>
    <g clip-path="url(#p39a78f147d)">
     <!-- 4 -->
     <g transform="translate(738.718509 668.044041)rotate(-289.917237)scale(0.08 -0.08)">
      <use xlink:href="#DejaVuSans-34"/>
     </g>
    </g>
   </g>
   <g id="text_29">
    <g id="patch_52">
     <path d="M 730.897847 490.566789 
L 732.777553 480.561835 
Q 733.220706 478.203103 730.861974 477.759951 
L 723.252607 476.330321 
Q 720.893875 475.887169 720.450723 478.2459 
L 718.571017 488.250855 
Q 718.127864 490.609586 720.486596 491.052739 
L 728.095963 492.482368 
Q 730.454694 492.925521 730.897847 490.566789 
L 730.897847 490.566789 
z
" clip-path="url(#p39a78f147d)" style="fill: none"/>
    </g>
    <g clip-path="url(#p39a78f147d)">
     <!-- 10 -->
     <g transform="translate(726.903974 489.81643)rotate(-79.35945)scale(0.08 -0.08)">
      <defs>
       <path id="DejaVuSans-30" d="M 2034 4250 
Q 1547 4250 1301 3770 
Q 1056 3291 1056 2328 
Q 1056 1369 1301 889 
Q 1547 409 2034 409 
Q 2525 409 2770 889 
Q 3016 1369 3016 2328 
Q 3016 3291 2770 3770 
Q 2525 4250 2034 4250 
z
M 2034 4750 
Q 2819 4750 3233 4129 
Q 3647 3509 3647 2328 
Q 3647 1150 3233 529 
Q 2819 -91 2034 -91 
Q 1250 -91 836 529 
Q 422 1150 422 2328 
Q 422 3509 836 4129 
Q 1250 4750 2034 4750 
z
" transform="scale(0.015625)"/>
      </defs>
      <use xlink:href="#DejaVuSans-31"/>
      <use xlink:href="#DejaVuSans-30" x="63.623047"/>
     </g>
    </g>
   </g>
   <g id="text_30">
    <g id="patch_53">
     <path d="M 861.40444 663.232696 
L 861.472746 673.412467 
Q 861.488849 675.812413 863.888795 675.79631 
L 871.631121 675.744359 
Q 874.031067 675.728256 874.014963 673.32831 
L 873.946658 663.148539 
Q 873.930554 660.748593 871.530608 660.764696 
L 863.788283 660.816647 
Q 861.388337 660.83275 861.40444 663.232696 
L 861.40444 663.232696 
z
" clip-path="url(#p39a78f147d)" style="fill: none"/>
    </g>
    <g clip-path="url(#p39a78f147d)">
     <!-- 65 -->
     <g transform="translate(865.468099 663.205429)rotate(-270.384444)scale(0.08 -0.08)">
      <use xlink:href="#DejaVuSans-36"/>
      <use xlink:href="#DejaVuSans-35" x="63.623047"/>
     </g>
    </g>
   </g>
   <g id="matplotlib.axis_1">
    <g id="xtick_1"/>
    <g id="xtick_2"/>
    <g id="xtick_3"/>
    <g id="xtick_4"/>
    <g id="xtick_5"/>
    <g id="xtick_6"/>
    <g id="xtick_7"/>
    <g id="xtick_8"/>
   </g>
   <g id="matplotlib.axis_2">
    <g id="ytick_1"/>
    <g id="ytick_2"/>
    <g id="ytick_3"/>
    <g id="ytick_4"/>
    <g id="ytick_5"/>
    <g id="ytick_6"/>
    <g id="ytick_7"/>
   </g>
   <g id="PathCollection_1">
    <defs>
     <path id="C0_0_cd337912b2" d="M 0 8.660254 
C 2.296726 8.660254 4.499694 7.747755 6.123724 6.123724 
C 7.747755 4.499694 8.660254 2.296726 8.660254 -0 
C 8.660254 -2.296726 7.747755 -4.499694 6.123724 -6.123724 
C 4.499694 -7.747755 2.296726 -8.660254 0 -8.660254 
C -2.296726 -8.660254 -4.499694 -7.747755 -6.123724 -6.123724 
C -7.747755 -4.499694 -8.660254 -2.296726 -8.660254 0 
C -8.660254 2.296726 -7.747755 4.499694 -6.123724 6.123724 
C -4.499694 7.747755 -2.296726 8.660254 0 8.660254 
z
"/>
    </defs>
    <g clip-path="url(#p39a78f147d)">
     <use xlink:href="#C0_0_cd337912b2" x="649.430165" y="398.487273" style="fill: #1f78b4; stroke: #1f78b4"/>
    </g>
    <g clip-path="url(#p39a78f147d)">
     <use xlink:href="#C0_0_cd337912b2" x="326.007528" y="581.76" style="fill: #1f78b4; stroke: #1f78b4"/>
    </g>
    <g clip-path="url(#p39a78f147d)">
     <use xlink:href="#C0_0_cd337912b2" x="868.324574" y="765.032727" style="fill: #1f78b4; stroke: #1f78b4"/>
    </g>
    <g clip-path="url(#p39a78f147d)">
     <use xlink:href="#C0_0_cd337912b2" x="867.09483" y="948.305455" style="fill: #1f78b4; stroke: #1f78b4"/>
    </g>
    <g clip-path="url(#p39a78f147d)">
     <use xlink:href="#C0_0_cd337912b2" x="959.32562" y="948.305455" style="fill: #1f78b4; stroke: #1f78b4"/>
    </g>
    <g clip-path="url(#p39a78f147d)">
     <use xlink:href="#C0_0_cd337912b2" x="767.485576" y="948.305455" style="fill: #a85832; stroke: #a85832"/>
    </g>
    <g clip-path="url(#p39a78f147d)">
     <use xlink:href="#C0_0_cd337912b2" x="639.592214" y="948.305455" style="fill: #1f78b4; stroke: #1f78b4"/>
    </g>
    <g clip-path="url(#p39a78f147d)">
     <use xlink:href="#C0_0_cd337912b2" x="431.765501" y="215.214545" style="fill: #1f78b4; stroke: #1f78b4"/>
    </g>
    <g clip-path="url(#p39a78f147d)">
     <use xlink:href="#C0_0_cd337912b2" x="221.47438" y="398.487273" style="fill: #1f78b4; stroke: #1f78b4"/>
    </g>
    <g clip-path="url(#p39a78f147d)">
     <use xlink:href="#C0_0_cd337912b2" x="742.890699" y="398.487273" style="fill: #8ca832; stroke: #8ca832"/>
    </g>
    <g clip-path="url(#p39a78f147d)">
     <use xlink:href="#C0_0_cd337912b2" x="350.602405" y="398.487273" style="fill: #a88e32; stroke: #a88e32"/>
    </g>
    <g clip-path="url(#p39a78f147d)">
     <use xlink:href="#C0_0_cd337912b2" x="512.928596" y="398.487273" style="fill: #32a871; stroke: #32a871"/>
    </g>
    <g clip-path="url(#p39a78f147d)">
     <use xlink:href="#C0_0_cd337912b2" x="742.890699" y="215.214545" style="fill: #1f78b4; stroke: #1f78b4"/>
    </g>
    <g clip-path="url(#p39a78f147d)">
     <use xlink:href="#C0_0_cd337912b2" x="708.457871" y="581.76" style="fill: #1f78b4; stroke: #1f78b4"/>
    </g>
    <g clip-path="url(#p39a78f147d)">
     <use xlink:href="#C0_0_cd337912b2" x="676.48453" y="765.032727" style="fill: #1f78b4; stroke: #1f78b4"/>
    </g>
    <g clip-path="url(#p39a78f147d)">
     <use xlink:href="#C0_0_cd337912b2" x="774.86404" y="765.032727" style="fill: #1f78b4; stroke: #1f78b4"/>
    </g>
    <g clip-path="url(#p39a78f147d)">
     <use xlink:href="#C0_0_cd337912b2" x="867.09483" y="581.76" style="fill: #50a832; stroke: #50a832"/>
    </g>
   </g>
   <g id="patch_54">
    <path d="M 144 1025.28 
L 144 138.24 
" style="fill: none; stroke: #000000; stroke-width: 0.8; stroke-linejoin: miter; stroke-linecap: square"/>
   </g>
   <g id="patch_55">
    <path d="M 1036.8 1025.28 
L 1036.8 138.24 
" style="fill: none; stroke: #000000; stroke-width: 0.8; stroke-linejoin: miter; stroke-linecap: square"/>
   </g>
   <g id="patch_56">
    <path d="M 144 1025.28 
L 1036.8 1025.28 
" style="fill: none; stroke: #000000; stroke-width: 0.8; stroke-linejoin: miter; stroke-linecap: square"/>
   </g>
   <g id="patch_57">
    <path d="M 144 138.24 
L 1036.8 138.24 
" style="fill: none; stroke: #000000; stroke-width: 0.8; stroke-linejoin: miter; stroke-linecap: square"/>
   </g>
   <g id="text_31">
    <g clip-path="url(#p39a78f147d)">
     <!-- auth -->
     <g transform="translate(636.932275 401.522585)scale(0.11 -0.11)">
      <use xlink:href="#DejaVuSans-61"/>
      <use xlink:href="#DejaVuSans-75" x="61.279297"/>
      <use xlink:href="#DejaVuSans-74" x="124.658203"/>
      <use xlink:href="#DejaVuSans-68" x="163.867188"/>
     </g>
    </g>
   </g>
   <g id="text_32">
    <g clip-path="url(#p39a78f147d)">
     <!-- verification-code -->
     <g transform="translate(279.935575 584.795313)scale(0.11 -0.11)">
      <defs>
       <path id="DejaVuSans-76" d="M 191 3500 
L 800 3500 
L 1894 563 
L 2988 3500 
L 3597 3500 
L 2284 0 
L 1503 0 
L 191 3500 
z
" transform="scale(0.015625)"/>
       <path id="DejaVuSans-72" d="M 2631 2963 
Q 2534 3019 2420 3045 
Q 2306 3072 2169 3072 
Q 1681 3072 1420 2755 
Q 1159 2438 1159 1844 
L 1159 0 
L 581 0 
L 581 3500 
L 1159 3500 
L 1159 2956 
Q 1341 3275 1631 3429 
Q 1922 3584 2338 3584 
Q 2397 3584 2469 3576 
Q 2541 3569 2628 3553 
L 2631 2963 
z
" transform="scale(0.015625)"/>
       <path id="DejaVuSans-69" d="M 603 3500 
L 1178 3500 
L 1178 0 
L 603 0 
L 603 3500 
z
M 603 4863 
L 1178 4863 
L 1178 4134 
L 603 4134 
L 603 4863 
z
" transform="scale(0.015625)"/>
       <path id="DejaVuSans-66" d="M 2375 4863 
L 2375 4384 
L 1825 4384 
Q 1516 4384 1395 4259 
Q 1275 4134 1275 3809 
L 1275 3500 
L 2222 3500 
L 2222 3053 
L 1275 3053 
L 1275 0 
L 697 0 
L 697 3053 
L 147 3053 
L 147 3500 
L 697 3500 
L 697 3744 
Q 697 4328 969 4595 
Q 1241 4863 1831 4863 
L 2375 4863 
z
" transform="scale(0.015625)"/>
       <path id="DejaVuSans-6f" d="M 1959 3097 
Q 1497 3097 1228 2736 
Q 959 2375 959 1747 
Q 959 1119 1226 758 
Q 1494 397 1959 397 
Q 2419 397 2687 759 
Q 2956 1122 2956 1747 
Q 2956 2369 2687 2733 
Q 2419 3097 1959 3097 
z
M 1959 3584 
Q 2709 3584 3137 3096 
Q 3566 2609 3566 1747 
Q 3566 888 3137 398 
Q 2709 -91 1959 -91 
Q 1206 -91 779 398 
Q 353 888 353 1747 
Q 353 2609 779 3096 
Q 1206 3584 1959 3584 
z
" transform="scale(0.015625)"/>
       <path id="DejaVuSans-2d" d="M 313 2009 
L 1997 2009 
L 1997 1497 
L 313 1497 
L 313 2009 
z
" transform="scale(0.015625)"/>
       <path id="DejaVuSans-64" d="M 2906 2969 
L 2906 4863 
L 3481 4863 
L 3481 0 
L 2906 0 
L 2906 525 
Q 2725 213 2448 61 
Q 2172 -91 1784 -91 
Q 1150 -91 751 415 
Q 353 922 353 1747 
Q 353 2572 751 3078 
Q 1150 3584 1784 3584 
Q 2172 3584 2448 3432 
Q 2725 3281 2906 2969 
z
M 947 1747 
Q 947 1113 1208 752 
Q 1469 391 1925 391 
Q 2381 391 2643 752 
Q 2906 1113 2906 1747 
Q 2906 2381 2643 2742 
Q 2381 3103 1925 3103 
Q 1469 3103 1208 2742 
Q 947 2381 947 1747 
z
" transform="scale(0.015625)"/>
      </defs>
      <use xlink:href="#DejaVuSans-76"/>
      <use xlink:href="#DejaVuSans-65" x="59.179688"/>
      <use xlink:href="#DejaVuSans-72" x="120.703125"/>
      <use xlink:href="#DejaVuSans-69" x="161.816406"/>
      <use xlink:href="#DejaVuSans-66" x="189.599609"/>
      <use xlink:href="#DejaVuSans-69" x="224.804688"/>
      <use xlink:href="#DejaVuSans-63" x="252.587891"/>
      <use xlink:href="#DejaVuSans-61" x="307.568359"/>
      <use xlink:href="#DejaVuSans-74" x="368.847656"/>
      <use xlink:href="#DejaVuSans-69" x="408.056641"/>
      <use xlink:href="#DejaVuSans-6f" x="435.839844"/>
      <use xlink:href="#DejaVuSans-6e" x="497.021484"/>
      <use xlink:href="#DejaVuSans-2d" x="560.400391"/>
      <use xlink:href="#DejaVuSans-63" x="596.484375"/>
      <use xlink:href="#DejaVuSans-6f" x="651.464844"/>
      <use xlink:href="#DejaVuSans-64" x="712.646484"/>
      <use xlink:href="#DejaVuSans-65" x="776.123047"/>
     </g>
    </g>
   </g>
   <g id="text_33">
    <g clip-path="url(#p39a78f147d)">
     <!-- basic -->
     <g transform="translate(854.045199 768.06804)scale(0.11 -0.11)">
      <defs>
       <path id="DejaVuSans-62" d="M 3116 1747 
Q 3116 2381 2855 2742 
Q 2594 3103 2138 3103 
Q 1681 3103 1420 2742 
Q 1159 2381 1159 1747 
Q 1159 1113 1420 752 
Q 1681 391 2138 391 
Q 2594 391 2855 752 
Q 3116 1113 3116 1747 
z
M 1159 2969 
Q 1341 3281 1617 3432 
Q 1894 3584 2278 3584 
Q 2916 3584 3314 3078 
Q 3713 2572 3713 1747 
Q 3713 922 3314 415 
Q 2916 -91 2278 -91 
Q 1894 -91 1617 61 
Q 1341 213 1159 525 
L 1159 0 
L 581 0 
L 581 4863 
L 1159 4863 
L 1159 2969 
z
" transform="scale(0.015625)"/>
      </defs>
      <use xlink:href="#DejaVuSans-62"/>
      <use xlink:href="#DejaVuSans-61" x="63.476562"/>
      <use xlink:href="#DejaVuSans-73" x="124.755859"/>
      <use xlink:href="#DejaVuSans-69" x="176.855469"/>
      <use xlink:href="#DejaVuSans-63" x="204.638672"/>
     </g>
    </g>
   </g>
   <g id="text_34">
    <g clip-path="url(#p39a78f147d)">
     <!-- price -->
     <g transform="translate(853.405845 951.340767)scale(0.11 -0.11)">
      <use xlink:href="#DejaVuSans-70"/>
      <use xlink:href="#DejaVuSans-72" x="63.476562"/>
      <use xlink:href="#DejaVuSans-69" x="104.589844"/>
      <use xlink:href="#DejaVuSans-63" x="132.373047"/>
      <use xlink:href="#DejaVuSans-65" x="187.353516"/>
     </g>
    </g>
   </g>
   <g id="text_35">
    <g clip-path="url(#p39a78f147d)">
     <!-- route -->
     <g transform="translate(944.797026 951.340767)scale(0.11 -0.11)">
      <use xlink:href="#DejaVuSans-72"/>
      <use xlink:href="#DejaVuSans-6f" x="38.863281"/>
      <use xlink:href="#DejaVuSans-75" x="100.044922"/>
      <use xlink:href="#DejaVuSans-74" x="163.423828"/>
      <use xlink:href="#DejaVuSans-65" x="202.632812"/>
     </g>
    </g>
   </g>
   <g id="text_36">
    <g clip-path="url(#p39a78f147d)">
     <!-- station -->
     <g transform="translate(748.558701 951.340767)scale(0.11 -0.11)">
      <use xlink:href="#DejaVuSans-73"/>
      <use xlink:href="#DejaVuSans-74" x="52.099609"/>
      <use xlink:href="#DejaVuSans-61" x="91.308594"/>
      <use xlink:href="#DejaVuSans-74" x="152.587891"/>
      <use xlink:href="#DejaVuSans-69" x="191.796875"/>
      <use xlink:href="#DejaVuSans-6f" x="219.580078"/>
      <use xlink:href="#DejaVuSans-6e" x="280.761719"/>
     </g>
    </g>
   </g>
   <g id="text_37">
    <g clip-path="url(#p39a78f147d)">
     <!-- train -->
     <g transform="translate(626.790964 951.340767)scale(0.11 -0.11)">
      <use xlink:href="#DejaVuSans-74"/>
      <use xlink:href="#DejaVuSans-72" x="39.208984"/>
      <use xlink:href="#DejaVuSans-61" x="80.322266"/>
      <use xlink:href="#DejaVuSans-69" x="141.601562"/>
      <use xlink:href="#DejaVuSans-6e" x="169.384766"/>
     </g>
    </g>
   </g>
   <g id="text_38">
    <g clip-path="url(#p39a78f147d)">
     <!-- gateway -->
     <g transform="translate(408.239251 218.249858)scale(0.11 -0.11)">
      <defs>
       <path id="DejaVuSans-67" d="M 2906 1791 
Q 2906 2416 2648 2759 
Q 2391 3103 1925 3103 
Q 1463 3103 1205 2759 
Q 947 2416 947 1791 
Q 947 1169 1205 825 
Q 1463 481 1925 481 
Q 2391 481 2648 825 
Q 2906 1169 2906 1791 
z
M 3481 434 
Q 3481 -459 3084 -895 
Q 2688 -1331 1869 -1331 
Q 1566 -1331 1297 -1286 
Q 1028 -1241 775 -1147 
L 775 -588 
Q 1028 -725 1275 -790 
Q 1522 -856 1778 -856 
Q 2344 -856 2625 -561 
Q 2906 -266 2906 331 
L 2906 616 
Q 2728 306 2450 153 
Q 2172 0 1784 0 
Q 1141 0 747 490 
Q 353 981 353 1791 
Q 353 2603 747 3093 
Q 1141 3584 1784 3584 
Q 2172 3584 2450 3431 
Q 2728 3278 2906 2969 
L 2906 3500 
L 3481 3500 
L 3481 434 
z
" transform="scale(0.015625)"/>
       <path id="DejaVuSans-77" d="M 269 3500 
L 844 3500 
L 1563 769 
L 2278 3500 
L 2956 3500 
L 3675 769 
L 4391 3500 
L 4966 3500 
L 4050 0 
L 3372 0 
L 2619 2869 
L 1863 0 
L 1184 0 
L 269 3500 
z
" transform="scale(0.015625)"/>
      </defs>
      <use xlink:href="#DejaVuSans-67"/>
      <use xlink:href="#DejaVuSans-61" x="63.476562"/>
      <use xlink:href="#DejaVuSans-74" x="124.755859"/>
      <use xlink:href="#DejaVuSans-65" x="163.964844"/>
      <use xlink:href="#DejaVuSans-77" x="225.488281"/>
      <use xlink:href="#DejaVuSans-61" x="307.275391"/>
      <use xlink:href="#DejaVuSans-79" x="368.554688"/>
     </g>
    </g>
   </g>
   <g id="text_39">
    <g clip-path="url(#p39a78f147d)">
     <!-- consign -->
     <g transform="translate(200.228911 401.522585)scale(0.11 -0.11)">
      <use xlink:href="#DejaVuSans-63"/>
      <use xlink:href="#DejaVuSans-6f" x="54.980469"/>
      <use xlink:href="#DejaVuSans-6e" x="116.162109"/>
      <use xlink:href="#DejaVuSans-73" x="179.541016"/>
      <use xlink:href="#DejaVuSans-69" x="231.640625"/>
      <use xlink:href="#DejaVuSans-67" x="259.423828"/>
      <use xlink:href="#DejaVuSans-6e" x="322.900391"/>
     </g>
    </g>
   </g>
   <g id="text_40">
    <g clip-path="url(#p39a78f147d)">
     <!-- travel -->
     <g transform="translate(726.935543 401.522585)scale(0.11 -0.11)">
      <use xlink:href="#DejaVuSans-74"/>
      <use xlink:href="#DejaVuSans-72" x="39.208984"/>
      <use xlink:href="#DejaVuSans-61" x="80.322266"/>
      <use xlink:href="#DejaVuSans-76" x="141.601562"/>
      <use xlink:href="#DejaVuSans-65" x="200.78125"/>
      <use xlink:href="#DejaVuSans-6c" x="262.304688"/>
     </g>
    </g>
   </g>
   <g id="text_41">
    <g clip-path="url(#p39a78f147d)">
     <!-- travel-plan -->
     <g transform="translate(320.787249 401.522585)scale(0.11 -0.11)">
      <use xlink:href="#DejaVuSans-74"/>
      <use xlink:href="#DejaVuSans-72" x="39.208984"/>
      <use xlink:href="#DejaVuSans-61" x="80.322266"/>
      <use xlink:href="#DejaVuSans-76" x="141.601562"/>
      <use xlink:href="#DejaVuSans-65" x="200.78125"/>
      <use xlink:href="#DejaVuSans-6c" x="262.304688"/>
      <use xlink:href="#DejaVuSans-2d" x="290.087891"/>
      <use xlink:href="#DejaVuSans-70" x="326.171875"/>
      <use xlink:href="#DejaVuSans-6c" x="389.648438"/>
      <use xlink:href="#DejaVuSans-61" x="417.431641"/>
      <use xlink:href="#DejaVuSans-6e" x="478.710938"/>
     </g>
    </g>
   </g>
   <g id="text_42">
    <g clip-path="url(#p39a78f147d)">
     <!-- ts-ui-dashboard -->
     <g transform="translate(469.828361 401.522585)scale(0.11 -0.11)">
      <use xlink:href="#DejaVuSans-74"/>
      <use xlink:href="#DejaVuSans-73" x="39.208984"/>
      <use xlink:href="#DejaVuSans-2d" x="91.308594"/>
      <use xlink:href="#DejaVuSans-75" x="127.392578"/>
      <use xlink:href="#DejaVuSans-69" x="190.771484"/>
      <use xlink:href="#DejaVuSans-2d" x="218.554688"/>
      <use xlink:href="#DejaVuSans-64" x="254.638672"/>
      <use xlink:href="#DejaVuSans-61" x="318.115234"/>
      <use xlink:href="#DejaVuSans-73" x="379.394531"/>
      <use xlink:href="#DejaVuSans-68" x="431.494141"/>
      <use xlink:href="#DejaVuSans-62" x="494.873047"/>
      <use xlink:href="#DejaVuSans-6f" x="558.349609"/>
      <use xlink:href="#DejaVuSans-61" x="619.53125"/>
      <use xlink:href="#DejaVuSans-72" x="680.810547"/>
      <use xlink:href="#DejaVuSans-64" x="720.173828"/>
     </g>
    </g>
   </g>
   <g id="text_43">
    <g clip-path="url(#p39a78f147d)">
     <!-- route-plan -->
     <g transform="translate(714.502105 218.249858)scale(0.11 -0.11)">
      <use xlink:href="#DejaVuSans-72"/>
      <use xlink:href="#DejaVuSans-6f" x="38.863281"/>
      <use xlink:href="#DejaVuSans-75" x="100.044922"/>
      <use xlink:href="#DejaVuSans-74" x="163.423828"/>
      <use xlink:href="#DejaVuSans-65" x="202.632812"/>
      <use xlink:href="#DejaVuSans-2d" x="264.15625"/>
      <use xlink:href="#DejaVuSans-70" x="300.240234"/>
      <use xlink:href="#DejaVuSans-6c" x="363.716797"/>
      <use xlink:href="#DejaVuSans-61" x="391.5"/>
      <use xlink:href="#DejaVuSans-6e" x="452.779297"/>
     </g>
    </g>
   </g>
   <g id="text_44">
    <g clip-path="url(#p39a78f147d)">
     <!-- seat -->
     <g transform="translate(696.681855 584.795313)scale(0.11 -0.11)">
      <use xlink:href="#DejaVuSans-73"/>
      <use xlink:href="#DejaVuSans-65" x="52.099609"/>
      <use xlink:href="#DejaVuSans-61" x="113.623047"/>
      <use xlink:href="#DejaVuSans-74" x="174.902344"/>
     </g>
    </g>
   </g>
   <g id="text_45">
    <g clip-path="url(#p39a78f147d)">
     <!-- config -->
     <g transform="translate(659.653671 768.06804)scale(0.11 -0.11)">
      <use xlink:href="#DejaVuSans-63"/>
      <use xlink:href="#DejaVuSans-6f" x="54.980469"/>
      <use xlink:href="#DejaVuSans-6e" x="116.162109"/>
      <use xlink:href="#DejaVuSans-66" x="179.541016"/>
      <use xlink:href="#DejaVuSans-69" x="214.746094"/>
      <use xlink:href="#DejaVuSans-67" x="242.529297"/>
     </g>
    </g>
   </g>
   <g id="text_46">
    <g clip-path="url(#p39a78f147d)">
     <!-- order -->
     <g transform="translate(760.197087 768.06804)scale(0.11 -0.11)">
      <use xlink:href="#DejaVuSans-6f"/>
      <use xlink:href="#DejaVuSans-72" x="61.181641"/>
      <use xlink:href="#DejaVuSans-64" x="100.544922"/>
      <use xlink:href="#DejaVuSans-65" x="164.021484"/>
      <use xlink:href="#DejaVuSans-72" x="225.544922"/>
     </g>
    </g>
   </g>
   <g id="text_47">
    <g clip-path="url(#p39a78f147d)">
     <!-- ticketinfo -->
     <g transform="translate(841.545611 584.795313)scale(0.11 -0.11)">
      <defs>
       <path id="DejaVuSans-6b" d="M 581 4863 
L 1159 4863 
L 1159 1991 
L 2875 3500 
L 3609 3500 
L 1753 1863 
L 3688 0 
L 2938 0 
L 1159 1709 
L 1159 0 
L 581 0 
L 581 4863 
z
" transform="scale(0.015625)"/>
      </defs>
      <use xlink:href="#DejaVuSans-74"/>
      <use xlink:href="#DejaVuSans-69" x="39.208984"/>
      <use xlink:href="#DejaVuSans-63" x="66.992188"/>
      <use xlink:href="#DejaVuSans-6b" x="121.972656"/>
      <use xlink:href="#DejaVuSans-65" x="176.257812"/>
      <use xlink:href="#DejaVuSans-74" x="237.78125"/>
      <use xlink:href="#DejaVuSans-69" x="276.990234"/>
      <use xlink:href="#DejaVuSans-6e" x="304.773438"/>
      <use xlink:href="#DejaVuSans-66" x="368.152344"/>
      <use xlink:href="#DejaVuSans-6f" x="403.357422"/>
     </g>
    </g>
   </g>
  </g>
 </g>
 <defs>
  <clipPath id="p39a78f147d">
   <rect x="144" y="138.24" width="892.8" height="887.04"/>
  </clipPath>
 </defs>
</svg>
