<?xml version="1.0" encoding="utf-8" standalone="no"?>
<!DOCTYPE svg PUBLIC "-//W3C//DTD SVG 1.1//EN"
  "http://www.w3.org/Graphics/SVG/1.1/DTD/svg11.dtd">
<svg xmlns:xlink="http://www.w3.org/1999/xlink" width="1152pt" height="1152pt" viewBox="0 0 1152 1152" xmlns="http://www.w3.org/2000/svg" version="1.1">
 <metadata>
  <rdf:RDF xmlns:dc="http://purl.org/dc/elements/1.1/" xmlns:cc="http://creativecommons.org/ns#" xmlns:rdf="http://www.w3.org/1999/02/22-rdf-syntax-ns#">
   <cc:Work>
    <dc:type rdf:resource="http://purl.org/dc/dcmitype/StillImage"/>
    <dc:date>2022-11-17T01:45:52.668480</dc:date>
    <dc:format>image/svg+xml</dc:format>
    <dc:creator>
     <cc:Agent>
      <dc:title>Matplotlib v3.5.3, https://matplotlib.org/</dc:title>
     </cc:Agent>
    </dc:creator>
   </cc:Work>
  </rdf:RDF>
 </metadata>
 <defs>
  <style type="text/css">*{stroke-linejoin: round; stroke-linecap: butt}</style>
 </defs>
 <g id="figure_1">
  <g id="patch_1">
   <path d="M 0 1152 
L 1152 1152 
L 1152 0 
L 0 0 
z
" style="fill: #ffffff"/>
  </g>
  <g id="axes_1">
   <g id="patch_2">
    <path d="M 144 1025.28 
L 1036.8 1025.28 
L 1036.8 138.24 
L 144 138.24 
z
" style="fill: #ffffff"/>
   </g>
   <g id="text_1">
    <g id="patch_3">
     <path d="M 699.701922 268.257465 
L 754.801589 276.001848 
Q 757.178228 276.33589 757.512271 273.95925 
L 758.620873 266.071778 
Q 758.954915 263.695138 756.578275 263.361096 
L 701.478609 255.616713 
Q 699.101969 255.282671 698.767927 257.65931 
L 697.659325 265.546783 
Q 697.325283 267.923423 699.701922 268.257465 
L 699.701922 268.257465 
z
" clip-path="url(#p50464e47de)" style="fill: none"/>
    </g>
    <g clip-path="url(#p50464e47de)">
     <!-- ['http_status'] -->
     <g transform="translate(700.298501 264.012935)rotate(-351.999358)scale(0.08 -0.08)">
      <defs>
       <path id="DejaVuSans-5b" d="M 550 4863 
L 1875 4863 
L 1875 4416 
L 1125 4416 
L 1125 -397 
L 1875 -397 
L 1875 -844 
L 550 -844 
L 550 4863 
z
" transform="scale(0.015625)"/>
       <path id="DejaVuSans-27" d="M 1147 4666 
L 1147 2931 
L 616 2931 
L 616 4666 
L 1147 4666 
z
" transform="scale(0.015625)"/>
       <path id="DejaVuSans-68" d="M 3513 2113 
L 3513 0 
L 2938 0 
L 2938 2094 
Q 2938 2591 2744 2837 
Q 2550 3084 2163 3084 
Q 1697 3084 1428 2787 
Q 1159 2491 1159 1978 
L 1159 0 
L 581 0 
L 581 4863 
L 1159 4863 
L 1159 2956 
Q 1366 3272 1645 3428 
Q 1925 3584 2291 3584 
Q 2894 3584 3203 3211 
Q 3513 2838 3513 2113 
z
" transform="scale(0.015625)"/>
       <path id="DejaVuSans-74" d="M 1172 4494 
L 1172 3500 
L 2356 3500 
L 2356 3053 
L 1172 3053 
L 1172 1153 
Q 1172 725 1289 603 
Q 1406 481 1766 481 
L 2356 481 
L 2356 0 
L 1766 0 
Q 1100 0 847 248 
Q 594 497 594 1153 
L 594 3053 
L 172 3053 
L 172 3500 
L 594 3500 
L 594 4494 
L 1172 4494 
z
" transform="scale(0.015625)"/>
       <path id="DejaVuSans-70" d="M 1159 525 
L 1159 -1331 
L 581 -1331 
L 581 3500 
L 1159 3500 
L 1159 2969 
Q 1341 3281 1617 3432 
Q 1894 3584 2278 3584 
Q 2916 3584 3314 3078 
Q 3713 2572 3713 1747 
Q 3713 922 3314 415 
Q 2916 -91 2278 -91 
Q 1894 -91 1617 61 
Q 1341 213 1159 525 
z
M 3116 1747 
Q 3116 2381 2855 2742 
Q 2594 3103 2138 3103 
Q 1681 3103 1420 2742 
Q 1159 2381 1159 1747 
Q 1159 1113 1420 752 
Q 1681 391 2138 391 
Q 2594 391 2855 752 
Q 3116 1113 3116 1747 
z
" transform="scale(0.015625)"/>
       <path id="DejaVuSans-5f" d="M 3263 -1063 
L 3263 -1509 
L -63 -1509 
L -63 -1063 
L 3263 -1063 
z
" transform="scale(0.015625)"/>
       <path id="DejaVuSans-73" d="M 2834 3397 
L 2834 2853 
Q 2591 2978 2328 3040 
Q 2066 3103 1784 3103 
Q 1356 3103 1142 2972 
Q 928 2841 928 2578 
Q 928 2378 1081 2264 
Q 1234 2150 1697 2047 
L 1894 2003 
Q 2506 1872 2764 1633 
Q 3022 1394 3022 966 
Q 3022 478 2636 193 
Q 2250 -91 1575 -91 
Q 1294 -91 989 -36 
Q 684 19 347 128 
L 347 722 
Q 666 556 975 473 
Q 1284 391 1588 391 
Q 1994 391 2212 530 
Q 2431 669 2431 922 
Q 2431 1156 2273 1281 
Q 2116 1406 1581 1522 
L 1381 1569 
Q 847 1681 609 1914 
Q 372 2147 372 2553 
Q 372 3047 722 3315 
Q 1072 3584 1716 3584 
Q 2034 3584 2315 3537 
Q 2597 3491 2834 3397 
z
" transform="scale(0.015625)"/>
       <path id="DejaVuSans-61" d="M 2194 1759 
Q 1497 1759 1228 1600 
Q 959 1441 959 1056 
Q 959 750 1161 570 
Q 1363 391 1709 391 
Q 2188 391 2477 730 
Q 2766 1069 2766 1631 
L 2766 1759 
L 2194 1759 
z
M 3341 1997 
L 3341 0 
L 2766 0 
L 2766 531 
Q 2569 213 2275 61 
Q 1981 -91 1556 -91 
Q 1019 -91 701 211 
Q 384 513 384 1019 
Q 384 1609 779 1909 
Q 1175 2209 1959 2209 
L 2766 2209 
L 2766 2266 
Q 2766 2663 2505 2880 
Q 2244 3097 1772 3097 
Q 1472 3097 1187 3025 
Q 903 2953 641 2809 
L 641 3341 
Q 956 3463 1253 3523 
Q 1550 3584 1831 3584 
Q 2591 3584 2966 3190 
Q 3341 2797 3341 1997 
z
" transform="scale(0.015625)"/>
       <path id="DejaVuSans-75" d="M 544 1381 
L 544 3500 
L 1119 3500 
L 1119 1403 
Q 1119 906 1312 657 
Q 1506 409 1894 409 
Q 2359 409 2629 706 
Q 2900 1003 2900 1516 
L 2900 3500 
L 3475 3500 
L 3475 0 
L 2900 0 
L 2900 538 
Q 2691 219 2414 64 
Q 2138 -91 1772 -91 
Q 1169 -91 856 284 
Q 544 659 544 1381 
z
M 1991 3584 
L 1991 3584 
z
" transform="scale(0.015625)"/>
       <path id="DejaVuSans-5d" d="M 1947 4863 
L 1947 -844 
L 622 -844 
L 622 -397 
L 1369 -397 
L 1369 4416 
L 622 4416 
L 622 4863 
L 1947 4863 
z
" transform="scale(0.015625)"/>
      </defs>
      <use xlink:href="#DejaVuSans-5b"/>
      <use xlink:href="#DejaVuSans-27" x="39.013672"/>
      <use xlink:href="#DejaVuSans-68" x="66.503906"/>
      <use xlink:href="#DejaVuSans-74" x="129.882812"/>
      <use xlink:href="#DejaVuSans-74" x="169.091797"/>
      <use xlink:href="#DejaVuSans-70" x="208.300781"/>
      <use xlink:href="#DejaVuSans-5f" x="271.777344"/>
      <use xlink:href="#DejaVuSans-73" x="321.777344"/>
      <use xlink:href="#DejaVuSans-74" x="373.876953"/>
      <use xlink:href="#DejaVuSans-61" x="413.085938"/>
      <use xlink:href="#DejaVuSans-74" x="474.365234"/>
      <use xlink:href="#DejaVuSans-75" x="513.574219"/>
      <use xlink:href="#DejaVuSans-73" x="576.953125"/>
      <use xlink:href="#DejaVuSans-27" x="629.052734"/>
      <use xlink:href="#DejaVuSans-5d" x="656.542969"/>
     </g>
    </g>
   </g>
   <g id="text_2">
    <g id="patch_4">
     <path d="M 662.974327 268.187381 
L 717.697773 278.25183 
Q 720.058185 278.685945 720.4923 276.325533 
L 721.933017 268.491916 
Q 722.367132 266.131504 720.00672 265.697389 
L 665.283274 255.63294 
Q 662.922862 255.198826 662.488747 257.559238 
L 661.04803 265.392855 
Q 660.613915 267.753267 662.974327 268.187381 
L 662.974327 268.187381 
z
" clip-path="url(#p50464e47de)" style="fill: none"/>
    </g>
    <g clip-path="url(#p50464e47de)">
     <!-- ['http_status'] -->
     <g transform="translate(663.749628 263.971833)rotate(-349.578916)scale(0.08 -0.08)">
      <use xlink:href="#DejaVuSans-5b"/>
      <use xlink:href="#DejaVuSans-27" x="39.013672"/>
      <use xlink:href="#DejaVuSans-68" x="66.503906"/>
      <use xlink:href="#DejaVuSans-74" x="129.882812"/>
      <use xlink:href="#DejaVuSans-74" x="169.091797"/>
      <use xlink:href="#DejaVuSans-70" x="208.300781"/>
      <use xlink:href="#DejaVuSans-5f" x="271.777344"/>
      <use xlink:href="#DejaVuSans-73" x="321.777344"/>
      <use xlink:href="#DejaVuSans-74" x="373.876953"/>
      <use xlink:href="#DejaVuSans-61" x="413.085938"/>
      <use xlink:href="#DejaVuSans-74" x="474.365234"/>
      <use xlink:href="#DejaVuSans-75" x="513.574219"/>
      <use xlink:href="#DejaVuSans-73" x="576.953125"/>
      <use xlink:href="#DejaVuSans-27" x="629.052734"/>
      <use xlink:href="#DejaVuSans-5d" x="656.542969"/>
     </g>
    </g>
   </g>
   <g id="text_3">
    <g id="patch_5">
     <path d="M 852.270198 398.921677 
L 888.026822 356.290555 
Q 889.569129 354.451727 887.730301 352.90942 
L 881.62769 347.790888 
Q 879.788862 346.248581 878.246555 348.087409 
L 842.489931 390.71853 
Q 840.947624 392.557358 842.786452 394.099666 
L 848.889063 399.218197 
Q 850.727891 400.760505 852.270198 398.921677 
L 852.270198 398.921677 
z
" clip-path="url(#p50464e47de)" style="fill: none"/>
    </g>
    <g clip-path="url(#p50464e47de)">
     <!-- ['http_status'] -->
     <g transform="translate(848.986166 396.167212)rotate(-50.011938)scale(0.08 -0.08)">
      <use xlink:href="#DejaVuSans-5b"/>
      <use xlink:href="#DejaVuSans-27" x="39.013672"/>
      <use xlink:href="#DejaVuSans-68" x="66.503906"/>
      <use xlink:href="#DejaVuSans-74" x="129.882812"/>
      <use xlink:href="#DejaVuSans-74" x="169.091797"/>
      <use xlink:href="#DejaVuSans-70" x="208.300781"/>
      <use xlink:href="#DejaVuSans-5f" x="271.777344"/>
      <use xlink:href="#DejaVuSans-73" x="321.777344"/>
      <use xlink:href="#DejaVuSans-74" x="373.876953"/>
      <use xlink:href="#DejaVuSans-61" x="413.085938"/>
      <use xlink:href="#DejaVuSans-74" x="474.365234"/>
      <use xlink:href="#DejaVuSans-75" x="513.574219"/>
      <use xlink:href="#DejaVuSans-73" x="576.953125"/>
      <use xlink:href="#DejaVuSans-27" x="629.052734"/>
      <use xlink:href="#DejaVuSans-5d" x="656.542969"/>
     </g>
    </g>
   </g>
   <g id="text_4">
    <g id="patch_6">
     <path d="M 805.840356 356.290555 
L 841.59698 398.921677 
Q 843.139287 400.760505 844.978115 399.218198 
L 851.080726 394.099666 
Q 852.919554 392.557359 851.377247 390.718531 
L 815.620623 348.087409 
Q 814.078316 346.248581 812.239487 347.790888 
L 806.136877 352.90942 
Q 804.298049 354.451727 805.840356 356.290555 
L 805.840356 356.290555 
z
" clip-path="url(#p50464e47de)" style="fill: none"/>
    </g>
    <g clip-path="url(#p50464e47de)">
     <!-- ['http_status'] -->
     <g transform="translate(809.124388 353.536091)rotate(-309.988061)scale(0.08 -0.08)">
      <use xlink:href="#DejaVuSans-5b"/>
      <use xlink:href="#DejaVuSans-27" x="39.013672"/>
      <use xlink:href="#DejaVuSans-68" x="66.503906"/>
      <use xlink:href="#DejaVuSans-74" x="129.882812"/>
      <use xlink:href="#DejaVuSans-74" x="169.091797"/>
      <use xlink:href="#DejaVuSans-70" x="208.300781"/>
      <use xlink:href="#DejaVuSans-5f" x="271.777344"/>
      <use xlink:href="#DejaVuSans-73" x="321.777344"/>
      <use xlink:href="#DejaVuSans-74" x="373.876953"/>
      <use xlink:href="#DejaVuSans-61" x="413.085938"/>
      <use xlink:href="#DejaVuSans-74" x="474.365234"/>
      <use xlink:href="#DejaVuSans-75" x="513.574219"/>
      <use xlink:href="#DejaVuSans-73" x="576.953125"/>
      <use xlink:href="#DejaVuSans-27" x="629.052734"/>
      <use xlink:href="#DejaVuSans-5d" x="656.542969"/>
     </g>
    </g>
   </g>
   <g id="patch_7">
    <path d="M 338.503257 311.999302 
Q 283.472756 352.668549 229.341394 392.673305 
" clip-path="url(#p50464e47de)" style="fill: none; stroke: #808080; stroke-linecap: round"/>
    <path d="M 233.746931 391.904376 
L 229.341394 392.673305 
L 231.369573 388.687519 
L 233.746931 391.904376 
z
" clip-path="url(#p50464e47de)" style="fill: #808080; stroke: #808080; stroke-linecap: round"/>
   </g>
   <g id="patch_8">
    <path d="M 413.882207 865.329913 
Q 413.882207 902.486334 413.882207 938.524721 
" clip-path="url(#p50464e47de)" style="fill: none; stroke: #808080; stroke-linecap: round"/>
    <path d="M 415.882207 934.524721 
L 413.882207 938.524721 
L 411.882207 934.524721 
L 415.882207 934.524721 
z
" clip-path="url(#p50464e47de)" style="fill: #808080; stroke: #808080; stroke-linecap: round"/>
   </g>
   <g id="patch_9">
    <path d="M 417.753464 864.412654 
Q 436.787928 902.486744 455.322445 939.560807 
" clip-path="url(#p50464e47de)" style="fill: none; stroke: #808080; stroke-linecap: round"/>
    <path d="M 455.322688 935.088671 
L 455.322445 939.560807 
L 451.744882 936.877331 
L 455.322688 935.088671 
z
" clip-path="url(#p50464e47de)" style="fill: #808080; stroke: #808080; stroke-linecap: round"/>
   </g>
   <g id="patch_10">
    <path d="M 421.314601 861.111363 
Q 490.540745 902.487179 558.807206 943.289401 
" clip-path="url(#p50464e47de)" style="fill: none; stroke: #808080; stroke-linecap: round"/>
    <path d="M 556.399816 939.520519 
L 558.807206 943.289401 
L 554.347666 942.953984 
L 556.399816 939.520519 
z
" clip-path="url(#p50464e47de)" style="fill: #808080; stroke: #808080; stroke-linecap: round"/>
   </g>
   <g id="patch_11">
    <path d="M 410.051532 864.435027 
Q 391.282182 902.486165 373.007424 939.534618 
" clip-path="url(#p50464e47de)" style="fill: none; stroke: #808080; stroke-linecap: round"/>
    <path d="M 376.570587 936.832051 
L 373.007424 939.534618 
L 372.983268 935.062547 
L 376.570587 936.832051 
z
" clip-path="url(#p50464e47de)" style="fill: #808080; stroke: #808080; stroke-linecap: round"/>
   </g>
   <g id="patch_12">
    <path d="M 589.097088 407.131316 
Q 591.32723 444.305381 593.490419 480.36342 
" clip-path="url(#p50464e47de)" style="fill: none; stroke: #808080; stroke-linecap: round"/>
    <path d="M 595.247293 476.25083 
L 593.490419 480.36342 
L 591.254471 476.490367 
L 595.247293 476.25083 
z
" clip-path="url(#p50464e47de)" style="fill: #808080; stroke: #808080; stroke-linecap: round"/>
   </g>
   <g id="patch_13">
    <path d="M 588.242024 407.141104 
Q 577.888977 673.398407 567.579371 938.53852 
" clip-path="url(#p50464e47de)" style="fill: none; stroke: #808080; stroke-linecap: round"/>
    <path d="M 569.733278 934.619249 
L 567.579371 938.53852 
L 565.736298 934.463832 
L 569.733278 934.619249 
z
" clip-path="url(#p50464e47de)" style="fill: #808080; stroke: #808080; stroke-linecap: round"/>
   </g>
   <g id="patch_14">
    <path d="M 581.129346 402.904376 
Q 511.309014 444.305443 442.450359 485.136269 
" clip-path="url(#p50464e47de)" style="fill: none; stroke: #808080; stroke-linecap: round"/>
    <path d="M 446.911042 484.816411 
L 442.450359 485.136269 
L 444.870882 481.375808 
L 446.911042 484.816411 
z
" clip-path="url(#p50464e47de)" style="fill: #808080; stroke: #808080; stroke-linecap: round"/>
   </g>
   <g id="patch_15">
    <path d="M 437.527379 498.05177 
Q 474.354114 581.760245 510.730625 664.445345 
" clip-path="url(#p50464e47de)" style="fill: none; stroke: #808080; stroke-linecap: round"/>
    <path d="M 510.950524 659.978618 
L 510.730625 664.445345 
L 507.289183 661.58939 
L 510.950524 659.978618 
z
" clip-path="url(#p50464e47de)" style="fill: #808080; stroke: #808080; stroke-linecap: round"/>
   </g>
   <g id="patch_16">
    <path d="M 434.523514 498.768378 
Q 446.866782 719.213785 459.147548 938.542906 
" clip-path="url(#p50464e47de)" style="fill: none; stroke: #808080; stroke-linecap: round"/>
    <path d="M 460.920801 934.437352 
L 459.147548 938.542906 
L 456.927056 934.660971 
L 460.920801 934.437352 
z
" clip-path="url(#p50464e47de)" style="fill: #808080; stroke: #808080; stroke-linecap: round"/>
   </g>
   <g id="patch_17">
    <path d="M 433.348939 498.756493 
Q 430.374408 535.943169 427.489023 572.01537 
" clip-path="url(#p50464e47de)" style="fill: none; stroke: #808080; stroke-linecap: round"/>
    <path d="M 429.801593 568.187574 
L 427.489023 572.01537 
L 425.814329 567.868636 
L 429.801593 568.187574 
z
" clip-path="url(#p50464e47de)" style="fill: #808080; stroke: #808080; stroke-linecap: round"/>
   </g>
   <g id="patch_18">
    <path d="M 431.236231 498.316041 
Q 387.00586 627.578157 343.137451 755.782452 
" clip-path="url(#p50464e47de)" style="fill: none; stroke: #808080; stroke-linecap: round"/>
    <path d="M 346.324728 752.645373 
L 343.137451 755.782452 
L 342.540153 751.350383 
L 346.324728 752.645373 
z
" clip-path="url(#p50464e47de)" style="fill: #808080; stroke: #808080; stroke-linecap: round"/>
   </g>
   <g id="patch_19">
    <path d="M 432.816297 498.698465 
Q 401.360077 719.215889 370.061744 938.626482 
" clip-path="url(#p50464e47de)" style="fill: none; stroke: #808080; stroke-linecap: round"/>
    <path d="M 372.606572 934.949004 
L 370.061744 938.626482 
L 368.646658 934.384133 
L 372.606572 934.949004 
z
" clip-path="url(#p50464e47de)" style="fill: #808080; stroke: #808080; stroke-linecap: round"/>
   </g>
   <g id="patch_20">
    <path d="M 576.486829 223.002853 
Q 594.99262 261.033607 613.009216 298.05903 
" clip-path="url(#p50464e47de)" style="fill: none; stroke: #808080; stroke-linecap: round"/>
    <path d="M 613.05741 293.587154 
L 613.009216 298.05903 
L 609.460631 295.337349 
L 613.05741 293.587154 
z
" clip-path="url(#p50464e47de)" style="fill: #808080; stroke: #808080; stroke-linecap: round"/>
   </g>
   <g id="patch_21">
    <path d="M 564.663498 218.454314 
Q 459.081813 261.033347 354.537021 303.194222 
" clip-path="url(#p50464e47de)" style="fill: none; stroke: #808080; stroke-linecap: round"/>
    <path d="M 358.99474 303.553022 
L 354.537021 303.194222 
L 357.498692 299.843327 
L 358.99474 303.553022 
z
" clip-path="url(#p50464e47de)" style="fill: #808080; stroke: #808080; stroke-linecap: round"/>
   </g>
   <g id="patch_22">
    <path d="M 579.258681 220.871905 
Q 625.84061 261.034186 671.575777 300.466402 
" clip-path="url(#p50464e47de)" style="fill: none; stroke: #808080; stroke-linecap: round"/>
    <path d="M 669.852294 296.339708 
L 671.575777 300.466402 
L 667.240332 299.369172 
L 669.852294 296.339708 
z
" clip-path="url(#p50464e47de)" style="fill: #808080; stroke: #808080; stroke-linecap: round"/>
   </g>
   <g id="patch_23">
    <path d="M 580.269262 219.42191 
Q 655.159542 261.033263 729.072515 302.101594 
" clip-path="url(#p50464e47de)" style="fill: none; stroke: #808080; stroke-linecap: round"/>
    <path d="M 726.547384 298.410563 
L 729.072515 302.101594 
L 724.604611 301.90708 
L 726.547384 298.410563 
z
" clip-path="url(#p50464e47de)" style="fill: #808080; stroke: #808080; stroke-linecap: round"/>
   </g>
   <g id="patch_24">
    <path d="M 573.444628 223.841809 
Q 580.63782 306.851436 587.734491 388.747202 
" clip-path="url(#p50464e47de)" style="fill: none; stroke: #808080; stroke-linecap: round"/>
    <path d="M 589.381699 384.589473 
L 587.734491 388.747202 
L 585.396633 384.934799 
L 589.381699 384.589473 
z
" clip-path="url(#p50464e47de)" style="fill: #808080; stroke: #808080; stroke-linecap: round"/>
   </g>
   <g id="patch_25">
    <path d="M 571.609265 223.803357 
Q 543.683017 444.303632 515.897246 663.694733 
" clip-path="url(#p50464e47de)" style="fill: none; stroke: #808080; stroke-linecap: round"/>
    <path d="M 518.383979 659.977724 
L 515.897246 663.694733 
L 514.415679 659.475141 
L 518.383979 659.977724 
z
" clip-path="url(#p50464e47de)" style="fill: #808080; stroke: #808080; stroke-linecap: round"/>
   </g>
   <g id="patch_26">
    <path d="M 571.863853 223.834818 
Q 546.125945 490.125148 520.495598 755.30263 
" clip-path="url(#p50464e47de)" style="fill: none; stroke: #808080; stroke-linecap: round"/>
    <path d="M 522.871142 751.513595 
L 520.495598 755.30263 
L 518.889696 751.128774 
L 522.871142 751.513595 
z
" clip-path="url(#p50464e47de)" style="fill: #808080; stroke: #808080; stroke-linecap: round"/>
   </g>
   <g id="patch_27">
    <path d="M 581.003333 217.662899 
Q 728.140255 261.032773 874.204761 304.086544 
" clip-path="url(#p50464e47de)" style="fill: none; stroke: #ff0000; stroke-linecap: round"/>
    <path d="M 870.93343 301.037218 
L 874.204761 304.086544 
L 869.802501 304.874013 
L 870.93343 301.037218 
z
" clip-path="url(#p50464e47de)" style="fill: #ff0000; stroke: #ff0000; stroke-linecap: round"/>
   </g>
   <g id="patch_28">
    <path d="M 580.777804 218.331267 
Q 691.491367 261.033053 801.161796 303.332506 
" clip-path="url(#p50464e47de)" style="fill: none; stroke: #ff0000; stroke-linecap: round"/>
    <path d="M 798.149481 300.027062 
L 801.161796 303.332506 
L 796.710052 303.759091 
L 798.149481 300.027062 
z
" clip-path="url(#p50464e47de)" style="fill: #ff0000; stroke: #ff0000; stroke-linecap: round"/>
   </g>
   <g id="patch_29">
    <path d="M 568.797713 222.945525 
Q 503.368944 352.667722 438.443667 481.391673 
" clip-path="url(#p50464e47de)" style="fill: none; stroke: #808080; stroke-linecap: round"/>
    <path d="M 442.030731 478.720911 
L 438.443667 481.391673 
L 438.459296 476.919564 
L 442.030731 478.720911 
z
" clip-path="url(#p50464e47de)" style="fill: #808080; stroke: #808080; stroke-linecap: round"/>
   </g>
   <g id="patch_30">
    <path d="M 565.450788 219.961638 
Q 502.754916 261.034372 440.994262 301.494435 
" clip-path="url(#p50464e47de)" style="fill: none; stroke: #808080; stroke-linecap: round"/>
    <path d="M 445.436181 300.975445 
L 440.994262 301.494435 
L 443.244221 297.629505 
L 445.436181 300.975445 
z
" clip-path="url(#p50464e47de)" style="fill: #808080; stroke: #808080; stroke-linecap: round"/>
   </g>
   <g id="patch_31">
    <path d="M 581.124446 217.21196 
Q 766.010839 261.032612 949.809337 304.595417 
" clip-path="url(#p50464e47de)" style="fill: none; stroke: #808080; stroke-linecap: round"/>
    <path d="M 946.378416 301.726833 
L 949.809337 304.595417 
L 945.455917 305.619004 
L 946.378416 301.726833 
z
" clip-path="url(#p50464e47de)" style="fill: #808080; stroke: #808080; stroke-linecap: round"/>
   </g>
   <g id="patch_32">
    <path d="M 565.019933 219.22056 
Q 397.085676 306.850925 230.142621 393.964067 
" clip-path="url(#p50464e47de)" style="fill: none; stroke: #808080; stroke-linecap: round"/>
    <path d="M 234.614088 393.886712 
L 230.142621 393.964067 
L 232.763617 390.34048 
L 234.614088 393.886712 
z
" clip-path="url(#p50464e47de)" style="fill: #808080; stroke: #808080; stroke-linecap: round"/>
   </g>
   <g id="patch_33">
    <path d="M 516.293302 681.899182 
Q 540.933561 810.848257 565.363978 938.699167 
" clip-path="url(#p50464e47de)" style="fill: none; stroke: #808080; stroke-linecap: round"/>
    <path d="M 566.577677 934.394875 
L 565.363978 938.699167 
L 562.648764 935.145632 
L 566.577677 934.394875 
z
" clip-path="url(#p50464e47de)" style="fill: #808080; stroke: #808080; stroke-linecap: round"/>
   </g>
   <g id="patch_34">
    <path d="M 521.733958 773.413897 
Q 543.377242 856.668587 564.739227 938.841209 
" clip-path="url(#p50464e47de)" style="fill: none; stroke: #808080; stroke-linecap: round"/>
    <path d="M 565.668481 934.466682 
L 564.739227 938.841209 
L 561.797158 935.47309 
L 565.668481 934.466682 
z
" clip-path="url(#p50464e47de)" style="fill: #808080; stroke: #808080; stroke-linecap: round"/>
   </g>
   <g id="patch_35">
    <path d="M 880.367602 314.890904 
Q 865.258118 352.669738 850.563812 389.410484 
" clip-path="url(#p50464e47de)" style="fill: none; stroke: #ff0000; stroke-linecap: round"/>
    <path d="M 853.906189 386.439202 
L 850.563812 389.410484 
L 850.192213 384.953813 
L 853.906189 386.439202 
z
" clip-path="url(#p50464e47de)" style="fill: #ff0000; stroke: #ff0000; stroke-linecap: round"/>
   </g>
   <g id="patch_36">
    <path d="M 813.499575 314.890904 
Q 828.60906 352.669738 843.303366 389.410484 
" clip-path="url(#p50464e47de)" style="fill: none; stroke: #ff0000; stroke-linecap: round"/>
    <path d="M 843.674965 384.953813 
L 843.303366 389.410484 
L 839.960988 386.439202 
L 843.674965 384.953813 
z
" clip-path="url(#p50464e47de)" style="fill: #ff0000; stroke: #ff0000; stroke-linecap: round"/>
   </g>
   <g id="patch_37">
    <path d="M 432.933283 315.511731 
Q 433.428669 352.670685 433.90915 388.711703 
" clip-path="url(#p50464e47de)" style="fill: none; stroke: #808080; stroke-linecap: round"/>
    <path d="M 435.855651 384.685398 
L 433.90915 388.711703 
L 431.856007 384.738719 
L 435.855651 384.685398 
z
" clip-path="url(#p50464e47de)" style="fill: #808080; stroke: #808080; stroke-linecap: round"/>
   </g>
   <g id="patch_38">
    <path d="M 432.625353 315.513129 
Q 429.763636 444.307859 426.926755 571.984831 
" clip-path="url(#p50464e47de)" style="fill: none; stroke: #808080; stroke-linecap: round"/>
    <path d="M 429.015116 568.030245 
L 426.926755 571.984831 
L 425.016103 567.941391 
L 429.015116 568.030245 
z
" clip-path="url(#p50464e47de)" style="fill: #808080; stroke: #808080; stroke-linecap: round"/>
   </g>
   <g id="patch_39">
    <path d="M 434.593044 315.324714 
Q 500.008547 627.577409 565.194804 938.735825 
" clip-path="url(#p50464e47de)" style="fill: none; stroke: #808080; stroke-linecap: round"/>
    <path d="M 566.332132 934.410726 
L 565.194804 938.735825 
L 562.417122 935.230902 
L 566.332132 934.410726 
z
" clip-path="url(#p50464e47de)" style="fill: #808080; stroke: #808080; stroke-linecap: round"/>
   </g>
   <g id="patch_40">
    <path d="M 431.097225 315.341843 
Q 386.394378 535.945015 341.913575 755.452425 
" clip-path="url(#p50464e47de)" style="fill: none; stroke: #808080; stroke-linecap: round"/>
    <path d="M 344.668146 751.92931 
L 341.913575 755.452425 
L 340.747825 751.134899 
L 344.668146 751.92931 
z
" clip-path="url(#p50464e47de)" style="fill: #808080; stroke: #808080; stroke-linecap: round"/>
   </g>
   <g id="patch_41">
    <path d="M 434.039474 407.148095 
Q 434.039474 444.304516 434.039474 480.342903 
" clip-path="url(#p50464e47de)" style="fill: none; stroke: #808080; stroke-linecap: round"/>
    <path d="M 436.039474 476.342903 
L 434.039474 480.342903 
L 432.039474 476.342903 
L 436.039474 476.342903 
z
" clip-path="url(#p50464e47de)" style="fill: #808080; stroke: #808080; stroke-linecap: round"/>
   </g>
   <g id="patch_42">
    <path d="M 431.983844 406.897806 
Q 400.444389 535.940347 369.170381 663.896823 
" clip-path="url(#p50464e47de)" style="fill: none; stroke: #808080; stroke-linecap: round"/>
    <path d="M 372.062884 660.486043 
L 369.170381 663.896823 
L 368.177259 659.536352 
L 372.062884 660.486043 
z
" clip-path="url(#p50464e47de)" style="fill: #808080; stroke: #808080; stroke-linecap: round"/>
   </g>
   <g id="patch_43">
    <path d="M 374.274669 677.852618 
Q 443.202871 719.215147 511.1724 760.002396 
" clip-path="url(#p50464e47de)" style="fill: none; stroke: #808080; stroke-linecap: round"/>
    <path d="M 508.771646 756.229283 
L 511.1724 760.002396 
L 506.713458 759.659132 
L 508.771646 756.229283 
z
" clip-path="url(#p50464e47de)" style="fill: #808080; stroke: #808080; stroke-linecap: round"/>
   </g>
   <g id="patch_44">
    <path d="M 369.618256 681.597158 
Q 413.270084 810.847069 456.564168 939.037725 
" clip-path="url(#p50464e47de)" style="fill: none; stroke: #808080; stroke-linecap: round"/>
    <path d="M 457.179115 934.608071 
L 456.564168 939.037725 
L 453.389413 935.887974 
L 457.179115 934.608071 
z
" clip-path="url(#p50464e47de)" style="fill: #808080; stroke: #808080; stroke-linecap: round"/>
   </g>
   <g id="patch_45">
    <path d="M 371.585509 666.144988 
Q 396.779763 627.577124 421.362569 589.945278 
" clip-path="url(#p50464e47de)" style="fill: none; stroke: #808080; stroke-linecap: round"/>
    <path d="M 417.500582 592.200285 
L 421.362569 589.945278 
L 420.849383 594.387872 
L 417.500582 592.200285 
z
" clip-path="url(#p50464e47de)" style="fill: #808080; stroke: #808080; stroke-linecap: round"/>
   </g>
   <g id="patch_46">
    <path d="M 364.411768 681.704824 
Q 353.410321 719.214841 342.723533 755.652016 
" clip-path="url(#p50464e47de)" style="fill: none; stroke: #808080; stroke-linecap: round"/>
    <path d="M 345.768445 752.376575 
L 342.723533 755.652016 
L 341.930128 751.250822 
L 345.768445 752.376575 
z
" clip-path="url(#p50464e47de)" style="fill: #808080; stroke: #808080; stroke-linecap: round"/>
   </g>
   <g id="patch_47">
    <path d="M 366.906326 682.058584 
Q 367.764841 810.853314 368.615904 938.530034 
" clip-path="url(#p50464e47de)" style="fill: none; stroke: #808080; stroke-linecap: round"/>
    <path d="M 370.589197 934.516792 
L 368.615904 938.530034 
L 366.589286 934.543455 
L 370.589197 934.516792 
z
" clip-path="url(#p50464e47de)" style="fill: #808080; stroke: #808080; stroke-linecap: round"/>
   </g>
   <g id="patch_48">
    <path d="M 426.019024 590.392857 
Q 423.044493 627.579532 420.159108 663.651733 
" clip-path="url(#p50464e47de)" style="fill: none; stroke: #808080; stroke-linecap: round"/>
    <path d="M 422.471678 659.823938 
L 420.159108 663.651733 
L 418.484414 659.505 
L 422.471678 659.823938 
z
" clip-path="url(#p50464e47de)" style="fill: #808080; stroke: #808080; stroke-linecap: round"/>
   </g>
   <g id="patch_49">
    <path d="M 432.708958 588.010222 
Q 470.691051 627.580268 507.898924 666.343725 
" clip-path="url(#p50464e47de)" style="fill: none; stroke: #808080; stroke-linecap: round"/>
    <path d="M 506.571861 662.073022 
L 507.898924 666.343725 
L 503.686124 664.842954 
L 506.571861 662.073022 
z
" clip-path="url(#p50464e47de)" style="fill: #808080; stroke: #808080; stroke-linecap: round"/>
   </g>
   <g id="patch_50">
    <path d="M 430.623932 589.486784 
Q 473.132093 673.395849 515.134997 756.307559 
" clip-path="url(#p50464e47de)" style="fill: none; stroke: #808080; stroke-linecap: round"/>
    <path d="M 515.111454 751.835485 
L 515.134997 756.307559 
L 511.543212 753.643149 
L 515.111454 751.835485 
z
" clip-path="url(#p50464e47de)" style="fill: #808080; stroke: #808080; stroke-linecap: round"/>
   </g>
   <g id="patch_51">
    <path d="M 427.400093 573.127143 
Q 430.374624 535.940468 433.260009 499.868267 
" clip-path="url(#p50464e47de)" style="fill: none; stroke: #808080; stroke-linecap: round"/>
    <path d="M 430.947439 503.696062 
L 433.260009 499.868267 
L 434.934703 504.015 
L 430.947439 503.696062 
z
" clip-path="url(#p50464e47de)" style="fill: #808080; stroke: #808080; stroke-linecap: round"/>
   </g>
   <g id="patch_52">
    <path d="M 421.972635 589.011376 
Q 396.778381 627.57924 372.195575 665.211086 
" clip-path="url(#p50464e47de)" style="fill: none; stroke: #808080; stroke-linecap: round"/>
    <path d="M 376.057562 662.956078 
L 372.195575 665.211086 
L 372.708761 660.768492 
L 376.057562 662.956078 
z
" clip-path="url(#p50464e47de)" style="fill: #808080; stroke: #808080; stroke-linecap: round"/>
   </g>
   <g id="patch_53">
    <path d="M 345.41037 771.775137 
Q 376.928771 810.852833 407.745267 849.060282 
" clip-path="url(#p50464e47de)" style="fill: none; stroke: #808080; stroke-linecap: round"/>
    <path d="M 406.790804 844.691186 
L 407.745267 849.060282 
L 403.677312 847.202396 
L 406.790804 844.691186 
z
" clip-path="url(#p50464e47de)" style="fill: #808080; stroke: #808080; stroke-linecap: round"/>
   </g>
   <g id="text_5">
    <g id="patch_54">
     <path d="M 283.105823 354.599205 
L 291.292725 348.548831 
Q 293.22284 347.122416 291.796425 345.192302 
L 287.194753 338.965672 
Q 285.768338 337.035558 283.838224 338.461972 
L 275.651322 344.512347 
Q 273.721207 345.938761 275.147622 347.868876 
L 279.749294 354.095505 
Q 281.175709 356.02562 283.105823 354.599205 
L 283.105823 354.599205 
z
" clip-path="url(#p50464e47de)" style="fill: none"/>
    </g>
    <g clip-path="url(#p50464e47de)">
     <!-- 15 -->
     <g transform="translate(280.690577 351.331079)rotate(-36.465551)scale(0.08 -0.08)">
      <defs>
       <path id="DejaVuSans-31" d="M 794 531 
L 1825 531 
L 1825 4091 
L 703 3866 
L 703 4441 
L 1819 4666 
L 2450 4666 
L 2450 531 
L 3481 531 
L 3481 0 
L 794 0 
L 794 531 
z
" transform="scale(0.015625)"/>
       <path id="DejaVuSans-35" d="M 691 4666 
L 3169 4666 
L 3169 4134 
L 1269 4134 
L 1269 2991 
Q 1406 3038 1543 3061 
Q 1681 3084 1819 3084 
Q 2600 3084 3056 2656 
Q 3513 2228 3513 1497 
Q 3513 744 3044 326 
Q 2575 -91 1722 -91 
Q 1428 -91 1123 -41 
Q 819 9 494 109 
L 494 744 
Q 775 591 1075 516 
Q 1375 441 1709 441 
Q 2250 441 2565 725 
Q 2881 1009 2881 1497 
Q 2881 1984 2565 2268 
Q 2250 2553 1709 2553 
Q 1456 2553 1204 2497 
Q 953 2441 691 2322 
L 691 4666 
z
" transform="scale(0.015625)"/>
      </defs>
      <use xlink:href="#DejaVuSans-31"/>
      <use xlink:href="#DejaVuSans-35" x="63.623047"/>
     </g>
    </g>
   </g>
   <g id="text_6">
    <g id="patch_55">
     <path d="M 407.610957 892.307273 
L 407.610957 902.487273 
Q 407.610957 904.887273 410.010957 904.887273 
L 417.753457 904.887273 
Q 420.153457 904.887273 420.153457 902.487273 
L 420.153457 892.307273 
Q 420.153457 889.907273 417.753457 889.907273 
L 410.010957 889.907273 
Q 407.610957 889.907273 407.610957 892.307273 
L 407.610957 892.307273 
z
" clip-path="url(#p50464e47de)" style="fill: none"/>
    </g>
    <g clip-path="url(#p50464e47de)">
     <!-- 11 -->
     <g transform="translate(411.674707 892.307273)rotate(-270)scale(0.08 -0.08)">
      <use xlink:href="#DejaVuSans-31"/>
      <use xlink:href="#DejaVuSans-31" x="63.623047"/>
     </g>
    </g>
   </g>
   <g id="text_7">
    <g id="patch_56">
     <path d="M 428.902793 894.454953 
L 433.454933 903.560469 
Q 434.52813 905.707152 436.674813 904.633956 
L 443.600103 901.171781 
Q 445.746787 900.098584 444.673591 897.951901 
L 440.12145 888.846385 
Q 439.048254 886.699702 436.90157 887.772898 
L 429.97628 891.235074 
Q 427.829597 892.30827 428.902793 894.454953 
L 428.902793 894.454953 
z
" clip-path="url(#p50464e47de)" style="fill: none"/>
    </g>
    <g clip-path="url(#p50464e47de)">
     <!-- 10 -->
     <g transform="translate(432.53762 892.637786)rotate(-296.561944)scale(0.08 -0.08)">
      <defs>
       <path id="DejaVuSans-30" d="M 2034 4250 
Q 1547 4250 1301 3770 
Q 1056 3291 1056 2328 
Q 1056 1369 1301 889 
Q 1547 409 2034 409 
Q 2525 409 2770 889 
Q 3016 1369 3016 2328 
Q 3016 3291 2770 3770 
Q 2525 4250 2034 4250 
z
M 2034 4750 
Q 2819 4750 3233 4129 
Q 3647 3509 3647 2328 
Q 3647 1150 3233 529 
Q 2819 -91 2034 -91 
Q 1250 -91 836 529 
Q 422 1150 422 2328 
Q 422 3509 836 4129 
Q 1250 4750 2034 4750 
z
" transform="scale(0.015625)"/>
      </defs>
      <use xlink:href="#DejaVuSans-31"/>
      <use xlink:href="#DejaVuSans-30" x="63.623047"/>
     </g>
    </g>
   </g>
   <g id="text_8">
    <g id="patch_57">
     <path d="M 480.76989 896.71327 
L 493.877142 904.547352 
Q 495.937221 905.778642 497.168511 903.718563 
L 501.140704 897.072662 
Q 502.371993 895.012583 500.311914 893.781293 
L 487.204662 885.947212 
Q 485.144583 884.715922 483.913293 886.776001 
L 479.941101 893.421901 
Q 478.709811 895.48198 480.76989 896.71327 
L 480.76989 896.71327 
z
" clip-path="url(#p50464e47de)" style="fill: none"/>
    </g>
    <g clip-path="url(#p50464e47de)">
     <!-- 133 -->
     <g transform="translate(482.854746 893.225084)rotate(-329.133636)scale(0.08 -0.08)">
      <defs>
       <path id="DejaVuSans-33" d="M 2597 2516 
Q 3050 2419 3304 2112 
Q 3559 1806 3559 1356 
Q 3559 666 3084 287 
Q 2609 -91 1734 -91 
Q 1441 -91 1130 -33 
Q 819 25 488 141 
L 488 750 
Q 750 597 1062 519 
Q 1375 441 1716 441 
Q 2309 441 2620 675 
Q 2931 909 2931 1356 
Q 2931 1769 2642 2001 
Q 2353 2234 1838 2234 
L 1294 2234 
L 1294 2753 
L 1863 2753 
Q 2328 2753 2575 2939 
Q 2822 3125 2822 3475 
Q 2822 3834 2567 4026 
Q 2313 4219 1838 4219 
Q 1578 4219 1281 4162 
Q 984 4106 628 3988 
L 628 4550 
Q 988 4650 1302 4700 
Q 1616 4750 1894 4750 
Q 2613 4750 3031 4423 
Q 3450 4097 3450 3541 
Q 3450 3153 3228 2886 
Q 3006 2619 2597 2516 
z
" transform="scale(0.015625)"/>
      </defs>
      <use xlink:href="#DejaVuSans-31"/>
      <use xlink:href="#DejaVuSans-33" x="63.623047"/>
      <use xlink:href="#DejaVuSans-33" x="127.246094"/>
     </g>
    </g>
   </g>
   <g id="text_9">
    <g id="patch_58">
     <path d="M 394.654185 903.548975 
L 399.157573 894.419249 
Q 400.219275 892.266858 398.066884 891.205155 
L 391.12318 887.780059 
Q 388.970789 886.718357 387.909086 888.870748 
L 383.405699 898.000474 
Q 382.343996 900.152866 384.496388 901.214568 
L 391.440092 904.639664 
Q 393.592483 905.701366 394.654185 903.548975 
L 394.654185 903.548975 
z
" clip-path="url(#p50464e47de)" style="fill: none"/>
    </g>
    <g clip-path="url(#p50464e47de)">
     <!-- 12 -->
     <g transform="translate(391.009693 901.75127)rotate(-63.744423)scale(0.08 -0.08)">
      <defs>
       <path id="DejaVuSans-32" d="M 1228 531 
L 3431 531 
L 3431 0 
L 469 0 
L 469 531 
Q 828 903 1448 1529 
Q 2069 2156 2228 2338 
Q 2531 2678 2651 2914 
Q 2772 3150 2772 3378 
Q 2772 3750 2511 3984 
Q 2250 4219 1831 4219 
Q 1534 4219 1204 4116 
Q 875 4013 500 3803 
L 500 4441 
Q 881 4594 1212 4672 
Q 1544 4750 1819 4750 
Q 2544 4750 2975 4387 
Q 3406 4025 3406 3419 
Q 3406 3131 3298 2873 
Q 3191 2616 2906 2266 
Q 2828 2175 2409 1742 
Q 1991 1309 1228 531 
z
" transform="scale(0.015625)"/>
      </defs>
      <use xlink:href="#DejaVuSans-31"/>
      <use xlink:href="#DejaVuSans-32" x="63.623047"/>
     </g>
    </g>
   </g>
   <g id="text_10">
    <g id="patch_59">
     <path d="M 584.762428 434.287446 
L 585.37205 444.449177 
Q 585.515772 446.844869 587.911465 446.701147 
L 595.640069 446.237494 
Q 598.035762 446.093772 597.89204 443.698079 
L 597.282419 433.536349 
Q 597.138697 431.140656 594.743004 431.284378 
L 587.014399 431.748031 
Q 584.618706 431.891754 584.762428 434.287446 
L 584.762428 434.287446 
z
" clip-path="url(#p50464e47de)" style="fill: none"/>
    </g>
    <g clip-path="url(#p50464e47de)">
     <!-- 97 -->
     <g transform="translate(588.818885 434.044092)rotate(-273.433166)scale(0.08 -0.08)">
      <defs>
       <path id="DejaVuSans-39" d="M 703 97 
L 703 672 
Q 941 559 1184 500 
Q 1428 441 1663 441 
Q 2288 441 2617 861 
Q 2947 1281 2994 2138 
Q 2813 1869 2534 1725 
Q 2256 1581 1919 1581 
Q 1219 1581 811 2004 
Q 403 2428 403 3163 
Q 403 3881 828 4315 
Q 1253 4750 1959 4750 
Q 2769 4750 3195 4129 
Q 3622 3509 3622 2328 
Q 3622 1225 3098 567 
Q 2575 -91 1691 -91 
Q 1453 -91 1209 -44 
Q 966 3 703 97 
z
M 1959 2075 
Q 2384 2075 2632 2365 
Q 2881 2656 2881 3163 
Q 2881 3666 2632 3958 
Q 2384 4250 1959 4250 
Q 1534 4250 1286 3958 
Q 1038 3666 1038 3163 
Q 1038 2656 1286 2365 
Q 1534 2075 1959 2075 
z
" transform="scale(0.015625)"/>
       <path id="DejaVuSans-37" d="M 525 4666 
L 3525 4666 
L 3525 4397 
L 1831 0 
L 1172 0 
L 2766 4134 
L 525 4134 
L 525 4666 
z
" transform="scale(0.015625)"/>
      </defs>
      <use xlink:href="#DejaVuSans-39"/>
      <use xlink:href="#DejaVuSans-37" x="63.623047"/>
     </g>
    </g>
   </g>
   <g id="text_11">
    <g id="patch_60">
     <path d="M 583.957803 673.489614 
L 584.353339 663.317301 
Q 584.446589 660.919113 582.048402 660.825863 
L 574.311748 660.525034 
Q 571.91356 660.431784 571.82031 662.829971 
L 571.424774 673.002284 
Q 571.331524 675.400472 573.729712 675.493722 
L 581.466365 675.794551 
Q 583.864553 675.887802 583.957803 673.489614 
L 583.957803 673.489614 
z
" clip-path="url(#p50464e47de)" style="fill: none"/>
    </g>
    <g clip-path="url(#p50464e47de)">
     <!-- 81 -->
     <g transform="translate(579.897122 673.33172)rotate(-87.773255)scale(0.08 -0.08)">
      <defs>
       <path id="DejaVuSans-38" d="M 2034 2216 
Q 1584 2216 1326 1975 
Q 1069 1734 1069 1313 
Q 1069 891 1326 650 
Q 1584 409 2034 409 
Q 2484 409 2743 651 
Q 3003 894 3003 1313 
Q 3003 1734 2745 1975 
Q 2488 2216 2034 2216 
z
M 1403 2484 
Q 997 2584 770 2862 
Q 544 3141 544 3541 
Q 544 4100 942 4425 
Q 1341 4750 2034 4750 
Q 2731 4750 3128 4425 
Q 3525 4100 3525 3541 
Q 3525 3141 3298 2862 
Q 3072 2584 2669 2484 
Q 3125 2378 3379 2068 
Q 3634 1759 3634 1313 
Q 3634 634 3220 271 
Q 2806 -91 2034 -91 
Q 1263 -91 848 271 
Q 434 634 434 1313 
Q 434 1759 690 2068 
Q 947 2378 1403 2484 
z
M 1172 3481 
Q 1172 3119 1398 2916 
Q 1625 2713 2034 2713 
Q 2441 2713 2670 2916 
Q 2900 3119 2900 3481 
Q 2900 3844 2670 4047 
Q 2441 4250 2034 4250 
Q 1625 4250 1398 4047 
Q 1172 3844 1172 3481 
z
" transform="scale(0.015625)"/>
      </defs>
      <use xlink:href="#DejaVuSans-38"/>
      <use xlink:href="#DejaVuSans-31" x="63.623047"/>
     </g>
    </g>
   </g>
   <g id="text_12">
    <g id="patch_61">
     <path d="M 510.129416 446.369816 
L 518.88575 441.17761 
Q 520.950112 439.953514 519.726016 437.889152 
L 515.777032 431.229435 
Q 514.552936 429.165073 512.488574 430.389169 
L 503.73224 435.581376 
Q 501.667878 436.805472 502.891974 438.869833 
L 506.840958 445.52955 
Q 508.065054 447.593912 510.129416 446.369816 
L 510.129416 446.369816 
z
" clip-path="url(#p50464e47de)" style="fill: none"/>
    </g>
    <g clip-path="url(#p50464e47de)">
     <!-- 44 -->
     <g transform="translate(508.056741 442.874379)rotate(-30.66649)scale(0.08 -0.08)">
      <defs>
       <path id="DejaVuSans-34" d="M 2419 4116 
L 825 1625 
L 2419 1625 
L 2419 4116 
z
M 2253 4666 
L 3047 4666 
L 3047 1625 
L 3713 1625 
L 3713 1100 
L 3047 1100 
L 3047 0 
L 2419 0 
L 2419 1100 
L 313 1100 
L 313 1709 
L 2253 4666 
z
" transform="scale(0.015625)"/>
      </defs>
      <use xlink:href="#DejaVuSans-34"/>
      <use xlink:href="#DejaVuSans-34" x="63.623047"/>
     </g>
    </g>
   </g>
   <g id="text_13">
    <g id="patch_62">
     <path d="M 467.588857 578.067407 
L 469.638564 582.726463 
Q 470.605027 584.923267 472.801831 583.956804 
L 479.888814 580.838955 
Q 482.085618 579.872492 481.119155 577.675688 
L 479.069449 573.016632 
Q 478.102986 570.819827 475.906181 571.78629 
L 468.819199 574.90414 
Q 466.622395 575.870603 467.588857 578.067407 
L 467.588857 578.067407 
z
" clip-path="url(#p50464e47de)" style="fill: none"/>
    </g>
    <g clip-path="url(#p50464e47de)">
     <!-- 1 -->
     <g transform="translate(471.308551 576.430964)rotate(-293.746631)scale(0.08 -0.08)">
      <use xlink:href="#DejaVuSans-31"/>
     </g>
    </g>
   </g>
   <g id="text_14">
    <g id="patch_63">
     <path d="M 440.320827 709.184638 
L 440.889938 719.348717 
Q 441.02411 721.744964 443.420356 721.610792 
L 451.150748 721.177949 
Q 453.546995 721.043777 453.412823 718.647531 
L 452.843712 708.483451 
Q 452.70954 706.087204 450.313293 706.221376 
L 442.582902 706.654219 
Q 440.186655 706.788391 440.320827 709.184638 
L 440.320827 709.184638 
z
" clip-path="url(#p50464e47de)" style="fill: none"/>
    </g>
    <g clip-path="url(#p50464e47de)">
     <!-- 35 -->
     <g transform="translate(444.378222 708.957454)rotate(-273.204782)scale(0.08 -0.08)">
      <use xlink:href="#DejaVuSans-33"/>
      <use xlink:href="#DejaVuSans-35" x="63.623047"/>
     </g>
    </g>
   </g>
   <g id="text_15">
    <g id="patch_64">
     <path d="M 436.219951 536.133181 
L 437.031648 525.985593 
Q 437.223011 523.593234 434.830652 523.401871 
L 427.112803 522.784527 
Q 424.720444 522.593164 424.529081 524.985523 
L 423.717384 535.133111 
Q 423.526022 537.52547 425.91838 537.716833 
L 433.636229 538.334177 
Q 436.028588 538.52554 436.219951 536.133181 
L 436.219951 536.133181 
z
" clip-path="url(#p50464e47de)" style="fill: none"/>
    </g>
    <g clip-path="url(#p50464e47de)">
     <!-- 11 -->
     <g transform="translate(432.169139 535.80916)rotate(-85.426696)scale(0.08 -0.08)">
      <use xlink:href="#DejaVuSans-31"/>
      <use xlink:href="#DejaVuSans-31" x="63.623047"/>
     </g>
    </g>
   </g>
   <g id="text_16">
    <g id="patch_65">
     <path d="M 391.29148 628.355176 
L 394.587229 618.723434 
Q 395.364223 616.45269 393.093478 615.675696 
L 385.767962 613.169082 
Q 383.497218 612.392088 382.720224 614.662832 
L 379.424475 624.294573 
Q 378.647481 626.565318 380.918225 627.342312 
L 388.243742 629.848926 
Q 390.514486 630.62592 391.29148 628.355176 
L 391.29148 628.355176 
z
" clip-path="url(#p50464e47de)" style="fill: none"/>
    </g>
    <g clip-path="url(#p50464e47de)">
     <!-- 48 -->
     <g transform="translate(387.446589 627.039547)rotate(-71.110294)scale(0.08 -0.08)">
      <use xlink:href="#DejaVuSans-34"/>
      <use xlink:href="#DejaVuSans-38" x="63.623047"/>
     </g>
    </g>
   </g>
   <g id="text_17">
    <g id="patch_66">
     <path d="M 406.849873 719.553468 
L 408.287471 709.475486 
Q 408.626393 707.099538 406.250445 706.760615 
L 398.585536 705.667237 
Q 396.209587 705.328314 395.870665 707.704262 
L 394.433067 717.782244 
Q 394.094145 720.158193 396.470093 720.497115 
L 404.135002 721.590494 
Q 406.510951 721.929417 406.849873 719.553468 
L 406.849873 719.553468 
z
" clip-path="url(#p50464e47de)" style="fill: none"/>
    </g>
    <g clip-path="url(#p50464e47de)">
     <!-- 15 -->
     <g transform="translate(402.826848 718.979594)rotate(-81.881679)scale(0.08 -0.08)">
      <use xlink:href="#DejaVuSans-31"/>
      <use xlink:href="#DejaVuSans-35" x="63.623047"/>
     </g>
    </g>
   </g>
   <g id="text_18">
    <g id="patch_67">
     <path d="M 587.125994 252.929042 
L 591.58024 262.082844 
Q 592.630357 264.240912 594.788424 263.190795 
L 601.750439 259.803073 
Q 603.908507 258.752956 602.85839 256.594889 
L 598.404143 247.441087 
Q 597.354026 245.28302 595.195959 246.333137 
L 588.233944 249.720858 
Q 586.075877 250.770975 587.125994 252.929042 
L 587.125994 252.929042 
z
" clip-path="url(#p50464e47de)" style="fill: none"/>
    </g>
    <g clip-path="url(#p50464e47de)">
     <!-- 84 -->
     <g transform="translate(590.780096 251.150954)rotate(-295.947586)scale(0.08 -0.08)">
      <use xlink:href="#DejaVuSans-38"/>
      <use xlink:href="#DejaVuSans-34" x="63.623047"/>
     </g>
    </g>
   </g>
   <g id="text_19">
    <g id="patch_68">
     <path d="M 456.708285 263.258545 
L 466.14946 259.451103 
Q 468.375277 258.553474 467.477649 256.327657 
L 464.581861 249.147077 
Q 463.684232 246.92126 461.458415 247.818889 
L 452.01724 251.626331 
Q 449.791423 252.523959 450.689051 254.749777 
L 453.584839 261.930356 
Q 454.482468 264.156173 456.708285 263.258545 
L 456.708285 263.258545 
z
" clip-path="url(#p50464e47de)" style="fill: none"/>
    </g>
    <g clip-path="url(#p50464e47de)">
     <!-- 50 -->
     <g transform="translate(455.188394 259.489726)rotate(-21.963259)scale(0.08 -0.08)">
      <use xlink:href="#DejaVuSans-35"/>
      <use xlink:href="#DejaVuSans-30" x="63.623047"/>
     </g>
    </g>
   </g>
   <g id="text_20">
    <g id="patch_69">
     <path d="M 619.816355 259.526685 
L 623.671348 262.850406 
Q 625.489027 264.417583 627.056204 262.599904 
L 632.111983 256.735997 
Q 633.67916 254.918318 631.861481 253.351141 
L 628.006487 250.02742 
Q 626.188808 248.460243 624.621631 250.277921 
L 619.565853 256.141829 
Q 617.998676 257.959508 619.816355 259.526685 
L 619.816355 259.526685 
z
" clip-path="url(#p50464e47de)" style="fill: none"/>
    </g>
    <g clip-path="url(#p50464e47de)">
     <!-- 6 -->
     <g transform="translate(622.469944 256.448938)rotate(-319.232552)scale(0.08 -0.08)">
      <defs>
       <path id="DejaVuSans-36" d="M 2113 2584 
Q 1688 2584 1439 2293 
Q 1191 2003 1191 1497 
Q 1191 994 1439 701 
Q 1688 409 2113 409 
Q 2538 409 2786 701 
Q 3034 994 3034 1497 
Q 3034 2003 2786 2293 
Q 2538 2584 2113 2584 
z
M 3366 4563 
L 3366 3988 
Q 3128 4100 2886 4159 
Q 2644 4219 2406 4219 
Q 1781 4219 1451 3797 
Q 1122 3375 1075 2522 
Q 1259 2794 1537 2939 
Q 1816 3084 2150 3084 
Q 2853 3084 3261 2657 
Q 3669 2231 3669 1497 
Q 3669 778 3244 343 
Q 2819 -91 2113 -91 
Q 1303 -91 875 529 
Q 447 1150 447 2328 
Q 447 3434 972 4092 
Q 1497 4750 2381 4750 
Q 2619 4750 2861 4703 
Q 3103 4656 3366 4563 
z
" transform="scale(0.015625)"/>
      </defs>
      <use xlink:href="#DejaVuSans-36"/>
     </g>
    </g>
   </g>
   <g id="text_21">
    <g id="patch_70">
     <path d="M 647.663356 258.18628 
L 656.561992 263.130638 
Q 658.659903 264.296301 659.825566 262.198391 
L 663.586046 255.430445 
Q 664.75171 253.332534 662.6538 252.166871 
L 653.755163 247.222513 
Q 651.657253 246.05685 650.491589 248.15476 
L 646.731109 254.922706 
Q 645.565445 257.020617 647.663356 258.18628 
L 647.663356 258.18628 
z
" clip-path="url(#p50464e47de)" style="fill: none"/>
    </g>
    <g clip-path="url(#p50464e47de)">
     <!-- 93 -->
     <g transform="translate(649.637092 254.634037)rotate(-330.942098)scale(0.08 -0.08)">
      <use xlink:href="#DejaVuSans-39"/>
      <use xlink:href="#DejaVuSans-33" x="63.623047"/>
     </g>
    </g>
   </g>
   <g id="text_22">
    <g id="patch_71">
     <path d="M 573.950512 296.916112 
L 574.829365 307.058104 
Q 575.036561 309.449144 577.4276 309.241949 
L 585.141194 308.573528 
Q 587.532233 308.366332 587.325038 305.975293 
L 586.446184 295.8333 
Q 586.238989 293.442261 583.847949 293.649456 
L 576.134356 294.317877 
Q 573.743317 294.525072 573.950512 296.916112 
L 573.950512 296.916112 
z
" clip-path="url(#p50464e47de)" style="fill: none"/>
    </g>
    <g clip-path="url(#p50464e47de)">
     <!-- 79 -->
     <g transform="translate(577.99909 296.565283)rotate(-274.95259)scale(0.08 -0.08)">
      <use xlink:href="#DejaVuSans-37"/>
      <use xlink:href="#DejaVuSans-39" x="63.623047"/>
     </g>
    </g>
   </g>
   <g id="text_23">
    <g id="patch_72">
     <path d="M 549.264801 444.607004 
L 550.543875 434.507679 
Q 550.845425 432.126699 548.464444 431.825149 
L 540.783303 430.852336 
Q 538.402322 430.550786 538.100772 432.931767 
L 536.821698 443.031092 
Q 536.520148 445.412072 538.901128 445.713622 
L 546.58227 446.686435 
Q 548.963251 446.987985 549.264801 444.607004 
L 549.264801 444.607004 
z
" clip-path="url(#p50464e47de)" style="fill: none"/>
    </g>
    <g clip-path="url(#p50464e47de)">
     <!-- 46 -->
     <g transform="translate(545.233255 444.096411)rotate(-82.781948)scale(0.08 -0.08)">
      <use xlink:href="#DejaVuSans-34"/>
      <use xlink:href="#DejaVuSans-36" x="63.623047"/>
     </g>
    </g>
   </g>
   <g id="text_24">
    <g id="patch_73">
     <path d="M 551.878568 490.354529 
L 552.857937 480.221749 
Q 553.08883 477.832881 550.699962 477.601988 
L 542.993375 476.857119 
Q 540.604508 476.626227 540.373615 479.015095 
L 539.394246 489.147875 
Q 539.163353 491.536742 541.552221 491.767635 
L 549.258807 492.512504 
Q 551.647675 492.743397 551.878568 490.354529 
L 551.878568 490.354529 
z
" clip-path="url(#p50464e47de)" style="fill: none"/>
    </g>
    <g clip-path="url(#p50464e47de)">
     <!-- 38 -->
     <g transform="translate(547.833667 489.963575)rotate(-84.479308)scale(0.08 -0.08)">
      <use xlink:href="#DejaVuSans-33"/>
      <use xlink:href="#DejaVuSans-38" x="63.623047"/>
     </g>
    </g>
   </g>
   <g id="text_25">
    <g id="patch_74">
     <path d="M 721.484692 260.456591 
L 731.249337 263.334805 
Q 733.551415 264.013362 734.229972 261.711284 
L 736.419025 254.284687 
Q 737.097583 251.98261 734.795505 251.304052 
L 725.03086 248.425839 
Q 722.728783 247.747282 722.050226 250.049359 
L 719.861172 257.475957 
Q 719.182615 259.778034 721.484692 260.456591 
L 721.484692 260.456591 
z
" clip-path="url(#p50464e47de)" style="fill: none"/>
    </g>
    <g clip-path="url(#p50464e47de)">
     <!-- 38 -->
     <g transform="translate(722.633645 256.558647)rotate(-343.576665)scale(0.08 -0.08)">
      <use xlink:href="#DejaVuSans-33"/>
      <use xlink:href="#DejaVuSans-38" x="63.623047"/>
     </g>
    </g>
   </g>
   <g id="text_26">
    <g id="patch_75">
     <path d="M 686.859265 261.440271 
L 691.608272 263.271945 
Q 693.84749 264.135602 694.711148 261.896385 
L 697.497342 254.672575 
Q 698.361 252.433357 696.121782 251.5697 
L 691.372775 249.738027 
Q 689.133557 248.874369 688.2699 251.113587 
L 685.483705 258.337396 
Q 684.620047 260.576614 686.859265 261.440271 
L 686.859265 261.440271 
z
" clip-path="url(#p50464e47de)" style="fill: none"/>
    </g>
    <g clip-path="url(#p50464e47de)">
     <!-- 2 -->
     <g transform="translate(688.321635 257.648763)rotate(-338.90857)scale(0.08 -0.08)">
      <use xlink:href="#DejaVuSans-32"/>
     </g>
    </g>
   </g>
   <g id="text_27">
    <g id="patch_76">
     <path d="M 506.675381 353.749899 
L 511.259808 344.660596 
Q 512.340616 342.517734 510.197755 341.436927 
L 503.284795 337.950195 
Q 501.141934 336.869387 500.061126 339.012249 
L 495.476699 348.101552 
Q 494.395891 350.244413 496.538752 351.325221 
L 503.451712 354.811952 
Q 505.594573 355.89276 506.675381 353.749899 
L 506.675381 353.749899 
z
" clip-path="url(#p50464e47de)" style="fill: none"/>
    </g>
    <g clip-path="url(#p50464e47de)">
     <!-- 10 -->
     <g transform="translate(503.047026 351.919843)rotate(-63.234717)scale(0.08 -0.08)">
      <use xlink:href="#DejaVuSans-31"/>
      <use xlink:href="#DejaVuSans-30" x="63.623047"/>
     </g>
    </g>
   </g>
   <g id="text_28">
    <g id="patch_77">
     <path d="M 504.065156 263.040291 
L 508.322864 260.251021 
Q 510.330428 258.935845 509.015251 256.928281 
L 504.772438 250.451798 
Q 503.457262 248.444234 501.449698 249.75941 
L 497.19199 252.54868 
Q 495.184427 253.863856 496.499603 255.87142 
L 500.742417 262.347904 
Q 502.057593 264.355467 504.065156 263.040291 
L 504.065156 263.040291 
z
" clip-path="url(#p50464e47de)" style="fill: none"/>
    </g>
    <g clip-path="url(#p50464e47de)">
     <!-- 6 -->
     <g transform="translate(501.838262 259.641026)rotate(-33.229235)scale(0.08 -0.08)">
      <use xlink:href="#DejaVuSans-36"/>
     </g>
    </g>
   </g>
   <g id="text_29">
    <g id="patch_78">
     <path d="M 759.612234 261.02027 
L 769.517809 263.36803 
Q 771.853112 263.921529 772.406611 261.586227 
L 774.192223 254.052443 
Q 774.745722 251.71714 772.41042 251.163641 
L 762.504844 248.815881 
Q 760.169541 248.262382 759.616042 250.597685 
L 757.83043 258.131468 
Q 757.276931 260.466771 759.612234 261.02027 
L 759.612234 261.02027 
z
" clip-path="url(#p50464e47de)" style="fill: none"/>
    </g>
    <g clip-path="url(#p50464e47de)">
     <!-- 50 -->
     <g transform="translate(760.549435 257.066068)rotate(-346.666146)scale(0.08 -0.08)">
      <use xlink:href="#DejaVuSans-35"/>
      <use xlink:href="#DejaVuSans-30" x="63.623047"/>
     </g>
    </g>
   </g>
   <g id="text_30">
    <g id="patch_79">
     <path d="M 393.21803 308.978648 
L 406.755768 301.914473 
Q 408.883506 300.80419 407.773224 298.676452 
L 404.191405 291.812278 
Q 403.081122 289.684539 400.953383 290.794822 
L 387.415646 297.858997 
Q 385.287907 298.969279 386.39819 301.097018 
L 389.980009 307.961192 
Q 391.090292 310.088931 393.21803 308.978648 
L 393.21803 308.978648 
z
" clip-path="url(#p50464e47de)" style="fill: none"/>
    </g>
    <g clip-path="url(#p50464e47de)">
     <!-- 178 -->
     <g transform="translate(391.338067 305.375899)rotate(-27.556162)scale(0.08 -0.08)">
      <use xlink:href="#DejaVuSans-31"/>
      <use xlink:href="#DejaVuSans-37" x="63.623047"/>
      <use xlink:href="#DejaVuSans-38" x="127.246094"/>
     </g>
    </g>
   </g>
   <g id="text_31">
    <g id="patch_80">
     <path d="M 533.818929 801.302278 
L 535.729607 811.301363 
Q 536.180061 813.658712 538.537409 813.208257 
L 546.142313 811.755073 
Q 548.499661 811.304619 548.049207 808.94727 
L 546.13853 798.948185 
Q 545.688075 796.590836 543.330727 797.041291 
L 535.725823 798.494475 
Q 533.368475 798.94493 533.818929 801.302278 
L 533.818929 801.302278 
z
" clip-path="url(#p50464e47de)" style="fill: none"/>
    </g>
    <g clip-path="url(#p50464e47de)">
     <!-- 35 -->
     <g transform="translate(537.81046 800.539555)rotate(-280.817966)scale(0.08 -0.08)">
      <use xlink:href="#DejaVuSans-33"/>
      <use xlink:href="#DejaVuSans-35" x="63.623047"/>
     </g>
    </g>
   </g>
   <g id="text_32">
    <g id="patch_81">
     <path d="M 536.667537 852.346677 
L 537.948191 857.272935 
Q 538.552036 859.595729 540.87483 858.991885 
L 548.36826 857.043857 
Q 550.691054 856.440013 550.087209 854.117219 
L 548.806555 849.19096 
Q 548.202711 846.868166 545.879917 847.47201 
L 538.386487 849.420038 
Q 536.063693 850.023883 536.667537 852.346677 
L 536.667537 852.346677 
z
" clip-path="url(#p50464e47de)" style="fill: none"/>
    </g>
    <g clip-path="url(#p50464e47de)">
     <!-- 9 -->
     <g transform="translate(540.60056 851.324229)rotate(-284.572324)scale(0.08 -0.08)">
      <use xlink:href="#DejaVuSans-39"/>
     </g>
    </g>
   </g>
   <g id="text_33">
    <g id="patch_82">
     <path d="M 869.191037 353.560324 
L 872.971352 344.108255 
Q 873.862586 341.879869 871.6342 340.988636 
L 864.445335 338.11348 
Q 862.216949 337.222246 861.325716 339.450632 
L 857.545401 348.902701 
Q 856.654167 351.131087 858.882553 352.02232 
L 866.071418 354.897477 
Q 868.299804 355.78871 869.191037 353.560324 
L 869.191037 353.560324 
z
" clip-path="url(#p50464e47de)" style="fill: none"/>
    </g>
    <g clip-path="url(#p50464e47de)">
     <!-- 14 -->
     <g transform="translate(865.41787 352.051262)rotate(-68.201269)scale(0.08 -0.08)">
      <use xlink:href="#DejaVuSans-31"/>
      <use xlink:href="#DejaVuSans-34" x="63.623047"/>
     </g>
    </g>
   </g>
   <g id="text_34">
    <g id="patch_83">
     <path d="M 821.840904 348.83429 
L 823.731062 353.560324 
Q 824.622295 355.78871 826.850681 354.897477 
L 834.039546 352.02232 
Q 836.267932 351.131087 835.376698 348.902701 
L 833.486541 344.176667 
Q 832.595307 341.948281 830.366922 342.839514 
L 823.178056 345.71467 
Q 820.949671 346.605904 821.840904 348.83429 
L 821.840904 348.83429 
z
" clip-path="url(#p50464e47de)" style="fill: none"/>
    </g>
    <g clip-path="url(#p50464e47de)">
     <!-- 2 -->
     <g transform="translate(825.614072 347.325227)rotate(-291.798731)scale(0.08 -0.08)">
      <use xlink:href="#DejaVuSans-32"/>
     </g>
    </g>
   </g>
   <g id="text_35">
    <g id="patch_84">
     <path d="M 427.124029 347.611536 
L 427.19188 352.701084 
Q 427.223873 355.10087 429.62366 355.068878 
L 437.365472 354.965668 
Q 439.765259 354.933675 439.733266 352.533888 
L 439.665414 347.44434 
Q 439.633422 345.044553 437.233635 345.076546 
L 429.491823 345.179756 
Q 427.092036 345.211749 427.124029 347.611536 
L 427.124029 347.611536 
z
" clip-path="url(#p50464e47de)" style="fill: none"/>
    </g>
    <g clip-path="url(#p50464e47de)">
     <!-- 1 -->
     <g transform="translate(431.187418 347.557365)rotate(-270.763795)scale(0.08 -0.08)">
      <use xlink:href="#DejaVuSans-31"/>
     </g>
    </g>
   </g>
   <g id="text_36">
    <g id="patch_85">
     <path d="M 435.920324 444.358768 
L 436.14646 434.181279 
Q 436.199773 431.781872 433.800365 431.728559 
L 426.059776 431.556569 
Q 423.660368 431.503256 423.607055 433.902664 
L 423.380919 444.080152 
Q 423.327606 446.47956 425.727014 446.532873 
L 433.467604 446.704862 
Q 435.867011 446.758175 435.920324 444.358768 
L 435.920324 444.358768 
z
" clip-path="url(#p50464e47de)" style="fill: none"/>
    </g>
    <g clip-path="url(#p50464e47de)">
     <!-- 16 -->
     <g transform="translate(431.857577 444.268496)rotate(-88.727142)scale(0.08 -0.08)">
      <use xlink:href="#DejaVuSans-31"/>
      <use xlink:href="#DejaVuSans-36" x="63.623047"/>
     </g>
    </g>
   </g>
   <g id="text_37">
    <g id="patch_86">
     <path d="M 493.348869 623.088437 
L 494.392544 628.070288 
Q 494.88465 630.419294 497.233656 629.927188 
L 504.811649 628.339634 
Q 507.160656 627.847528 506.66855 625.498521 
L 505.624875 620.51667 
Q 505.132769 618.167663 502.783762 618.659769 
L 495.205769 620.247324 
Q 492.856763 620.73943 493.348869 623.088437 
L 493.348869 623.088437 
z
" clip-path="url(#p50464e47de)" style="fill: none"/>
    </g>
    <g clip-path="url(#p50464e47de)">
     <!-- 7 -->
     <g transform="translate(497.326275 622.255188)rotate(-281.832086)scale(0.08 -0.08)">
      <use xlink:href="#DejaVuSans-37"/>
     </g>
    </g>
   </g>
   <g id="text_38">
    <g id="patch_87">
     <path d="M 391.530466 536.418464 
L 393.55224 526.441249 
Q 394.028887 524.089057 391.676694 523.612411 
L 384.088424 522.07473 
Q 381.736232 521.598083 381.259586 523.950276 
L 379.237811 533.927491 
Q 378.761165 536.279683 381.113357 536.75633 
L 388.701627 538.29401 
Q 391.053819 538.770657 391.530466 536.418464 
L 391.530466 536.418464 
z
" clip-path="url(#p50464e47de)" style="fill: none"/>
    </g>
    <g clip-path="url(#p50464e47de)">
     <!-- 34 -->
     <g transform="translate(387.547665 535.611393)rotate(-78.544743)scale(0.08 -0.08)">
      <use xlink:href="#DejaVuSans-33"/>
      <use xlink:href="#DejaVuSans-34" x="63.623047"/>
     </g>
    </g>
   </g>
   <g id="text_39">
    <g id="patch_88">
     <path d="M 427.768224 439.215455 
L 427.768224 444.305455 
Q 427.768224 446.705455 430.168224 446.705455 
L 437.910724 446.705455 
Q 440.310724 446.705455 440.310724 444.305455 
L 440.310724 439.215455 
Q 440.310724 436.815455 437.910724 436.815455 
L 430.168224 436.815455 
Q 427.768224 436.815455 427.768224 439.215455 
L 427.768224 439.215455 
z
" clip-path="url(#p50464e47de)" style="fill: none"/>
    </g>
    <g clip-path="url(#p50464e47de)">
     <!-- 9 -->
     <g transform="translate(431.831974 439.215455)rotate(-270)scale(0.08 -0.08)">
      <use xlink:href="#DejaVuSans-39"/>
     </g>
    </g>
   </g>
   <g id="text_40">
    <g id="patch_89">
     <path d="M 405.931721 536.511633 
L 407.140203 531.567174 
Q 407.710017 529.235798 405.378642 528.665984 
L 397.857528 526.827739 
Q 395.526152 526.257924 394.956338 528.5893 
L 393.747856 533.533758 
Q 393.178042 535.865134 395.509417 536.434948 
L 403.030531 538.273194 
Q 405.361907 538.843008 405.931721 536.511633 
L 405.931721 536.511633 
z
" clip-path="url(#p50464e47de)" style="fill: none"/>
    </g>
    <g clip-path="url(#p50464e47de)">
     <!-- 6 -->
     <g transform="translate(401.984168 535.546806)rotate(-76.265524)scale(0.08 -0.08)">
      <use xlink:href="#DejaVuSans-36"/>
     </g>
    </g>
   </g>
   <g id="text_41">
    <g id="patch_90">
     <path d="M 437.792773 718.65341 
L 442.157255 721.272455 
Q 444.215164 722.507368 445.450077 720.449458 
L 449.433958 713.810558 
Q 450.668871 711.752649 448.610962 710.517736 
L 444.24648 707.898691 
Q 442.18857 706.663778 440.953657 708.721687 
L 436.969777 715.360588 
Q 435.734864 717.418497 437.792773 718.65341 
L 437.792773 718.65341 
z
" clip-path="url(#p50464e47de)" style="fill: none"/>
    </g>
    <g clip-path="url(#p50464e47de)">
     <!-- 2 -->
     <g transform="translate(439.883764 715.168898)rotate(-329.032815)scale(0.08 -0.08)">
      <use xlink:href="#DejaVuSans-32"/>
     </g>
    </g>
   </g>
   <g id="text_42">
    <g id="patch_91">
     <path d="M 405.70116 801.974058 
L 408.958515 811.618851 
Q 409.726458 813.892673 412.000279 813.124731 
L 419.335722 810.647317 
Q 421.609544 809.879375 420.841602 807.605553 
L 417.584247 797.96076 
Q 416.816304 795.686938 414.542483 796.45488 
L 407.207039 798.932294 
Q 404.933218 799.700236 405.70116 801.974058 
L 405.70116 801.974058 
z
" clip-path="url(#p50464e47de)" style="fill: none"/>
    </g>
    <g clip-path="url(#p50464e47de)">
     <!-- 24 -->
     <g transform="translate(409.551261 800.673756)rotate(-288.66147)scale(0.08 -0.08)">
      <use xlink:href="#DejaVuSans-32"/>
      <use xlink:href="#DejaVuSans-34" x="63.623047"/>
     </g>
    </g>
   </g>
   <g id="text_43">
    <g id="patch_92">
     <path d="M 400.637512 628.890734 
L 403.421215 624.629385 
Q 404.733767 622.620104 402.724487 621.307553 
L 396.242465 617.073206 
Q 394.233184 615.760654 392.920632 617.769934 
L 390.136929 622.031283 
Q 388.824377 624.040563 390.833657 625.353115 
L 397.315679 629.587462 
Q 399.32496 630.900014 400.637512 628.890734 
L 400.637512 628.890734 
z
" clip-path="url(#p50464e47de)" style="fill: none"/>
    </g>
    <g clip-path="url(#p50464e47de)">
     <!-- 3 -->
     <g transform="translate(397.23534 626.668283)rotate(-56.845633)scale(0.08 -0.08)">
      <use xlink:href="#DejaVuSans-33"/>
     </g>
    </g>
   </g>
   <g id="text_44">
    <g id="patch_93">
     <path d="M 357.995648 719.889998 
L 360.860691 710.121481 
Q 361.536143 707.81849 359.233153 707.143038 
L 351.80361 704.964001 
Q 349.50062 704.288549 348.825168 706.591539 
L 345.960125 716.360056 
Q 345.284673 718.663047 347.587663 719.338499 
L 355.017205 721.517536 
Q 357.320196 722.192988 357.995648 719.889998 
L 357.995648 719.889998 
z
" clip-path="url(#p50464e47de)" style="fill: none"/>
    </g>
    <g clip-path="url(#p50464e47de)">
     <!-- 19 -->
     <g transform="translate(354.096158 718.746302)rotate(-73.653927)scale(0.08 -0.08)">
      <use xlink:href="#DejaVuSans-31"/>
      <use xlink:href="#DejaVuSans-39" x="63.623047"/>
     </g>
    </g>
   </g>
   <g id="text_45">
    <g id="patch_94">
     <path d="M 361.459786 800.687133 
L 361.527642 810.866907 
Q 361.54364 813.266853 363.943586 813.250856 
L 371.685914 813.199247 
Q 374.085861 813.18325 374.069864 810.783303 
L 374.002008 800.603529 
Q 373.98601 798.203583 371.586063 798.21958 
L 363.843735 798.271189 
Q 361.443789 798.287186 361.459786 800.687133 
L 361.459786 800.687133 
z
" clip-path="url(#p50464e47de)" style="fill: none"/>
    </g>
    <g clip-path="url(#p50464e47de)">
     <!-- 10 -->
     <g transform="translate(365.523446 800.660045)rotate(-270.381914)scale(0.08 -0.08)">
      <use xlink:href="#DejaVuSans-31"/>
      <use xlink:href="#DejaVuSans-30" x="63.623047"/>
     </g>
    </g>
   </g>
   <g id="text_46">
    <g id="patch_95">
     <path d="M 428.890036 627.769545 
L 429.701733 617.621956 
Q 429.893095 615.229598 427.500737 615.038235 
L 419.782888 614.420891 
Q 417.390529 614.229528 417.199166 616.621887 
L 416.387469 626.769475 
Q 416.196107 629.161834 418.588465 629.353196 
L 426.306314 629.970541 
Q 428.698673 630.161903 428.890036 627.769545 
L 428.890036 627.769545 
z
" clip-path="url(#p50464e47de)" style="fill: none"/>
    </g>
    <g clip-path="url(#p50464e47de)">
     <!-- 23 -->
     <g transform="translate(424.839224 627.445524)rotate(-85.426697)scale(0.08 -0.08)">
      <use xlink:href="#DejaVuSans-32"/>
      <use xlink:href="#DejaVuSans-33" x="63.623047"/>
     </g>
    </g>
   </g>
   <g id="text_47">
    <g id="patch_96">
     <path d="M 462.640016 621.89594 
L 469.689493 629.240141 
Q 471.351452 630.971583 473.082894 629.309624 
L 478.668599 623.948075 
Q 480.400041 622.286116 478.738082 620.554673 
L 471.688605 613.210473 
Q 470.026646 611.479031 468.295204 613.14099 
L 462.709499 618.502539 
Q 460.978057 620.164498 462.640016 621.89594 
L 462.640016 621.89594 
z
" clip-path="url(#p50464e47de)" style="fill: none"/>
    </g>
    <g clip-path="url(#p50464e47de)">
     <!-- 19 -->
     <g transform="translate(465.571745 619.081863)rotate(-313.826979)scale(0.08 -0.08)">
      <use xlink:href="#DejaVuSans-31"/>
      <use xlink:href="#DejaVuSans-39" x="63.623047"/>
     </g>
    </g>
   </g>
   <g id="text_48">
    <g id="patch_97">
     <path d="M 466.387893 669.940374 
L 468.688146 674.480962 
Q 469.772744 676.621907 471.91369 675.537309 
L 478.820468 672.038349 
Q 480.961413 670.95375 479.876814 668.812805 
L 477.576562 664.272217 
Q 476.491963 662.131272 474.351018 663.215871 
L 467.44424 666.714831 
Q 465.303295 667.799429 466.387893 669.940374 
L 466.387893 669.940374 
z
" clip-path="url(#p50464e47de)" style="fill: none"/>
    </g>
    <g clip-path="url(#p50464e47de)">
     <!-- 3 -->
     <g transform="translate(470.013004 668.1039)rotate(-296.866681)scale(0.08 -0.08)">
      <use xlink:href="#DejaVuSans-33"/>
     </g>
    </g>
   </g>
   <g id="text_49">
    <g id="patch_98">
     <path d="M 436.219951 536.133181 
L 437.031648 525.985593 
Q 437.223011 523.593234 434.830652 523.401871 
L 427.112803 522.784527 
Q 424.720444 522.593164 424.529081 524.985523 
L 423.717384 535.133111 
Q 423.526022 537.52547 425.91838 537.716833 
L 433.636229 538.334177 
Q 436.028588 538.52554 436.219951 536.133181 
L 436.219951 536.133181 
z
" clip-path="url(#p50464e47de)" style="fill: none"/>
    </g>
    <g clip-path="url(#p50464e47de)">
     <!-- 28 -->
     <g transform="translate(432.169139 535.80916)rotate(-85.426696)scale(0.08 -0.08)">
      <use xlink:href="#DejaVuSans-32"/>
      <use xlink:href="#DejaVuSans-38" x="63.623047"/>
     </g>
    </g>
   </g>
   <g id="text_50">
    <g id="patch_99">
     <path d="M 400.637512 628.890734 
L 403.421215 624.629385 
Q 404.733767 622.620104 402.724487 621.307553 
L 396.242465 617.073206 
Q 394.233184 615.760654 392.920632 617.769934 
L 390.136929 622.031283 
Q 388.824377 624.040563 390.833657 625.353115 
L 397.315679 629.587462 
Q 399.32496 630.900014 400.637512 628.890734 
L 400.637512 628.890734 
z
" clip-path="url(#p50464e47de)" style="fill: none"/>
    </g>
    <g clip-path="url(#p50464e47de)">
     <!-- 5 -->
     <g transform="translate(397.23534 626.668283)rotate(-56.845633)scale(0.08 -0.08)">
      <use xlink:href="#DejaVuSans-35"/>
     </g>
    </g>
   </g>
   <g id="text_51">
    <g id="patch_100">
     <path d="M 368.850334 804.433799 
L 375.241362 812.357635 
Q 376.748087 814.225729 378.616182 812.719004 
L 384.642734 807.858245 
Q 386.510829 806.351519 385.004103 804.483424 
L 378.613076 796.559589 
Q 377.10635 794.691494 375.238255 796.198219 
L 369.211704 801.058979 
Q 367.343609 802.565704 368.850334 804.433799 
L 368.850334 804.433799 
z
" clip-path="url(#p50464e47de)" style="fill: none"/>
    </g>
    <g clip-path="url(#p50464e47de)">
     <!-- 82 -->
     <g transform="translate(372.013447 801.882567)rotate(-308.888165)scale(0.08 -0.08)">
      <use xlink:href="#DejaVuSans-38"/>
      <use xlink:href="#DejaVuSans-32" x="63.623047"/>
     </g>
    </g>
   </g>
   <g id="matplotlib.axis_1">
    <g id="xtick_1"/>
    <g id="xtick_2"/>
    <g id="xtick_3"/>
    <g id="xtick_4"/>
    <g id="xtick_5"/>
    <g id="xtick_6"/>
    <g id="xtick_7"/>
    <g id="xtick_8"/>
   </g>
   <g id="matplotlib.axis_2">
    <g id="ytick_1"/>
    <g id="ytick_2"/>
    <g id="ytick_3"/>
    <g id="ytick_4"/>
    <g id="ytick_5"/>
    <g id="ytick_6"/>
    <g id="ytick_7"/>
   </g>
   <g id="PathCollection_1">
    <defs>
     <path id="C0_0_bfda8b83f2" d="M 0 8.660254 
C 2.296726 8.660254 4.499694 7.747755 6.123724 6.123724 
C 7.747755 4.499694 8.660254 2.296726 8.660254 -0 
C 8.660254 -2.296726 7.747755 -4.499694 6.123724 -6.123724 
C 4.499694 -7.747755 2.296726 -8.660254 0 -8.660254 
C -2.296726 -8.660254 -4.499694 -7.747755 -6.123724 -6.123724 
C -7.747755 -4.499694 -8.660254 -2.296726 -8.660254 0 
C -8.660254 2.296726 -7.747755 4.499694 -6.123724 6.123724 
C -4.499694 7.747755 -2.296726 8.660254 0 8.660254 
z
"/>
    </defs>
    <g clip-path="url(#p50464e47de)">
     <use xlink:href="#C0_0_bfda8b83f2" x="345.469667" y="306.850909" style="fill: #1f78b4; stroke: #1f78b4"/>
    </g>
    <g clip-path="url(#p50464e47de)">
     <use xlink:href="#C0_0_bfda8b83f2" x="221.47438" y="398.487273" style="fill: #1f78b4; stroke: #1f78b4"/>
    </g>
    <g clip-path="url(#p50464e47de)">
     <use xlink:href="#C0_0_bfda8b83f2" x="413.882207" y="856.669091" style="fill: #1f78b4; stroke: #1f78b4"/>
    </g>
    <g clip-path="url(#p50464e47de)">
     <use xlink:href="#C0_0_bfda8b83f2" x="413.882207" y="948.305455" style="fill: #1f78b4; stroke: #1f78b4"/>
    </g>
    <g clip-path="url(#p50464e47de)">
     <use xlink:href="#C0_0_bfda8b83f2" x="459.694176" y="948.305455" style="fill: #1f78b4; stroke: #1f78b4"/>
    </g>
    <g clip-path="url(#p50464e47de)">
     <use xlink:href="#C0_0_bfda8b83f2" x="567.199597" y="948.305455" style="fill: #1f78b4; stroke: #1f78b4"/>
    </g>
    <g clip-path="url(#p50464e47de)">
     <use xlink:href="#C0_0_bfda8b83f2" x="368.681064" y="948.305455" style="fill: #1f78b4; stroke: #1f78b4"/>
    </g>
    <g clip-path="url(#p50464e47de)">
     <use xlink:href="#C0_0_bfda8b83f2" x="588.578516" y="398.487273" style="fill: #1f78b4; stroke: #1f78b4"/>
    </g>
    <g clip-path="url(#p50464e47de)">
     <use xlink:href="#C0_0_bfda8b83f2" x="594.075952" y="490.123636" style="fill: #1f78b4; stroke: #1f78b4"/>
    </g>
    <g clip-path="url(#p50464e47de)">
     <use xlink:href="#C0_0_bfda8b83f2" x="434.039474" y="490.123636" style="fill: #1f78b4; stroke: #1f78b4"/>
    </g>
    <g clip-path="url(#p50464e47de)">
     <use xlink:href="#C0_0_bfda8b83f2" x="572.697033" y="215.214545" style="fill: #1f78b4; stroke: #1f78b4"/>
    </g>
    <g clip-path="url(#p50464e47de)">
     <use xlink:href="#C0_0_bfda8b83f2" x="617.28735" y="306.850909" style="fill: #1f78b4; stroke: #1f78b4"/>
    </g>
    <g clip-path="url(#p50464e47de)">
     <use xlink:href="#C0_0_bfda8b83f2" x="678.980802" y="306.850909" style="fill: #1f78b4; stroke: #1f78b4"/>
    </g>
    <g clip-path="url(#p50464e47de)">
     <use xlink:href="#C0_0_bfda8b83f2" x="737.620122" y="306.850909" style="fill: #1f78b4; stroke: #1f78b4"/>
    </g>
    <g clip-path="url(#p50464e47de)">
     <use xlink:href="#C0_0_bfda8b83f2" x="514.668539" y="673.396364" style="fill: #1f78b4; stroke: #1f78b4"/>
    </g>
    <g clip-path="url(#p50464e47de)">
     <use xlink:href="#C0_0_bfda8b83f2" x="519.555149" y="765.032727" style="fill: #1f78b4; stroke: #1f78b4"/>
    </g>
    <g clip-path="url(#p50464e47de)">
     <use xlink:href="#C0_0_bfda8b83f2" x="883.583164" y="306.850909" style="fill: #a85832; stroke: #a85832"/>
    </g>
    <g clip-path="url(#p50464e47de)">
     <use xlink:href="#C0_0_bfda8b83f2" x="810.284014" y="306.850909" style="fill: #1f78b4; stroke: #1f78b4"/>
    </g>
    <g clip-path="url(#p50464e47de)">
     <use xlink:href="#C0_0_bfda8b83f2" x="432.817821" y="306.850909" style="fill: #1f78b4; stroke: #1f78b4"/>
    </g>
    <g clip-path="url(#p50464e47de)">
     <use xlink:href="#C0_0_bfda8b83f2" x="959.32562" y="306.850909" style="fill: #1f78b4; stroke: #1f78b4"/>
    </g>
    <g clip-path="url(#p50464e47de)">
     <use xlink:href="#C0_0_bfda8b83f2" x="846.933589" y="398.487273" style="fill: #a88e32; stroke: #a88e32"/>
    </g>
    <g clip-path="url(#p50464e47de)">
     <use xlink:href="#C0_0_bfda8b83f2" x="434.039474" y="398.487273" style="fill: #1f78b4; stroke: #1f78b4"/>
    </g>
    <g clip-path="url(#p50464e47de)">
     <use xlink:href="#C0_0_bfda8b83f2" x="366.848586" y="673.396364" style="fill: #1f78b4; stroke: #1f78b4"/>
    </g>
    <g clip-path="url(#p50464e47de)">
     <use xlink:href="#C0_0_bfda8b83f2" x="426.709559" y="581.76" style="fill: #1f78b4; stroke: #1f78b4"/>
    </g>
    <g clip-path="url(#p50464e47de)">
     <use xlink:href="#C0_0_bfda8b83f2" x="419.379643" y="673.396364" style="fill: #1f78b4; stroke: #1f78b4"/>
    </g>
    <g clip-path="url(#p50464e47de)">
     <use xlink:href="#C0_0_bfda8b83f2" x="339.97223" y="765.032727" style="fill: #1f78b4; stroke: #1f78b4"/>
    </g>
   </g>
   <g id="patch_101">
    <path d="M 144 1025.28 
L 144 138.24 
" style="fill: none; stroke: #000000; stroke-width: 0.8; stroke-linejoin: miter; stroke-linecap: square"/>
   </g>
   <g id="patch_102">
    <path d="M 1036.8 1025.28 
L 1036.8 138.24 
" style="fill: none; stroke: #000000; stroke-width: 0.8; stroke-linejoin: miter; stroke-linecap: square"/>
   </g>
   <g id="patch_103">
    <path d="M 144 1025.28 
L 1036.8 1025.28 
" style="fill: none; stroke: #000000; stroke-width: 0.8; stroke-linejoin: miter; stroke-linecap: square"/>
   </g>
   <g id="patch_104">
    <path d="M 144 138.24 
L 1036.8 138.24 
" style="fill: none; stroke: #000000; stroke-width: 0.8; stroke-linejoin: miter; stroke-linecap: square"/>
   </g>
   <g id="text_52">
    <g clip-path="url(#p50464e47de)">
     <!-- auth -->
     <g transform="translate(332.971776 309.886222)scale(0.11 -0.11)">
      <use xlink:href="#DejaVuSans-61"/>
      <use xlink:href="#DejaVuSans-75" x="61.279297"/>
      <use xlink:href="#DejaVuSans-74" x="124.658203"/>
      <use xlink:href="#DejaVuSans-68" x="163.867188"/>
     </g>
    </g>
   </g>
   <g id="text_53">
    <g clip-path="url(#p50464e47de)">
     <!-- verification-code -->
     <g transform="translate(175.402427 401.522585)scale(0.11 -0.11)">
      <defs>
       <path id="DejaVuSans-76" d="M 191 3500 
L 800 3500 
L 1894 563 
L 2988 3500 
L 3597 3500 
L 2284 0 
L 1503 0 
L 191 3500 
z
" transform="scale(0.015625)"/>
       <path id="DejaVuSans-65" d="M 3597 1894 
L 3597 1613 
L 953 1613 
Q 991 1019 1311 708 
Q 1631 397 2203 397 
Q 2534 397 2845 478 
Q 3156 559 3463 722 
L 3463 178 
Q 3153 47 2828 -22 
Q 2503 -91 2169 -91 
Q 1331 -91 842 396 
Q 353 884 353 1716 
Q 353 2575 817 3079 
Q 1281 3584 2069 3584 
Q 2775 3584 3186 3129 
Q 3597 2675 3597 1894 
z
M 3022 2063 
Q 3016 2534 2758 2815 
Q 2500 3097 2075 3097 
Q 1594 3097 1305 2825 
Q 1016 2553 972 2059 
L 3022 2063 
z
" transform="scale(0.015625)"/>
       <path id="DejaVuSans-72" d="M 2631 2963 
Q 2534 3019 2420 3045 
Q 2306 3072 2169 3072 
Q 1681 3072 1420 2755 
Q 1159 2438 1159 1844 
L 1159 0 
L 581 0 
L 581 3500 
L 1159 3500 
L 1159 2956 
Q 1341 3275 1631 3429 
Q 1922 3584 2338 3584 
Q 2397 3584 2469 3576 
Q 2541 3569 2628 3553 
L 2631 2963 
z
" transform="scale(0.015625)"/>
       <path id="DejaVuSans-69" d="M 603 3500 
L 1178 3500 
L 1178 0 
L 603 0 
L 603 3500 
z
M 603 4863 
L 1178 4863 
L 1178 4134 
L 603 4134 
L 603 4863 
z
" transform="scale(0.015625)"/>
       <path id="DejaVuSans-66" d="M 2375 4863 
L 2375 4384 
L 1825 4384 
Q 1516 4384 1395 4259 
Q 1275 4134 1275 3809 
L 1275 3500 
L 2222 3500 
L 2222 3053 
L 1275 3053 
L 1275 0 
L 697 0 
L 697 3053 
L 147 3053 
L 147 3500 
L 697 3500 
L 697 3744 
Q 697 4328 969 4595 
Q 1241 4863 1831 4863 
L 2375 4863 
z
" transform="scale(0.015625)"/>
       <path id="DejaVuSans-63" d="M 3122 3366 
L 3122 2828 
Q 2878 2963 2633 3030 
Q 2388 3097 2138 3097 
Q 1578 3097 1268 2742 
Q 959 2388 959 1747 
Q 959 1106 1268 751 
Q 1578 397 2138 397 
Q 2388 397 2633 464 
Q 2878 531 3122 666 
L 3122 134 
Q 2881 22 2623 -34 
Q 2366 -91 2075 -91 
Q 1284 -91 818 406 
Q 353 903 353 1747 
Q 353 2603 823 3093 
Q 1294 3584 2113 3584 
Q 2378 3584 2631 3529 
Q 2884 3475 3122 3366 
z
" transform="scale(0.015625)"/>
       <path id="DejaVuSans-6f" d="M 1959 3097 
Q 1497 3097 1228 2736 
Q 959 2375 959 1747 
Q 959 1119 1226 758 
Q 1494 397 1959 397 
Q 2419 397 2687 759 
Q 2956 1122 2956 1747 
Q 2956 2369 2687 2733 
Q 2419 3097 1959 3097 
z
M 1959 3584 
Q 2709 3584 3137 3096 
Q 3566 2609 3566 1747 
Q 3566 888 3137 398 
Q 2709 -91 1959 -91 
Q 1206 -91 779 398 
Q 353 888 353 1747 
Q 353 2609 779 3096 
Q 1206 3584 1959 3584 
z
" transform="scale(0.015625)"/>
       <path id="DejaVuSans-6e" d="M 3513 2113 
L 3513 0 
L 2938 0 
L 2938 2094 
Q 2938 2591 2744 2837 
Q 2550 3084 2163 3084 
Q 1697 3084 1428 2787 
Q 1159 2491 1159 1978 
L 1159 0 
L 581 0 
L 581 3500 
L 1159 3500 
L 1159 2956 
Q 1366 3272 1645 3428 
Q 1925 3584 2291 3584 
Q 2894 3584 3203 3211 
Q 3513 2838 3513 2113 
z
" transform="scale(0.015625)"/>
       <path id="DejaVuSans-2d" d="M 313 2009 
L 1997 2009 
L 1997 1497 
L 313 1497 
L 313 2009 
z
" transform="scale(0.015625)"/>
       <path id="DejaVuSans-64" d="M 2906 2969 
L 2906 4863 
L 3481 4863 
L 3481 0 
L 2906 0 
L 2906 525 
Q 2725 213 2448 61 
Q 2172 -91 1784 -91 
Q 1150 -91 751 415 
Q 353 922 353 1747 
Q 353 2572 751 3078 
Q 1150 3584 1784 3584 
Q 2172 3584 2448 3432 
Q 2725 3281 2906 2969 
z
M 947 1747 
Q 947 1113 1208 752 
Q 1469 391 1925 391 
Q 2381 391 2643 752 
Q 2906 1113 2906 1747 
Q 2906 2381 2643 2742 
Q 2381 3103 1925 3103 
Q 1469 3103 1208 2742 
Q 947 2381 947 1747 
z
" transform="scale(0.015625)"/>
      </defs>
      <use xlink:href="#DejaVuSans-76"/>
      <use xlink:href="#DejaVuSans-65" x="59.179688"/>
      <use xlink:href="#DejaVuSans-72" x="120.703125"/>
      <use xlink:href="#DejaVuSans-69" x="161.816406"/>
      <use xlink:href="#DejaVuSans-66" x="189.599609"/>
      <use xlink:href="#DejaVuSans-69" x="224.804688"/>
      <use xlink:href="#DejaVuSans-63" x="252.587891"/>
      <use xlink:href="#DejaVuSans-61" x="307.568359"/>
      <use xlink:href="#DejaVuSans-74" x="368.847656"/>
      <use xlink:href="#DejaVuSans-69" x="408.056641"/>
      <use xlink:href="#DejaVuSans-6f" x="435.839844"/>
      <use xlink:href="#DejaVuSans-6e" x="497.021484"/>
      <use xlink:href="#DejaVuSans-2d" x="560.400391"/>
      <use xlink:href="#DejaVuSans-63" x="596.484375"/>
      <use xlink:href="#DejaVuSans-6f" x="651.464844"/>
      <use xlink:href="#DejaVuSans-64" x="712.646484"/>
      <use xlink:href="#DejaVuSans-65" x="776.123047"/>
     </g>
    </g>
   </g>
   <g id="text_54">
    <g clip-path="url(#p50464e47de)">
     <!-- basic -->
     <g transform="translate(399.602832 859.704403)scale(0.11 -0.11)">
      <defs>
       <path id="DejaVuSans-62" d="M 3116 1747 
Q 3116 2381 2855 2742 
Q 2594 3103 2138 3103 
Q 1681 3103 1420 2742 
Q 1159 2381 1159 1747 
Q 1159 1113 1420 752 
Q 1681 391 2138 391 
Q 2594 391 2855 752 
Q 3116 1113 3116 1747 
z
M 1159 2969 
Q 1341 3281 1617 3432 
Q 1894 3584 2278 3584 
Q 2916 3584 3314 3078 
Q 3713 2572 3713 1747 
Q 3713 922 3314 415 
Q 2916 -91 2278 -91 
Q 1894 -91 1617 61 
Q 1341 213 1159 525 
L 1159 0 
L 581 0 
L 581 4863 
L 1159 4863 
L 1159 2969 
z
" transform="scale(0.015625)"/>
      </defs>
      <use xlink:href="#DejaVuSans-62"/>
      <use xlink:href="#DejaVuSans-61" x="63.476562"/>
      <use xlink:href="#DejaVuSans-73" x="124.755859"/>
      <use xlink:href="#DejaVuSans-69" x="176.855469"/>
      <use xlink:href="#DejaVuSans-63" x="204.638672"/>
     </g>
    </g>
   </g>
   <g id="text_55">
    <g clip-path="url(#p50464e47de)">
     <!-- price -->
     <g transform="translate(400.193223 951.340767)scale(0.11 -0.11)">
      <use xlink:href="#DejaVuSans-70"/>
      <use xlink:href="#DejaVuSans-72" x="63.476562"/>
      <use xlink:href="#DejaVuSans-69" x="104.589844"/>
      <use xlink:href="#DejaVuSans-63" x="132.373047"/>
      <use xlink:href="#DejaVuSans-65" x="187.353516"/>
     </g>
    </g>
   </g>
   <g id="text_56">
    <g clip-path="url(#p50464e47de)">
     <!-- route -->
     <g transform="translate(445.165583 951.340767)scale(0.11 -0.11)">
      <use xlink:href="#DejaVuSans-72"/>
      <use xlink:href="#DejaVuSans-6f" x="38.863281"/>
      <use xlink:href="#DejaVuSans-75" x="100.044922"/>
      <use xlink:href="#DejaVuSans-74" x="163.423828"/>
      <use xlink:href="#DejaVuSans-65" x="202.632812"/>
     </g>
    </g>
   </g>
   <g id="text_57">
    <g clip-path="url(#p50464e47de)">
     <!-- station -->
     <g transform="translate(548.272722 951.340767)scale(0.11 -0.11)">
      <use xlink:href="#DejaVuSans-73"/>
      <use xlink:href="#DejaVuSans-74" x="52.099609"/>
      <use xlink:href="#DejaVuSans-61" x="91.308594"/>
      <use xlink:href="#DejaVuSans-74" x="152.587891"/>
      <use xlink:href="#DejaVuSans-69" x="191.796875"/>
      <use xlink:href="#DejaVuSans-6f" x="219.580078"/>
      <use xlink:href="#DejaVuSans-6e" x="280.761719"/>
     </g>
    </g>
   </g>
   <g id="text_58">
    <g clip-path="url(#p50464e47de)">
     <!-- train -->
     <g transform="translate(355.879814 951.340767)scale(0.11 -0.11)">
      <use xlink:href="#DejaVuSans-74"/>
      <use xlink:href="#DejaVuSans-72" x="39.208984"/>
      <use xlink:href="#DejaVuSans-61" x="80.322266"/>
      <use xlink:href="#DejaVuSans-69" x="141.601562"/>
      <use xlink:href="#DejaVuSans-6e" x="169.384766"/>
     </g>
    </g>
   </g>
   <g id="text_59">
    <g clip-path="url(#p50464e47de)">
     <!-- food -->
     <g transform="translate(576.420079 401.522585)scale(0.11 -0.11)">
      <use xlink:href="#DejaVuSans-66"/>
      <use xlink:href="#DejaVuSans-6f" x="35.205078"/>
      <use xlink:href="#DejaVuSans-6f" x="96.386719"/>
      <use xlink:href="#DejaVuSans-64" x="157.568359"/>
     </g>
    </g>
   </g>
   <g id="text_60">
    <g clip-path="url(#p50464e47de)">
     <!-- food-map -->
     <g transform="translate(567.713765 493.158949)scale(0.11 -0.11)">
      <defs>
       <path id="DejaVuSans-6d" d="M 3328 2828 
Q 3544 3216 3844 3400 
Q 4144 3584 4550 3584 
Q 5097 3584 5394 3201 
Q 5691 2819 5691 2113 
L 5691 0 
L 5113 0 
L 5113 2094 
Q 5113 2597 4934 2840 
Q 4756 3084 4391 3084 
Q 3944 3084 3684 2787 
Q 3425 2491 3425 1978 
L 3425 0 
L 2847 0 
L 2847 2094 
Q 2847 2600 2669 2842 
Q 2491 3084 2119 3084 
Q 1678 3084 1418 2786 
Q 1159 2488 1159 1978 
L 1159 0 
L 581 0 
L 581 3500 
L 1159 3500 
L 1159 2956 
Q 1356 3278 1631 3431 
Q 1906 3584 2284 3584 
Q 2666 3584 2933 3390 
Q 3200 3197 3328 2828 
z
" transform="scale(0.015625)"/>
      </defs>
      <use xlink:href="#DejaVuSans-66"/>
      <use xlink:href="#DejaVuSans-6f" x="35.205078"/>
      <use xlink:href="#DejaVuSans-6f" x="96.386719"/>
      <use xlink:href="#DejaVuSans-64" x="157.568359"/>
      <use xlink:href="#DejaVuSans-2d" x="221.044922"/>
      <use xlink:href="#DejaVuSans-6d" x="257.128906"/>
      <use xlink:href="#DejaVuSans-61" x="354.541016"/>
      <use xlink:href="#DejaVuSans-70" x="415.820312"/>
     </g>
    </g>
   </g>
   <g id="text_61">
    <g clip-path="url(#p50464e47de)">
     <!-- travel -->
     <g transform="translate(418.084317 493.158949)scale(0.11 -0.11)">
      <defs>
       <path id="DejaVuSans-6c" d="M 603 4863 
L 1178 4863 
L 1178 0 
L 603 0 
L 603 4863 
z
" transform="scale(0.015625)"/>
      </defs>
      <use xlink:href="#DejaVuSans-74"/>
      <use xlink:href="#DejaVuSans-72" x="39.208984"/>
      <use xlink:href="#DejaVuSans-61" x="80.322266"/>
      <use xlink:href="#DejaVuSans-76" x="141.601562"/>
      <use xlink:href="#DejaVuSans-65" x="200.78125"/>
      <use xlink:href="#DejaVuSans-6c" x="262.304688"/>
     </g>
    </g>
   </g>
   <g id="text_62">
    <g clip-path="url(#p50464e47de)">
     <!-- gateway -->
     <g transform="translate(549.170783 218.249858)scale(0.11 -0.11)">
      <defs>
       <path id="DejaVuSans-67" d="M 2906 1791 
Q 2906 2416 2648 2759 
Q 2391 3103 1925 3103 
Q 1463 3103 1205 2759 
Q 947 2416 947 1791 
Q 947 1169 1205 825 
Q 1463 481 1925 481 
Q 2391 481 2648 825 
Q 2906 1169 2906 1791 
z
M 3481 434 
Q 3481 -459 3084 -895 
Q 2688 -1331 1869 -1331 
Q 1566 -1331 1297 -1286 
Q 1028 -1241 775 -1147 
L 775 -588 
Q 1028 -725 1275 -790 
Q 1522 -856 1778 -856 
Q 2344 -856 2625 -561 
Q 2906 -266 2906 331 
L 2906 616 
Q 2728 306 2450 153 
Q 2172 0 1784 0 
Q 1141 0 747 490 
Q 353 981 353 1791 
Q 353 2603 747 3093 
Q 1141 3584 1784 3584 
Q 2172 3584 2450 3431 
Q 2728 3278 2906 2969 
L 2906 3500 
L 3481 3500 
L 3481 434 
z
" transform="scale(0.015625)"/>
       <path id="DejaVuSans-77" d="M 269 3500 
L 844 3500 
L 1563 769 
L 2278 3500 
L 2956 3500 
L 3675 769 
L 4391 3500 
L 4966 3500 
L 4050 0 
L 3372 0 
L 2619 2869 
L 1863 0 
L 1184 0 
L 269 3500 
z
" transform="scale(0.015625)"/>
       <path id="DejaVuSans-79" d="M 2059 -325 
Q 1816 -950 1584 -1140 
Q 1353 -1331 966 -1331 
L 506 -1331 
L 506 -850 
L 844 -850 
Q 1081 -850 1212 -737 
Q 1344 -625 1503 -206 
L 1606 56 
L 191 3500 
L 800 3500 
L 1894 763 
L 2988 3500 
L 3597 3500 
L 2059 -325 
z
" transform="scale(0.015625)"/>
      </defs>
      <use xlink:href="#DejaVuSans-67"/>
      <use xlink:href="#DejaVuSans-61" x="63.476562"/>
      <use xlink:href="#DejaVuSans-74" x="124.755859"/>
      <use xlink:href="#DejaVuSans-65" x="163.964844"/>
      <use xlink:href="#DejaVuSans-77" x="225.488281"/>
      <use xlink:href="#DejaVuSans-61" x="307.275391"/>
      <use xlink:href="#DejaVuSans-79" x="368.554688"/>
     </g>
    </g>
   </g>
   <g id="text_63">
    <g clip-path="url(#p50464e47de)">
     <!-- assurance -->
     <g transform="translate(589.175475 309.886222)scale(0.11 -0.11)">
      <use xlink:href="#DejaVuSans-61"/>
      <use xlink:href="#DejaVuSans-73" x="61.279297"/>
      <use xlink:href="#DejaVuSans-73" x="113.378906"/>
      <use xlink:href="#DejaVuSans-75" x="165.478516"/>
      <use xlink:href="#DejaVuSans-72" x="228.857422"/>
      <use xlink:href="#DejaVuSans-61" x="269.970703"/>
      <use xlink:href="#DejaVuSans-6e" x="331.25"/>
      <use xlink:href="#DejaVuSans-63" x="394.628906"/>
      <use xlink:href="#DejaVuSans-65" x="449.609375"/>
     </g>
    </g>
   </g>
   <g id="text_64">
    <g clip-path="url(#p50464e47de)">
     <!-- consign -->
     <g transform="translate(657.735333 309.886222)scale(0.11 -0.11)">
      <use xlink:href="#DejaVuSans-63"/>
      <use xlink:href="#DejaVuSans-6f" x="54.980469"/>
      <use xlink:href="#DejaVuSans-6e" x="116.162109"/>
      <use xlink:href="#DejaVuSans-73" x="179.541016"/>
      <use xlink:href="#DejaVuSans-69" x="231.640625"/>
      <use xlink:href="#DejaVuSans-67" x="259.423828"/>
      <use xlink:href="#DejaVuSans-6e" x="322.900391"/>
     </g>
    </g>
   </g>
   <g id="text_65">
    <g clip-path="url(#p50464e47de)">
     <!-- contacts -->
     <g transform="translate(714.172935 309.886222)scale(0.11 -0.11)">
      <use xlink:href="#DejaVuSans-63"/>
      <use xlink:href="#DejaVuSans-6f" x="54.980469"/>
      <use xlink:href="#DejaVuSans-6e" x="116.162109"/>
      <use xlink:href="#DejaVuSans-74" x="179.541016"/>
      <use xlink:href="#DejaVuSans-61" x="218.75"/>
      <use xlink:href="#DejaVuSans-63" x="280.029297"/>
      <use xlink:href="#DejaVuSans-74" x="335.009766"/>
      <use xlink:href="#DejaVuSans-73" x="374.21875"/>
     </g>
    </g>
   </g>
   <g id="text_66">
    <g clip-path="url(#p50464e47de)">
     <!-- order -->
     <g transform="translate(500.001586 676.431676)scale(0.11 -0.11)">
      <use xlink:href="#DejaVuSans-6f"/>
      <use xlink:href="#DejaVuSans-72" x="61.181641"/>
      <use xlink:href="#DejaVuSans-64" x="100.544922"/>
      <use xlink:href="#DejaVuSans-65" x="164.021484"/>
      <use xlink:href="#DejaVuSans-72" x="225.544922"/>
     </g>
    </g>
   </g>
   <g id="text_67">
    <g clip-path="url(#p50464e47de)">
     <!-- order-other -->
     <g transform="translate(488.499056 768.06804)scale(0.11 -0.11)">
      <use xlink:href="#DejaVuSans-6f"/>
      <use xlink:href="#DejaVuSans-72" x="61.181641"/>
      <use xlink:href="#DejaVuSans-64" x="100.544922"/>
      <use xlink:href="#DejaVuSans-65" x="164.021484"/>
      <use xlink:href="#DejaVuSans-72" x="225.544922"/>
      <use xlink:href="#DejaVuSans-2d" x="260.283203"/>
      <use xlink:href="#DejaVuSans-6f" x="298.242188"/>
      <use xlink:href="#DejaVuSans-74" x="359.423828"/>
      <use xlink:href="#DejaVuSans-68" x="398.632812"/>
      <use xlink:href="#DejaVuSans-65" x="462.011719"/>
      <use xlink:href="#DejaVuSans-72" x="523.535156"/>
     </g>
    </g>
   </g>
   <g id="text_68">
    <g clip-path="url(#p50464e47de)">
     <!-- preserve -->
     <g transform="translate(859.420117 309.886222)scale(0.11 -0.11)">
      <use xlink:href="#DejaVuSans-70"/>
      <use xlink:href="#DejaVuSans-72" x="63.476562"/>
      <use xlink:href="#DejaVuSans-65" x="102.339844"/>
      <use xlink:href="#DejaVuSans-73" x="163.863281"/>
      <use xlink:href="#DejaVuSans-65" x="215.962891"/>
      <use xlink:href="#DejaVuSans-72" x="277.486328"/>
      <use xlink:href="#DejaVuSans-76" x="318.599609"/>
      <use xlink:href="#DejaVuSans-65" x="377.779297"/>
     </g>
    </g>
   </g>
   <g id="text_69">
    <g clip-path="url(#p50464e47de)">
     <!-- preserve-other -->
     <g transform="translate(769.381201 309.886222)scale(0.11 -0.11)">
      <use xlink:href="#DejaVuSans-70"/>
      <use xlink:href="#DejaVuSans-72" x="63.476562"/>
      <use xlink:href="#DejaVuSans-65" x="102.339844"/>
      <use xlink:href="#DejaVuSans-73" x="163.863281"/>
      <use xlink:href="#DejaVuSans-65" x="215.962891"/>
      <use xlink:href="#DejaVuSans-72" x="277.486328"/>
      <use xlink:href="#DejaVuSans-76" x="318.599609"/>
      <use xlink:href="#DejaVuSans-65" x="377.779297"/>
      <use xlink:href="#DejaVuSans-2d" x="439.302734"/>
      <use xlink:href="#DejaVuSans-6f" x="477.261719"/>
      <use xlink:href="#DejaVuSans-74" x="538.443359"/>
      <use xlink:href="#DejaVuSans-68" x="577.652344"/>
      <use xlink:href="#DejaVuSans-65" x="641.03125"/>
      <use xlink:href="#DejaVuSans-72" x="702.554688"/>
     </g>
    </g>
   </g>
   <g id="text_70">
    <g clip-path="url(#p50464e47de)">
     <!-- travel-plan -->
     <g transform="translate(403.002665 309.886222)scale(0.11 -0.11)">
      <use xlink:href="#DejaVuSans-74"/>
      <use xlink:href="#DejaVuSans-72" x="39.208984"/>
      <use xlink:href="#DejaVuSans-61" x="80.322266"/>
      <use xlink:href="#DejaVuSans-76" x="141.601562"/>
      <use xlink:href="#DejaVuSans-65" x="200.78125"/>
      <use xlink:href="#DejaVuSans-6c" x="262.304688"/>
      <use xlink:href="#DejaVuSans-2d" x="290.087891"/>
      <use xlink:href="#DejaVuSans-70" x="326.171875"/>
      <use xlink:href="#DejaVuSans-6c" x="389.648438"/>
      <use xlink:href="#DejaVuSans-61" x="417.431641"/>
      <use xlink:href="#DejaVuSans-6e" x="478.710938"/>
     </g>
    </g>
   </g>
   <g id="text_71">
    <g clip-path="url(#p50464e47de)">
     <!-- ts-ui-dashboard -->
     <g transform="translate(916.225385 309.886222)scale(0.11 -0.11)">
      <use xlink:href="#DejaVuSans-74"/>
      <use xlink:href="#DejaVuSans-73" x="39.208984"/>
      <use xlink:href="#DejaVuSans-2d" x="91.308594"/>
      <use xlink:href="#DejaVuSans-75" x="127.392578"/>
      <use xlink:href="#DejaVuSans-69" x="190.771484"/>
      <use xlink:href="#DejaVuSans-2d" x="218.554688"/>
      <use xlink:href="#DejaVuSans-64" x="254.638672"/>
      <use xlink:href="#DejaVuSans-61" x="318.115234"/>
      <use xlink:href="#DejaVuSans-73" x="379.394531"/>
      <use xlink:href="#DejaVuSans-68" x="431.494141"/>
      <use xlink:href="#DejaVuSans-62" x="494.873047"/>
      <use xlink:href="#DejaVuSans-6f" x="558.349609"/>
      <use xlink:href="#DejaVuSans-61" x="619.53125"/>
      <use xlink:href="#DejaVuSans-72" x="680.810547"/>
      <use xlink:href="#DejaVuSans-64" x="720.173828"/>
     </g>
    </g>
   </g>
   <g id="text_72">
    <g clip-path="url(#p50464e47de)">
     <!-- security*(RC)* -->
     <g transform="translate(807.795073 401.522585)scale(0.11 -0.11)">
      <defs>
       <path id="DejaVuSans-2a" d="M 3009 3897 
L 1888 3291 
L 3009 2681 
L 2828 2375 
L 1778 3009 
L 1778 1831 
L 1422 1831 
L 1422 3009 
L 372 2375 
L 191 2681 
L 1313 3291 
L 191 3897 
L 372 4206 
L 1422 3572 
L 1422 4750 
L 1778 4750 
L 1778 3572 
L 2828 4206 
L 3009 3897 
z
" transform="scale(0.015625)"/>
       <path id="DejaVuSans-28" d="M 1984 4856 
Q 1566 4138 1362 3434 
Q 1159 2731 1159 2009 
Q 1159 1288 1364 580 
Q 1569 -128 1984 -844 
L 1484 -844 
Q 1016 -109 783 600 
Q 550 1309 550 2009 
Q 550 2706 781 3412 
Q 1013 4119 1484 4856 
L 1984 4856 
z
" transform="scale(0.015625)"/>
       <path id="DejaVuSans-52" d="M 2841 2188 
Q 3044 2119 3236 1894 
Q 3428 1669 3622 1275 
L 4263 0 
L 3584 0 
L 2988 1197 
Q 2756 1666 2539 1819 
Q 2322 1972 1947 1972 
L 1259 1972 
L 1259 0 
L 628 0 
L 628 4666 
L 2053 4666 
Q 2853 4666 3247 4331 
Q 3641 3997 3641 3322 
Q 3641 2881 3436 2590 
Q 3231 2300 2841 2188 
z
M 1259 4147 
L 1259 2491 
L 2053 2491 
Q 2509 2491 2742 2702 
Q 2975 2913 2975 3322 
Q 2975 3731 2742 3939 
Q 2509 4147 2053 4147 
L 1259 4147 
z
" transform="scale(0.015625)"/>
       <path id="DejaVuSans-43" d="M 4122 4306 
L 4122 3641 
Q 3803 3938 3442 4084 
Q 3081 4231 2675 4231 
Q 1875 4231 1450 3742 
Q 1025 3253 1025 2328 
Q 1025 1406 1450 917 
Q 1875 428 2675 428 
Q 3081 428 3442 575 
Q 3803 722 4122 1019 
L 4122 359 
Q 3791 134 3420 21 
Q 3050 -91 2638 -91 
Q 1578 -91 968 557 
Q 359 1206 359 2328 
Q 359 3453 968 4101 
Q 1578 4750 2638 4750 
Q 3056 4750 3426 4639 
Q 3797 4528 4122 4306 
z
" transform="scale(0.015625)"/>
       <path id="DejaVuSans-29" d="M 513 4856 
L 1013 4856 
Q 1481 4119 1714 3412 
Q 1947 2706 1947 2009 
Q 1947 1309 1714 600 
Q 1481 -109 1013 -844 
L 513 -844 
Q 928 -128 1133 580 
Q 1338 1288 1338 2009 
Q 1338 2731 1133 3434 
Q 928 4138 513 4856 
z
" transform="scale(0.015625)"/>
      </defs>
      <use xlink:href="#DejaVuSans-73"/>
      <use xlink:href="#DejaVuSans-65" x="52.099609"/>
      <use xlink:href="#DejaVuSans-63" x="113.623047"/>
      <use xlink:href="#DejaVuSans-75" x="168.603516"/>
      <use xlink:href="#DejaVuSans-72" x="231.982422"/>
      <use xlink:href="#DejaVuSans-69" x="273.095703"/>
      <use xlink:href="#DejaVuSans-74" x="300.878906"/>
      <use xlink:href="#DejaVuSans-79" x="340.087891"/>
      <use xlink:href="#DejaVuSans-2a" x="399.267578"/>
      <use xlink:href="#DejaVuSans-28" x="449.267578"/>
      <use xlink:href="#DejaVuSans-52" x="488.28125"/>
      <use xlink:href="#DejaVuSans-43" x="552.763672"/>
      <use xlink:href="#DejaVuSans-29" x="622.587891"/>
      <use xlink:href="#DejaVuSans-2a" x="661.601562"/>
     </g>
    </g>
   </g>
   <g id="text_73">
    <g clip-path="url(#p50464e47de)">
     <!-- route-plan -->
     <g transform="translate(405.65088 401.522585)scale(0.11 -0.11)">
      <use xlink:href="#DejaVuSans-72"/>
      <use xlink:href="#DejaVuSans-6f" x="38.863281"/>
      <use xlink:href="#DejaVuSans-75" x="100.044922"/>
      <use xlink:href="#DejaVuSans-74" x="163.423828"/>
      <use xlink:href="#DejaVuSans-65" x="202.632812"/>
      <use xlink:href="#DejaVuSans-2d" x="264.15625"/>
      <use xlink:href="#DejaVuSans-70" x="300.240234"/>
      <use xlink:href="#DejaVuSans-6c" x="363.716797"/>
      <use xlink:href="#DejaVuSans-61" x="391.5"/>
      <use xlink:href="#DejaVuSans-6e" x="452.779297"/>
     </g>
    </g>
   </g>
   <g id="text_74">
    <g clip-path="url(#p50464e47de)">
     <!-- travel2 -->
     <g transform="translate(347.394054 676.431676)scale(0.11 -0.11)">
      <use xlink:href="#DejaVuSans-74"/>
      <use xlink:href="#DejaVuSans-72" x="39.208984"/>
      <use xlink:href="#DejaVuSans-61" x="80.322266"/>
      <use xlink:href="#DejaVuSans-76" x="141.601562"/>
      <use xlink:href="#DejaVuSans-65" x="200.78125"/>
      <use xlink:href="#DejaVuSans-6c" x="262.304688"/>
      <use xlink:href="#DejaVuSans-32" x="290.087891"/>
     </g>
    </g>
   </g>
   <g id="text_75">
    <g clip-path="url(#p50464e47de)">
     <!-- seat -->
     <g transform="translate(414.933543 584.795313)scale(0.11 -0.11)">
      <use xlink:href="#DejaVuSans-73"/>
      <use xlink:href="#DejaVuSans-65" x="52.099609"/>
      <use xlink:href="#DejaVuSans-61" x="113.623047"/>
      <use xlink:href="#DejaVuSans-74" x="174.902344"/>
     </g>
    </g>
   </g>
   <g id="text_76">
    <g clip-path="url(#p50464e47de)">
     <!-- config -->
     <g transform="translate(402.548784 676.431676)scale(0.11 -0.11)">
      <use xlink:href="#DejaVuSans-63"/>
      <use xlink:href="#DejaVuSans-6f" x="54.980469"/>
      <use xlink:href="#DejaVuSans-6e" x="116.162109"/>
      <use xlink:href="#DejaVuSans-66" x="179.541016"/>
      <use xlink:href="#DejaVuSans-69" x="214.746094"/>
      <use xlink:href="#DejaVuSans-67" x="242.529297"/>
     </g>
    </g>
   </g>
   <g id="text_77">
    <g clip-path="url(#p50464e47de)">
     <!-- ticketinfo -->
     <g transform="translate(314.423012 768.06804)scale(0.11 -0.11)">
      <defs>
       <path id="DejaVuSans-6b" d="M 581 4863 
L 1159 4863 
L 1159 1991 
L 2875 3500 
L 3609 3500 
L 1753 1863 
L 3688 0 
L 2938 0 
L 1159 1709 
L 1159 0 
L 581 0 
L 581 4863 
z
" transform="scale(0.015625)"/>
      </defs>
      <use xlink:href="#DejaVuSans-74"/>
      <use xlink:href="#DejaVuSans-69" x="39.208984"/>
      <use xlink:href="#DejaVuSans-63" x="66.992188"/>
      <use xlink:href="#DejaVuSans-6b" x="121.972656"/>
      <use xlink:href="#DejaVuSans-65" x="176.257812"/>
      <use xlink:href="#DejaVuSans-74" x="237.78125"/>
      <use xlink:href="#DejaVuSans-69" x="276.990234"/>
      <use xlink:href="#DejaVuSans-6e" x="304.773438"/>
      <use xlink:href="#DejaVuSans-66" x="368.152344"/>
      <use xlink:href="#DejaVuSans-6f" x="403.357422"/>
     </g>
    </g>
   </g>
  </g>
 </g>
 <defs>
  <clipPath id="p50464e47de">
   <rect x="144" y="138.24" width="892.8" height="887.04"/>
  </clipPath>
 </defs>
</svg>
